<svg width="371" height="173" viewBox="0 0 371 173" fill="none" xmlns="http://www.w3.org/2000/svg">
<rect width="371" height="172.623" transform="translate(0 0.152405)" fill="#171717"/>
<path d="M244.448 74.9948C237.107 74.9948 230.914 80.9589 230.914 88.5286C230.914 95.869 236.878 102.062 244.448 102.062C252.018 102.062 257.982 96.0984 257.982 88.5286C257.982 80.9589 251.788 74.9948 244.448 74.9948ZM244.448 98.3923C238.943 98.3923 234.584 94.0339 234.584 88.5286C234.584 83.0234 238.943 78.665 244.448 78.665C249.953 78.665 254.312 83.0234 254.312 88.5286C254.312 93.8046 249.724 98.3923 244.448 98.3923Z" fill="#E9E9E9"/>
<path d="M278.397 88.7583V66.9665H274.727V88.7583C274.727 96.0986 280.691 102.063 288.031 102.063V98.3925C282.755 98.3925 278.397 94.0341 278.397 88.7583Z" fill="#E9E9E9"/>
<path d="M301.795 74.7654C294.454 74.7654 288.261 80.7295 288.261 88.2993C288.261 95.6396 294.225 101.833 301.795 101.833C309.364 101.833 315.328 95.869 315.328 88.2992C315.328 80.7294 309.364 74.7654 301.795 74.7654ZM301.795 98.1629C296.289 98.1629 291.931 93.8045 291.931 88.2992C291.931 82.7939 296.289 78.4356 301.795 78.4356C307.3 78.4356 311.658 82.7939 311.658 88.2992C311.658 93.8045 307.3 98.1629 301.795 98.1629Z" fill="#E9E9E9"/>
<path d="M190.771 78.8946C188.248 76.3713 184.807 74.5363 180.908 74.5363C173.338 74.5363 167.374 80.5002 167.374 88.0701C167.374 95.6398 173.567 101.604 180.908 101.604C184.807 101.604 188.248 99.9982 190.771 97.2456V101.833H194.441V74.7657H190.771V78.8946ZM180.908 98.1631C175.402 98.1631 171.044 93.8048 171.044 88.2994C171.044 82.7941 175.402 78.4358 180.908 78.4358C186.184 78.4358 190.542 82.7941 190.771 88.2994C190.771 93.8048 186.413 98.1631 180.908 98.1631Z" fill="#E9E9E9"/>
<path d="M213.481 74.7654C209.581 74.7654 206.14 76.3711 203.617 79.1237V74.7654H199.947V105.962H203.617V97.4748C206.14 100.227 209.581 101.833 213.481 101.833C221.05 101.833 227.014 95.6396 227.014 88.2993C227.014 80.9589 220.821 74.7654 213.481 74.7654ZM213.481 98.1629C208.205 98.1629 203.617 93.8045 203.617 88.2992C203.617 82.7939 207.975 78.4356 213.481 78.4356C218.986 78.4356 223.344 82.7939 223.344 88.2992C223.344 93.8045 218.986 98.1629 213.481 98.1629Z" fill="#E9E9E9"/>
<path d="M265.093 88.7583V66.9665H261.422V88.7583C261.422 96.0986 267.386 102.063 274.727 102.063V98.3925C269.451 98.3925 265.093 94.0341 265.093 88.7583Z" fill="#E9E9E9"/>
<path d="M86.3119 55.8242C69.3899 55.8242 55.6719 69.5422 55.6719 86.4642C55.6719 103.386 69.3899 117.104 86.3119 117.104C103.234 117.104 116.952 103.386 116.952 86.4642C116.952 69.5422 103.234 55.8242 86.3119 55.8242ZM86.3119 108.944C73.8965 108.944 63.8319 98.8795 63.8319 86.4642C63.8319 74.0489 73.8965 63.9842 86.3119 63.9842C98.7272 63.9842 108.792 74.0489 108.792 86.4642C108.792 98.8795 98.7272 108.944 86.3119 108.944Z" fill="#E9E9E9"/>
<path d="M143.282 82.3351H116.673V55.8242H108.415V82.3351H81.8064V90.593H108.415L108.415 117.104H116.673L116.673 90.593H143.282V82.3351Z" fill="url(#paint0_linear_601_1776)"/>
<defs>
<linearGradient id="paint0_linear_601_1776" x1="92.8418" y1="114.602" x2="133.09" y2="61.8918" gradientUnits="userSpaceOnUse">
<stop stop-color="#430488"/>
<stop offset="0.541667" stop-color="#7F13BE"/>
</linearGradient>
</defs>
</svg>
