<svg width="261" height="63" viewBox="0 0 261 63" fill="none" xmlns="http://www.w3.org/2000/svg">
<path d="M189.448 19.9948C182.107 19.9948 175.914 25.9589 175.914 33.5286C175.914 40.869 181.878 47.0624 189.448 47.0624C197.017 47.0624 202.981 41.0984 202.981 33.5286C202.981 25.9589 196.788 19.9948 189.448 19.9948ZM189.448 43.3922C183.942 43.3922 179.584 39.0339 179.584 33.5286C179.584 28.0233 183.942 23.665 189.448 23.665C194.953 23.665 199.311 28.0233 199.311 33.5286C199.311 38.8045 194.723 43.3922 189.448 43.3922Z" fill="#E9E9E9"/>
<path d="M223.397 33.7582V11.9665H219.727V33.7582C219.727 41.0986 225.691 47.0626 233.031 47.0626V43.3924C227.755 43.3924 223.397 39.0341 223.397 33.7582Z" fill="#E9E9E9"/>
<path d="M246.794 19.7655C239.454 19.7655 233.26 25.7295 233.26 33.2993C233.26 40.6397 239.225 46.833 246.794 46.833C254.364 46.833 260.328 40.869 260.328 33.2992C260.328 25.7295 254.364 19.7655 246.794 19.7655ZM246.794 43.1629C241.289 43.1629 236.931 38.8046 236.931 33.2992C236.931 27.794 241.289 23.4356 246.794 23.4356C252.3 23.4356 256.658 27.794 256.658 33.2992C256.658 38.8046 252.3 43.1629 246.794 43.1629Z" fill="#E9E9E9"/>
<path d="M135.771 23.8946C133.248 21.3713 129.807 19.5362 125.907 19.5362C118.338 19.5362 112.374 25.5002 112.374 33.07C112.374 40.6398 118.567 46.6039 125.907 46.6039C129.807 46.6039 133.248 44.9982 135.771 42.2455V46.8332H139.441V19.7656H135.771V23.8946ZM125.907 43.1631C120.402 43.1631 116.044 38.8047 116.044 33.2994C116.044 27.7941 120.402 23.4357 125.907 23.4357C131.183 23.4357 135.542 27.7941 135.771 33.2994C135.771 38.8047 131.413 43.1631 125.907 43.1631Z" fill="#E9E9E9"/>
<path d="M158.48 19.7655C154.581 19.7655 151.14 21.3711 148.617 24.1237V19.7655H144.947V50.962H148.617V42.4748C151.14 45.2275 154.581 46.833 158.48 46.833C166.05 46.833 172.014 40.6397 172.014 33.2993C172.014 25.9589 165.821 19.7655 158.48 19.7655ZM158.48 43.1629C153.205 43.1629 148.617 38.8046 148.617 33.2992C148.617 27.794 152.975 23.4356 158.48 23.4356C163.986 23.4356 168.344 27.794 168.344 33.2992C168.344 38.8046 163.986 43.1629 158.48 43.1629Z" fill="#E9E9E9"/>
<path d="M210.092 33.7582V11.9665H206.422V33.7582C206.422 41.0986 212.386 47.0626 219.727 47.0626V43.3924C214.451 43.3924 210.092 39.0341 210.092 33.7582Z" fill="#E9E9E9"/>
<path d="M31.3117 0.824158C14.3897 0.824158 0.671753 14.5422 0.671753 31.4642C0.671753 48.3862 14.3897 62.1041 31.3117 62.1041C48.2337 62.1041 61.9517 48.3862 61.9517 31.4642C61.9517 14.5422 48.2337 0.824158 31.3117 0.824158ZM31.3117 53.944C18.8964 53.944 8.83176 43.8795 8.83176 31.4642C8.83176 19.0489 18.8964 8.98419 31.3117 8.98419C43.7271 8.98419 53.7916 19.0489 53.7916 31.4642C53.7916 43.8795 43.7271 53.944 31.3117 53.944Z" fill="#E9E9E9"/>
<path d="M88.2821 27.3351H61.6731V0.824158H53.4152V27.3351H26.8064V35.593H53.4152L53.4153 62.1039H61.6732L61.6731 35.593H88.2821V27.3351Z" fill="url(#paint0_linear_1240_13971)"/>
<defs>
<linearGradient id="paint0_linear_1240_13971" x1="37.8418" y1="59.602" x2="78.0901" y2="6.89181" gradientUnits="userSpaceOnUse">
<stop stop-color="#420A98"/>
<stop offset="0.552083" stop-color="#7F13BE"/>
</linearGradient>
</defs>
</svg>
