<svg width="128" height="128" viewBox="0 0 128 128" fill="none" xmlns="http://www.w3.org/2000/svg">
<rect width="128" height="128" fill="#F7EEE1" fill-opacity="0.0"/>
<path d="M59.6733 42.3111C47.7054 42.3111 38.0036 52.013 38.0036 63.9808C38.0036 75.9487 47.7054 85.6505 59.6733 85.6505C71.6411 85.6505 81.3429 75.9487 81.3429 63.9808C81.3429 52.013 71.6411 42.3111 59.6733 42.3111ZM59.6733 79.8793C50.8927 79.8793 43.7746 72.7614 43.7746 63.9808C43.7746 55.2003 50.8927 48.0822 59.6733 48.0822C68.4538 48.0822 75.5718 55.2003 75.5718 63.9808C75.5718 72.7614 68.4538 79.8793 59.6733 79.8793Z" fill="#1D1D1D"/>
<path d="M99.9648 61.0606H81.146V42.3111H75.3057V61.0606H56.487V66.9009H75.3057L75.3058 85.6503H81.146L81.146 66.9009H99.9648V61.0606Z" fill="url(#paint0_linear_2_9)"/>
<defs>
<linearGradient id="paint0_linear_2_9" x1="64.2917" y1="83.8809" x2="92.7567" y2="46.6024" gradientUnits="userSpaceOnUse">
<stop stop-color="#420A98"/>
<stop offset="0.552083" stop-color="#7F13BE"/>
</linearGradient>
</defs>
</svg>
