<svg width="24" height="25" viewBox="0 0 24 25" fill="none" xmlns="http://www.w3.org/2000/svg">
<g id="accessibility-sign 1">
<path id="Vector" d="M11.5 12.6917L18.5 12.1917L17 18.6917" stroke="#420A98" stroke-width="1.5" stroke-linecap="round" stroke-linejoin="round"/>
<path id="Vector_2" d="M11.5 12.6917L16 7.69165L12.5 5.19165L10 7.69165" stroke="#420A98" stroke-width="1.5" stroke-linecap="round" stroke-linejoin="round"/>
<path id="Vector_3" d="M18.5 6.69165C17.3954 6.69165 16.5 5.79622 16.5 4.69165C16.5 3.58708 17.3954 2.69165 18.5 2.69165C19.6046 2.69165 20.5 3.58708 20.5 4.69165C20.5 5.79622 19.6046 6.69165 18.5 6.69165Z" stroke="#420A98" stroke-width="1.5" stroke-linecap="round" stroke-linejoin="round"/>
<path id="Vector_4" d="M5.49951 12.6917C6.33526 12.0638 7.37418 11.6917 8.5 11.6917C11.2614 11.6917 13.5 13.9303 13.5 16.6917C13.5 17.4028 13.3516 18.0792 13.084 18.6917M3.7289 15.1917C3.58018 15.6652 3.5 16.1691 3.5 16.6917C3.5 19.4531 5.73858 21.6917 8.5 21.6917C9.41072 21.6917 10.2646 21.4482 11 21.0228" stroke="#420A98" stroke-width="1.5" stroke-linecap="round" stroke-linejoin="round"/>
</g>
</svg>
