<svg width="261" height="62" viewBox="0 0 261 62" fill="none" xmlns="http://www.w3.org/2000/svg">
<path d="M189.448 19.8423C182.107 19.8423 175.914 25.8064 175.914 33.3762C175.914 40.7166 181.878 46.91 189.448 46.91C197.018 46.91 202.982 40.9459 202.982 33.3762C202.982 25.8064 196.788 19.8423 189.448 19.8423ZM189.448 43.2398C183.943 43.2398 179.584 38.8814 179.584 33.3762C179.584 27.8709 183.943 23.5125 189.448 23.5125C194.953 23.5125 199.312 27.8709 199.312 33.3762C199.312 38.6521 194.724 43.2398 189.448 43.2398Z" fill="#1D1D1D"/>
<path d="M223.397 33.6058V11.814H219.727V33.6058C219.727 40.9461 225.691 46.9102 233.031 46.9102V43.24C227.755 43.24 223.397 38.8816 223.397 33.6058Z" fill="#1D1D1D"/>
<path d="M246.795 19.613C239.454 19.613 233.261 25.5771 233.261 33.1469C233.261 40.4872 239.225 46.6806 246.795 46.6806C254.364 46.6806 260.328 40.7166 260.328 33.1468C260.328 25.577 254.364 19.613 246.795 19.613ZM246.795 43.0105C241.289 43.0105 236.931 38.6521 236.931 33.1468C236.931 27.6415 241.289 23.2831 246.795 23.2831C252.3 23.2831 256.658 27.6415 256.658 33.1468C256.658 38.6521 252.3 43.0105 246.795 43.0105Z" fill="#1D1D1D"/>
<path d="M135.771 23.7421C133.248 21.2188 129.807 19.3837 125.908 19.3837C118.338 19.3837 112.374 25.3477 112.374 32.9176C112.374 40.4873 118.567 46.4514 125.908 46.4514C129.807 46.4514 133.248 44.8457 135.771 42.093V46.6807H139.441V19.6131H135.771V23.7421ZM125.908 43.0106C120.402 43.0106 116.044 38.6522 116.044 33.1469C116.044 27.6416 120.402 23.2832 125.908 23.2832C131.184 23.2832 135.542 27.6416 135.771 33.1469C135.771 38.6522 131.413 43.0106 125.908 43.0106Z" fill="#1D1D1D"/>
<path d="M158.481 19.613C154.581 19.613 151.14 21.2187 148.617 23.9713V19.613H144.947V50.8096H148.617V42.3223C151.14 45.075 154.581 46.6806 158.481 46.6806C166.05 46.6806 172.014 40.4872 172.014 33.1469C172.014 25.8065 165.821 19.613 158.481 19.613ZM158.481 43.0105C153.205 43.0105 148.617 38.6521 148.617 33.1468C148.617 27.6415 152.975 23.2831 158.481 23.2831C163.986 23.2831 168.344 27.6415 168.344 33.1468C168.344 38.6521 163.986 43.0105 158.481 43.0105Z" fill="#1D1D1D"/>
<path d="M210.093 33.6058V11.814H206.422V33.6058C206.422 40.9461 212.386 46.9102 219.727 46.9102V43.24C214.451 43.24 210.093 38.8816 210.093 33.6058Z" fill="#1D1D1D"/>
<path d="M31.3119 0.671753C14.3899 0.671753 0.671875 14.3898 0.671875 31.3118C0.671875 48.2338 14.3899 61.9517 31.3119 61.9517C48.2339 61.9517 61.9518 48.2338 61.9518 31.3118C61.9518 14.3898 48.2339 0.671753 31.3119 0.671753ZM31.3119 53.7916C18.8965 53.7916 8.83188 43.7271 8.83188 31.3118C8.83188 18.8964 18.8965 8.83179 31.3119 8.83179C43.7272 8.83179 53.7917 18.8964 53.7917 31.3118C53.7917 43.7271 43.7272 53.7916 31.3119 53.7916Z" fill="#1D1D1D"/>
<path d="M88.2821 27.1827H61.6731V0.671753H53.4153V27.1827H26.8064V35.4406H53.4153L53.4153 61.9515H61.6732L61.6731 35.4406H88.2821V27.1827Z" fill="url(#paint0_linear_601_1697)"/>
<defs>
<linearGradient id="paint0_linear_601_1697" x1="37.8418" y1="59.4496" x2="78.0901" y2="6.7394" gradientUnits="userSpaceOnUse">
<stop stop-color="#430488"/>
<stop offset="0.541667" stop-color="#7F13BE"/>
</linearGradient>
</defs>
</svg>
