<?xml version="1.0" encoding="utf-8"?>
<!-- Generator: Adobe Illustrator 27.8.0, SVG Export Plug-In . SVG Version: 6.00 Build 0)  -->
<svg version="1.1" id="Layer_1" xmlns="http://www.w3.org/2000/svg" xmlns:xlink="http://www.w3.org/1999/xlink" x="0px" y="0px"
	 viewBox="0 0 24 24" style="enable-background:new 0 0 24 24;" xml:space="preserve">
<style type="text/css">
	.st0{fill:none;stroke:#420A98;stroke-width:1.5;stroke-linecap:round;}
	.st1{fill:none;stroke:#420A98;stroke-width:1.5;stroke-linecap:round;stroke-linejoin:round;}
</style>
<g>
	<path class="st0" d="M16,7.6L15,6H7C6.4,6,5.9,5.7,5.7,5.1L5.2,3.7"/>
	<path class="st0" d="M3.5,11H2.6c-0.3,0-0.5-0.2-0.5-0.5L2,1h15.1c0.2,0,0.4,0.1,0.5,0.3L19,8v2.5c0,0.3-0.4,0.5-0.7,0.5H17"/>
	<path class="st1" d="M10.1,23c1.1,0,2-0.9,2-2c0-1.1-0.9-2-2-2c-1.1,0-2,0.9-2,2C8.1,22.1,8.9,23,10.1,23z"/>
	<path class="st1" d="M6.1,13c1.1,0,2-0.9,2-2c0-1.1-0.9-2-2-2s-2,0.9-2,2C4.1,12.1,4.9,13,6.1,13z"/>
	<path class="st1" d="M13,13c1.1,0,2-0.9,2-2s-0.9-2-2-2s-2,0.9-2,2S11.9,13,13,13z"/>
	<path class="st0" d="M16,21v-5.4c0-0.3-0.3-0.6-0.6-0.6H2l0,5.4C2,20.7,2.3,21,2.6,21h3.4"/>
	<path class="st0" d="M16,21h6"/>
</g>
</svg>
