<?xml version="1.0" encoding="utf-8"?>
<!-- Generator: Adobe Illustrator 27.8.0, SVG Export Plug-In . SVG Version: 6.00 Build 0)  -->
<svg version="1.1" id="Layer_1" xmlns="http://www.w3.org/2000/svg" xmlns:xlink="http://www.w3.org/1999/xlink" x="0px" y="0px"
	 viewBox="0 0 25 24" style="enable-background:new 0 0 25 24;" xml:space="preserve">
<style type="text/css">
	.st0{fill:none;stroke:#420A98;stroke-width:1.5;stroke-linecap:round;}
	.st1{fill:none;stroke:#420A98;stroke-width:1.5;stroke-linecap:round;stroke-linejoin:round;}
</style>
<path class="st0" d="M15.5,5.3h-10"/>
<path class="st0" d="M17.6,8.8V5.2"/>
<path class="st0" d="M4.5,10.8H3.6c-0.3,0-0.5-0.2-0.5-0.5l0-9.5h15.1c0.2,0,0.4,0.1,0.5,0.3L20,7.8v2.5c0,0.3-0.4,0.5-0.7,0.5H18"
	/>
<path class="st1" d="M7.1,22.8c1.1,0,2-0.9,2-2c0-1.1-0.9-2-2-2s-2,0.9-2,2C5.1,21.9,5.9,22.8,7.1,22.8z"/>
<path class="st1" d="M7.1,12.7c1.1,0,2-0.9,2-2c0-1.1-0.9-2-2-2s-2,0.9-2,2C5.1,11.8,5.9,12.7,7.1,12.7z"/>
<path class="st1" d="M13,22.7c1.1,0,2-0.9,2-2c0-1.1-0.9-2-2-2s-2,0.9-2,2C11,21.9,11.9,22.7,13,22.7z"/>
<path class="st1" d="M14,12.8c1.1,0,2-0.9,2-2s-0.9-2-2-2s-2,0.9-2,2S12.9,12.8,14,12.8z"/>
<path class="st0" d="M17,20.7v-5.4c0-0.3-0.3-0.6-0.6-0.6H3l0,5.4c0,0.3,0.3,0.6,0.6,0.6h1.4"/>
<path class="st0" d="M17,20.7h6"/>
</svg>
