<?xml version="1.0" encoding="utf-8"?>
<!-- Generator: Adobe Illustrator 27.8.0, SVG Export Plug-In . SVG Version: 6.00 Build 0)  -->
<svg version="1.1" id="Layer_1" xmlns="http://www.w3.org/2000/svg" xmlns:xlink="http://www.w3.org/1999/xlink" x="0px" y="0px"
	 viewBox="0 0 24 24" style="enable-background:new 0 0 24 24;" xml:space="preserve">
<style type="text/css">
	.st0{fill:none;stroke:#420A98;stroke-width:1.5;stroke-linecap:round;stroke-linejoin:round;}
	.st1{fill:none;stroke:#420A98;stroke-width:1.5;stroke-linecap:round;}
</style>
<g>
	<path class="st0" d="M17,22.5c2.2,0,4-1.8,4-4.1s-1.8-4.1-4-4.1s-4,1.8-4,4.1S14.8,22.5,17,22.5z"/>
	<path class="st0" d="M3,22.5c-1.1,0-2-0.9-2-2c0-1.1,0.9-2,2-2s2,0.9,2,2C5,21.6,4.1,22.5,3,22.5z"/>
	<path class="st1" d="M12.5,13.9h-8c-0.8,0-1.5,0.7-1.5,1.5v3.1"/>
	<path class="st1" d="M4.7,19.5H13"/>
	<path class="st1" d="M8,13.4V4.2h6.6c0.2,0,0.5,0.1,0.5,0.4l1.8,4.1C17,8.8,17,8.9,17,8.9v5.4"/>
	<path class="st1" d="M19,1.5v13.4"/>
	<path class="st1" d="M23,6.8h-4"/>
</g>
</svg>
