<?xml version="1.0" encoding="utf-8"?>
<!-- Generator: Adobe Illustrator 27.8.0, SVG Export Plug-In . SVG Version: 6.00 Build 0)  -->
<svg version="1.1" id="Layer_1" xmlns="http://www.w3.org/2000/svg" xmlns:xlink="http://www.w3.org/1999/xlink" x="0px" y="0px"
	 viewBox="0 0 25 24" style="enable-background:new 0 0 25 24;" xml:space="preserve">
<style type="text/css">
	.st0{fill:none;stroke:#420A98;stroke-width:1.5;stroke-linecap:round;stroke-linejoin:round;}
	.st1{fill:none;stroke:#420A98;stroke-width:1.5;stroke-linecap:round;}
</style>
<g>
	<path class="st0" d="M3.7,18.8c1.1,0,2-0.9,2-2s-0.9-2-2-2s-2,0.9-2,2S2.6,18.8,3.7,18.8z"/>
	<path class="st0" d="M8.2,18.8c1.1,0,2-0.9,2-2s-0.9-2-2-2s-2,0.9-2,2S7.1,18.8,8.2,18.8z"/>
	<path class="st0" d="M15.7,18.8c1.1,0,2-0.9,2-2s-0.9-2-2-2c-1.1,0-2,0.9-2,2S14.6,18.8,15.7,18.8z"/>
	<path class="st1" d="M16.6,9.7H5.1"/>
	<path class="st1" d="M19.7,13.8V9.7"/>
	<path class="st1" d="M1.7,16.8v-11h20c0.2,0,0.5,0.1,0.5,0.4l1.4,7.1v2.9c0,0.3-0.3,0.6-0.6,0.6h-2.4"/>
	<path class="st1" d="M10.2,16.8h3.2"/>
</g>
</svg>
