<?xml version="1.0" encoding="utf-8"?>
<!-- Generator: Adobe Illustrator 27.8.0, SVG Export Plug-In . SVG Version: 6.00 Build 0)  -->
<svg version="1.1" id="Layer_1" xmlns="http://www.w3.org/2000/svg" xmlns:xlink="http://www.w3.org/1999/xlink" x="0px" y="0px"
	 viewBox="0 0 25 24" style="enable-background:new 0 0 25 24;" xml:space="preserve">
<style type="text/css">
	.st0{fill:none;stroke:#420A98;stroke-width:1.5;stroke-linecap:round;}
	.st1{fill:none;stroke:#420A98;stroke-width:1.5;stroke-linecap:round;stroke-linejoin:round;}
</style>
<g>
	<path class="st0" d="M15.4,9.7H5.7"/>
	<path class="st0" d="M17.4,13.8V9.7"/>
	<path class="st1" d="M14.3,18.8c1.1,0,1.9-0.9,1.9-2s-0.9-2-1.9-2s-1.9,0.9-1.9,2S13.2,18.8,14.3,18.8z"/>
	<path class="st1" d="M6.7,18.8c1.1,0,1.9-0.9,1.9-2s-0.9-2-1.9-2s-1.9,0.9-1.9,2S5.7,18.8,6.7,18.8z"/>
	<path class="st0" d="M4.8,16.8h-1c-0.3,0-0.6-0.3-0.6-0.6l0-10.4h16.1c0.2,0,0.4,0.1,0.5,0.4l1.4,7.1v2.9c0,0.3-0.3,0.6-0.6,0.6
		h-2.3"/>
</g>
</svg>
