<?xml version="1.0" encoding="utf-8"?>
<!-- Generator: Adobe Illustrator 27.8.0, SVG Export Plug-In . SVG Version: 6.00 Build 0)  -->
<svg version="1.1" id="Layer_1" xmlns="http://www.w3.org/2000/svg" xmlns:xlink="http://www.w3.org/1999/xlink" x="0px" y="0px"
	 viewBox="0 0 24 24" style="enable-background:new 0 0 24 24;" xml:space="preserve">
<style type="text/css">
	.st0{fill:none;stroke:#420A98;stroke-width:1.5;stroke-linecap:round;stroke-linejoin:round;}
	.st1{fill:none;stroke:#420A98;stroke-width:1.5;stroke-linecap:round;stroke-miterlimit:6.6667;}
</style>
<g>
	<path class="st0" d="M22.4,8.9v8.1c0,1.1-0.9,2-2,2H4c-1.1,0-2-0.9-2-2V6.9c0-1.1,0.9-2,2-2h16.3c1.1,0,2,0.9,2,2V8.9z M22.4,8.9
		H6.1"/>
	<path class="st0" d="M7.9,15.8c1.3,0,2.3-1,2.3-2.3s-1-2.3-2.3-2.3c-1.3,0-2.3,1-2.3,2.3S6.6,15.8,7.9,15.8z"/>
	<path class="st1" d="M5.1,18.8c0-1.7,1.3-3,3-3s3,1.3,3,3v0.3"/>
</g>
</svg>
