<?xml version="1.0" encoding="utf-8"?>
<!-- Generator: Adobe Illustrator 27.8.0, SVG Export Plug-In . SVG Version: 6.00 Build 0)  -->
<svg version="1.1" id="Layer_1" xmlns="http://www.w3.org/2000/svg" xmlns:xlink="http://www.w3.org/1999/xlink" x="0px" y="0px"
	 viewBox="0 0 24 24" style="enable-background:new 0 0 24 24;" xml:space="preserve">
<style type="text/css">
	.st0{fill:none;stroke:#420A98;stroke-width:1.5;stroke-linecap:round;stroke-linejoin:round;}
</style>
<g>
	<path class="st0" d="M15,5l-0.5,0.5c-0.3,0.3-0.4,0.8-0.3,1.2L18,16"/>
	<path class="st0" d="M6.7,12h2.7c0.7,0,1.4,0.5,1.5,1.3l0.5,2.6"/>
	<path class="st0" d="M6.6,12c-0.7,0-1.4-0.5-1.5-1.3L4.3,6"/>
	<path class="st0" d="M18,16H6"/>
	<path class="st0" d="M15,16c0-1.7,1.3-3,3-3c1.7,0,3,1.3,3,3s-1.3,3-3,3C16.3,19,15,17.7,15,16z"/>
	<path class="st0" d="M3,16c0-1.7,1.3-3,3-3s3,1.3,3,3s-1.3,3-3,3S3,17.7,3,16z"/>
</g>
</svg>
