<?xml version="1.0" encoding="utf-8"?>
<!-- Generator: Adobe Illustrator 27.8.0, SVG Export Plug-In . SVG Version: 6.00 Build 0)  -->
<svg version="1.1" id="Layer_1" xmlns="http://www.w3.org/2000/svg" xmlns:xlink="http://www.w3.org/1999/xlink" x="0px" y="0px"
	 viewBox="0 0 24 24" style="enable-background:new 0 0 24 24;" xml:space="preserve">
<style type="text/css">
	.st0{fill:none;stroke:#420A98;stroke-width:1.5;stroke-linecap:round;stroke-miterlimit:6.6667;}
	.st1{fill:none;stroke:#420A98;stroke-width:1.5;stroke-linecap:round;stroke-linejoin:round;}
</style>
<g>
	<path class="st0" d="M1,18.5v-0.7c0-2.9,2.3-5.2,5.2-5.2s5.2,2.3,5.2,5.2v0.7"/>
	<path class="st0" d="M9.9,14.1c0-2,1.7-3.7,3.7-3.7c2.1,0,3.7,1.7,3.7,3.7v0.4"/>
	<path class="st1" d="M6.2,12.6c1.6,0,3-1.3,3-3c0-1.6-1.3-3-3-3c-1.6,0-3,1.3-3,3C3.2,11.3,4.6,12.6,6.2,12.6z"/>
	<path class="st1" d="M13.7,10.4c1.2,0,2.2-1,2.2-2.2S14.9,6,13.7,6c-1.2,0-2.2,1-2.2,2.2S12.4,10.4,13.7,10.4z"/>
	<path class="st1" d="M20,9.9c1.2,0,2.2-1,2.2-2.2c0-1.2-1-2.2-2.2-2.2c-1.2,0-2.2,1-2.2,2.2C17.7,8.9,18.7,9.9,20,9.9z"/>
	<path class="st0" d="M17.2,12.8c0-1.6,1.3-2.9,2.9-2.9c1.6,0,2.9,1.3,2.9,2.9v0.3"/>
</g>
</svg>
