<?xml version="1.0" encoding="utf-8"?>
<!-- Generator: Adobe Illustrator 27.8.0, SVG Export Plug-In . SVG Version: 6.00 Build 0)  -->
<svg version="1.1" id="Layer_1" xmlns="http://www.w3.org/2000/svg" xmlns:xlink="http://www.w3.org/1999/xlink" x="0px" y="0px"
	 viewBox="0 0 24 24" style="enable-background:new 0 0 24 24;" xml:space="preserve">
<style type="text/css">
	.st0{fill:none;stroke:#420A98;stroke-width:1.5;stroke-linecap:round;}
	.st1{fill:none;stroke:#420A98;stroke-width:1.5;stroke-linecap:round;stroke-linejoin:round;}
</style>
<g>
	<path class="st0" d="M19.5,7.6l-1-1.6h-12C5.9,6,5.4,5.7,5.2,5.1L4.7,3.7"/>
	<path class="st0" d="M1.6,10.5l0-9.5h19c0.2,0,0.4,0.1,0.5,0.3L22.5,8v2.5c0,0.3-0.4,0.5-0.7,0.5h-1.3"/>
	<path class="st1" d="M5.5,23c1.1,0,2-0.9,2-2c0-1.1-0.9-2-2-2s-2,0.9-2,2C3.5,22.1,4.4,23,5.5,23z"/>
	<path class="st1" d="M3.5,13c1.1,0,2-0.9,2-2c0-1.1-0.9-2-2-2s-2,0.9-2,2C1.6,12.1,2.4,13,3.5,13z"/>
	<path class="st1" d="M11.5,23c1.1,0,2-0.9,2-2c0-1.1-0.9-2-2-2c-1.1,0-2,0.9-2,2C9.5,22.1,10.4,23,11.5,23z"/>
	<path class="st1" d="M7.5,13c1.1,0,2-0.9,2-2s-0.9-2-2-2s-2,0.9-2,2S6.4,13,7.5,13z"/>
	<path class="st1" d="M16.5,13c1.1,0,2-0.9,2-2s-0.9-2-2-2s-2,0.9-2,2S15.4,13,16.5,13z"/>
	<path class="st0" d="M15.5,21v-5.4c0-0.3-0.3-0.6-0.6-0.6H1.5l0,5.4c0,0.3,0.3,0.6,0.6,0.6h1.4"/>
	<path class="st0" d="M15.5,21h6"/>
</g>
</svg>
