<?xml version="1.0" encoding="utf-8"?>
<!-- Generator: Adobe Illustrator 27.8.0, SVG Export Plug-In . SVG Version: 6.00 Build 0)  -->
<svg version="1.1" id="Layer_1" xmlns="http://www.w3.org/2000/svg" xmlns:xlink="http://www.w3.org/1999/xlink" x="0px" y="0px"
	 viewBox="0 0 24 24" style="enable-background:new 0 0 24 24;" xml:space="preserve">
<style type="text/css">
	.st0{fill:none;stroke:#420A98;stroke-width:1.5;stroke-linecap:round;stroke-linejoin:round;}
	.st1{fill:none;stroke:#420A98;stroke-width:1.5;stroke-linecap:round;}
	.st2{fill:none;stroke:#420A98;stroke-width:1.5;stroke-miterlimit:3.5;}
</style>
<g>
	<path class="st0" d="M3.1,23c1.2,0,2.1-1,2.1-2.2c0-1.2-1-2.2-2.1-2.2S1,19.6,1,20.8C1,22,2,23,3.1,23z"/>
	<path class="st0" d="M7.4,23c1.2,0,2.1-1,2.1-2.2c0-1.2-1-2.2-2.1-2.2s-2.1,1-2.1,2.2C5.3,22,6.3,23,7.4,23z"/>
	<path class="st0" d="M15.2,23c1.2,0,2.1-1,2.1-2.2c0-1.2-1-2.2-2.1-2.2s-2.1,1-2.1,2.2C13.1,22,14.1,23,15.2,23z"/>
	<path class="st1" d="M18.7,15.4H6.3c-0.5,0-1-0.2-1.3-0.6"/>
	<path class="st1" d="M14.9,8.8h6c0.3,0,0.5,0.2,0.6,0.4L23,17v3.2c0,0.4-0.3,0.7-0.6,0.7h-2.6"/>
	<path class="st1" d="M1,20.8v-8.3"/>
	<path class="st1" d="M9.6,20.8h3.5"/>
	<path class="st2" d="M5.9,1.5c0.6-0.7,1.7-0.7,2.3,0C8.5,1.8,8.9,2,9.4,2C10.3,2,11,2.7,11,3.6c0,0.5,0.2,0.9,0.5,1.2
		c0.7,0.6,0.7,1.7,0,2.3C11.2,7.5,11,7.9,11,8.4c0,0.9-0.7,1.7-1.6,1.6c-0.5,0-0.9,0.2-1.2,0.5c-0.6,0.7-1.7,0.7-2.3,0
		C5.5,10.2,5.1,10,4.6,10C3.7,10,3,9.3,3,8.4c0-0.5-0.2-0.9-0.5-1.2c-0.7-0.6-0.7-1.7,0-2.3C2.8,4.5,3,4.1,3,3.6C3,2.7,3.7,2,4.6,2
		C5.1,2,5.5,1.8,5.9,1.5z"/>
	<path class="st0" d="M5.4,6l1,1L8.6,5"/>
</g>
</svg>
