<?xml version="1.0" encoding="utf-8"?>
<!-- Generator: Adobe Illustrator 27.8.0, SVG Export Plug-In . SVG Version: 6.00 Build 0)  -->
<svg version="1.1" id="Layer_1" xmlns="http://www.w3.org/2000/svg" xmlns:xlink="http://www.w3.org/1999/xlink" x="0px" y="0px"
	 viewBox="0 0 25 24" style="enable-background:new 0 0 25 24;" xml:space="preserve">
<style type="text/css">
	.st0{fill:none;stroke:#420A98;stroke-width:1.5;stroke-linecap:round;stroke-linejoin:round;}
	.st1{fill:none;stroke:#420A98;stroke-width:1.5;stroke-linecap:round;}
	.st2{fill:none;stroke:#420A98;stroke-width:1.5;stroke-linecap:round;stroke-miterlimit:6.6667;}
</style>
<g>
	<path class="st0" d="M11.2,20.2H2.3"/>
	<path class="st1" d="M2.3,2.2h17c0.4,0,0.7,0.2,0.8,0.5l2.1,10.8v5.6c0,0.6-0.5,1.1-1.1,1.1h-2.2"/>
	<path class="st0" d="M13.8,22.2c1.1,0,2-0.9,2-2.1s-0.9-2.1-2-2.1s-2,0.9-2,2.1S12.6,22.2,13.8,22.2z"/>
	<path class="st2" d="M7.2,11.5C7.2,10.1,8.4,9,9.7,9c1.4,0,2.5,1.1,2.5,2.6v1.9"/>
	<path class="st0" d="M9.8,8.8c0.8,0,1.5-0.7,1.5-1.5c0-0.9-0.7-1.5-1.5-1.5C9,5.8,8.3,6.4,8.3,7.3C8.3,8.1,9,8.8,9.8,8.8z"/>
	<path class="st2" d="M2.2,11.5C2.2,10.1,3.4,9,4.7,9s2.5,1.1,2.5,2.6v0.9"/>
	<path class="st0" d="M4.8,8.8c0.8,0,1.5-0.7,1.5-1.5c0-0.9-0.7-1.5-1.5-1.5S3.3,6.4,3.3,7.3C3.3,8.1,4,8.8,4.8,8.8z"/>
	<path class="st2" d="M14.2,15.5c0-1.4,1.1-2.6,2.5-2.6c1.4,0,2.5,1.1,2.5,2.6v1.4"/>
	<path class="st0" d="M16.7,12.8c0.8,0,1.5-0.7,1.5-1.5c0-0.9-0.7-1.5-1.5-1.5c-0.8,0-1.5,0.7-1.5,1.5
		C15.2,12.1,15.9,12.8,16.7,12.8z"/>
</g>
</svg>
