<?xml version="1.0" encoding="utf-8"?>
<!-- Generator: Adobe Illustrator 27.8.0, SVG Export Plug-In . SVG Version: 6.00 Build 0)  -->
<svg version="1.1" id="Layer_1" xmlns="http://www.w3.org/2000/svg" xmlns:xlink="http://www.w3.org/1999/xlink" x="0px" y="0px"
	 viewBox="0 0 24 24" style="enable-background:new 0 0 24 24;" xml:space="preserve">
<style type="text/css">
	.st0{fill:none;stroke:#420A98;stroke-width:1.5;stroke-linecap:round;stroke-linejoin:round;}
	.st1{fill:none;stroke:#420A98;stroke-width:1.5;stroke-linecap:round;}
</style>
<g>
	<path class="st0" d="M14.1,18.5c1.1,0,2-0.9,2-2s-0.9-2-2-2s-2,0.9-2,2S13,18.5,14.1,18.5z"/>
	<path class="st0" d="M6.2,18.5c1.1,0,2-0.9,2-2s-0.9-2-2-2s-2,0.9-2,2S5.1,18.5,6.2,18.5z"/>
	<path class="st1" d="M18.4,13.5l-1-2H7.8c-0.6,0-1.2-0.4-1.4-1l-1.2-3"/>
	<path class="st1" d="M4.1,16.5h-1c-0.3,0-0.6-0.3-0.6-0.6l0-10.4h17c0.2,0,0.5,0.1,0.6,0.4l1.5,7.1v2.9c0,0.3-0.3,0.6-0.6,0.6h-2.5
		"/>
</g>
</svg>
