<?xml version="1.0" encoding="utf-8"?>
<!-- Generator: Adobe Illustrator 27.8.0, SVG Export Plug-In . SVG Version: 6.00 Build 0)  -->
<svg version="1.1" id="Layer_1" xmlns="http://www.w3.org/2000/svg" xmlns:xlink="http://www.w3.org/1999/xlink" x="0px" y="0px"
	 viewBox="0 0 24 24" style="enable-background:new 0 0 24 24;" xml:space="preserve">
<style type="text/css">
	.st0{fill:none;stroke:#420A98;stroke-width:1.5;stroke-linecap:round;}
	.st1{fill:none;stroke:#420A98;stroke-width:1.5;stroke-linecap:round;stroke-linejoin:round;}
</style>
<g>
	<path class="st0" d="M3,4.5h8.3c0.7,0,1.3,0.5,1.5,1.1l1.2,4.9v5"/>
	<path class="st1" d="M7,19.5c2.8,0,5-2.2,5-5c0-2.8-2.2-5-5-5s-5,2.2-5,5C2,17.3,4.2,19.5,7,19.5z"/>
	<path class="st0" d="M11.6,12h6.9c0.8,0,1.5,0.7,1.5,1.5V15"/>
	<path class="st0" d="M5,9.5v-5"/>
	<path class="st1" d="M20,19.5c1.1,0,2-0.9,2-2c0-1.1-0.9-2-2-2c-1.1,0-2,0.9-2,2C18,18.6,18.9,19.5,20,19.5z"/>
</g>
</svg>
