<?xml version="1.0" encoding="utf-8"?>
<!-- Generator: Adobe Illustrator 27.8.0, SVG Export Plug-In . SVG Version: 6.00 Build 0)  -->
<svg version="1.1" id="Layer_1" xmlns="http://www.w3.org/2000/svg" xmlns:xlink="http://www.w3.org/1999/xlink" x="0px" y="0px"
	 viewBox="0 0 25 24" style="enable-background:new 0 0 25 24;" xml:space="preserve">
<style type="text/css">
	.st0{fill:none;stroke:#420A98;stroke-width:1.5;stroke-linecap:round;stroke-linejoin:round;}
	.st1{fill:none;stroke:#420A98;stroke-width:1.5;stroke-linecap:round;}
</style>
<g>
	<path class="st0" d="M6.2,22.8c1.1,0,2-0.9,2-2c0-1.1-0.9-2-2-2s-2,0.9-2,2C4.2,21.9,5.1,22.8,6.2,22.8z"/>
	<path class="st0" d="M12.2,22.7c1.1,0,2-0.9,2-2c0-1.1-0.9-2-2-2s-2,0.9-2,2C10.2,21.9,11.1,22.7,12.2,22.7z"/>
	<path class="st0" d="M20.3,8.7c0-1.1-0.9-2-2-2c-1.1,0-2,0.9-2,2s0.9,2,2,2C19.4,10.7,20.3,9.8,20.3,8.7z"/>
	<path class="st0" d="M8.2,8.7c0-1.1-0.9-2-2-2s-2,0.9-2,2s0.9,2,2,2S8.2,9.8,8.2,8.7z"/>
	<path class="st1" d="M1.8,8.7c-0.3,0-0.6-0.3-0.6-0.6V5.4l0.1-0.2l1.8-4c0.1-0.2,0.3-0.4,0.5-0.4h10.6l2.1,3l5.4,1
		c1,0.2,1.5,0.7,1.5,1.5v1.9c0,0.3-0.3,0.6-0.6,0.6h-2.4"/>
	<path class="st1" d="M8.2,8.7h7.7"/>
	<path class="st1" d="M23.2,20.8h-7"/>
	<path class="st1" d="M4.2,20.8H2.9c-0.3,0-0.6-0.3-0.6-0.6v-6.4h18v6.6"/>
</g>
</svg>
