<?xml version="1.0" encoding="utf-8"?>
<!-- Generator: Adobe Illustrator 27.8.0, SVG Export Plug-In . SVG Version: 6.00 Build 0)  -->
<svg version="1.1" id="Layer_1" xmlns="http://www.w3.org/2000/svg" xmlns:xlink="http://www.w3.org/1999/xlink" x="0px" y="0px"
	 viewBox="0 0 24 24" style="enable-background:new 0 0 24 24;" xml:space="preserve">
<style type="text/css">
	.st0{fill:none;stroke:#420A98;stroke-width:1.5;stroke-linecap:round;stroke-linejoin:round;}
	.st1{fill:none;stroke:#420A98;stroke-width:1.5;stroke-linecap:round;}
</style>
<g>
	<path class="st0" d="M3.1,19c1.2,0,2.1-1,2.1-2.2c0-1.2-1-2.2-2.1-2.2S1,15.7,1,16.8C1,18,2,19,3.1,19z"/>
	<path class="st0" d="M7.4,19c1.2,0,2.1-1,2.1-2.2c0-1.2-1-2.2-2.1-2.2s-2.1,1-2.1,2.2C5.3,18,6.3,19,7.4,19z"/>
	<path class="st0" d="M15.2,19c1.2,0,2.1-1,2.1-2.2c0-1.2-1-2.2-2.1-2.2s-2.1,1-2.1,2.2C13.1,18,14.1,19,15.2,19z"/>
	<path class="st1" d="M19.8,13.6l-1.1-2.2H6.3c-0.7,0-1.3-0.4-1.5-1L3.5,7.2"/>
	<path class="st1" d="M1,16.8V5h19.9c0.3,0,0.5,0.2,0.6,0.4l1.6,7.7v3.1c0,0.4-0.3,0.6-0.6,0.6h-2.6"/>
</g>
</svg>
