<?xml version="1.0" encoding="utf-8"?>
<!-- Generator: Adobe Illustrator 27.8.0, SVG Export Plug-In . SVG Version: 6.00 Build 0)  -->
<svg version="1.1" id="Layer_1" xmlns="http://www.w3.org/2000/svg" xmlns:xlink="http://www.w3.org/1999/xlink" x="0px" y="0px"
	 viewBox="0 0 24 24" style="enable-background:new 0 0 24 24;" xml:space="preserve">
<style type="text/css">
	.st0{fill:none;stroke:#420A98;stroke-width:1.5;stroke-linecap:round;stroke-linejoin:round;}
	.st1{fill:none;stroke:#420A98;stroke-width:1.5;stroke-linecap:round;}
</style>
<g>
	<path class="st0" d="M8,12c1.1,0,2-0.9,2-2c0-1.1-0.9-2-2-2s-2,0.9-2,2C6,11.1,6.9,12,8,12z"/>
	<path class="st0" d="M5,23c1.1,0,2-0.9,2-2s-0.9-2-2-2s-2,0.9-2,2S3.9,23,5,23z"/>
	<path class="st0" d="M18,12c1.1,0,2-0.9,2-2c0-1.1-0.9-2-2-2c-1.1,0-2,0.9-2,2C16,11.1,16.9,12,18,12z"/>
	<path class="st0" d="M11,23c1.1,0,2-0.9,2-2c0-1.1-0.9-2-2-2c-1.1,0-2,0.9-2,2C9,22.1,9.9,23,11,23z"/>
	<path class="st1" d="M10.1,10H15V1.6C15,1.3,14.7,1,14.4,1H1l0,8.4C1,9.7,1.3,10,1.6,10h4"/>
	<path class="st1" d="M15,21v-5.4c0-0.3-0.3-0.6-0.6-0.6H1l0,5.4C1,20.7,1.3,21,1.6,21H3"/>
	<path class="st1" d="M15,2h5.6c0.2,0,0.5,0.1,0.5,0.4l1.8,4C23,6.5,23,6.5,23,6.6v2.8c0,0.3-0.3,0.6-0.6,0.6"/>
	<path class="st1" d="M15,10h1"/>
	<path class="st1" d="M15,21h6"/>
</g>
</svg>
