<?xml version="1.0" encoding="utf-8"?>
<!-- Generator: Adobe Illustrator 27.8.0, SVG Export Plug-In . SVG Version: 6.00 Build 0)  -->
<svg version="1.1" id="Layer_1" xmlns="http://www.w3.org/2000/svg" xmlns:xlink="http://www.w3.org/1999/xlink" x="0px" y="0px"
	 viewBox="0 0 24 24" style="enable-background:new 0 0 24 24;" xml:space="preserve">
<style type="text/css">
	.st0{fill:none;stroke:#420A98;stroke-width:1.5;stroke-linecap:round;stroke-linejoin:round;}
	.st1{fill:none;stroke:#420A98;stroke-width:1.5;stroke-linecap:round;}
</style>
<g>
	<path class="st0" d="M9.5,17.5C9.5,18.9,8.4,20,7,20s-2.5-1.1-2.5-2.5c0-0.2,0-0.3,0-0.5"/>
	<path class="st0" d="M14.5,17.5c0,1.4-1.1,2.5-2.5,2.5c-1.4,0-2.5-1.1-2.5-2.5"/>
	<path class="st0" d="M19.4,17c0,0.2,0.1,0.3,0.1,0.5c0,1.4-1.1,2.5-2.5,2.5c-1.4,0-2.5-1.1-2.5-2.5"/>
	<path class="st1" d="M4.6,17h14.9"/>
	<path class="st0" d="M14,8h7.5C22.3,8,23,8.7,23,9.5V13"/>
	<path class="st1" d="M4.1,10l1.2-4.9C5.5,4.5,6.1,4,6.8,4h5c0.7,0,1.3,0.5,1.5,1.1l1.2,4.9v2.6"/>
	<path class="st1" d="M23,12.6v4.8c0,0.3-0.3,0.6-0.6,0.6"/>
	<path class="st0" d="M4.1,10H2.5C1.7,10,1,10.7,1,11.5l0,5.9C1,17.7,1.3,18,1.6,18"/>
</g>
</svg>
