<?xml version="1.0" encoding="utf-8"?>
<!-- Generator: Adobe Illustrator 27.8.0, SVG Export Plug-In . SVG Version: 6.00 Build 0)  -->
<svg version="1.1" id="Layer_1" xmlns="http://www.w3.org/2000/svg" xmlns:xlink="http://www.w3.org/1999/xlink" x="0px" y="0px"
	 viewBox="0 0 24 24" style="enable-background:new 0 0 24 24;" xml:space="preserve">
<style type="text/css">
	.st0{fill:none;stroke:#420A98;stroke-width:1.5;stroke-linecap:round;stroke-linejoin:round;}
	.st1{fill:none;stroke:#420A98;stroke-width:1.5;stroke-linecap:round;}
</style>
<g>
	<path class="st0" d="M8,18.5c1.1,0,2-0.9,2-2s-0.9-2-2-2c-1.1,0-2,0.9-2,2S6.9,18.5,8,18.5z"/>
	<path class="st0" d="M18,18.5c1.1,0,2-0.9,2-2s-0.9-2-2-2c-1.1,0-2,0.9-2,2S16.9,18.5,18,18.5z"/>
	<path class="st1" d="M10.1,16.5H15V6.1c0-0.3-0.3-0.6-0.6-0.6H1l0,10.4c0,0.3,0.3,0.6,0.6,0.6h4"/>
	<path class="st1" d="M15,8.5h5.6c0.2,0,0.5,0.1,0.5,0.4l1.8,4C23,13,23,13,23,13.1v2.8c0,0.3-0.3,0.6-0.6,0.6"/>
	<path class="st1" d="M15,16.5h1"/>
</g>
</svg>
