<?xml version="1.0" encoding="utf-8"?>
<!-- Generator: Adobe Illustrator 27.8.0, SVG Export Plug-In . SVG Version: 6.00 Build 0)  -->
<svg version="1.1" id="Layer_1" xmlns="http://www.w3.org/2000/svg" xmlns:xlink="http://www.w3.org/1999/xlink" x="0px" y="0px"
	 viewBox="0 0 24 24" style="enable-background:new 0 0 24 24;" xml:space="preserve">
<style type="text/css">
	.st0{fill:none;stroke:#420A98;stroke-width:1.5;stroke-linecap:round;stroke-linejoin:round;}
</style>
<path class="st0" d="M16.2,9.4l3.3,4.8"/>
<path class="st0" d="M16,5.8h2l2,2h-2l-3.6,3.6C14.2,11.6,14,12,14,12.4v3.4l-9.5-1.5"/>
<path class="st0" d="M12.6,9.5L2,6.8L7.2,12"/>
<path class="st0" d="M16,14.2c0-1.9,1.6-3.5,3.5-3.5s3.5,1.6,3.5,3.5c0,1.9-1.6,3.5-3.5,3.5S16,16.2,16,14.2z"/>
<path class="st0" d="M1,14.2c0-1.9,1.6-3.5,3.5-3.5S8,12.3,8,14.2c0,1.9-1.6,3.5-3.5,3.5S1,16.2,1,14.2z"/>
<path class="st0" d="M7.7,8.2c2.7-2,6.4-1.4,8.4,1.2"/>
</svg>
