<?xml version="1.0" encoding="utf-8"?>
<!-- Generator: Adobe Illustrator 27.8.0, SVG Export Plug-In . SVG Version: 6.00 Build 0)  -->
<svg version="1.1" id="Layer_1" xmlns="http://www.w3.org/2000/svg" xmlns:xlink="http://www.w3.org/1999/xlink" x="0px" y="0px"
	 viewBox="0 0 24 24" style="enable-background:new 0 0 24 24;" xml:space="preserve">
<style type="text/css">
	.st0{fill:none;stroke:#420A98;stroke-width:1.5;stroke-linecap:round;stroke-linejoin:round;}
	.st1{fill:none;stroke:#420A98;stroke-width:1.5;stroke-linecap:round;}
</style>
<g>
	<path class="st0" d="M21.2,11.9c-2.4-1.1-5.2,0-6.3,2.4"/>
	<path class="st0" d="M22,16.2c0-1.5-1.2-2.8-2.8-2.8s-2.8,1.2-2.8,2.8c0,1.5,1.2,2.8,2.8,2.8S22,17.8,22,16.2z"/>
	<path class="st0" d="M2.8,11.9c2.4-1.1,5.2,0,6.3,2.4"/>
	<path class="st0" d="M2,16.2c0-1.5,1.2-2.8,2.8-2.8c1.5,0,2.8,1.2,2.8,2.8c0,1.5-1.2,2.8-2.8,2.8C3.2,19,2,17.8,2,16.2z"/>
	<path class="st1" d="M14.9,14.3H9.3"/>
	<path class="st1" d="M20.3,9.7h-2.5l-0.7-2.6"/>
	<path class="st1" d="M12.6,16h-1.2"/>
	<path class="st1" d="M12.6,18h-1.2"/>
	<path class="st1" d="M3.5,5h12.5"/>
	<path class="st1" d="M5,11.2L4.5,5.5"/>
	<path class="st1" d="M14,13.5l0.7-8"/>
</g>
</svg>
