<?xml version="1.0" encoding="utf-8"?>
<!-- Generator: Adobe Illustrator 27.8.0, SVG Export Plug-In . SVG Version: 6.00 Build 0)  -->
<svg version="1.1" id="Layer_1" xmlns="http://www.w3.org/2000/svg" xmlns:xlink="http://www.w3.org/1999/xlink" x="0px" y="0px"
	 viewBox="0 0 24 24" style="enable-background:new 0 0 24 24;" xml:space="preserve">
<style type="text/css">
	.st0{fill:none;}
	.st1{fill:none;stroke:#420A98;stroke-width:1.5;stroke-linecap:round;stroke-linejoin:round;}
</style>
<rect class="st0" width="24" height="24"/>
<path class="st1" d="M7,19c1.1,0,2-0.9,2-2s-0.9-2-2-2s-2,0.9-2,2S5.9,19,7,19z"/>
<path class="st1" d="M17,19c1.1,0,2-0.9,2-2s-0.9-2-2-2s-2,0.9-2,2S15.9,19,17,19z"/>
<path class="st1" d="M14,17V6.6C14,6.3,13.7,6,13.4,6H2.6C2.3,6,2,6.3,2,6.6v9.8C2,16.7,2.3,17,2.6,17h2.1"/>
<path class="st1" d="M14,17H9"/>
<path class="st1" d="M14,9h5.6c0.2,0,0.5,0.1,0.5,0.4l1.8,4c0,0.1,0.1,0.2,0.1,0.2v2.8c0,0.3-0.3,0.6-0.6,0.6h-1.9"/>
<path class="st1" d="M14,17h1"/>
</svg>
