<?xml version="1.0" encoding="utf-8"?>
<!-- Generator: Adobe Illustrator 27.8.0, SVG Export Plug-In . SVG Version: 6.00 Build 0)  -->
<svg version="1.1" id="Layer_1" xmlns="http://www.w3.org/2000/svg" xmlns:xlink="http://www.w3.org/1999/xlink" x="0px" y="0px"
	 viewBox="0 0 24 24" style="enable-background:new 0 0 24 24;" xml:space="preserve">
<style type="text/css">
	.st0{fill:none;stroke:#420A98;stroke-width:1.5;stroke-linecap:round;stroke-linejoin:round;}
	.st1{fill:none;stroke:#420A98;stroke-width:1.5;stroke-linecap:round;}
</style>
<g>
	<path class="st0" d="M20,9c0-1.1-0.9-2-2-2c-1.1,0-2,0.9-2,2s0.9,2,2,2C19.1,11,20,10.1,20,9z"/>
	<path class="st0" d="M8,9c0-1.1-0.9-2-2-2S4,7.9,4,9s0.9,2,2,2S8,10.1,8,9z"/>
	<path class="st1" d="M1.6,9C1.3,9,1,8.7,1,8.4V5.6l0.1-0.2l1.8-4C2.9,1.2,3.1,1,3.4,1H14l2.1,3l5.4,1c1,0.2,1.5,0.7,1.5,1.5v1.9
		C23,8.7,22.7,9,22.4,9H20"/>
	<path class="st1" d="M8,9h7.7"/>
	<path class="st0" d="M11,23c1.1,0,2-0.9,2-2c0-1.1-0.9-2-2-2c-1.1,0-2,0.9-2,2C9,22.1,9.9,23,11,23z"/>
	<path class="st1" d="M23,21h-6.7"/>
	<path class="st1" d="M8.7,21H1"/>
	<path class="st1" d="M2,20.6v-6.3h18v6.3"/>
</g>
</svg>
