<?xml version="1.0" encoding="utf-8"?>
<!-- Generator: Adobe Illustrator 27.8.0, SVG Export Plug-In . SVG Version: 6.00 Build 0)  -->
<svg version="1.1" id="Layer_1" xmlns="http://www.w3.org/2000/svg" xmlns:xlink="http://www.w3.org/1999/xlink" x="0px" y="0px"
	 viewBox="0 0 25 24" style="enable-background:new 0 0 25 24;" xml:space="preserve">
<style type="text/css">
	.st0{fill:none;stroke:#420A98;stroke-width:1.5;stroke-linecap:round;}
	.st1{fill:none;stroke:#420A98;stroke-width:1.5;stroke-linecap:round;stroke-linejoin:round;}
</style>
<g>
	<path class="st0" d="M1.2,3.8h7.3c0.7,0,1.3,0.5,1.5,1.1l1.2,4.9v2.6"/>
	<path class="st1" d="M13.7,19.8c1.4,0,2.5-1.1,2.5-2.5c0-1.4-1.1-2.5-2.5-2.5s-2.5,1.1-2.5,2.5C11.2,18.6,12.3,19.8,13.7,19.8z"/>
	<path class="st1" d="M4.2,19.8c1.4,0,2.5-1.1,2.5-2.5c0-1.4-1.1-2.5-2.5-2.5s-2.5,1.1-2.5,2.5C1.7,18.6,2.9,19.8,4.2,19.8z"/>
	<path class="st0" d="M11.2,16.8H6.9"/>
	<path class="st0" d="M3.2,14.8v-11"/>
	<path class="st1" d="M15.7,12.2l7.5,7.5h-5v-4.9"/>
	<path class="st1" d="M3.7,10h13c0.8,0,1.5,0.7,1.5,1.5"/>
</g>
</svg>
