<?xml version="1.0" encoding="utf-8"?>
<!-- Generator: Adobe Illustrator 27.8.0, SVG Export Plug-In . SVG Version: 6.00 Build 0)  -->
<svg version="1.1" id="Layer_1" xmlns="http://www.w3.org/2000/svg" xmlns:xlink="http://www.w3.org/1999/xlink" x="0px" y="0px"
	 viewBox="0 0 24 24" style="enable-background:new 0 0 24 24;" xml:space="preserve">
<style type="text/css">
	.st0{fill:none;stroke:#420A98;stroke-width:1.5;stroke-linecap:round;stroke-linejoin:round;}
	.st1{fill:none;stroke:#420A98;stroke-width:1.5;stroke-linecap:round;}
</style>
<g>
	<path class="st0" d="M18,17c-1.1,0-2-0.9-2-2s0.9-2,2-2c1.1,0,2,0.9,2,2S19.1,17,18,17z"/>
	<path class="st0" d="M6,17c-1.1,0-2-0.9-2-2s0.9-2,2-2s2,0.9,2,2S7.1,17,6,17z"/>
	<path class="st1" d="M20,15h2.4c0.3,0,0.6-0.3,0.6-0.6v-1.9c0-0.8-0.5-1.3-1.5-1.5l-5.5-1L14,7H3.4C3.1,7,2.9,7.2,2.8,7.4l-1.8,4
		L1,11.6v2.8C1,14.7,1.3,15,1.6,15"/>
	<path class="st1" d="M15.7,15H8"/>
</g>
</svg>
