<?xml version="1.0" encoding="utf-8"?>
<!-- Generator: Adobe Illustrator 27.8.0, SVG Export Plug-In . SVG Version: 6.00 Build 0)  -->
<svg version="1.1" id="Layer_1" xmlns="http://www.w3.org/2000/svg" xmlns:xlink="http://www.w3.org/1999/xlink" x="0px" y="0px"
	 viewBox="0 0 24 24" style="enable-background:new 0 0 24 24;" xml:space="preserve">
<style type="text/css">
	.st0{fill:none;stroke:#420A98;stroke-width:1.5;stroke-linecap:round;stroke-linejoin:round;}
	.st1{fill:none;stroke:#420A98;stroke-width:1.5;stroke-linecap:round;}
	.st2{fill:none;stroke:#420A98;stroke-width:1.5;stroke-miterlimit:3.5;}
</style>
<g>
	<path class="st0" d="M8,22c1.1,0,2-0.9,2-2s-0.9-2-2-2s-2,0.9-2,2S6.9,22,8,22z"/>
	<path class="st0" d="M18,22c1.1,0,2-0.9,2-2s-0.9-2-2-2c-1.1,0-2,0.9-2,2S16.9,22,18,22z"/>
	<path class="st1" d="M1,11.9l0,7.6C1,19.8,1.3,20,1.6,20h4"/>
	<path class="st1" d="M10.1,20H15V9.7c0-0.3-0.3-0.6-0.6-0.6"/>
	<path class="st1" d="M15,12.1h5.6c0.2,0,0.5,0.1,0.5,0.4l1.8,4c0,0.1,0.1,0.2,0.1,0.2v2.7c0,0.3-0.3,0.6-0.6,0.6"/>
	<path class="st1" d="M15,20h1"/>
	<path class="st2" d="M5.9,2.5c0.6-0.7,1.7-0.7,2.3,0C8.5,2.8,8.9,3,9.4,3c0.9,0,1.7,0.7,1.6,1.6c0,0.5,0.2,0.9,0.5,1.2
		c0.7,0.6,0.7,1.7,0,2.3C11.2,8.4,11,8.9,11,9.3c0,0.9-0.7,1.7-1.6,1.6c-0.5,0-0.9,0.2-1.2,0.5c-0.6,0.7-1.7,0.7-2.3,0
		c-0.3-0.3-0.8-0.5-1.2-0.5C3.7,11,3,10.2,3,9.3c0-0.5-0.2-0.9-0.5-1.2c-0.7-0.6-0.7-1.7,0-2.3C2.9,5.5,3,5,3,4.6
		C3,3.7,3.7,2.9,4.6,3C5.1,3,5.6,2.8,5.9,2.5z"/>
	<path class="st0" d="M5.4,6.9l1,1l2.1-2.1"/>
</g>
</svg>
