<?xml version="1.0" encoding="utf-8"?>
<!-- Generator: Adobe Illustrator 27.8.0, SVG Export Plug-In . SVG Version: 6.00 Build 0)  -->
<svg version="1.1" id="Layer_1" xmlns="http://www.w3.org/2000/svg" xmlns:xlink="http://www.w3.org/1999/xlink" x="0px" y="0px"
	 viewBox="0 0 24 24" style="enable-background:new 0 0 24 24;" xml:space="preserve">
<style type="text/css">
	.st0{fill:none;stroke:#420A98;stroke-width:1.5;stroke-linecap:round;stroke-linejoin:round;}
	.st1{fill:none;stroke:#420A98;stroke-width:1.5;stroke-linecap:round;}
</style>
<g>
	<path class="st0" d="M18.8,17c0,0.1,0,0.3,0,0.5c0,1.4-1.1,2.5-2.5,2.5c-1.4,0-2.5-1.1-2.5-2.5"/>
	<path class="st1" d="M0.8,4h16.1c0.5,0,1,0.3,1.3,0.8l4.6,8.3"/>
	<path class="st1" d="M22.8,13l-1,4.4c0,0.3-0.3,0.6-0.6,0.6"/>
	<path class="st0" d="M12.7,11h5.7l-2.7-5"/>
	<path class="st0" d="M1.8,11h8V6h-6"/>
	<path class="st1" d="M18.7,17h-17"/>
	<path class="st0" d="M5.8,17c0,0.1,0,0.3,0,0.5c0,1.4,1.1,2.5,2.5,2.5c1.4,0,2.5-1.1,2.5-2.5"/>
</g>
</svg>
