<?xml version="1.0" encoding="utf-8"?>
<!-- Generator: Adobe Illustrator 27.8.0, SVG Export Plug-In . SVG Version: 6.00 Build 0)  -->
<svg version="1.1" id="Layer_1" xmlns="http://www.w3.org/2000/svg" xmlns:xlink="http://www.w3.org/1999/xlink" x="0px" y="0px"
	 viewBox="0 0 24 24" style="enable-background:new 0 0 24 24;" xml:space="preserve">
<style type="text/css">
	.st0{fill:none;stroke:#420A98;stroke-width:1.5;stroke-linecap:round;stroke-linejoin:round;}
</style>
<path class="st0" d="M14,4.8l2,1.3l3.5,10.2"/>
<path class="st0" d="M7.7,10.8l3.5-2c0.2-0.1,0.5-0.2,0.7-0.2H16"/>
<path class="st0" d="M16.5,8.6l-2.3,3.8c-0.1,0.2-0.2,0.5-0.2,0.8v1.6l-9.5,1.5"/>
<path class="st0" d="M16,16.2c0-1.9,1.6-3.5,3.5-3.5s3.5,1.6,3.5,3.5s-1.6,3.5-3.5,3.5S16,18.2,16,16.2z"/>
<path class="st0" d="M2,10.8c3-1.4,6.6,0,8,3"/>
<path class="st0" d="M1,16.2c0-1.9,1.6-3.5,3.5-3.5S8,14.3,8,16.2s-1.6,3.5-3.5,3.5S1,18.2,1,16.2z"/>
<path class="st0" d="M9.7,13.2l1,2"/>
</svg>
