<?xml version="1.0" encoding="utf-8"?>
<!-- Generator: Adobe Illustrator 27.8.0, SVG Export Plug-In . SVG Version: 6.00 Build 0)  -->
<svg version="1.1" id="Layer_1" xmlns="http://www.w3.org/2000/svg" xmlns:xlink="http://www.w3.org/1999/xlink" x="0px" y="0px"
	 viewBox="0 0 24 24" style="enable-background:new 0 0 24 24;" xml:space="preserve">
<style type="text/css">
	.st0{fill:none;stroke:#420A98;stroke-width:1.5;stroke-linecap:round;stroke-linejoin:round;}
	.st1{fill:none;stroke:#420A98;stroke-width:1.5;stroke-linecap:round;}
</style>
<g>
	<path class="st0" d="M14.7,17c0,0.1,0,0.3,0,0.5c0,1.4-1.1,2.5-2.5,2.5c-1.4,0-2.5-1.1-2.5-2.5"/>
	<path class="st1" d="M14.6,17H8.8"/>
	<path class="st0" d="M1.8,17c0,0.1,0,0.3,0,0.5c0,1.4,1.1,2.5,2.5,2.5s2.5-1.1,2.5-2.5"/>
	<path class="st1" d="M1.8,17H9"/>
	<path class="st1" d="M0.8,4h7.5c0.3,0,10,5.3,12.7,7.4c1,0.9,1.2,2.4,0.3,3.4L19,17.4c-0.3,0.3-0.5,0.6-0.9,0.6h-0.9"/>
	<path class="st0" d="M3.8,12h10c1,0,1.4-1.4,0.5-1.9L8.6,7H5.8"/>
</g>
</svg>
