<?xml version="1.0" encoding="utf-8"?>
<!-- Generator: Adobe Illustrator 27.8.0, SVG Export Plug-In . SVG Version: 6.00 Build 0)  -->
<svg version="1.1" id="Layer_1" xmlns="http://www.w3.org/2000/svg" xmlns:xlink="http://www.w3.org/1999/xlink" x="0px" y="0px"
	 viewBox="0 0 25 24" style="enable-background:new 0 0 25 24;" xml:space="preserve">
<style type="text/css">
	.st0{fill:none;stroke:#420A98;stroke-width:1.5;stroke-linecap:round;}
	.st1{fill:none;stroke:#420A98;stroke-width:1.5;stroke-linecap:round;stroke-linejoin:round;}
</style>
<g>
	<path class="st0" d="M18.8,5.3H4.9"/>
	<path class="st0" d="M20.8,8.8V5.2"/>
	<path class="st0" d="M2.3,10.2l0-9.5h19c0.2,0,0.4,0.1,0.5,0.3l1.4,6.7v2.5c0,0.3-0.4,0.5-0.7,0.5h-1.3"/>
	<path class="st1" d="M6.3,22.8c1.1,0,2-0.9,2-2c0-1.1-0.9-2-2-2s-2,0.9-2,2C4.3,21.9,5.2,22.8,6.3,22.8z"/>
	<path class="st1" d="M4.3,12.7c1.1,0,2-0.9,2-2c0-1.1-0.9-2-2-2s-2,0.9-2,2C2.3,11.8,3.2,12.7,4.3,12.7z"/>
	<path class="st1" d="M12.2,22.7c1.1,0,2-0.9,2-2c0-1.1-0.9-2-2-2s-2,0.9-2,2C10.2,21.9,11.1,22.7,12.2,22.7z"/>
	<path class="st1" d="M8.3,12.8c1.1,0,2-0.9,2-2s-0.9-2-2-2s-2,0.9-2,2S7.2,12.8,8.3,12.8z"/>
	<path class="st1" d="M17.3,12.8c1.1,0,2-0.9,2-2s-0.9-2-2-2s-2,0.9-2,2S16.2,12.8,17.3,12.8z"/>
	<path class="st0" d="M16.3,20.7v-5.4c0-0.3-0.3-0.6-0.6-0.6H2.2l0,5.4c0,0.3,0.3,0.6,0.6,0.6h1.4"/>
	<path class="st0" d="M16.3,20.7h6"/>
</g>
</svg>
