<?xml version="1.0" encoding="utf-8"?>
<!-- Generator: Adobe Illustrator 27.8.0, SVG Export Plug-In . SVG Version: 6.00 Build 0)  -->
<svg version="1.1" id="Layer_1" xmlns="http://www.w3.org/2000/svg" xmlns:xlink="http://www.w3.org/1999/xlink" x="0px" y="0px"
	 viewBox="0 0 24 24" style="enable-background:new 0 0 24 24;" xml:space="preserve">
<style type="text/css">
	.st0{fill:none;stroke:#420A98;stroke-width:1.5;stroke-linecap:round;stroke-linejoin:round;}
	.st1{fill:none;stroke:#420A98;stroke-width:1.5;stroke-linecap:round;}
</style>
<g>
	<path class="st0" d="M5,23c1.1,0,2-0.9,2-2s-0.9-2-2-2s-2,0.9-2,2S3.9,23,5,23z"/>
	<path class="st0" d="M18,11c1.1,0,2-0.9,2-2s-0.9-2-2-2c-1.1,0-2,0.9-2,2S16.9,11,18,11z"/>
	<path class="st0" d="M11,23c1.1,0,2-0.9,2-2c0-1.1-0.9-2-2-2c-1.1,0-2,0.9-2,2C9,22.1,9.9,23,11,23z"/>
	<path class="st0" d="M5,11c1.1,0,2-0.9,2-2S6.1,7,5,7S3,7.9,3,9S3.9,11,5,11z"/>
	<path class="st0" d="M11,11c1.1,0,2-0.9,2-2s-0.9-2-2-2C9.9,7,9,7.9,9,9S9.9,11,11,11z"/>
	<path class="st1" d="M13,9h2V7.6"/>
	<path class="st1" d="M16,9h-1V1h5.6c0.2,0,0.5,0.1,0.5,0.4l1.8,4C23,5.5,23,5.5,23,5.6v2.8C23,8.7,22.7,9,22.4,9"/>
	<path class="st1" d="M15,21h8v-7.4c0-0.3-0.3-0.6-0.6-0.6H1l0,7.4C1,20.7,1.3,21,1.6,21H3"/>
	<path class="st1" d="M9,9H7"/>
</g>
</svg>
