<?xml version="1.0" encoding="utf-8"?>
<!-- Generator: Adobe Illustrator 27.8.0, SVG Export Plug-In . SVG Version: 6.00 Build 0)  -->
<svg version="1.1" id="Layer_1" xmlns="http://www.w3.org/2000/svg" xmlns:xlink="http://www.w3.org/1999/xlink" x="0px" y="0px"
	 viewBox="0 0 24 24" style="enable-background:new 0 0 24 24;" xml:space="preserve">
<style type="text/css">
	.st0{fill:none;stroke:#420A98;stroke-width:1.5;stroke-linecap:round;}
	.st1{fill:none;stroke:#420A98;stroke-width:1.5;stroke-linecap:round;stroke-linejoin:round;}
</style>
<g>
	<path class="st0" d="M1,4h7.3C9,4,9.6,4.5,9.7,5.1L11,10v2.6"/>
	<path class="st1" d="M13.5,20c1.4,0,2.5-1.1,2.5-2.5c0-1.4-1.1-2.5-2.5-2.5S11,16.1,11,17.5C11,18.9,12.1,20,13.5,20z"/>
	<path class="st1" d="M4,20c1.4,0,2.5-1.1,2.5-2.5C6.5,16.1,5.4,15,4,15s-2.5,1.1-2.5,2.5C1.5,18.9,2.6,20,4,20z"/>
	<path class="st0" d="M11,17H6.7"/>
	<path class="st0" d="M3,15V4"/>
	<path class="st1" d="M3.5,10.2h13c0.8,0,1.5,0.7,1.5,1.5V20h5l-8-8.1"/>
</g>
</svg>
