<?xml version="1.0" encoding="utf-8"?>
<!-- Generator: Adobe Illustrator 27.8.0, SVG Export Plug-In . SVG Version: 6.00 Build 0)  -->
<svg version="1.1" id="Layer_1" xmlns="http://www.w3.org/2000/svg" xmlns:xlink="http://www.w3.org/1999/xlink" x="0px" y="0px"
	 viewBox="0 0 24 24" style="enable-background:new 0 0 24 24;" xml:space="preserve">
<style type="text/css">
	.st0{fill:none;stroke:#420A98;stroke-width:1.5;stroke-linecap:round;stroke-linejoin:round;}
	.st1{fill:none;stroke:#420A98;stroke-width:1.5;stroke-linecap:round;}
</style>
<path class="st0" d="M20,9c0-1.1-0.9-2-2-2c-1.1,0-2,0.9-2,2s0.9,2,2,2C19.1,11,20,10.1,20,9z"/>
<path class="st0" d="M8,9c0-1.1-0.9-2-2-2S4,7.9,4,9s0.9,2,2,2S8,10.1,8,9z"/>
<path class="st1" d="M1.6,9C1.3,9,1,8.7,1,8.4V5.6c0-0.1,0-0.2,0.1-0.2l1.8-4C2.9,1.1,3.2,1,3.4,1H14l2.1,3l5.4,1
	c1,0.2,1.5,0.7,1.5,1.5v1.9C23,8.8,22.7,9,22.4,9H20"/>
<path class="st1" d="M8,9h7.7"/>
<path class="st0" d="M11,23c1.1,0,2-0.9,2-2s-0.9-2-2-2c-1.1,0-2,0.9-2,2S9.9,23,11,23z"/>
<path class="st1" d="M15,21h3l1.9-6.4c0-0.3-0.3-0.6-0.6-0.6H5.4C3,14,1,16,1,18.4l0,2C1,20.7,1.3,21,1.6,21h7.1"/>
<path class="st1" d="M5,17.2l0.4-0.6"/>
<path class="st1" d="M7,17.2l0.4-0.6"/>
<path class="st1" d="M23,21h-6.7"/>
</svg>
