<?xml version="1.0" encoding="utf-8"?>
<!-- Generator: Adobe Illustrator 27.8.0, SVG Export Plug-In . SVG Version: 6.00 Build 0)  -->
<svg version="1.1" id="Layer_1" xmlns="http://www.w3.org/2000/svg" xmlns:xlink="http://www.w3.org/1999/xlink" x="0px" y="0px"
	 viewBox="0 0 24 24" style="enable-background:new 0 0 24 24;" xml:space="preserve">
<style type="text/css">
	.st0{fill:none;stroke:#420A98;stroke-width:1.5;stroke-linecap:round;stroke-linejoin:round;}
</style>
<path class="st0" d="M16.6,15.4c0-1.7,1.3-3,3-3c1.7,0,3,1.3,3,3c0,1.7-1.3,3-3,3C17.9,18.4,16.6,17,16.6,15.4z"/>
<path class="st0" d="M1.8,15.4c0-1.7,1.3-3,3-3c1.7,0,3,1.3,3,3c0,1.7-1.3,3-3,3C3.1,18.4,1.8,17,1.8,15.4z"/>
<path class="st0" d="M14.1,4.8l2,1.3l3.5,9.5"/>
<path class="st0" d="M8.2,10.6l3.5-2c0.2-0.1,0.5-0.2,0.7-0.2h4.1"/>
<path class="st0" d="M16.6,7.9l-1.5,3.2v1.5l-10.5,3"/>
<path class="st0" d="M2.2,10.4c2.9-1.3,6.2,0,7.6,2.8"/>
</svg>
