<svg width="273" height="205" viewBox="0 0 273 205" fill="none" xmlns="http://www.w3.org/2000/svg">
<path d="M215.037 157.322C210.886 163.486 201.652 169.453 194.224 169.224C186.796 168.995 182.534 163.039 174.78 163.039C170.713 163.039 159.04 164.623 154.123 159.108C147.543 151.727 148.882 142.142 143.505 137.637C135.657 131.063 124.257 139.971 121.145 142.695C106.864 155.196 86.0167 162.108 78.5814 152.102C71.7516 142.912 82.0999 130.486 83.6693 121.524C85.0701 113.524 81.3246 104.859 74.5381 100.398C66.1879 94.9101 35.8861 91.5104 48.7457 69.6111C55.7392 57.7014 77.8172 49.3407 98.4604 54.5403C110.91 57.6759 122.63 65.3307 135.425 64.2703C152.693 62.8391 164.085 49.497 176.673 42.2185C184.827 37.5034 194.78 37.3992 204.187 37.8915C213.593 38.3838 223.154 43.0035 227.737 51.2329C232.32 59.4623 229.803 73.6782 220.513 79.8425C200.095 93.39 201.582 102.861 205.482 107.447C228.021 133.948 223.235 145.152 215.037 157.322Z" fill="#E9D2B1"/>
<path d="M173.535 72.207C177.39 81.3844 178.746 91.5968 177.534 101.356C182.751 98.6798 187.967 96.0037 193.184 93.3276C194.384 92.7121 195.629 92.0594 196.424 90.9707C197.665 89.2741 197.521 86.9659 197.268 84.8796C196.5 78.5611 195.223 72.3046 193.452 66.191C193.295 65.6484 193.059 65.0282 192.518 64.8665C192.139 64.7534 191.738 64.9113 191.375 65.0665C185.854 67.4233 180.333 69.7802 173.535 72.207Z" fill="#E8EAEB"/>
<path d="M194.014 68.1942C194.107 67.951 193.397 65.1123 192.519 64.869C191.063 64.4656 187.273 67.085 176.726 71.0422C176.509 71.5227 176.837 71.8022 177.355 71.9027C177.872 72.0032 180.534 70.8756 181.017 70.6638C185.514 68.6917 189.115 70.4424 194.014 68.1942Z" fill="#B6B6B6"/>
<path d="M173.535 72.2083C173.624 72.1652 174.678 71.7401 175.117 71.6367C175.267 71.8312 177.557 74.4578 178.364 76.2259C180.912 81.8146 178.871 88.1766 180.986 91.6585C183.625 96.0009 191.836 94.0204 191.836 94.0204L177.534 101.357C177.534 101.357 177.453 86.3278 177.321 85.7701C174.797 75.1198 173.764 72.7028 173.535 72.2083Z" fill="#B6B6B6"/>
<path d="M71.8805 101.22L157.941 77.2812C157.941 77.2812 180.54 79.5662 181.011 81.1985C181.345 82.361 164.73 97.0817 164.73 97.0817L78.0069 119.226L70.0989 115.345L68.2129 108.665L71.8805 101.22Z" fill="#7946C6"/>
<path d="M98.2707 99.6758C97.9571 99.7291 92.2097 101.463 91.9679 101.546C90.5537 105.297 89.2332 107.332 86.1074 109.85C86.4342 109.815 91.7336 108.162 92.0191 108.113C96.6441 104.801 96.428 103.695 98.2707 99.6758Z" fill="#453075"/>
<path d="M70.0996 115.344L91.4695 108.664C91.4695 108.664 80.6533 117.165 75.936 119.753C75.6919 119.602 70.0996 115.344 70.0996 115.344Z" fill="#453075"/>
<path d="M113.295 95.3027L120.192 93.5938C120.192 93.5938 118.739 95.8515 118.739 97.8734C118.739 99.1272 115.487 97.204 113.777 97.1389C113.532 97.1296 113.295 95.3027 113.295 95.3027Z" fill="#453075"/>
<path d="M149.856 85.7695C149.856 85.7695 149.425 87.8845 148.77 88.4783C148.325 88.8826 147.989 88.715 147.938 89.3146C147.893 89.8531 147.527 90.7276 146.873 90.7276C146.351 90.7276 146.031 90.496 146.031 90.496C146.031 90.496 145.434 91.2998 144.521 90.6991C143.884 90.2796 143.617 88.8668 143.524 88.8802C142.358 89.0487 142.558 87.6254 142.558 87.6254L149.856 85.7695Z" fill="#453075"/>
<path d="M173.359 79.2186C168.14 78.1591 157.942 77.2812 157.942 77.2812L148.383 79.9402C148.383 79.9402 149.856 81.0879 149.856 85.7697C150.037 85.7355 155.59 84.3349 155.766 84.206C155.766 81.9138 156.227 79.377 156.855 79.377C157.113 79.377 155.258 85.4743 157.923 91.5976C161.967 91.0009 170.195 87.5404 172.66 84.4846C172.106 83.3578 172.026 82.3915 172.1 81.6084C172.174 80.8253 172.629 79.7158 173.359 79.2186Z" fill="#947EC6"/>
<path d="M71.8805 101.221L93.9767 95.0742C93.9767 95.0742 93.5673 98.5171 91.9672 101.547C91.8657 101.739 76.1372 106.197 68.2129 108.665C69.2236 106.339 71.8805 101.221 71.8805 101.221Z" fill="#947EC6"/>
<path d="M172.66 84.4837C173.279 84.9443 176.312 83.9048 177.035 83.6357C178.296 83.1665 180.3 81.184 180.413 80.7578C180.489 80.7603 180.971 81.0095 181.011 81.1976C181.186 82.023 176.049 86.8881 175.787 86.945C174.518 87.2197 173.14 85.4743 172.66 84.4837Z" fill="#453075"/>
<path d="M157.924 91.5974C156.626 91.3883 121.477 100.28 121.477 100.28C121.477 100.28 124.928 101.637 125.689 101.77C126.739 101.954 126.54 106.633 127.169 107.493C127.798 108.353 140.294 103.621 140.294 103.621C140.294 103.621 164.45 97.4703 164.732 97.0815C161.807 96.3322 159.369 93.6213 157.924 91.5974Z" fill="#453075"/>
<path d="M142.589 87.6193L120.191 93.5954C120.191 93.5954 124.986 86.5019 131.893 84.5312C132.213 84.44 135.41 83.5508 135.41 83.5508C135.41 83.5508 137.322 84.3403 138.508 84.1539C139.694 83.9674 140.988 83.7454 141.981 84.3055C141.93 85.215 142.589 87.6193 142.589 87.6193Z" fill="#947EC6"/>
<path d="M61.933 150.652C60.3051 151.208 55.98 152.677 55.913 153.043C55.5801 154.859 56.9389 165.244 57.6383 167.038C57.8804 167.659 59.8819 167.632 60.5268 167.465C62.0251 167.077 62.8043 166.656 63.4214 165.237C63.8734 164.198 63.5922 162.993 63.2031 161.928C62.814 160.863 62.5222 160.375 62.5528 159.242C62.5834 158.109 62.975 157.001 64.149 156.712C63.2622 155.064 62.8893 152.352 61.933 150.652Z" fill="#CCDCEE"/>
<path d="M54.9841 125.598C53.4033 125.259 48.9576 124.438 48.7292 124.699C47.5945 125.993 43.6215 135.253 43.3325 137.025C43.2325 137.639 44.8636 138.58 45.4645 138.757C46.8605 139.167 47.691 139.205 48.8661 138.365C49.7268 137.75 50.0734 136.65 50.266 135.611C50.4586 134.571 50.4553 134.04 51.0199 133.147C51.5845 132.254 53.306 131.405 54.3928 131.738C54.4608 129.992 54.9475 127.419 54.9841 125.598Z" fill="#CCDCEE"/>
<path d="M62.963 157.59C62.4981 158.392 62.4646 159.649 62.6785 160.458C62.8669 161.17 64.2599 163.636 63.3397 165.418C63.0179 166.042 62.6335 166.683 61.7901 167.038C61.001 166.041 60.6974 164.452 61.3098 163.337C61.5428 162.913 61.9017 162.513 61.9017 162.029C61.9017 160.489 61.1529 160.162 61.5415 158.905C61.7539 158.218 62.3735 157.68 62.963 157.59Z" fill="#E7F1FC"/>
<path d="M64.1128 156.737C63.7318 156.846 63.4402 157.053 63.151 157.324C62.8774 156.375 62.2769 155.46 61.4428 154.932C60.6088 154.403 59.4519 154.328 58.6536 154.91C56.741 156.303 57.1148 164.105 60.1997 167.523C59.3675 167.624 57.878 167.608 57.6292 167.17C57.0215 166.101 55.424 154.148 55.9144 153.042C56.0872 152.653 56.5258 152.537 56.9246 152.387C58.4065 151.83 59.8883 151.272 61.3701 150.715C62.2415 152.622 63.1129 154.53 64.1128 156.737Z" fill="#8AA0BC"/>
<path d="M53.2854 131.763C52.8873 131.836 52.7679 131.831 52.3683 132.049C52.1322 130.807 51.8526 129.637 51.9889 128.313C52.0402 127.816 51.8702 127.342 51.4379 127.09C50.9393 126.8 50.2829 126.916 49.802 127.235C48.0246 128.412 44.4299 136.859 44.414 137.553C44.4068 137.863 44.823 138.475 45.101 138.613C44.7401 138.496 43.0332 137.62 43.0332 137.24C43.0332 135.837 48.2097 125.026 48.7302 124.698C48.8764 124.606 49.2434 124.621 49.42 124.656C51.0178 124.969 52.1836 125.041 53.7814 125.355C53.2739 127.113 53.1998 129.391 53.2854 131.763Z" fill="#8AA0BC"/>
<path d="M52.1012 132.189C52.1012 132.189 51.0844 131.788 50.5993 132.041C50.1142 132.293 49.6838 132.695 49.4595 133.194C48.4605 135.416 48.464 135.004 47.2521 135.935C46.5622 136.466 45.9017 137.989 45.9023 138.874C47.3592 139.213 48.9734 139.18 49.886 136.985C50.1897 136.255 50.3772 135.181 50.4739 134.451C50.6937 132.793 52.1012 132.189 52.1012 132.189Z" fill="#E7F1FC"/>
<path d="M115.145 90.7981C114.04 100.282 111.19 107.142 106.573 114.717C101.584 122.903 96.3919 130.514 89.2885 137.705C82.1852 144.896 73.8448 150.84 63.6125 157.323C62.0554 152.894 59.5986 150.073 57.4314 146.169C65.2365 144.848 73.8416 139.741 79.6603 134.374C82.8912 131.394 89.3671 122.988 93.9807 116.649C83.9195 125.93 68.0029 131.562 53.2859 131.762C53.067 127.747 53.1891 127.961 52.9611 123.947C52.897 122.819 52.2734 119.451 52.2383 119.564C60.1792 122.791 68.3622 121.305 75.5456 118.427C82.729 115.549 91.0999 108.386 96.1647 102.535C101.717 96.1211 104.117 93.1145 108.356 86.6406C110.131 88.6226 112.057 90.0131 115.145 90.7981Z" fill="#292F73"/>
<path d="M97.0743 128.789C91.0418 130.49 86.1381 143.284 62.5859 154.849C63.1512 156.091 63.4304 156.795 63.6124 157.322C63.6422 157.268 86.6236 144.043 97.0743 128.789Z" fill="#475196"/>
<path d="M109.589 88.832C111.385 89.8069 113.22 90.1003 115.25 90.3309C115.158 90.7869 115.05 91.693 114.958 92.2559C113.277 91.9668 111.631 92.9141 111.066 94.5238C109.83 93.1948 109.256 91.2779 109.589 88.832Z" fill="#1D273D"/>
<path d="M98.6189 99.6758C92.7286 106.405 85.465 113.479 78.4494 117.118C71.4959 120.725 60.5958 122.745 52.2383 119.563C52.7729 123.219 52.7147 125.793 53.1535 128.794C58.0436 127.741 63.2604 127.246 68.2626 127.248C70.4588 127.249 72.6644 127.351 74.8441 127.082C78.4831 126.633 81.8551 125.018 85.0638 123.243C89.8621 120.59 93.8603 116.703 93.899 116.723C95.4334 114.107 96.9009 111.361 98.4822 108.721C99.7915 110.033 101.273 111.243 103.032 111.827C104.791 112.41 106.877 112.271 108.307 111.092C106.286 110.678 102.564 108.718 101.487 106.958C100.476 105.307 98.6189 99.6758 98.6189 99.6758Z" fill="#1D273D"/>
<path d="M114.877 92.8164C114.153 93.3039 113.648 93.8588 113.238 94.6296C112.828 95.4003 112.547 96.2317 112.268 97.0588C112.79 97.4155 113.105 97.9796 113.651 98.3313C114.212 96.7634 114.569 95.3129 114.877 92.8164Z" fill="#475196"/>
<path d="M92.0849 119.227C88.8121 123.477 81.0052 135.243 70.7379 140.965C67.2497 142.909 61.8928 145.206 57.2793 146.176C58.3576 147.871 59.5817 149.834 60.6978 151.466C72.6193 145.252 82.3445 136.927 89.986 125.866C91.1295 124.211 92.9772 121.105 92.0849 119.227Z" fill="#1D273D"/>
<path d="M128.909 106.222C129.283 106.121 129.658 106.02 129.927 105.839C131.189 104.177 132.45 102.516 133.711 100.855C133.883 100.628 134.074 100.389 134.347 100.308C134.724 100.196 135.137 100.448 135.323 100.796C135.508 101.143 135.513 101.558 135.473 101.95C135.363 103.015 134.043 105.085 134.043 105.085C134.043 105.085 138.1 104.138 140.186 103.701C139.496 105.036 138.958 106.094 137.997 107.249C137.037 108.403 135.799 109.376 134.351 109.775C132.003 110.424 129.301 109.538 127.168 110.716C127.478 109.185 128.056 107.71 128.909 106.222Z" fill="#F6E8D4"/>
<path d="M134.043 105.084C134.043 105.084 133.882 105.837 134.17 106.124C134.515 106.469 135.305 106.609 135.946 106.083C136.277 105.812 136.849 105.655 137.288 105.911C137.639 106.116 137.598 107.122 137.786 107.493C138.909 106.37 140.293 103.621 140.293 103.621L134.043 105.084Z" fill="#C4B29B"/>
<path d="M128.567 106.246C128.948 106.168 129.57 106.015 129.927 105.84C129.545 106.604 129.693 108.092 130.167 108.803C130.443 109.216 130.892 109.488 131.363 109.642C131.835 109.796 132.126 109.976 132.618 110.027C130.388 110.272 129.487 110.392 126.881 110.392" fill="#C4B29B"/>
<path d="M141.625 81.8183C138.987 82.7157 136.038 83.422 135.195 83.607C134.89 83.6738 133.932 83.5767 134.054 82.6935C134.123 82.1888 135.106 82.1587 135.5 81.8381C137.203 80.4505 137.879 79.9175 139.386 78.8768C140.912 77.8229 142.625 77.3105 144.408 77.8195C146.055 78.2895 147.379 79.5765 147.883 81.5572C148.305 83.2169 148.156 84.9737 147.886 87.1991C147.757 88.2599 147.097 87.9869 147.117 88.1062C147.117 88.5313 147.245 88.5554 146.99 89.6011C146.933 89.838 146.772 90.066 146.537 90.1315C146.303 90.197 145.906 90.0165 145.838 89.795C145.749 90.0924 145.621 90.4042 145.244 90.3703C144.935 90.3427 144.631 89.9926 144.457 89.7355C144.276 89.4683 143.977 88.287 143.945 88.1541C143.623 88.3149 143.029 88.1763 142.778 87.9191C142.527 87.6618 142.4 87.3114 142.29 86.9692C141.761 85.319 141.704 83.4613 141.625 81.8183Z" fill="#F6E8D4"/>
<path d="M141.625 81.8214C141.625 81.8214 140.84 81.355 140.464 81.1151C140.088 80.8752 139.63 80.7319 139.192 80.8183C138.807 80.8942 138.479 81.1352 138.165 81.3698C137.049 82.203 136.576 82.717 135.461 83.5502C138.513 82.9462 141.625 81.8214 141.625 81.8214Z" fill="#C4B29B"/>
<path d="M107.785 73.986C112.785 73.6116 117.787 72.2254 121.933 69.4053C126.079 66.5853 129.301 62.2388 130.185 57.3032C131.07 52.3675 129.385 46.9084 125.481 43.7623C121.576 40.6163 115.496 40.2491 111.551 43.3443C109.857 44.6737 108.625 46.5073 106.998 47.9188C105.371 49.3303 103.048 50.3059 101.071 49.4498C98.7366 48.4383 98.064 45.542 96.8929 43.283C95.3613 40.3287 92.5788 38.1234 89.4648 36.95C86.3508 35.7767 82.9264 35.5807 79.6262 36.0079C75.183 36.5831 70.6924 38.427 67.9957 42.0049C65.299 45.5828 64.9519 51.1044 68.0156 54.3736C70.9007 57.4521 75.7001 57.7358 79.86 57.0315C81.8099 56.7013 84.2825 57.9528 86.1278 58.6641C88.1967 59.4617 90.0936 61.9631 91.1198 63.9286C92.6248 66.8111 92.979 67.6315 95.1654 70.0384C97.3519 72.4453 100.469 74.2456 103.712 74.0013" fill="#282828"/>
<path d="M111.152 54.588C109.192 57.9117 105.121 59.5886 101.264 59.4852C97.4074 59.3817 93.7438 57.7504 90.4609 55.7231C88.1703 54.3086 85.907 52.6481 83.2488 52.2224C80.4904 51.7807 77.7293 52.7344 75.0028 53.3424C72.2762 53.9505 68.9256 54.1708 66.7109 52.4681C67.7938 54.7436 70.0123 56.2079 72.0985 56.8037C74.1847 57.3995 76.196 57.533 78.8065 57.1862C80.9572 56.9004 83.2197 57.4041 85.1996 58.2914C89.6044 60.2653 90.9003 64.9369 93.8477 68.7594C97.5108 73.5101 103.79 76.1052 109.552 74.8536C115.459 73.5705 121.513 70.6003 125.328 66.531C124.779 64.5294 125.206 62.239 126.093 60.363C121.179 60.7615 116.128 58.9886 111.152 54.588Z" fill="#0D0D0D"/>
<path d="M124.274 47.9708C124.274 47.9708 124.177 47.0524 123.373 47.5914C119.56 50.1472 115.106 50.9164 111.961 50.6245C113.084 51.1972 113.97 52.1142 113.7 52.9914C120.891 52.1782 124.274 47.9708 124.274 47.9708Z" fill="#0D0D0D"/>
<path d="M117.136 70.9707C119.097 70.803 120.784 71.8588 122.178 73.2472C125.544 76.5991 127.975 80.7372 129.091 85.3063C125.655 86.2379 122.1 87.2289 118.776 88.1756C118.56 87.6265 117.991 87.4744 117.412 87.5877C116.834 87.7011 116.246 88.0625 115.576 88.7325C117.612 83.1641 117.24 76.7222 116.777 72.0914C116.777 72.0703 117.108 71.0538 117.136 70.9707Z" fill="#EA9C47"/>
<path d="M117.046 75.4062C121.748 79.7658 124.414 86.6071 124.414 86.6071L118.776 88.1754C118.776 88.1754 118.675 87.2823 116.804 87.7978C116.341 87.9253 115.978 88.4156 115.576 88.7323C116.054 86.8006 117.612 83.407 117.046 75.4062Z" fill="#AF6A1D"/>
<path d="M128.961 84.801C128.213 84.6596 127.428 84.1581 126.947 83.5688C126.466 82.9796 126.121 82.2945 125.748 81.6313C124.626 79.6318 123.23 77.7864 121.61 76.1628C121.099 75.6505 120.55 75.1363 120.291 74.4608C120.032 73.7852 120.248 72.55 120.865 72.1289C124.807 74.8737 127.772 79.4298 128.961 84.801Z" fill="#FCCA95"/>
<path d="M112.008 71.3789C113.277 72.4713 115.573 72.5433 117.096 71.8455C118.158 76.7881 117.635 82.1849 116.3 87.0611C116.074 87.8856 115.831 88.829 116.3 89.5435C116.54 89.9085 116.953 90.1837 117.03 90.6138C117.112 91.0781 116.733 91.5267 116.287 91.6793C115.841 91.8318 115.351 91.7586 114.89 91.6612C112.211 91.0962 109.7 89.7552 107.74 87.8427C107.238 87.3524 106.752 86.7899 106.614 86.1015C106.446 85.2652 106.82 84.4271 107.159 83.6446C107.988 81.7343 108.664 79.7579 109.179 77.7403C109.785 75.3643 110.247 72.7788 112.008 71.3789Z" fill="#CCDCEE"/>
<path d="M116.006 72.0829C116.75 77.5104 114.065 82.9453 114.368 88.4153C114.413 89.2302 114.484 90.268 115.387 90.7404C116.11 91.1187 116.833 90.9351 116.833 90.1906C115.81 89.1673 116.028 88.473 116.129 88.0562C116.518 86.4488 116.913 84.5747 117.308 82.2363C118.092 77.5976 117.729 74.9502 117.095 71.8469C117.005 71.4058 116.459 71.8158 116.006 72.0829Z" fill="#E7F1FC"/>
<path d="M111.762 71.3789C112.643 71.6839 113.072 72.2243 114.004 72.2316C114.394 76 113.766 78.7678 112.45 82.3204C112.034 83.4439 110.839 85.4851 110.705 86.6756C110.57 87.8662 111.702 90.0214 112.514 90.9398C110.387 90.1197 109.093 89.2243 108.262 87.9093" fill="#8AA0BC"/>
<path d="M111.066 69.9586C111.533 67.8378 112.951 62.4354 113.211 61.5761C112.422 60.2531 112.047 59.6186 111.561 57.6628C111.552 57.6585 109.561 58.3417 108.893 55.6538C108.614 54.5332 108.776 53.3417 109.236 52.2824C109.532 51.5988 109.955 50.9209 110.622 50.5876C111.32 50.2381 112.226 50.3552 112.812 50.8708C113.399 51.3865 113.881 52.2691 113.699 52.9933C118.471 52.4469 122.73 50.164 124.911 47.1876C124.907 47.1969 124.902 47.2061 124.987 47.168C126.811 49.7156 127.803 52.7885 127.564 55.9124C127.325 59.0363 126.839 61.005 125.142 63.6386C124.468 64.6848 123.331 66.0932 122.333 66.837C121.092 67.7619 120.232 67.9512 118.347 66.5881C117.939 68.2871 117.601 69.5559 117.269 71.2058C117.2 71.5496 117.124 71.9085 116.901 72.1796C116.631 72.5085 115.269 72.6504 114.53 72.55C112.665 72.2965 111.919 71.7831 111.066 69.9586Z" fill="#F6E8D4"/>
<path d="M118.348 66.5887C118.348 66.5887 115.692 65.0894 114.134 62.8047C113.8 64.0905 113.748 65.9563 114.658 67.0901C115.873 68.6041 117.804 68.8153 117.804 68.8153L118.348 66.5887Z" fill="#C4B29B"/>
<path d="M111.292 69.472C113.368 71.4815 112.848 74.8039 112.319 77.6446C111.79 80.4853 110.558 83.1457 108.95 85.6355C109.754 87.5203 110.018 89.5853 110.589 91.5535C111.16 93.5218 112.138 95.5097 113.898 96.561C116.304 97.999 119.631 97.3768 121.827 99.1183C122.487 99.6415 122.996 100.349 123.706 100.802C124.488 101.302 125.44 101.447 126.295 101.81C128.073 102.564 129.376 104.336 129.566 106.257C129.757 108.179 128.827 110.172 127.232 111.261C125.726 112.288 123.804 112.491 121.983 112.405C120.163 112.319 118.352 111.976 116.531 112.04C114.105 112.125 111.729 112.929 109.303 112.84C105.035 112.682 101.208 109.648 99.3345 105.81C97.4612 101.972 97.4059 97.8052 98.1655 93.4781C94.5544 94.1212 91.6337 92.2156 89.1487 90.1873C86.6637 88.159 84.9609 85.1956 84.4599 82.0273C84.1457 80.0404 84.3502 77.8378 85.6471 76.3C86.2714 75.5597 87.2142 74.9956 88.1723 75.1361C89.2687 75.297 90.4344 75.7819 91.1613 76.6184C92.0705 77.6647 92.277 78.1276 93.6366 78.3979C94.7263 78.6145 95.6546 78.4277 96.5411 77.758C97.4276 77.0884 98.5067 76.1128 98.6371 75.0083C98.934 72.3059 100.853 70.62 103.228 69.2975C105.603 67.9751 109.197 67.4445 111.292 69.472Z" fill="#EA9C47"/>
<path d="M111.951 79.2131C111.313 79.1572 110.851 78.3868 110.663 77.7749C110.094 75.9269 110.289 73.2457 111.181 73.0219C112.247 72.7543 112.786 74.0063 112.786 74.0063C112.786 74.0063 112.729 76.2192 111.951 79.2131Z" fill="#FCCA95"/>
<path d="M95.348 78.3676C94.2292 78.6106 92.9432 78.3537 92.0619 77.6229C91.5428 77.1925 91.442 76.8785 90.9591 76.4078C90.4762 75.9371 89.5501 75.3557 88.6914 75.2383C89.0644 76.5223 90.0096 77.8855 91.1564 78.573C92.3032 79.2605 93.8984 79.3158 95.348 78.3676Z" fill="#FCCA95"/>
<path d="M108.152 80.6733C108.152 78.0795 111.755 78.9213 111.483 80.6598C111.38 81.3173 109.91 84.33 109.111 85.3829C108.674 83.8725 108.152 81.0502 108.152 80.6733Z" fill="#AF6A1D"/>
<path d="M97.9962 94.5312C98.6858 98.2367 99.8432 101.444 101.734 103.906C103.625 106.367 106.877 107.173 109.977 107.014C111.932 106.914 113.812 106.022 115.767 106.127C117.463 106.218 119.021 107.047 120.511 107.862C122.002 108.676 123.553 109.513 125.248 109.623C126.944 109.732 129.006 108.517 129.59 106.941C129.671 109.228 128.798 110.851 127.286 111.754C125.774 112.657 123.926 112.797 122.168 112.692C120.41 112.586 118.661 112.26 116.901 112.321C115.147 112.382 113.424 112.789 111.675 112.928C106.149 113.366 102.566 110.972 99.9608 107.269C97.3553 103.565 96.6981 98.5876 97.9962 94.5312Z" fill="#AF6A1D"/>
<path d="M84.3379 80.0427C85.1849 81.9006 87.1671 83.281 89.1592 83.7291C91.1513 84.1773 93.3404 83.6424 94.9014 82.3262C96.4625 81.01 97.3568 79.0642 97.3909 77.0509C98.545 75.8969 98.6179 75.1328 98.6179 75.1328C98.6179 75.1328 97.6937 87.2175 98.0301 93.6106C98.0031 93.5611 93.8157 94.5098 88.9236 90.0028C85.3361 86.6976 84.1582 83.9827 84.3379 80.0427Z" fill="#AF6A1D"/>
<path d="M108.036 77.8193C108.835 78.0388 108.336 82.7493 109.502 87.2038C110.272 90.1459 111.159 94.0868 112.843 95.739C114.308 97.177 115.569 97.0667 117.596 97.3964C120.772 97.9131 121.463 98.8369 123.002 100.236C125.232 102.264 127.476 100.877 129.091 104.55C128.68 103.608 127.415 103.165 126.391 103.084C125.366 103.004 124.35 103.261 123.336 103.424C122.321 103.588 121.237 103.649 120.309 103.207C119.116 102.639 118.4 101.347 117.219 100.754C115.893 100.088 114.296 100.439 112.838 100.164C111.125 99.8403 108.796 98.6387 107.85 97.1743C106.903 95.7099 106.538 93.251 106.204 91.5396C105.387 87.3507 106.188 77.3119 108.036 77.8193Z" fill="#FCCA95"/>
<path d="M200.956 138.391C202.47 138.143 203.676 137.043 204.979 136.233C206.283 135.424 208.059 134.915 209.286 135.836C209.879 136.281 210.22 136.978 210.521 137.655C211.616 140.12 212.469 142.693 213.064 145.324C213.341 146.554 213.559 147.862 213.158 149.057C212.716 150.376 211.593 151.343 210.446 152.129C207.045 154.46 202.975 155.805 198.855 155.958C196.644 150.204 197.308 143.424 200.956 138.391Z" fill="#E8EAEB"/>
<path d="M162.455 115.638C169.38 113.439 176.488 111.821 183.682 110.805C182.59 114.163 181.491 117.553 181.136 121.066C180.781 124.58 181.224 128.275 183.041 131.302C183.867 132.678 184.974 134.426 184.002 135.703C183.385 136.514 182.233 136.623 181.22 136.732C175.724 137.323 170.473 139.965 166.724 144.025C160.159 136.321 158.365 124.858 162.455 115.638Z" fill="#E8EAEB"/>
<path d="M209.617 94.6244C206.763 102.154 206.145 110.515 207.861 118.382C208.057 119.281 208.347 120.263 209.132 120.742C209.9 121.21 210.882 121.036 211.762 120.846C217.719 119.561 223.677 118.277 229.634 116.993C226.808 108.688 226.182 99.6452 227.701 91.0938C221.963 92.9749 215.968 94.0702 209.617 94.6244Z" fill="#E8EAEB"/>
<path d="M83.2864 35.8017C83.5321 36.0369 83.4989 36.4177 83.302 36.695C83.1051 36.9723 82.7888 37.1362 82.4804 37.2795C81.0397 37.9492 79.5066 38.395 78.0301 38.9814C76.5536 39.5678 75.1025 40.3182 74.0151 41.4765C73.1645 42.3825 72.5752 43.4957 71.9523 44.571C71.3293 45.6463 70.6428 46.7201 69.6592 47.4796C68.6756 48.2391 67.014 48.7178 65.8457 48.2943C65.8359 41.4905 72.0218 38.2773 74.4283 37.3226C77.6256 36.0543 80.6178 35.6439 83.2864 35.8017Z" fill="#69686A"/>
<path d="M108.248 46.6971C108.101 49.073 105.991 51.2388 103.707 51.9095C101.424 52.5802 99.0551 51.847 97.647 49.9277C96.583 48.4775 96.2496 46.8462 95.707 45.1313C94.9258 42.6622 93.5972 40.5427 92.2148 38.3164C95.7787 40.378 96.3993 41.6752 97.6132 44.8353C98.9055 48.1993 100.673 49.6208 101.993 49.7175C105.236 49.9554 107.45 47.5499 108.248 46.6971Z" fill="#69686A"/>
<path d="M111.273 43.571C114.201 41.2019 117.428 40.3215 120.857 41.192C124.285 42.0625 127.508 44.8207 128.828 47.9509C126.551 47.7119 125.412 46.4238 124.614 44.2589C122.927 45.6721 120.073 45.8841 117.881 45.687C115.689 45.4898 113.83 44.8099 111.273 43.571Z" fill="#69686A"/>
<path d="M183.361 79.0817C183.893 78.013 185.305 79.3455 185.305 79.3455C185.305 79.3455 185.487 78.676 185.619 78.3554C185.739 78.0623 185.942 77.7402 186.267 77.8003C186.641 77.8693 186.672 78.3194 186.61 78.6837C186.528 79.1598 186.393 80.1392 186.393 80.1392C186.393 80.1392 187.328 80.9055 187.909 81.3197C188.151 81.4922 188.42 81.7166 188.405 82.0134C188.387 82.3552 187.973 82.5582 187.637 82.4935C187.301 82.4289 185.869 81.4517 185.869 81.4517C185.869 81.4517 185.65 82.523 185.412 83.013C185.271 83.3037 185.026 83.6006 184.725 83.4719C184.444 83.3519 184.464 83.0033 184.523 82.6977C184.657 81.9945 184.886 80.7608 184.886 80.7608C184.886 80.7608 183.075 79.6563 183.361 79.0817Z" fill="#453075"/>
<path d="M179.809 84.5882C179.736 84.3495 179.594 84.0466 179.807 83.917C180.029 83.7819 180.281 84.0309 180.433 84.242C184.523 89.9176 193.365 85.9521 191.437 78.6367C190.168 73.8272 184.084 72.662 181.349 75.3976C180.472 76.2738 179.85 77.3884 179.492 78.5744C179.411 78.8411 179.268 79.1712 178.989 79.1624C178.808 79.1566 178.665 78.9874 178.63 78.8095C178.594 78.6317 178.627 77.9455 178.695 77.7776C182.227 69.1323 192.217 73.3742 192.588 79.5397C193.212 89.9336 181.262 89.3608 179.809 84.5882Z" fill="#453075"/>
<path d="M209.618 94.6252C209.97 94.4706 211.297 94.4648 211.297 94.4648C211.297 94.4648 208.036 106.431 209.772 112.205C210.286 113.914 211.111 115.633 212.594 116.626C214.161 117.676 216.167 117.733 218.053 117.755C221.502 117.794 225.261 117.153 228.71 117.193C222.909 118.417 216.797 120.321 210.995 121.545C210.352 121.681 209.645 121.808 209.067 121.494C208.503 121.187 208.224 120.544 208.008 119.939C206.574 115.91 206.245 111.54 206.657 107.283C207.069 103.026 207.711 98.5507 209.618 94.6252Z" fill="#B6B6B6"/>
<path d="M218.494 94.8796C220.84 95.0388 223.546 94.8144 225.986 93.9441C226.09 97.5862 227.019 103.872 227.019 103.872L227.7 91.0938C227.7 91.0938 224.74 92.0241 224.31 92.1072C221.785 92.5946 215.932 93.8684 215.932 93.8684C215.932 93.8684 216.245 94.7269 218.494 94.8796Z" fill="#B6B6B6"/>
<path d="M200.956 138.391C199.851 141.853 199.019 143.807 198.413 147.391C197.915 150.34 198.986 152.598 201.576 153.605C203.553 154.374 205.782 154.283 207.813 153.672C203.608 155.786 200.026 155.962 200.026 155.962C200.026 155.962 200.021 156.196 199.992 156.309C199.91 156.626 199.459 156.712 199.18 156.542C198.901 156.372 198.759 156.048 198.646 155.741C197.387 152.318 196.392 148.792 198.754 142.516C199.044 141.745 200.016 138.818 200.956 138.391Z" fill="#B6B6B6"/>
<path d="M181.799 117.199C178.775 119.771 174.535 119.781 170.841 121.237C169.752 121.666 168.674 122.246 167.975 123.185C167.276 124.124 167.05 125.493 167.697 126.468C168.206 127.235 169.12 127.613 169.995 127.9C171.538 128.407 173.13 128.765 174.742 128.968C175.437 129.055 176.145 129.116 176.8 129.364C177.456 129.611 178.067 130.079 178.299 130.74C178.51 131.338 178.381 132.015 178.086 132.576C177.79 133.137 177.343 133.601 176.888 134.043C175.133 135.748 173.15 137.258 170.892 138.203C168.635 139.147 165.584 139.289 163.215 138.675C163.777 139.977 165.511 144.176 166.582 144.214C167.945 144.262 167.507 143.142 169.905 141.574C174.084 138.841 176.325 137.849 181.203 136.78C182.319 136.536 184.055 136.441 184.38 135.345C184.619 134.544 184.142 133.271 183.751 132.532C181.675 128.604 180.584 125.193 181.184 120.619" fill="#B6B6B6"/>
<path d="M183.104 112.598C176.173 114.153 169.19 115.347 162.156 116.343C162.327 115.937 162.424 115.383 162.839 115.238C163.259 115.09 169.719 113.342 176.42 111.832C176.753 111.756 183.368 110.472 183.69 110.585C184.012 110.699 183.554 111.76 183.104 112.598Z" fill="#B6B6B6"/>
<path d="M207.637 135.344C209.343 137.436 210.853 140.427 211.428 143.065C212.004 145.702 211.911 148.622 211.537 151.295C212.78 150.464 213.753 148.599 213.753 147.08C213.753 143.416 211.897 139.827 210.025 136.677C209.694 136.12 209.02 135.332 207.637 135.344Z" fill="#B6B6B6"/>
<path d="M220.303 113.305C219.633 112.745 218.524 112.83 217.939 113.479C217.354 114.128 217.38 115.231 217.986 115.86C218.592 116.488 219.684 116.558 220.372 116.02C221.06 115.481 221.426 114.243 220.303 113.305Z" fill="#7946C6"/>
<path d="M205.978 141.18C205.451 141.198 204.911 141.219 204.427 141.426C203.943 141.633 203.521 142.072 203.491 142.597C203.462 143.123 203.96 143.66 204.473 143.543C204.76 143.478 205.045 143.237 205.312 143.362C205.492 143.446 205.566 143.676 205.53 143.872C205.494 144.068 205.374 144.236 205.253 144.394C204.758 145.04 204.187 145.644 203.859 146.389C203.531 147.134 203.503 148.084 204.046 148.689C204.707 149.425 205.887 149.351 206.821 149.025C207.235 148.881 207.645 148.693 207.958 148.387C208.272 148.081 208.478 147.638 208.411 147.204C208.343 146.771 207.952 146.384 207.515 146.406C207.25 146.42 207.014 146.568 206.766 146.663C206.518 146.758 206.206 146.789 206.015 146.605C205.855 146.449 205.842 146.188 205.925 145.981C206.008 145.774 206.169 145.61 206.328 145.454C206.745 145.047 207.184 144.653 207.506 144.168C207.828 143.683 208.027 143.083 207.902 142.514C207.777 141.945 207.261 141.444 205.978 141.18Z" fill="#947EC6"/>
<path d="M206.987 150.633C206.71 150.225 206.077 150.14 205.676 150.427C205.275 150.715 205.143 151.302 205.341 151.754C205.539 152.205 206.026 152.5 206.519 152.515C206.829 152.524 207.151 152.426 207.364 152.201C207.577 151.976 207.654 151.616 206.987 150.633Z" fill="#947EC6"/>
<path d="M175.196 131.352C174.66 131.057 173.925 131.19 173.525 131.654C173.126 132.118 173.104 132.864 173.476 133.35C173.848 133.837 174.575 134.011 175.126 133.746C175.678 133.481 176.371 132.438 175.196 131.352Z" fill="#947EC6"/>
<path d="M168.707 119.063C168.121 119.242 167.504 119.439 167.094 119.894C166.685 120.35 166.596 121.153 167.075 121.534C167.553 121.914 168.252 121.685 168.805 121.427C169.358 121.168 170.029 120.9 170.544 121.229C170.863 121.433 171.021 121.829 171.025 122.208C171.029 122.587 170.9 122.954 170.751 123.303C170.309 124.34 169.676 125.291 169.285 126.348C168.895 127.405 168.776 128.648 169.353 129.617C169.804 130.373 170.625 130.856 171.481 131.06C172.763 131.365 174.171 131.085 175.238 130.313C176.305 129.541 177.012 128.291 177.123 126.979C177.157 126.58 177.126 126.144 176.868 125.839C176.503 125.408 175.805 125.413 175.312 125.688C174.818 125.964 174.477 126.441 174.139 126.894C173.8 127.346 173.424 127.807 172.901 128.021C172.378 128.236 171.671 128.106 171.42 127.6C171.173 127.103 171.448 126.517 171.718 126.033C172.17 125.222 172.623 124.411 173.075 123.6C173.528 122.788 173.995 121.914 173.92 120.987C173.834 119.931 173.004 119.019 172.001 118.675C170.999 118.33 169.945 118.688 168.707 119.063Z" fill="#947EC6"/>
<path d="M219.745 98.0471C219.586 97.362 218.686 96.8433 218.154 97.3039C217.862 97.5567 217.803 97.9794 217.766 98.3636C217.374 102.448 217.394 106.572 217.826 110.652C217.895 111.306 218.179 112.146 218.836 112.119C219.498 112.092 219.707 111.221 219.725 110.558C219.819 107.094 219.905 98.7322 219.745 98.0471Z" fill="#7946C6"/>
</svg>
