<svg width="179" height="169" viewBox="0 0 179 169" fill="none" xmlns="http://www.w3.org/2000/svg">
<path d="M141.899 9.86683C134.932 7.10888 127.649 7.92745 121.431 12.1164C101.492 25.5481 88.798 21.2137 88.7772 21.2207C87.4603 21.6617 64.4458 59.6828 64.4458 59.6828C56.6098 71.7082 40.6212 73.39 28.4891 79.5578C15.805 86.4759 3.59085 99.7919 5.22575 115.181C6.25512 124.378 14.3003 132.643 23.5545 133.376C23.582 133.378 23.6096 133.378 23.6371 133.377C32.582 132.84 39.9227 121.337 48.7893 121.337C58.4158 121.337 50.3472 141.408 49.9995 142.561C46.2341 152.627 53.8112 159.853 63.7213 159.424C77.7703 158.692 84.5866 156.205 89.723 154.666C93.9721 153.393 98.5088 153.422 102.732 154.78C108.019 156.481 114.302 159.537 120.77 163.038C120.782 163.044 120.794 163.05 120.806 163.055C131.164 167.783 141.467 164.808 149.157 157.967C149.165 157.96 149.174 157.953 149.182 157.947C160.463 149.214 160.139 132.966 153.811 121.294C153.798 121.271 145.606 102.587 167.749 77.6442C177.233 66.9616 180.519 25.1547 141.899 9.86683Z" fill="#F1DFC5"/>
<path d="M63.5342 60.6086L67.6918 62.1096L70.2876 59.6595L67.3838 58.0481L64.5461 57.5625L63.5342 60.6086Z" fill="#FFF3E5"/>
<path d="M96.0643 51.189C96.0148 51.2221 94.7686 53.6409 94.6658 54.9975C94.563 56.3541 93.6885 59.2016 93.6885 59.2016L93.54 66.7342L98.9846 67.9924L101.855 59.8638L101.657 53.5067L96.0643 51.189Z" fill="#FFF3E5"/>
<path d="M90.7521 29.3646C103.172 27.9684 114.912 37.6264 114.912 37.6264C119.654 41.8866 116.037 47.5188 110.189 46.4991C105.774 45.9877 105.308 51.1431 101.871 52.4987C94.0661 55.4285 93.4425 45.835 99.4381 43.3194C100.243 42.5356 104.923 36.3177 95.1433 37.8409C81.3094 39.3594 90.2126 63.1111 72.4055 58.5121C67.815 54.7179 68.5053 50.2653 66.2694 48.9105C62.4073 46.3652 60.5 54.981 62.5779 54.6005C64.5081 54.2471 66.7248 54.9402 66.7248 54.9402C69.1256 60.479 55.3415 62.4147 51.8504 60.1667C45.1632 55.8608 52.7615 45.0476 56.7339 40.8363C62.2491 34.9892 61.5771 36.1509 70.7236 32.2741C80.0532 28.3198 87.1254 29.7923 90.7521 29.3646Z" fill="#EA9C47"/>
<path d="M72.1366 157.409C71.7134 154.498 70.3217 147.814 74.6844 147.858C75.5741 149.232 91.2752 157.495 91.3233 157.375C90.3562 159.78 72.1366 157.409 72.1366 157.409Z" fill="#1D273D"/>
<path d="M74.5742 147.968C76.9669 146.99 79.8394 148.672 81.1347 150.36C79.0208 152.469 83.1755 152.583 84.6222 152.615C87.378 152.676 90.2553 154.55 90.4862 157.376C87.6669 157.292 84.5399 157.335 81.7361 157.101C79.2334 156.87 74.9161 156.568 74.4253 153.497C74.1577 151.752 75.299 149.418 74.5742 147.968Z" fill="#292F73"/>
<path d="M81.135 150.36C81.0573 150.248 80.116 149.233 79.1172 148.831C77.999 148.38 75.4022 147.709 75.1123 147.793C75.8611 147.576 77.9018 147.217 78.1559 147.2C79.8453 147.088 80.6976 147.615 80.9377 147.8C82.1883 148.765 81.3568 150.138 81.135 150.36Z" fill="#475196"/>
<path d="M161.38 57.3819C179.219 85.245 164.232 118.192 131.086 121.552C129.416 121.066 132.922 143.52 114.633 138.794C114.633 138.794 120.871 111.982 124.68 111.346C152.564 106.682 161.357 57.3486 161.38 57.3819Z" fill="#453075"/>
<path d="M62.5489 152.758C59.2295 148.396 51.4401 137.872 52.7979 136.73C53.9954 135.722 60.7973 130.051 61.3895 132.582C59.3368 134.827 61.4986 148.671 62.9841 152.861C62.8258 152.929 62.6795 152.845 62.5489 152.758Z" fill="#1D273D"/>
<path d="M61.3025 132.602C63.4628 134.445 66.0157 138.908 62.0276 140.03C61.8615 140.287 62.3533 140.869 62.5116 141.131C68.0325 150.279 64.1458 152.796 62.9847 152.861C60.8333 148.406 57.711 144.24 56.5097 139.325C55.6479 135.959 59.2833 134.439 61.3025 132.602Z" fill="#292F73"/>
<path d="M63.9116 152.491C65.1096 149.987 65.5352 147.576 64.0764 144.559C63.4232 143.207 62.1646 142.213 61.7948 140.708C61.7137 140.453 61.6423 139.975 62.0387 140.019C63.3253 142.252 66.0951 143.404 66.7278 146.048C67.3549 148.5 66.2668 151.443 63.9116 152.491Z" fill="#475196"/>
<path d="M62.3643 139.922C63.89 138.506 64.3669 137.106 63.3114 135.233C65.5304 136.849 65.806 140.422 62.3643 139.922Z" fill="#475196"/>
<path d="M91.723 20.2492C91.723 20.2492 91.246 23.0802 90.6299 24.342C89.2616 24.5851 70.3733 30.7344 60.9425 36.2635C52.8057 41.034 54.3949 45.4169 48.5229 44.2688C26.5587 39.9747 34.2502 31.0711 34.2502 31.0711C70.1899 35.9763 64.858 19.6954 70.3591 8.77156C76.8498 3.82574 86.1953 5.24995 90.0838 11.3128C91.5371 13.5788 92.2284 17.0071 91.723 20.2492Z" fill="#B18762"/>
<path d="M33.3661 32.5919C34.0364 44.3593 46.4088 42.9631 54.9063 37.5337C61.2041 33.5098 66.6947 33.6381 68.7344 26.3203C69.4683 23.6874 69.2354 21.9782 69.7021 19.9775C70.3359 20.5201 71.7216 20.1878 71.8978 21.0316C72.7611 25.4618 78.7943 26.364 76.5501 31.2467C76.254 32.1037 75.1083 31.6596 73.9652 31.5975C71.1302 31.4434 68.9358 33.6545 66.7568 35.2272C57.6957 39.8072 60.0839 36.1511 51.4977 47.9931C51.4977 47.9931 26.9835 48.7211 33.3661 32.5919Z" fill="#806041"/>
<path d="M161.379 57.3823C161.288 57.2627 158.421 53.4899 156.928 51.7646C156.335 51.7952 130.202 42.2201 129.533 42.0142C124.933 41.2208 112.696 47.622 100.884 56.2834C100.884 56.2834 100.959 63.745 99.8144 64.9954C99.4859 65.1129 99.2999 65.1664 99.0068 65.3646C98.8056 65.9674 98.5561 66.8153 97.8895 67.0156L97.4472 66.9484C95.3949 65.1164 96.5122 61.9927 96.1891 59.6331C94.5594 60.9082 95.6229 66.7884 94.5092 66.1863C93.7819 65.7932 94.1768 59.7514 94.2398 59.3323C94.1556 59.3671 92.4562 59.5113 91.0002 60.8882C89.8768 61.9505 89.8096 64.3905 89.8096 64.3905C89.8378 66.1607 90.6419 68.018 92.251 69.2057C104.555 77.5995 114.692 62.8449 126.92 63.8263C138.495 63.7168 144.923 74.6871 143.388 85.5431C141.54 97.3141 130.833 102.794 119.956 105.951C118.232 106.855 112.818 106.672 112.227 108.986C111.206 114.687 114.038 138.533 114.038 138.533L114.346 138.682C114.641 138.825 114.967 138.895 115.294 138.877C124.061 138.419 121.722 117.051 123.994 116.064C155.308 116.156 171.698 85.5747 161.379 57.3823Z" fill="#7946C6"/>
<path d="M70.2558 64.251C72.4055 61.5031 73.4995 61.0036 83.4897 58.9035L83.2281 57.5501C83.2281 57.5501 76.238 60.6539 68.1118 56.6508L67.6774 56.2344L67.5904 57.276L68.9642 57.9313C69.7969 58.7797 68.3105 62.1307 67.4279 61.9432L66.9473 61.8308L66.8048 62.5647C64.8661 72.1192 68.9404 107.947 69.378 117.553C68.7709 120.863 65.5055 123.302 63.96 126.277C65.3373 128.532 66.905 132.759 67.3275 135.193C67.8814 138.384 67.6283 140.748 69.6427 135.253C70.2156 139.446 69.1475 144.973 67.8456 149.357C68.2601 150.523 70.8124 150.083 71.2854 148.772C75.6854 136.58 66.1576 69.4893 70.2558 64.251Z" fill="#8AA0BC"/>
<path d="M62.7949 26.8989C60.2343 32.6738 53.3997 34.0354 47.7942 32.8468C43.3134 32.1311 36.7934 36.9864 34.251 31.0713C43.9983 20.3742 53.5504 35.9159 62.7949 26.8989Z" fill="#D2A880"/>
<path d="M49.2231 54.6338C47.2126 64.9641 64.5847 65.089 66.9421 56.7638C66.684 57.6753 50.256 64.5537 49.2231 54.6338Z" fill="#AF6A1D"/>
<path d="M90.0844 11.3125C87.3019 10.0332 85.4015 11.0749 82.9541 8.93159C81.1449 7.45319 80.8569 5.54089 79.4754 6.6399C74.6214 10.1217 70.5691 8.79018 70.3613 8.77262C70.9336 7.88499 73.912 3.63192 80.1972 3.6426C86.2212 3.79246 89.648 10.4271 90.0844 11.3125Z" fill="#D2A880"/>
<path d="M91.3241 157.375C90.7696 157.327 89.9003 157.598 89.8694 156.785C89.1414 152.149 84.1759 153.344 80.9507 152.13C78.8959 151.102 83.9175 151.041 84.7772 150.982C88.7977 150.704 92.5195 153.249 91.3241 157.375Z" fill="#475196"/>
<path d="M74.647 148.129C73.4591 148.271 71.6432 149.678 69.6951 149.958C73.5771 149.4 69.9213 96.6841 68.607 76.4386C67.4949 59.3075 70.0947 61.2987 83.4904 58.9033C83.4904 58.9033 86.0436 78.3832 88.7605 87.7044C91.7133 97.8354 86.7739 106.696 81.0449 114.748C79.509 116.613 78.6377 118.706 78.4833 121.094C76.3412 125.929 76.8789 113.919 76.5547 112.522C92.9984 89.7405 77.1473 68.7024 77.5411 68.2077C68.7143 79.2977 81.7926 147.45 80.6269 147.606C79.7189 147.727 77.3935 147.674 74.647 148.129Z" fill="#CCDCEE"/>
<path d="M89.8098 64.3902C98.6921 79.0872 111.712 64.6954 118.178 61.6117C128.229 56.2516 141.865 62.0775 144.488 73.4672C145.707 78.7617 144.432 82.9444 143.148 86.8084C143.981 84.3001 140.847 62.2273 122.294 66.8892C115.894 68.4974 112.955 73.5234 105.64 77.1224C96.8377 81.4523 89.2455 73.3923 89.8098 64.3902Z" fill="#453075"/>
<path d="M140.598 93.0439C135.222 105.372 128.04 106.213 117.56 108.077C116.173 108.323 113.561 108.085 113.549 109.853C113.385 134.969 114.169 138.596 114.169 138.596C111.287 137.57 110.478 133.234 109.93 130.381C109.56 127.931 107.887 102.954 110.627 103.881C121.318 103.459 134.106 102.289 140.598 93.0439Z" fill="#947EC6"/>
<path d="M80.6257 147.606C73.755 130.649 71.7103 88.7007 75.1118 70.7696C75.8943 66.6442 79.3608 63.8305 77.6818 67.8809C71.0049 83.9879 78.9766 132.889 80.4599 137.984C81.3278 140.966 84.1916 147.251 80.6257 147.606Z" fill="#E7F1FC"/>
<path d="M78.8682 58.586L82.1881 55.2089C88.1622 48.2237 82.1795 39.8713 95.8517 37.5203C101.388 36.563 107.857 41.5581 99.6126 43.8941L96.6068 45.3205C96.258 38.7202 87.6711 41.802 89.2841 47.6358C90.7568 53.3313 85.7516 58.0701 78.8682 58.586Z" fill="#AF6A1D"/>
<path d="M78.4827 121.094C78.0975 116.275 80.7796 114.624 82.3709 112.158C93.8524 94.3585 86.6915 84.2423 83.5017 67.5452C82.3709 61.6259 83.093 59.9185 83.6972 60.4304C83.6972 60.4304 84.5174 65.7017 84.6776 66.4487C90.6235 94.1778 95.989 96.0221 78.4827 121.094Z" fill="#E7F1FC"/>
<path d="M114.158 159.809C113.619 158.805 126.285 148.699 118.975 144.648C137.196 143.557 129.356 170.493 114.158 159.809Z" fill="#453075"/>
<path d="M118.974 144.648C118.974 144.648 127.305 147.986 124.518 156.26C122.939 160.946 118.4 160.934 115.987 160.581C114.845 160.414 113.813 159.747 113.167 158.731C113.044 158.538 112.925 158.336 112.808 158.126C115.281 149.582 118.047 145.031 118.214 144.834C118.455 144.727 118.573 144.703 118.974 144.648Z" fill="#7946C6"/>
<path d="M118.215 144.834C118.175 145.089 118.165 145.398 118.241 145.616C118.577 146.795 117.768 147.839 117.176 148.743C116.415 149.816 115.562 150.881 115.288 152.229C114.844 153.907 115.042 155.768 114.004 157.237C113.701 157.695 112.877 158.239 112.808 158.126C111.811 156.499 111.181 155.466 111.408 152.97C111.788 148.778 114.645 146.079 118.215 144.834Z" fill="#947EC6"/>
<path d="M96.3301 51.859C98.6561 52.9177 101.203 53.3277 103.387 51.3695C104.945 50.1838 105.268 47.9535 107.133 47.0665C110.262 45.3711 115.151 46.0695 117.078 42.0142C117.915 44.5679 114.635 48.9458 111.014 49.2874C108.992 49.4782 106.387 49.2961 105.445 51.5767C103.913 55.9802 98.567 55.1339 96.3301 51.859Z" fill="#AF6A1D"/>
<path d="M96.6065 45.3201C97.4514 44.1125 104.503 40.3354 105.537 42.0703C105.734 42.4014 105.658 43.0694 105.325 43.4569C103.213 45.912 97.6482 44.9539 96.9914 48.3798C96.6106 50.3662 96.0675 51.0884 95.7579 50.9285C95.7579 50.9285 94.36 47.9926 96.6065 45.3201Z" fill="#FCCA95"/>
<path d="M91.5974 60.0771C91.1756 59.5492 91.901 59.0386 92.2974 58.6681C92.9783 58.0009 93.424 57.0585 93.9248 56.2458C94.0827 55.9896 94.501 55.1089 94.6714 55.0026L94.6655 54.9976C94.6451 55.6435 94.2906 59.0369 94.2394 59.332C93.8165 59.8766 92.1947 60.7194 91.5974 60.0771Z" fill="#C4AB9A"/>
<path d="M99.1777 54.1523C99.7209 54.3585 100.114 54.4156 100.67 54.4534C100.67 54.4534 100.96 56.3076 100.951 57.7726C100.937 59.7847 101.008 61.9389 100.309 63.8481C100.293 60.5987 100.521 57.1963 99.1777 54.1523Z" fill="#C4AB9A"/>
<path d="M96.1889 59.6331C95.2281 61.4799 95.9112 63.5873 95.2266 65.6917C95.0241 66.3143 94.6377 66.2286 94.6377 66.2286C94.6377 66.2286 95.02 65.5434 95.076 64.2383C95.1608 62.2636 95.2076 59.33 96.1889 59.6331Z" fill="#C4AB9A"/>
<path d="M97.8895 67.0155C97.7771 67.0567 97.5593 67.0694 97.4473 66.9483L97.5879 62.8343C97.6003 62.4724 97.6248 62.1107 97.6617 61.7505C98.2353 56.1546 97.908 65.2359 97.8895 67.0155Z" fill="#C4AB9A"/>
<path d="M99.0068 65.3645C98.9776 64.2923 99.2973 60.3132 99.3823 60.2032C99.4946 59.8558 99.5693 60.3366 99.5568 60.5364C99.5068 61.5829 99.6813 64.4568 99.8143 64.9953C99.8143 64.9953 99.4822 65.4747 99.0068 65.3645Z" fill="#C4AB9A"/>
<path d="M64.0974 126.022C67.2063 129.629 67.5007 133.99 67.5324 134.149C67.7548 135.265 67.8069 139.065 68.4003 138.201C67.0103 140.832 67.6637 142.412 66.9484 142.224C66.604 142.056 66.461 141.734 66.3385 141.399C67.0383 139.67 61.0959 130.598 61.0303 130.058C61.2336 129.689 62.8564 128.187 64.0974 126.022Z" fill="#CCDCEE"/>
<path d="M61.2731 129.745C63.3747 131.347 67.7169 139.02 66.3396 141.399C65.2944 134.966 58.597 132.327 61.2731 129.745Z" fill="#E7F1FC"/>
<path d="M68.9619 57.8518C69.269 57.9749 69.3657 58.2023 69.3441 58.5181C69.315 58.7607 69.257 59.0863 69.1166 59.4615C68.3766 58.6535 66.1549 58.8058 65.8984 58.9033C66.4068 58.2121 66.7255 57.4033 66.8813 56.9746C66.8813 56.9746 68.6389 57.7225 68.9619 57.8518Z" fill="#C4AB9A"/>
<path d="M86.2674 20.6743C87.0448 22.1568 87.7863 24.6175 89.9805 24.1496C90.2325 24.0759 90.6048 23.957 90.6297 24.3419C89.7434 26.0079 89.279 28.7543 87.7391 29.707C84.7721 29.3292 79.1728 33.9405 79.5742 29.0324C79.8297 25.9075 83.0682 24.1258 83.7747 21.3893C84.0963 20.4619 85.5123 21.2712 86.2674 20.6743Z" fill="#806041"/>
<path d="M114.337 38.1364C112.123 39.0099 108.001 35.7492 98.3931 30.8305C97.4784 30.3622 98.0038 29.7016 98.6106 29.8017C103.177 30.5547 112.205 34.6688 114.912 37.6263C114.912 37.6263 114.623 38.0235 114.337 38.1364Z" fill="#FCCA95"/>
<path d="M81.4169 31.0652C84.3904 29.9934 87.5625 29.2435 90.7527 29.3649C89.106 30.2168 87.0742 30.2593 85.5604 31.5438C83.7708 32.8883 76.2518 37.4297 76.0752 33.2806C77.0499 31.7431 79.7763 32.1713 81.4169 31.0652Z" fill="#FCCA95"/>
<path d="M72.2566 58.1563C63.9117 56.6069 68.7343 53.5855 66.5219 47.7123C63.8624 40.6526 69.2367 42.888 69.397 48.0708C69.5309 52.399 69.8463 54.8128 72.2566 58.1563Z" fill="#FCCA95"/>
<path d="M67.1689 51.9989C66.9128 51.9869 65.3353 50.8969 64.6959 53.3355C64.5099 53.6024 60.2967 52.7908 58.45 53.4504C57.4684 53.935 56.7106 53.7156 57.3319 52.5073C59.305 48.8051 63.5585 45.8219 66.9755 49.2935C66.9755 49.2935 67.2839 50.3444 67.1689 51.9989Z" fill="#AF6A1D"/>
<path d="M57.2525 53.608C59.4865 52.5986 62.8096 52.5361 64.6959 53.3354C66.1101 53.9347 66.7252 54.9402 66.7252 54.9402C63.0803 53.9286 59.0182 55.5609 55.7797 57.2972C50.6373 60.0543 53.6368 55.3336 57.2525 53.608Z" fill="#FCCA95"/>
<path d="M59.75 38.3914C60.296 37.862 65.0131 36.5008 67.4527 34.478C68.2951 33.8599 70.6497 32.3582 70.8212 32.3608C70.7502 32.4514 69.0722 34.1064 68.6167 34.866C68.3301 35.344 68.0416 35.8213 67.7407 36.2902C67.181 37.1624 66.4263 37.7758 65.4166 38.0673C64.9481 38.2026 59.9122 38.3934 59.75 38.3914Z" fill="#AF6A1D"/>
<path d="M81.4166 31.0653C81.3375 31.1478 80.6765 32.4241 78.1856 32.4145C77.3154 32.4238 75.3819 31.898 75.2363 31.7428C76.3912 31.0077 76.1547 28.8341 76.1547 28.8341C76.4882 28.704 80.6582 28.9528 80.8332 28.8005C80.8332 28.8005 81.1659 30.4806 81.4166 31.0653Z" fill="#FFF3E5"/>
<path d="M75.9268 26.9625C76.0508 26.973 80.2421 26.9658 80.7811 26.5669C80.7569 27.1154 80.8335 28.8004 80.8335 28.8004C80.8335 28.8004 80.032 29.9785 78.4019 30.0735C77.4546 30.0694 76.4476 29.8286 76.155 28.834C76.155 28.834 76.009 27.584 75.9268 26.9625Z" fill="#C4AB9A"/>
<path d="M86.2675 20.6741C85.1663 21.9243 84.1482 21.1643 84.1482 21.1643C80.8149 30.6165 74.319 28.9449 71.5999 20.6033C69.087 21.2442 68.6209 17.3249 70.0668 16.001C70.5229 15.6168 71.304 15.8067 71.7892 16.1438C74.0686 16.506 77.4971 12.3618 78.4616 10.355C78.6649 9.70774 79.2146 9.685 79.3639 10.3927C79.9693 11.907 83.0934 16.7714 84.3162 16.1906C86.7866 15.0175 87.3462 19.3002 86.2675 20.6741Z" fill="#FFF3E5"/>
<path d="M77.5868 68.1172C81.3971 71.6193 92.4304 97.0953 76.5544 112.522L76.1152 109.795C84.1723 102.296 82.5334 80.2601 77.3148 68.8426L77.5868 68.1172Z" fill="#8AA0BC"/>
<path d="M100.884 56.2831C100.825 55.6378 100.728 55.0987 100.67 54.4535C105.787 54.7763 104.13 49.9166 108.049 49.5378C113.982 48.9643 118.388 45.1615 116.686 39.9913C116.686 39.9913 124.206 37.5415 131.045 37.7806C145.271 38.278 154.944 49.537 156.927 51.7646C155.492 53.2853 153.081 52.2118 151.588 51.339C127.741 37.3997 109.062 50.5859 100.884 56.2831Z" fill="#947EC6"/>
</svg>
