<svg width="28" height="28" viewBox="0 0 28 28" fill="none" xmlns="http://www.w3.org/2000/svg">
<path d="M3 24.2222V4.77778C3 4.04107 3.29266 3.33453 3.81359 2.81359C4.33453 2.29266 5.04107 2 5.77778 2H24.3889C24.6099 2 24.8219 2.0878 24.9781 2.24408C25.1344 2.40036 25.2222 2.61232 25.2222 2.83333V21.0472M5.77778 21.4444H25.2222M5.77778 27H25.2222" stroke="#420A98" stroke-width="1.8" stroke-linecap="round"/>
<path d="M5.77778 26.9999C5.04107 26.9999 4.33453 26.7072 3.81359 26.1863C3.29266 25.6654 3 24.9588 3 24.2221C3 23.4854 3.29266 22.7789 3.81359 22.2579C4.33453 21.737 5.04107 21.4443 5.77778 21.4443" stroke="#420A98" stroke-width="1.8" stroke-linecap="round" stroke-linejoin="round"/>
<path d="M9.94434 7.55566H18.2777" stroke="#420A98" stroke-width="1.8" stroke-linecap="round"/>
</svg>
