<?xml version="1.0" encoding="utf-8"?>
<!-- Generator: Adobe Illustrator 27.8.0, SVG Export Plug-In . SVG Version: 6.00 Build 0)  -->
<svg version="1.1" id="Camada_1" xmlns="http://www.w3.org/2000/svg" xmlns:xlink="http://www.w3.org/1999/xlink" x="0px" y="0px"
	 viewBox="0 0 213.6 100" style="enable-background:new 0 0 213.6 100;" xml:space="preserve">
<style type="text/css">
	.st0{fill:#262626;}
</style>
<g id="Logo_Goethe">
	<g id="Ícone">
		<path id="Círculo_1" class="st0" d="M81.8,4.1c7.8,0,14.2,6.3,14.2,14.2c0,7.8-6.3,14.2-14.2,14.2c-7.8,0-14.2-6.3-14.2-14.2
			C67.6,10.4,73.9,4.1,81.8,4.1 M81.8,36.5c10.1,0,18.2-8.2,18.2-18.2C100,8.2,91.8,0,81.8,0C71.7,0,63.5,8.2,63.5,18.2
			C63.5,28.3,71.7,36.5,81.8,36.5"/>
		<path id="Semicírculo_1" class="st0" d="M36,50c0-7.7,6.2-13.9,14-13.9v-4c-9.9,0-18,8-18,17.9c0,9.9,8,18,18,18s17.9-8,17.9-18
			h-4c0,7.7-6.3,14-14,14C42.3,64,36,57.7,36,50"/>
		<path id="Semicírculo_2" class="st0" d="M24.1,50c0,14.3,11.6,25.9,25.9,25.9c14.3,0,25.9-11.6,25.9-25.9h-4
			c0,12.1-9.9,21.9-22,21.9c-12.1,0-21.9-9.8-21.9-21.9c0-12.1,9.8-21.9,21.9-21.9v-4C35.7,24.1,24.1,35.7,24.1,50"/>
		<path id="Semicírculo_3" class="st0" d="M16.1,50c0,18.7,15.2,33.9,33.9,33.9c18.7,0,33.9-15.2,33.9-33.9h-4
			c0,16.5-13.4,29.9-29.9,29.9S20.1,66.5,20.1,50c0-16.5,13.4-29.9,29.9-29.9l0-4C31.3,16.1,16.1,31.3,16.1,50"/>
		<path id="Semicírculo_4" class="st0" d="M50,8C26.8,8,8,26.8,8,50s18.8,42,42,42s42-18.8,42-42l-4,0c0,21-17,37.9-38,37.9
			C29,87.9,12,71,12,50C12,29,29,12.1,50,12.1L50,8L50,8z"/>
		<path id="Semicírculo_5" class="st0" d="M50,96C24.6,96,4,75.4,4,50C4,24.6,24.6,4,50,4V0C22.4,0,0,22.4,0,50s22.4,50,50,50
			c27.6,0,50-22.4,50-50h-4C96,75.4,75.4,96,50,96"/>
	</g>
	<g id="Goethe_Institut">
		<g id="Goethe">
			<path id="Goethe_G" class="st0" d="M123.4,43.7c2,0,4.5-0.4,5.8-1.1V31.8h-6.8v3.4h2.7V40c-0.5,0.1-1.2,0.1-1.8,0.1
				c-3,0-5.4-1.6-5.4-6.7c0-5,2.4-6.6,5.9-6.6c1.5,0,3.4,0.3,4.6,0.8l0.4-3.4c-1.4-0.5-3.6-0.9-5.3-0.9c-6.1,0-10,3.2-10,10.2
				C113.6,40.4,117.2,43.7,123.4,43.7"/>
			<path id="Goethe_O" class="st0" d="M140.6,26.5c2.7,0,4,1.7,4,6.9c0,5.2-1.3,7-3.9,7c-2.7,0-4-1.7-4-7
				C136.7,28.2,138,26.5,140.6,26.5 M140.6,43.8c5.6,0,8.3-3,8.3-10.4c0-7.3-2.7-10.4-8.3-10.4c-5.6,0-8.3,3.1-8.3,10.4
				C132.3,40.7,135.1,43.8,140.6,43.8"/>
			<path id="Goethe_E1" class="st0" d="M156.4,34.9h6.9v-3.5h-6.9v-4.3h8.2v-3.5h-12.4v19.7h12.7v-3.5h-8.5V34.9L156.4,34.9z"/>
			<path id="Goethe_T" class="st0" d="M174.9,43.3V27.1h4.3v-3.5h-12.8v3.5h4.3v16.1H174.9z"/>
			<path id="Goethe_H" class="st0" d="M192.1,43.3h4.2V23.6h-4.2v7.8h-6.3v-7.8h-4.2v19.7h4.2v-8.4h6.3V43.3z"/>
			<path id="Goethe_E" class="st0" d="M213.2,39.8h-8.5v-4.9h6.9v-3.5h-6.9v-4.3h8.2v-3.5h-12.4v19.7h12.7L213.2,39.8L213.2,39.8z"
				/>
		</g>
		<g id="Institut">
			<path id="Institut_I1" class="st0" d="M119.2,69V50H115v19H119.2z"/>
			<path id="Institut_N" class="st0" d="M132.9,61.1L127.1,50h-3.8v19h3.8V57.9l5.8,11.1h3.8V50h-3.8V61.1z"/>
			<path id="Institut_S" class="st0" d="M143.7,55.1c0-1,0.5-2,2.6-2c1.3,0,2.4,0.3,3.6,0.8l0.5-3.3c-1.3-0.6-2.7-0.9-4.4-0.9
				c-4.4,0-6.3,2.5-6.3,5.7c0,6.1,7.5,4.9,7.5,8.3c0,1.3-0.8,2.2-2.5,2.2c-1.7,0-3.1-0.6-4.5-1.4l-0.5,3.4c1.5,0.9,3.3,1.3,5.3,1.3
				c4.1,0,6.4-2.3,6.4-6C151.2,57,143.7,58,143.7,55.1"/>
			<path id="Institut_T1" class="st0" d="M151.6,53.4h3.9V69h4.1V53.4h3.9V50h-11.9V53.4z"/>
			<path id="Institut_I2" class="st0" d="M169.8,69V50h-4.2v19H169.8z"/>
			<path id="Institut_T2" class="st0" d="M172,53.4h3.9V69h4.1V53.4h3.9V50H172V53.4z"/>
			<path id="Institut_U" class="st0" d="M195.6,62.4c0,2.2-0.8,3.4-2.8,3.4c-2,0-2.8-1.2-2.8-3.4V50h-4.1v12.5c0,4.6,2.3,6.8,7,6.8
				c4.6,0,6.9-2.2,6.9-6.8V50h-4.1V62.4L195.6,62.4z"/>
			<path id="Institut_T3" class="st0" d="M201.7,50v3.4h3.9V69h4.1V53.4h3.9V50H201.7L201.7,50z"/>
		</g>
	</g>
</g>
</svg>
