<svg width="24" height="24" viewBox="0 0 24 24" fill="none" xmlns="http://www.w3.org/2000/svg">
<g clip-path="url(#clip0_5400_12288)">
<path d="M11.0142 2.08245C11.5431 1.5017 12.4569 1.5017 12.9858 2.08245L14.7099 3.9756C14.9772 4.26911 15.3614 4.42824 15.7579 4.40971L18.3157 4.29017C19.1003 4.2535 19.7465 4.89966 19.7098 5.6843L19.5903 8.24207C19.5718 8.63862 19.7309 9.02281 20.0244 9.29011L21.9175 11.0142C22.4983 11.5431 22.4983 12.4569 21.9175 12.9858L20.0244 14.7099C19.7309 14.9772 19.5718 15.3614 19.5903 15.7579L19.7098 18.3157C19.7465 19.1003 19.1003 19.7465 18.3157 19.7098L15.7579 19.5903C15.3614 19.5718 14.9772 19.7309 14.7099 20.0244L12.9858 21.9175C12.4569 22.4983 11.5431 22.4983 11.0142 21.9175L9.29011 20.0244C9.02281 19.7309 8.63862 19.5718 8.24207 19.5903L5.6843 19.7098C4.89966 19.7465 4.2535 19.1003 4.29017 18.3157L4.40971 15.7579C4.42824 15.3614 4.26911 14.9772 3.9756 14.7099L2.08245 12.9858C1.5017 12.4569 1.5017 11.5431 2.08245 11.0142L3.9756 9.29011C4.26911 9.02281 4.42824 8.63862 4.40971 8.24207L4.29017 5.6843C4.2535 4.89966 4.89966 4.2535 5.6843 4.29017L8.24207 4.40971C8.63862 4.42824 9.02281 4.26911 9.29011 3.9756L11.0142 2.08245Z" stroke="#420A98" stroke-width="1.5"/>
<path d="M9 12L11 14L15 10" stroke="#420A98" stroke-width="1.5" stroke-linecap="round" stroke-linejoin="round"/>
</g>
<defs>
<clipPath id="clip0_5400_12288">
<rect width="24" height="24" fill="white"/>
</clipPath>
</defs>
</svg>
