<svg width="28" height="28" viewBox="0 0 28 28" fill="none" xmlns="http://www.w3.org/2000/svg">
<path d="M14.0682 27C21.2857 27 27.1364 21.4037 27.1364 14.5C27.1364 7.59625 21.2857 2 14.0682 2C6.85063 2 1 7.59625 1 14.5C1 21.4037 6.85063 27 14.0682 27Z" stroke="#420A98" stroke-width="1.5" stroke-linecap="round" stroke-linejoin="round"/>
<path d="M6 24V20.8333C6 17.6117 8.61167 15 11.8333 15H15.9166C19.1383 15 21.75 17.6117 21.75 20.8333V24" stroke="#420A98" stroke-width="1.5" stroke-linecap="round" stroke-linejoin="round"/>
<path d="M13.875 15C16.3603 15 18.375 12.9853 18.375 10.5C18.375 8.01471 16.3603 6 13.875 6C11.3897 6 9.375 8.01471 9.375 10.5C9.375 12.9853 11.3897 15 13.875 15Z" stroke="#420A98" stroke-width="1.5" stroke-linecap="round" stroke-linejoin="round"/>
</svg>
