<svg width="24" height="24" viewBox="0 0 24 24" fill="none" xmlns="http://www.w3.org/2000/svg">
<path d="M20 12V5.70711C20 5.5745 19.9473 5.44732 19.8536 5.35355L16.6464 2.14645C16.5527 2.05268 16.4255 2 16.2929 2H4.5C4.22386 2 4 2.22386 4 2.5V21.5C4 21.7761 4.22386 22 4.5 22H11" stroke="#420A98" stroke-width="1.5" stroke-linecap="round" stroke-linejoin="round"/>
<path d="M8 10H16M8 6H12M8 14H11" stroke="#420A98" stroke-width="1.5" stroke-linecap="round" stroke-linejoin="round"/>
<path d="M16.3056 17.1133L17.2147 15.1856C17.3314 14.9381 17.6686 14.9381 17.7853 15.1856L18.6944 17.1133L20.7275 17.4243C20.9884 17.4642 21.0923 17.7998 20.9035 17.9923L19.4326 19.4917L19.7797 21.61C19.8243 21.882 19.5515 22.0895 19.3181 21.961L17.5 20.9603L15.6819 21.961C15.4485 22.0895 15.1757 21.882 15.2203 21.61L15.5674 19.4917L14.0965 17.9923C13.9077 17.7998 14.0116 17.4642 14.2725 17.4243L16.3056 17.1133Z" stroke="#420A98" stroke-width="1.5" stroke-linecap="round" stroke-linejoin="round"/>
<path d="M16 2V5.5C16 5.77614 16.2239 6 16.5 6H20" stroke="#420A98" stroke-width="1.5" stroke-linecap="round" stroke-linejoin="round"/>
</svg>
