<svg width="340" height="129" viewBox="0 0 340 129" fill="none" xmlns="http://www.w3.org/2000/svg">
<path d="M241.336 77.9702L242.694 78L256.499 77.6026C257.436 77.5752 258.326 77.169 258.98 76.4701C259.634 75.7715 260 74.8354 260 73.8609V68.2474C260.001 67.7421 259.902 67.2419 259.712 66.7772C259.521 66.3124 259.242 65.8925 258.89 65.543C258.539 65.1935 258.123 64.9216 257.668 64.7436C257.213 64.5657 256.728 64.4855 256.242 64.5077L228.132 65.6086L221.955 66.2325C221.532 66.2665 221.109 66.1584 220.749 65.9241C220.389 65.6898 220.111 65.3417 219.955 64.931L217.339 59.4546C217.091 58.9357 216.684 58.5169 216.182 58.2637C215.68 58.0104 215.112 57.937 214.566 58.0547C214.02 58.1725 213.527 58.4749 213.164 58.9149C212.8 59.3546 212.588 59.907 212.558 60.4859L212 71.8003C212.014 72.2538 212.172 72.6899 212.448 73.041C212.725 73.3924 213.105 73.6391 213.53 73.7437L227.227 77.0224C228.491 77.3164 229.763 77.5668 231.052 77.7397L232.289 77.7655M260 72H264M264 65V78M193 55L212 69.5996L193 85M193 94.6662C193 95.4196 192.775 96.1553 192.356 96.7772C191.938 97.3991 191.344 97.8784 190.653 98.1521C162.951 109.114 142.142 99.9954 123.62 99.465C113.135 99.4057 102.749 101.531 93.1054 105.71C92.5452 105.948 91.9359 106.042 91.3314 105.983C90.727 105.924 90.1463 105.714 89.641 105.372C89.1357 105.03 88.7214 104.567 88.4351 104.023C88.1488 103.48 87.9994 102.872 88 102.256V46.6258C88.0007 45.9153 88.2005 45.2195 88.5759 44.6198C88.9514 44.0202 89.487 43.5413 90.1204 43.2392C100.596 38.2216 112.038 35.6299 123.62 35.6516C141.563 36.166 161.66 44.6614 188.09 35.2126C188.646 35.0138 189.241 34.9532 189.824 35.036C190.408 35.1186 190.963 35.3423 191.444 35.6879C191.925 36.0337 192.317 36.4914 192.588 37.0229C192.859 37.5542 193 38.1439 193 38.7422V94.6662ZM232.8 88.584C232.485 89.0067 232.084 89.3511 231.625 89.592C231.167 89.8332 230.663 89.9652 230.15 89.9785L229.379 89.9992C228.981 90.01 228.586 89.9134 228.234 89.7186C227.882 89.5241 227.584 89.2379 227.369 88.888C227.153 88.538 227.028 88.1358 227.004 87.7204C226.981 87.3049 227.06 86.8901 227.235 86.5161L232.761 74.6849C232.966 74.2458 233.283 73.8741 233.676 73.6095C234.069 73.3451 234.525 73.1982 234.992 73.1848L241.581 73.0003C241.843 72.9943 242.102 73.066 242.327 73.2071C242.551 73.348 242.733 73.5527 242.851 73.7972C242.969 74.0417 243.019 74.3161 242.994 74.5888C242.969 74.8612 242.87 75.1208 242.71 75.3376L232.8 88.584ZM248 65.3653C247.166 63.9922 245.878 62.8509 244.291 62.0782C242.704 61.3056 240.886 60.9345 239.055 61.0095C236.71 61.1056 234.456 61.8032 232.596 63.0088L228 66L248 65.3653ZM203.582 117.191C202.927 117.198 202.278 117.327 201.669 117.574C201.343 115.464 200.286 113.541 198.687 112.152C197.088 110.763 195.054 110 192.95 110C190.846 110 188.811 110.763 187.212 112.152C185.614 113.541 184.556 115.464 184.23 117.574C183.502 117.288 182.721 117.169 181.943 117.223C181.164 117.279 180.407 117.507 179.725 117.893C179.044 118.279 178.454 118.813 177.999 119.456C177.543 120.1 177.233 120.837 177.09 121.617C176.947 122.396 176.975 123.197 177.172 123.964C177.368 124.731 177.729 125.445 178.228 126.054C178.727 126.663 179.352 127.154 180.059 127.49C180.766 127.826 181.537 128 182.317 127.999H203.582C204.289 128.013 204.991 127.883 205.648 127.618C206.304 127.352 206.903 126.957 207.407 126.454C207.911 125.951 208.312 125.352 208.586 124.69C208.859 124.028 209 123.318 209 122.6C209 121.882 208.859 121.172 208.586 120.51C208.312 119.848 207.911 119.248 207.407 118.746C206.903 118.243 206.304 117.848 205.648 117.582C204.991 117.317 204.289 117.187 203.582 117.201V117.191ZM157.752 7.7925C157.117 7.79848 156.489 7.92115 155.9 8.15438C155.584 6.16083 154.559 4.34441 153.011 3.03263C151.462 1.72085 149.492 1 147.454 1C145.416 1 143.445 1.72085 141.897 3.03263C140.348 4.34441 139.324 6.16083 139.008 8.15438C138.303 7.88334 137.546 7.76934 136.791 7.82091C136.037 7.8723 135.303 8.08797 134.642 8.45238C133.981 8.81678 133.41 9.32105 132.968 9.92899C132.526 10.5371 132.226 11.2341 132.087 11.9705C131.949 12.7069 131.976 13.4643 132.166 14.1891C132.357 14.9139 132.707 15.5881 133.191 16.1639C133.675 16.7394 134.281 17.2024 134.966 17.5196C135.651 17.8368 136.399 18.0005 137.155 17.9991H157.752C158.437 18.0119 159.117 17.8894 159.753 17.6388C160.389 17.3882 160.968 17.0146 161.457 16.5398C161.946 16.0651 162.334 15.4986 162.599 14.8734C162.864 14.2485 163 13.5774 163 12.8994C163 12.2214 162.864 11.5504 162.599 10.9254C162.334 10.3003 161.946 9.73376 161.457 9.25899C160.968 8.78421 160.389 8.41058 159.753 8.15999C159.117 7.90939 158.437 7.78708 157.752 7.79974V7.7925ZM305.752 43.7925C305.117 43.7985 304.489 43.9212 303.9 44.1544C303.584 42.1608 302.559 40.3444 301.011 39.0326C299.462 37.7208 297.492 37 295.454 37C293.416 37 291.445 37.7208 289.897 39.0326C288.348 40.3444 287.324 42.1608 287.008 44.1544C286.303 43.8833 285.546 43.7693 284.791 43.8209C284.037 43.8723 283.303 44.088 282.642 44.4524C281.981 44.8168 281.41 45.321 280.968 45.929C280.526 46.5371 280.226 47.2341 280.087 47.9705C279.949 48.7069 279.976 49.4643 280.166 50.1891C280.357 50.9139 280.707 51.5881 281.191 52.1639C281.675 52.7394 282.281 53.2024 282.966 53.5196C283.651 53.8368 284.399 54.0005 285.155 53.9991H305.752C306.437 54.0119 307.117 53.8894 307.753 53.6388C308.389 53.3882 308.968 53.0146 309.457 52.5398C309.946 52.0651 310.334 51.4986 310.599 50.8734C310.864 50.2485 311 49.5774 311 48.8994C311 48.2214 310.864 47.5504 310.599 46.9254C310.334 46.3003 309.946 45.7338 309.457 45.259C308.968 44.7842 308.389 44.4106 307.753 44.16C307.117 43.9094 306.437 43.7871 305.752 43.7997V43.7925ZM69.7523 102.793C69.1174 102.798 68.4892 102.921 67.8996 103.154C67.5839 101.161 66.5594 99.3444 65.0109 98.0326C63.4622 96.7208 61.4915 96 59.4537 96C57.4159 96 55.4452 96.7208 53.8965 98.0326C52.348 99.3444 51.3235 101.161 51.0078 103.154C50.3027 102.883 49.5459 102.769 48.7913 102.821C48.0367 102.872 47.303 103.088 46.6421 103.452C45.9814 103.817 45.4097 104.321 44.9681 104.929C44.5265 105.537 44.2257 106.234 44.087 106.97C43.9485 107.707 43.9756 108.464 44.1663 109.189C44.3573 109.914 44.707 110.588 45.191 111.164C45.6748 111.739 46.2811 112.202 46.9662 112.52C47.6514 112.837 48.3987 113.001 49.1551 112.999H69.7523C70.4368 113.012 71.1168 112.889 71.753 112.639C72.389 112.388 72.9684 112.015 73.457 111.54C73.9456 111.065 74.3336 110.499 74.5986 109.873C74.8635 109.248 75 108.577 75 107.899C75 107.221 74.8635 106.55 74.5986 105.925C74.3336 105.3 73.9456 104.734 73.457 104.259C72.9684 103.784 72.389 103.411 71.753 103.16C71.1168 102.909 70.4368 102.787 69.7523 102.8V102.793ZM26.7523 43.7925C26.1174 43.7985 25.4892 43.9212 24.8996 44.1544C24.5839 42.1608 23.5594 40.3444 22.0109 39.0326C20.4622 37.7208 18.4915 37 16.4537 37C14.4159 37 12.4452 37.7208 10.8965 39.0326C9.34801 40.3444 8.32354 42.1608 8.00781 44.1544C7.30272 43.8833 6.54593 43.7693 5.79129 43.8209C5.03669 43.8723 4.30299 44.088 3.64209 44.4524C2.98139 44.8168 2.40969 45.321 1.96809 45.929C1.52649 46.5371 1.22569 47.2341 1.08699 47.9705C0.948492 48.7069 0.975592 49.4643 1.16629 50.1891C1.35729 50.9139 1.70699 51.5881 2.19099 52.1639C2.67479 52.7394 3.28109 53.2024 3.96619 53.5196C4.65139 53.8368 5.39869 54.0005 6.15511 53.9991H26.7523C27.4368 54.0119 28.1168 53.8894 28.753 53.6388C29.389 53.3882 29.9684 53.0146 30.457 52.5398C30.9456 52.0651 31.3336 51.4986 31.5986 50.8734C31.8635 50.2485 32 49.5774 32 48.8994C32 48.2214 31.8635 47.5504 31.5986 46.9254C31.3336 46.3003 30.9456 45.7338 30.457 45.259C29.9684 44.7842 29.389 44.4106 28.753 44.16C28.1168 43.9094 27.4368 43.7871 26.7523 43.7997V43.7925ZM333.752 96.7925C333.117 96.7985 332.489 96.9212 331.9 97.1544C331.584 95.1608 330.559 93.3444 329.011 92.0326C327.462 90.7208 325.492 90 323.454 90C321.416 90 319.445 90.7208 317.897 92.0326C316.348 93.3444 315.324 95.1608 315.008 97.1544C314.303 96.8833 313.546 96.7693 312.791 96.8209C312.037 96.8723 311.303 97.088 310.642 97.4524C309.981 97.8168 309.41 98.321 308.968 98.929C308.526 99.5371 308.226 100.234 308.087 100.97C307.949 101.707 307.976 102.464 308.166 103.189C308.357 103.914 308.707 104.588 309.191 105.164C309.675 105.739 310.281 106.202 310.966 106.52C311.651 106.837 312.399 107.001 313.155 106.999H333.752C334.437 107.012 335.117 106.889 335.753 106.639C336.389 106.388 336.968 106.015 337.457 105.54C337.946 105.065 338.334 104.499 338.599 103.873C338.864 103.248 339 102.577 339 101.899C339 101.221 338.864 100.55 338.599 99.9254C338.334 99.3003 337.946 98.7338 337.457 98.259C336.968 97.7842 336.389 97.4106 335.753 97.16C335.117 96.9094 334.437 96.7871 333.752 96.7997V96.7925ZM255 65.0665L256.521 65.0036C256.97 64.9816 257.419 65.0608 257.84 65.2364C258.26 65.412 258.645 65.6804 258.97 66.0252C259.295 66.3703 259.554 66.7848 259.731 67.2437C259.908 67.7028 259.999 68.1969 260 68.6961V74.2446C260 75.209 259.661 76.1351 259.056 76.8266C258.45 77.5179 257.626 77.9198 256.758 77.9469L255 78V65.0665ZM131.611 91C130.448 90.9985 129.332 90.5314 128.509 89.7012C127.687 88.871 127.224 87.7454 127.222 86.5714V75.1564L115.778 73.802V84.8069C115.778 85.9815 115.315 87.1079 114.492 87.9385C113.669 88.7689 112.553 89.2355 111.389 89.2355C110.225 89.2355 109.108 88.7689 108.285 87.9385C107.462 87.1079 107 85.9815 107 84.8069V51.4286C107 50.254 107.462 49.1276 108.285 48.2971C109.108 47.4667 110.225 47 111.389 47C112.553 47 113.669 47.4667 114.492 48.2971C115.315 49.1276 115.778 50.254 115.778 51.4286V64.9119L127.222 66.2662V53.2009C127.222 52.0263 127.685 50.8999 128.508 50.0693C129.331 49.2389 130.447 48.7722 131.611 48.7722C132.775 48.7722 133.891 49.2389 134.715 50.0693C135.538 50.8999 136 52.0263 136 53.2009V86.5714C135.999 87.7456 135.536 88.8714 134.713 89.7018C133.891 90.532 132.775 90.999 131.611 91ZM147.001 91C145.676 90.9994 144.405 90.5451 143.467 89.7367C142.529 88.9283 142.002 87.832 142.001 86.6885V64.4036C141.987 63.8297 142.106 63.2593 142.351 62.7254C142.596 62.1917 142.962 61.7056 143.428 61.2955C143.893 60.8853 144.449 60.5595 145.062 60.3371C145.676 60.1146 146.335 60 147 60C147.665 60 148.324 60.1146 148.938 60.3371C149.551 60.5595 150.107 60.8853 150.572 61.2955C151.038 61.7056 151.404 62.1917 151.649 62.7254C151.894 63.2593 152.013 63.8297 151.999 64.4036V86.6885C151.998 87.8316 151.471 88.9277 150.534 89.7361C149.597 90.5444 148.326 90.9991 147.001 91ZM147 56C150.314 56 153 53.7615 153 51C153 48.2387 150.314 46 147 46C143.686 46 141 48.2387 141 51C141 53.7615 143.686 56 147 56ZM170.993 92C170.004 91.9985 169.038 91.704 168.217 91.1538C167.396 90.6033 166.756 89.8219 166.379 88.9083C166.001 87.9944 165.903 86.9894 166.097 86.02C166.291 85.0506 166.768 84.1603 167.467 83.4619C168.167 82.7633 169.058 82.288 170.027 82.0955C170.997 81.9032 172.002 82.0026 172.915 82.3814C173.828 82.7599 174.609 83.4008 175.158 84.2229C175.707 85.045 176 86.0114 176 87C175.999 88.327 175.47 89.599 174.531 90.5366C173.592 91.474 172.32 92.0006 170.993 92ZM169.997 78C169.43 77.9992 168.88 77.8127 168.433 77.4699C167.986 77.1273 167.667 76.648 167.528 76.1075L165.206 67.1025C163.65 61.0735 163.181 59.2524 163.065 58.5649H163.034C162.938 57.6082 163.047 56.6424 163.353 55.7298C163.659 54.8169 164.156 53.9773 164.811 53.2647C165.467 52.5521 166.267 51.9826 167.16 51.5925C168.052 51.2024 169.018 51.0006 169.995 51C170.972 50.9992 171.938 51.1999 172.831 51.5886C173.725 51.9774 174.525 52.5459 175.182 53.2575C175.839 53.9691 176.337 54.808 176.644 55.7205C176.952 56.633 177.062 57.5986 176.967 58.5552H176.944C176.842 59.1674 176.437 60.7297 175.136 65.7835L172.473 76.1075C172.333 76.6491 172.014 77.1296 171.565 77.4724C171.117 77.8152 170.564 78.0008 169.997 78Z" stroke="#420A98" stroke-width="1.5" stroke-linecap="round" stroke-linejoin="round"/>
</svg>
