<?xml version="1.0" encoding="utf-8"?>
<!-- Generator: Adobe Illustrator 27.0.1, SVG Export Plug-In . SVG Version: 6.00 Build 0)  -->
<svg version="1.1" id="Layer_1" xmlns="http://www.w3.org/2000/svg" xmlns:xlink="http://www.w3.org/1999/xlink" x="0px" y="0px"
	 viewBox="0 0 340 129" style="enable-background:new 0 0 340 129;" xml:space="preserve">
<style type="text/css">
	.st0{fill:#E9D2B1;}
	.st1{fill:#FFD26A;}
	.st2{fill:#D8AF54;}
	.st3{fill:#EEC979;}
	.st4{opacity:0.43;fill:#D8AF54;enable-background:new    ;}
	.st5{fill:#BC953B;}
	.st6{fill:#B18762;}
	.st7{fill:#806041;}
	.st8{fill:#D2A880;}
	.st9{fill:#EECAB4;}
	.st10{fill:#CDA68F;}
	.st11{fill:#292F73;}
	.st12{fill:#1D273D;}
	.st13{fill:#475196;}
	.st14{fill:#CCDCEE;}
	.st15{opacity:0.42;fill:#C8DDF0;enable-background:new    ;}
	.st16{fill:#8AA0BC;}
	.st17{fill:#E7F1FC;}
	.st18{fill:#D9D9D9;}
	.st19{fill:#B6B6B6;}
	.st20{fill:#FFFFFF;}
</style>
<path class="st0" d="M232.7,22.2c5.7,9.4,14.8,27.2-7.6,38.2c-17.5,8.7,10.5,27.2,4.1,39.9c-4.8,9.4-39.7,26.6-65.4,27
	c-21.4,0.3-45.9-2.2-48-34.6c-1.2-19.1-7.9-20.2-9.9-25.8c-2-5.6-2.1-11.8-0.3-22.9c4.1-24.6,29.3-8.6,33.3-13.6
	c4-5.1,0.1-15.3,6.5-19.9c6.4-4.6,23.8-2.9,35.3-1.2c11.4,1.7,24.7-3.4,34-2.2C224.1,8.3,229.5,16.8,232.7,22.2L232.7,22.2z"/>
<path class="st1" d="M193.5,8.1c0,0,1-4.1,2.1-3.9c1.1,0.2,0.9,3.6,0.9,3.6s3.2-0.9,3.5,0.2c0.3,1.1-2.7,2.9-2.7,2.9
	s0.9,2.6,0.1,2.9c-0.8,0.3-2.3-0.9-2.3-0.9s-3.6,3.1-4.1,2.3c-0.4-0.7,0.8-4.5,0.8-4.5s-2.9-1.7-1.7-2.2
	C191.5,8.2,193.5,8.1,193.5,8.1L193.5,8.1z"/>
<path class="st1" d="M107,53.5c0,0,1.9-0.9,2.3,0c0.4,0.9-0.9,3-0.9,3s2,2.8,1.2,3c-0.8,0.2-2.8-0.4-2.8-0.4s-2.1,3.1-2.8,2.6
	c-0.7-0.6-0.3-3.2-0.3-3.2s-3.7-0.8-3-1.6c0.7-0.8,2.7-1.8,2.7-1.8s0.1-4.9,0.9-5C105,49.8,107,53.5,107,53.5L107,53.5z"/>
<path class="st1" d="M120.9,111.5c0.2,0,1.7-0.8,2.1,0.4c0.4,1.2-1,2.3-1,2.3s1.4,2.9,0.9,3.5c-0.5,0.5-3.4-1-3.4-1
	s-1.3,2.2-2.3,1.6c-0.9-0.5-0.4-2.7-0.4-2.7s-2.9-0.9-1.9-2c1-1.1,2.3-0.9,2.7-1.3c0.4-0.3,0.6-3.6,1.8-3.2
	C120.5,109.7,120.9,111.5,120.9,111.5L120.9,111.5z"/>
<path class="st1" d="M224.2,103.5c0,0-1.7,4.4-0.7,4.3c1,0,3.7-2.7,3.7-2.7s2.5,2.1,3,1.4c0.5-0.7-0.4-4.4-0.4-4.4s3.3-2.7,2.3-3.2
	c-0.9-0.5-2.7,0-2.7,0s-0.6-4.5-1.6-4.3c-1,0.1-2.1,4.7-2.1,4.7s-5.3,0.7-5.2,1.9C220.6,102.4,224.2,103.5,224.2,103.5L224.2,103.5z
	"/>
<path class="st1" d="M226.6,58.1c0,0,2.3,0.5,2.3,1.1c0,0.5-1.9,1.7-1.9,1.7s0.8,2.2,0.2,2.3c-0.6,0-1.9-0.9-1.9-0.9
	s-1.5,1.1-1.8,0.9c-0.3-0.2,0.2-2,0.2-2s-2.7-1.2-2.2-1.8c0.5-0.6,2.7-0.6,2.7-0.6s0.4-3.2,1.3-3.2
	C226.2,55.4,226.6,58.1,226.6,58.1L226.6,58.1z"/>
<path class="st1" d="M194.7,67.2c0.2,0,2.1-0.5,2.2,0.2c0.2,0.7-1.5,1.8-1.5,1.8s1.4,2.7,0.4,2.8c-1,0.1-2.5-0.8-2.5-0.8
	s-2,1.7-2.4,1.1s0.3-2.4,0.3-2.4s-2.1-0.9-1.6-1.6c0.4-0.7,2.9-1,2.9-1s0.1-2.2,1.1-2.2C194.6,65.3,194.7,67.2,194.7,67.2
	L194.7,67.2z"/>
<path class="st1" d="M157.4,47.6c0.2,0.4,1.1,1.6,0.5,1.9c-0.6,0.3-1.5-0.2-1.5-0.2s-1.6,1.9-2.2,1.5c-0.6-0.4,0-2.2,0-2.2
	s-1.7-0.7-1.2-1.4c0.5-0.6,1.5-0.7,1.5-0.7s-0.1-2.3,0.8-2.3c0.9,0,1.1,1.7,1.1,1.7s1.5-0.7,2-0.2C158.8,46.3,157.4,47.6,157.4,47.6
	L157.4,47.6z"/>
<path class="st2" d="M195.5,118.8l8,0.9l1.2-1.4c0,0-1.9,0-3.6-3c-1.4-2.4-1.6-3.9-1.6-3.9c-0.3-1.7,0.7-4.7,0.7-5.1
	c-0.1-0.4-0.8-0.4-0.8-0.4l-19.2-2l0.5-1.3c6.2,0.6,10.9,1,11.4,1.1c3.8,0.3,9.5,1.5,10.2-0.5c0.5-1.4-0.9-2.8-2.2-3.4
	c-1-0.5-1.5-1-1.8-1.5c-3-10.9-10.1-18-22.8-20.2l0.1-0.9c7.2,0.5,13.1-1.1,13.3-3.6c0.2-2.6-5.7-5.2-13.1-5.8
	c-7.5-0.6-13.7,1-13.9,3.6c-0.2,2.3,4.3,4.6,10.5,5.5l-0.1,0.9c-11.2-0.6-23.2,7-26.5,17c-0.3,0.9-0.4,1.7-0.4,2.5v0.4l1.3,1.7
	c0,0,6.7,0.6,14.9,1.4l-0.1,1.2l-16-1.7c0,0-0.4,0.1-1.7,0c-1.3-0.1-1,2.6-1,3.3c-0.1,0.6-0.3,3.7-2.7,6.1c-2.4,2.4-4.1,2.2-4.1,2.2
	l0.9,1.6l61.1,5.5"/>
<path class="st3" d="M197.7,96.1c-1.3-3.7-3.1-7-5.5-9.7c0,0-11.5-3.2-19.8-0.8c-8.3,2.4-6.3,6.9-3.2,8.2c3.1,1.4,8.2,3.1,16.7,3
	C194.4,96.9,197.7,96.1,197.7,96.1z"/>
<path class="st4" d="M180.7,102.6c6.2,0.6,10.9,1,11.4,1.1c3.8,0.3,9.5,1.5,10.2-0.5c0.1-0.3,0.1-0.7,0-1"/>
<path class="st5" d="M151.1,102.7c0,0,47.8,4.1,47.6,5.3c-0.2,0.7-47.9-4.1-47.9-4.1s-5.8-4.1-3.4,1.2c0.2,0.5,2.6,6.3,2.6,6.3
	l51.6,4.5c0,0,0.5,0.7,0.7,0.9c0.2,0.2,1,0.8,1,0.8s-14.6-0.5-25.4-1.6c-4.6-0.5-5.5-0.6-10.2-1c-11.9-1.1-24.1-2.8-24.6-2.1
	c-0.8,1.1,1.9,1.4,1.9,1.4l-8-0.7l-0.9-1.6c0,0,1.7,0.2,4.1-2.2c2.4-2.4,2.7-5.5,2.7-6.1c0.1-0.6-0.3-3.3,1-3.3c1,0,1.7,0,1.7,0
	l10.3,1.1C155.7,101.4,150,101.4,151.1,102.7L151.1,102.7z"/>
<path class="st5" d="M180.2,103.9l0.5-1.3l-19.1-1.8l-0.1,1.2L180.2,103.9z"/>
<path class="st5" d="M172.4,77.7c-11.2-0.6-23.2,7-26.5,17c-0.3,0.9-0.4,1.7-0.4,2.5c0,0,0,1.1,0.2,1.5c0.4,0.7,1,0.6,1,0.6
	s3.6,0.3,8.8,0.8c0,0-5.5-0.5-3.7-1.9c1.2-0.9,31.1,2.5,40.4,3.4c0.9,0.1,6,0.5,7.2-0.3c1.2-0.9,0.6-1.6,0.6-1.6
	c-1-0.5-1.5-1-1.8-1.5l0.1,1.3c0,0-0.5,0.8-1.7,0.9c-2.9,0.3-6.6-0.1-6.6-0.1l-5.1-0.7c0,0-23.8-2.4-26.6-6.3
	c-3.3-4.5-0.1-8,10.8-10.8c10.9-2.8,21.1,2,21.1,2c-3.7-3.3-8.6-5.6-14.7-6.6"/>
<path class="st5" d="M175.6,78.3l0.1-1.5l-3.2-0.1l-0.1,1.1L175.6,78.3z"/>
<path class="st5" d="M181.7,68.7c-1.8-0.5-3.8-0.8-5.9-1c-7.5-0.6-13.7,1-13.9,3.6c-0.2,1.8,2.7,3.7,7,4.8c0,0-1.4-0.7-0.3-1.1
	c1.1-0.4,8,0.5,9.3,0.5c1.3,0,4.6-0.1,6.5-1.8c0,0,0,0,0,0c0.2-0.2,0-0.5-0.3-0.3c-0.8,0.5-2,1-3.7,1.2c-2.4,0.3-4.6-0.1-5.5-0.4
	c-1-0.2-2.1-0.9-0.3-1.4c1.8-0.5,5.4-1.3,6.3-2.4C181.9,69.2,181.7,68.7,181.7,68.7L181.7,68.7z"/>
<path class="st3" d="M175.6,77.1c7.2,0.5,13.1-1.1,13.3-3.6c0.1-1.3-1.3-2.6-3.7-3.6c0,0,3,2.6,1.1,4.1c-1.9,1.5-5.4,2.8-11.4,2.6
	c-6-0.2-4.7-0.2-4.7-0.2c0.7,0.2,1.8,0.4,2.5,0.5C173.6,77,175.6,77.1,175.6,77.1L175.6,77.1z"/>
<path class="st3" d="M180.3,72c-1.1,0.3-3.4,0.8-2.8,1.6c0.6,0.8,3.4,0,4-0.3c0.6-0.3,2.1-0.8,1.5-1.8C182.4,70.4,181,71.8,180.3,72
	z"/>
<path class="st3" d="M175.9,73.4c-0.1-0.4-0.5-0.7-1.2-0.6c-0.7,0.1-1.1,0.3-1.2,0.7c0,0.3,0.7,0.7,1.7,0.5
	C176.1,73.9,175.9,73.4,175.9,73.4z"/>
<path class="st3" d="M198.8,115.2l-49.3-4.4c-0.3,0-0.5,0.2-0.5,0.4c0,0.3,0.2,0.5,0.4,0.5l49.3,4.4c0.3,0,0.5-0.2,0.5-0.4
	C199.3,115.4,199.1,115.2,198.8,115.2z"/>
<path class="st3" d="M199.8,105.6l-44.7-4.5c-0.3,0-0.5,0.2-0.5,0.4c0,0.3,0.2,0.5,0.4,0.5l44.7,4.5c0.3,0,0.5-0.2,0.5-0.4
	C200.3,105.9,200.1,105.7,199.8,105.6z"/>
<path class="st3" d="M199.5,109.6c-1,0.3-43.8-3.6-43.8-3.6c-5.4-0.4-5.5,3-0.2,3.6l45.4,5.3c0,0-1.3-2.7-1.4-3.6
	C199.4,110.4,199.5,109.6,199.5,109.6L199.5,109.6z"/>
<path class="st3" d="M161.9,92.5c0,0.7,0.2,1.3,1.2,1.5c1.2,0.3,1.9-0.8,1.9-1.2c0-0.5-0.2-1.4-1.2-1.5
	C162.8,91.2,161.9,91.8,161.9,92.5L161.9,92.5z"/>
<path class="st3" d="M163.1,86.6c-0.8,1.3-0.4,2.4,0.4,3.4c0.9,1.1,1.2-1.5,1.7-2.3c0.5-0.9,2.6-1.6,1.7-2.4
	C166,84.5,163.9,85.2,163.1,86.6z"/>
<path class="st6" d="M165.9,7.8c2.4-1.3,5.2-5.6,12.4-2.3c6.9,3.2,7.1,5.9,7.1,7s-1.1,3.7-2.3,5.2c-1.1,1.4-3.7,4-3.7,4l-12.9-4.5
	c0,0-4.5,0.2-7.3-3.1c-2.8-3.3-0.9-5.9-0.5-6.3c0.4-0.3,2.1-1.6,4.7-0.9C164,7.2,165.9,7.8,165.9,7.8L165.9,7.8z"/>
<path class="st7" d="M185.3,11.7c0.1,0.3,0.1,0.6,0.1,0.8c0,1.2-1.1,3.7-2.3,5.2c-1.1,1.4-3.7,4-3.7,4l-2.5-3.2l0.1-5.2
	c0,0,2.3,3.4,5.1,2C185.5,13.6,185.3,11.7,185.3,11.7L185.3,11.7z"/>
<path class="st8" d="M176.1,4.7c0.7,0.2,1.4,0.5,2.1,0.8c3.3,1.5,5.1,2.9,6,4.1c0,0-1-0.4-2-0.5c-1.8-0.1-2.6,1.3-2.6,1.3
	s0.2-1.8-1.2-3.8C177.6,5.5,176.1,4.7,176.1,4.7L176.1,4.7z"/>
<path class="st7" d="M168.3,8.5c0,0,2,0.1,2.2,0c0.2-0.1,0.6-0.4,0.6-0.9c0-0.5-0.5-0.8-1.3-1c-0.8-0.2-1.7-0.5-1.7-0.5
	c-0.9,0.6-1.6,1.3-2.3,1.7"/>
<path class="st8" d="M165.9,7.8c0,0-1.9-0.6-2.5-0.8c-2.6-0.7-4.3,0.6-4.7,0.9c0,0,1.6-1,3.8,0.2c2.2,1.1,2.6,1.6,4.4,1.7
	c1.8,0,4.1-0.5,4.8-1c0.8-0.6,0.6-1,0-0.7c-0.6,0.3-2.2,0.4-4,0.2C166.4,8,165.9,7.8,165.9,7.8L165.9,7.8z"/>
<path class="st7" d="M175.5,13.6l-3.4,4.5l-5.7-0.9c0,0-4.5,0.2-7.3-3.1c-1.7-2-1.7-3.8-1.3-4.9c0,0,0.2,5.3,6.8,6
	C171.2,16.1,175.5,13.6,175.5,13.6L175.5,13.6z"/>
<path class="st9" d="M179.5,18.1c-0.7-0.3-1.1,0-1.1,0s0.4-0.9,0.2-1.2c-0.2-0.3-0.8-0.5-1.3-1.9c-0.4-1.4-0.3-2.5-0.3-2.5
	s-3.4,2.8-6.3,3.8c-2.9,1-4.3,1-4.3,1c0,0.2,0.1,0.5,0.2,0.8c0.1,0.6,0.3,0.8,0.3,0.8s-1.7-0.3-1.3,1.9s1.4,2.9,2,2.9
	c0.6,0,1.4-0.5,1.4-0.5s0.6,1,1.6,1.7l0.4,3.8l4.8-0.3l-0.2-4.1c0.9-1,1.3-2.1,1.3-2.1s0.5,0.9,1.5,0.8c0.7-0.1,1.8-0.9,2-2.7
	C180.5,18.5,179.6,18.1,179.5,18.1L179.5,18.1z"/>
<path class="st9" d="M206.5,13.4c0,0,0.5-1.7,0.1-3.6c-0.3-1.9-0.9-4-1-4.2c-0.1-0.2-0.1-1.4,1-0.7c1.1,0.7,1.4,2,1.5,2.4
	c0.2,0.9,0.3,0.8,0.6,1.2c0,0,1.7-3.6,1.9-4c0.2-0.4,1.5-2.8,2-2.5c0.5,0.3,0.1,1.4,0.1,1.4s1.2-2,1.8-1.6c0.6,0.4-2.8,7.3-2.8,7.3
	l2.5-2.5c0,0,2.1-2.7,2.6-2.5c1,0.4-3.5,6.1-3.5,6.1s-0.1,0.4,1.2-0.8c1.2-1.3,2.1-1.7,2.5-1.5c0.5,0.3-2.9,3.4-3.3,4.1
	c-0.4,0.7-1.8,2.2-2.4,2.6c-0.6,0.3-4.7-1-4.7-1L206.5,13.4L206.5,13.4z"/>
<path class="st9" d="M137.8,19.6c0,0-0.5-1.7-0.3-3.6c0.3-1.9,0.8-4,0.8-4.2c0.1-0.2,0-1.4-1-0.7c-1,0.7-1.3,2.1-1.4,2.5
	c-0.2,0.9-0.3,0.8-0.6,1.2c0,0-1.8-3.5-2.1-3.9c-0.3-0.4-1.6-2.7-2.1-2.4c-0.5,0.3,0,1.4,0,1.4s-1.3-1.9-1.9-1.5
	c-0.6,0.4,3.1,7.2,3.1,7.2l-2.6-2.4c0,0-1.9-3-2.7-2.4c-0.9,0.6,3.7,5.9,3.7,5.9s0.4,0.5-1.3-0.3c-2-0.9-2.6-0.8-2.8-0.4
	c-0.3,0.5,1.5,1,2.9,2.1c0.1,0,1.5,1.3,1.5,1.3c0.5,0.7,1.2,1.1,1.9,1.4c0.6,0.3,4.7-1.2,4.7-1.2L137.8,19.6L137.8,19.6z"/>
<path class="st10" d="M170.7,26.4l-0.1-1.4c0,0,1,1,2.3,0.9c1.3-0.1,2.6-1.5,2.6-1.5l0.1,1.4c0,0-1.2,1.6-2.5,1.6
	C171.5,27.3,170.7,26.4,170.7,26.4L170.7,26.4z"/>
<path class="st10" d="M134.6,20.6c-0.7,0.2-1.4,0.3-1.6,0.2c-0.6-0.3-1.4-0.7-1.9-1.4c0,0-1.5-1.3-1.5-1.3c-1.4-1.1-3.1-1.6-2.9-2.1
	c0.2-0.4,0.8-0.5,2.8,0.4c1.6,0.7,1.3,0.3,1.3,0.3s-4.6-5.4-3.7-5.9c0.9-0.5,2.7,2.4,2.7,2.4l2.6,2.4c0,0-3.7-6.8-3.1-7.2
	c0.6-0.4,1.9,1.5,1.9,1.5s-0.5-1.1,0-1.4c0.5-0.3,1.9,2,2.1,2.4c0.3,0.4,2.1,3.9,2.1,3.9s-0.3,0.8-0.6,1.3c-0.3,0.5-0.8,0.8-0.9,1.6
	c0,0.8,0.1,1.5,0.4,2C134.7,20,134.6,20.5,134.6,20.6L134.6,20.6L134.6,20.6z"/>
<path class="st10" d="M209.9,14.3c0.7,0.2,1.3,0.2,1.5,0.1c0.6-0.3,2-1.8,2.4-2.6c0.4-0.7,3.8-3.8,3.3-4.1c-0.4-0.2-1.2,0.2-2.5,1.5
	c-1.2,1.3-1.2,0.8-1.2,0.8s4.5-5.7,3.5-6.1c-0.5-0.2-2.6,2.5-2.6,2.5l-2.5,2.5c0,0,3.5-6.9,2.8-7.3c-0.6-0.4-1.8,1.6-1.8,1.6
	s0.4-1.1-0.1-1.4c-0.5-0.3-1.8,2.1-2,2.5c-0.2,0.4-1.9,4-1.9,4s1,0.8,1.4,2c0.5,1.2,0.3,2.6,0.2,2.9
	C210.3,13.7,209.9,14.3,209.9,14.3L209.9,14.3z"/>
<path class="st11" d="M141,97.2c1.7-2.5,6.4-8.3,6.4-8.3l0.8,1.1c0,0,0.9-1.3,1.2-1.7c0.3-0.4,1.3-1.5,1.3-1.5l-0.5-1
	c0,0,5.9-7,11.3-9.5c4.4-2.1,11.4-4.3,14.1-5.4c2.7-1.1,4.8-2,6.2-3.8c1.4-1.8,1.2-3.9,1.2-3.9s-5.4-4.6-14.5-7c-0.1,0-5.4,0-5.4,0
	s-9.1-0.3-14,3.5c-4.8,3.8-8,8.3-8.2,15.3c-0.1,5.6,2.9,9.6,2.9,9.6l-1.9,3.7c-0.5,0.8-2.7,5.2-4.3,8.2 M156.1,69.3
	c-4.9,4-8.7,9.4-8.7,9.4s-3.4-6.6,4.4-12.6c4.6-3.5,10.5-3.5,14.1-2.9C166,63.3,161,65.3,156.1,69.3L156.1,69.3z"/>
<path class="st12" d="M138.8,98.7c0.2,0,1.2-0.3,1.2-0.3l0.9-1.2c1.3-1.8,2-2.8,2.9-3.9c0,0-2.4,2.3-3.3,2.7
	c-0.7,0.3-2.9,0.3-2.9,0.3S138.7,98.7,138.8,98.7L138.8,98.7z"/>
<path class="st12" d="M147.3,88.9l0.8,1.1c0,0,0.9-1.3,1.2-1.7c0.3-0.4,1.3-1.5,1.3-1.5l-0.5-1L147.3,88.9L147.3,88.9z"/>
<path class="st12" d="M174.8,66.6c-1.7,1.4-3.9,2.1-11.5,5.5c-7.6,3.4-13.1,13.6-13.1,13.6s5.9-7,11.3-9.5
	c4.4-2.1,11.4-4.3,14.1-5.4c2.7-1.1,4.8-2,6.2-3.8c1.4-1.8,1.2-3.9,1.2-3.9s-1.4-1.2-4.1-2.7C178.9,60.4,176.5,65.2,174.8,66.6
	L174.8,66.6z"/>
<path class="st12" d="M166,63.3l1.1-0.5c-0.1-0.5,0.2-1.3-3.3-1.6c-5.8-0.4-10.7,1-14,3.8c-3.5,3-5,6.5-5.4,11.9
	c-0.2,2.4-2.2,4.5-2.2,4.5c0.8,1.9,1.6,3,1.6,3l3.7-5.8c0,0-3.4-6.6,4.4-12.6C156.4,62.7,162.4,62.7,166,63.3"/>
<path class="st13" d="M143.8,84.5l-1.9,3.7l-4.4,8.4c0,0,0,0.3,0.7,0c0.7-0.3,4.7-6.8,5-7.3c0,0,5.9-9.3,9.4-13.2
	c3.5-3.9,8.5-8.4,11.7-10.2s4.6-2.6,4.8-2.8c0.2-0.2,0.7-0.7-0.4-0.6c-1.1,0.1-5.3,1.8-8,3.5c-2.7,1.7-5.9,4.1-10.1,8.9
	C146.2,79.8,143.8,84.5,143.8,84.5 M171.1,56.9c-0.8-0.3-1.7-0.5-2.7-0.8c-0.1,0-5.4,0-5.4,0s-9.1-0.3-14,3.5
	c-4.8,3.8-8,8.3-8.2,15.3c0,0.9,0,1.7,0.1,2.5c0,0,1.1-0.8,1.7-5.6c0.3-2.2,2.7-7.1,6.3-9.9c3.5-2.8,9.2-3.5,12.9-3.5
	c3.7,0.1,4.1,0.6,7.2,0c3.1-0.6,3.2-1.1,3.2-1.1L171.1,56.9L171.1,56.9z"/>
<path class="st14" d="M145.6,35.5l-0.3,0.3c1.8,0.9,3.7,1.4,5.4,1.9c3.7,1,8.3,1.5,10.8,3c2.7,1.6,2.9,5.4,3,7.6
	c0.1,2.2-1.9,7.1-2.1,7.5c-0.3,0.5,0,0.6,0,0.6s3,0.4,3.8,0.6c0.8,0.1,7,1.7,12.3,4c5.1,2.1,4.3,2.4,4.2,3.5c0,0,1.1,0.3,2-1.9
	c1.7-4,0.1-6.6-1.3-10.6c-1.4-4-0.7-7.3,2.5-10.7c3.2-3.4,7.6-4.2,14.7-9.4c3.8-2.8,7-7.9,8.3-11c1.4-3.2,0.6-3.4,0.6-3.4
	s1.1,0,1.8-1c0.7-1.1,0.3-1.9-0.2-2.2c-1-0.7-3.7-1.1-4.8-1.1c-0.6,0-1.1,0.1-1.6,0.9c-0.5,0.7,0,1.5,0,1.5s-0.8-0.1-1.3,1.1
	c-0.2,0.5-0.7,1.7-2.5,3.7c-1.8,1.9-5,4.1-7.7,5.2c-2.7,1.1-9.1,2.1-11,2.6c-2,0.5-4.8,2.3-4.8,2.3s0.8-2-0.9-2.8
	c-1.7-0.8-4.7-0.9-7.6-0.1c-2.9,0.8-1.3,2.6-1.3,2.6c-2.1-1-7.2-0.9-8.7-1c-1.5,0-5.1,0.3-10.8-0.4c-4.7-0.6-7.9-5.4-9-7.1
	c-0.2-0.4-0.7-0.5-0.7-0.5s0.8-2.7-0.7-3.1c-1.4-0.3-2.3,0.8-3.4,1.8c-1.2,1.1-2.1,1.5-1.9,2.7c0.2,1.2,2.1,1.3,2.1,1.3
	s-0.3,0.4,0,0.9c0.5,1,2,2.9,4.1,5.9"/>
<path class="st15" d="M163.6,43.2c0.7,1.7,0.9,3.7,0.9,5.1c0.1,2.2-1.9,7.1-2.1,7.5c-0.3,0.5,0,0.6,0,0.6s3,0.4,3.8,0.6
	c0.4,0.1,2.1,0.5,4.3,1.1c0,0-3.2-3.1-3.6-5.3c-0.4-2.3,0-8.6-1.7-11.7c-1.2-2.1-1.8-2.9-2.4-2.6c-0.7,0.3-0.3,1.3,0.2,2.6
	C163.3,42.3,163.6,43.2,163.6,43.2L163.6,43.2z"/>
<path class="st16" d="M145.3,35.8c1.8,0.9,3.7,1.4,5.4,1.9c3.7,1,8.3,1.5,10.8,3c1,0.6,1.7,1.5,2.1,2.5c0,0,0.2-4.2-2.9-6.5
	c-3.1-2.3-10.8-4.1-11.8-4.4c-0.8-0.3-3.6-1.1-5.8-2.5c-2.2-1.4-3.9-3-3.9-3s-1.7-1.6-2.6-2.9c-0.8-1.3,0.4-2.2,0.4-2.2
	s-0.7,0-1.6-0.3c-0.9-0.3-0.6-1.8-0.6-1.8c-1.2,1.1-2.1,1.5-1.9,2.7c0.2,1.2,2.1,1.3,2.1,1.3s-0.3,0.4,0,0.9c0.5,1,1.8,3.1,4.1,5.9
	C140.3,32,143,34.5,145.3,35.8L145.3,35.8z"/>
<path class="st17" d="M138.8,20.9c0,0,0.8-2.7-0.7-3.1c-0.9-0.2-1.6,0.2-2.3,0.8c0,0-0.6,2.6,1.6,2.6
	C138.2,21.2,138.8,20.9,138.8,20.9L138.8,20.9z"/>
<path class="st17" d="M163.6,29c-1.8-0.1-3.5-0.1-4.3-0.1c-1.5,0-5.1,0.3-10.8-0.4c-3.2-0.4-5.7-2.8-7.3-4.8c0,0,0.7,4.6,7.9,6.5
	s11.8,1.5,12.4,1.3C164.8,30.3,163.6,29,163.6,29L163.6,29z"/>
<path class="st16" d="M168,29.8c-0.8-0.4-1.9-0.6-3.1-0.7c0,0-0.6,2.2,3.3,2.9c2.8,0.5,4.4-0.4,4.4-0.4s-1.5,0.1-2.6-0.3
	C168.5,30.8,168,29.8,168,29.8L168,29.8z"/>
<path class="st17" d="M177.7,30.2c0,0,0.8-2-0.9-2.8c-1.4-0.6-3.5-0.9-5.7-0.5c0,0,1.8,0.3,2.2,1.2c0.5,0.8-2.6,0.7-2.9,0.7
	c-0.3,0-1.5,0.9-0.6,1.8c1,0.9,2.4,1,2.7,1c0.3,0,2.8-0.1,3.5-0.3C177.3,30.9,177.7,30.2,177.7,30.2L177.7,30.2z"/>
<path class="st17" d="M203.8,16.5c-0.2,0.5-0.7,1.7-2.5,3.7c-1.8,1.9-5,4.1-7.7,5.2c-2.7,1.1-9.1,2.1-11,2.6
	c-1.3,0.3-2.9,1.2-3.9,1.7c0,0-1.3,1.9,1.5,1.4c1.1-0.2,1.4-1.1,4.2-1.1c2.1,0,6.3-0.6,7.5-1.1c1.3-0.5,7.7-4.2,9.5-7.1
	C203.1,19,203.7,16.5,203.8,16.5L203.8,16.5z"/>
<path class="st16" d="M178.6,60.9c5.1,2.1,4.3,2.4,4.2,3.5c0,0,1.1,0.3,2-1.9c1.7-4,0.1-6.6-1.3-10.6c-1.4-4-0.7-7.3,2.5-10.7
	c3.2-3.4,7.6-4.2,14.7-9.4c3.8-2.8,7-7.9,8.3-11c1.4-3.2,0.6-3.4,0.6-3.4c-0.3,0-0.6-0.2-0.6-0.2s-5.2,9.6-12.9,13.8
	c-7.7,4.2-16.6,5.6-18.4,13.4c-1.3,5.6,1.7,8.3,1.6,12.1C179.3,60.1,178.6,60.9,178.6,60.9L178.6,60.9z"/>
<path class="st18" d="M137.7,101.7c0,0-4.8-3.3-5.3-3.8c-0.5-0.5-3.2-2.9-3.2-2.9s0.2-1.2,1.5-1.3s1.9,0.1,2.6,0.5
	c0.7,0.5,1.9,1.2,2.4,1.3c0.5,0.1,1.2,0.3,1.4,0.3c0.3,0,0.5-0.1,0.6-0.1c0.1,0,0.1,0.3,0.1,0.3s-0.2,1,0.6,1.8
	c0.8,0.7,1.9,0.3,1.9,0.3s0.2,0.2,0.1,0.4c-0.1,0.1-1,0.8-1.4,1.3C138.7,100.3,138.3,101.4,137.7,101.7L137.7,101.7z"/>
<path class="st19" d="M129.5,94.5c-0.2,0.3-0.3,0.6-0.3,0.6s2.7,2.4,3.2,2.9c0.5,0.5,5.3,3.8,5.3,3.8c0.5-0.3,1-1.4,1.4-2
	c0.4-0.5,1.3-1.2,1.4-1.3c0.1-0.1-0.1-0.4-0.1-0.4s-0.7,0.3-1.4,0c0,0-0.7,1.1-1.9,0.8c-1.2-0.3-4.4-2.3-5-2.6
	C131.4,95.9,129.5,94.5,129.5,94.5L129.5,94.5z"/>
<path class="st20" d="M129.7,94.2c0.2-0.2,0.6-0.5,1.1-0.5c1.3-0.1,1.9,0.1,2.6,0.5c0.7,0.5,1.9,1.2,2.4,1.3
	c0.5,0.1,1.2,0.3,1.4,0.3c0.3,0,0.5-0.1,0.6-0.1c0.1,0,0.1,0.3,0.1,0.3s-0.7,0.6-2,0.3c-1.3-0.3-3-1.3-3.9-1.5s-1.2,0-1.8-0.2
	C129.8,94.5,129.7,94.2,129.7,94.2L129.7,94.2z"/>
</svg>
