<svg width="272" height="156" viewBox="0 0 272 156" fill="none" xmlns="http://www.w3.org/2000/svg">
<g clip-path="url(#clip0_1257_14553)">
<path d="M228.48 29.4021C258.049 42.4773 270.84 58.8488 271.866 69.5441C272.946 80.7918 268.124 111.457 233.759 110.664C206.36 110.029 201.078 98.9113 185.962 99.4131C162.037 100.207 151 122 141.5 131.5C132 141 104 151 101 152C98 153 66.4481 157.305 54.5 147C42.5519 136.695 30.6922 145.69 25.4699 143.016C20.2495 140.343 3.73375 135.931 0.77126 120.603C-1.70404 107.792 2.09042 103.104 7.71559 91.9964C11.793 83.945 13.7568 81.6494 13.6987 73.6897C13.6406 65.73 12.2052 54.0891 30.2294 38.0891C43.8614 25.9876 55.7199 27.6044 70.61 28.5042C85.5 29.404 119.93 31.92 128.9 22.9599C137.87 13.9998 149.661 17.1275 157.081 20.0437C164.5 22.9599 173.5 34.9999 189 34.4999C204.5 33.9999 211.425 21.8637 228.48 29.404V29.4021Z" fill="#E9D2B1"/>
<path d="M89.4762 101.723C89.454 101.789 76.7733 108.881 76.3691 109.128C75.9649 109.375 73.0923 110.924 72.7104 111.372C72.3285 111.821 72.3965 112.561 72.8897 112.607C73.3829 112.653 73.6523 112.472 75.5385 111.418C77.4247 110.364 83.6186 106.818 84.7631 106.211C85.9077 105.606 89.3192 103.432 89.3192 103.432L89.4762 101.835" fill="#947EC6"/>
<path d="M93.0448 114.671C93.0448 114.671 62.4092 133.028 61.8258 133.386C61.2423 133.746 56.0571 136.91 55.8111 137.156C55.5639 137.403 55.3402 137.761 55.6096 138.322C55.8791 138.884 56.7097 138.614 57.4278 138.188C58.146 137.761 71.6795 129.682 72.6671 129.055C73.6547 128.427 93.989 116.196 93.989 116.196L93.0459 114.67L93.0448 114.671Z" fill="#947EC6"/>
<path d="M146.43 119.873C146.43 119.873 131.878 128.249 131.316 128.482C130.755 128.716 129.538 129.324 129.632 129.838C129.726 130.353 130.063 130.446 130.433 130.446C130.803 130.446 134.639 128.013 135.295 127.685C135.95 127.357 147.227 120.48 147.227 120.48L146.432 119.872L146.43 119.873Z" fill="#947EC6"/>
<path d="M121.466 81.9262C121.466 81.9262 132.488 76.9115 135.697 74.0533C138.538 71.522 141.941 65.4343 143.872 61.1236C146.088 56.1722 152.439 43.5833 168.35 42.768C184.26 41.9528 191.807 56.6372 192.624 58.8804C193.439 61.1236 201.497 79.0715 180.996 92.0235C180.996 92.0235 174.979 94.9812 164.678 94.3686C154.377 93.7572 150.085 97.2244 150.085 97.2244L143.464 100.08C143.464 100.08 136.732 102.936 135.611 104.465C134.489 105.995 121.467 81.9274 121.467 81.9274L121.466 81.9262Z" fill="#D0ECF7"/>
<path d="M179.283 91.0643C178 91.9194 161.677 102.652 161.07 102.907C159.86 103.415 160.246 104.605 161.024 104.434C163.811 103.823 179.694 92.6925 180.321 92.306C181.487 91.5844 183.8 90.0862 183.374 89.5227C182.592 88.4896 179.283 91.0643 179.283 91.0643Z" fill="#947EC6"/>
<path fill-rule="evenodd" clip-rule="evenodd" d="M184.002 58.23C184.422 58.3773 184.77 58.6573 184.94 59.0964C185.239 59.8682 184.989 60.6789 184.496 61.4163C183.999 62.1588 183.202 62.9164 182.213 63.6547C180.229 65.1356 177.366 66.618 174.234 67.8059C171.947 68.6733 169.25 69.5334 166.678 70.1354C165.199 71.7394 163.901 73.313 163.068 74.7419C162.741 75.3025 162.498 75.8213 162.34 76.2958C162.596 76.2215 162.85 76.1487 163.104 76.0775C165.877 75.2984 168.527 74.7083 170.641 74.4352C171.697 74.2989 172.635 74.2394 173.396 74.2799C174.127 74.3189 174.803 74.4538 175.231 74.8048C175.639 75.1401 175.839 75.5811 175.785 76.0746C175.734 76.527 175.477 76.9496 175.151 77.3195C174.495 78.0646 173.375 78.8008 172.107 79.4131C170.829 80.0305 169.35 80.5454 167.936 80.8243C166.536 81.1004 165.137 81.1577 164.053 80.7963C162.388 80.2416 161.424 79.3322 161.185 78.0889C161.161 77.9616 161.144 77.8327 161.136 77.7022C156.303 79.2015 151.416 81.1678 148.566 82.957C145.249 85.0381 141.858 87.8868 139.287 90.225C138.004 91.3923 136.929 92.4287 136.176 93.1729C135.799 93.545 135.503 93.8439 135.301 94.0495C135.2 94.1522 135.123 94.2317 135.071 94.2852L135.012 94.3458L134.998 94.361L134.993 94.3655L134.632 94.0201C134.27 93.6745 134.271 93.6744 134.271 93.6744L134.272 93.6729L134.276 93.6687L134.292 93.6524L134.352 93.5895C134.406 93.5344 134.485 93.4533 134.587 93.3489C134.792 93.14 135.092 92.8374 135.473 92.4614C136.234 91.7096 137.319 90.6635 138.614 89.4852C141.201 87.1323 144.644 84.2377 148.034 82.11C151.064 80.2083 156.224 78.156 161.216 76.6311C161.374 75.8556 161.732 75.0472 162.204 74.2382C162.897 73.0502 163.884 71.7799 165.013 70.491C164.647 70.5611 164.285 70.6244 163.931 70.6802C162.289 70.9388 160.764 71.0403 159.545 70.8844C159.077 70.8246 158.63 70.7234 158.232 70.5654C156.985 71.4272 155.656 72.3082 154.298 73.1811C150.061 75.9046 145.507 78.5792 142.243 80.4024C138.959 82.2372 135.487 83.7184 132.841 84.7398C131.517 85.2509 130.397 85.6478 129.608 85.9172C129.213 86.0519 128.901 86.1547 128.687 86.2241C128.58 86.2587 128.497 86.285 128.441 86.3027L128.377 86.3228L128.361 86.3279L128.355 86.3296C128.355 86.3297 128.355 86.3298 128.207 85.8521L128.06 85.3743L128.064 85.3729L128.079 85.3682L128.14 85.3492C128.194 85.3322 128.274 85.3066 128.379 85.2727C128.588 85.2049 128.895 85.1037 129.285 84.9708C130.064 84.705 131.171 84.3125 132.481 83.8069C135.103 82.7948 138.528 81.3328 141.756 79.5294C145.005 77.7142 149.541 75.0502 153.757 72.34C154.982 71.5527 156.175 70.7639 157.3 69.9927C157.112 69.8142 156.955 69.6054 156.838 69.3618C156.048 67.7111 156.589 65.7932 157.734 64.1361C158.889 62.464 160.728 60.9414 162.788 59.9951C163.803 59.5291 164.74 59.2655 165.506 59.239C166.251 59.2132 166.993 59.4167 167.331 60.081C167.651 60.71 167.48 61.5222 167.032 62.3837C166.569 63.2728 165.742 64.3525 164.494 65.6204C163.309 66.825 161.46 68.2829 159.282 69.83C159.404 69.854 159.534 69.8749 159.672 69.8925C160.754 70.0309 162.171 69.9451 163.776 69.6924C164.539 69.5721 165.338 69.4152 166.153 69.2302C167.277 68.0234 168.479 66.8184 169.637 65.6672C172.498 62.8224 175.955 60.5491 178.819 59.2624C180.247 58.6211 181.559 58.2102 182.594 58.112C183.111 58.063 183.596 58.0879 184.002 58.23ZM167.957 68.7836C170.002 68.2377 172.067 67.5581 173.879 66.8709C176.955 65.7043 179.728 64.2617 181.615 62.8534C182.561 62.1471 183.258 61.469 183.664 60.8606C184.074 60.247 184.136 59.7914 184.007 59.4575C183.963 59.3436 183.873 59.2446 183.671 59.1738C183.454 59.0979 183.13 59.0656 182.689 59.1075C181.809 59.191 180.611 59.5537 179.229 60.1746C176.474 61.4123 173.117 63.6171 170.342 66.3763C169.545 67.1687 168.738 67.976 167.957 68.7836ZM158.155 69.4008C160.543 67.7299 162.552 66.1682 163.782 64.919C164.995 63.686 165.747 62.6874 166.145 61.9221C166.557 61.1292 166.529 60.7109 166.44 60.5348C166.368 60.3939 166.146 60.2175 165.54 60.2384C164.955 60.2587 164.153 60.4685 163.206 60.9038C161.295 61.7814 159.602 63.1919 158.557 64.7045C157.502 66.2321 157.175 67.7504 157.74 68.9298C157.824 69.1044 157.96 69.2631 158.155 69.4008ZM162.129 77.4005C162.124 77.5761 162.137 77.7426 162.167 77.9001C162.313 78.6583 162.899 79.358 164.369 79.8476C165.211 80.1281 166.407 80.1067 167.743 79.8432C169.065 79.5824 170.463 79.0968 171.672 78.5126C172.893 77.9234 173.873 77.257 174.401 76.6583C174.667 76.3563 174.773 76.1218 174.791 75.9641C174.804 75.8476 174.777 75.7257 174.596 75.5777C174.435 75.4455 174.048 75.316 173.343 75.2785C172.667 75.2425 171.795 75.2945 170.769 75.427C168.72 75.6916 166.122 76.2685 163.374 77.0403C162.961 77.1562 162.546 77.2765 162.129 77.4005Z" fill="#CFE5A6"/>
<path d="M169.535 42.7267C171.359 42.7208 173.067 42.9188 174.663 43.2772C186.28 45.8859 191.924 56.9484 192.624 58.8719C192.869 59.5466 193.758 61.5836 194.339 64.5331C194.339 64.5331 187.958 53.7049 176.226 49.6074C164.495 45.5099 154.077 49.7679 154.077 49.7679L162.405 44.2483L167.057 42.8532" fill="#DFF0F7"/>
<path d="M128.729 94.8183C127.72 93.0928 126.349 90.6985 125.433 89.0761C125.433 89.0761 137.383 84.7561 138.687 87.1527C140.339 90.1901 128.73 94.8183 128.73 94.8183H128.729Z" fill="#DFF0F7"/>
<path d="M169.535 42.7268C169.145 42.728 168.75 42.7385 168.35 42.7596C152.439 43.5749 146.089 56.1638 143.872 61.1152C141.941 65.4271 138.538 71.5147 135.697 74.0449C132.488 76.9031 121.466 81.9178 121.466 81.9178C121.466 81.9178 124.057 85.4073 125.433 87.8801C125.433 87.8801 142.67 79.5891 146.223 82.4894C149.776 85.3909 144.693 90.5743 143.309 91.3755C141.926 92.1767 134.299 94.4996 134.299 94.4996L129.91 96.7896C132.668 101.373 135.15 105.085 135.611 104.455C136.733 102.925 143.464 100.071 143.464 100.071L150.085 97.2149C150.085 97.2149 154.377 93.7476 164.678 94.359C174.979 94.9705 180.996 92.0139 180.996 92.0139C195.336 82.9545 195.703 71.4503 194.349 64.586C194.349 64.586 193.77 80.5555 179.224 87.4572C164.678 94.359 160.78 87.8801 159.803 86.6408C158.826 85.4026 160.087 77.6083 158.327 74.695C156.568 71.7818 153.435 72.6908 153.435 72.6908H149.883C149.883 72.6908 147.898 67.4805 150.521 66.0198C153.144 64.5602 153.959 64.7617 155.184 64.21C156.978 63.4041 156.978 62.5923 158.328 62.1659C160.018 61.6318 161.668 61.5919 162.834 61.114C164 60.6361 166.913 60.7673 168.298 60.2648C169.682 59.7622 168.662 57.3586 168.662 57.3586C168.662 57.3586 171.113 56.6335 171.035 54.532C170.956 52.4306 170.265 52.6238 170.265 52.6238L155.258 58.257C155.258 58.257 151.032 59.2515 150.887 57.2121C150.741 55.1728 149.951 53.3958 159.188 47.1289C164.509 43.5187 169.538 42.7245 169.538 42.7245L169.535 42.7268Z" fill="#B6CCD3"/>
<path d="M186.62 69.4482C186.62 69.4482 191.045 70.8937 188.36 74.2321C185.673 77.5717 179.939 77.0879 178.631 75.2606C177.325 73.4332 176.651 70.4708 180.735 69.447C183.45 68.7664 186.62 69.447 186.62 69.447V69.4482Z" fill="#DFF0F7"/>
<path d="M191.539 69.6768C191.539 69.6768 194.464 69.1087 192.771 64.224C191.079 59.3394 189.658 59.2328 188.867 58.865C188.076 58.4971 184.22 58.6494 186.382 64.3576C188.543 70.0657 191.539 69.6768 191.539 69.6768Z" fill="#DFF0F7"/>
<path d="M118.766 31.3165C116.276 31.4723 109.118 30.0889 104.45 32.9506C101.205 34.9396 99.2363 40.4885 97.5247 41.5087C95.8131 42.529 91.4398 43.5926 89.9309 48.5417C88.8109 52.2128 91.1809 59.2013 86.5123 60.9912C81.8438 62.781 76.9843 62.3593 77.918 66.3268C78.8517 70.2943 86.0097 71.9284 88.3446 71.9284C90.6795 71.9284 97.6817 71.4622 101.494 64.3038C105.306 57.1467 107.797 56.8351 109.897 56.602C111.998 56.3689 118.611 57.3025 122.658 53.957C126.704 50.6115 130.983 43.2213 130.983 43.2213L134.504 37.3105C134.504 37.3105 135.574 33.7975 131.527 30.7297C127.481 27.6618 123.273 31.3142 120.712 31.3189C118.151 31.3236 118.767 31.3189 118.767 31.3189L118.766 31.3165Z" fill="#A97C4D"/>
<path d="M134.503 37.3083C134.503 37.3083 135.573 33.7953 131.526 30.7275C129.262 29.0114 126.947 29.398 124.899 30.0739C124.899 30.0739 128.337 30.1652 129.369 32.5057C130.402 34.8461 132.587 37.3083 132.587 37.3083H134.504H134.503Z" fill="#C19465"/>
<path d="M94.521 48.5403C98.2663 47.0117 99.9721 48.7137 104.381 46.6544C108.072 44.9301 108.38 41.1735 108.645 39.6648C108.909 38.1572 111.346 34.4896 115.751 33.4037C120.711 32.182 120.711 31.3152 120.711 31.3152C118.15 31.3198 118.766 31.3152 118.766 31.3152C116.276 31.471 109.118 30.0876 104.45 32.9492C101.205 34.9382 99.2364 40.4871 97.5248 41.5074C95.8132 42.5276 91.4398 43.5912 89.9309 48.5403C89.3311 50.5047 89.7317 53.4203 89.5173 55.981C89.5173 55.981 91.5371 49.7586 94.5221 48.5403H94.521Z" fill="#C19465"/>
<path d="M89.4015 56.9434C89.1075 58.7555 88.3624 60.2806 86.5125 60.9905C82.7531 62.4313 78.8683 62.4383 77.9873 64.4601C77.9873 64.4601 78.7265 63.4937 81.0743 63.4691C83.422 63.4445 85.259 64.1064 86.8663 63.4949C88.4737 62.8823 89.1262 61.3208 89.2902 60.7023C89.6476 59.3611 89.4027 56.9445 89.4027 56.9445L89.4015 56.9434Z" fill="#8B643B"/>
<path d="M117.811 45.9584C111.845 48.9127 108.564 49.5288 106.611 50.494C104.658 51.4592 100.653 53.7973 101.789 55.0472C102.925 56.2971 106.028 53.2515 107.982 52.4338C110.424 51.4112 112.113 51.0106 114.986 49.8111C117.86 48.6128 121.806 46.7608 124.061 43.5489C126.316 40.337 127.58 37.3593 127.817 37.0665C128.663 36.0157 127.922 35.3914 127.555 35.9021C127.187 36.4128 124.232 40.1062 122.414 42.4349C120.596 44.7636 117.812 45.9573 117.812 45.9573L117.811 45.9584Z" fill="#C19465"/>
<path d="M84.5664 71.289C86.1023 71.7247 87.5222 71.9274 88.3434 71.9274C90.6771 71.9274 97.6805 71.4612 101.493 64.3029C105.305 57.1457 107.796 56.8341 109.896 56.601C111.997 56.3679 118.61 57.3015 122.656 53.956C125.362 51.7199 128.171 47.6751 129.736 45.2398L129.269 38.9705L129.368 32.5068C129.368 32.5068 129.007 35.201 127.325 38.0428C125.643 40.8846 122.278 47.3529 115.49 49.643C108.702 51.9342 104.73 52.63 100.379 58.8653C96.0275 65.1006 96.0275 66.3188 92.6055 69.0446C89.1822 71.7704 84.5664 71.289 84.5664 71.289Z" fill="#8B643B"/>
<path d="M129.368 32.5061C129.368 32.5061 133.351 34.843 136.19 39.8506C138.517 43.9563 137.582 45.1195 136.19 45.7591C135.449 46.0999 134.157 46.3061 134.157 46.3061L133.863 49.2486L128.775 48.9745L129.004 45.3245C129.004 45.3245 128.137 45.1418 127.749 44.8688C127.749 44.8688 126.244 47.3779 124.395 44.8009C122.548 42.2238 123.902 40.7889 124.167 40.6261C124.874 40.1927 125.696 40.694 125.696 40.694C125.696 40.694 127.839 39.1431 128.638 36.3599C129.437 33.5767 129.368 32.5049 129.368 32.5049V32.5061Z" fill="#DFBE9D"/>
<path d="M133.93 48.5733L134.157 46.3055C134.157 46.3055 133.063 46.3699 132.093 46.1064C131.123 45.8428 130.152 45.4551 130.152 45.4551C130.152 45.4551 130.442 47.1501 132.286 48.0755C133.477 48.6729 133.93 48.5733 133.93 48.5733Z" fill="#CBA781"/>
<path d="M156.308 32.8874C156.308 32.8874 157.086 32.5184 157.144 31.682C157.203 30.8457 157.319 30.2822 157.825 30.048C158.331 29.8149 158.797 29.7563 159.459 29.2702C160.121 28.784 163.952 25.0883 164.263 24.8552C164.575 24.6221 165.275 24.2332 165.1 25.2828C164.925 26.3335 162.027 29.3088 162.027 29.3088C162.027 29.3088 162.669 29.3088 162.728 29.7949C162.786 30.2811 162.533 30.4369 162.533 30.4369C162.533 30.4369 163.019 30.5142 163.175 30.7285C163.331 30.9429 163.311 31.2533 163.311 31.2533C163.311 31.2533 163.759 31.2147 163.836 31.798C163.913 32.3814 163.37 32.8089 163.486 33.0233C163.603 33.2376 164.478 33.7624 163.777 34.3071C163.077 34.8518 162.28 35.2993 161.015 35.4351C159.751 35.571 158.214 35.5909 158.214 35.5909L156.308 32.8874Z" fill="#DFBE9D"/>
<path d="M162.027 29.3097C162.027 29.3097 164.925 26.3344 165.1 25.2837C165.274 24.2329 164.575 24.6218 164.263 24.8561C163.952 25.0904 160.12 28.7849 159.459 29.271C158.797 29.7572 158.331 29.8157 157.825 30.0488C157.825 30.0488 158.365 29.8251 158.805 29.8497C159.246 29.8743 159.491 29.9352 160.03 29.8497C160.568 29.7642 161.171 29.4151 161.565 29.3542C161.96 29.2933 162.027 29.3097 162.027 29.3097Z" fill="#CBA781"/>
<path d="M159.187 54.6317C159.284 54.6118 160.238 53.6208 160.471 53.0176C160.704 52.4143 160.666 51.6752 161.093 51.0918C161.521 50.5085 162.124 49.9251 162.377 49.439C162.63 48.9529 163.408 48.0193 163.72 48.9142C164.032 49.8091 163.351 50.7615 163.195 51.0731C163.039 51.3847 162.709 52.2983 163.564 52.2784C164.42 52.2585 167.805 51.7724 168.194 51.7724C168.583 51.7724 169.225 51.6365 169.284 52.1812C169.284 52.1812 170.801 52.0641 170.956 52.4342C171.112 52.8032 171.171 53.0375 169.77 53.465C168.37 53.8926 165.024 54.7489 165.024 54.7489C165.024 54.7489 168.953 54.4185 169.517 54.3986C170.08 54.3787 170.665 54.5931 170.392 54.9047C170.12 55.2162 165.111 56.2857 165.111 56.2857C165.111 56.2857 166.209 56.5575 166.929 56.9077C167.648 57.258 168.349 57.7441 168.096 57.9971C167.843 58.2501 165.683 57.3552 165.023 57.2779C164.362 57.2006 162.357 56.9862 161.774 57.2779C161.191 57.5696 160.277 58.0428 160.277 58.0428L159.187 54.6329V54.6317Z" fill="#DFBE9D"/>
<path d="M159.336 55.0991L159.186 54.6317C159.283 54.6118 160.237 53.6208 160.47 53.0176C160.703 52.4143 160.665 51.6752 161.092 51.0918C161.52 50.5085 162.123 49.9251 162.376 49.439C162.629 48.9529 163.407 48.0193 163.719 48.9142C164.03 49.8091 163.35 50.7615 163.194 51.0731C163.038 51.3847 162.708 52.2983 163.563 52.2784C163.563 52.2784 162.049 52.3616 161.568 52.6334C161.086 52.9051 159.336 55.0991 159.336 55.0991Z" fill="#CBA781"/>
<path d="M133.642 58.8537C133.642 58.8537 129.709 62.6712 128.495 65.5938C127.282 68.5176 128.495 70.1903 128.495 70.1903L121.466 65.8808C121.466 65.8808 131.173 55.6312 131.341 55.7144C131.508 55.7975 133.642 58.8525 133.642 58.8525V58.8537Z" fill="#D9D9D9"/>
<path d="M126.847 69.1817L128.495 70.1926C128.495 70.1926 127.282 68.5187 128.495 65.5961C128.785 64.9003 129.228 64.1541 129.735 63.4197C129.735 63.4197 127.047 65.0245 126.847 67.017C126.647 69.0095 126.847 69.1817 126.847 69.1817Z" fill="white"/>
<path d="M124.361 67.6576L121.466 65.883C121.466 65.883 131.173 55.6334 131.341 55.7166C131.508 55.7997 133.642 58.8547 133.642 58.8547C133.642 58.8547 132.719 59.7508 131.629 61.0065C131.629 61.0065 130.224 61.044 128.009 63.1548C127.204 63.9209 124.362 67.6565 124.362 67.6565L124.361 67.6576Z" fill="#B6B6B6"/>
<path d="M144.022 102.906C144.022 102.906 142.179 104.864 141.489 105.842C140.799 106.82 140.337 107.626 140.337 107.626C140.337 107.626 140.337 109.986 142.439 114.735C144.541 119.484 146.613 121.01 146.613 121.01C146.613 121.01 150.384 120.291 150.068 116.837C149.752 113.382 148.284 112.951 147.679 110.85C147.075 108.748 148.398 105.755 148.398 105.755L144.023 102.905L144.022 102.906Z" fill="#CCDCEE"/>
<path d="M149.806 118.655C150.022 118.155 150.134 117.555 150.068 116.837C149.752 113.382 148.284 112.951 147.679 110.85C147.075 108.748 148.399 105.756 148.399 105.756L147.301 105.041C147.301 105.041 145.362 109.527 145.717 111.444C146.072 113.36 146.635 114.141 147.88 115.205C149.124 116.27 149.806 118.655 149.806 118.655Z" fill="#E7F1FC"/>
<path d="M145.346 103.767L144.023 102.905C144.023 102.905 142.18 104.863 141.49 105.841C140.8 106.819 140.338 107.625 140.338 107.625C140.338 107.625 140.338 109.985 142.44 114.734C144.542 119.483 146.614 121.009 146.614 121.009C146.614 121.009 147.802 120.783 148.789 119.973C148.789 119.973 144.938 114.353 144.405 112.294C143.873 110.236 144.296 108 144.563 106.9C144.83 105.8 145.346 103.766 145.346 103.766V103.767Z" fill="#8AA0BC"/>
<path d="M119.643 68.1369C119.643 68.1369 118.843 69.9994 118.5 71.9263C118.157 73.8533 118.875 77.686 120.672 79.3986C122.45 81.0936 123.416 81.1135 123.416 81.1135C123.416 81.1135 123.072 81.6851 128.047 80.3135C133.021 78.9418 144.97 76.7688 146.799 76.5978C148.629 76.4268 150.525 76.0016 151.039 77.1449C151.554 78.2881 149.773 85.6304 144.741 95.3481C144.741 95.3481 141.801 101.988 141.94 102.208C142.578 103.219 148.477 107.041 150.63 108.896C150.63 108.896 154.69 90.6603 155.432 85.0587C156.175 79.456 156.977 75.5693 156.977 74.4835C156.977 73.3976 157.034 71.7963 154.003 70.9389C150.974 70.0814 135.916 70.1927 128.773 70.3239L121.815 66.0226L119.643 68.1381V68.1369Z" fill="#292F73"/>
<path d="M149.865 70.4668C144.026 70.1376 134.155 70.2254 128.774 70.3238L126.869 69.1466C126.869 69.1466 126.749 70.2313 125.601 70.7163C124.452 71.2012 123.662 71.1122 123.662 71.7108C123.662 72.1442 125.882 71.965 128.943 71.9275C132.004 71.89 140.016 71.8642 141.19 71.8642C142.364 71.8642 148.142 72.1594 149.432 71.4308C150.019 71.0993 149.865 70.4679 149.865 70.4679V70.4668Z" fill="#475196"/>
<path d="M147.584 106.577C148.792 107.45 149.917 108.28 150.63 108.895C150.63 108.895 154.69 90.6594 155.432 85.0578C156.175 79.4551 156.976 75.5684 156.976 74.4826C156.976 73.3967 157.034 71.7954 154.003 70.938C153.633 70.8337 153.085 70.7435 152.393 70.665C152.393 70.665 154.806 71.5518 154.806 74.6044C154.806 77.657 152.448 91.2076 150.52 96.617C148.592 102.026 147.584 106.577 147.584 106.577Z" fill="#475196"/>
<path d="M145.654 105.189C143.856 103.893 142.256 102.707 141.941 102.208C141.802 101.988 144.742 95.3481 144.742 95.3481C149.774 85.6303 151.555 78.2881 151.04 77.1448C150.526 76.0016 148.63 76.4268 146.8 76.5978C145.637 76.7067 140.379 77.6251 135.426 78.6325C134.217 78.8785 130.81 79.6188 131.918 79.3751C132.58 79.2299 143.022 75.5154 146.29 75.3011C149.557 75.0867 152.006 74.8723 152.281 77.9788C152.556 81.0854 149.771 88.6911 149.289 90.6192C148.806 92.5473 145.654 105.189 145.654 105.189Z" fill="#1D273D"/>
<path d="M127.555 80.4485C123.097 81.648 123.417 81.1138 123.417 81.1138C123.417 81.1138 122.451 81.0939 120.673 79.3989C118.876 77.6864 118.158 73.8536 118.501 71.9267C118.844 69.9997 119.644 68.1372 119.644 68.1372L121.816 66.0217L124.389 67.6125C124.389 67.6125 120.855 72.3226 120.982 74.0574C121.11 75.7922 122.245 78.0413 125.193 79.6449C126.505 80.3595 127.555 80.4485 127.555 80.4485Z" fill="#1D273D"/>
<path d="M156.075 56.3823C156.075 56.3823 155.821 56.1293 156.075 55.8763C156.328 55.6233 157.008 54.7682 157.223 54.4367C157.437 54.1063 157.982 53.2114 158.623 53.6975C159.263 54.1836 160.413 55.8177 160.704 56.537C160.996 57.2562 162.28 59.162 161.035 59.5123C159.789 59.8625 158.856 60.1343 158.292 59.8239C157.728 59.5123 157.533 59.1433 157.533 59.1433C157.533 59.1433 151.347 63.1108 146.932 63.3638C142.516 63.6168 137.226 59.6107 133.199 59.8239C129.407 60.0253 128.745 60.7961 128.219 61.1663C127.694 61.5352 124.776 63.5969 123.317 65.2509C121.859 66.9037 118.143 70.5022 116.256 71.2999C114.369 72.0976 109.662 73.8277 105.111 71.5916C103.08 70.5935 101.905 68.7908 102.368 67.7986C103.023 66.393 103.691 66.106 108.106 66.1259C112.522 66.1458 113.995 65.5847 115.474 65.026C116.952 64.4672 119.738 62.7418 120.808 61.3021C121.877 59.8625 123.57 56.8099 123.842 56.0122C124.114 55.2145 124.581 52.4535 126.001 51.753C127.421 51.0525 127.265 51.247 127.265 51.247C127.265 51.247 126.915 49.4185 127.596 49.0495C128.276 48.6805 129.696 48.4849 131.039 48.5434C132.381 48.602 133.647 48.7309 133.899 48.8703C134.15 49.0096 134.598 49.3025 134.482 49.9046L154.129 35.0843C154.129 35.0843 153.681 32.1089 154.965 31.7587C156.249 31.4085 158.218 34.119 158.433 34.4693C158.647 34.8195 161.073 37.2443 159.536 37.789C157.999 38.3337 157.494 38.5668 156.794 38.158C156.093 37.7492 156.308 37.598 156.308 37.598C156.308 37.598 144.811 47.8043 143.664 48.7965C142.518 49.7886 137.264 54.9041 137.264 54.9041C137.264 54.9041 143.022 58.1909 144.714 58.7157C146.407 59.2405 147.477 59.8239 151.036 58.6384C154.595 57.453 156.073 56.3823 156.073 56.3823H156.075Z" fill="#EA9C47"/>
<path d="M104.71 67.1516C107.09 67.6506 109.784 69.1512 111.136 69.1465C112.06 69.143 115.913 68.9965 119.703 64.6484C123.493 60.299 124.707 54.4257 124.909 53.6444C125.222 52.4379 126.004 51.7538 126.004 51.7538C124.584 52.4543 124.116 55.2152 123.844 56.0129C123.573 56.8106 121.88 59.8644 120.81 61.3029C119.741 62.7425 116.955 64.468 115.476 65.0267C113.998 65.5855 112.524 66.1466 108.108 66.1266C104.135 66.1091 103.196 66.3398 102.571 67.4105C102.571 67.4105 103.624 66.9244 104.711 67.1528L104.71 67.1516Z" fill="#AF6A1D"/>
<path d="M107.151 70.7094C107.742 70.6438 113.574 70.8418 116.507 68.6337C119.83 66.1328 119.67 65.7931 120.955 65.8002C121.719 65.8037 121.927 66.7197 121.927 66.7197C120.174 68.4768 117.69 70.6942 116.259 71.2986C114.431 72.0706 109.956 73.7199 105.54 71.7883C105.54 71.7883 105.142 70.932 107.152 70.7082L107.151 70.7094Z" fill="#FCCA95"/>
<path d="M124.353 64.2137C125.862 62.8326 127.801 61.4621 128.22 61.1669C128.745 60.7979 129.407 60.026 133.2 59.8245C137.227 59.6101 142.517 63.6174 146.933 63.3644C148.264 63.2883 149.755 62.8748 151.189 62.3336C151.189 62.3336 148.596 63.3621 145.468 62.2422C142.34 61.1224 136.704 57.7301 132.388 58.0405C127.116 58.42 124.353 64.2125 124.353 64.2125V64.2137Z" fill="#AF6A1D"/>
<path d="M160.867 56.8852C161.298 57.7403 162.112 59.2092 161.035 59.5126C159.789 59.8628 158.856 60.1346 158.292 59.8242C157.727 59.5126 157.533 59.1436 157.533 59.1436L156.673 58.0214C156.673 58.0214 156.244 57.2319 156.673 57.1183C157.102 57.0046 159.342 56.5794 159.803 56.5607C160.265 56.5431 160.782 56.7165 160.867 56.8852Z" fill="#AF6A1D"/>
<path d="M159.795 55.03C159.391 54.4712 158.945 53.9406 158.624 53.6981C157.982 53.212 157.437 54.1069 157.224 54.4373C157.147 54.5568 157.01 54.7442 156.853 54.9468C156.853 54.9468 157.531 55.6543 158.75 55.4892C159.97 55.324 159.797 55.0312 159.797 55.0312L159.795 55.03Z" fill="#FCCA95"/>
<path d="M137.264 54.9036C137.264 54.9036 143.022 58.1905 144.714 58.7153C146.407 59.24 147.476 59.8234 151.035 58.638C152.612 58.112 153.78 57.6095 154.592 57.2136C154.592 57.2136 150.642 60.3329 148.203 60.2673C145.765 60.2018 143.293 59.7484 139.668 57.5861C136.043 55.4237 133.506 53.71 131.693 53.1172C129.195 52.2996 128.172 52.4203 127.97 51.8205C127.768 51.2208 128.63 50.7147 128.63 50.7147L133.573 52.3593L137.263 54.9048L137.264 54.9036Z" fill="#FCCA95"/>
<path opacity="0.49" d="M154.077 33.4035C154.143 32.6632 154.364 31.9217 154.965 31.7577C155.434 31.6301 155.992 31.9088 156.524 32.3329" fill="#EA9C47"/>
<path d="M138.685 46.7352L152.249 36.5032C152.249 36.5032 152.24 37.8795 145.803 42.8204C143.395 44.6701 142.139 45.8133 141.078 46.426C138.683 47.807 138.684 46.7352 138.684 46.7352H138.685Z" fill="#FCCA95"/>
<path d="M137.264 54.9042C137.264 54.9042 142.516 49.7888 143.664 48.7966C144.812 47.8045 156.308 37.5982 156.308 37.5982C156.308 37.5982 156.093 37.7493 156.794 38.1581C157.494 38.5669 157.999 38.3327 159.536 37.7891C161.073 37.2444 158.647 34.8197 158.433 34.4694C158.365 34.3582 158.12 34.0091 157.775 33.5956C157.775 33.5956 157.491 34.7822 157.169 35.2144C156.726 35.8107 155.121 36.0426 155.121 36.0426C155.121 36.0426 155.042 36.3319 154.622 36.9352C154.201 37.5385 151.655 39.9011 151.34 40.1635C151.025 40.4259 145.381 45.5976 142.046 48.4323C138.712 51.2671 136.244 52.7899 135.378 53.0792C134.511 53.3685 134.538 52.6329 134.46 52.21C134.381 51.7872 134.483 49.9047 134.483 49.9047C134.6 49.3015 134.153 49.0098 133.9 48.8704C133.798 48.8142 133.532 48.7591 133.162 48.7099C132.614 48.6373 131.841 48.5776 131.04 48.5436C130.745 48.5307 130.445 48.5307 130.15 48.5413C129.107 48.5799 128.127 48.7615 127.597 49.0496C126.916 49.4186 127.266 51.2471 127.266 51.2471C127.266 51.2471 129.025 51.0058 131.466 51.9242C133.908 52.8426 137.264 54.9042 137.264 54.9042Z" fill="#AF6A1D"/>
<path d="M101.781 94.3959C101.781 94.3959 99.7636 93.7856 97.6982 95.053C95.6339 96.3193 95.1173 98.2439 95.1173 98.2439C95.1173 98.2439 93.0062 97.5398 90.8939 99.3695C88.7828 101.199 88.6411 103.639 88.6879 104.25C88.7348 104.86 89.9075 111.147 93.1456 115.604C96.3837 120.061 99.5785 124.568 103.75 124.331C107.88 124.096 108.818 120.765 108.818 120.765C108.818 120.765 111.259 121.375 113.135 119.827C115.012 118.278 115.295 116.636 115.295 116.636C115.295 116.636 117.829 116.964 119.94 114.289C122.051 111.615 122.661 109.456 120.925 103.639C119.189 97.821 114.027 93.5044 112.807 92.7067C111.588 91.909 107.936 90.0793 105.308 91.3924C102.681 92.7067 101.78 94.3959 101.78 94.3959H101.781Z" fill="#B6B6B6"/>
<path d="M107.021 109.111C106.754 108.666 105.471 106.49 104.53 105.533C103.588 104.577 103.312 104.548 103.11 104.707C102.907 104.866 102.675 105.142 103.646 106.097C104.617 107.054 105.558 108.691 106.384 110.313C107.21 111.936 108.398 114.178 108.441 114.151C108.485 114.124 109.122 114.167 108.992 113.53C108.862 112.893 107.444 109.817 107.021 109.111Z" fill="#D9D9D9"/>
<path d="M88.9818 102.266C88.6855 102.644 88.6655 103.943 88.689 104.248C88.7358 104.858 89.9085 111.145 93.1466 115.602C96.3848 120.059 99.5795 124.567 103.751 124.329C107.881 124.095 108.819 120.763 108.819 120.763C108.819 120.763 111.26 121.374 113.136 119.825C115.013 118.276 115.296 116.634 115.296 116.634C115.296 116.634 117.83 116.962 119.941 114.288C122.052 111.614 122.662 109.455 120.926 103.638C120.524 102.292 119.94 101.027 119.262 99.8669C119.262 99.8669 122.854 109.041 118.585 111.512C115.114 113.521 112.762 107.58 112.762 107.58C112.762 107.58 111.886 105.848 111.551 106.016C111.216 106.183 112.6 108.54 113.019 109.669C113.438 110.799 115.114 114.147 112.579 115.421C110.706 116.361 109.796 115.779 108.833 114.273C107.87 112.766 105.702 107.979 104.272 106.698C103.716 106.202 103.686 106.949 104.815 108.582C105.702 109.862 107.818 115.346 107.075 117.287C106.531 118.71 103.81 119.211 102.596 117.244C102.596 117.244 98.5779 108.833 97.2388 107.201C95.8998 105.569 90.2916 100.59 88.9795 102.266H88.9818Z" fill="#434343"/>
<path d="M88.9821 102.266C89.275 101.351 89.8385 100.284 90.8941 99.3691C93.0052 97.5394 95.1174 98.2434 95.1174 98.2434C95.1174 98.2434 95.6341 96.32 97.6983 95.0525C99.7626 93.7863 101.781 94.3954 101.781 94.3954C101.781 94.3954 102.682 92.7062 105.31 91.392C107.938 90.0777 111.588 91.9085 112.809 92.7062C113.573 93.2053 115.883 95.0853 117.93 97.851C117.93 97.851 115.029 94.1951 112.644 94.8194C110.258 95.4438 108.459 96.9185 107.035 96.5999C105.612 96.2801 104.19 95.5691 104.19 95.5691L105.613 97.3262C105.613 97.3262 106.013 97.8697 105.311 98.2047C104.609 98.5397 103.06 99.1875 102.642 99.8681C102.224 100.549 101.596 102.479 100.843 102.267C100.089 102.055 98.4985 100.8 98.4985 100.8C98.4985 100.8 99.5447 101.596 100.465 103.228C101.386 104.859 101.344 104.985 101.177 105.069C101.009 105.153 99.0843 102.893 97.9115 101.889C96.74 100.885 95.2744 101.178 95.0237 101.512C94.773 101.845 94.3958 102.348 95.5673 104.064C96.7388 105.78 97.4511 106.616 98.6648 108.416C99.8786 110.215 100.565 111.46 100.297 111.763C100.029 112.067 99.9582 111.908 99.4826 111.016C99.0069 110.125 97.3012 107.81 96.1531 106.491C94.479 104.566 93.2032 103.29 91.4236 102.348C89.6663 101.418 88.981 102.267 88.981 102.267" fill="#D9D9D9"/>
<path d="M95.3081 97.7393C95.1699 98.0462 95.1172 98.2418 95.1172 98.2418C95.1172 98.2418 95.9853 98.455 97.7859 100.129C99.5854 101.803 99.7951 102.514 99.9627 102.514C100.13 102.514 101.009 102.597 99.084 100.505C97.1592 98.4128 95.3093 97.7393 95.3093 97.7393H95.3081Z" fill="#434343"/>
<path d="M102.14 93.8711C101.889 94.1921 101.781 94.3947 101.781 94.3947C101.781 94.3947 104.273 95.7348 105.612 97.3255C106.951 98.9162 107.328 99.5429 107.579 99.5851C107.829 99.6273 108.207 99.6202 107.16 98.2427C106.114 96.8651 104.356 95.3166 103.729 94.8562C103.101 94.3959 102.142 93.8711 102.142 93.8711H102.14Z" fill="#434343"/>
<path d="M97.5085 111.119C100.677 116.173 101.674 120.299 101.864 121.177C102.054 122.056 102.179 123.354 101.594 123.354C101.008 123.354 98.748 122.265 95.0225 116.658C91.2982 111.051 89.5725 105.731 89.4999 104.81C89.4331 103.944 89.4132 103.099 90.5859 103.56C91.7574 104.02 95.4759 107.877 97.5073 111.119H97.5085Z" fill="#282828"/>
<path d="M101.922 113.647C102.273 114.342 103.24 116.197 102.588 116.298C101.936 116.4 101.878 115.936 101.154 114.617C100.829 114.025 100.242 112.908 100.126 112.719C100.01 112.531 99.9957 112.039 100.387 111.995C100.778 111.952 101.363 112.539 101.923 113.647H101.922Z" fill="#D9D9D9"/>
<path d="M118.844 106.066C118.844 106.066 117.989 106.199 118.28 107.357C118.569 108.516 119.424 108.081 119.526 108.01C119.628 107.937 120.063 107.72 119.874 106.808C119.686 105.895 118.98 106.041 118.846 106.068L118.844 106.066Z" fill="#D9D9D9"/>
<path d="M116.221 100.477C116.696 101.321 117.177 102.533 117.511 103.751C117.669 104.33 117.8 105.46 118.525 105.532C119.406 105.62 119.223 104.474 119.069 103.91C118.916 103.345 118.38 100.795 117.381 99.2454C116.382 97.6957 115.845 97.1159 115.251 96.5794C114.657 96.0429 113.628 95.3623 113.223 95.7102C112.818 96.0581 112.948 96.5794 113.86 97.2752C114.773 97.971 115.707 99.5594 116.222 100.477H116.221Z" fill="#D9D9D9"/>
<path d="M132.257 87.4586C130.888 85.8608 129.603 84.4528 125.747 82.1218C125.747 82.1218 123.596 80.456 121.466 80.6587C119.338 80.8602 116.865 81.9706 115.955 83.6867C115.046 85.4028 114.138 87.8756 117.469 93.6786C120.8 99.4816 124.434 104.629 126.806 106.95C129.179 109.272 130.44 109.078 130.996 108.897C131.551 108.717 133.821 108.363 136.093 105.992C138.365 103.62 137.939 101.753 137.697 99.3821C137.455 97.01 135.234 90.9341 132.257 87.4609V87.4586Z" fill="#B6B6B6"/>
<path d="M115.118 86.6384C115.152 85.3558 115.553 84.4468 115.956 83.6865C116.864 81.9705 119.338 80.8612 121.467 80.6585C123.596 80.457 125.748 82.1216 125.748 82.1216C129.605 84.4526 130.889 85.8606 132.258 87.4584C133.139 88.4857 133.955 89.7426 134.672 91.0627C134.672 91.0627 131.379 86.6911 129.129 85.1016C126.88 83.512 126.122 83.4874 125.877 83.5366C125.632 83.5858 124.973 83.8541 125.926 85.3944C126.88 86.9348 129.032 89.6243 128.371 90.0155C127.677 90.4267 127.556 89.8574 126.709 88.9156C125.524 87.5978 123.848 85.4928 122.577 84.9305C121.335 84.3812 120.12 84.4667 119.442 84.8263C118.418 85.3698 118.418 86.1031 118.418 86.1031L117.367 85.4916L115.118 86.6361V86.6384Z" fill="#D9D9D9"/>
<path d="M119.198 87.229C119.198 87.229 119.616 86.6913 120.081 86.7405C120.546 86.7897 120.938 86.9361 121.671 87.8404C122.404 88.7447 125.436 93.7571 126.464 95.8351C127.491 97.9131 128.909 100.7 129.104 101.262C129.3 101.824 129.397 102.191 128.738 102.265C128.738 102.265 123.554 93.2428 123.554 93.0472C123.554 92.8516 119.199 87.229 119.199 87.229H119.198Z" fill="#D9D9D9"/>
<path d="M134.986 91.6607C136.517 94.6384 137.537 97.8152 137.697 99.3801C137.938 101.752 138.363 103.619 136.093 105.99C133.821 108.362 131.551 108.715 130.995 108.895C130.44 109.076 129.178 109.27 126.806 106.948C124.434 104.627 120.801 99.4797 117.469 93.6767C115.614 90.446 115.074 88.2473 115.117 86.6378C115.117 86.6378 115.732 83.7363 117.929 85.4536C120.127 87.1708 122.139 90.1204 124.347 93.8711C126.555 97.6219 128.616 101.616 129.304 102.906C129.99 104.197 131.021 105.365 132.248 104.633C133.474 103.902 132.837 101.817 132.445 99.8663C132.052 97.9159 129.69 93.3405 129.569 92.9247C129.447 92.5088 129.373 92.1422 129.69 92.264C130.008 92.3858 131.06 94.6841 131.206 95.0027C131.353 95.3201 133.456 99.2818 134.214 99.6238C134.972 99.9658 135.693 99.8862 135.987 98.689C136.28 97.4907 136.121 95.7126 135.68 94.246C135.24 92.7794 134.986 91.6607 134.986 91.6607Z" fill="#434343"/>
<path d="M135.485 97.5471C135.215 97.109 134.873 96.569 134.457 96.8864C134.042 97.2039 134.531 97.9372 134.849 98.4514C135.166 98.9645 135.362 99.1121 135.729 98.9645C136.095 98.8169 135.767 98.0086 135.484 97.5459L135.485 97.5471Z" fill="#D9D9D9"/>
<path d="M132.844 95.3472C132.844 95.3472 131.133 92.1693 130.399 91.5824C129.666 90.9955 129.372 91.8272 129.617 92.1939C129.861 92.5605 131.182 95.1516 131.817 96.1789C132.453 97.2062 133.528 99.1132 133.699 99.4061C133.87 99.6989 134.197 100.111 134.669 99.8688C135.142 99.6263 134.675 98.6002 134.297 97.7685C133.918 96.9368 132.843 95.3484 132.843 95.3484L132.844 95.3472Z" fill="#D9D9D9"/>
<path d="M124.224 95.3462C124.224 95.3462 120.959 89.7013 119.07 87.6444C117.182 85.5874 116.377 85.933 116.102 86.0302C115.826 86.1274 115.451 86.7377 116.487 89.795C117.538 92.9004 119.333 95.7855 121.451 99.0173C123.578 102.264 126.145 105.858 127.686 106.934C129.226 108.009 129.69 108.148 130.254 107.838C130.838 107.516 129.85 105.82 129.315 104.519C128.59 102.753 124.67 96.1006 124.224 95.3439V95.3462Z" fill="#282828"/>
<path d="M120.067 21.6391C120.067 21.6391 120.406 19.0374 121.048 19.0948C121.738 19.1557 122.028 20.5965 122.028 20.5965C122.028 20.5965 123.629 19.5844 124.097 20.0296C124.695 20.5965 122.779 22.4051 122.779 22.4051C122.779 22.4051 123.699 24.6425 123.024 24.7655C122.349 24.8885 121.261 24.0451 121.108 24.1212C121.108 24.1212 119.866 25.2703 119.712 25.3629C119.559 25.4554 119.161 25.7155 118.961 25.3629C118.762 25.0103 119.314 23.6152 119.314 23.6152C119.314 23.6152 118.241 23.293 118.455 22.8186C118.67 22.3431 120.065 21.6379 120.065 21.6379L120.067 21.6391Z" fill="#FFD26A"/>
<path d="M148.722 3.70143C148.722 3.70143 149.026 0.120514 148.046 0.188455C147.066 0.256395 145.275 4.03879 145.275 4.03879C145.275 4.03879 141.288 4.00482 140.883 4.5788C140.478 5.15277 142.876 7.58457 142.876 7.58457C142.876 7.58457 141.128 11.3681 140.836 11.8074C140.544 12.2467 140.342 13.192 141.321 13.0573C142.301 12.9226 145.611 10.9968 145.78 11.0647C145.949 11.1327 146.962 13.0245 147.943 12.5173C148.922 12.01 148.551 9.27487 148.551 9.27487C148.551 9.27487 150.983 7.7673 152.132 6.62872C153.28 5.4913 154.666 4.5788 153.754 3.63349C153.326 3.19071 152.235 3.45427 151.153 3.56555C149.925 3.69206 148.721 3.70026 148.721 3.70026L148.722 3.70143Z" fill="#FFD26A"/>
<path d="M211.225 40.6746C211.225 40.6746 211.081 38.292 210.02 38.292C208.958 38.292 207.867 41.8225 207.867 41.8225C207.867 41.8225 205.587 42.612 205.628 43.6019C205.657 44.2906 206.489 44.5202 206.489 44.5202C206.489 44.5202 204.949 48.3659 205.618 48.8825C206.287 49.399 208.871 46.2129 208.985 46.3851C209.1 46.5573 210.822 48.107 211.683 47.7345C212.544 47.3608 211.569 43.6159 211.569 43.6159C211.569 43.6159 213.942 41.6831 213.176 40.7894C212.659 40.1861 211.224 40.6746 211.224 40.6746H211.225Z" fill="#FFD26A"/>
<path d="M86.9376 82.2413C86.9376 82.2413 86.9376 79.8915 86.0566 79.7087C85.1756 79.5248 84.5664 82.7555 84.5664 82.7555C84.5664 82.7555 80.9897 83.0495 80.9897 83.8929C80.9897 84.7363 83.2297 86.3891 83.2297 86.3891C83.2297 86.3891 81.1737 90.0228 82.1285 90.4269C83.0833 90.831 85.3959 88.0771 85.3959 88.0771C85.3959 88.0771 86.681 89.4722 87.2317 89.1419C87.7823 88.8116 87.4156 86.0951 87.4156 86.0951C87.4156 86.0951 91.4281 82.8527 89.9859 82.0937C89.2889 81.727 86.9388 82.2401 86.9388 82.2401L86.9376 82.2413Z" fill="#FFD26A"/>
<path d="M175.981 110.96C175.981 110.96 177.476 107.351 178.023 107.752C178.57 108.152 179.154 110.449 179.154 110.449C179.154 110.449 182.487 109.81 182.107 111.142C181.876 111.952 179.773 113.183 179.773 113.183C179.773 113.183 180.94 116.61 180.029 116.792C179.117 116.975 176.675 115.37 176.675 115.37C176.675 115.37 175.05 117.485 173.831 117.704C172.009 118.032 174.779 113.948 174.779 113.948C174.779 113.948 172.144 112.563 173.206 111.834C174.268 111.105 175.982 110.959 175.982 110.959L175.981 110.96Z" fill="#FFD26A"/>
<path d="M158.029 104.526C157.588 104.775 156.261 105.189 156.636 106.056C156.896 106.659 157.759 106.223 158.32 105.931C158.882 105.639 160.109 105.112 159.88 104.45C159.651 103.79 159.11 103.956 158.965 104.018C158.819 104.08 158.183 104.439 158.029 104.526Z" fill="#947EC6"/>
<path d="M127.861 130.747C127.606 130.882 126.27 131.388 126.562 132.137C126.855 132.887 127.586 132.357 127.861 132.229C128.137 132.101 129.471 131.571 129.325 130.875C129.178 130.18 128.37 130.479 127.861 130.747Z" fill="#947EC6"/>
<path d="M95.5588 127.708C94.7504 128.157 89.3192 131.209 89.0954 131.344C88.8705 131.479 87.9286 131.995 88.355 132.713C88.7815 133.431 90.308 132.556 92.4624 131.322C94.6169 130.087 99.5994 127.035 100.183 126.631C100.766 126.227 101.709 125.442 101.215 125.374C100.721 125.307 95.5588 127.708 95.5588 127.708Z" fill="#947EC6"/>
<path d="M83.6866 134.172C83.0587 134.598 80.7016 135.878 80.4099 136.079C80.1182 136.28 78.9056 136.685 79.0181 137.448C79.1306 138.212 79.8264 138.054 80.1404 137.897C80.4544 137.74 84.5395 135.361 84.741 135.272C84.9425 135.182 87.5246 134.06 87.2774 133.23C87.0302 132.4 86.1551 132.737 85.9981 132.804C85.8411 132.871 83.6866 134.173 83.6866 134.173V134.172Z" fill="#947EC6"/>
<path d="M77.065 138.145C77.065 138.145 76.0997 138.615 76.4136 139.222C76.7276 139.829 77.311 139.558 77.4235 139.514C77.536 139.469 78.4779 139.154 78.3431 138.504C78.2084 137.853 77.6918 137.853 77.5805 137.876C77.468 137.899 77.0638 138.146 77.0638 138.146L77.065 138.145Z" fill="#947EC6"/>
<path d="M52.8789 138.863C52.4887 139.101 50.9411 139.694 51.5023 140.569C52.0635 141.444 52.8718 140.748 53.2303 140.569C53.59 140.389 54.8013 139.873 54.5764 139.065C54.3515 138.256 53.2631 138.629 52.8789 138.863Z" fill="#947EC6"/>
<path d="M67.3696 114.446C66.3925 114.939 63.9581 116.308 63.6886 116.556C63.4191 116.803 62.9259 117.61 63.6886 117.947C64.4513 118.283 65.5736 117.342 66.225 116.982C66.8763 116.622 70.8256 114.042 71.1407 113.84C71.4547 113.639 71.9936 113.078 71.5226 112.853C71.0517 112.628 67.8815 114.188 67.3707 114.446H67.3696Z" fill="#947EC6"/>
<path d="M88.1304 92.8812C87.6594 93.1506 84.8313 94.7882 84.5841 94.9229C84.3369 95.0576 83.798 95.6187 84.0675 96.1353C84.3369 96.6519 84.9426 96.4047 85.4815 96.1353C86.0204 95.8659 89.7717 93.8019 90.2977 93.5102C90.8237 93.2186 91.7656 92.7242 91.3626 92.0296C90.9584 91.3338 88.1304 92.8824 88.1304 92.8824V92.8812Z" fill="#947EC6"/>
<path d="M94.4588 89.3573C94.4588 89.3573 93.0893 90.0086 92.978 90.1878C92.8667 90.367 92.5738 90.9281 92.978 91.242C93.3822 91.556 93.9879 91.3158 94.6615 90.9316C95.3351 90.5474 96.277 90.2101 95.9408 89.5365C95.6046 88.863 94.6674 89.2566 94.46 89.3573H94.4588Z" fill="#947EC6"/>
<path d="M110.237 79.3937C110.237 79.3937 102.55 84.2409 101.781 84.7575C101.013 85.2741 97.2648 87.5852 97.0177 87.7644C96.7705 87.9436 96.2316 88.5504 96.8607 88.9311C97.4886 89.313 98.5887 88.438 99.868 87.7422C101.147 87.0464 112.818 80.0005 113.335 79.7311C113.851 79.4617 117.038 77.7784 116.881 76.6796C116.724 75.5797 115.354 76.4547 114.928 76.6796C114.502 76.9045 110.237 79.3949 110.237 79.3949V79.3937Z" fill="#947EC6"/>
</g>
<defs>
<clipPath id="clip0_1257_14553">
<rect width="272" height="156" fill="white"/>
</clipPath>
</defs>
</svg>
