<svg width="28" height="28" viewBox="0 0 28 28" fill="none" xmlns="http://www.w3.org/2000/svg">
<g clip-path="url(#clip0_5407_14057)">
<path d="M6.86303 16.3225L11.2097 20.6691L20.6169 15.7411C21.9387 15.0491 23.0728 14.0466 23.9219 12.8197C24.7709 11.5929 25.3096 10.1783 25.4916 8.69741L26.2795 2.28069C26.2966 2.14158 26.2818 2.0004 26.2362 1.86787C26.1906 1.73534 26.1154 1.61495 26.0163 1.51584C25.9172 1.41673 25.7968 1.34153 25.6643 1.29593C25.5318 1.25034 25.3906 1.23555 25.2515 1.25271L18.8348 2.04054C17.3539 2.22257 15.9393 2.76124 14.7125 3.61031C13.4856 4.45938 12.4831 5.59349 11.791 6.91529L6.86303 16.3225ZM6.86303 16.3225L1.42974 15.2358C1.42974 15.2358 3.60306 8.71588 10.123 9.80254M3.60305 19.5825C1.42974 21.7558 2.5164 25.0158 2.5164 25.0158C2.5164 25.0158 5.77637 26.1024 7.94969 23.9291M18.198 17.8775C19.2846 24.3975 12.7647 26.5708 12.7647 26.5708L11.678 21.1375" stroke="#420A98" stroke-width="1.5" stroke-linecap="round" stroke-linejoin="round"/>
<path d="M15.0502 12.2087C14.5825 11.741 14.3198 11.1067 14.3198 10.4453C14.3198 9.78397 14.5825 9.14968 15.0502 8.68202C15.5178 8.21436 16.1521 7.95163 16.8135 7.95163C17.4748 7.95163 18.1091 8.21436 18.5768 8.68202C19.0445 9.14968 19.3072 9.78397 19.3072 10.4453C19.3072 11.1067 19.0445 11.741 18.5768 12.2087C18.1091 12.6763 17.4748 12.939 16.8135 12.939C16.1521 12.939 15.5178 12.6763 15.0502 12.2087Z" stroke="#420A98" stroke-width="1.5" stroke-linecap="round" stroke-linejoin="round"/>
</g>
<defs>
<clipPath id="clip0_5407_14057">
<rect width="28" height="28" fill="white"/>
</clipPath>
</defs>
</svg>
