<svg width="20" height="20" viewBox="0 0 20 20" fill="none" xmlns="http://www.w3.org/2000/svg">
<g clip-path="url(#clip0_969_404)">
<path d="M10 12.5C11.3807 12.5 12.5 11.3807 12.5 10C12.5 8.61929 11.3807 7.5 10 7.5C8.61929 7.5 7.5 8.61929 7.5 10C7.5 11.3807 8.61929 12.5 10 12.5Z" stroke="#420A98" stroke-width="1.5" stroke-linecap="round" stroke-linejoin="round"/>
<path d="M16.3523 8.66316L15.4376 6.45432L16.667 5.00033L15.0003 3.33366L13.5542 4.56945L11.2985 3.64177L10.7798 1.66699H9.15114L8.62456 3.66793L6.42067 4.59696L5.00033 3.33366L3.33366 5.00033L4.5448 6.49103L3.64408 8.7056L1.66699 9.16699V10.8337L3.66792 11.3799L4.59678 13.5834L3.33366 15.0003L5.00033 16.667L6.49296 15.4506L8.6645 16.3439L9.16699 18.3337H10.8337L11.3374 16.3446L13.5463 15.4299C13.9144 15.6931 15.0003 16.667 15.0003 16.667L16.667 15.0003L15.4303 13.5415L16.3452 11.332L18.3336 10.8146L18.3337 9.16699L16.3523 8.66316Z" stroke="#420A98" stroke-width="1.5" stroke-linecap="round" stroke-linejoin="round"/>
</g>
<defs>
<clipPath id="clip0_969_404">
<rect width="20" height="20" fill="white"/>
</clipPath>
</defs>
</svg>
