<svg width="184" height="153" viewBox="0 0 184 153" fill="none" xmlns="http://www.w3.org/2000/svg">
<g id="Illustration_HDBW_231221_02_passgenaue_Vorschlaege_RZ">
<path id="Vector" d="M74.1767 7.59907C104.45 22.4745 110.225 29.9163 143.972 19.4992C174.216 14.7242 203.285 72.4237 164.582 101.35C140.499 119.35 126.797 110.029 108.635 120.475C90.4716 130.921 95.561 138.828 65.6548 142.226C29.3444 146.351 -7.39815 119.243 2.78636 103.43C16.0107 82.8977 30.4031 76.3316 33.7905 63.4747C38.2367 46.5995 13.4122 27.4743 31.1969 9.8491C47.1889 -5.99941 64.3811 2.99023 74.1767 7.59907Z" fill="#E9D2B1"/>
<path id="Vector_2" d="M115.803 34.2105C115.022 32.0785 111.917 31.5418 109.847 32.4261C108.324 33.0763 107.274 34.5933 105.724 35.1726C99.9619 36.811 97.9239 29.1633 94.743 25.9025C93.0401 24.2301 90.3411 22.9716 87.9694 23.038C86.1576 23.0888 84.721 24.0139 82.9194 24.2138C80.4868 24.4838 78.0135 24.0088 75.5866 24.3277C70.0199 25.0592 64.8275 31.4488 65.0114 37.1272C65.0726 39.017 66.2215 40.3582 66.0666 42.2425C65.9117 44.1267 64.795 45.7258 62.9505 46.0255C61.0799 46.3294 59.2513 44.7683 57.3965 45.1587C54.5235 45.8682 54.1292 49.6927 55.4451 51.9092C63.0897 64.7854 83.8082 63.3693 96.6521 61.1916C109.884 59.2521 119.887 47.4672 115.803 34.2105Z" fill="#282828"/>
<path id="Vector_3" d="M70.752 45.5462C67.8515 51.3952 60.2115 48.8118 55.8971 46.0148C53.0605 48.5504 55.2286 52.8238 57.1642 55.04C70.9626 70.8381 103.485 71.0014 114.27 49.5819C110.892 56.2901 103.773 42.0279 98.9515 38.4716C95.2824 35.8075 93.9476 37.3163 92.2089 41.0515C88.3855 47.5482 76.2129 52.9564 70.752 45.5462Z" fill="#0D0D0D"/>
<path id="Vector_4" d="M106.632 34.7311C107.679 39.1907 100.841 39.6254 100.311 33.609C101.953 35.2397 104.435 36.0766 106.632 34.7311Z" fill="#0D0D0D"/>
<path id="Vector_5" d="M97.655 30.0387C93.543 26.1207 88.848 22.6094 84.5504 28.537C79.1466 24.6352 72.1542 27.6348 66.9512 30.5409C68.0808 28.0485 72.7135 24.0329 76.9447 23.8645C79.0251 23.7817 80.854 24.481 82.9193 24.2154C84.918 23.9585 87.0819 22.7918 89.0962 22.8363C93.1619 22.881 96.0013 26.8272 97.655 30.0387Z" fill="#434343"/>
<path id="Vector_6" d="M75.9369 44.7432C80.9652 43.8475 83.9974 37.3738 85.5919 32.6771C82.8938 37.1792 77.8623 42.0308 72.166 43.5688C73.2387 43.3777 75.3803 43.7102 75.9369 44.7432Z" fill="#434343"/>
<path id="Vector_7" d="M117.124 38.0344C116.696 31.3375 110.841 30.0459 107.402 34.1451C110.673 33.61 112.178 37.4458 112.04 40.2214C112.041 42.9018 112.338 46.4365 115.364 47.3158C115.897 46.0609 117.353 41.6204 117.124 38.0344Z" fill="#434343"/>
<path id="Vector_8" d="M31.6121 45.6538C31.1814 44.4074 29.8225 43.6906 28.5199 43.6156C27.2174 43.5405 27.1013 43.8697 25.8626 44.2844C24.1388 44.7926 19.1848 45.538 18.7041 43.2017C17.5662 43.7784 15.9855 42.9738 15.7644 41.7054C14.6712 41.8485 14.7641 40.3446 15.6641 40.0532C18.7318 39.5458 21.9167 39.5007 24.9465 38.6322C24.2754 38.6692 23.4526 38.5888 22.8779 38.236C22.3033 37.8833 21.6901 37.2082 22.1595 36.7213C23.6047 35.7784 27.9045 36.6083 29.8332 36.5331C30.962 36.5942 32.1581 36.6861 33.076 37.3537C35.1072 38.8737 34.7035 41.9036 35.9238 43.9307C34.3736 44.2145 32.8597 44.7014 31.6121 45.6538Z" fill="#F3C38A"/>
<path id="Vector_9" d="M134.015 39.6765C134.2 35.1255 146.602 38.5483 146.014 33.7178C147.317 33.8868 148.606 32.6298 148.489 31.3061C148.834 31.2383 149.332 30.8387 149.312 30.4883C149.218 29.6877 148.089 29.9458 147.471 30.1032C144.602 30.6085 141.733 31.1138 138.865 31.6191C139.792 31.2314 141.651 30.056 141.279 28.8816C140.984 28.4022 140.26 28.6614 139.779 28.9466C138.305 29.8201 136.702 30.469 135.039 30.865C128.446 32.0442 130.213 34.2581 129.848 39.5415C131.169 39.5589 132.49 39.5764 134.015 39.6765Z" fill="#F3C38A"/>
<path id="Vector_10" d="M140.127 36.8207C138.379 36.8362 133.156 36.4919 132.768 38.7054C133.274 38.8064 133.758 39.016 134.18 39.3163C134.509 36.8769 138.386 37.3059 140.127 36.8207Z" fill="#B58E63"/>
<path id="Vector_11" d="M33.4521 44.4063C32.594 41.231 28.6733 42.9769 26.6465 43.9846C28.727 43.4044 30.9099 43.7279 31.3982 46.0417C32.1376 45.5853 32.877 45.1289 33.4521 44.4063Z" fill="#B58E63"/>
<path id="Vector_12" d="M31.7191 36.7564C30.4953 36.4234 28.4659 36.4331 24.8062 36.2387C24.5873 36.1972 21.2486 36.0573 22.1789 37.6037C22.8929 38.7138 24.796 38.6688 24.796 38.6688C26.0814 37.9884 29.6974 36.8341 31.7191 36.7564Z" fill="#B58E63"/>
<path id="Vector_13" d="M138.906 31.605C136.412 32.0087 132.463 31.1484 130.529 32.834C132.169 30.8183 136.72 30.6927 139.126 28.9017C139.753 28.3796 140.905 28.1732 141.337 29.0142C141.54 30.1851 139.288 31.5641 138.906 31.605Z" fill="#B58E63"/>
<path id="Vector_14" d="M86.3762 30.9077C88.5179 33.3641 91.2469 35.2924 94.2634 36.4806C95.2249 36.8593 96.6764 37.0774 96.9566 37.4302C98.7496 41.091 99.4076 45.33 99.6993 49.3883C100.456 55.3141 95.5213 63.2318 89.0588 60.2744C89.1793 61.4099 89.5099 62.4391 89.6303 63.5746C86.609 64.2137 83.1678 64.445 80.122 64.5423C79.4247 60.4074 78.1914 56.8173 77.1606 52.7105C74.7266 55.0801 71.211 52.4028 70.6499 49.5613C70.3353 48.4929 70.0243 44.8316 72.1661 43.5649C74.6783 42.0791 76.1091 44.2283 76.1091 44.2283C80.9707 42.3651 84.3948 35.8766 86.3762 30.9077Z" fill="#F3C38A"/>
<path id="Vector_15" d="M89.061 60.276C86.5599 59.1347 84.2581 57.4812 82.5096 55.7115C82.1673 57.9137 83.0157 60.5317 84.9779 62.5533C86.0917 64.1069 87.9581 64.2015 89.6391 63.5737C89.4703 62.5707 89.2404 61.2343 89.061 60.276Z" fill="#B58E63"/>
<path id="Vector_16" d="M90.983 69.3315C89.506 66.2294 91.4445 62.2258 88.6898 63.3366C86.37 64.174 83.802 64.292 81.4168 63.6708C80.9038 63.5372 80.3117 63.3835 79.883 63.6983C78.4885 64.7293 81.6687 68.015 80.3876 72.4344" fill="#292F73"/>
<path id="Vector_17" d="M90.2772 65.1443C89.4466 67.3857 85.4593 65.4606 84.5391 64.0625C86.2162 63.9093 87.4971 63.5627 88.6777 62.9422C88.8358 62.8591 89.4637 62.6349 89.6371 62.6764C90.5158 62.9526 90.3899 64.6611 90.2772 65.1443Z" fill="#475196"/>
<path id="Vector_18" d="M130.422 65.5305C133.194 57.1699 135.337 47.8147 134.128 39.0537C133.346 38.2816 130.604 38.0256 129.849 38.9294C128.927 44.3163 127.777 49.8684 125.895 55.1238C125.134 57.5126 124.298 60.0208 122.443 61.687C124.665 62.9829 126.886 64.2788 130.422 65.5305Z" fill="#292F73"/>
<path id="Vector_19" d="M129.585 64.9922C126.458 56.2955 131.686 47.3724 131.879 38.7293C131.398 38.1228 129.74 38.426 129.429 39.0991C129.296 39.408 129.383 39.7621 129.439 40.0943C129.636 41.2554 128.899 44.6223 128.594 45.7594C124.288 64.986 118.616 59.6017 129.585 64.9922Z" fill="#1D273D"/>
<path id="Vector_20" d="M132.315 56.9564C132.839 52.2955 133.106 47.4093 133.106 39.8088C133.106 39.4626 133.231 39.0592 133.548 38.9288C134.257 38.7177 134.54 39.6301 134.485 40.2027C134.529 43.9244 134.423 47.648 134.167 51.361C133.889 55.4095 133.038 59.638 131.158 63.2228C131.211 62.7448 132.185 58.1117 132.315 56.9564Z" fill="#475196"/>
<path id="Vector_21" d="M88.6784 69.2111C85.9683 68.9266 83.5349 66.7867 83.2083 63.9935C81.9912 63.9102 78.795 62.4773 79.4773 64.9471C80.7514 68.0602 80.4748 68.8484 80.2677 71.1895C82.6822 69.4809 86.1259 70.3974 88.6784 69.2111Z" fill="#1D273D"/>
<path id="Vector_22" d="M48.4016 60.5968C43.7037 56.3232 39.8981 51.0495 37.3054 45.2197C37.0247 44.5883 36.7058 43.8955 36.0802 43.6153C34.3177 42.826 30.6688 45.1698 31.065 45.9047C34.0329 54.7298 39.114 62.2108 46.0354 68.3616C46.4342 65.7139 47.1494 63.1151 48.4016 60.5968Z" fill="#292F73"/>
<g id="Group">
<path id="Vector_23" d="M108.58 103.861C116.632 102.046 127.032 103.992 134.12 108.263C135.968 109.377 138.294 109.34 137.824 113.217C135.938 120.897 114.37 123.8 107.379 124.059C105.479 124.117 103.207 124.307 102.301 125.998C101.834 126.869 101.864 127.97 101.293 128.776C100.537 129.843 99.0502 130.012 97.7523 130.012C75.4515 130.226 40.1038 116.145 37.3063 96.0814C37.0531 94.2657 39.6483 92.9364 41.4574 93.0148C47.3299 93.2694 68.1717 98.254 69.9272 98.7034C90.4373 103.953 87.0621 108.712 108.58 103.861Z" fill="#C9DEF1"/>
<path id="Vector_24" d="M108.58 103.861C116.632 102.046 127.032 103.992 134.12 108.263C135.968 109.377 138.294 109.34 137.824 113.217C135.938 120.897 114.37 123.8 107.379 124.059C105.479 124.117 103.207 124.307 102.301 125.998C101.834 126.869 101.864 127.97 101.293 128.776C100.537 129.843 99.0502 130.012 97.7523 130.012C75.4515 130.226 40.1038 116.145 37.3063 96.0814C37.0531 94.2657 39.6483 92.9364 41.4574 93.0148C47.3299 93.2694 68.1717 98.254 69.9272 98.7034C90.4373 103.953 87.0621 108.712 108.58 103.861Z" fill="#CCDCEE"/>
</g>
<path id="Vector_25" d="M111.197 105.341C115.391 110.013 121.415 112.954 127.639 113.366C114.375 112.662 100.984 114.5 88.3836 118.752C93.0134 119.73 103.756 118.275 104.411 124.609C85.4833 122.672 68.5449 112.918 52.3457 103.454C56.0533 101.256 60.6959 101.98 64.9406 102.653C80.177 105.069 95.6525 105.937 111.197 105.341Z" fill="#8AA0BC"/>
<path id="Vector_26" d="M91.1144 130.567C71.3371 128.501 44.4076 118.563 37.9883 99.1456C51.5724 112.704 60.0772 121.634 79.8364 126.085C84.0451 127.151 88.7467 127.877 92.5217 125.713C92.6587 127.435 92.2804 129.196 91.1144 130.567Z" fill="#8AA0BC"/>
<path id="Vector_27" d="M46.0941 64.8334C40.9896 58.8296 35.2254 53.241 33.3731 43.9269C32.6991 44.0598 30.5692 44.6492 30.9671 46.2892C31.8993 50.8544 41.5993 65.9521 45.9089 69.4584L47.5145 67.0209" fill="#1D273D"/>
<path id="Vector_28" d="M47.4521 61.7379C47.4521 61.7379 39.9183 52.9878 38.1892 49.6128C36.4602 46.2377 34.2988 43.5814 34.2988 43.5814C34.2988 43.5814 36.1316 42.8274 36.3367 43.3002C36.5417 43.773 40.1653 50.4878 41.7709 52.8628C43.3764 55.2378 47.4521 59.6754 47.4521 59.6754V61.7379Z" fill="#475196"/>
<path id="Vector_29" d="M134.679 67.1568C131.765 66.9861 129.309 63.7372 127.148 61.7519C123.425 58.0049 117.124 58.3809 113.604 62.2867C112.095 63.9822 109.477 65.9765 107.675 67.3483C100.216 73.3634 90.3374 66.6895 82.0317 69.5726C71.7318 74.3902 67.037 77.6178 61.5517 64.9615C59.1477 58.0714 49.8495 53.5362 44.8455 59.9785C43.2917 62.6038 43.647 67.3365 42.2689 70.0607C41.5887 71.4051 40.5556 71.5998 39.9957 72.9999C37.2833 84.5262 50.5826 92.4682 60.9859 89.7771C63.4325 89.0293 68.0382 89.1279 70.4991 89.8265C72.96 90.525 73.0242 92.4515 72.0212 94.8308C71.4873 96.0973 70.2695 96.9126 69.4467 98.0093C64.3323 106.587 76.1617 111.94 82.9198 113.269C91.7414 115.306 98.6595 114.488 106.712 110.312C109.859 108.68 113.731 105.971 113.141 102.443C112.031 97.9197 106.592 96.6817 103.402 93.9658C96.5086 88.6954 102.206 86.5511 107.825 86.6416C112.094 86.9606 113.371 87.5789 117.639 87.9118C125.815 88.8511 136.353 86.273 138.757 77.2883C139.809 73.0889 138.055 67.3546 134.679 67.1568Z" fill="#EA9C47"/>
<path id="Vector_30" d="M110.469 152.056C105.409 153.772 99.6225 150.026 99.0435 144.656C98.5648 141.506 100.096 137.98 98.4852 135.042C96.9733 132.828 95.332 134.194 93.4533 134.911C91.7189 135.369 89.7534 133.917 89.6551 132.106C89.5842 130.798 90.3259 129.607 90.7286 128.362C92.6306 120.119 84.1948 120.695 103.932 123.205C105.111 123.355 105.825 123.958 105.901 125.21C107.433 133.047 109.227 140.846 110.759 148.683C110.995 149.894 111.183 151.303 110.469 152.056Z" fill="#292F73"/>
<path id="Vector_31" d="M95.017 134.22C95.1726 133.97 94.9378 133.777 94.5836 133.57C92.198 132.542 93.1266 131.003 92.3681 128.812C91.7854 127.163 90.7276 128.36 90.7276 128.36C90.7276 128.36 89.8573 130.187 89.6493 130.828C89.4197 131.536 89.2924 132.723 90.2958 134.001C91.3151 135.346 93.9498 135.513 95.017 134.22Z" fill="#475196"/>
<path id="Vector_32" d="M107.677 152.448C106.897 151.003 105.387 150.38 104.366 149.098C101.417 145.015 104.698 138.78 97.9707 134.436C100.069 137.997 98.2036 142.487 99.1549 146.331C99.9513 150.207 103.824 152.935 107.677 152.448Z" fill="#475196"/>
<path id="Vector_33" d="M110.97 149.26C110.577 147.273 107.529 132.094 106.108 124.906C106.063 124.681 105.809 123.869 105.396 123.643C103.988 122.874 86.976 116.893 90.955 124.398C93.3818 123.98 101.622 124.179 103.54 127.7C106.883 135.377 107.844 144.106 109.57 152.286C111.296 152.333 111.187 150.522 110.97 149.26Z" fill="#1D273D"/>
<path id="Vector_34" d="M127.636 113.364C128.136 113.415 129.646 113.646 130.089 113.885C130.532 114.124 130.854 114.677 130.664 115.148C130.401 115.802 129.505 115.721 128.808 115.68C117.987 115.039 108.796 115.607 98.3171 118.053C97.5313 118.236 96.4264 118.393 96.214 117.606C96.1051 117.202 96.4462 116.532 96.7921 116.303C106.526 113.332 118.422 112.456 127.636 113.364Z" fill="#E7F1FC"/>
<path id="Vector_35" d="M80.9108 118.205C81.5823 118.477 83.9667 119.393 84.5414 119.837C85.9393 121.135 84.83 122.273 83.0738 122.057C78.0188 121.437 45.3436 105.283 47.2586 100.799C47.4358 100.384 48.4736 100.802 48.887 101.072C59.9774 108.311 72.1349 114.656 80.9108 118.205Z" fill="#E7F1FC"/>
<path id="Vector_36" d="M62.3392 97.1617C55.0372 95.4426 45.8929 96.7499 40.2263 96.975C38.0555 97.0612 37.9383 94.183 39.8393 93.3189C40.7675 92.8991 41.7707 92.8624 43.1295 93.078C50.5407 94.2539 56.9042 95.1984 64.5996 97.433C63.4553 97.2928 62.5996 97.2156 62.3392 97.1617Z" fill="#E7F1FC"/>
<path id="Vector_37" d="M137.153 109.974C130.857 109.19 124.632 107.816 118.585 105.875C117.978 105.68 115.071 104.915 116.95 103.824C119.225 102.504 131.877 105.275 137.153 109.974Z" fill="#E7F1FC"/>
<path id="Vector_38" d="M127.742 66.2611C123.573 65.4221 119.506 64.3016 115.939 67.1995C114.773 68.1145 113.779 69.3037 112.421 69.8864C111.063 70.4691 109.131 70.1159 108.665 68.6992C107.839 66.2081 113.424 62.1285 115.256 60.7097C117.062 59.504 118.981 59.0766 121.138 58.9128C125.415 58.5881 135.124 67.7467 127.742 66.2611Z" fill="#FCCA95"/>
<path id="Vector_39" d="M67.3732 73.1196C54.1476 72.6336 54.4589 56.2246 43.4668 65.1582C43.7267 55.6567 52.7528 55.0883 58.1623 59.3142C61.9815 62.656 63.1999 70.697 67.3732 73.1196Z" fill="#FCCA95"/>
<path id="Vector_40" d="M103.403 93.967C105.455 96.8295 105.549 98.2282 105.559 100.696C104.968 115.09 80.6964 112.644 71.7207 108.523C83.34 116.913 102.871 117.131 111.9 107.08C113.24 105.588 113.574 103.302 112.829 101.432C110.913 97.292 107.053 96.9305 103.403 93.967Z" fill="#AF6A1D"/>
<path id="Vector_41" d="M71.1814 96.0837C77.3738 91.6929 74.8367 84.2455 67.8138 82.7481C62.3348 81.3835 56.4383 83.3558 51.0157 81.6227C40.9991 77.8275 46.9761 70.8747 43.2834 66.3046C42.5764 71.9061 39.8606 70.302 39.6288 74.6708C39.3158 80.5704 42.1751 85.1943 46.7597 87.6085C49.7648 89.4954 54.0962 90.2128 57.6325 90.2128C59.697 90.2128 61.6749 89.5785 64.1465 89.2958C68.3475 88.683 75.4299 90.2677 71.1814 96.0837Z" fill="#AF6A1D"/>
<path id="Vector_42" d="M131.441 65.7974C138.745 71.5603 137.456 81.8347 127.501 83.4283C119.08 84.7764 110.158 82.1284 101.955 84.744C98.9387 86.0083 97.9896 90.125 101.145 91.8495C98.6438 88.9142 102.071 87.1675 104.557 86.9432C113.574 86.1299 117.485 89.6825 127.959 87.2017C136.599 85.5561 140.508 78.9148 139.247 72.5836C138.909 70.5964 137.537 67.2283 134.121 67.0367C133.229 66.9866 132.386 66.1779 131.441 65.7974Z" fill="#AF6A1D"/>
<path id="Vector_43" d="M109.843 68.4576C107.384 74.8579 98.9809 73.5435 94.7793 69.544C102.632 70.7048 105.929 69.369 110.783 64.488C110.401 66.6613 110.011 67.9439 109.843 68.4576Z" fill="#AF6A1D"/>
<path id="Vector_44" d="M74.5929 72.9452C71.8664 76.6326 66.1819 75.5403 65.1602 71.0389C67.3983 74.4782 71.3173 74.0542 74.5929 72.9452Z" fill="#AF6A1D"/>
<path id="Vector_45" d="M77.6998 93.7438C73.6288 97.3267 75.4526 101.276 79.4916 103.645C82.9396 106.036 91.9419 105.643 93.6538 109.054C94.4926 114.766 79.7578 111.905 76.6157 111.067C71.166 109.614 64.7405 103.194 69.7283 97.6619C73.1757 93.8491 76.8428 90.7525 77.4722 85.1224C78.9995 77.2065 88.2694 83.6873 77.6998 93.7438Z" fill="#FCCA95"/>
<path id="Vector_46" d="M146.457 10.8175C146.457 10.8175 148.508 11.1285 149.868 11.3298C150.157 11.3727 150.468 11.4261 150.675 11.6357C150.941 11.9047 150.944 12.3321 150.929 12.712C150.551 17.114 150.86 21.8226 149.785 26.0642C149.432 26.4419 148.846 26.4343 148.334 26.3897C140.786 25.446 133.265 23.8286 125.839 22.2594C125.337 21.9056 125.43 21.1415 125.57 20.539C126.408 16.9289 126.91 13.239 127.067 9.53399C127.036 8.76373 127.454 8.04519 128.272 8.30868C130.343 8.6537 134.222 9.13124 134.222 9.13124C134.222 9.13124 134.48 7.10141 134.929 6.97115C136.01 6.65781 139.138 7.46278 142.945 8.3216C143.178 8.37424 146.304 8.94416 146.468 9.12036C146.738 9.41153 146.457 10.8175 146.457 10.8175Z" fill="#7946C6"/>
<path id="Vector_47" d="M146.455 10.8149C146.712 10.8664 146.828 10.8785 147.086 10.9301C146.876 12.0685 147.278 14.4357 145.886 14.3394C143.275 14.1587 138.906 13.128 135.43 12.6736C134.863 12.5712 134.249 12.4429 133.875 11.9997C133.277 11.3706 133.084 8.40671 134.525 9.20942C134.019 10.6669 135.8 11.4292 136.985 11.4869C139.699 11.8835 142.254 12.7054 144.967 13.102C146.243 13.4187 146.448 11.7557 146.455 10.8149Z" fill="#453075"/>
<path id="Vector_48" d="M145.999 16.8952C146.658 16.9776 148.321 17.052 148.284 17.7223C148.261 18.1354 145.845 17.5574 144.643 17.3234C140.263 16.5803 123.654 13.6549 130.115 14.1601C135.645 15.1506 141.251 16.3011 145.999 16.8952Z" fill="#453075"/>
<path id="Vector_49" d="M145.576 19.2715C146.052 19.3135 147.77 19.2368 147.831 19.7173C147.881 20.1144 145.16 19.6796 144.048 19.4813C138.731 18.5331 128.705 16.9112 128.518 16.5304C128.097 15.6759 130.389 16.3932 131.32 16.5459C136.32 17.3659 141.339 18.8984 145.576 19.2715Z" fill="#453075"/>
<path id="Vector_50" d="M142.727 21.985C142.854 22.0454 142.978 22.1358 143.118 22.1241C144.522 21.1099 133.719 19.9227 132.298 19.5846C131.199 19.3973 129.234 18.0878 129.052 19.2013C128.9 20.1378 139.351 20.3838 142.727 21.985Z" fill="#453075"/>
<path id="Vector_51" d="M133.3 9.0144C131.959 10.0866 129.962 8.45338 128.629 9.48937C127.393 10.4432 126.944 20.7233 127.346 22.5671C126.708 22.4348 125.462 22.5202 125.416 21.5827C125.21 17.4225 126.708 13.3425 126.994 9.29785C127.042 8.62102 127.321 7.87552 128.135 8.13431C129.884 8.41775 131.58 8.62498 133.3 9.0144Z" fill="#947EC6"/>
<path id="Vector_52" d="M135.685 6.9091C135.189 8.17777 135.216 9.95752 136.823 10.2787C138.595 10.9138 140.395 11.4682 142.216 11.9395C142.656 12.0416 143.267 12.243 143.224 12.8002C140.251 12.3108 134.91 11.8067 134.356 10.6981C133.97 9.92578 134.267 8.95809 134.307 8.13798C134.412 7.25208 134.606 6.6573 135.685 6.9091Z" fill="#947EC6"/>
<path id="Vector_53" d="M150.546 11.5262C150.546 15.4135 149.984 18.5494 149.707 22.0672C149.66 22.6636 149.669 23.3576 149.244 23.7734C144.998 27.9274 134.881 22.6868 129.43 23.016C135.887 24.4225 140.853 25.548 147.302 26.282C147.302 26.282 149.052 26.5874 149.635 26.1888C150.315 25.7231 150.358 23.5347 150.41 22.8753C150.891 16.7649 151.747 11.9751 150.546 11.5262Z" fill="#453075"/>
<path id="Vector_54" d="M26.6831 79.6649C26.6831 79.6649 28.8741 79.0902 30.2711 78.7392C30.5687 78.6645 30.8916 78.5919 31.1839 78.7279C31.559 78.9023 31.7526 79.3532 31.9075 79.7613C33.5066 84.5828 35.8897 89.3963 36.756 94.3618C36.5849 94.9078 36.0176 95.1431 35.5059 95.3081C28.0453 97.4881 20.2915 98.5767 12.7038 100.238C11.6662 100.585 11.1556 99.5265 11.0128 98.5593C8.19178 82.4776 3.03951 85.957 14.2495 82.9018C14.2495 82.9018 13.5924 80.6477 13.9665 80.3235C14.8666 79.5435 18.2326 79.0979 22.2751 78.4277C22.5228 78.3867 25.7819 77.6933 26.0179 77.8118C26.4078 78.0076 26.6831 79.6649 26.6831 79.6649Z" fill="#7946C6"/>
<path id="Vector_55" d="M26.6847 79.6622C26.9549 79.6101 27.153 79.5214 27.4232 79.4693C27.7088 80.7283 29.0258 82.6935 27.7889 83.5737C24.8159 85.6894 20.5368 85.1871 16.9938 86.1478C16.403 86.2747 15.7553 86.3936 15.1982 86.0799C14.407 85.7279 12.7999 82.6046 14.5806 82.8581C14.7096 84.5333 16.7085 84.7131 17.9602 84.2473C20.7456 83.5417 23.5689 83.3514 26.3542 82.6456C27.7804 82.3961 27.0492 80.6069 26.6847 79.6622Z" fill="#453075"/>
<path id="Vector_56" d="M29.0322 86.2338C29.7019 86.0479 31.3345 85.4367 31.5976 86.1612C31.7597 86.6077 29.1791 86.9983 27.9191 87.2493C22.3289 88.3627 11.5259 91.0269 11.1486 90.5896C10.7747 90.1563 12.0296 90.0393 12.5415 89.9285C18.2997 88.6824 24.2024 87.5746 29.0322 86.2338Z" fill="#453075"/>
<path id="Vector_57" d="M29.6847 88.9227C30.1618 88.7693 31.7795 87.9756 32.0516 88.459C32.2764 88.8584 29.4667 89.5269 28.3093 89.7783C22.7751 90.9802 12.4133 93.4223 12.0633 93.0971C11.278 92.3676 13.8015 92.1759 14.7648 91.9513C19.9373 90.7451 25.4453 90.2851 29.6847 88.9227Z" fill="#453075"/>
<path id="Vector_58" d="M28.1527 92.9703C28.3019 92.9813 28.4609 93.0259 28.5902 92.9553C29.4747 91.3023 18.6158 94.5149 17.0564 94.7559C15.9156 95.0139 13.4435 94.4432 13.7649 95.6966C14.0352 96.7507 24.1936 92.6764 28.1527 92.9703Z" fill="#453075"/>
<path id="Vector_59" d="M13.3108 83.1577C12.4988 84.8485 9.85205 83.9483 9.03155 85.5974C8.67733 86.3453 8.94411 87.2874 9.21472 88.1202C10.5392 92.1964 11.3711 96.3176 13.5453 100.064C12.873 100.189 11.7369 100.715 11.3274 100.049C8.82363 95.9751 8.90162 90.4718 7.3746 86.0727C7.14638 85.3874 7.00658 84.4509 7.95301 84.3686C9.76089 83.9431 11.4839 83.4589 13.3108 83.1577Z" fill="#947EC6"/>
<path id="Vector_60" d="M14.6635 79.9373C14.8013 80.9912 14.9921 82.5261 16.0871 82.8794C18.3289 83.6027 20.8561 82.7334 23.1847 82.5504C23.6786 82.467 24.3451 82.4571 24.5368 83.0429C21.4694 83.7591 16.4527 84.9567 15.074 84.4969C14.1542 84.1902 14.2139 82.6912 13.8865 81.8087C13.6241 80.8998 13.4587 80.1286 14.6635 79.9373Z" fill="#947EC6"/>
<path id="Vector_61" d="M31.0105 78.6712C32.7423 82.7838 33.599 86.3345 34.9001 90.171C35.1207 90.8214 35.3449 91.5151 35.2152 92.168C35.0652 92.9235 34.4774 93.4482 33.893 93.8698C28.5646 97.8666 21.7286 96.9812 15.8945 99.5529C22.7295 98.3629 27.9376 97.5258 34.4652 95.6277C34.4652 95.6277 36.2842 95.2248 36.6666 94.5615C37.1132 93.7867 36.1154 91.2563 35.8715 90.5372C33.6113 83.8732 32.3652 78.6479 31.0105 78.6712Z" fill="#453075"/>
<path id="Vector_62" d="M42.6247 19.4052C42.6044 19.5302 46.1449 19.5716 47.197 20.1187C47.4788 20.3577 47.4824 20.7374 47.4665 21.0748C47.2962 24.7093 47.0151 28.34 46.6234 31.9622C46.6473 33.0322 45.6699 33.3758 44.7127 33.2229C41.7362 33.0059 38.7951 32.5316 35.8603 32.058C31.0656 31.2843 26.271 30.5106 21.4763 29.737C20.511 29.7071 20.2511 28.8638 20.5569 28.0265C24.2152 15.7334 18.1427 16.6269 29.7384 17.8944C29.7384 17.8944 30.0112 16.0916 30.4882 15.9759C31.6356 15.6976 34.9548 16.4125 38.9941 17.1753C39.2417 17.2221 42.5585 17.7283 42.7323 17.8848C43.0195 18.1434 42.6247 19.4052 42.6247 19.4052Z" fill="#7946C6"/>
<path id="Vector_63" d="M42.6254 19.4074C42.8983 19.4532 43.2891 19.4911 43.5619 19.5369C43.3502 20.6158 43.5098 22.5337 42.1182 22.5248C39.1312 22.5057 34.7131 21.4492 31.023 21.0453C30.4213 20.9543 29.7695 20.8403 29.3726 20.4467C28.6688 19.7913 28.6394 17.2208 30.0629 17.9684C29.5402 19.3882 31.6607 19.7601 32.7398 19.99C35.3797 20.5526 38.2924 20.8874 41.1433 21.4258C42.3696 21.6573 42.6568 20.3608 42.6254 19.4074Z" fill="#453075"/>
<path id="Vector_64" d="M42.2355 24.7925C42.9341 24.8656 44.6994 24.9317 44.6601 25.5271C44.6359 25.894 42.0719 25.3807 40.7963 25.1728C35.1371 24.2506 23.999 22.8326 23.8185 22.4063C23.6397 21.9839 24.8579 22.2854 25.3795 22.3636C31.248 23.2429 37.1969 24.2648 42.2355 24.7925Z" fill="#453075"/>
<path id="Vector_65" d="M41.7858 26.905C42.2917 26.9423 44.1148 26.8741 44.1789 27.3009C39.672 27.5324 24.1047 24.6304 23.685 24.4709C23.2385 23.7114 25.6709 24.3486 26.659 24.4842C31.9647 25.2125 37.2902 26.5736 41.7858 26.905Z" fill="#453075"/>
<path id="Vector_66" d="M38.7646 29.3114C38.8996 29.365 39.0305 29.4454 39.1791 29.4349C40.596 28.5094 29.1977 27.487 27.6981 27.1794C26.5311 27.0131 24.4465 25.85 24.2537 26.839C24.0916 27.6707 35.1822 27.8893 38.7646 29.3114Z" fill="#453075"/>
<path id="Vector_67" d="M28.7589 17.7922C27.3364 18.7443 25.2164 17.2939 23.8024 18.2141C23.1774 18.6369 23.056 19.388 22.9812 20.0626C22.615 23.3645 21.7712 26.5474 22.3283 29.8754C21.6514 29.758 20.4691 29.8359 20.4395 29.1993C20.2964 26.1295 21.7648 21.634 22.0678 18.044C22.1273 17.3361 22.4863 16.8003 23.2783 17.0105C25.1343 17.2623 26.9341 17.4463 28.7589 17.7922Z" fill="#947EC6"/>
<path id="Vector_68" d="M31.2902 15.9189C30.7113 17.2316 30.884 18.6271 32.4981 18.9117C34.3784 19.4758 36.2889 19.9682 38.2216 20.3868C38.6432 20.4777 39.2704 20.5502 39.2394 21.084C36.0733 20.6441 31.7673 20.1621 29.8804 19.2842C29.165 18.9514 29.7825 17.7417 29.8285 17.0104C29.9424 16.1081 30.2495 15.718 31.2902 15.9189Z" fill="#947EC6"/>
<path id="Vector_69" d="M47.114 20.0983C47.114 23.5509 46.4646 26.2648 46.171 29.3892C46.1212 29.9189 46.0577 30.4805 45.6798 30.9046C39.9456 33.9869 30.7915 29.9389 24.5605 30.2354C31.4126 31.4846 36.7751 32.4808 43.6185 33.1327C43.6185 33.1327 45.5542 33.5306 46.1722 33.1765C46.8942 32.7629 46.7549 30.7574 46.81 30.1718C47.32 24.7446 48.3884 20.4969 47.114 20.0983Z" fill="#453075"/>
<path id="Vector_70" d="M157.002 83.8475C157.002 83.8475 158.952 83.4155 160.194 83.1533C160.459 83.0974 160.746 83.0441 160.995 83.1675C161.316 83.3258 161.463 83.7147 161.579 84.0662C162.741 88.21 164.595 92.3842 165.106 96.6227C164.929 97.0831 164.42 97.2685 163.963 97.3956C157.123 99.0102 150.074 100.002 143.139 101.004C142.586 100.846 142.408 100.118 142.325 99.5226C141.828 95.9543 141.014 92.4233 139.896 88.9917C139.622 88.3172 139.701 87.5174 140.522 87.4787C142.428 87.1143 145.94 86.2778 145.94 86.2778C145.94 86.2778 145.475 84.3416 145.82 84.0754C146.647 83.4349 149.621 83.1436 153.199 82.6789C153.418 82.6504 156.31 82.1454 156.511 82.2524C156.843 82.4293 157.002 83.8475 157.002 83.8475Z" fill="#7946C6"/>
<path id="Vector_71" d="M157.004 83.8452C157.243 83.808 157.421 83.7376 157.661 83.7003C157.855 84.791 159.003 86.7258 157.778 87.204C155.417 88.1255 151.34 88.3878 148.185 89.113C147.66 89.2055 147.087 89.2898 146.614 89.0082C145.919 88.6713 144.696 85.9749 146.232 86.2492C146.272 87.7069 148.039 87.8726 149.126 87.5204C151.604 86.9925 154.089 86.9043 156.566 86.3764C157.806 86.2213 157.293 84.678 157.004 83.8452Z" fill="#453075"/>
<path id="Vector_72" d="M158.736 89.4971C159.333 89.3563 160.794 88.8787 160.989 89.5024C161.109 89.8867 158.827 90.1518 157.71 90.3325C153.694 91.0874 138.287 93.8771 144.093 92.2106C149.204 91.3008 154.435 90.5121 158.736 89.4971Z" fill="#453075"/>
<path id="Vector_73" d="M159.179 91.8066C159.605 91.6886 161.062 91.0552 161.277 91.4738C161.454 91.8197 158.957 92.3153 157.93 92.499C153.018 93.3774 143.811 95.1854 143.521 94.8994C142.868 94.2578 145.09 94.1606 145.946 93.9946C150.541 93.1031 155.394 92.8555 159.179 91.8066Z" fill="#453075"/>
<path id="Vector_74" d="M157.63 95.2081C157.76 95.2214 157.897 95.2635 158.014 95.2068C158.842 93.8219 149.198 96.276 147.812 96.4379C146.799 96.6277 144.659 96.0772 144.879 97.1526C145.064 98.0571 154.173 94.8543 157.63 95.2081Z" fill="#453075"/>
<path id="Vector_75" d="M145.104 86.4724C144.308 87.8905 142.032 87.055 141.231 88.4374C140.883 89.0649 141.07 89.8739 141.266 90.5899C142.226 94.0948 142.848 97.5253 144.568 100.772C143.973 100.86 143.043 101.373 142.716 100.792C140.728 97.2632 140.875 92.5833 139.754 88.7987C139.579 88.1912 139.531 87.402 140.346 87.3631C141.952 87.0482 143.487 86.6811 145.104 86.4724Z" fill="#947EC6"/>
<path id="Vector_76" d="M146.449 83.7672C146.517 84.671 146.668 85.8592 147.551 86.3091C149.575 86.7208 151.739 86.3089 153.791 86.2147C154.218 86.1595 154.808 86.1577 154.952 86.6694C152.224 87.1983 147.223 88.1073 146.583 87.6596C145.904 87.1845 145.918 86.1005 145.675 85.34C145.48 84.5333 145.404 83.8951 146.449 83.7672Z" fill="#947EC6"/>
<path id="Vector_77" d="M160.849 83.1105C162.164 86.6569 162.739 89.7021 163.689 93.0022C163.85 93.5617 164.093 94.1867 163.867 94.7106C161.676 99.7782 151.078 98.4377 146.545 100.499C152.597 99.6644 157.22 99.0813 163.037 97.6362C163.037 97.6362 164.652 97.3409 165.02 96.7862C165.451 96.1383 164.734 94.1172 164.556 93.4986C162.905 87.7663 162.038 83.1261 160.849 83.1105Z" fill="#453075"/>
<path id="Vector_78" d="M162.443 10.8936C163 9.04874 164.554 6.81168 165.315 10.3645C169.893 8.80447 168.923 10.9604 166.257 12.9255C167.65 16.1986 165.978 16.7203 164.039 14.42C162.366 15.9996 158.932 18.2305 161.218 13.3463C158.284 11.666 161.237 11.0169 162.443 10.8936Z" fill="#FFD26A"/>
<path id="Vector_79" d="M153.711 25.7142C153.267 26.5433 155.751 27.8795 156.423 28.513C156.753 28.8601 157.338 28.7464 157.249 28.1985C156.83 27.0351 154.278 25.3109 153.711 25.7142Z" fill="#FFD26A"/>
<path id="Vector_80" d="M153.226 28.5074C152.544 28.8285 153.506 30.9662 154.033 31.2028C154.318 31.3094 154.474 31.0198 154.383 30.7672C154.212 29.9118 153.836 28.4388 153.226 28.5074Z" fill="#FFD26A"/>
<path id="Vector_81" d="M7.4316 100.904C6.44777 100.242 4.43361 101.986 3.1478 102.923C2.98445 103.042 2.80421 103.221 2.86291 103.415C3.65434 104.361 8.0032 101.289 7.4316 100.904Z" fill="#FFD26A"/>
<path id="Vector_82" d="M8.53135 102.415C7.88238 101.793 6.3026 106.847 7.22593 107.068C8.29098 106.601 9.01883 102.476 8.53135 102.415Z" fill="#FFD26A"/>
<path id="Vector_83" d="M10.4198 103.846C10.0793 103.765 9.8208 104.608 9.77255 105.101C9.67581 106.584 9.84163 108.77 10.7023 107.821C10.7983 107.642 10.8907 103.958 10.4198 103.846Z" fill="#FFD26A"/>
<path id="Vector_84" d="M7.51028 75.2641C5.23417 79.9929 2.91253 79.3747 4.20733 74.4571C0.0937592 74.0693 -0.745494 73.0065 4.37781 71.2367C4.14163 67.6684 5.35932 67.0501 7.30902 70.0876C11.8908 67.5453 11.894 69.4297 9.57506 72.2338C13.5939 75.7877 11.61 76.1751 7.51028 75.2641Z" fill="#FFD26A"/>
<path id="Vector_85" d="M36.3744 76.0534C36.2692 75.316 33.3604 76.2221 33.4554 77.2633C33.9265 77.8578 36.6656 76.6671 36.3744 76.0534Z" fill="#FFD26A"/>
<path id="Vector_86" d="M34.1911 73.1155C33.4268 72.2818 31.9675 75.9542 31.8432 76.6971C31.725 78.413 34.7738 73.0117 34.1911 73.1155Z" fill="#FFD26A"/>
<path id="Vector_87" d="M50.0191 10.6276C50.3537 8.52464 52.0534 6.6947 52.4831 9.94978C56.8109 8.93558 53.8257 11.7511 52.7125 12.3498C52.7125 12.3498 53.6691 15.2801 52.8174 15.7519C51.8884 16.2665 50.7681 15.0954 50.4732 14.0653C48.9052 15.5134 48.1357 15.4053 47.8897 15.2622C47.112 14.9172 48.6487 13.0071 48.8833 12.4457C48.2728 12.0596 47.7514 11.7703 47.8816 11.2786C48.0673 10.5777 49.1664 10.7978 50.1108 10.5709C50.1199 10.5758 50.129 10.5808 50.0191 10.6276Z" fill="#FFD26A"/>
<path id="Vector_88" d="M44.4617 36.7027C43.9312 37.0648 44.931 38.721 45.4014 39.3729C46.363 39.7808 44.737 36.1678 44.4617 36.7027Z" fill="#FFD26A"/>
<path id="Vector_89" d="M46.5381 35.3471C45.6748 35.6772 50.3768 38.9445 49.3845 37.2206C48.8177 36.6078 46.8924 34.9886 46.5381 35.3471Z" fill="#FFD26A"/>
<path id="Vector_90" d="M138.244 91.9721C137.966 91.1075 134.657 92.3387 134.793 92.9876C134.902 93.5085 138.522 92.8368 138.244 91.9721Z" fill="#FFD26A"/>
<path id="Vector_91" d="M138.048 94.2766C137.855 94.0172 136.016 96.0777 136.374 96.3064C136.63 96.4694 138.276 94.5826 138.048 94.2766Z" fill="#FFD26A"/>
<path id="Vector_92" d="M168.797 81.8427C168.542 81.3512 167.035 82.3943 166.149 82.9288C165.338 83.268 165.221 83.9404 166.236 83.8112C167.097 83.6353 169.027 82.2862 168.797 81.8427Z" fill="#FFD26A"/>
<path id="Vector_93" d="M166.644 78.2802C165.727 77.7449 163.687 81.7169 164.215 82.1772C164.679 82.5824 167.065 78.5258 166.644 78.2802Z" fill="#FFD26A"/>
<path id="Vector_94" d="M149.195 70.5731C149.186 65.2175 146.43 69.7962 145.667 70.8453C144.233 71.1889 140.283 71.0495 144.23 73.2735C140.933 76.8413 143.412 77.0224 146.358 75.1839C149.252 78.5057 149.476 77.2268 149.192 73.9093C149.167 73.904 155.132 70.114 149.195 70.5731Z" fill="#FFD26A"/>
<path id="Vector_95" d="M107.111 21.6963C107.37 20.0145 107.134 14.6237 109.548 20.357C110.396 19.8844 111.244 19.4117 112.092 18.9391C114.837 17.8046 111.235 23.0728 110.741 23.7199C111.73 26.8541 113.216 28.895 108.86 26.3442C106.652 29.2507 105.955 28.7068 106.619 25.2539C105.901 24.7992 104.607 24.5788 104.159 23.8769C104.086 23.5739 104.348 23.2791 104.623 23.1387C105.628 22.6254 107.111 21.6963 107.111 21.6963Z" fill="#FFD26A"/>
</g>
</svg>
