<?xml version="1.0" encoding="utf-8"?>
<!-- Generator: Adobe Illustrator 27.0.1, SVG Export Plug-In . SVG Version: 6.00 Build 0)  -->
<svg version="1.1" id="Layer_1" xmlns="http://www.w3.org/2000/svg" xmlns:xlink="http://www.w3.org/1999/xlink" x="0px" y="0px"
	 viewBox="0 0 320 188" style="enable-background:new 0 0 320 188;" xml:space="preserve">
<style type="text/css">
	.st0{clip-path:url(#SVGID_00000150103291346784618870000014863520080693969806_);}
	.st1{fill:#E9D2B1;}
	.st2{fill:#947EC6;}
	.st3{fill:#453075;}
	.st4{fill:#0D0D0D;}
	.st5{fill:#FFC540;}
	.st6{fill:#8A6642;}
	.st7{fill:#AE8A66;}
	.st8{fill:#5C4325;}
	.st9{fill:#E5D2A8;}
	.st10{fill:#BEAB8A;}
	.st11{fill:#EA9C47;}
	.st12{fill:#FCCA95;}
	.st13{fill:#AF6A1D;}
	.st14{fill:#CCDCEE;}
	.st15{fill:#8AA0BC;}
	.st16{fill:#E7F1FC;}
	.st17{fill:#D9D9D9;}
	.st18{fill:#FFFFFF;}
	.st19{fill:#B6B6B6;}
	.st20{fill:#292F73;}
	.st21{fill:#1D273D;}
	.st22{fill:#475196;}
	.st23{fill:#E8EAEB;}
	.st24{fill:#282828;}
	.st25{fill:#434343;}
	.st26{fill:#987B67;}
	.st27{opacity:0.59;fill:#EA9C47;enable-background:new    ;}
	.st28{fill:#503F35;}
</style>
<g>
	<defs>
		<rect id="SVGID_1_" y="16" width="320" height="156"/>
	</defs>
	<clipPath id="SVGID_00000153680791262284434430000015084105675489881531_">
		<use xlink:href="#SVGID_1_"  style="overflow:visible;"/>
	</clipPath>
	<g style="clip-path:url(#SVGID_00000153680791262284434430000015084105675489881531_);">
		<path class="st1" d="M547.9,66.1c-20.4-11-36.8-34.4-59.2-35.6c-19.9-1.1-40.2,4-48.8,11.8c-11.5,10.5-13.8,38.7-40.1,34.1
			c-26.2-4.6-29.1-29.2-51.7-34.9c-19.7-5-36,11-36,11s-12.4,10.5-20.8,8.9c-8.3-1.7-27.2-5.7-35.1,5.6
			c-7.9,11.3-24.1,13.6-31.4,15.8c-7.3,2.2-41.6,6.4-48.5-7.7c-5.9-11.9-30.9-21.2-63.8-12.2c-27.9,7.6-39.9,47.3-26,72.2
			c20.2,36.1,85.9-0.8,109.9-6.3c56.1-13,31.2,27.5,98.2,0c27.9-11.4,31.7-13.1,44.9-13c60.4,0.8,55.9,26.7,102.8,41.2
			c32.2,10,54.7-10.9,84.4-30.5c32.1-21.2,52.6,20.4,89,5.3c37.8-15.6,53.9-52.6,95-21.3c29.1,22.2,48,9.6,48,9.6s13.2-51.3-4.9-44
			c-35,14.1-28.2-19.3-51.5-15.4c-41.5,7-27.8-46.7-78.5-18.6C595.3,58.2,604.9,96.7,547.9,66.1L547.9,66.1z"/>
		<path class="st2" d="M675.1,75.9c2.8,2.7,10.6,9.3,24.7,16.4c14.1,7.1,40.9-3.6,40.9-3.6s7.1,0,0.5,4.1c-6.6,4-28.4,10.3-40.5,4.3
			C690,91.8,676,79.8,671.1,76.8c-14.3-8.9-32.7-7.4-39.2-6.1c-19.4,4-25.5,42.2-37.4,42.2c-12.7,0-17.2-12.7-25-17.8
			c-7.9-5.1-22.2-6.4-26.5-7.3c-12.7-2.5-38.4-17.5-48.8-19.1s-22.8,4.5-22.8,4.5l-3.5-3.5c0,0,12.9-7.2,26.4-4.6
			c13.5,2.6,36.3,16.3,49.2,19.6c5.4,1.4,18.2,2.4,27.6,8c9.3,5.6,16.2,17.3,21.8,17.1c4.6-0.2,16.1-18.5,19.5-26.3
			s15.7-16.7,23-17.2C654.2,65.1,666.7,68,675.1,75.9L675.1,75.9z M146.7,114.1c0,0,6.4,5.9,21.3,8.7c14.9,2.7,36.1-1.1,40-2.8
			c6.6-3,12.1-8.8,12.1-8.8l-2.4-1.1c0,0-2.2,2.9-10.9,7c-8.7,4.1-34.4,3.9-42.5,2.2c-8.1-1.7-16.9-7.5-16.9-7.5 M291.4,70.1
			c0,0,20.8,7.5,38.3,17.3c10.3,5.8,20.7,6.4,28.8,6.3c15.8-0.2,34.2-5.1,51.2-2.6s23,5.9,26.8,5.6c10.9-0.7,14-10.1,14-10.1
			s-0.9-2-2.4-1.9c-2.5,0.1-5.1,7.1-9.8,7.2c-6.2,0.2-15-3.3-19.6-4.6c-19.7-5.4-47.6,2.9-62.1,1.9c-7.4-0.5-23.7-4.5-29.1-7.4
			c-7.6-4.1-11.8-7.6-31.7-13.9c-17-5.4-25.1-1.7-29.5-0.2c-4.6,1.6-12.1,8.7-3.4,12.7c8.8,4,8.5,13.4,7.2,19.3
			c-0.7,3.4-6,8.7-12.3,8c-6.3-0.7-13.8-2.3-23.5-3c-8-0.6-14.1,2.6-14.1,2.6l1.5,2.6c0,0,6.1-3.5,13.1-2.6c7,0.9,16.9,3.8,23.4,3.7
			s14.8-4.1,16.4-11.5c1.6-7.4-1-15.4-8.3-20.6c-8.1-5.8,3-8.7,3-8.7S280.2,66.2,291.4,70.1L291.4,70.1z M147.4,111.6
			c0,0-7.3-7.2-15.9-8.7s-17.9-0.5-20.8,0c-22.9,4.4-42.7,12.8-38.3,12.9c4.4,0.2,34-14.7,58.2-9.8c8.8,1.8,16.3,8,16.3,8"/>
		<path class="st3" d="M296.3,65.8c0,0-3.7,1.5-2.7,6.1c1,4.6,5,4.2,5.9,4.1c0.9-0.2,4.9-1.7,5.1-6.2
			C304.6,65.2,299,63.8,296.3,65.8L296.3,65.8z"/>
		<path class="st3" d="M224.9,110.7c-0.3,1.6-1.2,4.4-6,3.5c-4.8-0.8-3.5-5.5-3.1-6.7s5.4-3.5,8.2,0
			C224.9,108.6,224.9,110.7,224.9,110.7L224.9,110.7z"/>
		<path class="st3" d="M104.1,100.5c0,0-2.5-0.3-3.8,1.9c-1.4,2.2-1.1,5.8,2.6,6.6c3.8,0.7,5.2-2.8,5.3-3.7S108.5,101.4,104.1,100.5
			L104.1,100.5z"/>
		<path class="st4" d="M148.7,49.6c0,0-4.3-1.9-4.9-3c-1.6-2.5,1.5-7.1,1.5-7.1l-1.2-1.2c0,0-3.1,7.2-0.9,8.8
			C147.3,49.9,148.7,49.6,148.7,49.6L148.7,49.6z"/>
		<path class="st5" d="M160.6,23.5c-0.3,0.6-0.7,2.2-2.5,3.1c-1.8,0.9-2.4,1.1-1.6,1.5c0.8,0.3,3.1-0.2,3.5,1.6s-1.1,4-0.5,4.2
			c0.6,0.1,1.4-2.5,3.6-2.5c2.2-0.1,2.8,1,3.3,1s0.1-1-0.3-1.5c-0.4-0.5-1.7-2-0.5-3.2c1.2-1.1,2-1.2,2.2-1.5
			c0.3-0.3-0.2-0.6-0.7-0.6c-0.5,0-2.4-0.3-3.6-1.4s-1.2-2.9-1.8-2.9C161,21.4,161,22.7,160.6,23.5L160.6,23.5z"/>
		<path class="st5" d="M201.6,38.3c-0.3,0.6-1.4,1.4-1.9,1.6s-2.4,0.5-1.8,1.2c0.6,0.6,1.9,0.6,2.6,1.7c0.7,1.2,0.1,2,0,2.2
			c-0.1,0.2-0.9,1.6-0.4,1.5c0.5-0.1,1.7-2.2,3-2.3c1.3-0.1,1.9,0.1,2.9,1s1.1,1.1,1.3,0.7c0.3-0.4-1-1.8-0.8-2.9
			c0.2-1.2,0.3-1.6,1.1-2.4c0.4-0.5,1.4-0.6,1.1-1.1c-0.3-0.5-1.3,0.3-3.4-1c-1.7-0.9-1.6-2.8-2-3.1c-0.4-0.3-0.7,0.2-0.9,1.1
			C202.2,37.4,201.6,38.2,201.6,38.3L201.6,38.3z"/>
		<path class="st5" d="M211.7,68.7c0.5,0.2,0.9,0.4,1.7,0.4s1.3-0.4,1.6,0c0.2,0.4-0.2,0.7-0.7,1.4c-0.5,0.6-1.2,2.2-0.4,2.9
			c0.8,0.7,1.3,1.1,1,1.5c-0.3,0.4-0.9,0.2-1.7,0c-0.7-0.2-1.5-0.4-2-0.2s-1.2,0.9-1.4,1.4c-0.2,0.5-0.4,1.4-1,1.1
			c-0.7-0.3-0.1-1.4-0.1-1.9c0-0.5,0.1-1.7-0.2-2.2s-1.4-0.5-2.3-0.4c-0.9,0.1-1-0.5-0.7-0.8s2.2-1,2.6-1.3c0.4-0.3,0.7-0.7,1-1.6
			c0.3-0.8,0.1-2,0.1-2.2c0-0.3,0.3-0.7,0.7-0.3C210.4,67,210.3,68.1,211.7,68.7L211.7,68.7z"/>
		<path class="st5" d="M126.3,37.7c0.6,0.7,0.9,0.9,1.9,1.1c1.1,0.1,1.6,0.2,1.6,0.7c0,0.5-1.5,0.4-2.2,1.4c-0.7,1-0.9,1.9-0.7,2.6
			s1.3,1.7,0.5,2.1s-1.6-1.8-2.5-1.8s-1.5-0.2-2.7,1.2c-1.2,1.3-1.5,1.6-1.9,1c-0.4-0.5,1.4-2.2,1.5-3.3c0.1-1.1,0.3-1.9-1-2.3
			s-1.6-0.4-1.5-0.9c0.1-0.5,0.5-0.3,1.8-0.7c1.3-0.4,1.5-0.5,2.3-1.2c0.8-0.7,0.9-1.7,1.2-2.3s0.3-0.9,0.7-0.8
			C125.6,34.4,125.8,37,126.3,37.7L126.3,37.7z"/>
		<path class="st5" d="M113.4,83.4c-0.3,0.5-1.2,1.1-2.3,1.8c-1.3,0.7-2.7,0.6-2.9,1c-0.5,0.9,1.6,1.3,2.6,2.6
			c0.7,0.9,0.8,2.4,0.1,3.6c-0.7,1.2-1.4,1.6-0.7,1.8c0.7,0.3,1.5-1.1,3.1-1.6c1.5-0.5,1.5-0.6,2.7,0.2c1.2,0.8,1.2,1.4,2,1.5
			c0.8,0.1,0.3-0.7,0.3-1.1c-0.1-0.4-0.9-2.6-0.2-3.9s2.4-1.5,3.1-1.7c0.6-0.2,0.9-0.9,0-1.1c-0.9-0.2-2.3-0.3-3.3-1
			c-1-0.8-1.9-3.4-2.1-4.3s-0.7-1.3-1-1S114.1,82.2,113.4,83.4L113.4,83.4z"/>
		<path class="st6" d="M154.5,49.7c0.9,0,7.7,2,8.8,8.7c1.3,7.4-3.8,10-3.8,10l-12,2.5l0.7,9.9c0,0-8.9,8.4-15.3,6.2
			c-6.4-2.2-11.3-8.3-7.2-13.7c5.4-7.1,7-4.1,11.2-8c4.9-4.6,2.7-6.8,4.8-10.5C143.5,51.7,151.5,49.7,154.5,49.7L154.5,49.7z"/>
		<path class="st7" d="M132.3,68c0,0,0.7-0.3,1.1-0.4c1-0.4,2.1-0.9,3.5-2.2c4.9-4.6,2.7-6.8,4.8-10.5c1.7-3,9.1-5,12.4-5.2
			c0,0,0.8,4-2.5,5.3c-3.3,1.3-7.8,1-9.5,3.4c-1.7,2.3-1.1,4.1-1.5,5.3C140.3,64.8,139.7,68.3,132.3,68L132.3,68z"/>
		<path class="st8" d="M155.1,49.8c1.9,0.5,7.2,2.7,8.3,8.6c1.3,7.4-3.8,10-3.8,10l-12,2.6l0.7,9.9c0,0-8.9,8.4-15.3,6.2
			c-3.3-1.1-6.1-3.2-7.6-5.8c0,0-0.1-6,4.4-9.1c5.1-3.6,7.3-1.4,11.5-3.4c4.2-2,4.8-7.4,4.8-7.4s8.2-0.7,8.6-1.1
			c0.3-0.5,2.2-7.2,2.2-7.2s0.1-1.6-0.6-2.4C155.5,49.9,155.1,49.8,155.1,49.8L155.1,49.8z"/>
		<path class="st9" d="M156.7,53.1c0,0,3.4,3.4,1.5,9.4c-1.8,5.6-3.3,5.3-3.7,5.3c-0.4,0-0.9-0.2-0.9-0.2l0.5,3.1
			c0,0-0.6,2.1-2.2,1.7c-1.6-0.4-2.4-1.2-2.4-1.2l-0.8-6.8c0,0-3,1.5-3-2.9c0-3.2,2.8-2.6,3.1-1.6c0,0,3.2,0,5.9-2.9
			C156.1,55.3,156.7,53.1,156.7,53.1L156.7,53.1z"/>
		<path class="st9" d="M130,58.6c0,0,1-2.5,1-2.7c0-0.2,0.2-0.8,0-1.6c-0.2-0.9-0.3-1.4-0.3-1.8c0-0.4,0.4-2-0.6-1.8
			c-1.1,0.2-1.5,1.8-1.5,1.8s-0.8-0.8-1.5-0.5s-0.7,0.4-1,0.4s-1.1-0.3-1.5,0c-0.4,0.3-0.4,0.9-0.8,1c-0.3,0.1-1.5,0.5-1.5,1.1
			c0,0.7,0.4,0.8,0.2,1c-0.2,0.2-0.4,0.5-0.5,1.1c0,0.6,3.7,3.4,3.7,3.4L130,58.6L130,58.6z"/>
		<path class="st9" d="M169.4,70.8c0,0-0.9,0-1.5-0.2c-0.6-0.2-2.1-0.6-2-1.5c0.1-0.8,1-0.3,1.7-0.3c0.7,0.1,2.6-0.1,2.8-0.2
			s0.3-0.7,1.2-0.4c0.9,0.3,0.5,0.5,0.9,0.5c0.5,0,1.1,0,1.3,0.3c0.2,0.3,0.2,0.9,0.4,1c0.3,0.1,1.2,0.4,0.8,1.4s-1.3,2.3-1.6,2.8
			c-0.4,0.6-1.1,1.3-1.5,0.9c0,0-0.8,1-1.1,1.1c-0.5,0.2-0.6-0.2-0.6-0.2s-0.5,0.5-0.9,0.2c-0.5-0.2,0-1.5,0-1.5s-0.9,0.4-0.8-0.6
			C168.6,73.2,169.4,70.8,169.4,70.8L169.4,70.8z"/>
		<path class="st10" d="M153.9,70.4l-0.4-2.8c0,0-1.3-0.4-2.4-1.2c-1.1-0.8-1.4-1.2-1.4-1.2s0.5,2.8,2.4,4.2
			C153.2,70.3,153.9,70.4,153.9,70.4"/>
		<path class="st10" d="M130,58.6c0,0,1-2.5,1-2.7c0-0.2,0.2-0.8,0-1.6c-0.2-0.9-0.3-1.4-0.3-1.8c0-0.4,0.4-2-0.6-1.8
			c-1.1,0.2-1.5,1.8-1.5,1.8s1.2,1.6,1.2,2.7c0,1.1-0.2,3.6-0.2,3.6L130,58.6L130,58.6z"/>
		<path class="st10" d="M169.4,70.8c0,0-0.9,0-1.5-0.2c-0.6-0.2-2.1-0.6-2-1.5c0.1-0.8,1-0.3,1.7-0.3c0.7,0.1,2.6-0.1,2.8-0.2
			c0,0-0.5,0.6-0.6,1.1C169.7,70.2,169.4,70.8,169.4,70.8"/>
		<path class="st11" d="M135.8,150.5v7c0,0,4.1,1.2,6.8,1.2c3.1,0,8.5-0.6,8.5-0.6s1.2-3.7-1.6-4.7c-2.7-1-2.9-0.3-5-0.5
			s-3.3-1.7-3.3-1.7L135.8,150.5L135.8,150.5z"/>
		<path class="st11" d="M159.5,147.6v7c0,0,4.1,1.2,6.8,1.2c3.1,0,8.5-0.6,8.5-0.6s1.1-3.7-1.6-4.7c-2.7-1-2.9-0.3-5-0.5
			c-2.1-0.2-3.3-1.7-3.3-1.7L159.5,147.6L159.5,147.6z"/>
		<path class="st12" d="M151.2,155.5c-0.2-0.9-0.6-1.7-1.8-2.1c-2-0.7-2.6-0.6-3.6-0.5c0,0-2.4,0.7-1.7,1.7c0.7,1,3.1,0.3,4.7,0.4
			S151.2,155.5,151.2,155.5L151.2,155.5z"/>
		<path class="st13" d="M151.3,157.1c-0.1,0.6-0.2,1-0.2,1s-5.3,0.6-8.5,0.6c-2.7,0-6.8-1.2-6.8-1.2v-7l5.3,0.6c0,0,0.9,1.2,2.6,1.6
			c0,0-1.3,0.7-2.7,0.8s-2.8,0-2.8,0s-0.9,3.1,4.9,3.7C149,157.8,151.3,157.1,151.3,157.1L151.3,157.1z"/>
		<path class="st12" d="M174.9,152.3c-0.2-0.8-0.7-1.4-1.7-1.8c-1.7-0.6-2.4-0.6-3.3-0.5l0.5,1.1c0,0,1.6,1,2.8,1.2
			S174.9,152.3,174.9,152.3z"/>
		<path class="st13" d="M175,154.1c-0.1,0.6-0.2,1.1-0.2,1.1s-5.4,0.6-8.5,0.6c-2.7,0-6.8-1.2-6.8-1.2v-7l5.4,0.6
			c0,0,0.9,1.2,2.6,1.6c0,0-1.1,0.9-2.1,1.2s-2.2,0-2.2,0s-0.4,2.4,2.4,2.9S175,154.1,175,154.1L175,154.1z"/>
		<path class="st14" d="M150.3,91.6c0,0-5.6,15.5-8,21.1c-2.4,5.6-10.3,22.7-11.3,37.6l13,2c0,0-0.9-10.1,0.7-19.8
			c2.7-17.4,9.6-31.4,9.6-31.4s1.2-2.2,2.1-1.5c0.9,0.7,2.9,2.8,2.3,23.6c-0.7,20.9-1.5,27.6-1.5,27.6l12-2.3c0,0-1.7-8.1-1.8-10.8
			c-0.6-12.9-6-45.9-6-45.9s-4.5-0.2-6.9-0.3C152,91.5,150.3,91.6,150.3,91.6L150.3,91.6z"/>
		<path class="st15" d="M162.1,97.3c-0.5-3.3-0.9-5.4-0.9-5.4s-4.5-0.2-6.9-0.3c0,0,3.3,0.9,5.1,2.6
			C161.3,95.9,162.1,97.3,162.1,97.3L162.1,97.3z"/>
		<path class="st16" d="M167.1,135.2c-0.7-9.6-3.1-25.9-4.6-35.5c0,0-2.3-1.6,0.4,14.8C165.5,130.9,167.1,135.2,167.1,135.2
			L167.1,135.2z"/>
		<path class="st15" d="M155.2,99.8c0.3-0.3,0.7-0.4,1.1-0.2c0.9,0.7,2.9,2.8,2.3,23.6c-0.7,20.9-1.5,27.6-1.5,27.6l12-2.3
			c0,0-1.7-8.1-1.8-10.8c0,0-3.6-9.7-4.2-15.2c-0.6-5.5-2.2-20.6-4.5-23.5S155.2,99.8,155.2,99.8"/>
		<path class="st16" d="M139.1,140.5c1.1-20.9,10.8-37.8,13.6-40.9c2.8-3.1,4.2-2.2,4.5-2c0.3,0.3-0.3,0.7-0.8,1.1
			c-0.4,0.3-1.2,1-1.2,1c-0.6,0.5-1,1.3-1,1.3s-6.9,14-9.6,31.4c-1.5,9.8-0.7,19.8-0.7,19.8l-4.4-0.7
			C139.6,151.6,139,142.9,139.1,140.5L139.1,140.5z"/>
		<path class="st17" d="M129.7,59.7c0,0,1.7,7.2,5.4,10.2c4,3.1,10.3,3.3,10.6,3.2c0.3-0.1,2.9-0.8,2.9-0.8s-0.4-0.7,0-1
			s0.7-0.3,0.7-0.3s1.5,1.5,2.8,1.1c1.3-0.4,1.8-1.4,1.8-1.4s1.1-0.1,1.1,0.5c0,0.6-0.2,0.6-0.2,0.6l4.3,2.2c0,0,2.8,4.5,3.8,6.6
			c1,2.2,1.9,3.7,2.9,3.2c1-0.5,1.3-3.7,1.3-3.7s0.9,1.4,1.3,2.7c0.4,1.3,0.4,3.3,0.4,3.3c-0.6,1.4-1.5,3.2-2.8,3.4
			c-1.3,0.2-3.3-1.7-4.8-3.5c-0.4-0.5-1-1.4-1-1.4s0.8,2.9,0.9,4s0.2,2.6,0.2,2.6s1.3,0.4,1.1,1.1c-0.3,0.7-0.9,0.4-1.1,0.4
			c-0.3,0-3.8-0.8-6.4-0.5c-2.6,0.3-6.1,1.2-6.4,1.2c-0.3,0-0.6-0.2-0.7-0.6c-0.2-0.9,1.1-1.1,1.1-1.1s0.6-4.4-1.6-7.7
			c-2.3-3.3-7.1-5.8-8.2-6.1c-1-0.3-6.4-3.2-8.7-6.4c-2.9-4-4.3-10.6-4.3-10.6s-1,0.5-1.3-0.1c-0.3-0.7,0.7-1.2,2.5-1.8
			c1.9-0.6,2.7-0.8,2.9-0.4C130.9,59.5,129.7,59.7,129.7,59.7L129.7,59.7z"/>
		<path class="st18" d="M142.5,72.8c-2.2-0.4-5.1-1.2-7.3-3c-3.2-2.5-4.9-8.2-5.3-9.8c0,0-0.8,0.3-0.2,2.7c0.7,2.4,1.4,7,6.1,8.9
			C140.8,73.8,142.6,72.7,142.5,72.8L142.5,72.8z"/>
		<path class="st19" d="M130.5,59.3c0,0-0.1-0.3-0.8-0.3c-0.7,0-2.3,0.8-3.1,1c-0.8,0.2-0.8-0.2-0.8-0.2c-0.7,0.4-0.9,0.7-0.8,1.1
			c0.3,0.7,1.3,0.1,1.3,0.1s1.4,6.7,4.3,10.6c2.3,3.2,7.7,6.1,8.7,6.4c0.8,0.2,3.9,1.8,6.3,4.1c0,0,0.3-0.2,0.5-0.6
			c0.2-0.3,0.2-1.3,0.5-2.3c0.2-0.9,1.2-1.2,1.7-1.4c0.5-0.2,0.4-0.6,0.4-0.6l-2.9-4.2l-5.9,2.1c0,0-4.2,0.1-7.8-4.9s-5-9.5-4.9-9.5
			c0.1,0,2.2-0.8,2.2-0.8S130.4,59.6,130.5,59.3L130.5,59.3z"/>
		<path class="st18" d="M148.6,72.3c0,0-0.2,0.1-0.6,0.2c0,0,0.6,2,3.1,1.9c2.6-0.1,1.4-1.3,1.4-1.3s-2.4,0-2.5-0.1
			s-1.1-0.9-1.1-0.9L148.6,72.3"/>
		<path class="st19" d="M151.6,73.7c2.1,0.2,3.2-1.6,3.2-1.6s1.5,1,3.9,8.4c2.4,7.4,0.4,10.2,0.4,10.2s-0.2-0.1-3.2-0.2
			c-3-0.1-6.8,1.2-6.8,1.2s-1.3,0.2-1.1,1.1c0.1,0.3,0.4,0.6,0.7,0.6s3.9-0.9,6.4-1.2c2.5-0.3,6.1,0.5,6.4,0.5s0.9,0.3,1.1-0.4
			c0.3-0.7-1.1-1.1-1.1-1.1s-0.1-1.6-0.2-2.6c-0.1-1-0.9-3.9-0.9-3.9s0.7,0.9,1,1.4c1.4,1.8,3.4,3.8,4.8,3.5s2.2-2,2.8-3.3
			c0,0,0.2-1.6-0.4-3.4c-0.5-1.7-1.4-2.7-1.4-2.7s-0.4,3.2-1.4,3.7s-1.9-1.1-2.9-3.2c-1-2.2-3.9-6.6-3.9-6.6l-4.3-2.2
			c0,0,0.3-0.3,0.2-0.6c0-0.2-0.1-0.3-0.3-0.4c0,0-0.9,2.1-2.7,2.1c-2.8,0-2.3-1.5-2.3-1.5c-0.3-0.2-0.4-0.4-0.4-0.4s-0.3,0-0.7,0.3
			c-0.4,0.3,0,1,0,1S149.1,73.4,151.6,73.7L151.6,73.7z"/>
		<path class="st18" d="M149.2,91.1c0,0,0-4.5-1.7-7c-0.4-0.5-0.8-1.1-1.3-1.6c0,0,1.4-4.7,4.7-1.4c3.3,3.3,2.5,7.4,1.6,8.5
			C151.5,90.8,150,91.3,149.2,91.1L149.2,91.1z"/>
		<path class="st14" d="M166.1,155.8c0,0,0,0.8-0.5,1.1c-0.5,0.3-1.9,0.8-2.5,0.8s-4.5-0.4-5.7,0.7c-1.2,1-0.9,3.3-0.9,3.3
			s3.1,1.5,8.6,1.5c3.9,0,6.2-0.5,6.2-0.5v-6.9H166.1L166.1,155.8z"/>
		<path class="st14" d="M194.7,155.2c0,0,0,1.6-0.4,2s-2.3,1.2-3,1.3c-0.6,0.1-4.5,0.4-5.5,1.6c-1,1.2-0.4,3.4-0.4,3.4
			s3.3,1,8.7,0.1c3.9-0.6,7.2-1.7,7.2-1.7l-2.6-7.2L194.7,155.2L194.7,155.2z"/>
		<path class="st16" d="M168.9,155.8h-2.7c0,0,0,0.8-0.5,1.1c-0.5,0.3-1.9,0.8-2.5,0.8s-4.5-0.4-5.7,0.7c-0.6,0.5-0.8,1.3-0.9,2
			c0,0,0.6-1.2,2.2-1.2c2.3,0,5.7,1.2,7.5,0.8C169.5,159,168.9,155.8,168.9,155.8L168.9,155.8z"/>
		<path class="st15" d="M170.1,155.8h1.2v6.9c0,0-2.3,0.5-6.2,0.5c-5.5,0-8.6-1.5-8.6-1.5s0-0.3,0-0.6c0,0,3.7,0.9,6.3,0.9
			c2.6,0,4.4,0,5.9-1.1C170.1,159.8,170.1,155.8,170.1,155.8L170.1,155.8z"/>
		<path class="st16" d="M185.2,161.6c0-0.6,0.2-1.1,0.6-1.6c1-1.2,4.9-1.5,5.5-1.6c0.6-0.1,2.5-0.9,3-1.3c0.4-0.4,0.4-2,0.4-2
			l0.6-0.1c0,0,0.9,3.6-1.7,4.5c-2.5,0.8-4.4,0.1-5.9,0.6C186.1,160.5,185.2,161.6,185.2,161.6z"/>
		<path class="st15" d="M198.1,154.7l0.5-0.1l2.6,7.2c0,0-3.3,1.1-7.2,1.7c-5.5,0.9-8.7-0.1-8.7-0.1s-0.2-0.6-0.2-1.2
			c0,0,5.3,0.6,8,0.4s4.8-0.1,5.6-2.1C199.7,158.6,198.1,154.7,198.1,154.7L198.1,154.7z"/>
		<path class="st20" d="M171.9,93.8c0,0,0.6,4.1-1.8,14.7c-2.6,11.5-3.8,44.9-4,47.5c0,0,0.4,0.7,2.8,1c2.2,0.3,2.5-0.5,2.5-0.5
			s2.3-26.7,3-32.1c0.7-5.4,2.4-15.7,2.8-17.6c0.5-1.8,1.3-3.6,2-2.7c1.2,1.5,5,16.2,8.6,29.4c3.2,11.7,6.5,22.1,6.5,22.1
			s1.5,0.4,2.3,0.5c1,0,2.6-0.7,2.6-0.7s-1.5-4.8-3-11.4c-2.2-9.9-4.7-23.7-5.7-29.1c-1.6-9-4.1-22.2-4.1-22.2s-4.8,2.1-8.5,2
			C174.2,94.7,171.9,93.8,171.9,93.8L171.9,93.8z"/>
		<path class="st21" d="M197.4,156.1c0.9-0.2,1.7-0.6,1.7-0.6s-1.5-4.8-3-11.4c-2.2-9.9-4.7-23.7-5.7-29.1c-1.7-9-4.1-22.2-4.1-22.2
			s-4.8,2.1-8.5,2c-3.7-0.1-5.9-1-5.9-1s0.1,0.9,0,2.9c0,0,2.3,1.1,4.5,1.2c2.2,0.2,5.1-0.6,5.1-0.6s0.2,0.8,1.1,1.5s2,0.8,2,0.8
			L197.4,156.1L197.4,156.1z"/>
		<path class="st21" d="M179.2,104.3c-0.8-0.9-1.6,0.8-2,2.6c-0.4,1.8-2.1,12.2-2.8,17.6c-0.7,5.4-3,32.1-3,32.1s-0.3,0.8-2.5,0.5
			c0,0,2.5-31.3,3.9-39.2c1.4-7.9,2.2-15.2,4.4-15.8c0.5-0.1,1.2-0.2,1.7,1.1C179.4,104.5,179.2,104.3,179.2,104.3"/>
		<path class="st22" d="M195.8,156.1c-0.7-0.1-1.5-0.3-1.5-0.3s-3.2-10.5-6.5-22.2c-3.6-13.2-7.4-27.8-8.6-29.4c0,0-0.1-0.7-0.8-1.4
			c-0.7-0.7-1.2-1.4-0.2-1.2c1,0.2,2.2,1.3,3.8,5.6C183.6,111.5,195.8,156.1,195.8,156.1L195.8,156.1z"/>
		<path class="st22" d="M166.4,156.3c-0.3-0.2-0.4-0.3-0.4-0.3c0.2-2.6,1.4-36,4-47.5c1.1-5,1.6-8.5,1.8-10.9c0,0,2-0.5-0.2,14
			C169.4,126.1,166.4,156.3,166.4,156.3L166.4,156.3z"/>
		<path class="st17" d="M174.2,74c0,0,0.9,1,2.2,1.2c1.3,0.2,3.2-0.6,3.2-0.6l-0.3,13.9l1.8,6.3c0,0-3.9,1-5.7,0.5s-4.2-1.3-4.2-1.3
			L174.2,74L174.2,74z"/>
		<path class="st19" d="M177.5,75.2c1.1-0.1,2.2-0.6,2.2-0.6l-0.3,13.9l1.8,6.3c0,0-3.9,1-5.7,0.5s-4.2-1.3-4.2-1.3l2.9-20
			c0,0,0.3,0.3,0.8,0.6c0,0-0.7,11.1-0.6,12.6c0,1.5,0.4,3.9,1.7,2.8s0.5-7.8,0.6-9.4C176.7,79,177.5,75.2,177.5,75.2L177.5,75.2z"
			/>
		<path class="st23" d="M178.1,75.1c-0.5,0.1-1.1,0.2-1.6,0.1c-1.3-0.2-2.2-1.2-2.2-1.2l-0.2,1.2c0,0,0.6,1.4,2,1.4
			S178.1,75.1,178.1,75.1L178.1,75.1z"/>
		<path class="st24" d="M178.8,65c0,0,2.6,3.6,6.5,2.1c2.4-1,2.3-2.6,2.3-2.6s2.4,0.6,4-0.7c1.5-1.3,1.2-3,1.2-3s2.8-0.3,2.8-3.8
			c0-2.2-2.2-3.2-2.2-3.2s2.1-1.9,1.4-4.2c-0.8-2.8-3.4-2.7-3.4-2.7s1.6-3.1-2.4-5.8c-3.9-2.7-7.5,0.2-7.5,0.2s-2-2.2-4.6-1.5
			c-3.1,0.8-3.6,3.2-3.6,3.2s-3.4-0.2-4.7,3.1s-0.1,4.8-0.1,4.8s-2.2,1.6-1.2,4.4c0.7,1.9,2.2,2.3,2.2,2.3s-1.1,1.7,0.4,3.5
			s3.7,1.7,4.1,2C174.3,63.2,178.8,65,178.8,65L178.8,65z"/>
		<path class="st25" d="M193.6,53.4c0.6-0.7,1.5-2.1,1-3.9c-0.8-2.8-3.4-2.7-3.4-2.7s1.6-3.1-2.4-5.8c-3.9-2.7-7.5,0.2-7.5,0.2
			s-2-2.2-4.6-1.5c0,0,2.3-0.1,3.7,1.5c1.2,1.4,0.9,2.4,0.9,2.4s3.2-2.2,5.2,0.1c2,2.2,0.5,4.5,0.5,4.5s2.3-0.9,4.1,0.2
			C194.4,50.3,193.6,53.4,193.6,53.4L193.6,53.4z"/>
		<path class="st4" d="M168.4,50.8c0,0-2.2,1.6-1.2,4.4c0.7,1.9,2.2,2.3,2.2,2.3s-1.1,1.7,0.4,3.5s3.7,1.7,4.1,2s4.8,2,4.8,2
			s2.6,3.6,6.5,2c2.4-1,2.3-2.6,2.3-2.6s2.4,0.6,4-0.7c1.5-1.3,1.2-3,1.2-3s2.8-0.3,2.8-3.8c0-2.2-2.2-3.2-2.2-3.2s-1,1.1-2.8,1.1
			s-3-1.3-3-1.3s-1.2,2.9-4.6,2.8c-0.1,0-0.2,0.1-0.3,0.1c-0.3,0-0.5-0.1-0.8-0.1c-3.7,0.1-7.3,0.9-7.3,0.9l-2.2-3.7l-3.2-3.4
			L168.4,50.8"/>
		<path class="st25" d="M172,43c-1.1,0.2-2.8,0.9-3.6,3.1c-1.3,3.3-0.1,4.8-0.1,4.8s1.2,2.1,3.7,3.5c2.6,1.5,5.2,0.7,5.7,0.5
			c0.8-0.3,1.6-1.2,1.6-1.2s-6.1,2.1-8.6-3.2C168.7,46,172,43,172,43L172,43z"/>
		<path class="st26" d="M172.1,54.4c-0.6,1.8-1,5.1-0.7,8.7c0.3,4.4,4.2,3.1,4.2,3.1l-0.1,4.6l-1,3.8c0,0,1.1,0.8,1.9,0.9
			c0.8,0.1,2.2-0.4,2.2-0.4s0.4-2.8,1.1-4.1s0.6-1.2,0.6-1.2l0-5.9c0,0,1-0.6,1.4-1.1s0.6-0.7,0.6-0.7s2.7,2.6,3.7-2.3
			c0.7-3.4-3-3.2-3.4-1.9l0.2-1.6c0,0-1.2,0.2-2.2-0.7s-1-2.4-1-2.4s-1.3,1.7-3.5,1.8C173.5,55.3,172.1,54.4,172.1,54.4L172.1,54.4z
			"/>
		<path class="st13" d="M145.8,73.1c0.3-0.1,2.9-0.8,2.9-0.8s-0.4-0.7,0-1c0.3-0.3,0.7-0.3,0.8-0.3l-0.4-3.4
			c-3.5,0.5-6.7,1.7-7.6,4.3c-0.1,0.2-0.1,0.4-0.2,0.6C143.6,73.1,145.6,73.1,145.8,73.1L145.8,73.1z"/>
		<path class="st11" d="M174.4,70.1c0.4,0.2,1,0.5,0.6,1.3c-0.4,0.9-1.3,2.3-1.6,2.9s-1.1,1.3-1.5,0.9c0,0-0.8,1-1.1,1.1
			c-0.5,0.2-0.6-0.2-0.6-0.2s-0.5,0.4-0.9,0.2c-0.5-0.2,0-1.5,0-1.5s-0.9,0.4-0.8-0.7c0.1-1,0.9-3.4,0.9-3.4s-0.9,0-1.5-0.2
			c-0.4-0.1-1.5-0.4-1.9-1c-2.4-0.8-5.4-1.9-7-2.1c-0.6-0.1-1.8-0.2-3.2-0.2c-0.7,0.7-1.2,0.6-1.4,0.6c-0.4,0-0.9-0.2-0.9-0.2
			l0.5,3.1c0,0,1.1-0.1,1.1,0.5c0,0.4-0.2,0.6-0.2,0.6l4.3,2.2c0,0,0,0,0.1,0.2c1.9,1,4,2.2,5.6,3.6c0.9,0.7,1.7,1.5,2.4,2.4
			c0,0,0,0,0,0c0.6,0.8,1,1.7,1.3,2.6c0,0,0,0,0,0c0,0.1,0.1,0.2,0.1,0.3c0,0,0,0.1,0,0.1c0,0,0,0,0,0.1c0.2,0.7,0.3,1.4,0.3,2.1
			c0,0.5,0,0.7,0,0.7c0,0,0,0.1,0,0.2c-0.1,1.4-0.4,2.9-1,4.6c-1.6,4.3-4,7.5-0.3,9.9c1.9,1.2,3.9-0.2,3.9-0.2s2.1-19.8,2.5-23
			c0.4-2.6,1.5-6.7,1.5-6.7l0-1C175.5,69.8,175.1,69.9,174.4,70.1L174.4,70.1z"/>
		<path class="st11" d="M194.7,77.7c-5.9-9.2-14.3-8.3-14.3-8.3v0.5c0,0-3.6,5.2-2.6,15.7c0.7,7.7,2.5,9.5,4,10.4
			c1.6,0.9,4.9-1.2,4.9-1.2l1.6,8.6c0,0,0.6,0.3,2.1-0.4c1.6-0.8,2-1.8,2-1.8c2.4,0,3.8-1,3.8-1C202.3,95.9,200.6,86.9,194.7,77.7
			L194.7,77.7z M190.6,89.7l-1.4,0.5c0,0-2.6-4.4-3.4-7.1c-0.8-2.8-0.9-6.1,0.5-4.3c1.4,1.8,3.6,5.9,4.2,8.7
			C190.8,89.4,190.6,89.7,190.6,89.7L190.6,89.7z"/>
		<path class="st13" d="M171.7,99.6c-0.1,0.6-0.1,0.9-0.1,0.9s-2,1.4-3.9,0.2c-3.4-2.3-1.5-5.2,0-9.1c0,0-1,5.6,2,7.4
			C170.5,99.6,171.6,99.6,171.7,99.6L171.7,99.6z"/>
		<path class="st13" d="M168.4,89.8c0.4-1.3,0.6-2.4,0.6-3.5c0,0,0-0.1,0-0.2c0,0,0-0.2,0-0.7c0-0.8-0.1-1.5-0.3-2.1c0,0,0,0,0-0.1
			c0,0,0-0.1,0-0.1c0-0.1-0.1-0.2-0.1-0.3c0,0,0,0,0,0c-0.3-1-0.8-1.8-1.3-2.6c0,0,0,0,0,0c-0.7-0.9-1.5-1.7-2.4-2.4
			c-1.7-1.3-3.7-2.6-5.6-3.6c-0.1-0.1-0.1-0.2-0.1-0.2l-4.3-2.2c0,0,0.2-0.2,0.2-0.6c0-0.6-1.1-0.5-1.1-0.5l-0.5-3.1
			c0,0,0.5,0.2,0.9,0.2c0.2,0,0.7,0.1,1.4-0.6c0.7,0,1.3,0.1,1.8,0.1c0,0-1.2,0.1,1.1,2.6c2.3,2.6,7.5,6.6,9.2,8.6s2.6,5.2,1.4,9
			C168.8,89.1,168.4,89.7,168.4,89.8L168.4,89.8z"/>
		<path class="st12" d="M165.4,69.4c-2.3-0.8-4.9-1.7-6.3-1.9c-0.2,0-0.5-0.1-0.9-0.1c0,0,0.1,1.1,3.4,2.2
			C165.9,71.2,165.4,69.4,165.4,69.4z"/>
		<path class="st13" d="M166.1,69.6c0.4,0.5,1.4,0.8,1.9,1c0.6,0.2,1.5,0.2,1.5,0.2s-0.8,2.4-0.9,3.4c-0.1,1,0.8,0.7,0.8,0.7
			s-0.5,1.2,0,1.5c0.4,0.2,0.9-0.2,0.9-0.2s0.1,0.4,0.6,0.2c0.4-0.2,1.1-1.1,1.1-1.1c0.4,0.3,1.1-0.4,1.5-0.9
			c0.2-0.3,0.5-0.8,0.9-1.4c0,0-1,2.7-1.6,3.1s-0.7,0-0.7,0s-0.3,0.6-1,1c-0.5,0.3-1-0.1-1-0.1s-0.8,0.5-1.3,0.2
			c-0.5-0.3-0.3-1.5-0.3-1.5s-0.7,0.2-0.7-0.9c0-1.1,0.5-3.1,0.5-3.1s-0.8,0.1-1.9-0.7C165.2,70,166.1,69.6,166.1,69.6L166.1,69.6z"
			/>
		<path class="st27" d="M175.5,70.8l0-1c0,0-0.5,0.1-1.1,0.3"/>
		<path class="st12" d="M172,96.7c0.6-5.9,1.8-16.9,2.1-19.2c0,0-1.1-1.5-2.1,4c-1,5.6-2,12.7-1.4,13.9
			C171.2,96.6,172,96.7,172,96.7z"/>
		<path class="st12" d="M144.6,73c-0.8-0.1-2.1-0.2-3.5-0.5c0.1-0.2,0.1-0.4,0.2-0.6c0.4-1.2,1.3-2.1,2.5-2.8c0,0,0.8,0.7,1,1.7
			C145.1,71.7,144.6,73,144.6,73z"/>
		<path class="st12" d="M180.6,93.9c1.3,0,1-2.3,0.2-4.7c-0.8-2.4-0.7-4.5-0.4-8c0.3-3.5,0.7-7.9,0-8.7c-0.7-0.8-1.2,0-1.2,0
			c-0.9,2.5-2,6.9-1.4,13.2c0.4,4.1,1.1,6.5,1.8,8C179.6,93.7,179.8,93.9,180.6,93.9z"/>
		<path class="st12" d="M192.1,74.4c-3.8-4-8-4.8-10.2-5c0,0,0.2,1,2.5,2.1c2.3,1.1,3.1,1.6,3.8,2.3c0.7,0.7,2.1,1.8,3.1,1.6
			C192.2,75.1,192.1,74.4,192.1,74.4L192.1,74.4z"/>
		<path class="st26" d="M143,71.6c-1.3,0-3.8,0.7-4,3.3c-0.3,2.9-0.1,5.3,1,5.5c0,0,0.2,2.2,0.8,2.4s0.7,0,0.7,0s0.2,1.4,0.9,1.1
			c0.6-0.2,0.8-2.2,0.9-2.2c0,0,0.4,0.5,0.8-0.3c0.3-0.6,0.6-3.7,0.6-4.1c0.1-0.3,0.2-1.9,0.8-1.9c0.6,0,0.6,0.3,1.2,0.9
			c0.6,0.6,1.2,1,1.7,1s1-0.2,0.7-0.7c-0.3-0.5-1.1-1.3-1.3-1.6c-0.7-1.2-0.8-2.2-2.6-3C144.3,71.6,143.6,71.6,143,71.6L143,71.6z"
			/>
		<path class="st26" d="M186.9,93.9l-2.8,2.2c0,0,0.1,0.7,0.4,1.4s1,0.9,1,0.9l2.5-1.2L186.9,93.9L186.9,93.9z"/>
		<path class="st28" d="M175.6,68.9l0.1-2.7c0,0,1.1-0.2,2.4-1c1.1-0.6,1.4-0.8,1.4-0.8s-0.2,2.2-1.9,3.6
			C176.3,68.8,175.6,68.9,175.6,68.9z"/>
		<path class="st28" d="M145,76c0.1-0.3,0.3-0.5,0.5-0.5c0.6,0,0.6,0.3,1.2,0.9c0.6,0.6,1.2,1,1.7,1s1-0.2,0.7-0.7s-1.1-1.3-1.3-1.6
			c-0.6-1.2-0.8-2.2-2.6-3c-0.6-0.3-1.2-0.4-1.7-0.5c0,0,1,1,1.2,1.8C145,74.5,144.9,76,145,76L145,76z"/>
		<path class="st28" d="M186.5,97.9l1.4-0.7l-1.1-3.4l-1.3,1.1c0,0-0.2,0.7,0.1,1.8C185.9,97.9,186.5,97.9,186.5,97.9L186.5,97.9z"
			/>
		<path class="st13" d="M193.3,101.1c1.9-0.2,3-0.9,3-0.9c6-4.2,4.3-13.3-1.6-22.5c-0.5-0.8-1-1.4-1.5-2.1c0,0,3.9,8.3,4.3,12.3
			c0.4,4.1,0.7,7-0.9,9.7C195.1,100.2,193.3,101.1,193.3,101.1L193.3,101.1z M189.2,90.2c0,0-2.6-4.4-3.4-7.2s-0.9-6.1,0.5-4.3
			c-0.3-0.6-1.6-1.6-2.6,0.2c-1,1.8-1,2.8,0.3,8c1.3,5.1-1.3,9.3-1.3,9.3c2.8,0.1,4.1-1.4,4.1-1.4l1.6,8.6c0,0,0.6,0.3,2.1-0.4
			s2-1.8,2-1.8s-2,0.2-3.5-1.7c-1.5-1.8-1.6-5-1.6-5L189.2,90.2L189.2,90.2L189.2,90.2z"/>
		<path class="st12" d="M186.1,78.6c1.3,1.8,3.6,5.9,4.2,8.7c0.4,2,0.2,2.3,0.2,2.3l-1.4,0.5c0,0-2.2,1.4-2.6,2.6
			c-0.8,2.4-0.2,4.2,1,5.9c0.7,0.9,2.1,2,3.6,2.3c0,0-0.6-0.4-0.8-0.6c-0.1-0.2-0.6-0.7-0.8-1.8c-0.2-1.1-0.5-3.2-0.1-4.4
			s0.8-1.9,1.1-1.6s0.5,2.2,1.1,1.9c0.5-0.3,1.1-3.6,0-7.3c-1.1-3.7-2.3-6.5-4.1-8.6c-1.8-2.1-2.9-2.6-3.2-2.7
			c-0.4-0.1,0.2,0.5,0.5,0.8c0.2,0.3,0.9,1.2,0.9,1.2L186.1,78.6L186.1,78.6z"/>
		<path class="st17" d="M124.6,59l-6.5,4.4c0,0-0.9-0.8-1.4-1.5c-0.1-0.2-0.2-0.3-0.3-0.5c-0.2-0.6-0.3-1.3-0.3-1.3l6.6-2.6"/>
		<path class="st17" d="M129.3,53.4l7.3-4.3c0,0,0.9,0.2,1.4,0.7c0.1,0.1,0.2,0.2,0.3,0.4c0.3,0.7,0.5,2.2,0.5,2.2l-9,3.5
			c0,0,0-1-0.2-1.6S129.3,53.4,129.3,53.4L129.3,53.4z"/>
		<path class="st19" d="M130.9,54.2c0,0,3.7-1.4,5.1-2.2c1.4-0.7,2.5-1.5,2.5-1.5s0.2,1,0.3,1.3c0.1,0.4,0.1,0.5,0.1,0.5l-9,3.5
			c0,0,0-0.3,0-0.8c-0.1-0.4-0.1-0.5-0.1-0.5L130.9,54.2L130.9,54.2z"/>
		<path class="st19" d="M118,63.4l-1.2-1.3l6.1-3.8l0.5-0.3l1.1,1L118,63.4z"/>
		<path class="st23" d="M123.1,57.7l-6.9,3l-0.1-0.6l6.6-2.6L123.1,57.7z"/>
		<path class="st23" d="M129.5,54l8-4.5c0,0-0.7-0.4-1-0.4l-7.3,4.3L129.5,54L129.5,54z"/>
		<path class="st23" d="M116.1,60.1c0,0,0,0,0.1,0c0.3,0.1,0.9,0.4,1.3,1.2c0.5,1,0.4,2,0.4,2s-0.9-0.1-1.5-1.3
			S116.1,60.1,116.1,60.1L116.1,60.1z"/>
		<path class="st4" d="M146.7,51.4c1.4,0.6,9.9,4.4,9.9,4.4s3.5-1.2,3.9-2.9l-0.2-5.9l-4.3,1.4l-9-1.4L146.7,51.4L146.7,51.4z"/>
		<path class="st24" d="M156.6,55.8c0,0-8.5-3.8-9.9-4.4L147,47c0,0,1.7,4.1,3.9,5c2.1,0.9,5.6-0.1,5.6-0.1L156.6,55.8L156.6,55.8z"
			/>
		<path class="st24" d="M156,48.5L140.1,46l12.1-2.6l15.5,2.3L156,48.5z"/>
		<path class="st25" d="M156,48.5l-2.1-2.3L140.1,46L156,48.5z"/>
		<path class="st4" d="M167.7,45.7l-15.5-2.3L140.1,46l13.8,0.2L167.7,45.7z"/>
	</g>
</g>
</svg>
