<svg width="282" height="188" viewBox="0 0 282 188" fill="none" xmlns="http://www.w3.org/2000/svg">
<path d="M300.878 128.419C302.39 102.481 289.711 81.5734 267.874 73.2729C244.013 64.2044 208.07 58.6115 174.306 80.426C118.296 116.613 78.1377 62.9545 69.3882 58.8555C60.6388 54.7564 38.3436 36.8935 16.1177 50.293C-1.40829 60.8553 0.0188293 84.6907 0.0338745 87.2627C0.223572 117.968 38.3436 123.958 41.2611 135.641C48.7852 165.771 62.2435 175.228 98.244 168.599C140.694 160.784 295.865 214.538 300.878 128.422V128.419Z" fill="#E9D2B0"/>
<path d="M289.73 123.534C287.021 117.763 280.927 107.249 275.631 115.727C268.573 127.025 269.63 150.673 260.282 164.088C250.93 177.502 238.932 165.148 243.52 142.026C248.109 118.905 224.639 102.138 211.937 108.138C199.234 114.14 196.588 122.435 185.294 122.435C174 122.435 165.886 122.51 168.707 138.268C171.532 154.028 160.768 158.971 142.947 160.91C125.126 162.853 121.597 157.733 111.011 149.438C100.425 141.144 90.0134 150.673 74.6642 149.969C59.3151 149.264 66.1948 136.554 73.6045 129.672C81.0141 122.79 84.3682 98.7831 62.3109 92.6059C41.4157 86.754 27.0119 100.229 28.707 114.42" stroke="#F7EEE1" stroke-miterlimit="10" stroke-dasharray="4 4"/>
<path d="M16.9227 136.295C16.8023 135.621 16.6909 135.094 16.5885 134.75C16.5765 134.714 16.5765 134.678 16.5765 134.642L19.6506 91.0764C18.1271 90.7301 17.3714 90.3837 17.2991 90.3476C17.2268 90.3114 17.1666 90.2512 17.1425 90.1759C17.1184 90.1036 17.1184 90.0193 17.1546 89.95C17.7507 88.7272 18.2415 87.5255 18.654 86.3479C18.0036 86.5316 17.3653 86.622 16.7391 86.622C13.2766 86.622 10.2387 84.1794 8.55566 82.5019C6.6739 80.6195 7.68552 78.6919 8.16726 77.7673L8.25157 77.6047C8.52556 77.0746 8.86578 76.3638 9.1217 75.6169C10.2267 72.4394 11.3888 67.0242 12.3282 62.6722C13.0749 59.2147 13.665 56.486 14.0233 55.7391C14.9898 53.7392 24.0524 50.6883 24.4468 50.61C24.4769 50.6039 24.513 50.6039 24.5431 50.61C24.6576 50.2455 24.793 49.8932 24.9797 49.5769C25.7866 48.2035 27.2709 47.3723 29.2761 47.1705L29.0263 43.1708C28.9239 43.1829 28.8065 43.201 28.6559 43.201C27.831 43.201 26.4068 42.8365 25.1634 40.7223C24.8051 40.1139 24.5191 39.4874 24.3203 38.8519C24.2902 38.7495 24.2601 38.6321 24.236 38.4935C24.1276 37.9695 23.9861 37.2587 23.0769 36.3913C22.4265 35.7769 22.1224 35.2016 22.0321 34.6957C20.9151 33.6506 20.3972 31.5905 20.331 30.8135C20.2346 29.6961 20.7555 28.145 22.4988 27.1361C22.851 26.9343 23.2274 26.8258 23.6038 26.7957C23.7814 26.5759 23.9681 26.4132 24.1517 26.2476C24.4378 25.9916 24.7057 25.7446 24.9586 25.2928C25.1965 24.8621 25.2326 24.5339 25.2687 24.1815C25.3229 23.7026 25.3832 23.1665 25.9372 22.4437C26.5273 21.6907 28.4753 21.7751 29.9416 22.2871C30.2155 22.3834 30.4594 22.4889 30.6822 22.6033C30.7906 22.5551 30.896 22.5069 31.0164 22.4708C32.5459 22.01 35.2075 23.0792 36.6045 24.7055C38.1671 26.5277 39.1005 26.8499 40.3951 27.2897L40.8317 27.4463C41.75 27.7685 42.3793 28.3167 42.6472 29.0214C42.9092 29.7081 42.8038 30.5153 42.3431 31.3556C42.2167 31.5815 42.0752 31.7682 41.9066 31.9097C41.8283 32.1477 41.4278 33.2108 40.3018 33.5873C40.8859 34.5842 42.4515 37.7797 41.8524 42.4721C41.8403 42.5564 41.7922 42.6347 41.7199 42.6799C41.5814 42.7703 39.2661 44.2491 36.3124 45.0141L36.4841 47.3904C38.7934 47.6403 40.0248 49.3962 40.3289 51.2424C41.193 51.4051 46.751 52.5194 55.651 56.0372C57.596 50.6521 61.0885 46.8964 61.1247 46.8543C61.1849 46.788 61.2752 46.7639 61.3565 46.7639C62.3049 44.3153 62.8619 43.9449 63.2021 43.8846C63.2383 43.8786 63.2684 43.8786 63.2985 43.8786L63.5484 43.4901C63.6688 43.1377 64.4908 40.8036 66.3484 39.9362C66.6947 39.7735 67.1313 39.7735 67.601 39.7735C68.0074 39.7796 68.4319 39.7796 68.724 39.6531C69.4887 39.3248 70.2113 38.7345 70.2234 38.7224C70.3498 38.62 70.5034 38.4182 70.666 38.2044C71.1086 37.6141 71.7167 36.7949 72.7254 36.9033C72.8639 36.9153 72.9753 36.9936 73.0415 37.1111C73.168 37.343 73.0837 37.7255 72.6953 38.5508C73.2161 38.0899 73.8243 37.596 74.3964 37.2617C75.2394 36.7708 75.8355 36.6413 76.2239 36.8551C76.4558 36.9876 76.5943 37.2316 76.6003 37.5478C76.6244 38.3249 75.9861 38.7074 75.4773 39.0116C75.2274 39.1621 74.9925 39.3037 74.8871 39.4543C74.8089 39.5627 74.7426 39.6561 74.6975 39.7464C75.1762 39.6139 75.7663 39.5898 76.3564 39.885C76.805 40.1048 77.0309 40.3819 77.0248 40.7042C77.0188 41.2584 76.3203 41.6107 76.1487 41.689C73.0987 42.6739 71.0815 45.3604 71.0574 45.3845C70.9972 45.4628 70.9128 45.505 70.8075 45.505C68.9106 45.4327 67.899 45.767 67.8478 45.779C67.8418 45.7851 67.4594 45.8634 67.071 46.1435C67.3992 46.52 67.6913 46.9868 67.4233 47.4265C67.4233 47.4265 67.4213 47.4285 67.4173 47.4325C67.1553 47.9475 66.4629 49.3902 66.4327 49.9775C66.4388 49.9956 66.4508 50.0136 66.4508 50.0377C66.5351 50.8208 66.213 51.896 66.2009 51.9291C66.1708 52.0315 63.4129 62.2174 58.3938 67.4128C58.3517 67.4549 58.3035 67.4851 58.2493 67.4971C58.2132 67.5091 56.2863 67.9639 53.3899 67.9639C50.9902 67.9639 47.9162 67.6417 44.7036 66.5002C44.4898 67.8495 43.963 73.4514 48.0878 81.6194C48.1601 81.7579 48.2263 81.8995 48.3016 82.0441L48.3076 82.0501C49.1717 83.6855 50.2164 85.4233 51.4659 87.2635L51.5021 87.3177V87.3298C51.5261 87.3599 51.5442 87.396 51.5502 87.4382V87.4743C51.5502 87.4984 51.5502 87.5285 51.5442 87.5587V87.5707C51.5442 87.5707 51.5322 87.5888 51.5262 87.6008C51.5201 87.6249 51.5081 87.649 51.4961 87.6671L51.4599 87.7032C51.4599 87.7032 51.4418 87.7273 51.4238 87.7394C51.4178 87.7454 51.4117 87.7394 51.4057 87.7454C51.3997 87.7514 51.3937 87.7574 51.3816 87.7635C51.3576 87.7755 48.7803 88.9802 45.8718 89.8838L58.0687 127.89L69.2599 170.781C69.284 170.871 69.2659 170.964 69.2057 171.043C69.1636 171.097 68.7631 171.585 67.9773 172.154L68.7721 177.105C68.8143 177.081 68.8444 177.063 68.8504 177.057L68.9769 176.997L71.5843 178.102C72.2828 178.382 79.5539 180.783 82.2576 180.933C82.3419 180.939 82.4202 180.939 82.4955 180.939C82.5557 180.939 82.622 180.939 82.6731 180.933C82.7093 180.927 83.4861 180.855 84.028 181.424C84.2779 181.692 84.4164 182.051 84.4706 182.487C84.573 182.864 84.4887 183.331 84.4525 183.508C84.4465 183.526 84.4405 183.538 84.4345 183.551L84.4164 183.593C84.4164 183.593 84.4104 183.599 84.4104 183.605C84.4104 183.611 84.4044 183.611 84.4044 183.611C84.2659 183.825 83.5162 184.475 79.6171 185.228C79.5931 185.234 79.5629 185.24 79.5389 185.246C79.5148 185.252 79.4967 185.252 79.4726 185.258C79.4546 185.264 79.4305 185.264 79.4124 185.27C79.024 185.349 78.6236 185.421 78.2111 185.49C90.3236 185.728 98.2451 186.129 98.2451 186.583C98.2451 187.324 77.1663 187.927 51.1648 187.927C37.7757 187.927 25.6993 187.764 17.1275 187.508C17.0793 187.508 17.0311 187.514 16.989 187.514H16.8926C16.2122 187.508 15.6341 187.484 15.1433 187.448C8.24252 187.216 4.08159 186.912 4.08159 186.583C4.08159 186.309 7.07132 186.047 12.1927 185.83C12.1747 185.653 12.1747 185.472 12.2228 185.312C12.2409 184.918 12.3372 184.578 12.5209 184.309C12.8973 183.749 13.4814 183.683 13.4934 183.683C15.0922 183.433 20.1624 180.072 21.7672 178.918L21.7611 178.912L23.8446 177.193L23.5044 173.973C21.8936 173.967 21.1831 173.834 20.9151 173.494C20.9151 173.494 20.9131 173.49 20.9091 173.482C20.885 173.458 20.879 173.422 20.8609 173.392V173.386C20.8489 173.356 20.8308 173.338 20.8308 173.307C20.8007 172.991 18.3228 144.268 16.9197 136.299" fill="#F7EEE1"/>
<path d="M30.0694 125.193C35.802 128.756 40.3273 131.906 41.2607 135.641C44.3829 148.14 48.5228 157.079 54.8726 162.792L55.6133 161.31L47.3757 134.743L32.9628 104.11L31.7495 111.293L30.0694 125.196V125.193Z" fill="#E9D2B1"/>
<path d="M21.3696 125.435L20.4875 134.459L23.4832 164.23C23.5013 164.387 23.6277 164.498 23.7813 164.498H23.8114C23.974 164.48 24.0914 164.336 24.0734 164.17L21.0776 134.456L21.9598 125.493C21.9778 125.324 21.8574 125.182 21.6918 125.164C21.5292 125.158 21.3817 125.273 21.3696 125.432V125.435Z" fill="#420A98"/>
<path d="M35.1832 35.6817C35.1049 35.8263 35.1591 36.004 35.3037 36.0883C35.9239 36.4347 36.9446 37.1937 37.0168 37.7599C37.0289 37.8563 37.0289 37.9978 36.8482 38.1725C36.782 38.2086 36.4237 38.3984 36.1497 38.3743C35.9871 38.3622 35.8456 38.4887 35.8336 38.6484C35.8215 38.817 35.948 38.9586 36.1075 38.9706H36.1979C36.7007 38.9706 37.1704 38.6664 37.2246 38.6303C37.5347 38.3381 37.6551 38.0219 37.613 37.6816C37.4745 36.6365 35.7794 35.6697 35.5897 35.5613C35.4391 35.483 35.2675 35.5372 35.1832 35.6817Z" fill="#420A98"/>
<path d="M50.3094 117.311C50.1588 117.378 50.0896 117.555 50.1528 117.706L54.9159 128.491L65.505 169.771C65.5411 169.909 65.6616 169.991 65.791 169.991C65.8151 169.991 65.8392 169.991 65.8693 169.985C66.0259 169.942 66.1192 169.783 66.0831 169.62L55.4759 128.298L50.7008 117.468C50.6345 117.311 50.4569 117.248 50.3064 117.311H50.3094Z" fill="#420A98"/>
<path d="M34.2762 40.6437C34.1919 40.7822 34.2401 40.966 34.3846 41.0503C34.9747 41.3966 35.5739 41.5171 36.1279 41.5171C37.5008 41.5171 38.6118 40.7581 38.672 40.716C38.8105 40.6196 38.8406 40.4359 38.7503 40.2973C38.654 40.1588 38.4703 40.1287 38.3318 40.2251C38.3137 40.2371 36.4049 41.5382 34.6857 40.5353C34.5472 40.4509 34.3635 40.4991 34.2792 40.6437H34.2762Z" fill="#420A98"/>
<path d="M32.335 35.6202C31.9948 35.7588 31.8804 36.2587 32.0791 36.7316C32.2808 37.2105 32.7114 37.4785 33.0516 37.334C33.3918 37.1894 33.5062 36.6955 33.3015 36.2166C33.1058 35.7437 32.6692 35.4757 32.335 35.6202Z" fill="#420A98"/>
<path d="M57.8186 62.9092C57.7042 63.0297 57.7163 63.2195 57.8367 63.3279C57.8909 63.3821 57.9692 63.4122 58.0384 63.4122C58.1167 63.4122 58.195 63.3821 58.2522 63.3158C60.9137 60.4787 62.4854 55.6478 62.5486 55.446C62.6028 55.2894 62.5125 55.1177 62.3589 55.0695C62.1964 55.0153 62.0308 55.1057 61.9826 55.2593C61.9645 55.3075 60.3839 60.1685 57.8156 62.9092H57.8186Z" fill="#420A98"/>
<path d="M39.0756 76.512C39.0696 76.5301 39.0696 76.5482 39.0696 76.5662C39.0756 76.5843 39.0756 76.6084 39.0816 76.6265C39.0876 76.6445 39.0937 76.6566 39.0997 76.6747L39.1358 76.7289C39.1358 76.7289 39.1539 76.753 39.1659 76.759C39.184 76.7771 39.2021 76.7891 39.2261 76.8012C39.2322 76.8072 39.2442 76.8132 39.2562 76.8192C39.2562 76.8192 39.2743 76.8313 39.2924 76.8373C39.7109 77.0511 42.7368 79.4997 44.474 84.3065C44.5162 84.433 44.6306 84.5023 44.754 84.5023H44.7781C44.8022 84.5023 44.8263 84.5023 44.8504 84.4963C45.0129 84.4541 45.1063 84.2885 45.0641 84.1319C43.4413 77.9517 39.6386 76.3343 39.4821 76.2681C39.476 76.262 39.464 76.2681 39.458 76.262C39.4519 76.262 39.4399 76.256 39.4339 76.25H39.3375C39.3195 76.25 39.3014 76.256 39.2833 76.262L39.2291 76.2801C39.2111 76.2922 39.199 76.2982 39.181 76.3163C39.1689 76.3223 39.1509 76.3343 39.1388 76.3524C39.1268 76.3644 39.1147 76.3825 39.1087 76.4006C39.1027 76.4126 39.0906 76.4187 39.0846 76.4307V76.4548C39.0846 76.4548 39.0726 76.4668 39.0726 76.4729C39.0666 76.4909 39.0726 76.503 39.0726 76.515L39.0756 76.512Z" fill="#420A98"/>
<path d="M16.9227 136.295C16.8023 135.621 16.6909 135.094 16.5885 134.75C16.5765 134.714 16.5765 134.678 16.5765 134.642L19.6506 91.0764C18.1271 90.7301 17.3714 90.3837 17.2991 90.3476C17.2268 90.3114 17.1666 90.2512 17.1425 90.1759C17.1184 90.1036 17.1184 90.0193 17.1546 89.95C17.7507 88.7272 18.2415 87.5255 18.654 86.3479C18.0036 86.5316 17.3653 86.622 16.7391 86.622C13.2766 86.622 10.2387 84.1794 8.55566 82.5019C6.6739 80.6195 7.68552 78.6919 8.16726 77.7673L8.25157 77.6047C8.52556 77.0746 8.86578 76.3638 9.1217 75.6169C10.2267 72.4394 11.3888 67.0242 12.3282 62.6722C13.0749 59.2147 13.665 56.486 14.0233 55.7391C14.9898 53.7392 24.0524 50.6883 24.4468 50.61C24.4769 50.6039 24.513 50.6039 24.5431 50.61C24.6576 50.2455 24.793 49.8932 24.9797 49.5769C25.7866 48.2035 27.2709 47.3723 29.2761 47.1705L29.0263 43.1708C28.9239 43.1829 28.8065 43.201 28.6559 43.201C27.831 43.201 26.4068 42.8365 25.1634 40.7223C24.8051 40.1139 24.5191 39.4874 24.3203 38.8519C24.2902 38.7495 24.2601 38.6321 24.236 38.4935C24.1276 37.9695 23.9861 37.2587 23.0769 36.3913C22.4265 35.7769 22.1224 35.2016 22.0321 34.6957C20.9151 33.6506 20.3972 31.5905 20.331 30.8135C20.2346 29.6961 20.7555 28.145 22.4988 27.1361C22.851 26.9343 23.2274 26.8258 23.6038 26.7957C23.7814 26.5759 23.9681 26.4132 24.1517 26.2476C24.4378 25.9916 24.7057 25.7446 24.9586 25.2928C25.1965 24.8621 25.2326 24.5339 25.2687 24.1815C25.3229 23.7026 25.3832 23.1665 25.9372 22.4437C26.5273 21.6907 28.4753 21.7751 29.9416 22.2871C30.2155 22.3834 30.4594 22.4889 30.6822 22.6033C30.7906 22.5551 30.896 22.5069 31.0164 22.4708C32.5459 22.01 35.2075 23.0792 36.6045 24.7055C38.1671 26.5277 39.1005 26.8499 40.3951 27.2897L40.8317 27.4463C41.75 27.7685 42.3793 28.3167 42.6472 29.0214C42.9092 29.7081 42.8038 30.5153 42.3431 31.3556C42.2167 31.5815 42.0752 31.7682 41.9066 31.9097C41.8283 32.1477 41.4278 33.2108 40.3018 33.5873C40.8859 34.5842 42.4515 37.7797 41.8524 42.4721C41.8403 42.5564 41.7922 42.6347 41.7199 42.6799C41.5814 42.7703 39.2661 44.2491 36.3124 45.0141L36.4841 47.3904C38.7934 47.6403 40.0248 49.3962 40.3289 51.2424C41.193 51.4051 46.751 52.5194 55.651 56.0372C57.596 50.6521 61.0885 46.8964 61.1247 46.8543C61.1849 46.788 61.2752 46.7639 61.3565 46.7639C62.3049 44.3153 62.8619 43.9449 63.2021 43.8846C63.2383 43.8786 63.2684 43.8786 63.2985 43.8786L63.5484 43.4901C63.6688 43.1377 64.4908 40.8036 66.3484 39.9362C66.6947 39.7735 67.1313 39.7735 67.601 39.7735C68.0074 39.7796 68.4319 39.7796 68.724 39.6531C69.4887 39.3248 70.2113 38.7345 70.2234 38.7224C70.3498 38.62 70.5034 38.4182 70.666 38.2044C71.1086 37.6141 71.7167 36.7949 72.7254 36.9033C72.8639 36.9153 72.9753 36.9936 73.0415 37.1111C73.168 37.343 73.0837 37.7255 72.6953 38.5508C73.2161 38.0899 73.8243 37.596 74.3964 37.2617C75.2394 36.7708 75.8355 36.6413 76.2239 36.8551C76.4558 36.9876 76.5943 37.2316 76.6003 37.5478C76.6244 38.3249 75.9861 38.7074 75.4773 39.0116C75.2274 39.1621 74.9925 39.3037 74.8871 39.4543C74.8089 39.5627 74.7426 39.6561 74.6975 39.7464C75.1762 39.6139 75.7663 39.5898 76.3564 39.885C76.805 40.1048 77.0309 40.3819 77.0248 40.7042C77.0188 41.2584 76.3203 41.6107 76.1487 41.689C73.0987 42.6739 71.0815 45.3604 71.0574 45.3845C70.9972 45.4628 70.9128 45.505 70.8075 45.505C68.9106 45.4327 67.899 45.767 67.8478 45.779C67.8418 45.7851 67.4594 45.8634 67.071 46.1435C67.3992 46.52 67.6913 46.9868 67.4233 47.4265C67.4233 47.4265 67.4213 47.4285 67.4173 47.4325C67.1553 47.9475 66.4629 49.3902 66.4327 49.9775C66.4388 49.9956 66.4508 50.0136 66.4508 50.0377C66.5351 50.8208 66.213 51.896 66.2009 51.9291C66.1708 52.0315 63.4129 62.2174 58.3938 67.4128C58.3517 67.4549 58.3035 67.4851 58.2493 67.4971C58.2132 67.5091 56.2863 67.9639 53.3899 67.9639C50.9902 67.9639 47.9162 67.6417 44.7036 66.5002C44.4898 67.8495 43.963 73.4514 48.0878 81.6194C48.1601 81.7579 48.2263 81.8995 48.3016 82.0441L48.3076 82.0501C49.1717 83.6855 50.2164 85.4233 51.4659 87.2635L51.5021 87.3177V87.3298C51.5261 87.3599 51.5442 87.396 51.5502 87.4382V87.4743C51.5502 87.4984 51.5502 87.5285 51.5442 87.5587V87.5707C51.5442 87.5707 51.5322 87.5888 51.5262 87.6008C51.5201 87.6249 51.5081 87.649 51.4961 87.6671L51.4599 87.7032C51.4599 87.7032 51.4418 87.7273 51.4238 87.7394C51.4178 87.7454 51.4117 87.7394 51.4057 87.7454C51.3997 87.7514 51.3937 87.7574 51.3816 87.7635C51.3576 87.7755 48.7803 88.9802 45.8718 89.8838L58.0687 127.89L69.2599 170.781C69.284 170.871 69.2659 170.964 69.2057 171.043C69.1636 171.097 68.7631 171.585 67.9773 172.154L68.7721 177.105C68.8143 177.081 68.8444 177.063 68.8504 177.057L68.9769 176.997L71.5843 178.102C72.2828 178.382 79.5539 180.783 82.2576 180.933C82.3419 180.939 82.4202 180.939 82.4955 180.939C82.5557 180.939 82.622 180.939 82.6731 180.933C82.7093 180.927 83.4861 180.855 84.028 181.424C84.2779 181.692 84.4164 182.051 84.4706 182.487C84.573 182.864 84.4887 183.331 84.4525 183.508C84.4465 183.526 84.4405 183.538 84.4345 183.551L84.4164 183.593C84.4164 183.593 84.4104 183.599 84.4104 183.605C84.4104 183.611 84.4044 183.611 84.4044 183.611C84.2659 183.825 83.5162 184.475 79.6171 185.228C79.5931 185.234 79.5629 185.24 79.5389 185.246C79.5148 185.252 79.4967 185.252 79.4726 185.258C79.4546 185.264 79.4305 185.264 79.4124 185.27C79.024 185.349 78.6236 185.421 78.2111 185.49C90.3236 185.728 98.2451 186.129 98.2451 186.583C98.2451 187.324 77.1663 187.927 51.1648 187.927C37.7757 187.927 25.6993 187.764 17.1275 187.508C17.0793 187.508 17.0311 187.514 16.989 187.514H16.8926C16.2122 187.508 15.6341 187.484 15.1433 187.448C8.24252 187.216 4.08159 186.912 4.08159 186.583C4.08159 186.309 7.07132 186.047 12.1927 185.83C12.1747 185.653 12.1747 185.472 12.2228 185.312C12.2409 184.918 12.3372 184.578 12.5209 184.309C12.8973 183.749 13.4814 183.683 13.4934 183.683C15.0922 183.433 20.1624 180.072 21.7672 178.918L21.7611 178.912L23.8446 177.193L23.5044 173.973C21.8936 173.967 21.1831 173.834 20.9151 173.494C20.9151 173.494 20.9131 173.49 20.9091 173.482C20.885 173.458 20.879 173.422 20.8609 173.392V173.386C20.8489 173.356 20.8308 173.338 20.8308 173.307C20.8007 172.991 18.3228 144.268 16.9197 136.299M23.2063 178.491C23.4924 178.605 23.7543 178.795 23.941 178.939C24.0975 179.06 24.2631 179.195 24.4378 179.334C24.51 179.394 24.5823 179.448 24.6515 179.506C24.7479 179.31 24.8533 179.003 24.8472 178.557C24.8472 178.021 24.4709 177.732 24.2631 177.62L23.2063 178.491ZM25.2718 179.572C25.2898 179.578 25.3079 179.578 25.3199 179.59C25.5819 179.747 26.2924 179.768 26.8073 179.56C27.003 179.488 27.2499 179.346 27.3161 179.111C27.5238 178.4 27.9966 177.97 28.2284 177.798L28.5686 172.103C28.5686 172.103 28.5566 172.097 28.5445 172.097C27.9062 172.085 25.6481 172.163 24.3655 172.211C24.239 172.217 24.1216 172.271 24.0433 172.356C24.0012 172.41 23.947 172.488 23.959 172.588L24.4317 177.042C24.7178 177.175 25.4404 177.596 25.4464 178.56C25.4524 178.985 25.3741 179.319 25.2748 179.575L25.2718 179.572ZM24.3896 51.2424C23.0468 51.637 15.3089 54.438 14.5592 56.0011C14.2311 56.6817 13.6169 59.5128 12.9123 62.7957C11.976 67.1658 10.8048 72.5991 9.68774 75.8127C9.41978 76.5957 9.06149 77.3246 8.78751 77.8727L8.69717 78.0444C8.24253 78.9028 7.40855 80.505 8.97719 82.0742C10.9282 84.0258 14.7971 87.0497 18.8858 85.6522C18.9099 85.5799 18.94 85.5076 18.9581 85.4323L17.8531 85.4022C17.4587 85.3239 17.2268 84.8782 17.1606 84.071C17.1124 83.4084 17.1847 82.5651 17.3623 81.6887C17.5399 80.8183 17.8109 80.0111 18.115 79.4208C18.383 78.9118 18.657 78.6076 18.94 78.5022C18.1211 78.1137 16.7842 77.8396 14.6827 78.2402C14.5201 78.2703 14.3666 78.1679 14.3304 78.0083C14.3003 77.8456 14.4087 77.686 14.5683 77.6559C16.2814 77.3276 17.5339 77.43 18.4492 77.692C19.9787 75.2434 19.0273 66.5363 19.0153 66.449C19.0153 66.4309 19.0213 66.4189 19.0213 66.4008C19.0213 66.4008 19.0153 66.4008 19.0153 66.3948C18.9852 66.2442 19.0755 66.0966 19.217 66.0484C19.3675 66.0063 19.5211 66.0785 19.5813 66.2171C19.6174 66.2954 19.9637 67.1357 20.2919 68.6777C20.8218 70.9275 21.3788 74.6441 20.894 79.1618L21.6648 79.4961C21.7009 79.5142 21.731 79.5382 21.7611 79.5684C22.2639 79.5443 22.8601 79.6467 23.2485 79.731C23.9169 77.5746 24.8593 76.4 24.9315 76.3156C24.9436 76.2976 24.9677 76.2855 24.9857 76.2735C24.9917 76.2674 25.0038 76.2494 25.0098 76.2494C25.0098 76.2494 25.0158 76.2494 25.0158 76.2433C25.0339 76.2373 25.052 76.2313 25.0761 76.2253C25.2085 76.1831 25.3681 76.2132 25.4404 76.3397C25.5186 76.4722 25.5006 76.6138 25.3862 76.7042C25.3681 76.7222 25.2958 76.8246 25.1784 76.9963C24.6124 77.939 23.1431 81.1285 23.2846 85.607C23.2846 85.6974 23.2425 85.7636 23.1883 85.8209C23.1401 85.8811 23.0739 85.9233 22.9986 85.9353C22.8842 85.9534 21.9538 86.0919 21.3095 85.8148C21.0476 85.9925 20.4665 86.2997 19.5964 86.3569C19.3766 87.0557 19.0544 87.7906 18.7142 88.5435C18.5245 88.9802 18.3198 89.4199 18.1421 89.8687C18.6449 90.0765 19.9155 90.5433 22.0231 90.8897C24.1668 91.1818 27.1144 91.3445 30.9231 91.0614C30.1583 88.1309 26.0094 71.3612 27.9333 59.6694C27.3312 58.8984 25.2416 56.2179 25.067 55.8294C24.3625 54.2422 24.1427 52.6279 24.3926 51.2424H24.3896ZM19.5422 78.1558C19.7921 78.3064 19.9968 78.46 20.1443 78.5986C20.3159 76.671 20.34 74.9392 20.2768 73.4514C20.1805 76.0717 19.7048 77.686 19.5422 78.1558ZM20.7314 84.2698C21.1379 84.4716 22.0321 84.8239 22.6072 84.7547C22.553 83.0108 22.7698 81.523 23.0919 80.3002C22.5259 80.1858 21.6648 80.0743 21.4269 80.2279C21.0807 80.496 20.322 83.3813 20.7344 84.2698H20.7314ZM31.5764 91.6035C31.5222 91.6758 31.444 91.724 31.3566 91.73C30.8207 91.7722 30.3058 91.8083 29.8 91.8324C32.9945 91.9348 36.7069 91.7601 40.4493 90.968L39.3564 88.2574C38.3598 88.5254 36.3847 88.9441 33.8526 88.9441C32.9584 88.9441 31.9829 88.8838 30.9682 88.7543C31.3446 90.3476 31.6065 91.3174 31.6186 91.3565C31.6427 91.4409 31.6246 91.5342 31.5764 91.6065V91.6035ZM25.4885 49.8751C24.4799 51.6069 24.8864 53.9591 25.609 55.5824C25.7113 55.8023 26.8735 57.3443 28.0568 58.8532C28.1712 58.1063 28.3548 56.9197 28.5054 56.1667C27.0843 55.0915 25.5698 52.3809 26.2442 50.2184C26.6447 48.9414 27.5811 48.2728 28.3217 47.9385C27.021 48.2487 26.0726 48.8932 25.4915 49.8721L25.4885 49.8751ZM22.9685 34.6234C23.1762 34.7137 23.8175 34.8914 24.0193 34.5812C24.1337 34.4186 24.1638 34.2589 24.1216 34.1204C24.0614 33.9427 23.8898 33.7861 23.6429 33.7018C23.2063 33.5451 23.0227 33.6475 22.83 33.7801C22.6734 33.9578 22.6042 34.1686 22.6042 34.4005C22.7246 34.4908 22.842 34.5692 22.9685 34.6204V34.6234ZM23.9109 27.38C23.8085 27.5246 23.7152 27.6902 23.6248 27.898C23.4111 28.389 23.6309 28.5305 23.7152 28.5847C24.1578 28.8708 25.07 28.7413 25.2898 28.5004C25.3561 28.4341 25.5156 28.2564 25.2718 27.9522C25.0279 27.6481 24.501 27.3981 23.9109 27.38ZM30.7033 23.3081C30.4895 23.4918 30.3631 23.7628 30.3209 24.1092C30.3089 24.1996 30.2968 24.6001 30.4173 24.8501C30.4775 24.9826 30.7033 25.2206 30.9712 25.1844C31.0616 25.1784 31.4861 25.1001 31.4951 24.4315C31.5011 24.0309 31.2151 23.6363 30.7003 23.3081H30.7033ZM36.4931 51.5828H36.469C36.3125 51.5828 36.183 51.4623 36.1709 51.3087L35.8849 47.3904C35.7886 47.3964 35.6892 47.4084 35.5989 47.4084C32.9253 47.4084 32.2448 45.3423 32.2328 45.3182C32.2207 45.2761 32.2207 45.2279 32.2268 45.1857C32.2268 45.1737 32.2207 45.1677 32.2207 45.1556C32.2268 44.987 32.3713 44.8514 32.5369 44.8695C36.4901 45.0653 40.5427 42.707 41.2773 42.2613C41.8373 37.5026 40.0549 34.3252 39.6725 33.7108C39.3925 33.7289 39.0884 33.7168 38.7362 33.6445C38.5104 33.6024 38.2996 33.5482 38.1039 33.4879C38.1942 33.5843 38.2725 33.7018 38.3297 33.8403C38.5254 34.3132 38.414 34.8131 38.0798 34.9517C37.7396 35.0962 37.303 34.8252 37.1073 34.3553C36.9116 33.8764 37.023 33.3825 37.3572 33.2379C37.3753 33.2319 37.3933 33.2259 37.4114 33.2259C37.1013 33.0813 36.8393 32.9338 36.6045 32.7952C35.8879 32.3826 35.4152 32.1025 34.235 32.4248C33.5365 32.6085 32.9885 32.8314 32.5038 33.0211C31.447 33.4458 30.613 33.7801 29.0413 33.5301C28.8095 33.4939 28.5807 33.4458 28.3729 33.3915C28.1712 33.3434 27.9785 33.2891 27.7948 33.2229C27.7768 33.2651 27.7587 33.3072 27.7467 33.3313C27.6684 33.4819 27.4907 33.5391 27.3462 33.4638C27.1957 33.3915 27.1385 33.2139 27.2077 33.0633C27.2198 33.0452 27.2258 33.0271 27.2378 33.003C26.6176 32.7109 26.1569 32.3344 25.9372 31.9037C25.7595 31.5634 25.7475 31.199 25.901 30.8767C26.169 30.3225 26.5574 30.1298 26.9036 30.1298C27.0421 30.1298 27.1716 30.1599 27.286 30.2081C27.9424 30.4942 28.3729 31.4971 27.9966 32.6627C28.3187 32.7771 28.7011 32.8705 29.1377 32.9368C30.5407 33.1627 31.2693 32.8705 32.278 32.4639C32.7808 32.2681 33.3468 32.0393 34.0875 31.8435C35.5025 31.467 36.1529 31.8435 36.9056 32.2802C37.3964 32.5603 37.9504 32.8826 38.8506 33.0572C40.079 33.2952 40.7263 32.7771 41.0545 32.3163C40.7384 32.3645 40.4222 32.3224 40.1483 32.2019C39.7538 32.0332 39.5401 31.7652 39.4859 31.3767C39.4437 31.0785 39.516 30.6659 39.8381 30.4219C40.2085 30.1418 40.5969 30.1117 41.0274 30.3436C41.3616 30.5273 41.5934 30.8978 41.738 31.202C41.7681 31.1598 41.7982 31.1176 41.8223 31.0634C42.2046 30.3707 42.295 29.7503 42.0902 29.2232C41.8343 28.5486 41.1599 28.1842 40.639 28.0004L40.2085 27.8498C38.8777 27.389 37.8269 27.0306 36.1559 25.085C34.9576 23.6875 32.6513 22.7087 31.3265 23.0009C31.8354 23.4135 32.1093 23.9014 32.1033 24.4345C32.0913 25.2898 31.5614 25.7175 31.0405 25.7717C30.4504 25.8319 30.0198 25.3832 29.8813 25.091C29.6736 24.6363 29.7368 24.0339 29.7368 24.0279C29.785 23.6153 29.9265 23.2689 30.1613 23.0009C30.0289 22.9466 29.8934 22.8924 29.7488 22.8382C28.2796 22.3232 26.723 22.4015 26.4128 22.8021C25.9582 23.3864 25.9161 23.7749 25.8709 24.2297C25.8288 24.6122 25.7806 25.0368 25.4885 25.5669C25.1844 26.109 24.8683 26.3982 24.5582 26.6783C24.504 26.7325 24.4498 26.7807 24.3956 26.8288C24.9616 26.9373 25.4584 27.2113 25.7445 27.5758C26.0967 28.0065 26.0907 28.5064 25.7384 28.8949V28.901C25.3139 29.3557 24.0795 29.5274 23.393 29.0787C23.1792 28.9341 22.7065 28.5064 23.0889 27.645C23.113 27.5908 23.1371 27.5306 23.1672 27.4764C23.0407 27.5185 22.9233 27.5788 22.8029 27.645C21.3035 28.5094 20.8519 29.8196 20.9332 30.7562C20.9874 31.4068 21.3938 32.8946 22.1044 33.8554C22.1766 33.6596 22.282 33.4909 22.4145 33.3464L22.4325 33.3283C22.4325 33.3283 22.4506 33.3102 22.4627 33.3042C22.7728 33.0904 23.1612 32.8795 23.8537 33.1325C24.2722 33.2831 24.5763 33.5692 24.6967 33.9216C24.769 34.1475 24.7991 34.4999 24.5221 34.9065C24.3023 35.2348 23.95 35.3432 23.5977 35.3432C23.4532 35.3432 23.3117 35.3251 23.1732 35.301C23.944 36.3341 25.2808 36.8461 25.7174 36.9906C25.8679 36.3762 26.1359 35.9455 26.5303 35.7438C26.9548 35.5299 27.4124 35.6052 27.7707 35.7317L27.5269 34.6143C27.4907 34.4517 27.5931 34.2981 27.7527 34.262C27.9153 34.2258 28.0748 34.3282 28.1049 34.4878L28.4873 36.2196C28.5114 36.3401 28.4632 36.4636 28.3609 36.5359C28.2525 36.6021 28.123 36.6021 28.0206 36.5238C28.0146 36.5178 27.298 36.0208 26.8043 36.2738C26.3918 36.4877 26.172 37.1924 26.172 38.3098C26.172 38.9363 26.2744 39.7253 26.7501 39.9633C27.3944 40.2795 28.5415 39.5748 28.9239 39.2826C29.0142 39.2103 29.1256 39.1983 29.228 39.2465C29.3304 39.2886 29.3966 39.391 29.4056 39.4965L30.1102 50.872C30.1162 51.0346 29.9897 51.1762 29.8301 51.1882H29.8121C29.6555 51.1882 29.5261 51.0678 29.514 50.9081L29.4418 49.7486C29.4418 49.7486 29.4177 49.7727 29.4056 49.7727C29.3876 49.7787 27.7226 50.4112 27.6744 51.7785C27.6383 52.8839 28.2826 54.3356 28.7192 55.1819C33.2203 57.1094 35.9662 54.9018 36.0866 54.7994C36.0987 54.7873 36.1168 54.7873 36.1348 54.7753C36.6828 53.9741 37.3572 52.7212 37.2518 51.5617C37.2036 51.0828 37.02 50.6672 36.7099 50.3028L36.7821 51.2455C36.7942 51.4141 36.6677 51.5557 36.5082 51.5677L36.4931 51.5828ZM27.0451 30.7623C26.997 30.7382 26.9488 30.7321 26.9006 30.7321C26.6748 30.7321 26.5182 30.9761 26.4339 31.1447C26.3617 31.2953 26.3677 31.455 26.4641 31.6357C26.5965 31.8796 26.9066 32.1778 27.4365 32.4428C27.7045 31.5784 27.3944 30.9189 27.0421 30.7653L27.0451 30.7623ZM41.2592 31.6327C41.1569 31.3646 40.9732 31.0002 40.7414 30.8737C40.4915 30.7412 40.353 30.7773 40.1994 30.8978C40.067 31.0002 40.0609 31.196 40.073 31.2984C40.0971 31.455 40.1512 31.5604 40.3771 31.6628C40.633 31.7712 40.9612 31.7833 41.2592 31.6327ZM39.802 52.0135C39.7598 50.5076 39.0312 48.7366 37.2006 48.1554C37.7155 48.4415 38.411 49.0679 38.7 50.4473C39.1125 52.4713 37.6192 55.5343 35.9481 56.3233L35.6802 59.1364C36.1288 58.8924 37.1615 58.0672 39.1607 55.3505C39.6846 54.6397 39.8351 53.1067 39.805 52.0135H39.802ZM74.005 41.3306C74.1314 41.5144 74.1374 41.7432 74.0832 41.9631C74.6433 41.6408 75.2605 41.3547 75.9229 41.1379C76.1487 41.0295 76.4257 40.8156 76.4257 40.7012C76.4257 40.665 76.3594 40.5566 76.0915 40.4271C75.0527 39.9121 73.9538 40.7554 73.9357 40.7674C73.9116 40.7855 73.7852 40.8698 73.6015 40.9993C73.7581 41.0596 73.8996 41.168 74.008 41.3276L74.005 41.3306ZM67.6883 45.2128C67.7304 45.1948 68.739 44.8665 70.666 44.9147C70.8918 44.6346 71.4849 43.9298 72.3671 43.1769C72.3671 43.1769 72.3691 43.1749 72.3731 43.1708C72.3731 43.1708 72.629 42.9389 73.186 42.3878C73.4419 42.1378 73.5624 41.7432 73.5082 41.6649C73.3336 41.3969 72.7314 41.5987 72.5357 41.7192C72.4152 41.7975 72.2798 41.8577 72.1292 41.9149C71.4126 42.3215 70.6238 42.71 70.0156 42.8154C69.3412 42.9419 68.727 42.7552 68.1278 42.5775C67.4474 42.3697 66.8031 42.1709 66.0865 42.439C64.834 42.8998 63.985 44.3665 63.8585 44.5894L63.7621 44.9598C64.0723 46.0591 65.4151 46.4778 65.9239 46.6013C66.4839 45.4598 67.6672 45.2098 67.6852 45.2098L67.6883 45.2128ZM50.8005 87.3689C49.4276 85.3631 48.3226 83.4686 47.4344 81.6977C40.8498 68.8584 45.0228 62.4162 45.2245 62.112C45.3208 61.9735 45.5045 61.9403 45.643 62.0277C45.7815 62.1241 45.8116 62.3078 45.7213 62.4463C45.7032 62.4704 45.1613 63.3047 44.7729 64.9551C45.1733 65.1328 49.1958 66.9008 53.3206 67.0212C55.7263 67.0092 57.5719 66.717 58.0115 66.6327C63.5574 60.07 65.4422 51.4232 65.6891 50.2064C62.7114 49.7637 61.7328 48.1704 61.4378 47.4114C60.8236 48.0981 57.9091 51.5316 56.1959 56.2661C56.3465 56.3264 56.494 56.3866 56.6446 56.4438C56.8011 56.504 56.8704 56.6817 56.8132 56.8323C56.765 56.9528 56.6506 57.0161 56.5392 57.0161C56.497 57.0161 56.4609 57.01 56.4248 56.998C47.4886 53.3808 41.7229 52.1309 40.3921 51.8689C40.3921 51.9111 40.3981 51.9532 40.3981 51.9954C40.4102 52.4261 40.4283 54.6277 39.6334 55.7089C37.3602 58.79 36.195 59.6393 35.623 59.811C34.6565 72.8099 40.5487 88.3237 41.3104 90.2632C42.4455 90.1669 43.8124 89.8807 45.3931 89.4049C47.7807 88.6881 50.0027 87.7273 50.8005 87.3689ZM68.6367 170.781L57.4846 128.055L45.3299 90.1729C43.8064 90.7451 42.2558 91.1818 40.7083 91.5222L48.4973 113.692C48.5515 113.849 48.4732 114.02 48.3196 114.074C48.2835 114.087 48.2534 114.093 48.2173 114.093C48.0968 114.093 47.9854 114.02 47.9373 113.903L39.6214 91.736C34.5361 92.6907 29.5501 92.5673 25.904 92.1908L22.4054 121.252C22.3874 121.402 22.2609 121.514 22.1134 121.514C22.1014 121.514 22.0893 121.514 22.0773 121.508C21.9147 121.49 21.7973 121.345 21.8153 121.179L24.8954 92.0824C22.3001 91.7661 20.5568 91.3475 20.2286 91.2059L17.1726 134.63C17.275 134.994 17.3864 135.524 17.5008 136.193C18.8075 143.581 20.9572 167.925 21.3577 172.539C22.2067 171.702 23.5014 170.988 23.947 170.753L23.5586 167.29C23.5345 167.127 23.6549 166.98 23.8205 166.962C23.9831 166.944 24.1307 167.058 24.1487 167.224L24.5311 170.597C28.6499 169.964 32.1003 170.699 33.2956 171.015L32.1244 161.682C32.1605 157.233 30.3089 143.695 29.2641 136.401C28.8577 133.576 28.5716 131.684 28.5596 131.618C28.5536 131.588 28.5536 131.558 28.5596 131.534L32.7446 102.389C32.7627 102.286 32.8349 102.205 32.9283 102.169C32.9463 102.157 32.9584 102.151 32.9765 102.145C32.9945 102.139 33.0066 102.133 33.0186 102.133C33.1571 102.103 33.2926 102.175 33.3528 102.304L47.5428 134.717C47.5428 134.717 47.5488 134.735 47.5488 134.741L47.5549 134.747L59.6915 173.298C59.6975 173.316 59.6975 173.341 59.6975 173.359C65.2916 174.015 68.1038 171.353 68.6337 170.781H68.6367ZM67.4263 172.518C66.4297 173.133 64.9906 173.747 63.0696 173.976L64.5088 178.394C64.5209 178.418 64.5209 178.449 64.5209 178.473C64.7888 178.569 65.111 178.717 65.3579 178.982C65.7282 179.388 66.0805 179.656 66.7549 179.843C67.1012 179.939 67.5317 179.861 67.8298 179.777C67.4594 179.286 67.2938 178.804 67.339 178.331C67.4113 177.572 68.0014 177.153 68.0255 177.135C68.0676 177.105 68.1158 177.093 68.164 177.087L67.4293 172.518H67.4263ZM68.9889 177.659C68.7752 177.798 68.3326 178.15 68.4349 178.662C68.5253 179.129 68.739 179.409 68.8956 179.551L69.6603 178.816L69.7145 178.774C69.7145 178.774 69.7206 178.768 69.7266 178.762C69.829 178.665 69.9404 178.578 70.0488 178.488L70.3528 178.232L68.992 177.659H68.9889ZM83.465 182.03C83.4831 182.024 83.6426 181.954 83.6607 181.948C83.6366 181.912 83.6185 181.87 83.5884 181.84C83.2542 181.481 82.7273 181.524 82.7123 181.524C82.5617 181.536 82.3901 181.53 82.1974 181.518C79.3492 181.346 72.2165 178.991 71.3645 178.656L71.2139 178.62C71.0062 178.59 70.7533 178.693 70.4191 178.955L70.1029 179.223C69.9464 179.361 69.7928 179.515 69.6182 179.677C69.4556 179.834 69.29 179.994 69.1094 180.162L68.9317 180.289C68.3777 180.719 67.619 180.939 66.8061 180.891C65.9691 180.843 65.2374 180.515 64.7949 179.997C64.1867 179.274 63.8103 179.424 63.7682 179.442L63.7441 179.454C63.714 179.479 63.6839 179.587 63.6839 179.686C63.6839 179.698 63.6839 180.355 63.6537 181.346C63.6297 182.228 63.5815 183.388 63.4851 184.578C63.4791 184.62 63.4791 184.656 63.4791 184.692C75.4231 184.656 83.0134 182.301 83.459 182.033L83.465 182.03ZM30.628 183.9C30.6882 184.234 30.7003 184.532 30.6882 184.806C30.7003 184.984 30.6943 185.183 30.6461 185.373C36.8484 185.288 43.8034 185.24 51.1558 185.24C55.2084 185.24 59.1435 185.252 62.898 185.282C62.88 185.144 62.874 184.996 62.874 184.84C62.88 184.737 62.88 184.638 62.892 184.523C62.9884 183.346 63.0365 182.207 63.0606 181.328C63.0907 180.349 63.0907 179.698 63.0907 179.692C63.0907 179.632 63.0847 179.108 63.4791 178.915L61.8804 174.054C61.7419 174.06 61.6184 174.072 61.4739 174.072C60.6489 174.072 59.7487 174 58.7762 173.84C58.7461 173.834 58.722 173.816 58.6979 173.798C58.6799 173.792 58.6618 173.786 58.6437 173.774C58.6016 173.744 58.5655 173.696 58.5474 173.642L58.5414 173.636V173.63C58.3728 173.163 50.0659 149.584 47.2779 136.434C47.1996 136.058 47.1273 135.723 47.0761 135.419C47.046 135.281 47.022 135.145 46.9919 135.012L32.9644 105.084L29.1617 131.567C29.2099 131.871 29.4779 133.693 29.8542 136.314C30.905 143.629 32.7567 157.188 32.7266 161.643L33.949 171.389C33.949 171.389 33.9429 171.401 33.9429 171.413C33.961 171.497 33.9429 171.585 33.8827 171.657C33.8285 171.729 32.4315 173.389 29.502 173.639L29.2641 177.943C29.508 178.132 29.5742 178.497 29.5863 178.575C29.5863 178.599 29.9747 181.024 30.5648 183.566C30.5889 183.68 30.613 183.785 30.631 183.888L30.628 183.9ZM30.0138 183.894C30.0018 183.834 29.9957 183.773 29.9777 183.716C29.3876 181.147 28.9931 178.708 28.9931 178.677C28.9811 178.599 28.9389 178.476 28.9088 178.44L28.8968 178.433C28.8125 178.409 28.5325 178.494 28.2224 179.192C27.9183 179.867 27.292 180.382 26.5273 180.572C25.901 180.734 25.2748 180.632 24.7659 180.328L24.7599 180.334L22.3844 179.211C21.162 180.105 15.4775 183.975 13.5687 184.273C13.5566 184.273 13.2224 184.322 13.0087 184.65C12.9364 184.752 12.8942 184.876 12.8641 185.014C14.1046 185.246 20.5357 186.237 30.0138 183.897V183.894Z" fill="#420A98"/>
<path d="M119.272 6.03975L119.004 8.21426C118.974 8.4281 119.07 8.63893 119.248 8.75639C119.344 8.81662 119.45 8.85276 119.564 8.85276C119.66 8.85276 119.754 8.82867 119.838 8.77446L121.807 7.65708L123.812 8.59375C124.008 8.6841 124.231 8.65399 124.402 8.52147C124.571 8.38895 124.646 8.17511 124.604 7.96729L124.149 5.74459L125.655 4.13328C125.799 3.97065 125.845 3.75079 125.769 3.549C125.697 3.34721 125.519 3.20866 125.303 3.18457L123.081 2.95266L121.988 1.00102C121.879 0.811273 121.696 0.696827 121.47 0.708874C121.256 0.720921 121.063 0.847417 120.979 1.04318L120.067 3.07313L117.857 3.52189C117.649 3.56405 117.48 3.71163 117.426 3.92246C117.366 4.12425 117.426 4.34712 117.583 4.48867L119.266 6.03975H119.272ZM120.202 3.6514C120.38 3.62128 120.536 3.49478 120.609 3.32913L121.473 1.29316L122.56 3.23878C122.65 3.40142 122.81 3.50683 122.996 3.53092L124.965 3.7026L123.472 5.45245C123.412 5.51871 123.388 5.60906 123.4 5.6964L123.692 7.40409L121.9 6.63307C121.816 6.60295 121.723 6.60295 121.644 6.65114L119.657 7.73237L119.859 6.10902C119.883 5.93132 119.817 5.75062 119.681 5.62412L117.98 4.10015L120.202 3.64537V3.6514Z" fill="#420A98"/>
<path d="M104.803 9.12633C105.004 9.25885 105.113 9.49678 105.083 9.74074C105.053 9.98469 104.893 10.1955 104.658 10.2708L101.954 11.2316L101.096 14.141C101.024 14.3789 100.834 14.5536 100.594 14.6018C100.551 14.6078 100.509 14.6138 100.467 14.6138C100.271 14.6138 100.079 14.5235 99.9522 14.3638L98.1909 12.0779L95.171 12.1622C94.9271 12.1622 94.6983 12.0357 94.5809 11.8219C94.4635 11.608 94.4725 11.349 94.617 11.1472L96.2278 8.78901L95.2252 5.90371C95.1409 5.67783 95.1951 5.41881 95.3637 5.24112C95.5323 5.06945 95.7822 4.99716 96.0141 5.06342L98.8563 5.87661L101.184 4.05447C101.379 3.89786 101.638 3.87075 101.864 3.97616C102.084 4.07857 102.228 4.29843 102.234 4.54238L102.331 7.4578L104.803 9.12934V9.12633ZM101.388 10.6081L104.08 9.59316L101.741 7.95775C101.668 7.90354 101.62 7.81921 101.614 7.72585L101.437 4.62069L99.2688 6.3344C99.1062 6.46692 98.8864 6.50607 98.6907 6.45487L95.8364 5.66578L96.7969 8.54506C96.8691 8.7348 96.839 8.95165 96.7246 9.12332L95.3998 11.0569L98.3354 11.0328C98.4137 11.0569 98.504 11.0689 98.5552 11.1352L100.443 13.1953L101.208 10.7949C101.232 10.7105 101.298 10.6382 101.385 10.6111L101.388 10.6081Z" fill="#420A98"/>
<path d="M70.7231 21.8218H70.7171L67.8689 24.2343C67.6852 24.3909 67.4323 24.4481 67.2005 24.3909L63.5363 23.4662C63.458 23.4422 63.4098 23.4903 63.3918 23.5084C63.3737 23.5325 63.3316 23.5867 63.3617 23.665L64.7707 27.2551C64.8611 27.4749 64.831 27.7279 64.7045 27.9237L62.9311 30.7066L66.9295 30.5861C67.0138 30.5801 67.1011 30.6163 67.1613 30.6825L69.6874 33.4172L70.7442 29.9958C70.7683 29.9115 70.8285 29.8392 70.9128 29.8061L74.3512 28.3544L71.2109 26.2943C71.1326 26.2461 71.0844 26.1618 71.0784 26.0684L70.7201 21.8278L70.7231 21.8218ZM75.0557 27.7099C75.2996 27.8605 75.4321 28.1285 75.408 28.4146C75.3839 28.6947 75.2002 28.9327 74.9353 29.0411L71.515 30.3783C71.4728 30.3964 71.4367 30.4325 71.4247 30.4807L70.4883 34.1882C70.416 34.4623 70.2023 34.6731 69.9283 34.7304C69.8741 34.7424 69.8139 34.7484 69.7597 34.7484C69.5399 34.7484 69.3291 34.652 69.1876 34.4804L66.8422 31.6252C66.8121 31.5891 66.7699 31.565 66.7157 31.571L62.9131 31.821C62.6331 31.8451 62.3651 31.7005 62.2206 31.4565C62.07 31.2126 62.076 30.9144 62.2326 30.6735L64.2017 27.5984C64.2258 27.5563 64.2318 27.5081 64.2137 27.4599L62.8047 23.8759C62.7023 23.6138 62.7505 23.3217 62.9432 23.1048C63.1268 22.897 63.4098 22.8067 63.6838 22.879L67.348 23.8036C67.3962 23.8156 67.4443 23.8036 67.4805 23.7674L70.3287 21.355C70.5003 21.2104 70.9249 21.1532 71.1477 21.2405C71.1477 21.2405 71.4337 21.3068 71.5601 21.879L71.792 25.5986C71.798 25.6468 71.8221 25.695 71.8642 25.7191L75.0587 27.7008L75.0557 27.7099Z" fill="#420A98"/>
<path d="M293.069 134.367H59.5196" stroke="#420A98" stroke-linecap="round" stroke-linejoin="round"/>
<path d="M243.134 137.331C241.498 137.331 240.171 136.004 240.171 134.367C240.171 132.73 241.498 131.403 243.134 131.403C244.77 131.403 246.097 132.73 246.097 134.367C246.097 136.004 244.77 137.331 243.134 137.331Z" fill="#420A98" stroke="#420A98" stroke-miterlimit="10"/>
<path d="M169.208 137.331C167.572 137.331 166.246 136.004 166.246 134.367C166.246 132.73 167.572 131.403 169.208 131.403C170.844 131.403 172.171 132.73 172.171 134.367C172.171 136.004 170.844 137.331 169.208 137.331Z" fill="#420A98" stroke="#420A98" stroke-miterlimit="10"/>
<path d="M68.9631 136.927C67.3269 136.927 66.0005 135.6 66.0005 133.964C66.0005 132.327 67.3269 131 68.9631 131C70.5994 131 71.9258 132.327 71.9258 133.964C71.9258 135.6 70.5994 136.927 68.9631 136.927Z" fill="white" stroke="#420A98" stroke-miterlimit="10"/>
</svg>
