<?xml version="1.0" encoding="utf-8"?>
<!-- Generator: Adobe Illustrator 27.0.1, SVG Export Plug-In . SVG Version: 6.00 Build 0)  -->
<svg version="1.1" id="Layer_1" xmlns="http://www.w3.org/2000/svg" xmlns:xlink="http://www.w3.org/1999/xlink" x="0px" y="0px"
	 viewBox="0 0 320 188" style="enable-background:new 0 0 320 188;" xml:space="preserve">
<style type="text/css">
	.st0{clip-path:url(#SVGID_00000076573170354715052360000012245413306069346972_);}
	.st1{fill:#E9D2B1;}
	.st2{fill:#947EC6;}
	.st3{fill:#FFC540;}
	.st4{fill:#D9D9D9;}
	.st5{fill:#1D273D;}
	.st6{fill:#D0ECF7;}
	.st7{fill:#E8EAEB;}
	.st8{fill:#475196;}
	.st9{fill:#EA9C47;}
	.st10{fill:#AF6A1D;}
	.st11{fill:#FCCA95;}
	.st12{fill:#B6B6B6;}
	.st13{fill:#976C42;}
	.st14{fill:#DBDBDB;}
	.st15{fill:#191611;}
	.st16{fill:#CCDCEE;}
	.st17{fill:#EECAB4;}
	.st18{fill:#E7F1FC;}
	.st19{fill:#8AA0BC;}
	.st20{fill:#7946C6;}
	.st21{fill:#D19E6F;}
	.st22{fill:#B27F50;}
	.st23{fill:#CDA68F;}
	.st24{fill:#E7BA90;}
	.st25{fill:#453075;}
	.st26{fill:#B6CCD3;}
	.st27{fill:#69686A;}
	.st28{fill:#8A6642;}
	.st29{fill:#434343;}
	.st30{fill:#C9DEF1;}
	.st31{fill:#E1BFA3;}
	.st32{fill:#292F73;}
	.st33{fill:#2B241C;}
	.st34{fill:#3C5A34;}
	.st35{fill:#282828;}
	.st36{fill:#87AD7A;}
	.st37{fill:#5C4325;}
	.st38{fill:#608853;}
	.st39{fill:#EEC979;}
	.st40{fill:#BC953B;}
	.st41{fill:#020202;}
	.st42{fill:#AE8A66;}
	.st43{fill:#D87A64;}
	.st44{fill:#B04734;}
	.st45{fill:#0D0D0D;}
	.st46{fill:#4A494C;}
	.st47{fill:#B7B7B8;}
	.st48{fill:#B6B5B8;}
	.st49{fill:#DFDFDF;}
	.st50{fill:#CFE5A6;}
	.st51{fill:#F1DCBE;}
	.st52{fill:#69676D;}
	.st53{fill:#4E4E4E;}
	.st54{fill:#BD7526;}
	.st55{fill:#B8B8B8;}
	.st56{fill:#A8A5AE;}
	.st57{fill:#090806;}
	.st58{fill:#100E0B;}
	.st59{fill:#A77B4E;}
	.st60{fill:#555555;}
	.st61{fill:#494949;}
	.st62{fill:#C8C8C8;}
	.st63{fill:#FFFFFE;}
	.st64{fill:#ECE4D9;}
	.st65{fill:#D8AF54;}
	.st66{fill:#BABABA;}
	.st67{fill:#474747;}
	.st68{fill:#464647;}
	.st69{fill:#2A2A2A;}
	.st70{fill:#666666;}
	.st71{fill:#B4B3B5;}
	.st72{fill:#414141;}
	.st73{fill:#B4B4B4;}
	.st74{fill:#E0E0E0;}
	.st75{fill:#49484B;}
	.st76{fill:#49484A;}
</style>
<g>
	<defs>
		<rect id="SVGID_1_" y="16" width="320" height="156"/>
	</defs>
	<clipPath id="SVGID_00000094577451346184307080000013017779005366686898_">
		<use xlink:href="#SVGID_1_"  style="overflow:visible;"/>
	</clipPath>
	<g style="clip-path:url(#SVGID_00000094577451346184307080000013017779005366686898_);">
		<path class="st1" d="M91.3,82.6c1.2-6.2,3.1-12.1,5.7-17.7c2.2,1.7,4.4,3.4,6.5,5.1c-0.5,3.8,0.6,6.3,2.9,6.7
			c1.7,0.3,3.6-0.5,4-1.9c-0.6-0.5-1.1-1-1.8-1.5c-0.5-0.4-0.6-0.9-0.5-1.5c0.5-1.9,1.8-2.4,3.4-1.2c0.4,0.3,0.8,1.1,1.5,0.3
			c0.1-0.1,0.1-0.3,0.2-0.4c0-0.7,0.2-1.4-0.2-2.1c0-0.5-0.2-0.9-0.5-1.3c-1.5-2.4-4.1-2.7-6.9-0.7c-0.5-0.3-1-0.6-1.5-1
			c-0.2-0.2-0.4-0.4-0.6-0.5c-0.9-0.7-1.8-1.4-2.8-2.1c-0.3-0.2-0.6-0.5-0.9-0.7c-0.3-0.3-0.5-0.5-0.8-0.8c0.2-0.8,0.5-1.5,0.8-2.2
			c0.4-0.8,0.9-1.5,1.3-2.2c0.7-1,1.4-2.1,2.1-3.2c1.3,0.8,2.7,1.6,4.2,1.9c2.1,0.5,4,0.1,5.8-0.9c0.6-0.1,0.9-0.4,0.9-1
			c0-3-1.1-5.4-3.7-7.1c-0.2-0.1-0.4-0.2-0.6-0.4c-0.2-0.1-0.4-0.1-0.6-0.2h0c0-0.1-0.1,0-0.1,0c0.2-0.2,0.3-0.4,0.4-0.5
			c0.3,0.3,0.5,0.8,1.1,0.6c0.5-0.5-0.1-1.1,0.2-1.6c-0.1,0-0.2,0.1-0.1,0c0.1-0.2,0.8-0.7,0.9-0.9c1.1-1,2.1-2,3.2-3h0
			c2.4-2.2,11.3-8.2,16.5-10.7c0.2-0.1,0.7-0.4,0.8-0.4c0,0.1-0.6,0.7-0.6,0.8c-1.6,3.1-1.2,6.1,0.4,9c0.3,0.5,0.6,1,1,1.5
			c-0.1,0.5-0.6,0.8-0.5,1.4c0.2,0.5,0.7,0.8,1.1,1.1c-0.2,0.3-0.2,0.7-0.2,1.1c0.2,0.4,0.3,0.9,0.5,1.3c0.6,1.1,1.4,1.9,2.7,2
			c0.5,0,1,0,1.5,0c0.4-0.2,0.9-0.4,1.4-0.6c0.8,0.5,1.7,0.7,2.2-0.3c0.6-1,1.8-1.9,1-3.4c-2.3-1.7-4.6-3.3-6.9-5
			c-0.3-0.2-0.7-0.3-1.1-0.1c-0.8,0.2-0.8-0.6-0.9-1c-0.5-2.1-0.3-4.1,0.7-6c1.3-2.5,4.2-3.8,6.6-3c-0.1,0.1-0.1,0.3-0.2,0.4
			c-0.2,0.2-0.1,0.3,0,0.4c-0.8,0.6-0.2,1,0.2,1.3c2.1,1.7,4.1,3.3,6.2,4.9c0.5,0.4,1.1,0.9,1.9,0.7c1-0.6,1.5-1.6,2-2.6
			c0.3-0.3,0.3-0.6,0-0.9c-0.1-0.3-0.3-0.6-0.5-0.9c0.8-1.2,0.8-2.4-0.7-3.2c-0.5-0.4-1-0.9-1.5-1.3c-0.9-0.7-1.6-1.6-2.8-1.7
			c-0.6,0.1-1,0.6-1.4,1.1c-0.6-0.2-1.1-0.6-1.7-0.2c-0.4,0-0.8,0-0.9-0.5c7.3-2.2,14.8-3.4,22.5-3.2c1.9,0,3.9,0.1,5.8,0.2
			c-0.7,0.9-1.5,1.7-1.9,2.8c-0.6,1-1,2.1-1.3,3.2c-0.2,0.9-0.5,1.7-0.6,2.6c-0.6,4.2-0.6,8.2,2.1,11.8c0.1,0.1,0.1,0.1,0.2,0.2
			c-0.4,0.1-0.8,0.2-1.1,0.3c-1.8,0.2-3.5,0.7-5,1.7c-2.5,1.8-4,4.2-4.3,7.3c-0.1,1.5-0.2,3,0.7,4.3c-1.3,2.7-2.2,5.4-2.2,8.4
			c0,2.7,1.3,4,4,4c0.4,0,0.8,0,1.2,0l-0.3,3.4c0,0.2-0.1,0.5-0.1,0.8c-0.3-0.1-0.6-0.1-0.9-0.2c-1.2-0.2-1.7,0.8-2.4,1.3
			c-3.2,0-6.4-0.1-9.6-0.9c-2.6-0.9-5.3-1.9-7.5-3.7c-3.1-2.4-5-5.7-6.8-9.1c-0.5-1.2-0.9-2.4-1.4-3.6c-0.2-0.4-0.2-0.8,0.2-1.1
			c0.5-0.3,0.8-0.8,0.7-1.4c-0.1-0.6-0.6-0.8-1.1-0.9c0-1.2,0.2-2.6-0.4-3.7c-0.8-1.5-1.2-3-0.5-4.6c0.1-0.3,0.1-0.6-0.2-0.9
			c-1.4-0.3-2.5,0.8-2.6,2.4c0,0.7,0.2,1.4-0.4,2c-0.4-0.2-0.8-0.5-1.1-0.7c-3-1.5-6.3-1.6-9.6-1.9c-1-0.1-2,0.2-2,1.6
			c0.4,0.7,1,0.4,1.6,0.6c-0.3,0.2-1.1,0.8,0.2,1.1c0.5,0.1,0.9,0.2,1.4,0.3c2.3,0.2,4.4,1,6.1,2.6c0.9,0.8,1.7,1.7,2.6,2.5
			c0,0,0,0.1,0,0.1c-0.2,0.3-0.5,0.5-0.8,0.8c-0.4,0.5-0.6,1.1-0.2,1.6c0.7,1,1.7,0.6,2.6,0.5c0.7,2.3,1.5,4.5,2.5,6.7
			c1.6,3.5,3.2,6.9,6,9.7c2.6,2.7,5.7,4.6,9,6.4c2.7,1.4,4.8,3.2,4.4,6.7c-0.3,1.3-0.9,2.4-2,3.2h0c-0.1,0.1-0.1,0.1-0.2,0.2
			c-0.1,0-0.2,0.1-0.4,0.2c-2.1,0.7-4.3,0.4-6.4,0.1c-4.8-0.8-9.4-0.1-13.8,2.2c-6.8,3.7-10.1,9.9-8.7,16.6c0.1,0.8,0.3,1.5,0.7,2.1
			c-1.7,0.7-3.3,1.5-4.9,2.2c-3.9,1.8-7.9,3.5-11.8,5.2c-2.4,1-4.8,2-7.3,3.1c-0.1-0.3-0.2-0.7-0.3-1c-0.3-0.1-0.6-0.2-0.8-0.3
			c-1.6-4-3.4-9.4-4.1-13.7c0.1-0.1,0.4,1,0.5,0.9c0.3,0.3,0.5,0.6,1.1,0.5c0.8-1.2,0.7-2.9,1.3-4.4c1.8-0.4,3.7-0.7,5.6-1.2
			c0.5-0.1,1.1-0.2,1.2-0.9c0.1-0.7-0.4-1-0.9-1.2c-1.5-0.7-3.1-1.4-4.6-2.1c0.2-2.2,1.6-4.2,1-6.9c-1.9,2.1-3.5,3.8-5.1,5.6
			L91,98.1c-0.3-0.1-0.6-0.3-0.9-0.4c0-1.5,0-3.1,0-4.7c0.2-2.7,0.5-5.4,0.7-8.2 M106.4,104.8c-0.5-0.2-1.1-0.4-1.6-0.2
			c-0.3,0.2-0.3,0.5-0.3,0.8c-0.2,1.3-0.1,2.5,0.8,3.6c-0.1,0.2-0.3,0.4-0.4,0.5c-0.4-0.1-0.7-0.1-1.1-0.2c-0.1-0.5,0-1-0.5-1.4
			c-0.5,0.1-1,0-1.4,0.5c-0.6,0.3-1.2,0.6-1.6,1.5c0.2,0.2,0.5,0.4,0.8,0.6c-0.1,0.3-0.2,0.6-0.4,0.9c-0.5,0.1-0.9-0.5-1.5-0.3
			c-0.2,0.2-0.3,0.4-0.3,0.7c-0.2,0.7-0.3,1.4,0,2.1c0.2,0.9,0.8,0.5,1.3,0.3c0.4,0.2,0.6,0.5,0.4,1c-0.4,0.2-0.6,0.6-0.8,1
			c0.3,0.7,0.8,1.1,1.5,1.4l0.1,0h0.1c0.3,0.1,0.6,0.3,1,0.1c0.3-0.4,0.3-0.9,0.4-1.4c0.3,0,0.6,0,0.9-0.1c0.2,0.4,0.2,1,0.8,1.3
			c0.3-0.1,0.6-0.2,0.9-0.3c0.1-0.1,0.2-0.1,0.3-0.2c0.5-0.3,1-0.5,1.1-1.2c-0.3-0.3-0.6-0.7-0.9-1c0.2-0.2,0.2-0.6,0.6-0.7
			c0.4,0.1,0.8,0.2,1.2,0.3c0.4-0.2,0.6-0.5,0.5-0.9c0.2-0.6-0.1-1.2,0.2-1.7c0.4,0.1,0.8,0.2,1.1,0.2c0.5,0.2,0.9,0.2,1.2-0.1
			c0.4-0.7-0.5-1.4,0.3-1.9c0.2-0.1,0.5-0.1,0.7-0.2c0.2,0.7,0.4,1.4,1,1.8c0.6-0.2,1.2-0.4,1.7-0.9c0.1-0.1,0.2-0.2,0.2-0.3
			c0-0.1,0.1-0.2,0.1-0.2c0.4-0.4,0.6-0.9,0.5-1.5c-0.5-0.4-1.1-0.7-1.7-1.1l0.2-0.4c0.7-0.1,1.4,0.5,2.1-0.1c0.4-0.6,0.2-1.3,0-1.9
			c-0.3-0.8-0.4-1.7-1.2-2.2c-0.6,0.3-1.1,0.5-1.6,0.7c-0.1-0.2-0.1-0.4-0.2-0.6c0.2-0.6,1.3-1,0.4-1.9c-0.5-0.5-1.1-0.8-1.7-0.9
			c-0.4-0.3-0.9-0.3-1.3-0.1c-0.3,0.6-0.1,1.4-0.6,1.9c-0.2-0.1-0.3-0.1-0.5-0.2c-0.2-0.6-0.1-1.4-1.1-1.2c-0.1,0.1-0.2,0.1-0.4,0.2
			c-0.9,0.5-1.7,1.2-2.1,2.3c0.5,0.3,0.9,0.6,1.4,0.9l-0.4,0.9H106.4L106.4,104.8z M123.6,84.7c2.5,0.1,4.5-1,6.1-2.9
			c0.7-0.9,1.4-1.9,1.2-3.2c0.7-1.3-0.7-4.6-2.3-5c0.7,1.7-0.4,2.7-1.1,3.9c-1.1,0.1-2.2,0.6-3.2,1c-1.4,0.6-2.5,1.6-2.7,3.3
			c-0.7,0.1-1.3,0.5-1.9,1c-0.1,0.1-0.2,0.1-0.3,0.2c-0.5,0.3-0.9,0.6-1.4,1c-3.2,2.5-5.8,5.5-7.7,9.2c-0.3,0.6-0.7,1.2-0.4,1.9
			c0.5,0.9,1.2,0.8,1.9,0.5c3.1-1.2,5.5-3.4,7.8-5.6c1.1-1,2.3-1.9,2.9-3.3C122.8,86,123.2,85.4,123.6,84.7z"/>
		<path class="st1" d="M-92.1,66.1c-20.4-11-36.8-34.4-59.2-35.6c-19.9-1.1-40.2,4-48.8,11.8c-11.5,10.5-13.8,38.7-40.1,34.1
			c-26.2-4.6-29.1-29.2-51.7-34.9c-19.7-5-36,11-36,11s-12.4,10.5-20.8,8.9c-8.3-1.7-27.2-5.7-35.1,5.6
			c-7.9,11.3-24.1,13.6-31.4,15.8c-7.3,2.2-41.6,6.4-48.5-7.7c-5.9-11.9-30.9-21.2-63.8-12.2c-27.9,7.6-39.9,47.3-26,72.2
			c20.2,36.1,85.9-0.8,109.9-6.3c56.1-13,31.2,27.5,98.2,0c27.9-11.4,31.7-13.1,44.9-13c60.4,0.8,55.9,26.7,102.8,41.2
			c32.2,10,54.7-10.9,84.4-30.5c32.1-21.2,52.6,20.4,89,5.3c37.8-15.6,53.9-52.6,95-21.3c29.1,22.2,48,9.6,48,9.6s13.2-51.3-4.9-44
			C78.9,90.4,85.7,57,62.5,61c-41.5,7-27.8-46.7-78.5-18.6C-44.7,58.2-35.1,96.7-92.1,66.1L-92.1,66.1z"/>
		<path class="st2" d="M35.1,75.9c2.8,2.7,10.6,9.3,24.7,16.4c14.1,7.1,40.9-3.6,40.9-3.6s7.1,0,0.5,4.1c-6.6,4-28.4,10.3-40.5,4.3
			C50,91.8,36,79.8,31.1,76.8c-14.3-8.9-32.7-7.4-39.2-6.1c-19.4,4-25.5,42.2-37.4,42.2c-12.7,0-17.2-12.7-25.1-17.8
			c-7.9-5.1-22.2-6.4-26.5-7.3c-12.7-2.5-38.4-17.5-48.8-19.1c-10.4-1.7-22.8,4.5-22.8,4.5l-3.4-3.5c0,0,12.9-7.2,26.4-4.6
			c13.5,2.6,36.3,16.3,49.2,19.6c5.3,1.4,18.2,2.4,27.6,8s16.2,17.3,21.8,17.1c4.6-0.2,16.1-18.5,19.5-26.3s15.7-16.7,23-17.2
			C14.2,65.1,26.7,68,35.1,75.9L35.1,75.9z M-493.3,114.1c0,0,6.3,5.9,21.3,8.7c14.9,2.7,36.1-1.1,40-2.8c6.6-3,12.1-8.8,12.1-8.8
			l-2.4-1.1c0,0-2.2,2.9-10.9,7c-8.7,4.1-34.4,3.9-42.5,2.2c-8.1-1.7-16.9-7.5-16.9-7.5 M-348.6,70.1c0,0,20.8,7.5,38.3,17.3
			c10.3,5.8,20.7,6.4,28.8,6.3c15.8-0.2,34.2-5.1,51.2-2.6s23,5.9,26.8,5.6c10.9-0.7,14-10.1,14-10.1s-0.9-2-2.4-1.9
			c-2.5,0.1-5.1,7.1-9.8,7.2c-6.2,0.2-15-3.3-19.6-4.6c-19.7-5.4-47.6,2.9-62.1,1.9c-7.4-0.5-23.7-4.5-29.1-7.4
			c-7.6-4.1-11.8-7.6-31.7-13.9c-17-5.4-25.1-1.7-29.5-0.2c-4.6,1.6-12.1,8.7-3.4,12.7s8.5,13.4,7.2,19.3c-0.7,3.4-6,8.7-12.3,8
			c-6.3-0.7-13.8-2.3-23.5-3c-8-0.6-14.1,2.6-14.1,2.6l1.5,2.6c0,0,6.1-3.5,13.1-2.6c7,0.9,16.9,3.8,23.4,3.7s14.8-4.1,16.4-11.5
			c1.6-7.4-1-15.4-8.3-20.6c-8.1-5.8,3-8.7,3-8.7S-359.8,66.2-348.6,70.1L-348.6,70.1z M-492.6,111.6c0,0-7.3-7.2-15.9-8.7
			c-8.6-1.5-17.9-0.5-20.8,0c-22.9,4.4-42.7,12.8-38.3,12.9c4.4,0.2,34-14.7,58.2-9.8c8.8,1.8,16.3,8,16.3,8"/>
		<path class="st3" d="M82.5,103.6c-0.2,0.8-0.7,1.2-1.3,1.4c-1.6,0.5-3.2,0.7-4.7,1.5c-0.4,0.2-0.8,0.1-1.1-0.3
			c-0.2-0.4-0.2-0.9,0.3-1.2c1.8-1,3.5-2.1,5.5-2.7C82.1,102.2,82.4,102.8,82.5,103.6L82.5,103.6z"/>
		<path class="st3" d="M82.4,97.7c-0.1,0.7-0.5,1.4-1.5,1.1c-1.3-0.4-2.6-0.7-3.9-1.1c-0.7-0.2-1.3-0.5-1.1-1.3
			c0.2-0.8,1-0.9,1.5-0.6C79.1,96.3,82.5,97.1,82.4,97.7L82.4,97.7z"/>
		<path class="st3" d="M87,89.7c-0.4-0.9-0.8-1.8-1.1-2.8c-0.2-0.6-0.2-1.2,0.4-1.5c0.6-0.3,1.2,0.1,1.3,0.7
			c0.5,1.5,1.3,2.9,1.4,4.5c-0.2,0.2-0.3,0.5-0.7,0.5C87.6,91,87.3,90.3,87,89.7L87,89.7z"/>
		<path class="st1" d="M163.8,133.7c2-0.6,4-1.1,5.9-1.8c5.6-2.2,10.1-5.4,11.5-11.7c0.1-0.4,0.3-0.7,0.5-1.1c1.1-1.4,2.5-2.6,4-3.6
			c2.4-1.6,3.9-3.8,3.2-6.8c-0.5-2.6-2.1-4.7-4-6.4c-2-1.7-4-3.2-6.2-4.6c-3.8-2.4-2.8-7.5,0.4-9.2c0.9-0.4,1.7-1,2.6-1.5
			c4-1.8,8.2-3.2,12.2-5.2c3.2-1.1,6-2.9,8.8-4.8c2-1.3,3.9-2.9,5.6-4.6c0.2,0.1,0.4,0.2,0.5,0.2c0.8,0.4,1.6,1,2.3,0.2
			c0.8-0.7,0.3-1.6-0.1-2.4c0-0.1-0.1-0.2-0.1-0.3c0.2,0,0.6,0,0.6,0.1c0.7,1.3,2.1,1.1,3.2,1.1c1.3,0.1,2.9,0.2,3.9-0.7
			c1.7-1.5,2.1-4.5,1-6.6c-0.2-0.4-0.2-0.8-0.1-1.3c0-1.2-0.6-1.9-1.8-2c-1.1-0.1-2.2,0.2-3.2,0.6c-0.8-1.4-1.5-2.8-1.1-4.6
			c0.2-0.6,0.2-1.2,0-1.8c-0.1-1.1-0.7-2-1.7-2.4c-0.1,0-0.1-0.1-0.2-0.1c-0.1,0-0.1,0-0.2,0c-1.4,0-1.2,1-1.1,1.9
			c0.3,1.8,0.1,3.5-0.1,5.2c-0.3,2.7-2.4,4.7-2.9,7.3c-0.8-0.3-1.6-0.8-2.1,0.4c-0.5,0.7,0.2,1.2,0.3,1.8c-1.1,1.3-2.6,2.2-3.9,3.3
			c-0.1,0.1-0.1,0.1-0.2,0.2c-1.8,1-3.6,2.1-5.6,2.8c-6.3,2.3-12.7,3-19.4,2.6c-0.6-0.3-1.2,0-1.7-0.2c-0.7-0.3-1.7,0.3-2.1-0.7
			c-0.1-1.2-0.8-1.9-1.9-2.3c-1.2-0.4-2.3,0-3.5,0.2c0-0.5,0.1-1,0.1-1.5c0.2-1.9,0.5-3.8,0.8-5.7c5.3,2,9.6,0.3,13.5-3.5
			c1.9,1.9,4.1,3.2,6.8,3.9c8.4,1.9,13.8-1.6,15.8-9.4c0.3-1,0.4-1.9,0.2-2.9c-0.1-2-0.8-3.8-2.1-5.4c-0.9-1.1-1.7-2.2-2.7-3.1
			c-2.6-2.7-3.2-5.6-1.8-9.1c0.8-1.9,1.2-4,1-6.1c2.1,1.1,4.1,2.5,6.1,3.9c0.1,0.1,0.3,0.3,0.3,0.3c0,0.6,0.4,1.2,0.5,1.8
			c0.6,1.4,1.8,2.7,0.9,4.4c-0.1,0-0.2,0-0.3-0.1c-0.3-0.1-0.6,0-0.7,0.4c-0.4,1.5-0.8,3-1.2,4.6c2.4,0.7,4.8,1.3,7.2,1.9
			c0.3-0.1,0.4-0.3,0.4-0.6c0.2-0.6,0.4-1.1,0.5-1.7c0-0.1,0-0.1,0-0.2c0.1-0.4,0.2-0.8,0.4-1.1c0.2-0.4,0.4-0.8,0.3-1.3
			c-0.2-0.1-0.5-0.3-0.7-0.4c-0.1-0.4,0.2-0.7,0.4-1c0.1,0-0.1,0,0,0c4.3,4.5,8.1,9.4,11.1,14.9c2,3.7,3.5,7.5,4.9,11.4
			c0,0.4,0,0.8,0.3,1.1c0.3,1.3,0.6,2.6,0.9,3.9c-0.6,0.1-0.8-0.2-0.9-0.7c-0.3-1.2-0.6-2.4-1-3.6c-0.1-0.5-0.3-1-0.9-1.1
			c-0.7-0.1-0.9,0.5-1.1,1c-0.8,1.9-1.6,3.8-2.4,5.7c-2,0.3-4,0.5-5.9,0.8c-0.7,0.1-1.5,0.1-1.7,0.9c-0.2,0.8,0.4,1.2,1,1.6
			c1.3,0.9,2.6,1.8,3.8,2.7c-0.6,1.2-1.1,2.4-1.6,3.6c-0.2,0.5-0.5,1,0.1,1.5c0.5,0.4,1,0.1,1.5-0.2c1.3-0.9,2.6-1.8,3.9-2.6
			c1.8,0.8,3.5,1.5,5.2,2.2c0.6,0.2,1.1,0.4,1.7,0.1c0.5,11-1.5,21.5-5.9,31.5c-1.1,2.5-2.5,5.1-3.7,7.5c-0.5,0.3-2,0.3-1.8,1.8
			c0.1,0.4,0.2,0.1,0.4,0.3c-0.4,0.5-0.6,1-1,1.5c-1.9,3-4.2,5.7-6.4,8.4v0c-0.4,0.4-0.7,0.8-1.1,1.1c-1.2,0-6.2-0.1-7.5,0.4
			c-0.4,0.8-0.1,1.6-0.3,2.4c-0.3,0-0.7,0-1,0c-0.9,0.1-1.9-0.3-2.6,0.5v2.1c0.8,0.6,1.5,1.2,2.3,1.7c0.4,0,0.9,0,1.3,0.1
			c-3.3,2.9-7,5.1-10.7,7.3c-0.5,0.2-0.9,0-1.4-0.1c-2.5-0.4-5-0.8-7.5-1.3c-0.4-0.1-0.7-0.2-1.1-0.3c-1.8-3.3-3.4-6.8-5.5-9.9
			c-0.1-0.2-0.3-0.4-0.4-0.6c-0.3-0.2-0.5-0.2-0.7,0c-2.6,1.4-5,3.1-7.3,4.9c-2.8,1.9-5.8,3.6-8.4,5.8c-0.2,0.3-0.8,0.6-0.8,0.6
			c-0.3,0.2-0.5,0.6-0.1,0.9c0.8,1.2,1.5,2.4,2.4,3.6c0.9,1.8,2.1,3.4,3.2,5c-0.3,0.1-0.6,0.2-0.9,0.3c-9.3,1-18.5,0.1-27.5-2.6
			c1.1-1.9,2.1-3.9,3.2-5.8c3.6-6.4,7.2-12.9,10.9-19.3c0,0,3.2,1,4.5,0.8c2.1-0.3,4.1-0.6,6.2-0.9L163.8,133.7 M162.8,134.2
			c-2.2,1.3-4,2.9-4.2,5.6c-0.1,0.8-0.5,1.4-1.1,1.9c-2,1.7-4,3.3-6,5c-2,1.7-4,3.5-6,5.3c-0.1,0.2-0.2,0.4-0.4,0.6
			c-0.3,0.6-0.2,1.2,0.3,1.7c0.5,0.5,1.1,0.4,1.7,0.2c0.9-0.3,1.6-1,2.3-1.7c2.8-2.9,5.6-5.8,8.6-8.5c0.9-0.8,1.8-1.7,3.1-1.4
			c4.1,0.8,6.5-3.1,6.3-5.9c0-0.9-0.2-1.8-1.1-2.3c-0.3-0.2-0.5-0.4-0.9-0.4c-0.1-0.1-0.4,0.1-0.5,0L162.8,134.2L162.8,134.2z
			 M221.2,108.9c1.1-1.1,1.1-1.2-0.1-2.8c0-0.2,0-0.5-0.1-0.8c0-0.1,0-0.1,0-0.2c0.2-0.4,0.4-0.6,0.9-0.6c1.1,0,1.2-0.1,1.6-0.5
			c0-0.1,0-0.1,0-0.2V102c-0.3-0.2-0.5,0-0.8,0c-1,0-1.7-0.3-1.9-1.4c0.1-1.7,0.8-2.2,2.8-1.9v-0.6c0-0.1,0-0.1,0-0.2
			c-0.2-1-0.3-2.1-0.5-3.1c-0.7-0.2-1.2-0.1-1.7,0.1c-1.1,0.4-0.1,1.3-0.4,1.8c-0.5,0.7-1.1,1.4-2.1,1.1c-1.1-0.4-1-1.5-0.8-2.5
			c-0.4,0-1,0.1-1,0.1s-1.5,0-2.3,0.5c0.3,2.9,0.7,5.7,1,8.6c1,0.1,2-0.3,2.9,0c0.1,0.6,0.3,1.1-0.1,1.6c-0.6,0.8-0.5,1.6,0,2.2
			c0.6,0.6,1.3,0.9,2.2,0.5C220.9,109,221.1,109,221.2,108.9L221.2,108.9z M207.2,98.6c0.5-0.3,0.9-0.6,1.5-0.9
			c1,0.3,1.9,0.1,2.4-0.8c0.5-0.9,0.5-1.8-0.3-2.7c-0.1-0.1-0.2-0.2-0.3-0.4c-0.6-0.7-1.4-0.7-2.2-0.4c-0.9,0.4-1.2,1.1-1,2.1
			c-0.4,0.3-0.9,0.6-1.3,1c-0.7-0.7-1.1-1.7-1.9-2.3c-0.4-0.1-0.8,0.1-1,0.3c-0.7,0.2-1.2,0.7-1.8,1.1c1.7,1.7,1.7,2.6,0.3,3.8
			c-1.6,0.2-2.6-0.4-2.9-2.2c-0.9,0.7-2,1.1-2.6,2.1c1.2,2.1,2.5,4.2,4,6.1c0.5,0.8,1.1,1.7,1.6,2.6c0.4-0.6,0.7-1,1-1.4
			c0.7-0.3,1.5-0.4,2,0.3c0.6,0.8,0.4,1.6-0.2,2.3c-0.5,0.3-0.9,0.6-1.4,0.9c0.4,0.6,0.7,1.2,1.4,1.7c0.9-0.5,1.9-1.1,2.8-1.6
			c0.5,0.2,0.7,0.5,0.8,0.9c-0.4,0.8-0.6,1.6,0.2,2.3c0.8,0.7,1.6,0.8,2.5,0.2c0.6-0.2,1-0.7,1.1-1.3c0.6-1.7-0.2-2.8-1.9-2.8
			c-0.1-0.3-0.6-0.6-0.2-1c0.8-0.6,1.6-1.1,2.5-1.7c-1.4-2.4-2.7-4.7-4.2-6.9C207.8,99.6,207.5,99.1,207.2,98.6L207.2,98.6z
			 M205.6,128.6c-0.2,0.1-0.4,0.1-0.5,0.2c-0.6,0.2-1.2,0.5-1.7,0.7c-3.6,1.2-7,2.8-10.3,4.5c-1.3,0.6-0.5,1.5-0.2,2.3
			c0.2,0.3,0.3,0.5,0.7,0.6c4.2-1.7,8.4-3.5,12.7-5.2l0.7-0.2c0.9,1.1,0.9,2.6,1.7,3.7c2.5,0.5,4.8-0.3,6-2.1
			c-0.1-0.3-0.2-0.6-0.4-1c-0.1-0.1-0.1-0.3-0.2-0.4c-1-3.4-2.1-6.6-3.5-9.7c-1-0.5-2-0.4-2.9-0.2c-0.5,0.2-1.1,0.3-1.5,0.7
			c-1.3,0.8-1.9,1.7-1.1,3.3c0.4,0.8,0.6,1.8,0.9,2.7C205.9,128.5,205.7,128.5,205.6,128.6L205.6,128.6z M191.4,128.7
			c-1.2,0.9-2.9,1.3-3.9,0.8c-0.5-0.7,0.4-1.5,0-2.3c-1,0.1-1.3,0.8-1.5,1.6c-0.2,1.1,0,2,1.1,2.5c1.4,0.6,2.7,0.1,3.9-0.3
			c2.6-0.9,3-2.6,1.1-4.5c-0.2-0.2-0.5-0.3-0.7-0.5c2.3-2.8,2.2-3.1-0.6-5.1c-0.9-0.6-1.9-1.2-2.8-1.9c0.5-1,1.2-1.7,2.1-2.1
			c1.1,0.4,1.9,1,2.5,1.8c0.3,0.4,0.7,0.5,1.1,0.2c0.4-0.3,0.4-0.7,0.2-1.1c-1.5-3.2-4.4-3.6-6.6-0.9c-0.2,0.2-0.3,0.4-0.4,0.6
			c-0.7,1.1-0.6,2,0.4,2.8c0.3,0.3,0.6,0.5,1,0.8c-0.2,0.2-0.4,0.4-0.5,0.6c-2,2.1-1.9,2.7,0.6,4.1
			C189.4,126.7,190.5,127.5,191.4,128.7L191.4,128.7z"/>
		<path class="st1" d="M132.8,157.7c-0.7-0.7-1.6-0.8-2.4-1.2c-5.9-2.6-11.3-5.9-16.2-9.9c0.1-0.2,0.3-0.3,0.4-0.5
			c0.1,0.1,0.3,0.1,0.4,0c0.2-0.1,0.5-0.1,0.7-0.2c0.1-0.1,0.3-0.1,0.4-0.2c0.3,0,0.5,0,0.6-0.3c0.1,0.1,0.3,0.2,0.4,0
			c0,0,0.1,0,0.1,0c0.1,0,0.1,0,0.2,0c0.1-0.1,0.1-0.1,0.2-0.2c0.1,0,0.2,0,0.2,0c0.1-0.1,0.2-0.1,0.3-0.2c0.2-0.1,0.4-0.1,0.6-0.2
			c0.1-0.1,0.2-0.1,0.4-0.2c0.1,0,0.1,0,0.1,0c0.1,0,0.1,0,0.2,0l0.2-0.2l0.1,0c0.1-0.1,0.2-0.1,0.4-0.2c0.2-0.1,0.3-0.1,0.5-0.2
			c0.1,0,0.3,0,0.4,0c0.2-0.1,0.4-0.2,0.6-0.4l0.4,0c0.2,0,0.4-0.1,0.6-0.3c0.1,0.1,0.3,0.1,0.4,0c0.2-0.1,0.3-0.1,0.5-0.2
			c0.1-0.1,0.3-0.1,0.4-0.2c0.2-0.1,0.4-0.1,0.5-0.2c0.1-0.1,0.3-0.1,0.4-0.2c0.1,0,0.2,0,0.4,0c0.1-0.1,0.2-0.1,0.2-0.2
			c0,0,0.1,0,0.1,0c0.1,0,0.1,0,0.2,0c0.1-0.1,0.1-0.1,0.2-0.2c0.1,0,0.2,0,0.4,0c0.1-0.1,0.1-0.1,0.2-0.2c0.1,0,0.1,0,0.2,0
			c0,0,0.1,0,0.1-0.1c0,0,0-0.1-0.1-0.1c0,0,0-0.1,0-0.1c0.2-0.1,0.7,0.2,0.5-0.4c-0.2-0.1-0.3-0.2-0.5-0.4
			c-0.1-0.1-0.2-0.2-0.3-0.2c-0.2-0.1-0.3-0.1-0.5-0.2c-0.1-0.1-0.2-0.2-0.2-0.4c-0.2-0.2-0.4-0.3-0.7-0.5c-0.1-0.1-0.2-0.1-0.2-0.2
			c-0.2-0.2-0.5-0.4-0.7-0.5c-0.1-0.1-0.2-0.2-0.3-0.2c-0.2-0.1-0.3-0.2-0.5-0.3c-0.1-0.1-0.3-0.2-0.4-0.2c0-0.3-0.3-0.4-0.5-0.4
			c-0.1-0.1-0.1-0.1-0.2-0.2c0-0.3-0.2-0.4-0.5-0.5c-0.1-0.1-0.2-0.2-0.3-0.2c-0.2-0.1-0.4-0.2-0.6-0.4c-0.1-0.1-0.2-0.1-0.3-0.2
			c0-0.3-0.2-0.5-0.5-0.5c-0.1-0.1-0.2-0.2-0.2-0.2c-0.2-0.1-0.3-0.2-0.5-0.3c-0.1-0.1-0.2-0.1-0.4-0.2c0-0.2-0.2-0.4-0.4-0.4
			c0-0.1-0.1-0.1-0.1-0.2c-0.1,0-0.2,0-0.3,0c0-0.2-0.2-0.3-0.4-0.4c-0.1-0.1-0.2-0.2-0.2-0.2c-0.2-0.2-0.3-0.6-0.7-0.3
			c-0.1-0.1-0.1-0.2-0.2-0.4c-0.1-0.3-0.3-0.3-0.5-0.2c-0.1-0.1-0.1-0.2-0.2-0.3c-0.1-0.2-0.3-0.4-0.6-0.4c0-0.1-0.1-0.2-0.1-0.3
			c-0.1,0-0.2,0-0.3,0c0-0.2-0.2-0.4-0.4-0.4c-0.1-0.1-0.2-0.1-0.3-0.2c0-0.2-0.2-0.4-0.4-0.4c-0.2-0.2-0.3-0.6-0.8-0.4
			c-0.1,0.3-0.2,0.6-0.3,1c-0.4,2.2-0.8,4.4-1.3,6.6c-0.4,1.6-0.3,3.3-1.1,4.8c-4.4-4.2-8.1-9-11.2-14.2c-0.1-0.2-0.6-1-0.6-1
			c0-0.1,0,0.1,0,0c0.3-0.1,0.7-0.2,1-0.3c7.9-3.2,15.7-6.5,23.8-9.3c0.4,0.5,0.7,1,1.1,1.5c4.5,5.4,10.2,9.3,16.8,11.8
			c1.4,0.5,2.9,1,4.3,1.3C141,141,136.9,149.4,132.8,157.7z"/>
		<path class="st4" d="M197.4,153.9c0.1,0.1,0.2,0.1,0.3,0.2c-0.2,0.1-0.4,0.1-0.5,0.2c-4.1,2.4-7.6,5.6-11.1,8.8
			c-1,0.8-2.1,1.4-2.6,2.6c-0.4,0.7-1,0.6-1.7,0.5c-2.8-0.4-5.7-0.8-8.5-1.3c-1.3-0.2-2.7-0.3-3.9-0.9c0-0.4,0.2-0.6,0.5-0.7
			c0.1,0,0.1,0,0.2,0c0.1-0.1,0.3-0.1,0.4-0.2c1.6-1.4,3.3-2.7,4.9-4.2c1-0.9,2.3-1.4,3.1-2.6l0.7-0.6c1.8-1,3.2-2.5,4.7-3.7
			c1.6-0.5,3.1,0.3,4.7,0.5C191.6,153,194.5,153.8,197.4,153.9L197.4,153.9z"/>
		<path class="st5" d="M151.9,134.1c-3.6,6.4-7.3,12.9-10.9,19.3c-1.1,1.9-2.2,3.9-3.2,5.8c-0.1,0.1-0.1,0.1-0.2,0.2
			c-1.1,1.8-2.3,3.5-3.4,5.3c-0.6-0.1-1.1-0.3-1.7-0.4c-0.1-0.1-0.3-0.2-0.4-0.3c0.1-0.2,0.1-0.4,0.2-0.6
			c4.4-7.4,8.8-14.8,13.2-22.2c3.5-5.9,7.2-11.8,10.2-18c3.7-7.5,6.7-15.3,7.8-23.7c0.8-0.2,1.6-0.5,2.4-0.7
			c0.2,3.6,0.6,7.1-0.9,10.5c-2,4.6-3.9,9.2-6.5,13.6C156.4,126.6,154,130.2,151.9,134.1L151.9,134.1z"/>
		<path class="st6" d="M217.7,39.7c-2.3,1.8-4.1,2.3-4.7,3.3c-0.1,0,0.1,0,0,0c-0.6-0.6-1.1-1.2-1.7-1.9c0.5-1.6,1.2-3,2.1-4.5
			c1.1,0.2,2.1,0.2,2.8-0.8c0.3-0.4,0.3-0.9,0-1.2c-1.2-1.2-2.1,0.1-3.3,0.9c0.7-1.2,1.2-1.9,1.6-2.8c0.2-0.5,0.5-1.1-0.2-1.5
			c-0.7-0.3-1.2,0.1-1.5,0.7c-0.5,0.9-0.6,1.9-0.6,2.9c-0.3,0.3-0.6,0.6-1,0.5c-0.2-0.8,0-1.9-1.2-2c-0.8,0-1.1,0.5-1.3,1.1
			c-0.3,1.2,0.5,1.7,1.6,2c-0.2,1-0.5,1.9-0.7,2.9c-1.4-1-2.6-2.4-4.1-3.3c-0.1-0.1-0.4-0.1-0.4-0.3c0.1-5,4.1-11,11-8.2
			C222.9,30.4,220.2,37.7,217.7,39.7L217.7,39.7z"/>
		<path class="st3" d="M90.1,97.7c0.3,0.1,0.6,0.3,0.9,0.4c0.1,0.1,4.3-6.1,5.5-5.3c1.1,0.8-0.7,4.7-1,6.9c1.6,0.7,3.1,1.4,4.6,2.1
			c0.5,0.2,1,0.5,0.9,1.2c-0.1,0.7-0.7,0.8-1.2,0.9c-1.9,0.4-3.8,0.8-5.6,1.1c-0.7,1.5-0.5,4.2-1.3,4.4c-1.4,0.3-2.3-2.6-2.8-3.4
			c-1.6,0.4-3.3,0.8-4.9,1.2c-0.5,0.1-1,0.2-1.3-0.3c-0.3-0.5,0-1,0.3-1.3c1.1-1.2,2.2-2.4,3.4-3.7c-0.9-1.4-1.8-2.8-2.7-4.2
			c-0.3-0.5-0.7-1-0.2-1.5c0.5-0.5,1-0.2,1.5,0C87.5,96.7,88.8,97.2,90.1,97.7L90.1,97.7z"/>
		<path class="st7" d="M119.1,135c0.2,0.1,0.3,0.2,0.5,0.3c-0.1,0.1-0.1,0.1-0.2,0.2c-0.1,0.1-0.1,0.2-0.4,0.6
			c0.4-0.2,0.5-0.3,0.6-0.3c0.1-0.1,0.1-0.2,0.2-0.2c0.3,0,0.5,0.2,0.6,0.5c-0.1,0.2-0.4,0.3-0.2,0.6c0.2-0.2,0.4-0.3,0.5-0.5
			c0.2,0.1,0.4,0.2,0.5,0.4c-0.1,0.2-0.4,0.3-0.3,0.6c0.3,0.1,0.4-0.2,0.6-0.3c0.3,0.1,0.4,0.2,0.5,0.5c-0.1,0.1-0.2,0.2-0.2,0.3
			c0,0.1-0.1,0.2-0.2,0.4c0.3-0.2,0.3-0.2,0.4-0.3c0.1,0,0.1-0.1,0.1-0.2c0,0,0.1,0,0.1,0c0.3,0,0.5,0,0.5,0.4
			c-0.1,0.2-0.4,0.3-0.3,0.6c0.4,0.1,0.5-0.2,0.7-0.4c0.2,0.1,0.3,0.2,0.5,0.3l0,0c-0.1,0.1-0.1,0.1-0.2,0.2
			c-0.1,0.1-0.1,0.1-0.2,0.2c-0.1,0.1-0.1,0.2,0.1,0.4c0.1-0.1,0.2-0.1,0.3-0.2c0.1-0.1,0.2-0.2,0.3-0.3c0.2,0.2,0.5,0.4,0.7,0.5
			c-0.1,0.2-0.4,0.2-0.2,0.5c0.3,0.1,0.4-0.2,0.5-0.3c0.2,0.2,0.4,0.3,0.7,0.5c-0.1,0.2-0.2,0.3-0.4,0.5c0.3,0.2,0.4,0,0.6-0.1
			c0.2,0.1,0.3,0.1,0.5,0.2c-0.1,0.2-0.2,0.4-0.3,0.6c-0.4,0-0.8,0.1-1.1,0.4c-0.9,0.1-1.8,0.6-2.6,0.9c-1.2,0.3-2.3,0.7-3.4,1.3
			c-0.4,0-0.7,0.1-0.9,0.4c-0.4,0.1-0.8,0.3-1.1,0.4c-0.1,0.1-0.3,0.1-0.4,0.2c-0.2,0.1-0.5,0.1-0.8,0.2c-0.1,0-0.1,0-0.2,0
			c0.1-1,0.3-2,0.4-3l3.3-1.6c0.3-0.1,0.5-0.2,0.6-0.7c-1.4-1.4-3.4-2.5-5.1-3.9c-0.1,0.6-0.1,1-0.2,1.3c-0.3,1.9-0.5,3.9-0.8,5.8
			c-0.3,1.3-0.6,2.6-0.5,3.9c-0.3,0.2-4,1-4,1s2.8-9.9,4.2-15.6c0.1-0.1,0.2-0.2,0.4-0.4c0.1-0.1,0.2-0.1,0.4-0.2
			c0.1-0.1,0.1-0.1,0.2-0.2c0.2,0,0.4,0.1,0.4,0.4c0,0.1-0.1,0.1-0.1,0.2c-0.1,0.1-0.1,0.2-0.2,0.3c0.2,0.1,0.3,0.1,0.4-0.1
			c0.1-0.1,0.1-0.1,0.2-0.2c0.3,0,0.4,0.2,0.5,0.4c0,0,0,0.1,0,0.2c-0.1,0.1-0.1,0.1-0.2,0.2c0,0.1-0.1,0.2-0.2,0.4
			c0.2-0.1,0.3-0.2,0.4-0.2c0.1-0.1,0.1-0.2,0.1-0.2h0.1c0.2-0.1,0.4-0.1,0.5,0.2c-0.1,0.1-0.2,0.2-0.2,0.3c-0.1,0.1-0.2,0.2,0,0.4
			c0.1-0.1,0.2-0.1,0.2-0.2c0.1-0.1,0.1-0.1,0.2-0.2c0.4-0.2,0.5,0.1,0.7,0.3c-0.1,0.1-0.1,0.2-0.2,0.2c-0.1,0.1-0.2,0.2,0,0.4
			c0.1,0,0.2-0.1,0.2-0.2c0.1-0.1,0.2-0.1,0.2-0.2c0.2,0,0.4,0.1,0.4,0.4c-0.1,0.1-0.1,0.2-0.2,0.4c0.1,0.3,0.2,0.1,0.3,0
			c0.1-0.1,0.1-0.1,0.2-0.2c0.2,0,0.4,0.2,0.4,0.4c0,0-0.1,0.1-0.1,0.2c-0.1,0.1-0.2,0.2,0,0.4c0.1-0.1,0.2-0.1,0.3-0.2
			C118.9,135.2,119,135.1,119.1,135L119.1,135z"/>
		<path class="st8" d="M132.8,157.7c4.1-8.4,8.2-16.8,12.3-25.1c0.9-1.9,1.8-3.8,2.7-5.7c2.6-5.1,5.2-10.2,7-15.6
			c0.3-0.9,0.7-1.8,0.3-2.7c0.3-1-0.6-1.4-1-2.1c-0.1-0.3-0.3-0.6,0.1-0.8c1.9-0.1,3,2.8,2.9,4.6c-0.2,2.4-1.2,4.6-2.2,6.7
			c-3.7,7.4-7.7,14.7-11.6,22c-4.1,7.8-7.6,15.9-11.7,23.7c-0.1,0.2-0.2,0.5-0.3,0.8c-0.1,0-0.1,0-0.2,0l-0.6-0.6
			C131.3,161.1,132,159.4,132.8,157.7L132.8,157.7z"/>
		<path class="st9" d="M84.3,114c0.4-0.1,0.7-0.2,1.1-0.4c1.4,0.2,2.3,1.2,2.6,3.2c0.3,2.3,1,4.3,2.8,5.9c1,0.8,2.9,1.6,4,1.2
			c0.3-0.5,0.1-1.1,0.7-1.4c0.6,0,0.6,0.6,0.9,0.8c0.2,0.6,0.3,1.2,0.4,1.8c0,0.1,0,0.2,0,0.3c-0.1,0.4-0.1,0.7-0.4,1
			c-0.1,0-0.1,0-0.2,0c-0.1,0-0.1,0-0.2,0c-0.1-0.2-0.2-0.4-0.6-0.3c0.2,0.2,0.3,0.4,0.4,0.5c0.1,0.1,0.1,0.1,0.2,0.2
			c-0.7,1.1-2,1-3,1.3c-2.4,0.7-3.5,0.2-4.6-2.1c-1.7-3.5-2.8-7.1-3.7-10.9C84.7,114.7,84.9,114.2,84.3,114L84.3,114z"/>
		<path class="st9" d="M131.1,163.4c0.1,0,0.1,0,0.2,0c0.3,0.2,0.6,0.4,0.9,0.5c0.1,0.1,0.3,0.2,0.4,0.3c0.1,0.3,0.3,0.6,0,0.9
			c-0.2,0-0.5,0.1-0.8,0.1c0.4,0.3,0.6,0.5,0.9,0.7c-0.3,0.5-0.6,1-0.8,1.5c-1.3,2.5-2.9,3.1-5.4,2.1c-3.4-1.4-6.6-3.3-9.7-5.3
			c0.1-0.3,0.1-0.6,0.2-0.9c0.7-0.6,1.5-0.7,2.3-0.5c0.9,0.2,1.7,0.9,2.4,1.4c1.9,1.6,4.2,1.8,6.5,1.5c1-0.1,2.2-0.4,2.4-1.8
			C130.6,163.7,130.9,163.6,131.1,163.4L131.1,163.4z"/>
		<path class="st10" d="M116.8,164.2c3.1,2,6.2,3.9,9.7,5.3c2.6,1.1,4.1,0.5,5.4-2.1c0.3-0.5,0.5-1,0.8-1.5c-0.3-0.2-0.6-0.5-1-0.7
			c0.4,0,0.6-0.1,0.8-0.1c0.3-0.3,0-0.6,0-0.9c0.6,0.1,1.1,0.3,1.7,0.4c1.1,0.8,0.6,1.2-0.4,1.6c-1,1.9-1.8,3.9-3,5.8
			c-1.9-0.1-3.6-0.5-5.3-1.1c-3-1.1-5.7-2.8-8.2-4.7C116.6,165.7,116.6,165,116.8,164.2L116.8,164.2z"/>
		<path class="st11" d="M96.5,123.2c-0.3-0.2-0.4-0.8-0.9-0.8c-0.5,0.3-0.4,1-0.7,1.4c-1.1,0.4-3-0.4-4-1.2
			c-1.9-1.6-2.5-3.6-2.8-5.9c-0.3-2-1.2-3-2.6-3.2c2-0.5,3.9,0.7,4.5,3c0.7,2.7,2.2,4.7,4.8,5.9c0.2-0.3,0.5-0.5,0.7-0.8
			c0.3,0.1,0.5,0.2,0.8,0.3c0.1,0.3,0.2,0.7,0.3,1C96.5,123.1,96.5,123.2,96.5,123.2z"/>
		<path class="st11" d="M131.1,163.4c-0.2,0.2-0.5,0.3-0.5,0.5c-0.2,1.4-1.4,1.7-2.4,1.8c-2.3,0.3-4.5,0.1-6.5-1.5
			c-0.7-0.6-1.4-1.2-2.4-1.4c-0.8-0.2-1.6,0-2.3,0.5c0.6-1.7,1.9-2.4,3.7-1.9c1,0.3,1.8,0.8,2.6,1.4c1.9,1.2,3.9,1.6,6.1,1.1
			c0.2-0.3-0.1-0.6,0.1-0.8c0.3-0.4,0.6-0.3,1-0.3C130.7,163,130.9,163.2,131.1,163.4L131.1,163.4z"/>
		<path class="st12" d="M113.4,132.2c-1.3,5.7-2,9.6-3.1,15.3c-0.4,0.1-0.5,0.1-1.1,0.3c0.2-1.8,0.8-4.9,0.8-4.9s0.7-3.2,1.1-4.8
			c0.5-2.2,0.9-4.4,1.3-6.6c0.1-0.4,0.2-0.7,0.3-1c0.5-0.2,0.6,0.1,0.8,0.4C113.6,131.3,113.5,131.8,113.4,132.2L113.4,132.2z"/>
		<path class="st13" d="M204.9,138.8c1.2-0.5,6.3-0.4,7.5-0.4c2.1,0,3.5,0.2,4.2,0.3c-0.3,0.2-0.6,0.5-0.9,0.6
			C212,140.2,208.4,140.3,204.9,138.8L204.9,138.8z"/>
		<path class="st7" d="M142,25.8c0,0.4-0.2,0.6-0.6,0.8c-2,0.8-4.1,1.5-6.2,0.4C137.8,25.6,141,25.6,142,25.8L142,25.8z"/>
		<path class="st12" d="M113.2,146.8c0-1.3,0.5-3.9,0.5-3.9l2.1-0.9c-0.1,1-0.3,2-0.4,3c0,0.3-0.1,0.5,0.2,0.7c0,0.1,0,0.1,0,0.2
			c-0.2,0.1-0.4,0.1-0.7,0.2c-0.1-0.2-0.1-0.5-0.5-0.6c0,0.2,0,0.4,0.1,0.6c-0.1,0.2-0.3,0.3-0.4,0.5c-0.2,0-0.4,0-0.6,0.1
			C113.5,146.7,113.4,146.8,113.2,146.8L113.2,146.8z M113.9,146.4c0.1-0.2,0-0.3-0.2-0.4C113.6,146.2,113.7,146.4,113.9,146.4z"/>
		<path class="st3" d="M209.6,17.1c0,0,0-0.1,0-0.1c0.1-0.3,0.1-0.5,0.2-0.8v0c0.2-0.1,0.3-0.3,0.6-0.1c0.1,0.2,0.2,0.4,0.3,0.5l0,0
			c0.1,0.2,0.1,0.4,0.2,0.6l0,0c0.1,0.3,0.1,0.6,0.2,1l0,0c-0.1,1,0.4,2.1-0.5,3c-0.3,0-0.6,0-0.8-0.1l0,0c-0.1-0.3-0.3-0.6-0.4-0.9
			v0c0-0.4,0-0.9,0-1.3l0,0C209.7,18.3,209.6,17.7,209.6,17.1L209.6,17.1z"/>
		<path class="st7" d="M193.9,152.9c0.1,0.1,0.2,0.1,0.3,0.2c1,0.4,2.2,0.3,3.2,0.9c-2.9-0.1-5.8-1-8.7-1.4
			c-1.6-0.2-3.1-0.9-4.7-0.5c-0.1-0.1-0.1-0.1-0.2-0.2c0.3-0.4,0.7-0.4,1.1-0.4c2.5,0.4,5,0.9,7.5,1.3
			C192.9,152.8,193.4,153,193.9,152.9L193.9,152.9z"/>
		<path class="st14" d="M113.2,146.8c0.1-0.1,0.3-0.1,0.4-0.2C113.5,146.7,113.4,146.8,113.2,146.8z"/>
		<path class="st2" d="M137.7,159.4c0.1-0.1,0.1-0.1,0.2-0.2C137.8,159.2,137.7,159.3,137.7,159.4z"/>
		<path class="st15" d="M197.9,29.3c0.2,0.4,0.3,0.8,0.4,1.1c-0.4,0.7,0.1,1.4-0.1,2.1c-0.5,2-1.2,3.8-2.1,5.6
			c-1.8,3.7-1.3,7.5,2.3,9.7c2.6,1.6,4.6,3.9,5.2,7.1c0.1,0.5,0.1,1.1,0.6,1.7c0-0.4,0.1-0.6,0.1-0.8c0.3,1,0.1,2-0.2,2.9
			c0-0.1-0.1-0.3-0.1-0.6c-0.6,1.2-1.2,2.2-2.1,3c-3,2.7-6.6,4.1-10.7,3.7c-3.1-0.3-5.9-1.3-8.1-3.8c1.1,0.2,2.1,0,3.1-0.3
			c1.3,0.3,2.6,0.1,3.8-0.3c1.4-0.5,2.5-2.2,2.2-3.7c-0.5-2.9-4.8-5.7-7.7-4.9c-0.1,0-0.1,0-0.2,0c-0.1-0.1-0.3-0.1-0.4-0.1
			c-0.5-0.1-1-0.2-1.4-0.2c-1.1-1.7-2.4-3.2-4.7-4c1.3,4,1,7.6-1.8,10.6c0.2,0.1,0.3,0.3,0.4,0.4c-0.9-0.1-1.7-0.2-2.5,0.4
			c-2.4-1.5-3.5-3.9-3.7-6.6c-0.2-2.6,1.1-4.2,3.6-4.8c1.2-0.3,2.5-0.1,3.8,0.3c-0.7-1.2-1.8-1.6-2.7-2.2c0.2-0.4-0.2-0.4-0.4-0.6
			c-3-3.2-5.2-6.9-6.4-11.1c-0.5-1.6-0.5-3.2-0.9-4.8c0.2-1.1,0.7-2.2,1.3-3.2c0.1-0.1,0.3-0.1,0.4-0.2c3.8-3.2,7.8-2.5,10.6,1.2
			c0.9,1.3,1.9,2.7,3.3,3.5c2.9,1.8,5.3,0.5,7.7-1.2c0.8-0.6,1.6-1.4,2.7-1.5c1.2-0.1,2.5,0.4,3.3,0.8
			C197.4,28.6,197.6,28.8,197.9,29.3L197.9,29.3z"/>
		<path class="st16" d="M181.6,119.1c-0.2,0.4-0.4,0.7-0.5,1.1c-1.4,6.3-5.9,9.5-11.5,11.7c-1.9,0.8-5.9,1.8-5.9,1.8l-0.4,0.1
			c0.4-4,1.1-8,2.1-11.9c1.9-7.3,3.6-14.6,3.3-22.2c-0.1-1.8-0.1-3.6-0.8-5.3c-0.3-0.8-0.8-1.6-2-1.2c0,0.5-0.1,1.1-0.1,1.6
			c-0.1-1.3-0.1-2.5-0.2-3.8c0-2.2,0.7-4.2,2-6c0.6-0.9,1.2-1.9,1.8-2.9c0.2-0.3,0.4-0.7-0.1-1.1c-1,0.3-1.4,1.4-2.3,1.8
			c-0.1-0.7-0.8-0.6-1.2-0.7c-1.4-0.5-1.7-1.6-0.7-2.7c1-1.1,2.1-2,3.5-2.5c0.3-0.1,0.9,0,0.8-0.6c1.1-0.2,2.1,0.1,3,0.6
			c0.4,1,1.4,0.4,2.1,0.7c0.5,0.2,1.2-0.1,1.7,0.2c-0.2,0-0.5,0.1-1,0.1c0.4,0.2,0.6,0.2,0.7,0.3c3.4,1.4,6.8,1.3,10.4,0.9
			c5.3-0.5,10.1-2.3,14.4-5.5c0.4-0.3,1-0.7,0.7-1.4c1.3-1.1,2.8-2,3.9-3.3c-0.1-0.6-0.8-1.1-0.3-1.8c0,0.2-0.1,0.5,0.2,0.7
			c0.8-0.4,1.7-0.7,2.6-0.3c0.2,0.2,0.5,0.4,0.7,0.6c-1.3,0.4-1.3,1.6-1.3,2.8c-0.4-0.4-0.8-0.6-1.4-1.1c0.9,2.2,0,3.4-1.4,4.5
			c-1.4,1.2-2.9,2.2-4.4,3.4c-2,1.6-4.3,2.7-6.4,4.1c-3.9,2-8.1,3.4-12.2,5.2c-0.2,0-0.3,0-0.5,0.1c-3.9,1.3-6.8,3.9-8.6,7.5
			c-1.1,2.2-1.2,4.5,0.4,6.6c1.7,2.2,3.5,4.3,5.2,6.5C180.9,111,182.6,114.6,181.6,119.1L181.6,119.1z"/>
		<path class="st17" d="M174.1,58.6c0.8-0.5,1.6-0.5,2.5-0.3c0.5,0.3,0.9,0.8,1.1,1.4c0.4,1.5,0,2.9-0.7,4.2c-1,1.9-2.7,2.2-4.2,0.5
			c-1.2,1.5-3,2.4-4.6,3.4c-0.3,1.9-0.5,3.8-0.8,5.7c-0.1,0.5-0.1,1-0.1,1.5c0,0.6-0.4,1.1-0.1,1.8c-1.8,0.8-3,2.2-3.7,3.9
			c-0.5-0.1-1-0.1-1.5-0.2c0.4-2.3,1.5-4.5,0-6.8c0-0.2,0.1-0.5,0.1-0.8c2.8,0,4.9-2.1,4.8-4.8c-1.5,0.4-2.9,1.2-4.5,1.4
			c-0.4,0-0.8,0-1.2,0c-2.7,0-4-1.3-4-4c0-3,0.9-5.7,2.2-8.4c0.5-1.4,1.5-2.6,2.1-4c0.3-0.1,0.6-0.3,0.9-0.4
			c1.7-0.6,3.2-1.5,4.5-2.8c0.2-0.2,0.4-0.3,0.7-0.5c0.7,4.1,2.6,7.5,5.7,10.3C173.5,59.2,173.8,58.9,174.1,58.6L174.1,58.6z"/>
		<path class="st18" d="M166,94.8c0-0.5-0.1-1.1-0.1-1.7c1.2-0.4,1.8,0.5,2.2,1.3c0.7,1.7,0.7,3.5,0.8,5.3
			c0.3,7.6-1.4,14.9-3.3,22.2c-1,3.9-2.1,11.9-2.1,11.9c-0.1,0,0.1-0.1,0,0c-0.2,0.1-0.8,0.2-0.8,0.2s-4.1,0.6-6.2,0.9
			c-1.3,0.2-4.5-0.8-4.5-0.8c2-3.9,4.4-7.5,6.7-11.3c2.6-4.3,4.4-9,6.5-13.6c1.5-3.4,1.1-7,0.9-10.5C166,97.4,166,96.1,166,94.8
			L166,94.8z"/>
		<path class="st19" d="M181.6,119.1c1-4.4-0.8-8-3.5-11.3c-1.8-2.1-3.6-4.2-5.2-6.5c-1.6-2.1-1.5-4.5-0.4-6.6
			c1.8-3.6,4.7-6.3,8.6-7.5c0.1-0.1,0.3,0,0.5-0.1c-0.9,0.5-1.7,1-2.6,1.5c-3.2,1.6-4.2,6.7-0.4,9.2c2.2,1.4,4.2,3,6.2,4.6
			c2,1.7,3.5,3.8,4.1,6.4c0.6,3-0.8,5.2-3.2,6.8C184.2,116.5,182.8,117.7,181.6,119.1L181.6,119.1z"/>
		<path d="M168.1,67.7c1.6-1,3.4-1.9,4.6-3.4c1.5,1.6,3.2,1.4,4.2-0.5c0.7-1.3,1.1-2.7,0.7-4.2c-0.1-0.6-0.6-1-1.1-1.4
			c-0.1-0.1-0.3-0.2-0.4-0.4c2.8-3,3.1-6.6,1.8-10.6c2.3,0.8,3.6,2.3,4.7,4c0,0.1,0.1,0.2,0.1,0.2c1.9,3.1,1.6,6.3,0.4,9.5
			c2.1,2.5,5,3.5,8.1,3.8c4.1,0.4,7.7-1,10.7-3.7c0.9-0.8,1.5-1.8,2.1-3c0.1,0.3,0.1,0.4,0.1,0.6c-2,7.9-7.4,11.4-15.8,9.4
			c-2.7-0.6-4.9-1.9-6.8-3.8C177.8,68.1,173.4,69.7,168.1,67.7L168.1,67.7z M175,67.4c-0.5,0.2-0.8,0.3-1.1,0.7
			C174.4,68,174.7,67.9,175,67.4z"/>
		<path class="st3" d="M232.3,85.3c-0.1,0.2-0.1,0.4-0.2,0.6c-0.1,0.1-0.2,0.2-0.2,0.2c-0.6,0.3-1.2,0.2-1.7-0.1
			c-1.7-0.7-3.4-1.4-5.2-2.2c-1.3,0.8-2.6,1.7-3.9,2.6c-0.4,0.3-1,0.6-1.5,0.2c-0.5-0.4-0.3-1,0-1.5c0.5-1.2,1.1-2.4,1.7-3.6
			c-1.3-0.9-2.6-1.8-3.8-2.7c-0.6-0.4-1.2-0.8-1-1.7c0.2-0.8,1-0.8,1.7-0.9c1.9-0.2,3.9-0.5,5.9-0.8c0.8-1.9,1.6-3.8,2.4-5.7
			c0.2-0.5,0.4-1.1,1.1-1c0.6,0.1,0.8,0.6,0.9,1.1c0.3,1.2,0.6,2.4,1,3.6c0.1,0.5,0.3,0.8,0.9,0.7c0.3,0,0.6,0,1,0.1
			c1.2,0.2,2.5,0.4,3.8,0.6c0.6,0.1,1.1,0.2,1.7,0.4c0.1,0.1,0.2,0.1,0.4,0.2c0.1,0.1,0.2,0.2,0.4,0.4c0.1,0.4,0,0.8-0.2,1.2
			c-1.4,0.7-3,1.2-4.3,2.1c-0.5,0.3-1,0.5-1.5,0.8c-0.7,0.6,0,1.1,0.1,1.6c0.1,0.4,0.2,0.7,0.3,1.1c0.1,0.2,0.1,0.5,0.2,0.7"/>
		<path class="st17" d="M214.5,61.4c1-0.3,2.1-0.7,3.2-0.6c1.3,0.1,1.8,0.8,1.8,2c0,0.4-0.1,0.8,0.1,1.3c1.1,2.1,0.7,5.2-1,6.6
			c-1.1,0.9-2.6,0.8-3.9,0.7c-1.1-0.1-2.4,0.2-3.2-1.1c-0.1-0.1-0.4,0-0.6-0.1c-1-0.1-2.1,0-1.8-1.5c0.5-0.4,0-0.8-0.1-1.2
			c0-1.2,1.3-1.3,1.9-2.1c-1.2-1.1-1.2-1.6,0.2-2.6C212.1,62.1,213.3,61.8,214.5,61.4L214.5,61.4z"/>
		<path class="st3" d="M234.2,70.2c-0.3-0.5-0.6-0.8-0.9-1.3c-1,0.6-2.9,1.5-2.9,1.5s-0.7,0.3-1.1,0.1c-1.1-1.2,1.2-3.1,1.6-4.3
			c0.3-0.4,0.8-0.8,0.4-1.4c-0.7-1.1-2.7-3.1-2.1-4.2c0.7-1.2,2.7,0.1,4.1,0.4c0.8,0.6,1.5-4.3,3.4-3c0.7,1-0.3,4.5,0.6,4.5
			c1.6,0.4,6.7,2.1,3.1,3.8c-0.9,0.4-2,0.6-2.8,1.1c-0.3,1.4,0.4,4.1-0.6,4.6S234.7,70.7,234.2,70.2L234.2,70.2z"/>
		<path d="M191.4,128.8c-0.9-1.2-2-2-3.2-2.6c-2.5-1.4-2.6-2-0.6-4.1c0.2-0.2,0.3-0.4,0.5-0.6c-0.4-0.3-0.7-0.5-1-0.8
			c-0.9-0.8-1.1-1.8-0.4-2.8c0.1-0.2,0.3-0.4,0.4-0.6c2.2-2.7,5.1-2.3,6.6,0.9c0.2,0.4,0.2,0.8-0.2,1.1c-0.4,0.3-0.8,0.1-1.1-0.2
			c-0.6-0.9-1.4-1.5-2.5-1.8c-0.9,0.4-1.5,1.1-2.1,2.1c0.9,0.6,1.9,1.2,2.8,1.9c2.8,1.9,2.9,2.3,0.6,5.1c0.2,0.1,0.5,0.2,0.7,0.5
			c1.9,1.9,1.5,3.6-1.1,4.5c-1.3,0.4-2.6,0.9-3.9,0.3c-1.1-0.5-1.4-1.4-1.1-2.5c0.2-0.8,0.5-1.6,1.5-1.6c0.5,0.8-0.5,1.6,0,2.3
			C188.5,130,190.3,129.7,191.4,128.8L191.4,128.8z M189.9,124.9c0.5-0.4,1-0.8,1.3-1.4c-0.7-0.5-1.4-1-2.2-1.6
			c-0.4,0.7-0.7,1.3-1,2C188.6,124.3,189.2,124.6,189.9,124.9L189.9,124.9z"/>
		<path class="st20" d="M209.8,108.8c-0.4,0.4,0.1,0.7,0.2,1c0.6,1,2,1.4,1.9,2.8c-0.2,0.6-0.5,1.1-1.1,1.3c-1.3,0-2.1-1.1-2-2.7
			c-0.5-0.3-0.7-0.9-1-1.4c-0.5,0.2-1,0.4-1.5,0.5c-0.8,0.2-1.5,0.1-1.7-0.9c0.6-0.7,0.7-1.5,0.2-2.3c-0.6-0.8-1.3-0.6-2-0.3
			c-0.7-0.4-0.7-1-0.3-1.6c0.3-0.5,0.7-1,1.1-1.5c0.5-0.4,1-0.8,1.5-1.1c0.2-0.2,0.6-0.2,0.4-0.6c0.8-0.5,1.6-1,2.5-1.5
			c0.4,0.7,0.8,1.3,1.1,2C209.7,104.5,211.7,106.4,209.8,108.8L209.8,108.8z"/>
		<path class="st21" d="M145,152.6c0.1-0.2,0.2-0.4,0.4-0.5c0.8,0.3,1.4-0.3,1.9-0.7c3.6-3.1,7.2-6.3,10.7-9.5
			c0.6-0.5,1.1-1.1,1.1-2c0-1.8,1-3,2.3-4.1c1.1-1,2.6-1.1,4-1.5c0.4,0,0.7,0.2,0.9,0.4c0,0.1,0,0.2,0.1,0.3c1.7,4-0.7,7.3-5,6.9
			c-1.4-0.1-2.7,0-3.8,1c-2.5,2.4-5,4.9-7.6,7.2c-1.2,1.1-2.4,2.5-4.2,3C145.5,152.9,145.3,152.8,145,152.6L145,152.6z M165.6,137.1
			c-0.2,0.6-0.3,1.3-0.8,1.9c0-0.1,0-0.1-0.1-0.2c-0.3,0.1-0.6,0.2-0.9,0.4c-1.4,0.6-2.2,0.1-2.3-1.4c0-0.4,0.2-0.9-0.2-1.3
			c-1.6,0.5-2.2,2.3-1.3,3.9c-0.7,0.3-0.1,0.5,0.1,0.7c0.4,0.4,1,0.2,1.5,0.3c2.5,0.5,4.8-1.9,4.2-4.4c-0.2-0.2-0.2-0.7-0.6-0.6
			C165.2,136.6,165.4,136.9,165.6,137.1L165.6,137.1z"/>
		<path class="st22" d="M145,152.6c0.2,0.1,0.5,0.3,0.7,0.4c1.8-0.5,3-1.9,4.2-3c2.6-2.4,5.1-4.8,7.6-7.2c1.1-1,2.4-1.2,3.8-1
			c4.3,0.4,6.7-2.9,5-6.9c0-0.1-0.1-0.2-0.1-0.3c0.9,0.5,1.1,1.4,1.1,2.3c0.1,2.9-2.2,6.7-6.3,5.9c-1.3-0.2-2.2,0.6-3.1,1.4
			c-3,2.7-5.8,5.6-8.6,8.5c-0.7,0.7-1.4,1.4-2.3,1.7c-0.6,0.2-1.1,0.3-1.7-0.2C144.8,153.9,144.7,153.3,145,152.6L145,152.6z"/>
		<path class="st23" d="M214.5,61.3c-1.2,0.4-2.4,0.8-3.4,1.5c-1.4,1-1.5,1.5-0.2,2.6c-0.6,0.7-1.9,0.8-1.9,2.1
			c0.1,0.4,0.6,0.7,0.1,1.2c-0.2-0.2-0.3-0.4-0.4-0.6c-0.2-0.2-0.5-0.4-0.7-0.6c-0.3-0.2-0.5-0.5-0.8-0.8c0.5-2.6,2.6-4.6,2.9-7.3
			c0.2-1.7,0.4-3.4,0.1-5.2c-0.1-0.8-0.3-1.9,1.1-1.9c0,1.2-0.2,2.4,0.4,3.5c0.2,0.4,0.4,0.9,1,0.8c0.6-0.1,0.6-0.6,0.6-1.1
			c0-0.2,0-0.4,0-0.6c0.3,0.6,0.2,1.2,0,1.8C212.9,58.5,213.7,59.9,214.5,61.3L214.5,61.3z"/>
		<path class="st20" d="M223.6,98.1c0,0.1,0,0.1,0,0.2c-2.1-0.4-3.4,0.7-2.8,2.4c0.2,1,0.9,1.4,1.9,1.4c0.5,0.5,0.4,1.3,0.8,1.8
			c0,0.1,0,0.1,0,0.2c-2.2,0.2-4.4,0.2-6.7-0.3c-0.1-1.8-0.2-3.6-0.3-5.3c-0.1-0.9,0.1-1.8,0.6-2.6c0.1-0.1,0.3-0.2,0.5,0
			c-0.2,1.7,0.4,3,1.6,3c1.1,0,1.9-0.6,1.8-1.8c0.3-0.6-0.7-1.4,0.4-1.8C222.8,95.7,222.9,97.1,223.6,98.1L223.6,98.1z"/>
		<path class="st18" d="M201.6,72.2c0.3,0.7-0.3,1.1-0.7,1.4c-4.2,3.2-9,5-14.4,5.5c-3.5,0.3-7,0.4-10.4-0.9
			c-0.2-0.1-0.3-0.1-0.7-0.3c0.5,0,0.7-0.1,1-0.1c6.6,0.4,13.1-0.3,19.4-2.6c2-0.7,3.8-1.8,5.6-2.8
			C201.4,72.4,201.5,72.3,201.6,72.2L201.6,72.2z"/>
		<path class="st20" d="M201.5,99.6c1.4-1.2,1.4-2.1-0.3-3.8c0.5-0.4,1.1-0.9,1.8-1.1c1.1,0.6,2,1.5,2.7,2.6
			c1.1,1.8,0.6,3.3-1.7,5.2c-0.3,0.3-0.8,0.4-0.8,0.9c0,0.1-2.1,1.3-2.1,1.3c-0.7-1.4-1.8-2.6-1.8-4.3
			C200.1,100,201,100.3,201.5,99.6z"/>
		<path d="M204.4,55.7c0,0.2,0,0.5-0.1,0.8c-0.4-0.5-0.5-1.1-0.6-1.7c-0.6-3.2-2.6-5.6-5.2-7.1c-3.7-2.2-4.2-6-2.3-9.6
			c0.9-1.8,1.6-3.6,2.1-5.6c0.2-0.7-0.3-1.4,0.1-2.1c0,0.1,0,0.1,0,0.1c0.1,0.1,0.1,0.3,0.2,0.4c0,0,0.3,0.9,0.4,1
			c0.2,2.1-0.2,4.2-1,6.1c-1.4,3.4-0.9,6.4,1.8,9.1c1,1,1.8,2.1,2.7,3.2C203.6,51.9,204.3,53.7,204.4,55.7L204.4,55.7z"/>
		<path class="st24" d="M207.8,121.8c0.9-0.2,1.9-0.4,2.9,0.2c1.3,3.1,2.5,6.4,3.5,9.7c-1.7,0.5-2.7-0.1-3.7-1.8
			C209.1,127.3,208.5,124.5,207.8,121.8z"/>
		<path class="st22" d="M206.1,128.5c-0.3-0.9-0.5-1.9-0.9-2.7c-0.8-1.6-0.1-2.5,1.1-3.3c0.3,1.1,0.2,2.3,0.6,3.4
			c0.8,1.9,1.6,3.7,2.1,5.7c0.5,1.8,1.8,2,3.4,1.6c0.8-0.2,1.4-0.7,2-1.2c0.1,0.3,0.3,0.7,0.4,1c-1.2,1.8-3.4,2.6-6,2.1
			c-0.8-1.1-0.8-2.6-1.7-3.7C206.9,130.3,206.5,129.4,206.1,128.5L206.1,128.5z"/>
		<path class="st19" d="M208.6,68.1c0.1,0.2,0.3,0.4,0.4,0.6c-0.2,1.5,0.9,1.4,1.8,1.5c0,0.1,0,0.2,0.1,0.3c0.4,0.8,0.8,1.7,0.1,2.4
			c-0.8,0.7-1.6,0.1-2.3-0.2c-0.1-0.1-0.3-0.1-0.5-0.2c-1.7,1.7-3.6,3.2-5.6,4.6c-2.8,1.8-5.6,3.7-8.8,4.8c2.1-1.5,4.5-2.5,6.4-4.1
			c1.4-1.2,2.9-2.2,4.4-3.4c1.3-1.1,2.2-2.3,1.3-4.5c0.6,0.5,0.9,0.8,1.4,1.1C207.3,69.7,207.3,68.5,208.6,68.1L208.6,68.1z"/>
		<path class="st21" d="M214.3,132c-0.6,0.5-1.2,1-2,1.2c-1.5,0.3-2.9,0.2-3.4-1.6c-0.5-1.9-1.3-3.8-2.1-5.7
			c-0.4-1.1-0.4-2.3-0.6-3.4c0.4-0.4,1-0.6,1.5-0.7c0.8,2.7,1.4,5.5,2.7,8c1,1.8,2,2.3,3.7,1.8C214.2,131.8,214.2,131.9,214.3,132
			L214.3,132z"/>
		<path class="st22" d="M216.6,138.7c0.1,0,0.1,0.1,0.2,0.1c0.1,0.2,0.1,0.3,0.2,0.5c0,0.1,0,0.1,0,0.2c-1.2,0.7-2.5,0.9-3.8,1.1
			c-2.3,0.1-4.6-0.1-7-0.5c0.2,1.4,1.7,2,4.1,2c2.2,0.2,4.5-0.5,6.6-1c0.1,0.6-0.6,0.8-1.1,1c-3.1,1.2-6.3,0.9-9.5,0.2
			c-0.7-0.3-1.3-0.6-1.8-1.1c0.2-0.8-0.1-1.6,0.3-2.4c3.5,1.5,7.1,1.4,10.7,0.5C216,139.2,216.3,138.9,216.6,138.7L216.6,138.7z"/>
		<path class="st25" d="M201.5,99.6c-0.6,0.7-1.4,0.4-2.2,0.8c0,1.7,1.1,2.9,1.8,4.3c-0.2,0.6-0.7,0.7-1.1,0.9c-1.4-1.9-2.7-4-4-6.1
			c0.6-1,1.7-1.4,2.6-2.1C198.9,99.2,199.9,99.8,201.5,99.6z"/>
		<path class="st21" d="M192.9,136.3c-0.3-0.8-1.1-1.6,0.2-2.3c0.4,0,0.8,0.1,1.2,0.1c2.6-0.2,5.1-1.2,7.4-2.2
			c0.9-0.4,1.8-1.1,1.7-2.3c0.6-0.2,1.2-0.5,1.7-0.7c0.6,1.7,0.2,2.5-1.8,3.3c-2,0.8-4.1,1.5-6.1,2.3
			C195.8,135.1,194.2,135.4,192.9,136.3L192.9,136.3z"/>
		<path class="st24" d="M165.3,134.2c-1.4,0.4-2.8,0.6-4,1.5c-1.3,1.1-2.3,2.3-2.3,4.1c0,0.8-0.5,1.5-1.1,2
			c-3.6,3.2-7.1,6.4-10.7,9.5c-0.5,0.4-1,1-1.9,0.7c2-1.8,4-3.6,6-5.3c2-1.7,4-3.3,6-5c0.6-0.5,1-1.1,1.1-1.9c0.3-2.7,2-4.4,4.3-5.7
			C163.5,134,165.1,134.2,165.3,134.2L165.3,134.2z"/>
		<path class="st24" d="M203.4,129.6c0.1,1.2-0.7,1.9-1.7,2.3c-2.4,1.1-4.8,2-7.5,2.2c-0.4,0-0.8-0.1-1.2-0.1
			C196.4,132.4,199.8,130.7,203.4,129.6z"/>
		<path d="M223.1,126.7c-0.1,0.1-0.2,0.1-0.4,0.2c-0.5,0.2-1.3,0.7-1.8,0.4c-0.2-0.2-0.3,0-0.4-0.3c-0.2-1.1,0.7-1.4,0.9-1.5
			c0.1-0.1,4.5-2.5,4.7-2.6c0.2-0.1,1.2-0.4,1.4,0.3c0.3,1-0.4,1.2-1.2,1.7c-0.4,0.3-0.9,0.5-1.3,0.8
			C224.5,126,223.8,126.3,223.1,126.7L223.1,126.7z"/>
		<path class="st22" d="M192.9,136.3c1.3-0.9,2.9-1.3,4.3-1.9c2-0.8,4.1-1.5,6.1-2.3c2-0.8,2.4-1.6,1.8-3.3c0.2-0.1,0.4-0.1,0.5-0.2
			c0.1,1,0.1,2.1,0.6,3c-4.2,1.7-8.4,3.5-12.7,5.2C193.2,136.8,193,136.6,192.9,136.3L192.9,136.3z"/>
		<path class="st20" d="M210.4,94c0.1,0.1,0.2,0.2,0.3,0.4c0,0.1,0,0.2,0,0.4c0.3,1.7-0.4,2.5-2,2.3c-0.9-0.1-1.5,0.5-1.8,1.3
			c-0.4-0.6-0.7-1.1-1.1-1.7c0.4-0.3,0.9-0.6,1.3-1C207.7,94.1,208.9,93.7,210.4,94L210.4,94z"/>
		<path class="st26" d="M204.9,35.9c1.5,0.9,3.1,2.4,4.5,3.6c-0.3,1.1-0.6,2.2-0.9,3.3c-0.5-0.1-1-0.2-1.5-0.4c-0.1,0-0.2,0-0.2-0.1
			c0.8-1.7-0.4-3.1-0.9-4.4C205.6,37.4,204.9,36.5,204.9,35.9L204.9,35.9z"/>
		<path class="st12" d="M207,42.4c0.5,0.1,1,0.2,1.5,0.4c0.2,0.1,0.5,0.1,0.7,0.2c0.3,0.1,0.5,0.1,0.8,0.2c0.1,0,0.2,0.1,0.4,0.1
			c0.8,0.2,1.5,0.4,2.3,0.6c0.2,0.1,0.5,0.3,0.7,0.4c0.1,0.5-0.2,0.9-0.3,1.3c-2.2-0.6-4.4-1.1-6.6-1.9c0-0.1,0-0.1,0-0.2
			c0.1-0.2,0.1-0.4,0.2-0.6c-0.1-0.2-0.1-0.5-0.2-0.7c0.1,0,0.2,0,0.4,0.1C206.9,42.4,207,42.4,207,42.4L207,42.4z"/>
		<path class="st25" d="M204.5,109.4c0.2,0.9,0.9,1.1,1.7,0.9c0.5-0.1,1-0.3,1.5-0.5c0.3,0.5,0.5,1.1,1,1.4c-0.1,1.6,0.7,2.7,2,2.7
			c-0.9,0.6-1.8,0.4-2.5-0.2c-0.8-0.7-0.6-1.5-0.2-2.3c-0.1-0.4-0.3-0.7-0.8-0.9c-0.9,0.5-1.9,1.1-2.8,1.6c-0.7-0.5-1-1.2-1.3-1.7
			C203.6,110,204.1,109.7,204.5,109.4L204.5,109.4z"/>
		<path class="st19" d="M167.1,76.6c-0.3-0.6,0.1-1.2,0.1-1.8c1.2-0.2,2.3-0.6,3.5-0.2c1.1,0.4,1.8,1,1.9,2.3
			c-0.9-0.5-1.9-0.7-3-0.6C168.7,76.3,167.9,76.4,167.1,76.6L167.1,76.6z"/>
		<path class="st2" d="M207.7,100.5c0.1-0.1,0.2-0.2,0.4-0.4c1.5,2.2,2.9,4.4,4.2,6.9c-0.9,0.6-1.7,1.2-2.5,1.7
			c1.9-2.4-0.1-4.2-0.9-6.2C208.6,101.9,208.1,101.2,207.7,100.5L207.7,100.5z"/>
		<path class="st27" d="M206.4,43.7c2.1,0.8,4.4,1.3,6.6,1.9c-0.1,0.4-0.2,0.8-0.4,1.1c-1.8-0.5-3.6-1-5.5-1.5c-0.1,0-0.1,0-0.2,0
			c-0.1-0.1-0.2-0.1-0.4-0.2C206.3,44.7,206.5,44.2,206.4,43.7L206.4,43.7z"/>
		<path class="st17" d="M213.4,55c0,0.2,0,0.4,0,0.6c0,0.5,0,1-0.6,1.1c-0.6,0.1-0.8-0.4-1-0.8c-0.6-1.1-0.4-2.3-0.4-3.5
			c0.1,0,0.1,0,0.2,0c0.1,0,0.1,0.1,0.2,0.1C212.7,53,213.3,53.9,213.4,55z"/>
		<path class="st24" d="M202.8,142.9c-0.6-0.4-1.2-0.8-1.9-1.2c0.8-0.7,1.8-0.4,2.6-0.5c0.3,0,0.7,0,1,0c0.5,0.5,1.1,0.9,1.8,1.1
			c0.1,0.3,0,0.3-0.3,0.4c-1,0.1-2,0.2-3.1,0.4C203,143,202.9,143,202.8,142.9z"/>
		<path class="st27" d="M212.1,48.6c0.1-0.5-0.4-0.6-0.7-0.6c-1.6-0.4-3.1-1-4.3-2.2c0.3-0.3,0.6-0.1,0.8,0c1.6,0.4,3.2,0.8,4.8,1.1
			C212.4,47.5,212.2,48.1,212.1,48.6L212.1,48.6z"/>
		<path class="st20" d="M220.9,109.2c-0.8-0.1-1.3-0.5-1.7-1.2c-0.4-0.9,0.8-1.3,0.4-2.1c0.4-0.6,0.9-0.7,1.5-0.7c0,0.1,0,0.1,0,0.2
			c-1.1,0.5-0.7,1.2-0.3,1.8c0.4,0.6,0.6,1.1,0.4,1.8C221.1,109,221,109.1,220.9,109.2L220.9,109.2z"/>
		<path class="st25" d="M207.2,98.7c-0.1-0.1-0.2-0.3-0.2-0.4c0.3-0.8,0.8-1.4,1.8-1.3c1.7,0.2,2.4-0.6,2-2.3c0-0.1,0-0.2,0-0.4
			c0.8,0.8,0.8,1.8,0.3,2.7c-0.5,0.9-1.4,1.1-2.4,0.8C208.2,98.1,207.7,98.4,207.2,98.7L207.2,98.7z"/>
		<path class="st26" d="M212.6,44c-0.8-0.2-1.5-0.4-2.3-0.6c0.3-0.8,0.4-1.6,0.9-2.2c0.6,0.6,1.2,1.2,1.7,1.9
			C212.8,43.3,212.6,43.6,212.6,44z"/>
		<path class="st25" d="M216.8,103.8c-0.1-1.8-0.2-3.6-0.3-5.3c-0.1-0.9,0.1-1.8,0.6-2.6c0-0.1,0.3-0.2,0.5,0c-0.2,1.7,0.4,3,1.6,3
			c1.1,0,1.9-0.6,1.8-1.8c-0.5,0.7-1.1,1.4-2.1,1.1c-1.1-0.4-1-1.5-0.8-2.5c-0.4,0-2.5,0.2-3.3,0.6c0.3,2.9,0.7,5.7,1,8.7
			c1,0.1,2-0.3,2.9,0c0.1,0.6,0.3,1.1-0.1,1.6c-0.6,0.8-0.5,1.6,0,2.2c0.6,0.6,1.3,0.9,2.2,0.5c-0.8-0.1-1.4-0.6-1.7-1.2
			c-0.3-0.6,0.8-1.3,0.4-2.1c0.4-0.6,0.9-0.7,1.5-0.7c0.2-0.4,0.4-0.6,0.9-0.6c1.1,0,1.2-0.1,1.5-0.5
			C221.3,104.3,219.1,104.3,216.8,103.8L216.8,103.8z"/>
		<path class="st28" d="M206.2,131.7c-0.4-0.9-0.5-2-0.6-3c0.1-0.1,0.3-0.1,0.4-0.2c0.4,1,0.9,1.9,0.9,3
			C206.7,131.5,206.5,131.6,206.2,131.7L206.2,131.7z"/>
		<path class="st2" d="M221.3,109c0.1-0.7,0-1.2-0.4-1.8c-0.4-0.6-0.8-1.3,0.3-1.8c0,0.3,0,0.5,0,0.8
			C222.6,107.1,222.4,108.1,221.3,109z"/>
		<path class="st18" d="M207.2,66.8c0.2,0.2,0.5,0.5,0.8,0.8c-0.9-0.4-1.8,0-2.6,0.3c-0.3-0.2-0.2-0.5-0.2-0.7
			C205.6,66,206.4,66.5,207.2,66.8L207.2,66.8z"/>
		<path class="st2" d="M223.6,98.1c-0.7-1-0.8-2.4-2.2-2.9c0.5-0.2,1-0.3,1.7-0.1C223.3,96,223.5,97,223.6,98.1L223.6,98.1z"/>
		<path class="st25" d="M211.9,112.6c0.1-1.4-1.3-1.8-1.9-2.8C211.7,109.8,212.4,110.9,211.9,112.6z"/>
		<path class="st12" d="M197.7,154.2c-0.2,0.1-0.4,0.1-0.5,0.2c-0.6,1.2-1.9,1.7-2.9,2.6c-2.6,2.2-5.2,4.3-7.8,6.4
			c-0.9,0.9-1.9,1.8-3,2.4c-0.4,0.7-1,0.6-1.7,0.5c-2.8-0.4-5.7-0.8-8.5-1.3c-1.3-0.2-2.7-0.3-3.9-0.9c0-0.4,0.2-0.6,0.5-0.7
			c0.1,0,0.1,0,0.2,0c0.5-0.6,1-1.1,1.5-1.7c-0.1-0.2-0.2-0.1-0.4,0c-0.4,0-0.4,0.8-1,0.4c-0.2,0.2-0.7,0.6-0.7,0.6l-0.2,0.2
			c0,0-0.8,0.5-1.2,0.8c-0.3-0.4-4-5.7-5.1-7.4c-0.6-1-1.2-2.1-1.8-3.1c-0.2-0.3-0.4-0.6-0.2-0.9c-0.1,0-0.2,0-0.2,0
			c-0.1,0.3-0.1,0.5-0.2,0.8c0.6,1.3,7.1,10.9,7.8,11.9c4.2,0.7,8.4,1.5,12.5,2.2c0.9,0.2,1.8,0.4,2.6-0.4c1.1-1,2.4-1.9,3.6-2.9
			c3.4-2.8,6.8-5.6,10.2-8.4C197.6,155,198.2,154.7,197.7,154.2L197.7,154.2z"/>
		<path class="st29" d="M207.8,45.8c1.6,0.4,3.2,0.8,4.8,1.1c0-0.1,0-0.1,0-0.2c-1.8-0.5-3.6-1-5.5-1.5c-0.1,0-0.1,0-0.2,0
			c-0.1-0.1-0.2-0.1-0.4-0.2c-0.3-0.4-0.1-0.9-0.2-1.3c0-0.1,0-0.1,0-0.2c0.1-0.2,0.1-0.4,0.2-0.6c-0.1-0.2-0.1-0.5-0.2-0.7
			c-0.3-0.1-0.6,0-0.7,0.4c-0.4,1.5-0.8,3-1.2,4.6c2.4,0.7,4.8,1.3,7.2,1.9c0.3-0.1,0.4-0.3,0.4-0.6c0.1-0.5-0.4-0.6-0.7-0.6
			c-1.6-0.4-3.1-1-4.4-2.2C207.2,45.5,207.6,45.8,207.8,45.8L207.8,45.8z"/>
		<path class="st25" d="M220.9,100.7c-0.6-1.8,0.6-2.8,2.8-2.4c0,0.2,0,0.4,0,0.6C221.6,98.5,221,99,220.9,100.7L220.9,100.7z"/>
		<path class="st2" d="M210.4,94c-1.5-0.3-2.7,0.1-3.2,1.7c-0.1-0.9,0.2-1.7,1-2.1C209,93.3,209.8,93.3,210.4,94z"/>
		<path class="st2" d="M223.5,103.9c-0.4-0.6-0.2-1.3-0.8-1.8c0.2,0,0.4-0.2,0.8,0V103.9z"/>
		<path class="st7" d="M178.4,141.2c-0.1,0.1-0.2,0.2-0.2,0.2c1.8,3.3,3.5,6.6,5.3,9.9c0.2,0.1,0.4,0.1,0.4-0.2
			C182.1,147.8,180.5,144.4,178.4,141.2L178.4,141.2z"/>
		<path class="st7" d="M177.3,140.6c-2.6,1.4-5,3.1-7.3,4.9c0.1,0.1,0.2,0.1,0.2,0.2c2.4-1.6,4.9-3.3,7.3-4.9
			c0.5-0.1,0.4,0.4,0.7,0.6c0.1-0.1,0.1-0.2,0.2-0.2c-0.1-0.2-0.2-0.4-0.4-0.6C177.8,140.4,177.5,140.4,177.3,140.6z"/>
		<path class="st4" d="M170.2,145.7c-0.1-0.1-0.2-0.1-0.2-0.2c-2.8,1.9-5.8,3.6-8.4,5.8c-0.2,0.2-0.5,0.4-0.8,0.6
			c-0.3,0.2-0.4,0.6-0.1,0.9c0-0.2,0.3-0.3,0.4-0.5c0,0,0.1-0.2,0.1-0.3c0.2-0.2,0.5-0.4,0.7-0.5
			C164.6,149.6,167.4,147.7,170.2,145.7L170.2,145.7z"/>
		<path class="st30" d="M201.5,72.2c-0.1,0.1-0.1,0.1-0.2,0.2C201.4,72.4,201.5,72.3,201.5,72.2z"/>
		<path class="st31" d="M211.7,52.5c-0.1,0-0.1-0.1-0.2-0.1C211.6,52.5,211.6,52.5,211.7,52.5z"/>
		<path class="st1" d="M92.7,60.4C92.7,60.4,92.8,60.4,92.7,60.4C92.8,60.4,92.8,60.3,92.7,60.4C92.8,60.3,92.8,60.3,92.7,60.4
			C92.7,60.3,92.7,60.3,92.7,60.4L92.7,60.4z"/>
		<path class="st32" d="M96.5,123.2c0-0.1,0.1-0.1,0.1-0.2c2.4-1,4.8-2,7.2-3c1.9-0.3,3.7-1,5.5-1.6c7.4-2.7,14.7-5.7,22-8.7
			c4.9-2,9.8-3.9,14.2-6.9c0.5-0.3,0.9-0.7,0.8-1.3c1.1-0.4,2.1-0.9,3.2-1.3c0.6,0.6,1.5,0.4,2.2,0.5c2.6,0.1,5.2,0.4,7.2-1.9
			c0.1,0,0.1,0,0.2,0c1.3,0.6,2.7,0.8,4.2,0.7c0.1,0,0.2,0,0.3,0.1c-1,8.4-4.1,16.2-7.8,23.7c-3.1,6.2-6.7,12-10.2,18
			c-4.4,7.4-8.8,14.8-13.2,22.2c-0.1,0.2-0.2,0.4-0.2,0.6c-0.3-0.2-0.6-0.3-0.9-0.5c0.1-0.3,0.2-0.5,0.3-0.8
			c4.1-7.8,7.6-15.9,11.7-23.7c3.9-7.3,7.9-14.6,11.6-22c1-2.1,2.1-4.3,2.2-6.7c0.1-1.8-1-4.6-2.9-4.6c-0.4,0.3-0.2,0.6-0.1,0.8
			c-0.6-0.1-1.2-0.2-1.9-0.2c-2.5,0.3-5,0.6-7.5,1.2c-10.8,2.8-21.2,6.8-31.7,10.8c-5.5,2.1-10.9,4.5-16.3,6.7
			C96.7,124.5,96.6,123.9,96.5,123.2L96.5,123.2z"/>
		<path class="st16" d="M161.9,73.6c1.5,2.2,0.5,4.5,0,6.8c-0.1,0.3-0.3,0.6-0.4,1c-0.8,2.4-1.7,4.8-3.2,6.9c0-0.1-0.1-0.3-0.1-0.5
			c-1.6,1.4-2.9,3.1-4.7,4.3c-3.1,2.1-6.8,3-10.2,4.3c-4.2,1.5-7.9,3.7-11,7c-0.7,0.8-1.7,1.5-1.8,2.8c-1.3,0.9-2.1,2.2-2.8,3.6
			c-2.3,1.2-4.7,2.1-7.1,3c-0.5-0.6-0.7-1.3-0.7-2.1c0.2-0.4,0.4-0.7,0.5-1.1c1.8-5,4.8-8.9,9.8-11.1c3.4-1.5,7-1.8,10.5-2.6
			c3-0.7,5.9-1.7,8.3-3.7c0.4-0.3,0.5-0.4,0.4-0.8c1.1-0.8,1.7-1.9,2-3.2c0.9-1.7,0.8-3.4,0.2-5.1c-1.3-3.3-3.7-5.6-6.7-7.4
			c-3.7-2.3-7.3-4.8-9.7-8.5c-1.8-2.7-3.7-5.3-4.6-8.2c0.2-0.6,0.7-1.1,0.2-1.5c-0.4-0.5-1-0.5-1.6-0.4c-0.7,0.2-1.4,0.1-2-0.5
			c0.2-0.3,0.5-0.5,0.8-0.8c0.4,0.6,0.8,0.3,1.3,0.2c2.2-0.9,3.4-0.7,4.2,0.6c-0.4,0.3-0.4,0.6-0.2,1.1c0.5,1.2,1,2.4,1.4,3.6
			c-0.3,0.5-0.2,1-0.1,1.5c1.9,6.2,6.3,9.6,12.2,11.4c0.7,0.2,1.5,0.7,2.1-0.2c3.1,0.9,6.4,1,9.6,1c-0.8,3-0.1,5.8,0.3,8.7
			c0.8,0.2,1-0.1,1.1-0.5c0.4-1.3,0.5-2.7,0.4-4.1c-0.2-1.8-0.8-3.8,0.6-5.4C161.3,73.4,161.6,73.5,161.9,73.6L161.9,73.6z"/>
		<path class="st18" d="M149.3,91.2c0.1,0.4,0,0.5-0.4,0.8c-2.4,2-5.3,3-8.3,3.7c-3.5,0.8-7.1,1.2-10.5,2.6c-5,2.2-8,6.1-9.8,11.1
			c-0.1,0.4-0.3,0.7-0.5,1.1c-1.4-6.7,1.9-13,8.7-16.6c4.4-2.4,8.9-3,13.8-2.2c2.1,0.3,4.3,0.6,6.4-0.1c0.1,0,0.2-0.1,0.4-0.2
			C149.1,91.3,149.2,91.2,149.3,91.2L149.3,91.2L149.3,91.2z"/>
		<path class="st33" d="M193.3,27.4c-1.1,0.1-1.9,0.9-2.7,1.5c-2.4,1.7-4.8,3-7.7,1.2c-1.4-0.9-2.4-2.2-3.3-3.5
			c-2.8-3.8-6.8-4.4-10.6-1.2c-0.1,0.1-0.3,0.2-0.4,0.2c0.5-1.6,3.1-4.5,5.7-5.2c2.6-0.7,5.5-0.5,8,0.9c0.2,0.2,0.5,0.4,0.8,0.6
			c0.1,0.1,0.1,0.1,0.2,0.2c0.9,0.8,1.8,1.6,2.6,2.5c0.4,0.4,0.9,0.8,1.3,1.1c0.3,0.2,0.5,0.4,0.8,0.5c0.2,0.1,0.5,0.3,0.7,0.4
			C190.1,27.4,191.8,27.1,193.3,27.4L193.3,27.4z"/>
		<path class="st19" d="M127.1,56.3c0.6,0.6,1.3,0.6,2,0.5c0.6-0.1,1.2-0.1,1.6,0.4c0.4,0.5-0.1,0.9-0.2,1.6c0.9,3,2.9,5.6,4.6,8.2
			c2.5,3.7,6,6.2,9.7,8.5c2.9,1.8,5.4,4.2,6.7,7.4c0.6,1.7,0.7,3.4-0.2,5.1c0.4-3.4-1.8-5.3-4.4-6.7c-3.3-1.8-6.3-3.7-9-6.4
			c-2.8-2.8-4.4-6.2-6-9.7c-1-2.2-1.9-4.4-2.5-6.7c-1,0-2,0.4-2.6-0.5C126.5,57.4,126.7,56.8,127.1,56.3L127.1,56.3z"/>
		<path class="st33" d="M174.1,58.5c-0.3,0.3-0.6,0.7-1,1.1c-3-2.8-5-6.1-5.7-10.3c-0.3,0.2-0.5,0.4-0.7,0.5
			c-0.2-0.2-0.5-0.2-0.8-0.2c-2,0-3-1.1-3-3.1c0-0.4,0.1-0.9-0.2-1.2c1.5-1.1,3.2-1.5,5-1.7c0.4-0.1,0.8-0.2,1.1-0.3
			c1.9,0.2,3.7,0.8,5.5,1.5c0.2,0.1,0.4,0.2,0.6,0.4c0.9,0.6,2.1,1.1,2.7,2.2c-1.3-0.4-2.5-0.5-3.8-0.3c-2.5,0.5-3.8,2.2-3.6,4.8
			C170.6,54.7,171.7,57,174.1,58.5L174.1,58.5z"/>
		<path class="st34" d="M110.6,33.1c0.7,0.9,1.2,1.9,1.7,3c0.6,2.2,0.7,4.5-0.2,6.7c-0.1,0.1-0.7,1.5-0.7,1.7
			c-0.3,0.5,0.3,1.1-0.2,1.6c-0.6,0.2-0.8-0.3-1.1-0.6c-0.1-0.2-0.3-0.3-0.4-0.4c-0.3-0.6-0.6-1.2-0.9-1.8c-1.3-2.7-2.6-5.4-3-8.4
			c-0.3-2.4-1.3-4.7-2.8-6.6c0-0.1,0.1-0.1,0.2-0.2c0.3-0.2,0.7-0.3,1-0.2c0.2,0.1,0.4,0.2,0.6,0.4c0.2,0.2,0.5,0.4,0.8,0.6
			C108,30.6,109.6,32,110.6,33.1z"/>
		<path class="st34" d="M100.3,44.5c3.2-0.7,7.5,0.4,9.9,1.7c2.7,1.3,4.4,4.2,4.3,7.5c0,0.6-0.3,0.9-0.9,1c-2.9-1.6-6-3-8.6-5.1
			c-1.8-2.2-3.9-3.7-7-3.4C97.2,44.8,99.5,44.9,100.3,44.5L100.3,44.5z"/>
		<path class="st17" d="M127.9,55.4c-0.9-0.8-1.7-1.7-2.6-2.5c-1.7-1.6-3.8-2.4-6.1-2.6c-0.5-0.1-0.7-0.1-1.4-0.3
			c-0.7-0.2-1.1-0.6-0.2-1.1c-0.5-0.2-1.2,0-1.5-0.7c0-1.3,1-1.7,2-1.6c3.2,0.3,6.6,0.3,9.6,1.9c0.4,0.2,0.8,0.4,1.1,0.7
			c1.1,0.9,1.8,2.1,2.5,3.3c0.2,0.5,0.3,1.2,0.9,1.4C130.6,54,129.2,54.6,127.9,55.4z"/>
		<path class="st8" d="M120.6,112.5c2.4-0.9,4.8-1.8,7.2-3c0.9-0.3,1.8-0.6,2.6-1c5.3-2.3,10.7-4.7,16-7c0.1,0.7-0.3,1-0.8,1.3
			c-4.4,3-9.3,4.9-14.2,6.9c-7.3,3-14.6,6-22,8.7c-1.8,0.6-3.6,1.3-5.5,1.6c3.9-1.8,7.9-3.5,11.8-5.2
			C117.3,114,118.9,113.3,120.6,112.5L120.6,112.5z"/>
		<path class="st12" d="M97,64.9c-0.2-0.1-0.3-0.3-0.5-0.4c-2.8,2-5.4,1.2-6.4-1.8c0-0.2,0.1-0.3,0.1-0.6c0.8,1,1.6,1.8,2.6,2.3
			c2.1,1.2,3.4-0.3,4.8-1.4c0.6-0.6,1.1-1.1,1.7-1.7c0.3,0.3,0.5,0.5,0.8,0.8c-0.5,0.7-0.9,1.3-1.4,2c0.3,1.4,1.5,1.9,2.5,2.4
			c1.6,0.9,2.3,0.6,3.2-1c0.5,0.3,1,0.6,1.5,1c-0.5,0.7-1.1,1.4-1.4,2.2c-0.8,1.5-1.2,3.1-0.5,4.7c1,2.4,4.1,3.4,5.7,1.8
			c-0.4-0.3-0.9-0.7-1.3-1c-1.9-1.4-1.9-3.1,0-4.6c0.6-0.5,1.2-1.1,2.1-0.5c0.9,0.6,1.8,1.2,2.7,1.9c-0.7,0.8-1.1,0-1.5-0.3
			c-1.6-1.2-2.9-0.7-3.4,1.2c-0.2,0.6,0,1.1,0.5,1.5c0.6,0.5,1.2,1,1.8,1.5c-0.4,1.4-2.3,2.2-4,1.9c-2.3-0.5-3.4-2.9-2.9-6.7
			C101.4,68.3,99.2,66.6,97,64.9L97,64.9z"/>
		<path class="st4" d="M113.2,70.9c-0.9-0.6-1.8-1.3-2.7-1.9c-0.8-0.6-1.5,0.1-2.1,0.5c-1.9,1.5-1.9,3.2,0,4.6
			c0.4,0.3,0.9,0.7,1.3,1c-1.6,1.6-4.8,0.5-5.7-1.8c-0.7-1.7-0.3-3.2,0.5-4.7c0.7,0,0.9-0.7,1.4-1.1c2.5-2.3,6.1-1.6,7.1,1.5
			c0.2,0.5,0.3,0.9,0.3,1.5C113.3,70.7,113.3,70.8,113.2,70.9L113.2,70.9z"/>
		<path class="st35" d="M111.9,109.8c-0.2,0.1-0.5,0.1-0.7,0.2c-0.5,0.1-1.1,0.2-1.6,0.2c-0.4,0.7,0,1.2,0.1,1.8l-1.1-0.2
			c0,0,0-0.1,0-0.2c-0.1-0.3-0.3-0.6-0.4-0.9c0.2-0.3,0.3-0.7,0.5-0.9c-0.2-0.3-0.4-0.4-0.7-0.5c-0.1-0.1-0.1-0.2-0.1-0.3
			c-0.7-2-1.3-4,0.5-5.8c0.1-0.1,0-0.2,0-0.4c0.3-0.4,0.9-0.3,0.9-1c0.2,0.1,0.3,0.1,0.5,0.2c0.2,0,0.5,0,0.7-0.1
			c0-0.9,0.6-1.3,1.2-1.8c0.7,0.2,1.2,0.5,1.7,0.9c-0.4,0.1-0.3,0.6-0.7,0.9c-0.4,0.2-0.9,0-1.2,0.5c0.5,0.1,0.7,1,1.4,0.5
			c0.1,0.2,0.1,0.4,0.2,0.6c0.1,0.3,0.3,0.6,0.7,0.5c0.9-0.2,1.6,0.4,2.2,1c0.2,0.6,0.4,1.3,0,1.9c0-0.3,0-0.5-0.1-0.8h-1.3
			c-0.5-0.1-0.4-0.6-0.9-0.6c0.1,0.5,0.2,1,0.3,1.5c-0.1,0.1-0.2,0.3-0.2,0.4c-0.4,0.5,0,0.9,0.4,1.1c0.5,0.4,0.8,0.9,0.8,1.5
			c-0.1,0.1-0.1,0.2-0.2,0.2c-0.1,0.1-0.2,0.2-0.2,0.3c-0.5-0.4-1.1,0.1-1.6-0.4c-0.1-0.4-0.1-0.8-0.2-1.2
			C112.3,109.2,112.1,109.5,111.9,109.8L111.9,109.8z M110.6,108.1c0.4,0.4,0.7,0,1-0.2c1.1-1.1,0.4-3.3-1-3.6
			c-0.6-0.2-1.3-0.2-1.5,0.7c-1,0.7-1,1.6-0.5,2.5C109,108.1,109.7,108.5,110.6,108.1L110.6,108.1z"/>
		<path class="st28" d="M119.2,83.1c0.1-0.1,0.2-0.1,0.3-0.2c0.2,1.1,0.6,2.1,1.5,2.8c0,0.1,0-0.1,0,0c-0.7,0.8-1.4,1.9-2.1,2.7
			c-2.4,2.6-4.8,5.3-8.6,6c-0.4,0.1-0.7,0.2-0.6,0.7c-0.3-0.7,0-1.3,0.4-1.9c0.2-0.2,0.4-0.4,0.6-0.6c2.4-2.8,4.5-5.8,7.2-8.3
			C118.5,84,119.1,83.8,119.2,83.1z"/>
		<path d="M174.5,44.9c-1.8-0.7-3.6-1.3-5.5-1.5c-0.1-0.1-0.1-0.1-0.2-0.2c-2.7-3.6-2.8-7.7-2.1-11.8c0.1-0.9,0.4-1.7,0.7-2.6
			c0.4,1.6,0.4,3.2,0.9,4.8c1.3,4.2,3.5,7.9,6.4,11.1C174.6,44.8,174.5,44.8,174.5,44.9z"/>
		<path class="st36" d="M103.5,53.7c-0.3-0.3-0.7-0.5-1-0.8c-0.5-0.6-1.1-1.2-1.6-1.7c-0.2-0.2-0.4-0.5-0.6-0.7
			c-0.2-0.4-0.5-0.8-0.7-1.1c-0.1-0.2-0.2-0.4-0.3-0.6c-0.1-0.1-0.3-0.7-0.4-0.9c2.3-0.4,4.3,0,6,1.7c1.6,1.7,2.8,3.6,3,6
			C106.2,55.3,104.9,54.5,103.5,53.7L103.5,53.7z"/>
		<path d="M162.8,45.4c0.3,0.4,0.2,0.8,0.2,1.2c0,2,1,3,3,3.1c0.3,0,0.6,0,0.8,0.2c-1.3,1.3-2.8,2.1-4.5,2.8
			c-0.3,0.1-0.6,0.3-0.9,0.4c-0.9-0.1-1.9-0.2-2.8-0.4C158.8,49.7,160.3,47.2,162.8,45.4L162.8,45.4z"/>
		<path class="st29" d="M100.8,111.4c0.1-0.3,0.2-0.6,0.4-0.9c0.2,0,0.4,0,0.6,0c0.4-0.2,0.9-0.4,1.3-0.6c2.2-0.2,3.1,1.2,3.4,3.2
			c0.5-0.3,0.3-0.7,0.4-0.9c1,0,1,0.9,1.2,1.5c0.1-0.1,0.2-0.2,0.3-0.2c0,0.4-0.1,0.7-0.5,0.9c-0.3-0.1-0.7-0.2-1.2-0.3
			c-0.3,0.1-0.4,0.4-0.6,0.7c-0.5,0.1-0.8,0.5-1.1,0.9c0.7,0.2,0.6,0.9,0.9,1.3c-0.1,0.1-0.2,0.1-0.4,0.2c-0.8,0.1-1-0.8-1.7-1
			c-0.3,0-0.6,0-0.9,0.1c-0.3-0.5-0.7-0.7-1.4-0.5c0.5,0.6,0.1,1.2,0,1.8h-0.1l-0.1,0c0.2-0.9-0.9-1.5-0.8-2.4c0.2-0.4,0-0.7-0.4-1
			c0.2-0.3,0.3-0.7,0-1.1c-0.5,0.2-0.9,0-1.3-0.6v1.3c-0.3-0.7-0.2-1.4,0-2.1c0.4-0.2,0.9-0.2,1.3,0c0,0.2,0,0.4,0.1,0.8
			c0.2-0.5,0.2-0.7,0.3-0.8C100.7,111.7,100.8,111.5,100.8,111.4L100.8,111.4z M102.7,114c0.1,0,0.2,0,0.2,0c0,0,0.1,0,0.2,0.1
			c-0.1,0.2-0.5,0-0.5,0.4c1.5,0.5,2.2,0,2.6-1.7c-0.3-0.6-0.4-1.4-1.5-1.1c-0.9-0.3-1.6,0-1.8,0.9
			C101.7,113.2,101.7,113.9,102.7,114L102.7,114z"/>
		<path class="st35" d="M149.6,36.1c-0.8,0.2-1.3-0.3-1.9-0.7c-2.1-1.6-4.2-3.2-6.2-4.9c-0.4-0.3-1-0.8-0.2-1.3c1.2-0.4,2.1,0,3,0.7
			c1.6,1.3,3.4,2.5,5.1,3.7v0C149.9,34.4,149.9,35.2,149.6,36.1L149.6,36.1z"/>
		<path class="st18" d="M148.9,73.7c-0.6,0.8-1.5,0.4-2.1,0.2c-5.9-1.8-10.4-5.2-12.2-11.4c-0.2-0.5-0.3-1,0.1-1.5
			c1.8,3.4,3.7,6.6,6.8,9.1C143.6,71.8,146.3,72.8,148.9,73.7L148.9,73.7z"/>
		<path class="st35" d="M135.1,38.3c0.4-0.2,0.8-0.1,1.1,0.1c2.3,1.7,4.6,3.3,6.9,5c0.1,0.2,0.2,0.4,0.2,0.7
			c-0.7,0.5-1.8,0.8-2.5,0.6c-1.9-1.4-3.9-2.7-5.6-4.3L135.1,38.3L135.1,38.3z"/>
		<path class="st37" d="M109.8,95.1c0-0.4,0.3-0.6,0.6-0.7c3.8-0.8,6.1-3.4,8.6-6c0.7-0.8,1.4-1.8,2.1-2.7c0.4,0.3,0.9,0.7,1.3,1
			c-0.6,1.4-1.8,2.3-2.9,3.3c-2.4,2.2-4.8,4.4-7.8,5.6C111,95.8,110.3,96,109.8,95.1L109.8,95.1z"/>
		<path class="st4" d="M132.6,29.1c0.1-0.1,0.1-0.1,0.2-0.2c0.1-0.1,0.1-0.1,0.2-0.2c1.4-1.5,2.2-1.9,2.2-1.9
			c2.1,1.1,4.2,0.5,6.2-0.4c0.3-0.1,0.6-0.3,0.6-0.8c0.1,0,0.1,0,0.2,0c0.1,0.5,0.5,0.5,0.9,0.5c-0.4,0.4-0.7,0.9-1.1,1.3
			c-1.1,0-2.1,0-3.2,0c-3.3,0.1-5.8,2.8-5.9,6.1c-0.1,1.8,0.4,3.4,0.8,5.1c0,0.4,0,0.8,0,1.2c-0.1,0.2-0.2,0.5-0.4,0.7
			c-0.3-0.5-0.6-1-1-1.5c0.7-0.8,0.8-1.7,0.3-2.6c-0.9-2-1.2-3.9-0.5-6c0.1-0.5,0.1-0.8,0.2-1.1C132.5,29.4,132.5,29.3,132.6,29.1
			L132.6,29.1z"/>
		<path class="st23" d="M132.2,53.9c-0.6-0.2-0.7-0.9-0.9-1.4c-0.6-1.2-1.4-2.4-2.5-3.3c0.6-0.6,0.3-1.3,0.4-2
			c0.1-1.6,1.2-2.7,2.6-2.4c0.3,0.2,0.3,0.6,0.2,0.9c-0.6,1.7-0.3,3.1,0.5,4.6c0.6,1.1,0.4,2.4,0.4,3.7
			C132.7,54,132.5,53.9,132.2,53.9L132.2,53.9z"/>
		<path class="st38" d="M107.8,55.5c-0.2-2.4-1.4-4.3-3-6c0.1,0,0.1,0,0.2,0c2.7,2,5.7,3.4,8.6,5.1C111.8,55.6,109.8,56,107.8,55.5z
			"/>
		<path class="st18" d="M160.9,73.4c-1.4,1.7-0.8,3.6-0.6,5.4c0.1,1.4,0,2.7-0.4,4.1c-0.1,0.4-0.3,0.7-1.1,0.5
			c-0.4-2.8-1.1-5.7-0.3-8.7C159.2,74.1,159.8,73.1,160.9,73.4L160.9,73.4z"/>
		<path class="st4" d="M141.2,28.7c0.1-0.1,0.1-0.3,0.2-0.4c0.2-0.2,0.4-0.4,0.6-0.6c1.9-1.1,3.3-0.1,4.8,1.1c1.1,0.9,1.9,2,3.3,2.5
			c0.1,0.3,0.2,0.6,0.4,1c-0.3,0.5-0.5,1-1.1,1.2v0c-0.3-0.8-1.1-1.2-1.8-1.6C145.5,30.9,144.3,27.9,141.2,28.7L141.2,28.7z"/>
		<path class="st12" d="M142,27.8c-0.2,0.2-0.4,0.4-0.6,0.6c-2.4-0.8-5.3,0.5-6.6,3c-1,1.9-1.2,3.9-0.7,6c0.1,0.4,0.1,1.2,0.9,1
			c0,0.7,0,1.4,0,2c-0.6-0.2-0.2-1.1-0.4-1.4c-0.2,0.2-0.4,0.6-0.6,0.7c-0.1-0.3-0.2-0.6-0.3-0.8c-0.4-1.7-0.8-3.4-0.8-5.1
			c0.1-3.2,2.6-5.9,5.9-6.1c1.1,0,2.1,0,3.2,0C142,27.7,142,27.8,142,27.8L142,27.8z"/>
		<path class="st23" d="M162.2,69.4c1.6-0.2,3-0.9,4.5-1.4c0.1,2.6-2.1,4.7-4.8,4.8C162,71.7,162.1,70.6,162.2,69.4z"/>
		<path class="st4" d="M104.4,65.5c-0.9,1.7-1.6,1.9-3.2,1c-1-0.6-2.2-1-2.5-2.4c0.4-0.7,0.9-1.3,1.4-2c0.3,0.2,0.6,0.5,0.9,0.7
			c-0.3,1.1,1.5,2.4,2.8,2.1C104,65.1,104.2,65.3,104.4,65.5z"/>
		<path class="st2" d="M127.4,77.7c0.8-1.2,1.9-2.2,1.1-3.9c1.6,0.4,3,3.6,2.3,5c-0.2,0.1-0.5,0.3-0.8,0.4c-0.7,0-1.4,0-2.1-0.4
			C127.8,78.5,127.5,78.2,127.4,77.7L127.4,77.7z"/>
		<path class="st39" d="M127.4,77.7c0,0.5,0.4,0.8,0.6,1.1c-0.8,0.7-1.8,0.9-2.7,1.2c-1.7,0.5-3.2,1.3-3.5,3.3
			c-0.1-0.5-0.3-0.9-0.4-1.3c0.2-1.7,1.3-2.7,2.7-3.3C125.2,78.2,126.3,77.8,127.4,77.7z"/>
		<path class="st12" d="M140.7,44.7c0.8,0.2,1.8-0.1,2.5-0.6c0-0.3-0.1-0.5-0.2-0.7c0.8,1.5-0.4,2.4-1,3.4c-0.6,1-1.4,0.8-2.2,0.3
			c-0.5,0.2-0.9,0.4-1.4,0.6c-1.1-1.7-2.7-2.8-4.6-3.3c0-0.4-0.1-0.8,0.1-1.1c1.4,1,2.9,2,4.3,3c0.5,0.2,1.1,0.4,1.6,0.6
			C140.8,46.3,141.5,45.8,140.7,44.7L140.7,44.7z"/>
		<path class="st7" d="M99.3,61.3c-0.6,0.6-1.1,1.1-1.7,1.7c-0.6-0.3,0-0.6,0.1-0.8c1.1-1.6,1.5-3.3,0.5-5.1c-0.8-1.5-2.4-1.6-3.8-2
			c2.1-0.7,3.9-0.1,5.2,2.1c0.1,0.6,0.2,1.2,0.4,1.8C99.8,59.8,99.5,60.6,99.3,61.3L99.3,61.3z"/>
		<path class="st18" d="M132.2,53.9c0.2,0,0.5,0.1,0.7,0.1c0.5,0.1,1,0.3,1.1,1c0.1,0.6-0.2,1.1-0.7,1.4c-0.8-1.3-2-1.5-4.2-0.7
			c-0.5,0.2-0.9,0.5-1.3-0.2c0,0,0-0.1,0-0.1C129.2,54.6,130.6,54,132.2,53.9L132.2,53.9z"/>
		<path class="st40" d="M130.1,79.2c0.2-0.1,0.5-0.3,0.8-0.4c0.2,1.3-0.5,2.3-1.2,3.2c-1.6,1.9-3.5,3-6.1,2.9
			c-0.2-0.1-0.4-0.2-0.6-0.4C126.3,84.4,129.6,82,130.1,79.2L130.1,79.2z"/>
		<path class="st41" d="M158.5,52.7c0.9,0.1,1.9,0.2,2.8,0.4c-0.7,1.3-1.6,2.5-2.1,4C158.4,55.7,158.4,54.2,158.5,52.7L158.5,52.7z"
			/>
		<path class="st7" d="M138.2,46.2c-1.4-1-2.9-2-4.3-3c-0.4-0.4-0.9-0.6-1.1-1.1c-0.1-0.6,0.4-0.9,0.5-1.4c0.1-0.2,0.2-0.5,0.4-0.7
			c0.1,0.1,0.3,0.3,0.3,0.4c-0.2,1.2,0.5,2.1,1.3,2.8c1.1,1,2.2,1.9,3.4,2.9C139.1,46.3,138.6,46.3,138.2,46.2z"/>
		<path class="st42" d="M119.2,83.1c-0.1,0.7-0.8,0.9-1.2,1.2c-2.8,2.4-4.8,5.5-7.2,8.3c-0.2,0.2-0.4,0.4-0.6,0.6
			c1.9-3.6,4.5-6.6,7.7-9.1C118.3,83.7,118.8,83.4,119.2,83.1L119.2,83.1z"/>
		<path class="st7" d="M146.9,28.2c0.6,0.6,1.3,1.1,1.9,1.7c0.5,0.5,1.1,0.8,1.3,1.5c-1.4-0.5-2.2-1.6-3.3-2.5
			c-1.4-1.2-2.8-2.1-4.8-1.1c0-0.1,0-0.1,0-0.2c0.4-0.4,0.7-0.9,1.1-1.3c0.6-0.4,1.2-0.1,1.7,0.2c0.6,0.5,1.1,0.9,1.7,1.4
			C146.6,28,146.7,28.1,146.9,28.2L146.9,28.2z"/>
		<path class="st43" d="M121.5,81.9c0.1,0.5,0.3,0.9,0.4,1.3c0.1,0.2,0.2,0.5,0.4,0.8c-0.4,0.6-0.8,1.1-1.1,1.7
			c-0.9-0.7-1.3-1.7-1.5-2.8C120.1,82.5,120.7,82.1,121.5,81.9L121.5,81.9z"/>
		<path class="st4" d="M133.7,44.3c2,0.5,3.5,1.6,4.6,3.3c-0.5,0-1,0-1.5,0c-0.6-1.1-1.4-1.9-2.7-2
			C134.1,45.2,133.9,44.8,133.7,44.3L133.7,44.3z"/>
		<path class="st44" d="M121.1,85.7c0.4-0.6,0.8-1.1,1.1-1.7c0.2,0.1,0.5,0.3,0.8,0.4c0.2,0.1,0.4,0.2,0.6,0.4
			c-0.4,0.6-0.8,1.3-1.2,1.9C122,86.4,121.6,86,121.1,85.7C121.1,85.7,121.1,85.8,121.1,85.7z"/>
		<path class="st12" d="M141.2,28.8c3.1-0.8,4.2,2.2,6.3,3.3c0.7,0.4,1.5,0.7,1.8,1.6c-1.7-1.2-3.4-2.4-5.1-3.7
			c-0.9-0.7-1.8-1.2-3-0.7C141.1,29,141,28.9,141.2,28.8L141.2,28.8z"/>
		<path class="st7" d="M148.9,27.1c-0.4,0.9-1,0.6-1.6,0.3c-0.6-0.3-1-0.8-1.3-1.4c0-0.2,0-0.4,0.1-0.5
			C147.4,25.5,148.1,26.4,148.9,27.1L148.9,27.1z"/>
		<path class="st29" d="M103.1,109.9c-0.4,0.2-0.9,0.4-1.3,0.6c0-0.1,0-0.1,0-0.2c0.1-0.1,0.1-0.1,0.2-0.2c0.4-0.6,0-1.1,0-1.7
			c0.4-0.4,1-0.4,1.4-0.4c0.5,0.4,0.4,0.9,0.5,1.4C103.7,109.7,103,109.3,103.1,109.9L103.1,109.9z"/>
		<path class="st27" d="M103.1,109.9c-0.1-0.6,0.7-0.2,0.8-0.6c0.4,0.1,0.7,0.1,1.1,0.2c0.1,0.1,0.3,0.2,0.4,0.2
			c0.3,0.4,0.6,0.7,1,1.1c0.1,0.1,0.1,0.1,0.2,0.2c0.1,0,0.1,0,0.2,0c0.1,0.2,0.1,0.5,0.2,0.7c0,0.1,0,0.1,0,0.2c0,0.1,0,0.1,0,0.2
			c-0.1,0.3,0.1,0.6-0.4,1C106.2,111.2,105.3,109.8,103.1,109.9L103.1,109.9z"/>
		<path class="st45" d="M111.9,109.8c0.2-0.3,0.4-0.6,0.9-0.7c0.1,0.4,0.1,0.8,0.2,1.2c0.5,0.5,1.1,0,1.6,0.4
			c-0.4,0.5-1,0.8-1.7,0.9C112.2,111.1,112.1,110.4,111.9,109.8z"/>
		<path class="st29" d="M108.3,102.8c0,0.1,0,0.3,0,0.4c-1.8,1.8-1.2,3.8-0.5,5.8c-0.3-0.3-0.6-0.6-0.9-0.9c-0.1-0.5-0.2-1-0.2-1.5
			c0-0.1,0-0.1,0-0.2c0-0.4,0-0.8,0-1.1c0-0.1,0-0.1,0-0.2c0-0.1,0-0.1,0-0.2c0.1-0.3,0.2-0.6,0.4-0.9c0-0.1,0-0.1,0-0.2
			c0.4-0.3,0.8-0.6,1.1-0.9C108.2,102.8,108.3,102.8,108.3,102.8L108.3,102.8z"/>
		<path class="st35" d="M108.2,102.8c-0.4,0.3-0.8,0.6-1.1,0.9c-0.6-1.2,0.3-2,0.8-3c0.1-0.1,0.2-0.1,0.4-0.2
			c0.1,0.5,0.2,0.9,0.3,1.3C108.3,102.2,108.3,102.5,108.2,102.8z"/>
		<path class="st29" d="M109.7,112c-0.1-0.6-0.5-1.2-0.1-1.8c0.5-0.1,1-0.2,1.6-0.2c-0.8,0.5,0.1,1.3-0.3,2
			C110.6,112.1,110.1,112.2,109.7,112z"/>
		<path class="st45" d="M114,107.1c-0.1-0.5-0.2-1-0.3-1.5c0.5-0.1,0.5,0.4,0.9,0.6h1.3c0,0.3,0,0.5,0.1,0.8
			C115.4,107.6,114.7,107,114,107.1L114,107.1z"/>
		<path class="st29" d="M116,105c-0.6-0.6-1.2-1.1-2.2-1c-0.3,0.1-0.6-0.2-0.7-0.5c0.5-0.2,1.1-0.5,1.6-0.7
			C115.6,103.4,115.8,104.2,116,105z"/>
		<path class="st35" d="M101.9,108.4c0,0.6,0.4,1.1,0,1.7c-0.1,0.1-0.1,0.1-0.2,0.2c0,0.1,0,0.1,0,0.2c-0.2,0-0.4,0-0.6,0
			c-0.3-0.2-0.6-0.4-0.9-0.6C100.8,109,101.3,108.7,101.9,108.4L101.9,108.4z"/>
		<path class="st35" d="M105.9,117c-0.3-0.5-0.2-1.1-0.9-1.3c0.3-0.5,0.6-0.8,1.1-0.9c0.3,0.3,0.6,0.7,0.9,1
			C106.9,116.5,106.4,116.7,105.9,117L105.9,117z"/>
		<path class="st29" d="M107.8,100.8c-0.4,0.9-1.4,1.8-0.8,3c0,0.1,0,0.1,0,0.2c-0.4-0.3-0.9-0.6-1.4-0.9
			C106.1,101.9,106.8,101.3,107.8,100.8L107.8,100.8z"/>
		<path class="st35" d="M101.6,117.6c0-0.6,0.4-1.1,0-1.8c0.7-0.2,1.1,0,1.4,0.5c-0.1,0.5-0.1,1-0.4,1.4
			C102.2,117.9,101.9,117.7,101.6,117.6L101.6,117.6z"/>
		<path class="st45" d="M113,103c-0.8,0.5-0.9-0.4-1.4-0.5c0.3-0.6,0.8-0.3,1.2-0.5c0.3-0.2,0.2-0.7,0.7-0.9
			C114.3,101.9,113.3,102.4,113,103z"/>
		<path class="st7" d="M103.8,65c-1.3,0.3-3.1-1.1-2.8-2.1C102,63.5,102.9,64.2,103.8,65z"/>
		<path class="st7" d="M134.2,45.7c1.3,0.2,2.1,1,2.7,2C135.6,47.5,134.8,46.8,134.2,45.7z"/>
		<path class="st29" d="M114.9,110.1c0-0.6-0.3-1.1-0.8-1.5c-0.4-0.3-0.7-0.6-0.4-1.1c0.6,0.4,1.1,0.8,1.7,1.1
			C115.5,109.2,115.3,109.7,114.9,110.1z"/>
		<path class="st29" d="M105.3,109c-0.9-1-0.9-2.3-0.8-3.5l0.1,0c0.1,1,0.3,1.9,0.8,2.7c0.4,0.1,0.8,0.1,1.1,0.2
			c-0.1,0.2-0.1,0.3-0.2,0.5C105.9,108.5,105.6,108.8,105.3,109L105.3,109z"/>
		<path class="st35" d="M98.9,113.9v-1.3c0.4,0.6,0.8,0.8,1.3,0.6c0.3,0.4,0.2,0.8,0,1.1C99.8,114.3,99.2,114.8,98.9,113.9
			L98.9,113.9z"/>
		<path class="st29" d="M111.7,100.1c-0.6,0.5-1.1,0.9-1.2,1.8c-0.2,0-0.5,0-0.7,0.1c0.5-0.6,0.2-1.3,0.6-1.9
			C110.9,99.9,111.3,99.9,111.7,100.1L111.7,100.1z"/>
		<path class="st27" d="M100.7,115.2c-0.2,0.9,0.9,1.5,0.8,2.4c-0.7-0.3-1.2-0.7-1.5-1.4C100.1,115.8,100.3,115.4,100.7,115.2z"/>
		<path class="st35" d="M106.8,112.1c0-0.1,0-0.1,0-0.2c0.1-0.1,0.1-0.1,0.2-0.2c0.2-0.2,0.7,0,0.7-0.5c0.1,0.1,0.2,0.1,0.2,0.1
			c0.1,0.1,0.1,0.1,0.2,0.2h0.4c0,0,0,0.1,0,0.1c-0.3,0.5,0,1.2-0.2,1.7c-0.1,0.1-0.1,0.1-0.3,0.2
			C107.8,113,107.8,112.2,106.8,112.1L106.8,112.1z"/>
		<path class="st45" d="M108.2,102.8c0.1-0.3,0.2-0.6,0.3-0.9c-0.1-0.4-0.2-0.9-0.3-1.3c1-0.2,0.9,0.7,1.1,1.2c0,0.6-0.7,0.6-1,1
			C108.3,102.8,108.2,102.8,108.2,102.8L108.2,102.8z"/>
		<path class="st35" d="M105.3,109c0.3-0.2,0.6-0.5,1-0.2c0.1,0.1,0.1,0.1,0.2,0.2c0,0.1,0,0.1,0,0.2c-0.4,0.2-0.8,0.4-1.1,0.6
			c-0.1-0.1-0.3-0.2-0.4-0.2C105.1,109.3,105.2,109.1,105.3,109z"/>
		<path class="st27" d="M100.3,111.8c-0.4-0.2-0.9-0.2-1.3,0c0-0.3,0.1-0.5,0.3-0.7c0.6-0.2,1,0.4,1.5,0.3c-0.1,0.1-0.1,0.3-0.2,0.4
			C100.5,111.8,100.4,111.8,100.3,111.8L100.3,111.8z"/>
		<path class="st27" d="M103.9,116.3c0.7,0.2,0.9,1,1.7,1c-0.3,0.1-0.7,0.2-0.9,0.3C104.1,117.2,104.1,116.7,103.9,116.3z"/>
		<path class="st7" d="M112.8,67.2c-1.5-2.4-4.2-2.7-6.9-0.7c-0.5,0.7-1.1,1.4-1.4,2.2c0.7,0,0.9-0.7,1.4-1.1
			c2.5-2.3,6.1-1.6,7.1,1.5c0.2,0.5,0.3,1,0.3,1.5C113.7,69.1,113.1,67.6,112.8,67.2L112.8,67.2z"/>
		<path class="st7" d="M132.7,36.7c-0.9-2-1.2-3.9-0.5-6c0.2-0.7,0.1-0.8,0.2-1.1c0,0,0.2-0.3,0.2-0.4c-0.1,0.1-0.6,1-0.6,1.1
			c-1.6,3.1-1.2,6.1,0.4,9C133.1,38.5,133.2,37.5,132.7,36.7z"/>
		<path class="st12" d="M151.6,32.5c-0.1-0.3-0.3-0.6-0.5-0.9c0.8-1.2,0.8-2.4-0.7-3.2c0.1,1.3-0.9,1.2-1.7,1.5
			c0.5,0.5,1.1,0.8,1.3,1.5c0.1,0.3,0.2,0.6,0.4,1c-0.3,0.5-0.5,1-1.1,1.2c0.6,0.8,0.6,1.6,0.2,2.5c1-0.6,1.5-1.6,2-2.6
			C151.8,33.1,151.8,32.8,151.6,32.5L151.6,32.5z"/>
		<path class="st33" d="M168.8,43.2c0.1,0.1,0.1,0.1,0.2,0.2C168.9,43.4,168.9,43.3,168.8,43.2z"/>
		<path class="st46" d="M114.8,110.3c0.1-0.1,0.1-0.2,0.1-0.2C114.9,110.2,114.8,110.3,114.8,110.3z"/>
		<path class="st34" d="M109.7,46c-0.1-0.1-0.2-0.1-0.2-0.2L109.7,46z"/>
		<path class="st30" d="M149.3,91.2c-0.1,0-0.1,0.1-0.2,0.1C149.2,91.3,149.2,91.2,149.3,91.2z"/>
		<path class="st19" d="M155.2,108.6c0.4,1,0,1.9-0.3,2.7c-1.9,5.4-4.4,10.5-7,15.6c-0.9,1.9-1.8,3.8-2.7,5.7
			c-1.5-0.3-2.9-0.8-4.3-1.3c-0.1-0.4-0.1-0.8-0.3-1.2c-2.2-4.3-5.2-7.6-9.9-9.2c-2.1-0.7-4.3-1.5-6.6-1.5c-0.4-0.5-0.7-1-1.1-1.5
			c3.5-1.5,7.1-2.6,10.7-3.9c6.4-2.4,12.9-4.5,19.6-5.8C153.9,108.2,154.6,108,155.2,108.6z"/>
		<path class="st5" d="M155.2,108.6c-0.6-0.6-1.3-0.4-1.9-0.2c-6.7,1.3-13.2,3.4-19.6,5.8c-3.5,1.3-7.2,2.3-10.7,3.9
			c-8,2.8-15.9,6.1-23.8,9.3c-0.3,0.1-0.7,0.2-1,0.3c-0.6-0.6-0.9-1.4-1.3-2.2c0-0.1,0-0.2,0-0.4c5.4-2.2,10.8-4.6,16.3-6.7
			c10.4-4,20.8-8,31.7-10.8c2.5-0.6,5-1,7.5-1.2c0.6-0.1,1.2,0.1,1.9,0.2C154.6,107.2,155.5,107.6,155.2,108.6L155.2,108.6z"/>
		<path class="st16" d="M124.1,119.5c2.3,0,4.5,0.8,6.6,1.5c4.7,1.6,7.7,4.9,9.9,9.2c0.2,0.4,0.2,0.8,0.3,1.2
			C134.3,128.8,128.6,124.9,124.1,119.5L124.1,119.5z"/>
		<path class="st12" d="M113.4,132.2c0.1-0.5,0.1-0.9,0.2-1.3c0.2,0,0.4,0.1,0.4,0.4c0,0.1-0.1,0.1-0.1,0.2
			c-0.1,0.1-0.1,0.3-0.2,0.4C113.7,132,113.5,132.1,113.4,132.2L113.4,132.2z"/>
		<path class="st29" d="M123.2,138.2c-0.2,0.2-0.3,0.5-0.7,0.4c-0.1-0.3,0.1-0.4,0.3-0.6C122.9,138.1,123.1,138.1,123.2,138.2
			L123.2,138.2z"/>
		<path class="st29" d="M127.1,141.2c0.2,0.6-0.4,0.3-0.5,0.4c-0.1,0-0.1,0-0.2-0.1c0-0.1,0-0.1,0-0.2c0.1,0,0.1-0.1,0.2-0.1
			C126.7,141.2,126.9,141.2,127.1,141.2L127.1,141.2z"/>
		<path class="st29" d="M114.6,146.1c0-0.2,0-0.4-0.1-0.6c0.4,0.1,0.4,0.4,0.5,0.6C114.8,146.2,114.7,146.2,114.6,146.1z"/>
		<path class="st29" d="M121.6,136.9c-0.1,0.2-0.2,0.4-0.6,0.3c-0.1-0.3,0.1-0.4,0.3-0.6C121.4,136.8,121.5,136.8,121.6,136.9
			L121.6,136.9z"/>
		<path class="st29" d="M119,144.3c0,0.1,0,0.1,0,0.2c0,0.1,0,0.1,0,0.2c-0.1,0.1-0.2,0.1-0.4,0.2h0c0-0.1,0-0.1,0-0.2l0-0.6
			c0.1,0,0.1,0,0.2,0v0C118.9,144.1,119,144.2,119,144.3L119,144.3z"/>
		<path class="st29" d="M119.7,143.6c0.1,0.2,0.2,0.4,0.4,0.6c-0.1,0.1-0.2,0.1-0.4,0.2c0-0.1,0-0.1-0.1-0.2
			C119.6,144,119.6,143.8,119.7,143.6z"/>
		<path class="st29" d="M121.5,143.7c0-0.2-0.1-0.3-0.1-0.5c0.4,0,0.4,0.3,0.5,0.5C121.8,143.6,121.7,143.6,121.5,143.7L121.5,143.7
			z"/>
		<path class="st29" d="M122.3,142.7c0.4-0.1,0.5,0.2,0.6,0.5c-0.1,0.2-0.3,0.1-0.4,0C122.4,143.1,122.3,142.9,122.3,142.7
			L122.3,142.7z"/>
		<path class="st29" d="M125.8,140.4c-0.2,0.1-0.3,0.3-0.6,0.1c0.1-0.2,0.2-0.3,0.4-0.5C125.7,140.2,125.8,140.3,125.8,140.4
			L125.8,140.4z"/>
		<path class="st29" d="M124.2,142.3c0-0.1,0-0.1,0-0.2c0.1,0,0.2,0,0.3,0c0.1,0.1,0.2,0.2,0.2,0.4c-0.1,0.1-0.3,0.1-0.4,0.2
			c0-0.1,0-0.1,0-0.2C124.3,142.5,124.2,142.4,124.2,142.3z"/>
		<path class="st29" d="M126,141.2c0.1-0.2,0.2-0.4,0.3-0.6c0.1,0.1,0.2,0.1,0.3,0.2c-0.1,0.1-0.2,0.2-0.2,0.4
			C126.3,141.2,126.1,141.2,126,141.2L126,141.2z"/>
		<path class="st29" d="M124,138.8c-0.1,0.1-0.2,0.2-0.3,0.3c-0.1-0.1-0.2-0.1-0.4-0.2c0.1-0.1,0.1-0.1,0.2-0.2
			c0.1-0.1,0.1-0.1,0.2-0.2l0,0C123.8,138.6,123.9,138.7,124,138.8L124,138.8z"/>
		<path class="st29" d="M117,145c0,0.1,0,0.1,0,0.2c0,0.1,0,0.1,0,0.2c-0.1,0.2-0.3,0.1-0.4,0c0-0.2,0-0.4,0-0.6c0.1,0,0.1,0,0.2,0
			C116.9,144.8,116.9,144.9,117,145L117,145z"/>
		<path class="st29" d="M120.7,136.3c-0.2,0.1-0.3,0.3-0.5,0.5c-0.2-0.4,0.1-0.5,0.2-0.6C120.5,136.2,120.6,136.2,120.7,136.3
			L120.7,136.3z"/>
		<path class="st29" d="M114.7,132c0-0.1,0-0.1,0.1-0.2c0.1,0,0.2,0,0.3,0c0,0.1,0.1,0.2,0.1,0.3c-0.1,0.1-0.1,0.1-0.2,0.2
			C114.9,132.1,114.8,132.1,114.7,132L114.7,132z"/>
		<path class="st29" d="M116.6,133.3c-0.1,0.1-0.1,0.1-0.2,0.2c-0.1-0.1-0.2-0.2-0.2-0.2c0.1-0.1,0.1-0.2,0.2-0.3
			C116.5,133.1,116.6,133.2,116.6,133.3z"/>
		<path class="st29" d="M118.3,134.4c-0.1,0.1-0.1,0.1-0.2,0.2c-0.1,0-0.2,0-0.3,0c0.1-0.1,0.1-0.2,0.2-0.4c0.1,0,0.2,0,0.3-0.1
			C118.3,134.3,118.3,134.4,118.3,134.4z"/>
		<path class="st29" d="M118.1,145c-0.1,0.1-0.2,0.1-0.3,0.2c0-0.1-0.1-0.2-0.1-0.3c0.1-0.1,0.2-0.1,0.2-0.2
			c0.1,0.1,0.1,0.1,0.2,0.2h0C118.1,144.8,118.1,144.9,118.1,145L118.1,145z"/>
		<path class="st29" d="M120.6,144.1c0-0.1,0-0.3,0-0.4c0.4,0,0.4,0.2,0.4,0.4C120.8,144,120.7,144,120.6,144.1z"/>
		<path class="st29" d="M124.9,139.6c-0.1,0.2-0.2,0.4-0.5,0.3c-0.1-0.3,0.2-0.3,0.2-0.5C124.8,139.4,124.9,139.5,124.9,139.6z"/>
		<path class="st4" d="M126.4,141.2c0.1-0.1,0.2-0.2,0.2-0.4c0.2,0.1,0.3,0.2,0.5,0.4c-0.2,0-0.4,0-0.6,0
			C126.5,141.2,126.4,141.2,126.4,141.2L126.4,141.2z"/>
		<path class="st29" d="M113.9,131.4c0-0.1,0-0.1,0.1-0.2c0.1,0.1,0.2,0.1,0.3,0.2c-0.1,0.1-0.1,0.2-0.2,0.2
			C114.1,131.6,114,131.5,113.9,131.4L113.9,131.4z"/>
		<path class="st29" d="M117.1,133.9c0.1-0.1,0.1-0.2,0.2-0.2c0.1,0.1,0.2,0.2,0.2,0.2c-0.1,0.1-0.1,0.2-0.2,0.2c0,0,0-0.1,0-0.1
			c0,0-0.1-0.1-0.1-0.1C117.2,133.9,117.2,133.9,117.1,133.9L117.1,133.9z"/>
		<path class="st29" d="M119.1,135c-0.1,0.1-0.1,0.1-0.2,0.2c0,0,0-0.1-0.1-0.1c0-0.1-0.1-0.1-0.1-0.1c0,0-0.1,0-0.1,0
			c0-0.1,0-0.1,0.1-0.2C118.8,134.9,119,135,119.1,135L119.1,135z"/>
		<path class="st29" d="M119.4,135.6c0.1-0.1,0.1-0.2,0.2-0.2c0.1,0.1,0.2,0.2,0.2,0.2c-0.1,0.1-0.1,0.1-0.2,0.2c0,0,0-0.1,0-0.1
			C119.6,135.7,119.5,135.6,119.4,135.6C119.5,135.6,119.5,135.6,119.4,135.6L119.4,135.6z"/>
		<path class="st29" d="M125.8,142.1c0.1-0.1,0.1-0.2,0.2-0.4c0.1,0.1,0.1,0.1,0.2,0.2c0,0.1,0,0.1,0,0.2
			C126.1,142.1,126,142.1,125.8,142.1L125.8,142.1z"/>
		<path class="st29" d="M123.4,143.1c0-0.1,0-0.1,0-0.2c0.1-0.1,0.1-0.1,0.2-0.2c0.1,0.1,0.1,0.2,0.2,0.2
			C123.7,143,123.5,143,123.4,143.1z"/>
		<path class="st29" d="M115.7,132.6c0-0.1,0-0.1,0-0.2c0.1,0.1,0.1,0.2,0.2,0.3h-0.1L115.7,132.6z"/>
		<path class="st29" d="M125.1,142.5c0-0.1,0-0.1,0-0.2c0.1-0.1,0.1-0.1,0.2-0.2c0,0.1,0.1,0.1,0.1,0.2
			C125.2,142.4,125.2,142.5,125.1,142.5z"/>
		<path class="st29" d="M122.3,137.6c0,0-0.1,0-0.1,0c-0.1,0-0.1,0-0.2,0c0,0-0.1,0-0.1,0c0.1-0.1,0.2-0.2,0.2-0.3
			C122.1,137.5,122.2,137.6,122.3,137.6L122.3,137.6z"/>
		<path class="st47" d="M119.4,144.6c0.1-0.1,0.1-0.1,0.2-0.2C119.5,144.5,119.5,144.5,119.4,144.6z"/>
		<path class="st48" d="M117.4,145.3c0.1-0.1,0.1-0.1,0.2-0.2C117.5,145.2,117.4,145.3,117.4,145.3z"/>
		<path class="st7" d="M197.2,154.3c-0.6,1.2-1.9,1.7-2.9,2.6c-2.6,2.2-5.2,4.3-7.8,6.4c-0.1-0.1-0.2-0.1-0.4-0.2
			C189.6,159.9,193.1,156.8,197.2,154.3L197.2,154.3z"/>
		<path class="st7" d="M171.7,161.7c1.9-1.5,3.9-3.1,5.8-4.6c0.3-0.3,0.7-0.4,1.1-0.6c-0.8,1.2-2.1,1.7-3.1,2.6
			c-1.6,1.4-3.3,2.8-4.9,4.2c-0.1,0.1-0.3,0.1-0.4,0.2C170.6,162.8,171.1,162.2,171.7,161.7L171.7,161.7z"/>
		<path class="st7" d="M179.4,155.8c1.3-1.6,2.9-2.7,4.5-3.9c0.1,0.1,0.1,0.1,0.2,0.2C182.5,153.4,181.1,154.8,179.4,155.8z"/>
		<path class="st7" d="M186.1,163.1c0.1,0.1,0.2,0.1,0.4,0.2c-0.9,0.9-1.9,1.8-3,2.4C184,164.6,185.2,163.9,186.1,163.1z"/>
		<path class="st49" d="M170,163.3c0.1,0,0.1,0,0.2,0C170.1,163.3,170,163.3,170,163.3z"/>
		<path class="st10" d="M158.3,88.2c1.5-2.1,2.4-4.5,3.2-6.9c0.1-0.3,0.2-0.6,0.4-1c0.5,0.1,1,0.1,1.5,0.2c-0.2,0.6-0.4,1.3-0.5,1.9
			c-0.3,1.6,0.4,2.3,2,2.4c0.3,2,0.6,4.1,0.9,6.1c0.1,1.3,0.1,2.5,0.2,3.8c0,1.3,0,2.6,0,4c-0.8,0.2-1.6,0.5-2.4,0.7
			c-0.1,0-0.2,0-0.3-0.1c0.1,0,0.1-0.1,0.1-0.2c0.6-0.2,0.8-0.8,0.9-1.3c0.9-2.4,0.7-4.8,0.2-7.3c-0.2-1.2-0.4-2.4-1.4-3.2
			c-1.1,0.3-1.9,1-2.4,2c-1.3,2.4-1.5,5-1.6,7.6c-0.1,0.6-0.1,1.2-0.2,1.7c-0.1,0-0.1,0-0.2,0c-0.9-0.4-1.6-0.9-2.3-1.6
			c0.8-2.3,0.9-4.7,0.6-7.1C157.6,89.4,157.9,88.8,158.3,88.2L158.3,88.2z"/>
		<path class="st50" d="M211.3,41.1c-0.5,0.7-0.7,1.5-0.9,2.2c-0.1-0.1-0.2-0.1-0.4-0.1c0.2-0.9,0.5-1.8,0.8-2.6
			c0.5-1.6,1.5-3.1,1.9-4.9c-1.1,0.3-1.9,0.7-2,1.8c-0.1,0.9-0.4,1.8-0.6,2.6c-0.3,1-0.5,2-0.8,3c-0.2-0.1-0.5-0.1-0.7-0.2
			c0.3-1.1,0.6-2.2,0.9-3.4c0.2-0.9,0.5-1.9,0.7-2.9c-1.1-0.3-1.9-0.7-1.6-2c0.2-0.6,0.5-1.2,1.3-1.1c1.2,0.1,1,1.2,1.2,2
			c0.4,0,0.7-0.2,1-0.5c0-1,0.1-2,0.6-2.9c0.3-0.6,0.8-1,1.5-0.7c0.7,0.3,0.5,1,0.2,1.5c-0.4,0.8-0.9,1.6-1.6,2.8
			c1.2-0.8,2.1-2.1,3.3-0.8c0.3,0.4,0.3,0.8,0,1.2c-0.7,1-1.7,1.1-2.8,0.8C212.4,38.1,211.7,39.5,211.3,41.1L211.3,41.1z M213,33.2
			c-0.2,0.2-0.2,0.5-0.1,0.9c0.2-0.3,0.2-0.4,0.3-0.5c0.3-0.5,0.7-1,0.6-1.7C213.2,32.3,213,32.7,213,33.2L213,33.2z M210.1,35.6
			c0.2-0.5,0.2-1-0.3-1.4c-0.7,0.3-0.6,0.8-0.4,1.3C209.6,35.7,209.8,35.7,210.1,35.6z M213.9,36c0.8,0.1,1.3-0.1,1.5-0.9
			C214.7,35,214.3,35.3,213.9,36z"/>
		<path class="st51" d="M115.9,142l-2.1,0.9c0,0,0.5-3.9,0.8-5.8c0.2,0,0.4-0.1,0.5-0.1c1.4,1.1,2.8,2.3,4.1,3.4L115.9,142z"/>
		<path class="st12" d="M119.2,140.4c-1.4-1.1-2.7-2.3-4.1-3.4c-0.1-0.1-0.3,0-0.5,0.1c0.1-0.3,0-0.7,0.2-1.3
			c1.7,1.4,3.7,2.5,5.1,3.9C119.7,140.3,119.5,140.3,119.2,140.4z"/>
		<path class="st29" d="M123.4,138.9c0.1,0.1,0.2,0.1,0.4,0.2c-0.1,0.1-0.2,0.1-0.3,0.2C123.2,139.2,123.2,139.1,123.4,138.9
			L123.4,138.9z"/>
		<path class="st29" d="M113.9,131.4c0.1,0.1,0.1,0.1,0.2,0.2c-0.1,0.1-0.2,0.1-0.4,0.2C113.8,131.7,113.9,131.6,113.9,131.4z"/>
		<path class="st29" d="M114.7,132c0.1,0.1,0.2,0.2,0.3,0.3c-0.1,0.1-0.2,0.2-0.4,0.1C114.6,132.2,114.7,132.1,114.7,132z"/>
		<path class="st29" d="M115.7,132.6l0.2,0.2c-0.1,0.1-0.1,0.2-0.1,0.2c-0.1-0.1-0.2-0.2-0.2-0.2
			C115.5,132.7,115.6,132.6,115.7,132.6z"/>
		<path class="st29" d="M115.5,132.8c0.1,0.1,0.2,0.2,0.2,0.2c-0.1,0-0.2,0.1-0.4,0.2C115.4,132.9,115.4,132.9,115.5,132.8
			L115.5,132.8z"/>
		<path class="st29" d="M116.2,133.3c0.1,0.1,0.2,0.2,0.2,0.2c-0.1,0.1-0.2,0.1-0.2,0.2C116,133.5,116.1,133.4,116.2,133.3z"/>
		<path class="st29" d="M117.4,134.1c-0.1,0-0.2,0.1-0.2,0.2c-0.2-0.2-0.1-0.3,0-0.4c0,0,0.1,0,0.1,0c0,0,0.1,0.1,0.1,0.1
			C117.4,134.1,117.4,134.1,117.4,134.1L117.4,134.1z"/>
		<path class="st29" d="M118.9,135.2c-0.1,0.1-0.2,0.1-0.3,0.2c-0.2-0.2-0.1-0.3,0-0.4c0,0,0.1,0,0.1,0.1
			C118.7,135.1,118.8,135.1,118.9,135.2C118.8,135.2,118.9,135.2,118.9,135.2L118.9,135.2z"/>
		<path class="st29" d="M119.6,135.8c-0.1,0.1-0.2,0.1-0.6,0.3c0.2-0.4,0.3-0.5,0.4-0.6c0,0,0.1,0,0.1,0l0,0.1h0.1
			C119.6,135.7,119.6,135.8,119.6,135.8z"/>
		<path class="st29" d="M122.1,137.8c-0.1,0.1-0.2,0.1-0.4,0.3c0.1-0.3,0.2-0.4,0.2-0.4c0,0,0.1-0.1,0.1,0
			C122,137.7,122,137.8,122.1,137.8L122.1,137.8z"/>
		<path class="st29" d="M117.8,134.6c0.1,0,0.2,0,0.3,0C118,134.8,117.9,134.9,117.8,134.6z"/>
		<path class="st52" d="M123.8,138.6c-0.1,0.1-0.1,0.1-0.2,0.2C123.6,138.7,123.7,138.6,123.8,138.6z"/>
		<path class="st53" d="M122.1,137.8c0-0.1-0.1-0.1-0.1-0.2c0.1,0,0.1,0,0.2,0C122.1,137.7,122.1,137.8,122.1,137.8L122.1,137.8z"/>
		<path class="st10" d="M98.2,127.6C98.2,127.6,98.2,127.7,98.2,127.6S98.2,127.6,98.2,127.6c-0.6-0.6-0.9-1.4-1.3-2.2
			c-0.1,0.4-0.1,0.7-0.4,1c-0.1,0-0.1,0-0.2,0c-0.1,0-0.1,0-0.2,0c-0.1-0.1-0.2-0.4-0.6-0.3c0.2,0.2,0.3,0.4,0.4,0.6
			c0.1,0.1,0.1,0.1,0.2,0.2c-0.7,1.1-2,1-3,1.3c-2.4,0.6-3.5,0.2-4.6-2.1c-1.7-3.5-2.8-7.1-3.7-10.9c-0.1-0.4,0-0.9-0.5-1.1
			c-0.4,0.2-0.8,0.3-1.1,1c1.5,5.3,2.1,11.1,6.2,15.7c0.7-0.2,1.2-0.3,1.8-0.5c2.2-0.6,4.3-1.8,6.7-1.8
			C98.6,128.5,98.2,127.8,98.2,127.6L98.2,127.6z"/>
		<path class="st54" d="M95.9,126.6c0.1,0.1,0.1,0.1,0.2,0.2C96.1,126.7,96,126.7,95.9,126.6z"/>
		<path class="st35" d="M161,152.1c0.3-0.2,0.5-0.4,0.8-0.6c2.8-1.9,5.6-3.9,8.4-5.8c2.4-1.6,4.9-3.3,7.3-4.9
			c0.5-0.1,0.5,0.4,0.7,0.6c1.8,3.3,3.5,6.6,5.3,9.9c-0.2,0.2-0.5,0.5-0.7,0.7c-0.7,0.6-1.4,1.1-2.1,1.7l-0.5,0.4
			c-2.7,2.2-5.4,4.3-8.1,6.5c-0.1,0.1-0.2,0.2-0.3,0.2c-0.2,0.2-0.4,0.3-0.6,0.5c-0.2,0.1-0.3,0.3-0.5,0.4c-0.1,0.1-0.1,0.1-0.2,0.2
			c-0.2,0.2-0.5,0.4-0.7,0.6c-0.1,0.1-0.1,0.1-0.2,0.2c-0.4,0.3-0.8,0.5-1.2,0.8c-0.3-0.4-0.7-0.8-1-1.2c-0.1-0.1-0.4-0.6-0.4-0.6
			c-0.1-0.1-0.3-0.5-0.4-0.6c-1.1-1.7-2.2-3.4-3.4-5.1c-0.6-1-1.2-2.1-1.8-3.1C161,152.8,160.8,152.5,161,152.1L161,152.1z"/>
		<path class="st55" d="M170.3,162L170.3,162L170.3,162L170.3,162z"/>
		<path class="st55" d="M183.9,151.1c0,0.3-0.2,0.3-0.4,0.2c-0.2,0.2-0.5,0.5-0.7,0.7c-0.7,0.6-2.1,1.7-2.1,1.7l-0.5,0.4l-8.1,6.5
			l-0.3,0.2c0,0-0.4,0.3-0.6,0.5c-0.2,0.1-0.3,0.3-0.5,0.4c-0.1,0.1-0.1,0.1-0.2,0.2c0.5,0.4,0.6-0.3,1-0.4c0.1,0,0.3-0.2,0.4,0
			c1.9-1.5,3.9-3.1,5.8-4.6c0.3-0.3,0.7-0.4,1.1-0.6c0.2-0.2,0.5-0.4,0.7-0.6c1.3-1.6,2.9-2.7,4.5-3.9c0.3-0.4,0.7-0.4,1.1-0.4
			C184.6,151.4,184.3,151.3,183.9,151.1L183.9,151.1z"/>
		<path class="st56" d="M166.6,161.6c0.1,0.1,0.1,0.2,0.2,0.2C166.7,161.7,166.7,161.6,166.6,161.6z"/>
		<path class="st56" d="M166.8,161.8c0.1,0.1,0.1,0.1,0.1,0.2C166.9,161.9,166.8,161.9,166.8,161.8z"/>
		<path class="st29" d="M113.9,146.4c-0.2,0-0.3-0.1-0.2-0.4C114,146.1,114,146.2,113.9,146.4z"/>
		<path d="M225.1,140.3c-0.5,0-0.9-0.3-1.3-0.7c-1.1-1.1-2.1-2.1-3.2-3.2c-0.6-0.6-1.1-1.3-0.4-2c0.7-0.7,1.4-0.2,2,0.2
			c1.4,1.1,2.5,2.4,3.7,3.7c0.3,0.4,0.4,0.9,0.2,1.3C225.9,140,225.6,140.2,225.1,140.3z"/>
		<path d="M227.9,131.5c-1.6-0.1-3.4-0.2-5.1-0.4c-0.5,0-1-0.2-1.4-0.5c-0.3-0.3-0.5-0.6-0.4-1.1c0.1-0.4,0.5-0.7,0.9-0.7
			c2.4,0.1,4.7,0.4,7,0.9c0.5,0.1,0.7,0.4,0.7,0.9c0,0.5-0.3,0.7-0.8,0.8C228.6,131.5,228.3,131.5,227.9,131.5L227.9,131.5z"/>
		<path class="st38" d="M109.7,45c-0.4-0.1-0.9-0.1-1.3-0.2c-2.2-0.5-5.1-3.6-5.3-3.9c2.5-2.9,1.9-6.3,1.1-9.6c-0.2-1-0.9-2-1.3-2.9
			c0-0.1,0.1-0.1,0.1-0.2c1.5,1.9,2.5,4.2,2.8,6.6c0.4,3,1.7,5.7,3,8.4C109,43.8,109.3,44.4,109.7,45L109.7,45z"/>
		<path class="st3" d="M230.2,34.5c-0.1,0.1-0.1,0.1-0.2,0.2c-0.1,0.1-0.2,0.1-0.4,0.2c-1.2,0.2-2.3-0.2-3.5-0.4
			c-0.4-0.1-0.8-0.3-0.6-0.8c0.3-0.1,0.6-0.2,0.9-0.3c1.1-0.1,2.2-0.5,3.3-0.2c0.3,0.3,0.6,0.6,0.6,1.1
			C230.4,34.3,230.3,34.4,230.2,34.5L230.2,34.5z"/>
		<path class="st51" d="M231.4,81.5c-0.1-0.5-0.8-1-0.1-1.6C231.4,80.5,231.4,81,231.4,81.5z"/>
		<path class="st24" d="M214.7,143.5c-0.2-0.1-0.4-0.1-0.5-0.2c0.2-0.4,0.6-0.3,1-0.4c0.8-0.1,1.8-0.1,2.5-0.8
			c-0.3-0.3-0.4-0.6-0.6-0.9c0.6,0.2,1.4-0.1,2,0.3c0.1,0.1,0.1,0.1,0.2,0.2c0.1,0.1,0.1,0.1,0.2,0.2c0.1,0.1,0.1,0.1,0.2,0.2
			c0.3,0.4,0.6,0.7,1,1.1C218.6,143.2,216.6,143.3,214.7,143.5L214.7,143.5z"/>
		<path class="st22" d="M212.1,143.8c2.8,0,5.6,0,8.4,0c0-0.2,0-0.5,0-0.7c-1.9,0.1-3.9,0.2-5.8,0.4c-0.2-0.1-0.4-0.1-0.5-0.2
			c-3.3,0.1-6.5,0.1-9.8,0.2c-0.5,0-1,0-1.3-0.4c-0.1,0-0.1-0.1-0.2-0.1c-0.6-0.4-1.2-0.8-1.9-1.2c0,0.7,0,1.4,0,2.1
			c0.8,0.6,1.5,1.1,2.3,1.7c0.1-0.2,0.2-0.4,0.3-0.7c0.3,0,0.7,0,1,0c4.3-0.1,8.6-0.1,12.9-0.2c0.4,0,0.7,0,0.9-0.4
			c-5-0.1-10,0.1-15-0.1c2.1-0.1,4.2-0.2,6.3-0.3C210.6,143.9,211.3,143.9,212.1,143.8L212.1,143.8z"/>
		<path class="st3" d="M220.2,22.5c0,0,0-0.1,0-0.1c0.1-0.2,0.1-0.4,0.2-0.6c0.1-0.2,0.3-0.4,0.4-0.5c0.1-0.1,0.1-0.1,0.2-0.2
			s0.1-0.1,0.2-0.2c0.1-0.1,0.1-0.1,0.2-0.2c0.1-0.1,0.2-0.3,0.4-0.4c0.6-0.3,0.8-1.1,1.6-1.2c-0.1,0.4-0.1,0.6-0.2,0.9
			c-0.1,0.3-0.3,0.6-0.4,0.9c-0.1,0.1-0.1,0.3-0.2,0.4c-0.1,0.1-0.1,0.2-0.2,0.4c-0.1,0.1-0.1,0.2-0.2,0.4c-0.4,0.5-0.8,1.1-1.6,0.9
			C220.4,22.9,220.3,22.7,220.2,22.5L220.2,22.5z"/>
		<path class="st24" d="M217,141.2c-2.1,0.5-4.4,1.1-6.6,1c-0.2-0.3-0.6-0.3-0.5-0.9c1-0.5,2.3-0.1,3.3-0.6c1.3-0.2,2.6-0.4,3.8-1.1
			C216.9,140.1,217,140.6,217,141.2C217,141.2,217,141.2,217,141.2L217,141.2z"/>
		<path class="st36" d="M102.8,28.4c0.4,0.9,1.1,2,1.3,2.9c0.8,3.3,1.4,6.6-1.1,9.6c0,0-1.5-1.8-1.7-3.6c-0.1-0.7-0.6-2.8,0.2-5.6
			c0.3-0.7,0.5-1.5,0.8-2.2c0-0.1,0.1-0.3,0.2-0.4c0.1-0.2,0.2-0.5,0.2-0.5L102.8,28.4L102.8,28.4z"/>
		<path class="st38" d="M105,49.5c-0.1,0-0.1,0-0.2,0c-1.7-1.7-3.7-2.1-6-1.7c-0.2-0.4-0.6-1.4-0.6-1.4s-0.1-0.2-0.1-0.3
			C101,45.9,103.2,47.4,105,49.5L105,49.5z"/>
		<path class="st15" d="M198.5,31c-0.1-0.1-0.1-0.3-0.2-0.4C198.4,30.7,198.5,30.9,198.5,31z"/>
		<path class="st51" d="M183.1,61c1.2-3.2,1.4-6.4-0.4-9.5c0-0.1-0.1-0.2-0.1-0.2c0.5,0.1,1,0.2,1.4,0.2c0.1,0,0.3,0.1,0.4,0.1
			c0.1,0,0.1,0,0.2,0c1.4,0.6,2.6,1.4,3.6,2.6c1.6,2.1,1.2,4.5-1.1,5.9c-0.3,0.2-0.5,0.3-0.8,0.5C185.3,60.9,184.2,61.2,183.1,61
			L183.1,61z"/>
		<path class="st33" d="M186.3,60.6c0.3-0.2,0.5-0.3,0.8-0.5c2.3-1.4,2.7-3.8,1.1-5.9c-0.9-1.2-2.2-2-3.6-2.6c2.9-0.8,7.2,2,7.7,4.9
			c0.3,1.5-0.7,3.2-2.2,3.7C188.9,60.7,187.6,60.9,186.3,60.6z"/>
		<path class="st57" d="M174.5,44.9c0.1-0.1,0.1-0.1,0.2-0.2c0.2,0.2,0.6,0.2,0.4,0.6C174.9,45.1,174.7,45,174.5,44.9z"/>
		<path class="st33" d="M184.4,51.6c-0.1,0-0.3-0.1-0.4-0.1C184.2,51.5,184.3,51.6,184.4,51.6z"/>
		<path class="st18" d="M164.9,84.8c-1.6-0.1-2.3-0.9-2-2.4c0.1-0.6,0.3-1.3,0.5-1.9c0.8-1.8,1.9-3.2,3.7-3.9
			c0.8-0.2,1.6-0.3,2.5-0.2c0.1,0.6-0.5,0.5-0.8,0.6c-1.4,0.5-2.6,1.4-3.5,2.5c-1,1.1-0.7,2.2,0.7,2.7c0.4,0.2,1.1,0,1.2,0.7
			C166.6,83.8,165.8,84.4,164.9,84.8L164.9,84.8z"/>
		<path class="st19" d="M164.9,84.8c0.9-0.5,1.7-1,2.2-1.9c0.6-0.7,1.7-2.2,2.3-1.8c0.6,0.3,0.3,0.7,0.1,1c-0.6,1-1.1,2-1.8,2.9
			c-1.3,1.8-2,3.8-2,6C165.5,88.9,165.2,86.9,164.9,84.8L164.9,84.8z"/>
		<path class="st58" d="M175,67.4c-0.3,0.5-0.6,0.7-1.1,0.7C174.1,67.7,174.4,67.6,175,67.4z"/>
		<path class="st15" d="M182.6,51.2c0,0.1,0.1,0.2,0.1,0.2C182.7,51.4,182.6,51.3,182.6,51.2z"/>
		<path class="st51" d="M189.9,124.9c-0.7-0.3-1.2-0.6-2-0.9c0.4-0.7,0.7-1.3,1-2c0.8,0.6,1.5,1,2.2,1.6
			C190.9,124.1,190.4,124.4,189.9,124.9L189.9,124.9z"/>
		<path class="st25" d="M205.3,102c-0.2,0.1-0.4,0.2-0.6,0.4c-0.2,0.1-1.2,0.7-1.5,0.9c0,0.1-2.1,1.3-2.1,1.3s-0.8,0.5-1.3,0.8
			c0.5,0.8,1.2,1.9,1.7,2.8c0.4-0.6,0.7-1,1-1.5c-0.7-0.4-0.7-1-0.3-1.6c0.3-0.5,0.7-1,1.1-1.4c0.5-0.4,1-0.8,1.5-1.1
			C205.1,102.4,205.5,102.4,205.3,102L205.3,102z"/>
		<path class="st22" d="M160.2,140.3c-0.9-1.6-0.3-3.3,1.3-3.9c0.3,0.4,0.1,0.9,0.2,1.3c0,1.5,0.8,2,2.3,1.4
			c0.3-0.1,0.6-0.2,0.9-0.4c0,0.1,0,0.1,0.1,0.2C163.6,140.6,162.4,140.9,160.2,140.3z"/>
		<path class="st24" d="M160.2,140.3c2.2,0.7,3.4,0.3,4.7-1.3c0.5-0.5,0.6-1.2,0.8-1.9c0.1-0.1,0.2-0.1,0.4-0.2
			c0.6,2.4-1.7,4.9-4.2,4.4c-0.5-0.1-1.1,0.1-1.5-0.3C160.1,140.8,159.5,140.6,160.2,140.3L160.2,140.3z"/>
		<path class="st22" d="M166,136.9c-0.1,0.1-0.2,0.1-0.4,0.2c-0.2-0.2-0.4-0.5-0.3-0.8C165.9,136.2,165.8,136.7,166,136.9L166,136.9
			z"/>
		<path class="st21" d="M217,141.2c0,0,0.4,0.6,0.6,0.9c-0.7,0.8-1.6,0.7-2.5,0.8c-0.4,0.1-0.8-0.1-1,0.4c-3.3,0.1-6.5,0.1-9.8,0.2
			c-0.5,0-0.9,0.1-1.3-0.4c1-0.1,2-0.2,3.1-0.4c0.3,0,0.4-0.1,0.3-0.4c3.2,0.7,6.3,1,9.5-0.2C216.4,142,217,141.8,217,141.2z"/>
		<path class="st21" d="M213.2,140.6c-1,0.5-2.3,0.2-3.3,0.6c-0.2,0.6,0.3,0.6,0.5,0.9c-2.5,0-3.9-0.5-4.1-2
			C208.6,140.5,210.9,140.8,213.2,140.6L213.2,140.6z"/>
		<path class="st21" d="M220.5,143.8c-2.8,0-5.6,0-8.4,0c-0.8,0-1.5,0-2.3,0c-2.1,0.1-4.2,0.2-6.3,0.3c5,0.2,10,0,15,0.1
			c-0.2,0.4-0.6,0.4-0.9,0.4c-4.3,0.1-8.6,0.1-12.9,0.2c-0.3,0-0.7,0-1,0c-0.1,0.3-0.2,0.5-0.3,0.7c0.4,0,0.9,0,1.3,0.1
			c4.3-0.1,15.5-0.2,15.7-0.2C220.7,144.8,220.5,144.3,220.5,143.8L220.5,143.8z"/>
		<path class="st59" d="M202.8,142.9c0.1,0.1,0.1,0.1,0.2,0.2C203,143,202.9,143,202.8,142.9z"/>
		<path class="st60" d="M206.6,43c-0.1,0.2-0.1,0.4-0.2,0.6C206.5,43.4,206.5,43.2,206.6,43z"/>
		<path class="st61" d="M206.6,45.1c0.1,0.1,0.2,0.1,0.4,0.2C206.9,45.2,206.7,45.1,206.6,45.1z"/>
		<path class="st2" d="M207,42.4c-0.1,0-0.1,0-0.2-0.1C206.8,42.4,206.9,42.4,207,42.4z"/>
		<path class="st26" d="M210.7,40.6c-0.2,0.9-0.5,1.8-0.8,2.6c-0.3-0.1-0.5-0.1-0.8-0.2c0.3-1,0.5-2,0.8-3
			C210.2,40.2,210.5,40.4,210.7,40.6z"/>
		<path class="st62" d="M182.7,152.1C182.7,152.1,182.8,152.1,182.7,152.1C182.8,152.1,182.8,152.1,182.7,152.1z"/>
		<path class="st4" d="M94.4,55.2c1.4,0.3,3,0.4,3.8,2c1,1.8,0.6,3.5-0.5,5.1c-0.1,0.2-0.7,0.4-0.1,0.8c-1.4,1-2.7,2.5-4.8,1.4
			c-1-0.6-1.9-1.3-2.6-2.3c0,0.3-0.1,0.4-0.1,0.6c-0.4-0.8-0.2-1.7,0-2.5c0.4,0.3,0.7,0.6,1.1,0.9c1,0.8,2,1.5,3.3,0.7
			c1.2-0.8,1.8-2,1.6-3.5c-0.2-1.4-1.5-2-2.4-2.8C93.9,55.4,94.2,55.3,94.4,55.2L94.4,55.2z"/>
		<path class="st12" d="M93.7,55.5c1,0.8,2.3,1.4,2.4,2.8c0.2,1.4-0.3,2.7-1.6,3.5c-1.3,0.8-2.3,0.1-3.3-0.7
			c-0.4-0.3-0.7-0.6-1.1-0.9c0-0.3,0.1-0.5,0.4-0.7c0.8,0.5,1.5,1.1,2.3,1.6c0.8-0.2,1.3-0.8,1.8-1.5c0.5-0.6,1-1.2,0.4-2.1
			c-0.4-0.4-0.9-0.8-1.3-1.3C93.4,56.1,93.1,55.8,93.7,55.5L93.7,55.5z"/>
		<path class="st63" d="M94.7,58.2C94.7,58.2,94.8,58.2,94.7,58.2C94.8,58.2,94.7,58.1,94.7,58.2C94.7,58.2,94.7,58.2,94.7,58.2
			C94.7,58.2,94.7,58.2,94.7,58.2z"/>
		<path class="st64" d="M92.7,60.3C92.7,60.3,92.7,60.3,92.7,60.3C92.8,60.3,92.8,60.3,92.7,60.3C92.8,60.3,92.8,60.4,92.7,60.3
			C92.8,60.4,92.7,60.4,92.7,60.3L92.7,60.3z"/>
		<path class="st19" d="M157.1,90.1c0.4,2.4,0.2,4.8-0.6,7.1c-2.4,1-4.7,2-7.1,3c-1.1,0.5-2.1,0.9-3.2,1.3c-5.3,2.3-10.7,4.7-16,7
			c-0.8,0.4-1.7,0.7-2.6,1c0.7-1.4,1.5-2.7,2.8-3.6c3.9-4.3,9.1-6.2,14.3-8.2C149.4,96,153.7,93.6,157.1,90.1L157.1,90.1z"/>
		<path class="st11" d="M159.1,98.7c0.1-0.6,0.1-1.2,0.2-1.7c0.3-0.7,0.5-1.4,0.9-2c0.9-1.4,2.2-1.4,3.2,0c1,1.4,0.4,2.8,0.1,4.3
			c0,0-0.1,0.1-0.1,0.2C161.8,99.5,160.4,99.4,159.1,98.7z"/>
		<path class="st5" d="M149.5,100.1c2.4-1,4.7-2,7.1-3c0.7,0.6,1.5,1.2,2.3,1.6c-1.9,2.3-4.6,2-7.2,1.9
			C151,100.6,150.1,100.7,149.5,100.1z"/>
		<path class="st18" d="M157.1,90.1c-3.5,3.6-7.7,5.9-12.4,7.7c-5.2,2-10.4,3.9-14.3,8.2c0.1-1.2,1.1-2,1.8-2.8
			c3.1-3.2,6.9-5.4,11-7c3.5-1.3,7.1-2.2,10.2-4.3c1.8-1.2,3-2.9,4.7-4.3c0,0.2,0.1,0.4,0.1,0.5C157.9,88.8,157.5,89.4,157.1,90.1z"
			/>
		<path class="st29" d="M109.1,104.8c0.2-0.9,0.8-0.8,1.5-0.7c1.5,0.4,2.1,2.6,1,3.7c-0.2,0.2-0.6,0.6-1,0.2
			c0.1-0.1,0.2-0.2,0.4-0.4c0.3-0.3,0.7-0.5,0.4-0.9c0.2-0.9,0.1-1.7-1-2.1c-0.2,0.1-0.5,0.2-0.7,0.3
			C109.5,104.9,109.3,104.9,109.1,104.8L109.1,104.8z"/>
		<path class="st45" d="M111,107.7c-0.1,0.1-0.2,0.3-0.4,0.4c-0.9,0.4-1.6,0-2-0.7c-0.5-0.9-0.4-1.8,0.5-2.5
			c0.2,0.1,0.4,0.1,0.6,0.2c-0.6,0.5-1,1.1-0.7,1.9c0.3,0.7,0.9,0.7,1.6,0.6C110.7,107.5,110.8,107.6,111,107.7L111,107.7z"/>
		<path class="st45" d="M108,111.4c-0.1,0-0.2-0.1-0.2-0.1c-0.2-0.2-0.4-0.4-0.5-0.6c0.1-0.3,0.3-0.5,0.4-0.8
			c0.1-0.2,0.2-0.4,0.3-0.6c0.3,0,0.5,0.2,0.7,0.5c-0.1,0.3-0.3,0.6-0.5,1c0.1,0.3,0.3,0.6,0.4,0.9c-0.1,0-0.2,0-0.4,0
			C108.1,111.5,108,111.5,108,111.4z"/>
		<path class="st51" d="M107.9,109.3c-0.1,0.2-0.2,0.4-0.3,0.6c-0.6,0-0.6-0.8-1.1-1c-0.1-0.1-0.1-0.1-0.2-0.2
			c0.1-0.2,0.1-0.3,0.2-0.5c0.1,0,0.1,0,0.2-0.1c0.1-0.1,0.1-0.1,0.2-0.1c0.3,0.3,0.6,0.6,0.9,0.9
			C107.8,109.1,107.9,109.2,107.9,109.3L107.9,109.3z"/>
		<path class="st51" d="M103.1,114.1c0,0-0.1,0-0.2,0c-0.1-0.1-0.1-0.1-0.2-0.2c-0.5-0.6-0.5-1.2,0-1.9h1.1c0.6,0.6,0.8,1.2,0.1,2
			C103.7,114,103.4,114,103.1,114.1L103.1,114.1z"/>
		<path class="st27" d="M103.1,114.1c0.3,0,0.6-0.1,0.8-0.1c0.8-0.8,0.5-1.4-0.1-2c0.2-0.2,0-0.3-0.2-0.4c1.1-0.3,1.1,0.6,1.5,1.1
			c-0.4,1.7-1.1,2.2-2.6,1.7C102.5,114.1,102.9,114.3,103.1,114.1L103.1,114.1z"/>
		<path class="st35" d="M103.7,111.6c0.1,0.1,0.3,0.2,0.2,0.4c-0.4,0-0.7,0-1.1,0c-0.6,0.7-0.6,1.3,0,1.9c0,0.1,0,0.1,0,0.2
			c-1-0.1-1-0.8-0.8-1.5C102.1,111.6,102.7,111.3,103.7,111.6L103.7,111.6z"/>
		<path class="st29" d="M100.3,111.8c0.1,0,0.2,0,0.4,0c-0.1,0.2-0.1,0.4-0.3,0.8C100.3,112.2,100.3,112,100.3,111.8z"/>
		<path class="st29" d="M102.7,114c0-0.1,0-0.1,0-0.2c0.1,0.1,0.1,0.1,0.2,0.2C102.8,114,102.8,114,102.7,114L102.7,114z"/>
		<path class="st4" d="M138.2,46.2c0.3,0.1,0.9,0.2,0.6-0.1c-1.2-1-2.3-1.9-3.4-2.9c-0.8-0.7-1.5-1.6-1.3-2.8c0-0.1-0.2-0.3-0.3-0.4
			c0-0.4,0-0.8,0-1.2c0.1,0.2,0.2,0.5,0.3,0.8c0.2-0.2,0.4-0.6,0.6-0.7c0.3,0.3-0.1,1.2,0.4,1.4c1.7,1.6,3.7,2.9,5.6,4.3
			c0.8,1.1,0.2,1.6-0.8,2.1C139.3,46.6,138.8,46.4,138.2,46.2z"/>
		<path class="st65" d="M123,84.4c-0.2-0.1-0.5-0.3-0.8-0.4c-0.1-0.2-0.2-0.5-0.4-0.8c0.3-2,1.8-2.8,3.5-3.3c1-0.3,1.9-0.5,2.7-1.2
			c0.6,0.4,1.3,0.4,2.1,0.4C129.6,82,126.3,84.4,123,84.4L123,84.4z"/>
		<path class="st66" d="M150.4,28.4c-0.5-0.4-1-0.9-1.5-1.3c-0.4,0.9-1,0.6-1.6,0.3c-0.6-0.3-1-0.8-1.3-1.4c0-0.2,0-0.4,0.1-0.5
			c-0.6,0.1-1,0.6-1.4,1.1c0.6,0.5,1.1,0.9,1.7,1.4c0.1,0.1,0.2,0.2,0.4,0.3c0.6,0.6,1.3,1.1,1.9,1.7
			C149.5,29.6,150.6,29.7,150.4,28.4L150.4,28.4z"/>
		<path class="st67" d="M101.8,110.3c0.1-0.1,0.1-0.1,0.2-0.2C101.9,110.2,101.8,110.2,101.8,110.3z"/>
		<path class="st29" d="M105.3,109.7c0.4-0.2,0.8-0.4,1.1-0.6c0.1,0.3,0.2,0.7,0.3,1.1c-0.2,0.2-0.3,0.4-0.5,0.6
			C106,110.5,105.7,110.1,105.3,109.7z"/>
		<path class="st35" d="M106.3,110.8c0.2-0.2,0.3-0.4,0.5-0.6c-0.1-0.4-0.2-0.7-0.3-1.1c0-0.1,0-0.1,0-0.2c0.5,0.2,0.5,0.9,1.1,1
			c-0.1,0.3-0.3,0.5-0.4,0.8c-0.1,0.1-0.2,0.1-0.3,0.1c-0.1,0.1-0.1,0.1-0.2,0.2v0c-0.1,0-0.1,0-0.2,0
			C106.4,111,106.3,110.9,106.3,110.8L106.3,110.8z"/>
		<path class="st51" d="M106.8,110.8c0.1,0,0.2-0.1,0.3-0.1c0.2,0.2,0.4,0.4,0.5,0.6c0,0.5-0.5,0.3-0.7,0.5c-0.1,0-0.1,0-0.2,0
			c-0.1-0.2-0.1-0.5-0.2-0.7v0C106.7,110.9,106.8,110.9,106.8,110.8L106.8,110.8z"/>
		<path class="st35" d="M106.8,111.8c0.1,0,0.1,0,0.2,0c-0.1,0.1-0.1,0.1-0.2,0.2C106.8,111.9,106.8,111.8,106.8,111.8L106.8,111.8z
			"/>
		<path class="st68" d="M106.3,110.8c0.1,0.1,0.1,0.1,0.2,0.2C106.4,111,106.3,110.9,106.3,110.8z"/>
		<path class="st35" d="M106.7,108.2c0,0-0.1,0-0.2,0c-0.3-0.1-0.7-0.1-1.1-0.2c-0.4-0.8-0.7-1.7-0.8-2.7c1.1-0.3,1.4,0.7,2,1.1
			c0.1,0.5,0.2,1,0.2,1.5C106.8,108.1,106.7,108.2,106.7,108.2L106.7,108.2z"/>
		<path class="st45" d="M106.6,105.2c0-0.1,0-0.1,0-0.2c0-0.1,0-0.1,0-0.2c-0.1,0-0.1,0-0.2,0c-0.5-0.2-1.1-0.4-1.6-0.2
			c-0.3,0.2-0.3,0.5-0.3,0.8l0.1,0c1.1-0.3,1.4,0.7,2,1.1c0-0.1,0-0.1,0-0.2C106.6,106,106.6,105.6,106.6,105.2L106.6,105.2z"/>
		<path class="st69" d="M108,111.4c0.1,0.1,0.1,0.1,0.2,0.2C108.1,111.5,108.1,111.5,108,111.4z"/>
		<path class="st47" d="M119,144.3c-0.1-0.1-0.1-0.1-0.2-0.2C118.9,144.1,119,144.2,119,144.3z"/>
		<path class="st29" d="M125.3,142c0,0.1,0,0.1,0,0.2c-0.1,0.1-0.1,0.1-0.2,0.2c-0.2-0.1-0.2-0.4-0.2-0.6c0.1,0,0.1,0,0.2,0l0,0
			C125.1,141.8,125.2,141.9,125.3,142L125.3,142z"/>
		<path class="st29" d="M123.6,142.7c-0.1,0.1-0.1,0.1-0.2,0.2c0-0.1,0-0.2,0-0.3C123.5,142.6,123.5,142.6,123.6,142.7L123.6,142.7z
			"/>
		<path class="st29" d="M124.5,142.2c-0.1,0-0.2,0-0.3,0C124.3,141.9,124.4,142,124.5,142.2z"/>
		<path class="st70" d="M124.2,142.3c0,0.1,0.1,0.1,0.1,0.2C124.3,142.5,124.2,142.4,124.2,142.3z"/>
		<path class="st71" d="M125.3,141.9c-0.1-0.1-0.1-0.1-0.2-0.2C125.2,141.8,125.2,141.9,125.3,141.9z"/>
		<path class="st71" d="M126.2,142c-0.1-0.1-0.1-0.1-0.2-0.2C126.1,141.8,126.1,141.9,126.2,142z"/>
		<path class="st29" d="M115.9,145.5c-0.1,0.1-0.1,0.1-0.2,0.2l-0.1,0.1c0,0.1,0,0.1,0,0.2c0.1-0.1,0.3-0.1,0.4-0.2
			C116,145.6,116,145.5,115.9,145.5L115.9,145.5z"/>
		<path class="st29" d="M115.8,145.4c0,0.1-0.1,0.2-0.1,0.3c0.1-0.1,0.1-0.1,0.2-0.2C115.9,145.4,115.9,145.4,115.8,145.4
			L115.8,145.4z"/>
		<path class="st48" d="M117,145c-0.1-0.1-0.1-0.1-0.2-0.2C116.8,144.8,116.9,144.9,117,145z"/>
		<path class="st4" d="M126.4,141.4c0,0,0-0.1,0-0.1c0.1,0,0.1,0,0.2,0C126.5,141.3,126.4,141.3,126.4,141.4z"/>
		<path class="st72" d="M117.3,134C117.3,134,117.3,133.9,117.3,134C117.3,133.9,117.3,134,117.3,134z"/>
		<path class="st29" d="M118.8,135.2c-0.1,0-0.1,0-0.1-0.1C118.8,135.1,118.8,135.1,118.8,135.2z"/>
		<path class="st29" d="M119.6,135.7L119.6,135.7L119.6,135.7C119.6,135.6,119.6,135.7,119.6,135.7z"/>
		<path class="st9" d="M163.4,99.2c0.4-1.4,1-2.9-0.1-4.3c-0.9-1.3-2.3-1.3-3.2,0c-0.4,0.6-0.6,1.3-0.9,2c0-2.6,0.2-5.2,1.6-7.6
			c0.5-0.9,1.2-1.6,2.4-2c1,0.8,1.1,2.1,1.4,3.2c0.5,2.4,0.7,4.9-0.2,7.3C164.2,98.4,164,99,163.4,99.2z"/>
		<path class="st6" d="M210.7,40.6c-0.2-0.2-0.5-0.4-0.7-0.6c0.2-0.9,0.5-1.7,0.6-2.6c0.1-1.1,0.8-1.4,2-1.8
			C212.3,37.5,211.2,39,210.7,40.6z"/>
		<path class="st6" d="M210.1,35.6c-0.3,0.2-0.5,0.1-0.8-0.1c-0.1-0.5-0.3-1,0.4-1.3C210.2,34.6,210.2,35.1,210.1,35.6z"/>
		<path class="st6" d="M213.9,36c0.4-0.6,0.8-1,1.5-0.9C215.2,35.9,214.7,36.1,213.9,36z"/>
		<path class="st6" d="M212.9,34.2c-0.3-1,0.3-2,0.9-2.2C214.1,32.7,212.9,34.2,212.9,34.2z"/>
		<path class="st4" d="M119.1,144.6c0,0,0.1,0,0.1,0c0-0.1-0.1-0.1-0.2-0.2C119.1,144.5,119.1,144.5,119.1,144.6z"/>
		<path class="st4" d="M126.6,141.8c0,0,0-0.1,0-0.1c-0.1,0-0.1,0-0.2-0.1c0-0.1,0-0.2,0-0.2c0,0,0-0.1,0-0.1c-0.1,0-0.2,0-0.4,0v0
			c-0.4,0-0.8,0.1-1.1,0.4c-0.9,0.2-1.8,0.6-2.6,0.9c-1.2,0.3-2.3,0.7-3.4,1.3c-0.4,0-0.7,0.1-0.9,0.4c-0.4,0.1-0.8,0.3-1.1,0.4
			c-0.1,0.1-0.3,0.1-0.4,0.2c0.1,0,0.1,0,0.2,0c0.1,0,0.1,0,0.2,0c0.1,0.1,0.1,0.1,0.2,0.2c0,0.1,0,0.1,0.1,0.2
			c0.1,0.1,0.1,0.1,0.1,0.2c0.1,0,0.1,0,0.2,0c0.1-0.1,0.1-0.1,0.2-0.2c0.1,0,0.2,0,0.2,0c0-0.1-0.1-0.2-0.1-0.3
			c0.1-0.1,0.2-0.1,0.2-0.2c0,0.1,0.1,0.1,0.2,0.2h0c0,0.1,0,0.1,0,0.2c0.2-0.1,0.4-0.1,0.6-0.2h0c0-0.1,0-0.1,0-0.2
			c0-0.2,0-0.4,0-0.5c0.1,0,0.1,0,0.2,0c0.1,0.1,0.1,0.1,0.2,0.2c0,0.1,0,0.1,0,0.2c0.1,0.1,0.1,0.1,0.2,0.2c0.1,0,0.1,0,0.2,0
			c0.1-0.1,0.1-0.1,0.2-0.2l0.1,0c0-0.1-0.1-0.1-0.1-0.2c0-0.2,0.1-0.4,0.1-0.5c0.1,0.2,0.2,0.4,0.4,0.6c0.2-0.1,0.4-0.1,0.5-0.2
			c0-0.1,0-0.3,0-0.4c0.4,0,0.4,0.2,0.4,0.4c0.2-0.1,0.4-0.2,0.6-0.4c0-0.2-0.1-0.3-0.1-0.5c0.4,0,0.4,0.3,0.5,0.5
			c0.2,0,0.4-0.1,0.5-0.3c-0.1-0.2-0.1-0.4-0.2-0.5c0.4-0.1,0.5,0.2,0.6,0.5c0.2-0.1,0.3-0.1,0.5-0.2c0-0.1,0-0.1,0-0.2
			c0-0.1,0-0.2,0-0.3c0.1,0,0.2,0.1,0.2,0.1c0.1,0.1,0.1,0.1,0.2,0.2c0.2-0.1,0.4-0.1,0.5-0.2c0-0.1,0-0.1,0-0.2
			c0-0.1-0.1-0.2-0.1-0.2c0-0.1,0-0.1,0-0.2c0.1-0.2,0.2-0.1,0.3,0c0.1,0.1,0.2,0.2,0.2,0.4c0.1,0,0.2,0,0.4,0c0-0.1,0-0.1,0-0.2
			c-0.2-0.1-0.2-0.4-0.2-0.6c0.1,0,0.1,0,0.2,0l0,0c0.1,0.1,0.1,0.1,0.2,0.2c0,0.1,0,0.1,0,0.2c0,0.1,0.1,0.1,0.1,0.2
			c0,0,0.1,0,0.1,0c0.1,0,0.1,0,0.2,0c0.1-0.1,0.1-0.1,0.2-0.2c0.1-0.1,0.1-0.2,0.2-0.4c0.1,0.1,0.1,0.1,0.2,0.2c0,0.1,0,0.1,0,0.2
			c0.1-0.1,0.1-0.1,0.2-0.2c0.1,0,0.1,0,0.2,0c0,0,0.1,0,0.1,0C126.7,141.9,126.7,141.8,126.6,141.8L126.6,141.8z"/>
		<path class="st4" d="M116.4,144.8c-0.2,0.1-0.5,0.1-0.8,0.2c-0.1,0-0.1,0-0.2,0c0,0.3-0.1,0.5,0.2,0.7l0.1-0.1
			c0.1-0.1,0.1-0.2,0.1-0.3c0,0,0,0.1,0,0.1c0.1,0.1,0.1,0.2,0.2,0.2c0.3,0,0.5,0,0.6-0.3c0-0.2,0-0.4,0-0.6
			C116.6,144.8,116.5,144.7,116.4,144.8L116.4,144.8z"/>
		<path class="st4" d="M117.1,145.3c0,0,0.1,0,0.1,0c0-0.1-0.1-0.1-0.1-0.2C117,145.2,117,145.3,117.1,145.3z"/>
		<path class="st73" d="M170.5,161.8c-0.1,0.1-0.1,0.1-0.2,0.2C170.4,161.9,170.5,161.9,170.5,161.8z"/>
		<path class="st74" d="M94.7,58.2C94.7,58.2,94.7,58.2,94.7,58.2C94.7,58.2,94.7,58.2,94.7,58.2C94.7,58.1,94.8,58.1,94.7,58.2
			C94.8,58.2,94.7,58.2,94.7,58.2z"/>
		<path class="st51" d="M110.6,107.5c-0.7,0.1-1.3,0.1-1.6-0.6c-0.3-0.7,0.1-1.4,0.7-1.9c0.2-0.1,0.5-0.2,0.7-0.3
			c1.1,0.3,1.2,1.1,1,2c0,0.1-0.1,0.1-0.1,0.2C111,107.1,110.8,107.3,110.6,107.5L110.6,107.5z"/>
		<path class="st45" d="M110.6,107.5c0.2-0.2,0.4-0.4,0.6-0.6c0.1-0.1,0.1-0.1,0.1-0.2c0.3,0.5-0.1,0.7-0.4,0.9
			C110.8,107.6,110.7,107.5,110.6,107.5L110.6,107.5z"/>
		<path class="st75" d="M106.7,108.2c0.1-0.1,0.1-0.1,0.2-0.1C106.8,108.1,106.7,108.2,106.7,108.2z"/>
		<path class="st68" d="M106.8,110.8c-0.1,0.1-0.1,0.1-0.2,0.2C106.7,111,106.8,110.9,106.8,110.8z"/>
		<path class="st76" d="M111.3,106.7c0,0.1-0.1,0.1-0.1,0.2C111.3,106.8,111.3,106.8,111.3,106.7z"/>
		<path class="st2" d="M207.2,98.7c-0.1-0.1-0.2-0.3-0.2-0.4c-0.4-0.6-0.7-1.1-1.1-1.7c-0.7-0.7-1.1-1.7-1.9-2.3
			c-0.4-0.1-0.8,0.1-1,0.3c1.1,0.6,2,1.5,2.7,2.6c1.1,1.8,0.6,3.3-1.7,5.2c-0.3,0.3-0.8,0.4-0.8,0.9c0,0,1.9-1.2,2.1-1.3
			c0.8-0.5,1.6-1,2.5-1.5c0.1-0.1,0.2-0.2,0.3-0.4C207.8,99.7,207.5,99.2,207.2,98.7z"/>
		<path class="st25" d="M33.2,72.5c0,0-2.5-0.3-3.9,1.9C28,76.6,28.2,80.3,32,81s5.2-2.8,5.3-3.7C37.3,76.3,37.6,73.4,33.2,72.5
			L33.2,72.5z"/>
	</g>
</g>
</svg>
