<svg width="182" height="152" viewBox="0 0 182 152" fill="none" xmlns="http://www.w3.org/2000/svg">
<g id="Illustration_HDBW_231221_03_Inhalte_merken_RZ 2" clip-path="url(#clip0_4902_10040)">
<path id="Vector" d="M116.72 13.4387C116.718 14.1112 114.523 15.3382 114.434 14.3417C114.385 14.1159 113.886 12.8306 113.825 12.5676C113.771 12.3293 115.814 11.1097 116.115 11.7198C116.203 11.8998 116.72 13.4387 116.72 13.4387Z" fill="#463276"/>
<path id="Vector_2" d="M107.779 12.724C107.616 10.0276 108.741 6.24683 111.584 5.50781C110.899 8.10423 110.236 10.9425 111.228 13.4753C109.854 13.8931 108.054 15.2842 107.779 12.724Z" fill="#947EC6"/>
<path id="Vector_3" d="M111.585 5.50734C115.457 3.95259 120.816 9.78012 116.945 11.3275C115.207 12.2395 112.926 12.792 111.229 13.4748C109.335 12.6493 109.019 8.64826 110.549 6.49646C110.773 6.18183 111.228 5.65102 111.585 5.50734Z" fill="#7946C6"/>
<path id="Vector_4" d="M117.409 11.0937C117.409 11.0937 117.506 10.9417 117.584 10.3839C118.262 5.55446 112.449 5.2793 112.449 5.2793C112.512 5.2116 113.228 5.01529 113.95 4.93848C116.396 4.6784 118.484 5.37231 119.384 7.61244C120.323 9.94812 119.562 10.285 117.409 11.0937Z" fill="#453075"/>
<path id="Vector_5" d="M181.502 47.3394C181.488 47.0752 181.48 46.8106 181.48 46.546C181.427 24.7316 158.905 9.51475 139.722 18.3722C139.644 18.4123 139.565 18.453 139.487 18.4945C136.996 19.809 134.868 21.7713 133.273 24.1723C114.903 51.8235 82.8902 62.3545 63.6337 29.8729C62.8674 28.5802 61.9548 27.3887 60.9009 26.3432C18.3403 -15.8751 -28.2647 45.8326 21.4714 73.7588C22.7062 74.5241 23.9772 75.4814 25.158 76.5595C28.3836 79.5046 30.4222 83.6442 30.8361 88.1129C31.1725 91.7459 30.685 95.4476 29.3509 98.8205C28.0623 102.078 25.838 104.824 23.0379 106.77C1.66608 121.629 10.9556 152.694 37.5367 151.654C43.8274 151.115 63.2169 143.999 75.4522 139.686C76.0146 139.488 76.567 139.259 77.106 138.999C100.251 127.829 115.559 141.425 135.568 148.705C137.691 149.477 139.942 149.797 142.184 149.637C164.054 148.077 161.211 125.017 148.989 110.238C148.633 109.808 148.256 109.396 147.861 109.005C131.741 93.0434 183.433 84.3989 181.502 47.3394Z" fill="#E9D2B1"/>
<path id="Vector_6" d="M100.33 60.6687L95.3751 51.3047L65.1465 66.7718L67.1361 68.4182L100.33 60.6687Z" fill="white"/>
<path id="Vector_7" d="M92.8242 61.946C89.7646 52.3462 68.917 66.7799 67.431 66.5903C67.0902 66.6697 66.6836 67.052 66.3545 66.8774C66.2851 66.4022 68.8295 65.38 67.9962 65.3646C67.1851 65.9519 66.0575 66.0311 65.2886 66.5435C65.0365 67.7583 71.3311 75.6457 71.2922 76.4489C71.4785 88.9135 71.6071 87.5963 79.4654 82.3139C80.6153 82.555 90.9641 81.9459 92.2909 81.9185C93.8265 81.2152 93.9907 61.5052 92.8242 61.946Z" fill="#E8EAEB"/>
<path id="Vector_8" d="M133.701 18.7156C133.108 19.0292 130.998 17.6615 131.834 17.1152C132.01 16.9662 132.909 15.9212 133.112 15.7446C133.297 15.5846 135.329 16.8219 134.932 17.3741C134.815 17.537 133.701 18.7156 133.701 18.7156Z" fill="#463276"/>
<path id="Vector_9" d="M130.144 10.4631C132.443 9.05439 136.303 8.27796 138.287 10.449C135.678 11.0595 132.866 11.8031 131.099 13.8686C130.087 12.8485 128.017 11.9064 130.144 10.4631Z" fill="#947EC6"/>
<path id="Vector_10" d="M138.286 10.4515C141.471 13.1503 138.848 20.6272 135.67 17.9253C134.051 16.8146 132.495 15.0535 131.097 13.8711C130.937 11.8078 134.315 9.65204 136.928 9.99766C137.31 10.0482 137.991 10.2021 138.286 10.4515Z" fill="#7946C6"/>
<path id="Vector_11" d="M136.092 18.2267C136.092 18.2267 136.271 18.2413 136.8 18.0491C141.373 16.3848 138.89 11.1094 138.89 11.1094C138.979 11.1328 139.488 11.6754 139.894 12.2787C141.27 14.3216 141.637 16.4957 140.086 18.3433C138.468 20.2697 137.814 19.7535 136.092 18.2267Z" fill="#453075"/>
<path id="Vector_12" d="M96.145 27.6915C95.4433 29.3316 94.2928 30.7484 93.0848 32.0078C91.3949 33.7696 86.5841 32.2225 86.1467 31.4529C85.5158 30.3427 84.8886 29.3107 84.1961 28.2594C83.0031 26.8372 84.3997 25.7839 85.4492 24.771C86.178 24.0278 87.1415 23.5487 87.5331 22.5404C88.4511 20.1966 89.3337 17.7802 90.6024 15.5837C92.2393 12.0835 93.7309 13.5445 92.6734 16.6932C92.6734 16.6932 91.5693 20.1066 91.6968 21.8559C93.5546 23.0434 96.5238 25.217 96.145 27.6915Z" fill="#FFF3E5"/>
<path id="Vector_13" d="M75.9811 30.8928C71.5179 35.2508 60.3921 36.3811 56.275 34.3778C55.0595 33.7864 55.2146 32.0008 56.5106 31.6174C61.0674 30.2692 81.7134 22.0676 81.5779 18.5664C81.7462 22.9153 79.4335 27.8553 75.9811 30.8928Z" fill="#FCDE98"/>
<path id="Vector_14" d="M108.181 39.5625C108.678 40.0895 109.176 40.6164 109.674 41.1434C108.878 41.9059 106.243 43.8886 105.663 43.0983C105.076 42.2992 107.157 40.4256 108.181 39.5625Z" fill="#463175"/>
<path id="Vector_15" d="M83.3555 39.7002C83.6078 40.0421 86.5772 33.5523 86.5836 32.2734C86.5836 32.2734 91.4115 33.1688 87.551 41.5355L83.3555 39.7002Z" fill="#FFF3E5"/>
<path id="Vector_16" d="M145.48 108.664C146.823 109.045 148.074 109.682 149.349 110.241C147.961 113.698 144.975 116.666 143.298 120.08C141.283 124.9 139.505 122.961 135.64 121.557C134.45 120.919 132.816 120.196 132.816 120.196C133.671 119.357 135.565 112.465 135.625 115.17C135.206 117.684 137.715 121.349 140.372 120.297C143.384 118.648 146.795 111.861 146.868 111.631C147.42 109.902 144.653 110.47 143.528 110.408C143.393 109.443 144.481 108.365 145.48 108.664Z" fill="#8AA0BC"/>
<path id="Vector_17" d="M103.394 8.05019C102.605 3.38897 110.762 0.514711 109.195 2.90037C108.685 3.67613 107.462 4.01784 106.709 4.71064C104.525 6.71997 103.841 10.3804 103.394 8.05019Z" fill="#7946C6"/>
<path id="Vector_18" d="M101.839 5.82191C99.3239 5.48168 103.227 0.820102 104.358 0.269831C106.193 -0.622657 107.654 -0.186982 105.382 1.20173C103.476 2.3663 102.97 6.00093 101.839 5.82191Z" fill="#7946C6"/>
<path id="Vector_19" d="M87.4061 10.2805C87.1436 9.32942 86.6396 3.59491 88.5005 6.25049C88.9494 7.52051 91.4093 16.1345 88.0953 13.3443C87.613 12.4506 87.623 11.308 87.4061 10.2805Z" fill="#7946C6"/>
<path id="Vector_20" d="M112.247 42.8888C104.523 39.1973 102.233 28.8105 106.304 21.5936C107.693 19.1668 109.047 17.4725 112.132 15.4356C112.676 15.0762 115.49 13.7342 117.275 13.2134C118.08 12.9785 118.924 12.8676 119.777 12.7945C122.288 12.7066 124.761 12.8675 127.002 13.7766C127.408 13.9079 129.147 14.7628 129.766 15.184C129.766 15.184 129.864 15.5032 128.622 15.3957C124.354 13.7479 119.949 13.6104 115.664 15.1905C103.629 20.5022 103.111 34.8863 112.247 42.8888Z" fill="#947EC6"/>
<path id="Vector_21" d="M173.676 99.0605C173.676 99.0605 162.607 111.178 163.009 106.384C163.308 102.81 168.49 96.985 173.676 99.0605Z" fill="#E7F1FC"/>
<path id="Vector_22" d="M88.7932 42.4542C88.2561 42.4812 88.1053 41.9609 87.7558 41.7213C87.4779 41.4008 87.282 41.6142 87.6498 41.0046C88.8258 39.0558 89.0766 36.4633 88.4527 34.169C88.1821 33.2886 86.5762 33.2851 86.5745 32.4103C86.5739 32.0856 86.1465 31.4543 86.1465 31.4543C87.0188 31.7759 87.4431 31.4991 87.5412 30.7605C87.5628 29.8595 87.098 28.6205 86.668 27.8988C86.5264 27.6537 86.535 27.4231 86.7137 27.1887C87.2568 26.4876 89.203 24.3066 89.066 22.9014C89.1282 22.1159 90.4034 22.4352 90.2896 22.9633C89.8642 24.2098 89.2727 25.3969 88.7712 26.6146C88.3874 27.6331 88.0397 28.9905 88.7267 29.9421C88.8309 30.0527 88.8369 30.1686 88.8205 30.3211C88.7355 31.0289 88.7067 32.005 89.4158 32.3958C90.899 33.2133 92.2447 32.4075 92.6336 32.0846C92.741 31.9956 92.8908 32.0015 92.9712 32.1183C92.9712 32.1183 92.0422 33.1048 91.7468 33.5967C91.3431 34.2689 91.0147 34.9503 90.7923 35.7025C90.2219 37.6321 88.8409 42.3248 88.7932 42.4542Z" fill="#EECAB4"/>
<path id="Vector_23" d="M157.994 104.152C158.633 102.351 161.14 103.12 161.64 104.845C160.733 105.565 158.699 105.63 157.994 104.152Z" fill="#E7F1FC"/>
<path id="Vector_24" d="M29.1053 83.4145C28.9791 81.6652 29.197 79.9081 29.7163 78.2333C31.5424 72.3441 35.3643 63.6505 41.0779 61.3075C43.1894 60.5633 45.259 60.6657 47.2624 61.7042C46.8943 62.4359 45.573 62.1523 45.0335 62.9294C37.7246 65.5782 34.3018 76.1521 37.9948 82.7975C42.6152 90.0711 53.053 90.68 60.8882 90.5182C65.5483 90.3128 68.9922 81.8785 73.0161 84.4576C77.8228 87.5385 75.2931 95.4272 71.347 97.2887C63.2438 101.111 53.5302 98.8623 44.913 100.344C38.5979 103.087 43.7272 110.47 48.5295 111.555C43.8521 115.695 36.0081 110.467 36.7037 103.738C36.8567 102.258 38.3897 97.9135 37.5706 97.2594C32.9174 94.0219 29.504 88.9449 29.1053 83.4145Z" fill="#1D273D"/>
<path id="Vector_25" d="M78.6871 13.795C80.1838 14.6413 81.2412 16.116 81.5081 17.8176C82.4684 23.9401 74.301 30.5877 68.3196 31.5039C63.4157 32.2551 56.911 30.6194 56.1453 32.373C55.8579 33.278 56.7533 33.5474 57.2372 34.1003C49.8674 32.1846 46.5793 42.8851 41.296 44.1297C38.7531 44.7288 34.3749 45.5355 34.7491 41.0604C34.866 39.6614 36.6209 39.5928 37.0811 38.2593C38.2859 36.1469 40.4021 35.2003 42.511 34.2395C45.699 31.8655 40.7466 24.7402 50.9074 21.5727C56.9793 19.2543 63.1794 25.7391 68.6138 21.3159C72.1515 17.3274 72.1487 10.0976 78.6871 13.795Z" fill="#FBD479"/>
<path id="Vector_26" d="M159.388 105.123C162.093 103.612 161.661 104.725 161.747 106.944C161.968 107.931 162.956 106.93 163.009 106.387C164.549 106.474 166.127 106.084 167.285 105.082C167.681 104.74 167.987 104.307 168.205 103.83C169.635 100.701 172.435 99.0148 173.676 99.0635L174.262 99.4082C174.398 99.7982 166.964 111.666 166.964 111.666C166.964 111.666 164.677 116.585 160.509 114.531C154.601 111.62 157.441 109.416 159.388 105.123Z" fill="#CCDCEE"/>
<path id="Vector_27" d="M159.254 106.121C157.881 108.061 155.816 110.907 158.143 112.855C159.124 113.676 160.706 114.728 162.136 114.903C162.878 114.994 163.622 114.74 164.175 114.237C168.622 110.194 174.26 99.4102 174.26 99.4102C176.325 100.324 174.152 100.167 164.645 116.338C163.53 118.236 156.623 113.101 154.265 112.235C151.975 111.61 158.149 106.202 159.254 106.121Z" fill="#8AA0BC"/>
<path id="Vector_28" d="M70.8555 83.1222C70.8622 82.6403 71.0264 76.5314 71.0096 76.1903C71.1118 75.9187 71.3574 75.7341 71.6811 75.8972C71.7864 76.119 72.1397 76.08 72.1826 76.3232C72.2168 76.5172 72.1245 76.7303 72.113 76.9363C72.0538 77.9956 71.8032 83.3655 71.6851 83.5491C71.3622 83.4972 71.0774 83.371 70.8555 83.1222Z" fill="#666666"/>
<path id="Vector_29" d="M73.352 84.7406C68.2827 92.6078 56.1075 91.7007 48.0776 89.9649C35.8352 87.3186 33.0486 76.1578 39.6228 66.7179C41.0037 65.0135 42.8445 63.1212 45.0501 62.8538C44.6933 66.0368 54.1656 68.1774 56.6135 67.4182C61.0481 65.1546 65.2636 63.5926 67.8049 58.745C68.8121 57.2535 70.2294 59.1946 72.8484 55.5522C77.1693 50.8426 76.192 43.2048 83.6475 41.74C84.4971 41.29 85.7533 40.5924 86.3134 40.4805L87.2517 41.1389C87.6865 43.3498 87.2403 48.9728 85.4555 50.7843C82.2217 54.9345 77.2585 59.666 72.9154 62.7994L65.647 66.5848C65.3159 66.7696 65.2163 67.0527 65.2163 67.0527L65.3743 68.1637C68.2114 71.3382 65.4283 70.8482 63.0057 72.3506C59.6403 74.4785 63.5464 82.0475 66.5165 82.5002C67.5092 82.7366 67.5096 81.6042 68.2118 81.8641C69.8643 82.4757 71.9869 83.2328 73.352 84.7406Z" fill="#292F73"/>
<path id="Vector_30" d="M86.3132 40.4794C84.528 43.1262 80.2235 40.2095 76.8738 48.6436C76.0696 51.4541 75.3526 58.6049 70.342 58.3016C68.5756 58.1947 68.0756 58.94 67.8047 58.7439C68.2711 57.9456 69.1419 56.5911 69.6181 55.7987C73.173 50.7296 73.1733 42.0976 79.6242 39.8616C80.2697 39.6378 80.9475 39.5221 81.6302 39.4991C83.2532 39.4444 84.9195 39.5715 86.3132 40.4794Z" fill="#475196"/>
<path id="Vector_31" d="M67.9887 45.8584C68.217 42.8952 66.0898 34.7998 66.0898 34.7998C69.4576 34.4182 71.7977 33.5865 73.6299 32.6016C74.4286 37.5609 71.4138 42.4984 67.9887 45.8584Z" fill="#BD8D45"/>
<path id="Vector_32" d="M66.0903 34.7977C61.5675 34.7929 56.6559 33.8275 52.2581 33.4062C45.0749 46.582 44.4178 36.233 40.6791 43.8758C39.6473 48.7289 42.824 51.5142 46.746 51.933C46.746 51.933 47.5282 58.7518 47.8078 62.0783C48.2716 62.3802 48.8402 62.8302 49.0178 63.004C50.1199 64.0823 51.479 64.7956 52.768 65.5957C53.7792 66.2233 55.0477 66.4772 56.2505 66.4494C56.2505 66.4494 55.9859 60.5738 55.9826 59.114C55.9826 59.1037 55.9829 59.0935 55.9831 59.0832C66.2003 63.5147 71.0319 44.8613 66.0903 34.7977Z" fill="#FFF3E5"/>
<path id="Vector_33" d="M59.4074 66.0244C58.4119 68.4092 53.9491 67.9233 51.8715 67.3415C49.8293 66.7697 47.6819 66.1215 45.842 64.965C43.3338 63.3651 45.5352 60.9434 47.2629 61.702C47.2629 61.702 55.5559 66.9822 59.4074 66.0244Z" fill="#475196"/>
<path id="Vector_34" d="M159.126 106.115C158.295 106.765 157.516 107.471 156.748 108.197C153.7 109.22 150.481 107.367 147.603 106.463C133.01 100.9 113.858 99.3924 101.696 110.845C90.5497 116.572 76.2063 122.05 63.0517 119.589C60.4926 118.858 58.0482 117.162 55.8301 115.621C57.2056 108.98 61.5743 103.348 67.7618 100.568C68.106 100.343 68.3626 100.558 68.6259 100.82C70.2262 105.489 76.4087 106.162 80.6773 106.489C94.4 105.855 107.265 99.4277 120.89 98.139C134.042 97.0895 147.57 100.289 159.126 106.115Z" fill="#EA9C47"/>
<path id="Vector_35" d="M62.8652 119.535C71.7506 120.67 81.0572 119.34 89.4787 115.929C95.5931 113.9 101.239 110.066 107.896 110.989C114.844 116.709 124.65 116.444 133.181 116.125C133.754 116.113 135.269 115.462 134.856 116.345C134.141 117.87 133.371 121.361 131.258 121.276C126.43 120.572 121.584 119.835 116.694 119.845C98.7493 118.523 80.4579 125.179 62.8652 119.535Z" fill="#AF6A1D"/>
<path id="Vector_36" d="M101.694 110.848C104.373 108.422 107.652 106.003 111.748 104.463C119.066 101.712 126.214 101.448 133.905 102.602C137.925 103.294 141.911 104.247 145.758 105.614C149.332 106.75 152.89 108.775 156.746 108.2C155.739 109.435 154.45 112.45 153.979 112.441C153.237 112.428 150.013 110.551 149.348 110.241C126.051 99.4074 101.592 110.955 101.694 110.848Z" fill="#AF6A1D"/>
<path id="Vector_37" d="M113.428 75.7623C113.42 75.7634 89.2269 84.5436 91.9427 80.9871C93.2703 79.2485 89.2283 75.5908 89.2218 75.5846C87.2544 73.7513 84.0223 72.5777 81.1703 73.3949C81.1471 73.4015 74.1541 76.0468 73.1788 76.1909C72.8111 76.2452 72.6544 75.7382 72.9876 75.573C81.3397 71.4308 101.4 65.007 101.463 65.0235C103.064 65.4404 113.428 75.7623 113.428 75.7623Z" fill="#D9D9D9"/>
<path id="Vector_38" d="M48.5303 111.555C44.081 111.004 38.9539 104.386 43.5509 100.902C45.5748 99.2181 50.4774 99.3106 50.4774 99.3106C60.0765 99.45 68.2757 98.222 71.5533 97.0547C70.9558 99.0835 62.6493 99.1136 63.6374 101.345C55.3144 104.144 54.1735 104.255 48.5303 111.555Z" fill="#292F73"/>
<path id="Vector_39" d="M90.0719 81.4411L113.426 75.7617C113.426 75.7617 114.626 76.7159 109.677 78.1628C109.677 78.1628 79.7013 86.87 90.0719 81.4411Z" fill="#666666"/>
<g id="Group">
<path id="Vector_40" d="M92.8458 79.4092C91.0206 77.6209 86.413 72.7979 85.617 71.5952C85.5808 71.5405 85.6561 71.4813 85.7006 71.5295C86.6679 72.5787 91.1875 77.4134 92.9375 79.3204C92.9936 79.3814 92.905 79.4672 92.8458 79.4092Z" fill="#999999"/>
<path id="Vector_41" d="M91.3672 79.8193C89.5421 78.0311 84.9344 73.2081 84.1384 72.0053C84.1023 71.9507 84.1776 71.8915 84.2221 71.9396C85.1894 72.9888 89.709 77.8236 91.459 79.7305C91.5151 79.7916 91.4265 79.8774 91.3672 79.8193Z" fill="#999999"/>
<path id="Vector_42" d="M90.1856 80.3701C88.3604 78.5818 83.7528 73.7588 82.9568 72.5561C82.9206 72.5014 82.996 72.4423 83.0404 72.4904C84.0077 73.5396 88.5274 78.3744 90.2774 80.2813C90.3334 80.3424 90.2448 80.4281 90.1856 80.3701Z" fill="#999999"/>
<path id="Vector_43" d="M84.5385 83.2906C83.0439 81.2168 79.3233 75.6776 78.7433 74.3565C78.7169 74.2964 78.8013 74.251 78.8369 74.306C79.6117 75.505 83.2437 81.0409 84.644 83.2187C84.6889 83.2885 84.587 83.3578 84.5385 83.2906Z" fill="#999999"/>
<path id="Vector_44" d="M84.844 76.7227C84.0449 75.9275 82.0136 73.7811 81.6627 73.2439C81.6547 73.2318 81.6041 73.1243 81.6795 73.0895C81.7743 73.0456 81.8262 73.1093 81.8359 73.1201C82.26 73.5872 84.2534 75.7393 85.0206 76.5883C85.0325 76.6015 85.0651 76.7259 85.023 76.7586C84.978 76.7935 84.8574 76.736 84.844 76.7227Z" fill="#999999"/>
<path id="Vector_45" d="M80.3576 79.7382C79.7746 78.7726 78.3228 76.1969 78.1121 75.5904C78.1074 75.5767 78.0842 75.4602 78.1658 75.4447C78.2684 75.4251 78.3033 75.4995 78.3102 75.5124C78.6087 76.0686 80.0223 78.6407 80.5615 79.6508C80.5698 79.6665 80.5713 79.7951 80.5226 79.8165C80.4705 79.8395 80.3674 79.7544 80.3576 79.7382Z" fill="#999999"/>
<path id="Vector_46" d="M78.8849 80.4765C78.3019 79.5109 76.8501 76.9352 76.6395 76.3287C76.6347 76.315 76.6116 76.1985 76.6931 76.1829C76.7958 76.1634 76.8306 76.2378 76.8375 76.2506C77.1361 76.8068 78.5497 79.379 79.0888 80.3891C79.0972 80.4047 79.0987 80.5333 79.0499 80.5548C78.9979 80.5778 78.8947 80.4927 78.8849 80.4765Z" fill="#999999"/>
</g>
<path id="Vector_47" d="M91.2226 81.1213C90.1954 84.0453 86.4799 87.3271 83.6225 88.4372C82.2394 88.9745 77.328 89.9854 75.9716 89.8067C75.7767 89.7811 75.6455 89.7207 75.6455 89.7207C75.6064 88.2946 75.3691 87.5957 75.3691 87.5957C76.2024 84.5672 83.0871 83.4944 90.9615 80.5352C90.9615 80.5352 91.3693 80.8112 91.2226 81.1213Z" fill="#EECAB4"/>
<path id="Vector_48" d="M85.0244 9.7372C85.7609 10.7733 88.807 14.3634 85.8709 14.1803C84.4368 13.5818 81.5676 7.08976 85.0244 9.7372Z" fill="#7946C6"/>
<path id="Vector_49" d="M123.105 44.6081C123.801 44.425 124.496 44.2418 125.191 44.0586C125.473 45.1206 125.936 48.3767 124.973 48.506C123.999 48.6367 123.366 45.9175 123.105 44.6081Z" fill="#463175"/>
<path id="Vector_50" d="M41.1105 43.0237C39.6848 46.4387 41.861 51.4591 46.2907 51.2789L46.7565 51.2572L47.1137 55.2189C47.1137 55.2189 45.7079 55.3018 43.8558 54.9357C37.7679 53.5965 33.7904 47.1532 34.7473 41.082C35.8557 43.6221 38.4275 44.1731 41.1105 43.0237Z" fill="#BD8D45"/>
<path id="Vector_51" d="M50.7008 21.6367C41.8728 30.397 48.6451 32.1533 41.5887 34.8913C38.3865 36.1339 37.3035 40.3282 34.791 40.8019C35.4099 37.056 38.5509 32.3945 40.982 30.0733C40.6022 25.5411 46.7856 22.8408 50.7008 21.6367Z" fill="#FCDE98"/>
<path id="Vector_52" d="M72.6842 14.4492C73.1978 15.9709 71.3557 19.5247 70.3484 20.7092C67.0931 24.5372 61.2001 23.1426 57.6973 21.6275C57.6973 21.6275 64.6317 22.3641 68.0869 19.5149C69.672 18.2077 71.2237 16.2528 72.6842 14.4492Z" fill="#BD8D45"/>
<path id="Vector_53" d="M159.126 106.115C154.903 104.632 150.801 102.554 146.495 101.18C137.907 98.7197 128.845 97.5893 119.951 98.4332C114.948 98.6354 90.46 106.001 82.7952 106.654C78.7071 106.858 74.5285 106.304 71.0029 104.086C69.7979 103.377 68.4332 102.4 68.6257 100.82C70.1637 101.76 71.8884 102.372 73.6278 102.819C81.1942 104.369 88.513 101.236 95.5859 98.9458C100.703 97.3074 105.911 95.9069 111.232 95.1243C124.012 93.2022 137.419 93.6911 149.285 99.2811C150.377 99.8167 158.312 103.321 159.387 105.12C159.589 105.459 159.495 105.947 159.126 106.115Z" fill="#FCCA95"/>
<path id="Vector_54" d="M129.638 15.1662C129.68 15.1772 129.723 15.1834 129.766 15.1849C131.434 16.4142 133.223 17.8388 134.38 19.6375C138.836 28.1849 133.869 41.4919 125.192 44.1306C118.83 46.0651 115.339 44.3236 112.248 42.8896C104.762 36.8628 103.15 25.7522 110.3 18.6114C115.562 12.867 122.931 13.5344 129.638 15.1662Z" fill="#7946C6"/>
<path id="Vector_55" d="M92.7389 52.6534L72.9141 62.7973C72.9141 62.7973 73.4913 61.4757 73.7782 61.0312C74.8855 59.3161 75.6634 58.5256 77.1362 57.1258C80.865 53.8647 84.8132 50.4698 86.8365 45.823C87.4365 44.4919 86.5544 42.4035 87.2504 41.1367C87.5741 41.414 88.4856 42.1662 88.7912 42.4514C90.8317 44.356 90.253 46.5805 90.7089 48.7509C91.1592 50.8954 92.7621 52.56 92.7389 52.6534Z" fill="#1D273D"/>
<path id="Vector_56" d="M100.879 65.4341L83.3445 71.2651L82.7148 70.0556C88.7117 66.8311 89.096 67.081 95.9222 63.8327C97.1091 63.4853 105.507 59.1783 106.762 59.3363C108.016 63.3268 103.637 64.395 100.879 65.4341Z" fill="#453075"/>
<path id="Vector_57" d="M127.49 43.142C132.386 38.2908 136.485 31.0808 135.36 23.5349C135.247 22.7767 135.539 22.7383 135.539 22.7383C138.366 30.4222 134.803 39.7081 127.49 43.142Z" fill="#453075"/>
<path id="Vector_58" d="M67.7991 100.674L63.5648 101.104C63.2269 98.6857 71.4677 97.7226 73.2647 95.8008C73.2647 95.8008 76.2964 100.541 67.7991 100.674Z" fill="#475196"/>
<path id="Vector_59" d="M151.586 17.9993C151.477 19.8604 149.976 21.7521 149.527 19.1891C149.395 17.1245 148.138 15.6025 147.531 13.7428C147.247 12.8723 148.323 12.551 148.959 12.9311C150.921 14.104 151.586 15.8863 151.586 17.9993Z" fill="#7946C6"/>
<path id="Vector_60" d="M93.561 86.6072C94.9374 86.5138 102.61 87.093 99.548 88.824C97.7777 89.8247 86.2255 87.2313 93.561 86.6072Z" fill="#7946C6"/>
<path id="Vector_61" d="M147.284 18.4469C147.35 20.7296 145.299 22.3454 145.377 20.3646C145.61 14.4546 142.994 15.8779 143.962 14.8678C145.625 13.1328 147.35 16.216 147.284 18.4469Z" fill="#7946C6"/>
<path id="Vector_62" d="M100.33 58.6029C100.33 58.6029 99.9537 59.47 99.4442 58.9938L95.9473 52.3858C95.9473 52.3858 97.7673 51.3379 98.089 51.9494C99.0495 53.7754 99.8399 56.6001 100.33 58.6029Z" fill="#D9D9D9"/>
<path id="Vector_63" d="M89.6029 90.1346C89.9938 88.2333 94.1726 92.4275 93.6803 93.1503C92.3705 95.0736 89.4078 91.5095 89.6029 90.1346Z" fill="#7946C6"/>
<path id="Vector_64" d="M113.27 43.3604C113.281 43.3028 113.292 43.2084 113.416 43.2411C116.157 43.964 119.207 44.4169 122.035 44.3052C122.232 44.2973 122.619 44.7435 122.424 44.7801C117.488 45.7097 113.27 43.3604 113.27 43.3604Z" fill="#4A3578"/>
<path id="Vector_65" d="M102.322 64.9141C102.109 65.0184 100.94 65.3914 100.746 65.4809C104.266 66.4248 106.814 70.183 109.82 72.2398C109.82 72.2398 102.871 65.6047 102.322 64.9141Z" fill="#666666"/>
<path id="Vector_66" d="M125.809 62.2072C125.913 62.2042 125.92 62.052 125.817 62.0411C124.049 61.8532 119.936 61.6086 116.676 60.0926C114.168 58.9451 111.504 57.6863 108.739 58.1744C107.375 58.4151 109.156 57.7745 109.86 57.7344C115.158 57.2754 120.781 61.1965 124.134 60.7003C124.269 60.6804 124.263 60.484 124.127 60.4719C117.948 59.9174 112.376 55.6051 105.996 58.1643C103.972 58.9762 104.173 60.3775 105.869 60.0056C111.202 55.4025 115.489 62.5083 125.809 62.2072Z" fill="black"/>
<path id="Vector_67" d="M90.5844 80.8977C87.8407 83.1078 85.1613 86.642 81.2034 87.1491C78.8967 87.2725 75.369 87.5956 75.369 87.5956C75.202 86.3606 72.6621 84.0895 72.6621 84.0895C75.1426 81.8464 76.7927 77.3129 79.8414 75.9844C81.4955 77.5531 76.8264 81.1135 76.7934 82.1849C79.691 81.7762 82.951 82.5155 85.6444 80.6923C87.3655 79.5384 89.0064 77.9063 91.1502 77.675C93.2806 78.2823 91.6474 80.0803 90.5844 80.8977Z" fill="#FFF3E5"/>
<path id="Vector_68" d="M52.2585 33.4069C50.7626 36.2521 49.1224 39.9981 46.4432 41.6417C46.1407 41.0421 44.8738 40.6569 43.8652 40.6845C43.8652 40.6845 47.9927 37.2118 49.3212 35.5846C50.5349 34.098 51.0355 33.3357 52.2585 33.4069Z" fill="#BD8D45"/>
<path id="Vector_69" d="M47.3096 78.8098C46.1498 78.8134 43.0303 74.2284 45.6149 75.7258C48.3545 77.3131 51.79 75.411 54.78 75.7391C59.2628 75.3231 62.3666 71.5167 66.5481 70.1641C67.2891 70.6785 71.0104 76.1874 71.0104 76.1874C68.6932 76.3328 64.1659 77.9498 65.188 81.0024C63.0015 81.0026 60.7333 79.5603 58.4561 79.3695C54.8956 78.2767 50.7274 80.1751 47.3096 78.8098Z" fill="#1D273D"/>
<path id="Vector_70" d="M47.3853 78.8081C47.551 78.8003 47.7173 78.8143 47.8805 78.8437C51.3549 79.4703 52.1259 79.1787 53.5224 78.8202C58.3818 77.8012 61.9083 79.798 63.4693 80.3716C63.6034 80.4208 65.1888 81.0057 65.1888 81.0057C65.9578 81.2344 66.6697 81.2619 68.2136 81.8631C68.1 82.0088 67.9973 82.452 67.545 82.6332C67.4195 82.6835 67.2836 82.7011 67.1486 82.6948C66.6202 82.67 65.1384 82.5214 64.4308 82.3568C62.8867 82.0187 58.1459 81.6304 57.1113 81.5989C56.6757 81.5856 53.2689 81.7238 52.2754 81.7355C47.8186 81.5307 47.1751 80.3628 47.06 79.6641C47.0149 79.6131 46.9047 78.8493 47.3104 78.8131C47.3353 78.8109 47.3603 78.8093 47.3853 78.8081Z" fill="#475196"/>
<path id="Vector_71" d="M71.6796 75.8998C71.4215 75.8656 71.008 76.1928 71.008 76.1928C67.6222 72.2133 65.3031 68.433 65.1356 68.1083C64.5616 66.9958 65.5985 66.6624 65.6455 66.5859C65.6704 66.7681 65.3262 66.9107 65.4228 67.0784C66.2844 68.5754 67.1252 70.086 68.1908 71.4525C68.7705 72.1959 69.3728 72.9216 69.9567 73.6618C70.2986 74.0952 70.6221 74.5431 70.958 74.9813C71.1949 75.2902 71.4388 75.5938 71.6796 75.8998Z" fill="#D9D9D9"/>
<path id="Vector_72" d="M55.9835 59.084L56.0722 62.1577C53.9288 61.9566 51.819 60.6451 50.7558 58.6C50.3608 57.8565 49.0334 54.5458 50.5123 55.072C52.1989 56.9169 53.6629 58.1111 55.9835 59.084Z" fill="#EECAB4"/>
<path id="Vector_73" d="M106.785 110.879C110.034 110.882 114.515 110.858 117.697 111.115C119.834 111.287 134.7 113.465 135.202 113.627C136.747 114.127 135.259 115.626 134.855 116.347C131.359 116.475 127.965 116.758 124.466 116.273C118.737 116.012 111.095 115.101 106.785 110.879Z" fill="#EA9C47"/>
<path id="Vector_74" d="M135.627 115.168C140.195 111.255 137.283 116.841 139.235 115.573C142.4 115.46 142.408 112.194 143.536 110.281C144.932 110.107 148.284 109.911 146.861 112.167C145.27 114.689 143.716 118.697 140.626 120.334C139.995 120.669 139.264 120.785 138.567 120.626C136.345 120.119 135.214 117.399 135.627 115.168Z" fill="#CCDCEE"/>
<path id="Vector_75" d="M143.535 110.282C142.946 112.369 142.072 116.09 139.234 115.575C140.188 113.944 140.403 111.969 141.709 110.537C142.377 109.905 144.283 108.774 144.716 108.68C144.716 108.68 143.385 109.523 143.535 110.282Z" fill="#E7F1FC"/>
<path id="Vector_76" d="M100.031 77.0107C98.2061 75.2225 93.5985 70.3995 92.8025 69.1967C92.7663 69.1421 92.8417 69.0829 92.8861 69.1311C93.8534 70.1802 98.3731 75.015 100.123 76.9219C100.179 76.983 100.091 77.0688 100.031 77.0107Z" fill="#999999"/>
<path id="Vector_77" d="M96.0254 78.3545C94.2003 76.5662 89.5926 71.7432 88.7966 70.5405C88.7605 70.4858 88.8358 70.4266 88.8803 70.4748C89.8476 71.524 94.3672 76.3587 96.1172 78.2657C96.1733 78.3268 96.0847 78.4125 96.0254 78.3545Z" fill="#999999"/>
<path id="Vector_78" d="M101.484 76.5225C99.6592 74.7342 95.0516 69.9112 94.2556 68.7084C94.2194 68.6538 94.2948 68.5946 94.3392 68.6428C95.3066 69.6919 99.8262 74.5267 101.576 76.4336C101.632 76.4947 101.544 76.5805 101.484 76.5225Z" fill="#999999"/>
<path id="Vector_79" d="M104.492 74.9778C102.496 73.3834 97.4259 69.0515 96.5127 67.9355C96.4712 67.8848 96.5403 67.8183 96.5893 67.8617C97.6574 68.8076 102.641 73.1601 104.574 74.8801C104.636 74.9352 104.557 75.0295 104.492 74.9778Z" fill="#999999"/>
<path id="Vector_80" d="M102.343 74.9067C100.636 73.4352 96.3012 69.4434 95.5243 68.4221C95.489 68.3757 95.5494 68.3171 95.5913 68.357C96.5041 69.228 100.764 73.2368 102.416 74.8203C102.469 74.871 102.399 74.9545 102.343 74.9067Z" fill="#999999"/>
<path id="Vector_81" d="M93.4231 78.0995C91.8249 76.5091 87.7867 72.2165 87.0848 71.1421C87.0529 71.0932 87.1173 71.0391 87.1563 71.082C88.0045 72.0162 91.9668 76.3204 93.5014 78.0184C93.5506 78.0728 93.475 78.1511 93.4231 78.0995Z" fill="#999999"/>
<path id="Vector_82" d="M107.316 74.1379C105.32 72.5436 100.25 68.2117 99.337 67.0957C99.2955 67.0449 99.3645 66.9784 99.4135 67.0219C100.482 67.9677 105.465 72.3203 107.398 74.0403C107.46 74.0954 107.381 74.1897 107.316 74.1379Z" fill="#999999"/>
<path id="Vector_83" d="M106.101 74.6614C104.105 73.067 99.0352 68.7351 98.1221 67.6191C98.0806 67.5684 98.1496 67.5019 98.1987 67.5453C99.2668 68.4912 104.25 72.8437 106.184 74.5637C106.246 74.6188 106.166 74.7131 106.101 74.6614Z" fill="#999999"/>
<path id="Vector_84" d="M106.834 29.085C106.81 13.1416 130.355 9.3077 133.509 25.7703C136.382 44.9802 107.352 49.5679 106.834 29.085Z" fill="#453075"/>
<path id="Vector_85" d="M93.1214 54.2356C93.3141 55.2716 94.9241 59.0308 95.5016 60.6518C95.5605 60.8172 95.8472 60.7638 95.7996 60.5949C95.3474 58.9898 93.9861 55.1248 93.3318 54.1499C93.2612 54.0448 93.0982 54.111 93.1214 54.2356Z" fill="#B5B5B5"/>
<path id="Vector_86" d="M91.7347 54.8801C91.9274 55.9161 93.5374 59.6753 94.1149 61.2964C94.1738 61.4617 94.4605 61.4084 94.4129 61.2394C93.9607 59.6343 92.5994 55.7693 91.9451 54.7944C91.8745 54.6893 91.7115 54.7556 91.7347 54.8801Z" fill="#B5B5B5"/>
<path id="Vector_87" d="M90.5061 55.7239C90.6988 56.7599 92.3089 60.5191 92.8864 62.1401C92.9453 62.3055 93.2319 62.2521 93.1843 62.0831C92.7321 60.4781 91.3709 56.6131 90.7166 55.6382C90.646 55.5331 90.483 55.5993 90.5061 55.7239Z" fill="#B5B5B5"/>
<path id="Vector_88" d="M83.764 58.6653C83.9566 59.7013 85.5667 63.4605 86.1442 65.0815C86.2031 65.2469 86.4898 65.1935 86.4421 65.0245C85.9899 63.4195 84.6287 59.5545 83.9744 58.5796C83.9038 58.4745 83.7408 58.5407 83.764 58.6653Z" fill="#B5B5B5"/>
<path id="Vector_89" d="M82.3753 59.2981C82.568 60.3341 84.178 64.0933 84.7555 65.7143C84.8144 65.8797 85.1011 65.8263 85.0535 65.6573C84.6013 64.0523 83.24 60.1873 82.5857 59.2124C82.5152 59.1073 82.3521 59.1735 82.3753 59.2981Z" fill="#B5B5B5"/>
<path id="Vector_90" d="M69.4709 66.3819C69.9647 67.6586 72.8763 72.0728 73.9883 74.0042C74.1017 74.2013 74.3051 74.0794 74.2047 73.875C73.2507 71.9339 70.6186 67.3249 69.5726 66.237C69.4598 66.1197 69.4115 66.2284 69.4709 66.3819Z" fill="#B5B5B5"/>
<path id="Vector_91" d="M81.1468 60.1458C81.3395 61.1818 82.9495 64.941 83.527 66.562C83.5859 66.7274 83.8726 66.674 83.825 66.505C83.3728 64.8999 82.0115 61.035 81.3572 60.0601C81.2866 59.9549 81.1236 60.0212 81.1468 60.1458Z" fill="#B5B5B5"/>
<path id="Vector_92" d="M89.2835 56.3137C89.4762 57.3497 91.0862 61.109 91.6637 62.73C91.7226 62.8953 92.0093 62.842 91.9617 62.673C91.5095 61.0679 90.1482 57.2029 89.4939 56.228C89.4234 56.1229 89.2603 56.1892 89.2835 56.3137Z" fill="#B5B5B5"/>
<path id="Vector_93" d="M75.3893 63.2272C75.8285 64.3703 78.3968 68.3254 79.3793 70.0555C79.4795 70.2321 79.7743 70.1104 79.6854 69.9274C78.8406 68.1889 76.5147 64.0604 75.5953 63.0848C75.4961 62.9796 75.3366 63.0898 75.3893 63.2272Z" fill="#B5B5B5"/>
<path id="Vector_94" d="M74.0456 64.2468C74.4848 65.3899 77.0531 69.3449 78.0356 71.0751C78.1358 71.2516 78.4306 71.13 78.3416 70.9469C77.4968 69.2085 75.171 65.0799 74.2515 64.1043C74.1524 63.9991 73.9928 64.1094 74.0456 64.2468Z" fill="#B5B5B5"/>
<path id="Vector_95" d="M72.9226 65.4772C73.3617 66.6203 75.93 70.5754 76.9125 72.3055C77.0127 72.4821 77.3075 72.3604 77.2186 72.1774C76.3738 70.4389 74.0479 66.3104 73.1285 65.3348C73.0293 65.2296 72.8698 65.3398 72.9226 65.4772Z" fill="#B5B5B5"/>
<path id="Vector_96" d="M71.7487 66.4069C72.1879 67.55 74.7562 71.5051 75.7387 73.2352C75.8389 73.4117 76.1337 73.2901 76.0448 73.1071C75.1999 71.3686 72.8741 67.2401 71.9547 66.2645C71.8555 66.1593 71.6959 66.2695 71.7487 66.4069Z" fill="#B5B5B5"/>
<path id="Vector_97" d="M89.688 61.084C89.7515 61.1886 89.9108 61.1123 89.8701 60.9969C89.543 60.0684 88.505 57.2292 88.2604 56.7839C88.1632 56.607 87.9713 56.6934 88.0399 56.8833C88.4006 57.8832 89.2427 60.3509 89.688 61.084Z" fill="#B8B8B8"/>
<path id="Vector_98" d="M82.7143 70.0561L82.0566 68.6447C84.8756 67.3717 101.884 57.5998 105.997 58.1641L105.712 58.2915C105.675 58.3083 105.639 58.3277 105.605 58.3509C104.997 58.7684 104.182 59.6284 105.107 59.5854C105.187 59.5817 105.254 59.6013 105.236 59.6991C105.169 60.0464 105.684 60.0764 105.915 59.9679C105.877 62.7378 85.9263 68.9814 82.7143 70.0561Z" fill="#7946C6"/>
<path id="Vector_99" d="M79.8391 75.9844C83.1226 76.0181 78.8201 80.4146 78.7769 82.0415C78.4248 82.5404 76.2253 82.6735 76.6994 81.9033C79.0528 78.0802 80.7366 78.2319 79.8391 75.9844Z" fill="#EECAB4"/>
<path id="Vector_100" d="M135.38 113.686C131.81 116.479 126.811 114.329 122.835 113.628C121.472 113.299 120.091 113.032 118.741 112.654C117.963 112.482 117.68 111.781 117.576 111.105C121.905 111.228 134.049 112.866 135.38 113.686Z" fill="#FCCA95"/>
<path id="Vector_101" d="M138.299 113.974C138.181 113.981 138.078 114.019 137.981 114.091C137.335 114.543 136.398 115.123 135.626 115.171C135.537 114.848 135.684 113.799 135.328 113.662L135.337 113.632C135.811 112.282 137.766 112.67 138.299 113.974Z" fill="#E7F1FC"/>
<path id="Vector_102" d="M119.538 31.2962C117.453 31.1558 117.488 29.6343 117.59 28.0794C116.98 27.0775 116.061 26.1328 115.891 24.9393C116.456 23.1699 118.238 25.9514 118.759 26.6197C118.976 27.0383 119.294 27.2099 119.774 27.1467C120.322 26.995 120.753 27.7684 121.259 27.4347C122.244 27.1661 128.493 22.9515 127.985 25.1509C126.287 26.5955 124.174 27.5093 122.283 28.6837C121.148 29.3452 121.261 31.321 119.538 31.2962Z" fill="#7946C6"/>
<path id="Vector_103" d="M131.317 33.6781C130.435 33.7326 129.317 33.1342 129.564 32.3162C130.211 30.1788 133.745 33.5002 131.317 33.6781Z" fill="#937DC5"/>
<path id="Vector_104" d="M109.307 26.7118C108.669 26.6358 107.655 26.3958 107.843 25.4851C108.354 23.0184 112.037 27.0349 109.307 26.7118Z" fill="#937DC5"/>
<path id="Vector_105" d="M122.81 18.176C122.618 17.0827 124.268 15.1905 124.573 16.9239C124.76 17.9855 123.117 20.3487 122.81 18.176Z" fill="#937DC5"/>
<path id="Vector_106" d="M121.305 39.476C121.353 37.7528 122.828 39.2765 122.663 40.2779C122.505 41.9269 121.316 40.5643 121.305 39.476Z" fill="#927CC4"/>
<path id="Vector_107" d="M115.87 17.4928C116.183 15.7288 118.123 18.5126 117.067 19.0212C116.333 19.3746 115.747 18.0071 115.87 17.4928Z" fill="#927CC4"/>
<path id="Vector_108" d="M128.824 21.9781C127.294 22.2205 129.816 19.074 130.056 20.7616C130.134 21.3142 129.502 21.9068 128.824 21.9781Z" fill="#917BC3"/>
<path id="Vector_109" d="M117.033 40.3451C117.234 41.1913 115.984 42.4586 115.818 41.219C115.702 40.3584 116.726 38.5393 117.033 40.3451Z" fill="#927CC4"/>
<path id="Vector_110" d="M112.781 36.712C113.052 37.3776 110.195 38.7927 110.698 37.5273C110.89 37.0464 112.381 35.6714 112.781 36.712Z" fill="#917BC3"/>
<path id="Vector_111" d="M128.368 37.5023C128.142 38.5856 126.643 37.5002 126.652 36.9735C126.679 35.3829 128.562 36.6403 128.368 37.5023Z" fill="#917CC3"/>
<path id="Vector_112" d="M110.868 21.0485C111.508 20.9025 112.586 21.989 112.155 22.5677C111.583 23.3335 109.635 21.382 110.868 21.0485Z" fill="#927CC3"/>
<path id="Vector_113" d="M108.475 32.0331C108.365 32.0258 108.256 32.0072 108.152 31.9724C106.898 31.5534 109.848 30.2273 109.897 31.2498C109.926 31.8532 109.297 32.0881 108.475 32.0331Z" fill="#917BC3"/>
<path id="Vector_114" d="M131.271 27.1544C129.758 27.0687 131.363 25.8592 132.14 26.1786C133.145 26.6401 132.081 27.163 131.271 27.1544Z" fill="#917BC2"/>
<path id="Vector_115" d="M100.332 58.6055C102.27 57.8703 104.157 56.5457 105.999 58.163C105.999 58.163 105.221 58.1498 104.514 58.359C97.1369 60.5408 89.1263 65.59 82.0578 68.6435C82.0578 68.6435 81.339 67.2137 83.4744 65.958C86.5544 64.6906 100.332 58.6055 100.332 58.6055Z" fill="#947EC6"/>
<path id="Vector_116" d="M50.2773 109.355C52.5987 105.278 56.9887 103.107 61.0609 101.671C61.0609 101.671 66.2108 100.235 68.4487 100.661C57.4714 105.779 57.9707 115.355 55.8284 115.625C55.8284 115.625 53.3199 113.674 50.2773 109.355Z" fill="#AF6A1D"/>
</g>
<defs>
<clipPath id="clip0_4902_10040">
<rect width="182" height="152" fill="white"/>
</clipPath>
</defs>
</svg>
