<svg width="56" height="56" viewBox="0 0 56 56" fill="none" xmlns="http://www.w3.org/2000/svg">
<path d="M32.2148 11.6663L29.9024 7.00845C29.1244 5.44119 26.8766 5.44119 26.0986 7.00845L24.9424 9.33739" stroke="#D4AC74" stroke-width="1.5" stroke-linecap="round" stroke-linejoin="round"/>
<path d="M35.0254 17.3301L35.9625 19.2177L39.351 19.7102" stroke="#D4AC74" stroke-width="1.5" stroke-linecap="round" stroke-linejoin="round"/>
<path d="M46.1279 20.6943L49.5164 21.1868C51.2555 21.4395 51.9486 23.5649 50.6896 24.7842L48.2381 27.1583" stroke="#D4AC74" stroke-width="1.5" stroke-linecap="round" stroke-linejoin="round"/>
<path d="M43.3353 31.9062L40.8838 34.2803L41.4623 37.6343" stroke="#D4AC74" stroke-width="1.5" stroke-linecap="round" stroke-linejoin="round"/>
<path d="M42.6201 44.3428L43.1987 47.6967C43.4959 49.4196 41.677 50.7334 40.121 49.9197L37.0908 48.3353" stroke="#D4AC74" stroke-width="1.5" stroke-linecap="round" stroke-linejoin="round"/>
<path d="M24.332 45.5001L28.0002 43.582L31.0304 45.1664" stroke="#D4AC74" stroke-width="1.5" stroke-linecap="round" stroke-linejoin="round"/>
<path d="M13.2334 45.1943L12.8017 47.6967C12.5045 49.4196 14.3234 50.7334 15.8794 49.9198L17.8564 48.886" stroke="#D4AC74" stroke-width="1.5" stroke-linecap="round" stroke-linejoin="round"/>
<path d="M14.589 37.3337L15.1155 34.2811L13.4941 32.7109" stroke="#D4AC74" stroke-width="1.5" stroke-linecap="round" stroke-linejoin="round"/>
<path d="M8.63074 28.0001L5.31041 24.7846C4.0514 23.5653 4.74451 21.4399 6.48355 21.1872L9.07527 20.8105" stroke="#D4AC74" stroke-width="1.5" stroke-linecap="round" stroke-linejoin="round"/>
<path d="M16.333 19.755L20.0369 19.2167L21.9111 15.4414" stroke="#D4AC74" stroke-width="1.5" stroke-linecap="round" stroke-linejoin="round"/>
</svg>
