<?xml version="1.0" encoding="utf-8"?>
<!-- Generator: Adobe Illustrator 27.0.1, SVG Export Plug-In . SVG Version: 6.00 Build 0)  -->
<svg version="1.1" id="Layer_1" xmlns="http://www.w3.org/2000/svg" xmlns:xlink="http://www.w3.org/1999/xlink" x="0px" y="0px"
	 viewBox="0 0 272 156" style="enable-background:new 0 0 272 156;" xml:space="preserve">
<style type="text/css">
	.st0{clip-path:url(#SVGID_00000076568183049724675430000002143398382847450301_);}
	.st1{fill:#E9D2B1;}
	.st2{fill:#947EC6;}
	.st3{fill:#D0ECF7;}
	.st4{fill-rule:evenodd;clip-rule:evenodd;fill:#CFE5A6;}
	.st5{fill:#DFF0F7;}
	.st6{fill:#B6CCD3;}
	.st7{fill:#A97C4D;}
	.st8{fill:#C19465;}
	.st9{fill:#8B643B;}
	.st10{fill:#DFBE9D;}
	.st11{fill:#CBA781;}
	.st12{fill:#D9D9D9;}
	.st13{fill:#FFFFFF;}
	.st14{fill:#B6B6B6;}
	.st15{fill:#CCDCEE;}
	.st16{fill:#E7F1FC;}
	.st17{fill:#8AA0BC;}
	.st18{fill:#292F73;}
	.st19{fill:#475196;}
	.st20{fill:#1D273D;}
	.st21{fill:#EA9C47;}
	.st22{fill:#AF6A1D;}
	.st23{fill:#FCCA95;}
	.st24{opacity:0.49;fill:#EA9C47;enable-background:new    ;}
	.st25{fill:#434343;}
	.st26{fill:#282828;}
	.st27{fill:#FFD26A;}
</style>
<g>
	<defs>
		<rect id="SVGID_1_" width="272" height="156"/>
	</defs>
	<clipPath id="SVGID_00000081616835249191552890000017755972843258342796_">
		<use xlink:href="#SVGID_1_"  style="overflow:visible;"/>
	</clipPath>
	<g style="clip-path:url(#SVGID_00000081616835249191552890000017755972843258342796_);">
		<path class="st1" d="M228.5,29.4c29.6,13.1,42.4,29.4,43.4,40.1c1.1,11.2-3.7,41.9-38.1,41.1c-27.4-0.6-32.7-11.8-47.8-11.3
			c-23.9,0.8-35,22.6-44.5,32.1S104,151,101,152s-34.6,5.3-46.5-5s-23.8-1.3-29-4c-5.2-2.7-21.7-7.1-24.7-22.4
			c-2.5-12.8,1.3-17.5,6.9-28.6c4.1-8.1,6-10.3,6-18.3s-1.5-19.6,16.5-35.6C43.9,26,55.7,27.6,70.6,28.5c14.9,0.9,49.3,3.4,58.3-5.5
			s20.8-5.8,28.2-2.9c7.4,2.9,16.4,15,31.9,14.5S211.4,21.9,228.5,29.4L228.5,29.4z"/>
		<path class="st2" d="M89.5,101.7c0,0.1-12.7,7.2-13.1,7.4c-0.4,0.2-3.3,1.8-3.7,2.2c-0.4,0.4-0.3,1.2,0.2,1.2
			c0.5,0,0.8-0.1,2.6-1.2s8.1-4.6,9.2-5.2c1.1-0.6,4.6-2.8,4.6-2.8l0.2-1.6"/>
		<path class="st2" d="M93,114.7c0,0-30.6,18.4-31.2,18.7c-0.6,0.4-5.8,3.5-6,3.8c-0.2,0.2-0.5,0.6-0.2,1.2c0.3,0.6,1.1,0.3,1.8-0.1
			c0.7-0.4,14.3-8.5,15.2-9.1c1-0.6,21.3-12.9,21.3-12.9L93,114.7L93,114.7z"/>
		<path class="st2" d="M146.4,119.9c0,0-14.6,8.4-15.1,8.6c-0.6,0.2-1.8,0.8-1.7,1.4c0.1,0.5,0.4,0.6,0.8,0.6s4.2-2.4,4.9-2.8
			c0.7-0.3,11.9-7.2,11.9-7.2L146.4,119.9L146.4,119.9z"/>
		<path class="st3" d="M121.5,81.9c0,0,11-5,14.2-7.9c2.8-2.5,6.2-8.6,8.2-12.9c2.2-5,8.6-17.5,24.5-18.4
			c15.9-0.8,23.5,13.9,24.3,16.1c0.8,2.2,8.9,20.2-11.6,33.1c0,0-6,3-16.3,2.3c-10.3-0.6-14.6,2.9-14.6,2.9l-6.6,2.9
			c0,0-6.7,2.9-7.9,4.4C134.5,106,121.5,81.9,121.5,81.9L121.5,81.9z"/>
		<path class="st2" d="M179.3,91.1c-1.3,0.9-17.6,11.6-18.2,11.8c-1.2,0.5-0.8,1.7,0,1.5c2.8-0.6,18.7-11.7,19.3-12.1
			c1.2-0.7,3.5-2.2,3.1-2.8C182.6,88.5,179.3,91.1,179.3,91.1z"/>
		<path class="st4" d="M184,58.2c0.4,0.1,0.8,0.4,0.9,0.9c0.3,0.8,0,1.6-0.4,2.3c-0.5,0.7-1.3,1.5-2.3,2.2c-2,1.5-4.8,3-8,4.2
			c-2.3,0.9-5,1.7-7.6,2.3c-1.5,1.6-2.8,3.2-3.6,4.6c-0.3,0.6-0.6,1.1-0.7,1.6c0.3-0.1,0.5-0.1,0.8-0.2c2.8-0.8,5.4-1.4,7.5-1.6
			c1.1-0.1,2-0.2,2.8-0.2c0.7,0,1.4,0.2,1.8,0.5c0.4,0.3,0.6,0.8,0.6,1.3c-0.1,0.5-0.3,0.9-0.6,1.2c-0.7,0.7-1.8,1.5-3,2.1
			c-1.3,0.6-2.8,1.1-4.2,1.4c-1.4,0.3-2.8,0.3-3.9,0c-1.7-0.6-2.6-1.5-2.9-2.7c0-0.1,0-0.3,0-0.4c-4.8,1.5-9.7,3.5-12.6,5.3
			c-3.3,2.1-6.7,4.9-9.3,7.3c-1.3,1.2-2.4,2.2-3.1,2.9c-0.4,0.4-0.7,0.7-0.9,0.9c-0.1,0.1-0.2,0.2-0.2,0.2l-0.1,0.1l0,0l0,0
			l-0.4-0.3c-0.4-0.3-0.4-0.3-0.4-0.3l0,0l0,0l0,0l0.1-0.1c0.1-0.1,0.1-0.1,0.2-0.2c0.2-0.2,0.5-0.5,0.9-0.9c0.8-0.8,1.8-1.8,3.1-3
			c2.6-2.4,6-5.2,9.4-7.4c3-1.9,8.2-4,13.2-5.5c0.2-0.8,0.5-1.6,1-2.4c0.7-1.2,1.7-2.5,2.8-3.7c-0.4,0.1-0.7,0.1-1.1,0.2
			c-1.6,0.3-3.2,0.4-4.4,0.2c-0.5-0.1-0.9-0.2-1.3-0.3c-1.2,0.9-2.6,1.7-3.9,2.6c-4.2,2.7-8.8,5.4-12.1,7.2
			c-3.3,1.8-6.8,3.3-9.4,4.3c-1.3,0.5-2.4,0.9-3.2,1.2c-0.4,0.1-0.7,0.2-0.9,0.3c-0.1,0-0.2,0.1-0.2,0.1l-0.1,0l0,0l0,0
			c0,0,0,0-0.1-0.5l-0.1-0.5l0,0l0,0l0.1,0c0.1,0,0.1,0,0.2-0.1c0.2-0.1,0.5-0.2,0.9-0.3c0.8-0.3,1.9-0.7,3.2-1.2
			c2.6-1,6-2.5,9.3-4.3c3.2-1.8,7.8-4.5,12-7.2c1.2-0.8,2.4-1.6,3.5-2.3c-0.2-0.2-0.3-0.4-0.5-0.6c-0.8-1.7-0.2-3.6,0.9-5.2
			c1.2-1.7,3-3.2,5.1-4.1c1-0.5,2-0.7,2.7-0.8c0.7,0,1.5,0.2,1.8,0.8c0.3,0.6,0.1,1.4-0.3,2.3c-0.5,0.9-1.3,2-2.5,3.2
			c-1.2,1.2-3,2.7-5.2,4.2c0.1,0,0.3,0,0.4,0.1c1.1,0.1,2.5,0.1,4.1-0.2c0.8-0.1,1.6-0.3,2.4-0.5c1.1-1.2,2.3-2.4,3.5-3.6
			c2.9-2.8,6.3-5.1,9.2-6.4c1.4-0.6,2.7-1.1,3.8-1.2C183.1,58.1,183.6,58.1,184,58.2z M168,68.8c2-0.5,4.1-1.2,5.9-1.9
			c3.1-1.2,5.8-2.6,7.7-4c0.9-0.7,1.6-1.4,2-2c0.4-0.6,0.5-1.1,0.3-1.4c0-0.1-0.1-0.2-0.3-0.3c-0.2-0.1-0.5-0.1-1-0.1
			c-0.9,0.1-2.1,0.4-3.5,1.1c-2.8,1.2-6.1,3.4-8.9,6.2C169.5,67.2,168.7,68,168,68.8z M158.2,69.4c2.4-1.7,4.4-3.2,5.6-4.5
			c1.2-1.2,2-2.2,2.4-3c0.4-0.8,0.4-1.2,0.3-1.4c-0.1-0.1-0.3-0.3-0.9-0.3c-0.6,0-1.4,0.2-2.3,0.7c-1.9,0.9-3.6,2.3-4.6,3.8
			c-1.1,1.5-1.4,3-0.8,4.2C157.8,69.1,158,69.3,158.2,69.4z M162.1,77.4c0,0.2,0,0.3,0,0.5c0.1,0.8,0.7,1.5,2.2,1.9
			c0.8,0.3,2,0.3,3.4,0c1.3-0.3,2.7-0.7,3.9-1.3c1.2-0.6,2.2-1.3,2.7-1.9c0.3-0.3,0.4-0.5,0.4-0.7c0-0.1,0-0.2-0.2-0.4
			c-0.2-0.1-0.5-0.3-1.3-0.3c-0.7,0-1.5,0-2.6,0.1c-2,0.3-4.6,0.8-7.4,1.6C163,77.2,162.5,77.3,162.1,77.4z"/>
		<path class="st5" d="M169.5,42.7c1.8,0,3.5,0.2,5.1,0.6c11.6,2.6,17.3,13.7,18,15.6c0.2,0.7,1.1,2.7,1.7,5.7
			c0,0-6.4-10.8-18.1-14.9c-11.7-4.1-22.1,0.2-22.1,0.2l8.3-5.5l4.7-1.4"/>
		<path class="st5" d="M128.7,94.8c-1-1.7-2.4-4.1-3.3-5.7c0,0,11.9-4.3,13.3-1.9C140.3,90.2,128.7,94.8,128.7,94.8L128.7,94.8z"/>
		<path class="st6" d="M169.5,42.7c-0.4,0-0.8,0-1.2,0c-15.9,0.8-22.3,13.4-24.5,18.4c-1.9,4.3-5.3,10.4-8.2,12.9
			c-3.2,2.9-14.2,7.9-14.2,7.9s2.6,3.5,4,6c0,0,17.2-8.3,20.8-5.4c3.6,2.9-1.5,8.1-2.9,8.9c-1.4,0.8-9,3.1-9,3.1l-4.4,2.3
			c2.8,4.6,5.2,8.3,5.7,7.7c1.1-1.5,7.9-4.4,7.9-4.4l6.6-2.9c0,0,4.3-3.5,14.6-2.9C175,95,181,92,181,92
			c14.3-9.1,14.7-20.6,13.4-27.4c0,0-0.6,16-15.1,22.9c-14.5,6.9-18.4,0.4-19.4-0.8c-1-1.2,0.3-9-1.5-11.9c-1.8-2.9-4.9-2-4.9-2
			h-3.6c0,0-2-5.2,0.6-6.7c2.6-1.5,3.4-1.3,4.7-1.8c1.8-0.8,1.8-1.6,3.1-2c1.7-0.5,3.3-0.6,4.5-1.1c1.2-0.5,4.1-0.3,5.5-0.8
			c1.4-0.5,0.4-2.9,0.4-2.9s2.5-0.7,2.4-2.8c-0.1-2.1-0.8-1.9-0.8-1.9l-15,5.6c0,0-4.2,1-4.4-1c-0.1-2-0.9-3.8,8.3-10.1
			C164.5,43.5,169.5,42.7,169.5,42.7L169.5,42.7z"/>
		<path class="st5" d="M186.6,69.4c0,0,4.4,1.4,1.7,4.8c-2.7,3.3-8.4,2.9-9.7,1c-1.3-1.8-2-4.8,2.1-5.8
			C183.4,68.8,186.6,69.4,186.6,69.4L186.6,69.4z"/>
		<path class="st5" d="M191.5,69.7c0,0,2.9-0.6,1.2-5.5c-1.7-4.9-3.1-5-3.9-5.4c-0.8-0.4-4.6-0.2-2.5,5.5
			C188.5,70.1,191.5,69.7,191.5,69.7z"/>
		<path class="st7" d="M118.8,31.3c-2.5,0.2-9.6-1.2-14.3,1.6c-3.2,2-5.2,7.5-6.9,8.6c-1.7,1-6.1,2.1-7.6,7
			c-1.1,3.7,1.2,10.7-3.4,12.4c-4.7,1.8-9.5,1.4-8.6,5.3s8.1,5.6,10.4,5.6s9.3-0.5,13.1-7.6c3.8-7.2,6.3-7.5,8.4-7.7
			c2.1-0.2,8.7,0.7,12.8-2.6c4-3.3,8.3-10.7,8.3-10.7l3.5-5.9c0,0,1.1-3.5-3-6.6c-4-3.1-8.3,0.6-10.8,0.6
			C118.2,31.3,118.8,31.3,118.8,31.3L118.8,31.3z"/>
		<path class="st8" d="M134.5,37.3c0,0,1.1-3.5-3-6.6c-2.3-1.7-4.6-1.3-6.6-0.7c0,0,3.4,0.1,4.5,2.4c1,2.3,3.2,4.8,3.2,4.8H134.5
			L134.5,37.3z"/>
		<path class="st8" d="M94.5,48.5c3.7-1.5,5.5,0.2,9.9-1.9c3.7-1.7,4-5.5,4.3-7c0.3-1.5,2.7-5.2,7.1-6.3c5-1.2,5-2.1,5-2.1
			c-2.6,0-1.9,0-1.9,0c-2.5,0.2-9.6-1.2-14.3,1.6c-3.2,2-5.2,7.5-6.9,8.6c-1.7,1-6.1,2.1-7.6,7c-0.6,2-0.2,4.9-0.4,7.4
			C89.5,56,91.5,49.8,94.5,48.5L94.5,48.5z"/>
		<path class="st9" d="M89.4,56.9c-0.3,1.8-1,3.3-2.9,4c-3.8,1.4-7.6,1.4-8.5,3.5c0,0,0.7-1,3.1-1c2.3,0,4.2,0.6,5.8,0
			c1.6-0.6,2.3-2.2,2.4-2.8C89.6,59.4,89.4,56.9,89.4,56.9L89.4,56.9z"/>
		<path class="st8" d="M117.8,46c-6,3-9.2,3.6-11.2,4.5c-2,1-6,3.3-4.8,4.6s4.2-1.8,6.2-2.6c2.4-1,4.1-1.4,7-2.6
			c2.9-1.2,6.8-3.1,9.1-6.3c2.3-3.2,3.5-6.2,3.8-6.5c0.8-1.1,0.1-1.7-0.3-1.2c-0.4,0.5-3.3,4.2-5.1,6.5
			C120.6,44.8,117.8,46,117.8,46L117.8,46z"/>
		<path class="st9" d="M84.6,71.3c1.5,0.4,3,0.6,3.8,0.6c2.3,0,9.3-0.5,13.1-7.6c3.8-7.2,6.3-7.5,8.4-7.7c2.1-0.2,8.7,0.7,12.8-2.6
			c2.7-2.2,5.5-6.3,7.1-8.7l-0.5-6.3l0.1-6.5c0,0-0.4,2.7-2,5.5c-1.7,2.8-5,9.3-11.8,11.6c-6.8,2.3-10.8,3-15.1,9.2
			C96,65.1,96,66.3,92.6,69C89.2,71.8,84.6,71.3,84.6,71.3z"/>
		<path class="st10" d="M129.4,32.5c0,0,4,2.3,6.8,7.3c2.3,4.1,1.4,5.3,0,5.9c-0.7,0.3-2,0.5-2,0.5l-0.3,2.9l-5.1-0.3l0.2-3.6
			c0,0-0.9-0.2-1.3-0.5c0,0-1.5,2.5-3.4-0.1c-1.8-2.6-0.5-4-0.2-4.2c0.7-0.4,1.5,0.1,1.5,0.1s2.1-1.6,2.9-4.3
			C129.4,33.6,129.4,32.5,129.4,32.5L129.4,32.5z"/>
		<path class="st11" d="M133.9,48.6l0.2-2.3c0,0-1.1,0.1-2.1-0.2c-1-0.3-1.9-0.7-1.9-0.7s0.3,1.7,2.1,2.6
			C133.5,48.7,133.9,48.6,133.9,48.6z"/>
		<path class="st10" d="M156.3,32.9c0,0,0.8-0.4,0.8-1.2c0.1-0.8,0.2-1.4,0.7-1.6c0.5-0.2,1-0.3,1.6-0.8c0.7-0.5,4.5-4.2,4.8-4.4
			c0.3-0.2,1-0.6,0.8,0.4c-0.2,1.1-3.1,4-3.1,4s0.6,0,0.7,0.5c0.1,0.5-0.2,0.6-0.2,0.6s0.5,0.1,0.6,0.3c0.2,0.2,0.1,0.5,0.1,0.5
			s0.4,0,0.5,0.5c0.1,0.6-0.5,1-0.4,1.2c0.1,0.2,1,0.7,0.3,1.3c-0.7,0.5-1.5,1-2.8,1.1c-1.3,0.1-2.8,0.2-2.8,0.2L156.3,32.9z"/>
		<path class="st11" d="M162,29.3c0,0,2.9-3,3.1-4c0.2-1.1-0.5-0.7-0.8-0.4c-0.3,0.2-4.1,3.9-4.8,4.4c-0.7,0.5-1.1,0.5-1.6,0.8
			c0,0,0.5-0.2,1-0.2c0.4,0,0.7,0.1,1.2,0c0.5-0.1,1.1-0.4,1.5-0.5C162,29.3,162,29.3,162,29.3z"/>
		<path class="st10" d="M159.2,54.6c0.1,0,1.1-1,1.3-1.6c0.2-0.6,0.2-1.3,0.6-1.9c0.4-0.6,1-1.2,1.3-1.7s1-1.4,1.3-0.5
			s-0.4,1.8-0.5,2.2c-0.2,0.3-0.5,1.2,0.4,1.2c0.9,0,4.2-0.5,4.6-0.5c0.4,0,1-0.1,1.1,0.4c0,0,1.5-0.1,1.7,0.3
			c0.2,0.4,0.2,0.6-1.2,1c-1.4,0.4-4.7,1.3-4.7,1.3s3.9-0.3,4.5-0.4c0.6,0,1.1,0.2,0.9,0.5c-0.3,0.3-5.3,1.4-5.3,1.4
			s1.1,0.3,1.8,0.6c0.7,0.4,1.4,0.8,1.2,1.1c-0.3,0.3-2.4-0.6-3.1-0.7c-0.7-0.1-2.7-0.3-3.2,0c-0.6,0.3-1.5,0.8-1.5,0.8L159.2,54.6
			L159.2,54.6z"/>
		<path class="st11" d="M159.3,55.1l-0.1-0.5c0.1,0,1.1-1,1.3-1.6c0.2-0.6,0.2-1.3,0.6-1.9c0.4-0.6,1-1.2,1.3-1.7
			c0.3-0.5,1-1.4,1.3-0.5c0.3,0.9-0.4,1.8-0.5,2.2s-0.5,1.2,0.4,1.2c0,0-1.5,0.1-2,0.4C161.1,52.9,159.3,55.1,159.3,55.1z"/>
		<path class="st12" d="M133.6,58.9c0,0-3.9,3.8-5.1,6.7c-1.2,2.9,0,4.6,0,4.6l-7-4.3c0,0,9.7-10.2,9.9-10.2
			C131.5,55.8,133.6,58.9,133.6,58.9L133.6,58.9z"/>
		<path class="st13" d="M126.8,69.2l1.6,1c0,0-1.2-1.7,0-4.6c0.3-0.7,0.7-1.4,1.2-2.2c0,0-2.7,1.6-2.9,3.6S126.8,69.2,126.8,69.2z"
			/>
		<path class="st14" d="M124.4,67.7l-2.9-1.8c0,0,9.7-10.2,9.9-10.2c0.2,0.1,2.3,3.1,2.3,3.1s-0.9,0.9-2,2.2c0,0-1.4,0-3.6,2.1
			C127.2,63.9,124.4,67.7,124.4,67.7L124.4,67.7z"/>
		<path class="st15" d="M144,102.9c0,0-1.8,2-2.5,2.9c-0.7,1-1.2,1.8-1.2,1.8s0,2.4,2.1,7.1c2.1,4.7,4.2,6.3,4.2,6.3
			s3.8-0.7,3.5-4.2c-0.3-3.5-1.8-3.9-2.4-6c-0.6-2.1,0.7-5.1,0.7-5.1L144,102.9L144,102.9z"/>
		<path class="st16" d="M149.8,118.7c0.2-0.5,0.3-1.1,0.3-1.8c-0.3-3.5-1.8-3.9-2.4-6c-0.6-2.1,0.7-5.1,0.7-5.1l-1.1-0.7
			c0,0-1.9,4.5-1.6,6.4c0.4,1.9,0.9,2.7,2.2,3.8C149.1,116.3,149.8,118.7,149.8,118.7z"/>
		<path class="st17" d="M145.3,103.8l-1.3-0.9c0,0-1.8,2-2.5,2.9c-0.7,1-1.2,1.8-1.2,1.8s0,2.4,2.1,7.1s4.2,6.3,4.2,6.3
			s1.2-0.2,2.2-1c0,0-3.9-5.6-4.4-7.7c-0.5-2.1-0.1-4.3,0.2-5.4S145.3,103.8,145.3,103.8L145.3,103.8z"/>
		<path class="st18" d="M119.6,68.1c0,0-0.8,1.9-1.1,3.8c-0.3,1.9,0.4,5.8,2.2,7.5c1.8,1.7,2.7,1.7,2.7,1.7s-0.3,0.6,4.6-0.8
			c5-1.4,16.9-3.5,18.8-3.7c1.8-0.2,3.7-0.6,4.2,0.5c0.5,1.1-1.3,8.5-6.3,18.2c0,0-2.9,6.6-2.8,6.9c0.6,1,6.5,4.8,8.7,6.7
			c0,0,4.1-18.2,4.8-23.8c0.7-5.6,1.5-9.5,1.5-10.6c0-1.1,0.1-2.7-3-3.5c-3-0.9-18.1-0.7-25.2-0.6l-7-4.3L119.6,68.1L119.6,68.1z"/>
		<path class="st19" d="M149.9,70.5c-5.8-0.3-15.7-0.2-21.1-0.1l-1.9-1.2c0,0-0.1,1.1-1.3,1.6c-1.1,0.5-1.9,0.4-1.9,1
			c0,0.4,2.2,0.3,5.3,0.2c3.1,0,11.1-0.1,12.2-0.1s7,0.3,8.2-0.4C150,71.1,149.9,70.5,149.9,70.5L149.9,70.5z"/>
		<path class="st19" d="M147.6,106.6c1.2,0.9,2.3,1.7,3,2.3c0,0,4.1-18.2,4.8-23.8c0.7-5.6,1.5-9.5,1.5-10.6c0-1.1,0.1-2.7-3-3.5
			c-0.4-0.1-0.9-0.2-1.6-0.3c0,0,2.4,0.9,2.4,3.9s-2.4,16.6-4.3,22C148.6,102,147.6,106.6,147.6,106.6z"/>
		<path class="st20" d="M145.7,105.2c-1.8-1.3-3.4-2.5-3.7-3c-0.1-0.2,2.8-6.9,2.8-6.9c5-9.7,6.8-17.1,6.3-18.2
			c-0.5-1.1-2.4-0.7-4.2-0.5c-1.2,0.1-6.4,1-11.4,2c-1.2,0.2-4.6,1-3.5,0.7c0.7-0.1,11.1-3.9,14.4-4.1c3.3-0.2,5.7-0.4,6,2.7
			c0.3,3.1-2.5,10.7-3,12.6C148.8,92.5,145.7,105.2,145.7,105.2z"/>
		<path class="st20" d="M127.6,80.4c-4.5,1.2-4.1,0.7-4.1,0.7s-1,0-2.7-1.7c-1.8-1.7-2.5-5.5-2.2-7.5c0.3-1.9,1.1-3.8,1.1-3.8
			l2.2-2.1l2.6,1.6c0,0-3.5,4.7-3.4,6.4c0.1,1.7,1.3,4,4.2,5.6C126.5,80.4,127.6,80.4,127.6,80.4z"/>
		<path class="st21" d="M156.1,56.4c0,0-0.3-0.3,0-0.5c0.3-0.3,0.9-1.1,1.1-1.4c0.2-0.3,0.8-1.2,1.4-0.7c0.6,0.5,1.8,2.1,2.1,2.8
			c0.3,0.7,1.6,2.6,0.3,3c-1.2,0.4-2.2,0.6-2.7,0.3c-0.6-0.3-0.8-0.7-0.8-0.7s-6.2,4-10.6,4.2c-4.4,0.3-9.7-3.8-13.7-3.5
			c-3.8,0.2-4.5,1-5,1.3c-0.5,0.4-3.4,2.4-4.9,4.1c-1.5,1.7-5.2,5.3-7.1,6c-1.9,0.8-6.6,2.5-11.1,0.3c-2-1-3.2-2.8-2.7-3.8
			c0.7-1.4,1.3-1.7,5.7-1.7c4.4,0,5.9-0.5,7.4-1.1c1.5-0.6,4.3-2.3,5.3-3.7c1.1-1.4,2.8-4.5,3-5.3c0.3-0.8,0.7-3.6,2.2-4.3
			c1.4-0.7,1.3-0.5,1.3-0.5s-0.3-1.8,0.3-2.2c0.7-0.4,2.1-0.6,3.4-0.5c1.3,0.1,2.6,0.2,2.9,0.3c0.3,0.1,0.7,0.4,0.6,1l19.6-14.8
			c0,0-0.4-3,0.8-3.3s3.3,2.4,3.5,2.7c0.2,0.4,2.6,2.8,1.1,3.3c-1.5,0.5-2,0.8-2.7,0.4c-0.7-0.4-0.5-0.6-0.5-0.6
			s-11.5,10.2-12.6,11.2c-1.1,1-6.4,6.1-6.4,6.1s5.8,3.3,7.4,3.8c1.7,0.5,2.8,1.1,6.3-0.1C154.6,57.5,156.1,56.4,156.1,56.4
			L156.1,56.4z"/>
		<path class="st22" d="M104.7,67.2c2.4,0.5,5.1,2,6.4,2c0.9,0,4.8-0.2,8.6-4.5c3.8-4.3,5-10.2,5.2-11c0.3-1.2,1.1-1.9,1.1-1.9
			c-1.4,0.7-1.9,3.5-2.2,4.3c-0.3,0.8-2,3.9-3,5.3c-1.1,1.4-3.9,3.2-5.3,3.7c-1.5,0.6-3,1.1-7.4,1.1c-4,0-4.9,0.2-5.5,1.3
			C102.6,67.4,103.6,66.9,104.7,67.2L104.7,67.2z"/>
		<path class="st23" d="M107.2,70.7c0.6-0.1,6.4,0.1,9.4-2.1c3.3-2.5,3.2-2.8,4.4-2.8c0.8,0,1,0.9,1,0.9c-1.8,1.8-4.2,4-5.7,4.6
			c-1.8,0.8-6.3,2.4-10.7,0.5C105.5,71.8,105.1,70.9,107.2,70.7L107.2,70.7z"/>
		<path class="st22" d="M124.4,64.2c1.5-1.4,3.4-2.8,3.9-3c0.5-0.4,1.2-1.1,5-1.3c4-0.2,9.3,3.8,13.7,3.5c1.3-0.1,2.8-0.5,4.3-1
			c0,0-2.6,1-5.7-0.1c-3.1-1.1-8.8-4.5-13.1-4.2C127.1,58.4,124.4,64.2,124.4,64.2L124.4,64.2z"/>
		<path class="st22" d="M160.9,56.9c0.4,0.9,1.2,2.3,0.2,2.6c-1.2,0.4-2.2,0.6-2.7,0.3c-0.6-0.3-0.8-0.7-0.8-0.7l-0.9-1.1
			c0,0-0.4-0.8,0-0.9c0.4-0.1,2.7-0.5,3.1-0.6C160.3,56.5,160.8,56.7,160.9,56.9z"/>
		<path class="st23" d="M159.8,55c-0.4-0.6-0.8-1.1-1.2-1.3c-0.6-0.5-1.2,0.4-1.4,0.7c-0.1,0.1-0.2,0.3-0.4,0.5c0,0,0.7,0.7,1.9,0.5
			C160,55.3,159.8,55,159.8,55L159.8,55z"/>
		<path class="st23" d="M137.3,54.9c0,0,5.8,3.3,7.4,3.8c1.7,0.5,2.8,1.1,6.3-0.1c1.6-0.5,2.7-1,3.6-1.4c0,0-3.9,3.1-6.4,3.1
			c-2.4-0.1-4.9-0.5-8.5-2.7c-3.6-2.2-6.2-3.9-8-4.5c-2.5-0.8-3.5-0.7-3.7-1.3c-0.2-0.6,0.7-1.1,0.7-1.1l4.9,1.6L137.3,54.9
			L137.3,54.9z"/>
		<path class="st24" d="M154.1,33.4c0.1-0.7,0.3-1.5,0.9-1.6c0.5-0.1,1,0.2,1.6,0.6"/>
		<path class="st23" d="M138.7,46.7l13.6-10.2c0,0,0,1.4-6.4,6.3c-2.4,1.8-3.7,3-4.7,3.6C138.7,47.8,138.7,46.7,138.7,46.7
			L138.7,46.7z"/>
		<path class="st22" d="M137.3,54.9c0,0,5.3-5.1,6.4-6.1c1.1-1,12.6-11.2,12.6-11.2s-0.2,0.2,0.5,0.6c0.7,0.4,1.2,0.2,2.7-0.4
			c1.5-0.5-0.9-3-1.1-3.3c-0.1-0.1-0.3-0.5-0.7-0.9c0,0-0.3,1.2-0.6,1.6c-0.4,0.6-2,0.8-2,0.8s-0.1,0.3-0.5,0.9
			c-0.4,0.6-3,3-3.3,3.2c-0.3,0.3-6,5.4-9.3,8.3c-3.3,2.8-5.8,4.4-6.7,4.6c-0.9,0.3-0.8-0.4-0.9-0.9c-0.1-0.4,0-2.3,0-2.3
			c0.1-0.6-0.3-0.9-0.6-1c-0.1-0.1-0.4-0.1-0.7-0.2c-0.5-0.1-1.3-0.1-2.1-0.2c-0.3,0-0.6,0-0.9,0c-1,0-2,0.2-2.6,0.5
			c-0.7,0.4-0.3,2.2-0.3,2.2s1.8-0.2,4.2,0.7C133.9,52.8,137.3,54.9,137.3,54.9z"/>
		<path class="st14" d="M101.8,94.4c0,0-2-0.6-4.1,0.7c-2.1,1.3-2.6,3.2-2.6,3.2s-2.1-0.7-4.2,1.1c-2.1,1.8-2.3,4.3-2.2,4.9
			c0,0.6,1.2,6.9,4.5,11.4c3.2,4.5,6.4,9,10.6,8.7c4.1-0.2,5.1-3.6,5.1-3.6s2.4,0.6,4.3-0.9c1.9-1.5,2.2-3.2,2.2-3.2
			s2.5,0.3,4.6-2.3c2.1-2.7,2.7-4.8,1-10.7c-1.7-5.8-6.9-10.1-8.1-10.9c-1.2-0.8-4.9-2.6-7.5-1.3C102.7,92.7,101.8,94.4,101.8,94.4
			L101.8,94.4z"/>
		<path class="st12" d="M107,109.1c-0.3-0.4-1.6-2.6-2.5-3.6c-0.9-1-1.2-1-1.4-0.8c-0.2,0.2-0.4,0.4,0.5,1.4c1,1,1.9,2.6,2.7,4.2
			c0.8,1.6,2,3.9,2.1,3.8c0,0,0.7,0,0.6-0.6C108.9,112.9,107.4,109.8,107,109.1z"/>
		<path class="st25" d="M89,102.3c-0.3,0.4-0.3,1.7-0.3,2c0,0.6,1.2,6.9,4.5,11.4c3.2,4.5,6.4,9,10.6,8.7c4.1-0.2,5.1-3.6,5.1-3.6
			s2.4,0.6,4.3-0.9c1.9-1.5,2.2-3.2,2.2-3.2s2.5,0.3,4.6-2.3c2.1-2.7,2.7-4.8,1-10.7c-0.4-1.3-1-2.6-1.7-3.8c0,0,3.6,9.2-0.7,11.6
			c-3.5,2-5.8-3.9-5.8-3.9s-0.9-1.7-1.2-1.6c-0.3,0.2,1,2.5,1.5,3.7c0.4,1.1,2.1,4.5-0.4,5.8c-1.9,0.9-2.8,0.4-3.7-1.1
			c-1-1.5-3.1-6.3-4.6-7.6c-0.6-0.5-0.6,0.3,0.5,1.9c0.9,1.3,3,6.8,2.3,8.7c-0.5,1.4-3.3,1.9-4.5,0c0,0-4-8.4-5.4-10
			C95.9,105.6,90.3,100.6,89,102.3L89,102.3z"/>
		<path class="st12" d="M89,102.3c0.3-0.9,0.9-2,1.9-2.9c2.1-1.8,4.2-1.1,4.2-1.1s0.5-1.9,2.6-3.2c2.1-1.3,4.1-0.7,4.1-0.7
			s0.9-1.7,3.5-3c2.6-1.3,6.3,0.5,7.5,1.3c0.8,0.5,3.1,2.4,5.1,5.1c0,0-2.9-3.7-5.3-3c-2.4,0.6-4.2,2.1-5.6,1.8
			c-1.4-0.3-2.8-1-2.8-1l1.4,1.8c0,0,0.4,0.5-0.3,0.9c-0.7,0.3-2.3,1-2.7,1.7c-0.4,0.7-1,2.6-1.8,2.4c-0.8-0.2-2.3-1.5-2.3-1.5
			s1,0.8,2,2.4c0.9,1.6,0.9,1.8,0.7,1.8c-0.2,0.1-2.1-2.2-3.3-3.2c-1.2-1-2.6-0.7-2.9-0.4c-0.3,0.3-0.6,0.8,0.5,2.6
			c1.2,1.7,1.9,2.6,3.1,4.4c1.2,1.8,1.9,3,1.6,3.3c-0.3,0.3-0.3,0.1-0.8-0.7c-0.5-0.9-2.2-3.2-3.3-4.5c-1.7-1.9-2.9-3.2-4.7-4.1
			C89.7,101.4,89,102.3,89,102.3"/>
		<path class="st25" d="M95.3,97.7c-0.1,0.3-0.2,0.5-0.2,0.5s0.9,0.2,2.7,1.9c1.8,1.7,2,2.4,2.2,2.4c0.2,0,1,0.1-0.9-2
			C97.2,98.4,95.3,97.7,95.3,97.7L95.3,97.7z"/>
		<path class="st25" d="M102.1,93.9c-0.3,0.3-0.4,0.5-0.4,0.5s2.5,1.3,3.8,2.9s1.7,2.2,2,2.3c0.2,0,0.6,0-0.4-1.3
			c-1-1.4-2.8-2.9-3.4-3.4C103.1,94.4,102.1,93.9,102.1,93.9L102.1,93.9z"/>
		<path class="st26" d="M97.5,111.1c3.2,5.1,4.2,9.2,4.4,10.1c0.2,0.9,0.3,2.2-0.3,2.2c-0.6,0-2.8-1.1-6.6-6.7
			c-3.7-5.6-5.4-10.9-5.5-11.8c-0.1-0.9-0.1-1.7,1.1-1.2C91.8,104,95.5,107.9,97.5,111.1L97.5,111.1z"/>
		<path class="st12" d="M101.9,113.6c0.4,0.7,1.3,2.5,0.7,2.7c-0.7,0.1-0.7-0.4-1.4-1.7c-0.3-0.6-0.9-1.7-1-1.9
			c-0.1-0.2-0.1-0.7,0.3-0.7C100.8,112,101.4,112.5,101.9,113.6L101.9,113.6z"/>
		<path class="st12" d="M118.8,106.1c0,0-0.9,0.1-0.6,1.3c0.3,1.2,1.1,0.7,1.2,0.7c0.1-0.1,0.5-0.3,0.3-1.2
			C119.7,105.9,119,106,118.8,106.1L118.8,106.1z"/>
		<path class="st12" d="M116.2,100.5c0.5,0.8,1,2.1,1.3,3.3c0.2,0.6,0.3,1.7,1,1.8c0.9,0.1,0.7-1.1,0.5-1.6
			c-0.2-0.6-0.7-3.1-1.7-4.7c-1-1.5-1.5-2.1-2.1-2.7s-1.6-1.2-2-0.9s-0.3,0.9,0.6,1.6C114.8,98,115.7,99.6,116.2,100.5L116.2,100.5z
			"/>
		<path class="st14" d="M132.3,87.5c-1.4-1.6-2.7-3-6.5-5.3c0,0-2.2-1.7-4.3-1.5c-2.1,0.2-4.6,1.3-5.5,3c-0.9,1.7-1.8,4.2,1.5,10
			c3.3,5.8,7,11,9.3,13.3c2.4,2.3,3.6,2.1,4.2,1.9c0.6-0.2,2.8-0.5,5.1-2.9c2.3-2.4,1.8-4.2,1.6-6.6C137.5,97,135.2,90.9,132.3,87.5
			L132.3,87.5z"/>
		<path class="st12" d="M115.1,86.6c0-1.3,0.4-2.2,0.8-3c0.9-1.7,3.4-2.8,5.5-3c2.1-0.2,4.3,1.5,4.3,1.5c3.9,2.3,5.1,3.7,6.5,5.3
			c0.9,1,1.7,2.3,2.4,3.6c0,0-3.3-4.4-5.5-6c-2.2-1.6-3-1.6-3.3-1.6c-0.2,0-0.9,0.3,0,1.9c1,1.5,3.1,4.2,2.4,4.6
			c-0.7,0.4-0.8-0.2-1.7-1.1c-1.2-1.3-2.9-3.4-4.1-4c-1.2-0.5-2.5-0.5-3.1-0.1c-1,0.5-1,1.3-1,1.3l-1.1-0.6L115.1,86.6L115.1,86.6z"
			/>
		<path class="st12" d="M119.2,87.2c0,0,0.4-0.5,0.9-0.5c0.5,0,0.9,0.2,1.6,1.1c0.7,0.9,3.8,5.9,4.8,8c1,2.1,2.4,4.9,2.6,5.4
			c0.2,0.6,0.3,0.9-0.4,1c0,0-5.2-9-5.2-9.2C123.6,92.9,119.2,87.2,119.2,87.2L119.2,87.2z"/>
		<path class="st25" d="M135,91.7c1.5,3,2.6,6.2,2.7,7.7c0.2,2.4,0.7,4.2-1.6,6.6c-2.3,2.4-4.5,2.7-5.1,2.9
			c-0.6,0.2-1.8,0.4-4.2-1.9c-2.4-2.3-6-7.5-9.3-13.3c-1.9-3.2-2.4-5.4-2.4-7c0,0,0.6-2.9,2.8-1.2c2.2,1.7,4.2,4.7,6.4,8.4
			c2.2,3.8,4.3,7.7,5,9c0.7,1.3,1.7,2.5,2.9,1.7c1.2-0.7,0.6-2.8,0.2-4.8c-0.4-2-2.8-6.5-2.9-6.9c-0.1-0.4-0.2-0.8,0.1-0.7
			c0.3,0.1,1.4,2.4,1.5,2.7c0.1,0.3,2.2,4.3,3,4.6c0.8,0.3,1.5,0.3,1.8-0.9c0.3-1.2,0.1-3-0.3-4.4C135.2,92.8,135,91.7,135,91.7z"/>
		<path class="st12" d="M135.5,97.5c-0.3-0.4-0.6-1-1-0.7c-0.4,0.3,0.1,1.1,0.4,1.6c0.3,0.5,0.5,0.7,0.9,0.5
			C136.1,98.8,135.8,98,135.5,97.5L135.5,97.5z"/>
		<path class="st12" d="M132.8,95.3c0,0-1.7-3.2-2.4-3.8c-0.7-0.6-1,0.2-0.8,0.6c0.2,0.4,1.6,3,2.2,4c0.6,1,1.7,2.9,1.9,3.2
			c0.2,0.3,0.5,0.7,1,0.5c0.5-0.2,0-1.3-0.4-2.1C133.9,96.9,132.8,95.3,132.8,95.3L132.8,95.3z"/>
		<path class="st26" d="M124.2,95.3c0,0-3.3-5.6-5.2-7.7c-1.9-2.1-2.7-1.7-3-1.6c-0.3,0.1-0.7,0.7,0.4,3.8c1.1,3.1,2.8,6,5,9.2
			c2.1,3.2,4.7,6.8,6.2,7.9c1.5,1.1,2,1.2,2.6,0.9c0.6-0.3-0.4-2-0.9-3.3C128.6,102.8,124.7,96.1,124.2,95.3L124.2,95.3z"/>
		<path class="st27" d="M120.1,21.6c0,0,0.3-2.6,1-2.5c0.7,0.1,1,1.5,1,1.5s1.6-1,2.1-0.6c0.6,0.6-1.3,2.4-1.3,2.4s0.9,2.2,0.2,2.4
			c-0.7,0.1-1.8-0.7-1.9-0.6c0,0-1.2,1.1-1.4,1.2c-0.2,0.1-0.6,0.4-0.8,0c-0.2-0.4,0.4-1.7,0.4-1.7s-1.1-0.3-0.9-0.8
			C118.7,22.3,120.1,21.6,120.1,21.6L120.1,21.6z"/>
		<path class="st27" d="M148.7,3.7c0,0,0.3-3.6-0.7-3.5c-1,0.1-2.8,3.9-2.8,3.9s-4,0-4.4,0.5c-0.4,0.6,2,3,2,3s-1.7,3.8-2,4.2
			c-0.3,0.4-0.5,1.4,0.5,1.2c1-0.1,4.3-2.1,4.5-2c0.2,0.1,1.2,2,2.2,1.5c1-0.5,0.6-3.2,0.6-3.2s2.4-1.5,3.6-2.6c1.1-1.1,2.5-2,1.6-3
			c-0.4-0.4-1.5-0.2-2.6-0.1C149.9,3.7,148.7,3.7,148.7,3.7L148.7,3.7z"/>
		<path class="st27" d="M211.2,40.7c0,0-0.1-2.4-1.2-2.4c-1.1,0-2.2,3.5-2.2,3.5s-2.3,0.8-2.2,1.8c0,0.7,0.9,0.9,0.9,0.9
			s-1.5,3.8-0.9,4.4c0.7,0.5,3.3-2.7,3.4-2.5c0.1,0.2,1.8,1.7,2.7,1.3c0.9-0.4-0.1-4.1-0.1-4.1s2.4-1.9,1.6-2.8
			C212.7,40.2,211.2,40.7,211.2,40.7L211.2,40.7z"/>
		<path class="st27" d="M86.9,82.2c0,0,0-2.3-0.9-2.5c-0.9-0.2-1.5,3-1.5,3S81,83,81,83.9s2.2,2.5,2.2,2.5s-2.1,3.6-1.1,4
			c1,0.4,3.3-2.3,3.3-2.3s1.3,1.4,1.8,1.1c0.6-0.3,0.2-3,0.2-3s4-3.2,2.6-4C89.3,81.7,86.9,82.2,86.9,82.2L86.9,82.2z"/>
		<path class="st27" d="M176,111c0,0,1.5-3.6,2-3.2c0.5,0.4,1.1,2.7,1.1,2.7s3.3-0.6,3,0.7c-0.2,0.8-2.3,2-2.3,2s1.2,3.4,0.3,3.6
			c-0.9,0.2-3.4-1.4-3.4-1.4s-1.6,2.1-2.8,2.3c-1.8,0.3,0.9-3.8,0.9-3.8s-2.6-1.4-1.6-2.1C174.3,111.1,176,111,176,111L176,111z"/>
		<path class="st2" d="M158,104.5c-0.4,0.2-1.8,0.7-1.4,1.5c0.3,0.6,1.1,0.2,1.7-0.1c0.6-0.3,1.8-0.8,1.6-1.5
			c-0.2-0.7-0.8-0.5-0.9-0.4C158.8,104.1,158.2,104.4,158,104.5z"/>
		<path class="st2" d="M127.9,130.7c-0.3,0.1-1.6,0.6-1.3,1.4c0.3,0.8,1,0.2,1.3,0.1c0.3-0.1,1.6-0.7,1.5-1.4
			C129.2,130.2,128.4,130.5,127.9,130.7z"/>
		<path class="st2" d="M95.6,127.7c-0.8,0.4-6.2,3.5-6.5,3.6c-0.2,0.1-1.2,0.7-0.7,1.4c0.4,0.7,2-0.2,4.1-1.4
			c2.2-1.2,7.1-4.3,7.7-4.7c0.6-0.4,1.5-1.2,1-1.3C100.7,125.3,95.6,127.7,95.6,127.7z"/>
		<path class="st2" d="M83.7,134.2c-0.6,0.4-3,1.7-3.3,1.9c-0.3,0.2-1.5,0.6-1.4,1.4c0.1,0.8,0.8,0.6,1.1,0.4
			c0.3-0.2,4.4-2.5,4.6-2.6c0.2-0.1,2.8-1.2,2.5-2s-1.1-0.5-1.3-0.4S83.7,134.2,83.7,134.2L83.7,134.2z"/>
		<path class="st2" d="M77.1,138.1c0,0-1,0.5-0.7,1.1c0.3,0.6,0.9,0.3,1,0.3c0.1,0,1.1-0.4,0.9-1c-0.1-0.7-0.7-0.7-0.8-0.6
			C77.5,137.9,77.1,138.1,77.1,138.1L77.1,138.1z"/>
		<path class="st2" d="M52.9,138.9c-0.4,0.2-1.9,0.8-1.4,1.7s1.4,0.2,1.7,0c0.4-0.2,1.6-0.7,1.3-1.5
			C54.4,138.3,53.3,138.6,52.9,138.9z"/>
		<path class="st2" d="M67.4,114.4c-1,0.5-3.4,1.9-3.7,2.1c-0.3,0.2-0.8,1.1,0,1.4c0.8,0.3,1.9-0.6,2.5-1c0.7-0.4,4.6-2.9,4.9-3.1
			c0.3-0.2,0.9-0.8,0.4-1C71.1,112.6,67.9,114.2,67.4,114.4L67.4,114.4z"/>
		<path class="st2" d="M88.1,92.9c-0.5,0.3-3.3,1.9-3.5,2c-0.2,0.1-0.8,0.7-0.5,1.2c0.3,0.5,0.9,0.3,1.4,0s4.3-2.3,4.8-2.6
			c0.5-0.3,1.5-0.8,1.1-1.5C91,91.3,88.1,92.9,88.1,92.9L88.1,92.9z"/>
		<path class="st2" d="M94.5,89.4c0,0-1.4,0.7-1.5,0.8c-0.1,0.2-0.4,0.7,0,1.1c0.4,0.3,1,0.1,1.7-0.3s1.6-0.7,1.3-1.4
			C95.6,88.9,94.7,89.3,94.5,89.4L94.5,89.4z"/>
		<path class="st2" d="M110.2,79.4c0,0-7.7,4.8-8.5,5.4c-0.8,0.5-4.5,2.8-4.8,3c-0.2,0.2-0.8,0.8-0.2,1.2c0.6,0.4,1.7-0.5,3-1.2
			c1.3-0.7,13-7.7,13.5-8c0.5-0.3,3.7-2,3.5-3.1c-0.2-1.1-1.5-0.2-2,0C114.5,76.9,110.2,79.4,110.2,79.4L110.2,79.4z"/>
	</g>
</g>
</svg>
