<svg width="16" height="17" viewBox="0 0 16 17" fill="none" xmlns="http://www.w3.org/2000/svg">
<g id="Iconset">
<path id="Vector" d="M4.6665 9.84058C3.56194 9.84058 2.6665 10.736 2.6665 11.8406C2.6665 12.9452 3.56194 13.8406 4.6665 13.8406C4.90026 13.8406 5.12465 13.8004 5.33317 13.7268" stroke="#FEFCF7" stroke-linecap="round" stroke-linejoin="round"/>
<path id="Vector_2" d="M2.84275 10.9103C1.94967 10.4794 1.3335 9.56525 1.3335 8.50725C1.3335 7.69945 1.69265 6.97559 2.25999 6.48657" stroke="#FEFCF7" stroke-linecap="round" stroke-linejoin="round"/>
<path id="Vector_3" d="M2.28035 6.43271C2.10327 6.16797 2 5.84966 2 5.50724C2 4.58677 2.74619 3.84058 3.66667 3.84058C4.04194 3.84058 4.38825 3.9646 4.66683 4.17391" stroke="#FEFCF7" stroke-linecap="round" stroke-linejoin="round"/>
<path id="Vector_4" d="M4.82496 4.21746C4.72333 4.00201 4.6665 3.76126 4.6665 3.50724C4.6665 2.58677 5.4127 1.84058 6.33317 1.84058C7.25364 1.84058 7.99984 2.58677 7.99984 3.50724V13.8406" stroke="#FEFCF7" stroke-linecap="round" stroke-linejoin="round"/>
<path id="Vector_5" d="M5.3335 13.8406C5.3335 14.577 5.93045 15.1739 6.66683 15.1739C7.40323 15.1739 8.00016 14.577 8.00016 13.8406" stroke="#FEFCF7" stroke-linecap="round" stroke-linejoin="round"/>
<path id="Vector_6" d="M8 5.17383C8 6.27839 8.8954 7.17383 10 7.17383" stroke="#FEFCF7" stroke-linecap="round" stroke-linejoin="round"/>
<path id="Vector_7" d="M11.3332 9.84058C12.4378 9.84058 13.3332 10.736 13.3332 11.8406C13.3332 12.9452 12.4378 13.8406 11.3332 13.8406C11.0994 13.8406 10.875 13.8004 10.6665 13.7268" stroke="#FEFCF7" stroke-linecap="round" stroke-linejoin="round"/>
<path id="Vector_8" d="M13.1577 10.9103C14.0508 10.4794 14.667 9.56525 14.667 8.50725C14.667 7.69945 14.3078 6.97559 13.7404 6.48657" stroke="#FEFCF7" stroke-linecap="round" stroke-linejoin="round"/>
<path id="Vector_9" d="M13.72 6.43271C13.897 6.16797 14.0003 5.84966 14.0003 5.50724C14.0003 4.58677 13.2541 3.84058 12.3336 3.84058C11.9584 3.84058 11.612 3.9646 11.3335 4.17391" stroke="#FEFCF7" stroke-linecap="round" stroke-linejoin="round"/>
<path id="Vector_10" d="M8 3.50724C8 2.58677 8.7462 1.84058 9.66667 1.84058C10.5871 1.84058 11.3333 2.58677 11.3333 3.50724C11.3333 3.76126 11.2765 4.00201 11.1749 4.21746" stroke="#FEFCF7" stroke-linecap="round" stroke-linejoin="round"/>
<path id="Vector_11" d="M10.6667 13.8406C10.6667 14.577 10.0697 15.1739 9.33333 15.1739C8.59693 15.1739 8 14.577 8 13.8406" stroke="#FEFCF7" stroke-linecap="round" stroke-linejoin="round"/>
</g>
</svg>
