<?xml version="1.0" encoding="utf-8"?>
<svg width="128" height="146" viewBox="0 0 128 146" fill="none" xmlns="http://www.w3.org/2000/svg">
    <path d="M59.9504 43.4863C50.9677 42.3981 46.1893 8.11706 23.9299 19.2049C1.6721 30.2912 -4.19994 46.9057 8.87923 62.0698C21.9584 77.2323 6.77253 90.5476 7.09605 108.017C7.26009 116.917 15.8995 146.83 45.7792 145.982C75.6603 145.135 73.1891 140.411 88.8944 141.296C104.6 142.181 109.313 149.573 119.338 142.187C129.362 134.801 111.429 120.031 114.131 107.784C116.833 95.5377 127.573 89.0581 126.976 75.4693C126.379 61.8804 115.759 36.0238 93.4724 37.5869C71.1857 39.1486 71.3892 44.8721 59.9504 43.4863Z" fill="#E9D2B1"/>
    <path d="M21.3388 57.4505C21.3952 57.4505 21.4515 57.4505 21.5078 57.4505C21.6873 57.3048 21.7506 57.034 22.0216 56.9872C22.634 56.9698 23.2376 56.8518 23.8517 56.8605C27.1812 56.6558 29.5357 58.3494 31.5946 60.6747C33.9262 63.3055 35.5716 66.3666 37.2961 69.3791C37.7941 70.2485 38.3238 71.0954 38.8306 71.9578C39.5028 73.1014 39.4412 73.4276 38.403 74.2779C35.6789 75.6332 33.0727 77.1985 30.4261 78.6909C29.5128 79.2062 29.2207 79.1351 28.7139 78.1893C28.4517 77.7017 28.2282 77.195 27.9361 76.7213C27.885 76.6605 27.8393 76.5963 27.7971 76.5286C27.7355 76.4297 27.6844 76.3239 27.6281 76.2232C27.5894 76.1573 27.556 76.0879 27.5261 76.0185C27.0439 75.0363 26.5424 74.0645 26.0461 73.0892C25.9476 72.8862 25.842 72.6866 25.71 72.5027C25.2243 71.7201 24.8777 70.8646 24.4061 70.0732C24.3585 70.016 24.3181 69.9535 24.2811 69.8893C24.2248 69.7956 24.1755 69.6984 24.1263 69.6012C24.0893 69.5388 24.0576 69.4746 24.0242 69.4104C23.9714 69.3149 23.9186 69.2177 23.8641 69.1206C23.8271 69.0546 23.7937 68.9869 23.7602 68.9175C22.444 66.2764 21.0186 63.6907 19.6583 61.0739C19.3064 60.4526 18.9351 59.8418 18.7133 59.1598C18.7063 59.08 18.7151 59.0002 18.7362 58.9238C19.06 58.2609 19.7656 58.0926 20.3235 57.7316C20.5417 57.6484 20.7986 57.7872 21.001 57.6189C21.0907 57.5199 21.2509 57.5564 21.3388 57.4523V57.4505Z" fill="white"/>
    <path d="M21.3388 57.4509C21.2262 57.5065 21.1136 57.562 21.001 57.6175C21.1136 57.562 21.2262 57.5065 21.3388 57.4509Z" fill="#FDFDFD"/>
    <path d="M64.7867 11.4076C64.6249 11.182 64.4788 10.8783 64.4278 10.4688C64.2817 9.71043 64.2764 8.95036 64.3556 8.19029C64.3996 7.77902 64.507 7.37643 64.6776 6.99813C65.0014 6.28144 65.3235 5.56649 65.6473 4.8498C68.1021 0.936654 73.7121 -0.94964 78.349 0.471588C78.6112 0.551412 78.8611 0.678091 79.1163 0.78221C82.5706 2.52447 84.5239 5.54046 86.039 8.87228C87.4891 12.0618 90.0319 13.9464 93.2346 15.1316C94.8201 15.7181 96.4813 16.0426 98.1161 16.4626C99.8952 16.919 101.592 17.5541 103.147 18.5571C105.343 19.9731 105.871 22.3783 105.09 24.7279C104.641 26.0728 103.767 27.1573 102.676 28.0823C101.245 29.2935 99.7016 30.3642 98.3132 31.631C96.2032 33.5537 95.4554 36.0196 95.2653 38.725C95.1017 41.0521 95.5557 43.3097 96.0889 45.5604C96.4355 47.0216 96.7347 48.5209 96.5253 50.0115C96.1117 52.965 94.1338 54.7368 91.5593 55.9897C88.9356 57.2686 86.1745 57.2027 83.3783 56.814C82.6603 56.7133 81.9406 56.6335 81.1259 56.604C81.3194 57.3641 81.828 58.0009 81.6133 58.7714C82.9912 63.0854 80.7757 66.7869 77.2738 68.7217C76.4256 69.1903 75.456 69.4454 74.5427 69.7994C74.2717 69.9052 73.9972 69.874 73.7016 69.8167C73.3215 69.3326 73.3989 68.7842 73.5273 68.2445C73.61 67.8957 73.8459 67.6042 74.2312 67.6528C76.0966 67.8853 77.1014 66.9049 77.7014 65.324C79.3573 63.2485 79.8553 60.8573 79.6072 58.2925C79.4647 56.8313 79.2412 55.3719 78.2645 54.1589C78.159 54.0288 78.1308 53.8553 78.1713 53.6835C78.4581 53.1785 79.0054 53.1646 79.477 53.0605C80.4765 52.8366 81.3898 52.4635 82.1711 51.7989C83.2111 50.992 83.8851 50.0323 83.5068 48.6441C83.0844 47.0962 82.1412 45.9734 80.6243 45.3869C79.2113 44.8403 77.763 44.3873 76.4591 43.5822C74.9791 42.6694 73.8441 41.4616 73.1719 39.8842C71.9172 36.9463 71.9717 33.7446 75.4085 31.0445C76.5734 30.13 77.7542 29.2276 78.7097 28.0788C79.6758 26.9161 80.4184 25.6546 80.5152 24.1223C80.5504 23.5444 81.1048 23.0741 80.832 22.4512C80.7334 19.4352 78.1642 16.4608 74.6501 15.2773C73.2247 14.7967 71.7289 14.7168 70.2613 14.4669C68.0669 14.0921 66.0238 13.4587 64.7885 11.4093L64.7867 11.4076Z" fill="#15110C"/>
    <path d="M89.9597 9.62561C88.2228 8.5931 86.5704 7.45993 85.3157 5.85129C84.6594 5.13287 83.9959 4.41965 83.3484 3.69255C82.1781 2.38065 80.8038 1.36202 79.1162 0.785889C79.1584 0.857037 79.1831 0.957686 79.2464 0.994128C82.4527 2.92033 84.3743 5.8617 85.8701 9.13972C86.4648 10.4429 87.2462 11.6455 88.3126 12.593C90.2254 14.2919 92.5218 15.3227 94.9995 15.9717C97.3558 16.5895 99.7491 17.0545 101.972 18.1374C105.363 19.7911 105.973 22.9702 104.258 25.863C103.024 27.9437 100.928 29.1237 99.105 30.5571C96.4232 32.6655 95.1931 35.383 94.989 38.6662C94.8359 41.1304 95.3726 43.4973 95.8724 45.8869C96.2771 47.82 96.7698 49.8191 95.7721 51.7297C94.0669 54.999 91.107 56.4064 87.5858 56.7587C85.2506 56.9912 82.9296 56.4602 80.5451 56.2034C80.9111 57.104 81.4619 57.8589 81.6168 58.7699C81.7329 58.3621 81.9705 58.6276 82.1271 58.704C86.7746 60.9269 91.5733 61.8883 96.6713 60.441C101.855 58.5027 104.178 54.8949 103.592 49.6282C103.378 47.6899 102.894 45.7949 102.218 43.9746C100.852 40.2939 101.699 37.1704 104.43 34.4494C105.143 33.7396 105.875 33.0507 106.607 32.3601C107.622 31.4004 108.671 30.4738 109.66 29.4881C112.166 26.991 113.612 24.1103 112.864 20.48C112.467 19.5464 112.067 18.6128 111.669 17.6792C110.936 16.6415 110.073 15.7183 109.139 14.8559C106.216 12.7544 102.864 11.8572 99.3373 11.4303C96.2824 11.0607 93.1677 10.9965 90.2729 9.76964L89.9632 9.62561H89.9597Z" fill="#312206"/>
    <path d="M96.231 102.746C96.9842 103.651 97.6828 104.588 98.0611 105.718C98.1368 105.965 98.1949 106.232 97.9872 106.424C97.491 106.883 97.3467 107.516 97.0898 108.094C97.0264 108.156 96.9507 108.2 96.8663 108.226C96.5038 108.248 96.2504 108.488 95.9899 108.689C95.2033 109.295 94.371 109.329 93.5527 108.83C92.1115 107.95 90.9078 106.817 90.3447 105.203C89.7499 103.495 88.8788 101.979 87.6787 100.615C86.1231 98.8463 85.2679 96.6841 84.3511 94.567C83.7 93.0607 83.0541 91.5527 82.3942 90.0499C82.2059 89.6213 82.0317 89.1788 81.6023 88.6617C81.6023 89.9875 81.4616 91.1536 81.3296 92.3215C80.909 96.0108 80.2245 99.6775 80.3881 103.419C80.4744 105.378 80.9794 107.198 82.0511 108.849C82.6705 109.803 83.4993 110.537 84.5763 110.983C84.8737 111.106 85.2503 111.136 85.3999 111.498C85.3541 111.641 85.252 111.75 85.1165 111.783C83.3867 112.205 81.6991 112.836 79.8778 112.812C79.5399 112.767 79.2496 112.609 78.9698 112.429C77.0869 111.025 76.0469 109.119 75.5876 106.872C75.3043 105.486 75.2726 104.073 75.1001 102.673C75.0913 102.617 75.0808 102.562 75.0808 102.506C75.1776 98.763 74.8379 95.0251 74.9101 91.2837C74.9893 87.171 74.6426 83.0896 74.1323 79.0168C74.0513 78.3435 73.8683 77.6754 73.9299 76.9934C73.9616 76.6446 73.9405 76.1847 74.5335 76.2472C74.7095 76.3114 74.8855 76.3756 75.0614 76.4398C75.8727 77.3804 76.9813 77.8437 78.0882 78.3348C79.3956 78.9161 80.6556 79.5964 81.9103 80.2853C84.8156 81.88 86.4926 84.3806 87.4447 87.44C87.9743 89.1406 88.2981 90.8916 88.7539 92.6095C89.7622 96.4064 91.8669 99.4658 95.0731 101.784C95.4831 102.081 95.8263 102.447 96.2292 102.747L96.231 102.746Z" fill="#292F73"/>
    <path d="M79.7809 112.613C81.7113 112.534 83.5133 111.853 85.3751 111.454C85.8889 110.873 86.6386 110.932 87.3038 110.764C89.4454 110.534 91.5711 110.137 93.7391 110.184C94.3427 110.16 94.9164 110.401 95.52 110.37C95.7769 110.404 96.0074 110.515 96.1834 110.687C96.6972 111.189 97.3501 111.112 97.9818 111.142C98.6171 111.56 99.0588 112.174 99.5797 112.707C100.296 113.439 101.1 113.993 102.075 114.324C102.682 114.531 103.268 114.798 103.833 115.105C104.167 115.288 104.438 115.508 104.408 115.933C104.488 116.266 104.567 116.599 104.646 116.933C104.729 117.203 104.739 117.472 104.6 117.831C103.629 117.778 102.628 117.66 101.633 117.819C99.9721 118.022 98.3654 117.776 96.8574 117.092C94.809 116.164 92.7079 116.195 90.5857 116.658C88.4441 117.125 86.3588 117.826 84.1978 118.205C82.4047 118.517 80.6502 119.098 78.7972 119.024C78.4048 119.081 78.1901 118.805 77.9578 118.572C77.6252 118.239 77.305 117.894 76.9495 117.585C76.1031 116.846 75.2531 116.736 74.2483 117.228C73.9263 117.386 73.6324 117.615 73.2418 117.585C72.9074 117.54 72.7279 117.28 72.5044 117.073C71.5401 116.179 70.5775 116.11 69.4812 116.865C68.5697 117.493 67.8235 118.302 67.051 119.081C65.2279 118.918 63.47 118.423 61.6926 118.041C58.8947 117.441 56.0738 116.976 53.2635 116.454C51.2944 116.087 49.4132 116.358 47.5444 116.92C46.7912 117.146 46.0345 117.349 45.2603 117.479C44.815 117.51 44.3681 117.502 43.9211 117.495C43.8366 117.493 43.7522 117.484 43.6677 117.471C43.5058 117.439 43.3545 117.372 43.2066 117.304C43.1327 117.274 43.0623 117.24 42.992 117.203C42.8529 117.132 42.7086 117.07 42.5696 116.999C41.6739 116.495 40.7888 115.966 39.7065 115.961C39.5429 115.909 39.3986 115.834 39.3599 115.648C39.381 115.468 39.4883 115.324 39.6379 115.258C41.1583 114.59 42.42 113.535 43.7557 112.593C44.4807 112.504 45.1846 112.363 45.6896 111.768C45.7882 111.683 45.899 111.621 46.024 111.579C46.1964 111.531 46.3742 111.529 46.5519 111.524C46.9162 111.537 47.2734 111.506 47.62 111.385C48.1392 111.334 48.6706 111.393 49.1721 111.206C50.5289 111.107 51.8874 111.062 53.2459 111.187C53.7457 111.354 54.2718 111.465 54.6977 111.805C55.5793 113.146 56.8305 114 58.3826 114.39C60.2584 114.864 62.1378 115.341 64.0471 115.664C68.2124 116.367 71.5454 114.559 73.2154 110.725C74.104 108.688 74.5264 106.604 73.6782 104.437C73.5567 104.126 73.3808 103.841 73.2312 103.543C73.0869 103.257 72.9831 102.965 73.3649 102.758C74.0618 102.601 74.7551 102.47 75.3957 102.935C75.5523 104.225 75.6684 105.519 75.8725 106.802C76.2263 109.03 77.3666 110.826 79.114 112.261C79.0172 112.516 78.6529 112.567 78.6177 112.94C79.0647 113.013 79.4994 113.134 79.7844 112.615L79.7809 112.613Z" fill="#8AA0BC"/>
    <path d="M74.5361 76.2489C74.0996 76.2853 74.1964 76.6098 74.2123 76.8649C74.2563 77.5504 74.3214 78.2358 74.3777 78.9213C74.1032 79.4471 73.6386 79.7525 73.1001 79.9469C71.4671 80.5369 69.8129 80.8926 68.099 80.2557C67.4725 79.6085 67.6027 78.7165 67.337 77.9512C67.2279 77.6406 67.198 77.3092 67.1434 76.9864C67.2033 76.3027 67.103 75.6172 67.1505 74.9335C67.2332 74.6871 67.4531 74.753 67.6397 74.7166C69.5472 74.3522 71.5093 72.0945 71.5463 70.0781C70.0364 70.97 68.5917 71.829 67.0502 72.5058C66.4149 72.6082 65.7867 72.7279 65.1338 72.6307C63.953 72.4555 63.2016 71.7978 62.8567 70.6976C62.5593 69.7449 62.3675 68.7506 62.459 67.7597C62.5804 66.4408 62.5505 65.1133 62.7195 63.7997C62.73 63.7181 62.7652 63.6383 62.767 63.5585C62.8268 61.2817 64.6428 60.2145 66.077 58.8853C66.3498 58.6319 66.6525 58.4289 67.0484 58.6631C67.8579 59.3052 68.5195 60.1052 69.3624 60.7178C70.5098 61.5525 71.7698 62.1355 73.116 62.5659C73.5805 62.7151 73.9888 62.7169 74.3566 62.349C75.0816 61.6236 75.8576 61.0232 76.9451 61.6548C77.8268 62.165 78.3969 63.7095 78.1312 64.8357C78.0819 65.0404 78.0696 65.2747 77.9007 65.443C77.0208 67.6937 76.0301 68.282 73.8691 67.7892C73.6738 68.4295 73.7125 69.0837 73.6949 69.8004C74.0081 69.8004 74.2756 69.8004 74.5431 69.8004C74.2897 69.8941 74.0363 69.9878 73.7248 70.1024C73.6527 71.9592 73.8286 73.8038 74.1419 75.6415C74.1859 75.9036 74.346 76.084 74.5361 76.2489Z" fill="#EDCEBB"/>
    <path d="M101.584 117.575C102.564 117.415 103.666 117.16 104.68 117.597C104.713 117.297 104.47 118.715 104.315 119.598C104.071 119.709 103.96 119.945 103.8 120.136C102.89 121.333 101.514 121.816 100.198 122.35C98.7036 122.958 97.1234 123.18 95.5026 123.218C92.2278 123.293 88.9952 122.94 85.7766 122.399C85.3877 122.333 85.0199 122.191 84.6293 122.133C83.5505 121.625 82.5246 121.005 81.3614 120.674C81.1591 120.617 80.8212 120.532 81.0482 120.166C81.328 119.952 81.6659 119.883 81.9984 119.864C84.6891 119.704 87.2407 118.914 89.7976 118.172C92.1064 117.502 94.3746 117.412 96.6588 118.243C97.4524 118.531 98.2901 118.621 99.1418 118.645C100.148 118.673 100.935 118.291 101.586 117.573L101.584 117.575Z" fill="#CCDCEE"/>
    <path d="M96.2311 102.747C93.5528 101.419 91.7139 99.2656 90.1882 96.7963C88.6643 94.3321 88.2578 91.5157 87.5609 88.7895C87.0295 86.7054 86.2675 84.715 84.8896 83.0248C83.6913 81.5549 82.0741 80.5988 80.397 79.7537C79.123 79.1116 77.8137 78.5355 76.5274 77.916C75.8657 77.5984 75.2217 77.2479 75.0615 76.4392C78.3909 76.9216 81.613 77.7164 84.5641 79.3997C86.9714 80.774 87.8988 83.0647 88.5464 85.5184C88.9564 87.0733 89.2309 88.6611 89.5723 90.2333C90.3043 93.6102 91.5485 96.7563 93.7587 99.4877C94.6174 100.546 95.4076 101.659 96.2294 102.747H96.2311Z" fill="#475196"/>
    <path d="M104.409 115.931C103.962 115.207 103.174 114.983 102.449 114.756C100.504 114.145 99.1474 112.856 98.0142 111.268C98.023 110.777 98.3379 110.576 98.7708 110.482C98.8764 110.517 98.7585 110.437 98.8518 110.494C100.46 111.487 102.077 111.577 103.767 110.647C104.289 110.359 104.914 110.472 105.472 110.727C105.718 110.803 105.931 110.983 106.211 110.971C106.019 110.961 105.841 110.902 105.676 110.801C105.291 110.621 104.886 110.541 104.462 110.494C103.742 110.416 103.098 110.149 102.676 109.533C102.326 109.021 102.459 108.627 103.021 108.419C104.545 107.851 106.445 108.455 107.341 109.791C107.721 110.446 108.448 110.977 108.075 111.846C111.182 114.881 111.425 115.348 110.325 116.255C110.054 116.127 109.76 115.986 109.461 115.844C109.266 116.103 109.088 116.34 108.849 116.658C107.995 116.193 107.174 115.745 106.304 115.273C106.16 115.601 106.033 115.891 105.951 116.082C105.294 116.611 104.948 115.693 104.409 115.929V115.931Z" fill="#EDCEBB"/>
    <path d="M107.34 109.793C106.223 108.981 105.074 108.289 103.582 108.586C103.258 108.65 102.913 108.605 102.642 108.905C102.871 109.811 103.594 110.097 104.384 110.232C104.947 110.33 105.466 110.503 105.964 110.763C105.98 111.069 105.82 111.029 105.63 110.928C104.857 110.666 104.074 110.651 103.365 111.055C101.69 112.015 100.177 111.688 98.7231 110.599C98.5013 110.26 98.797 110.009 98.8744 109.719C99.0011 109.478 99.1278 109.236 99.1947 108.971C99.4481 108.532 99.3935 107.942 99.8739 107.616C102.674 106.613 105.663 107.595 108.491 106.814C109.141 106.635 109.616 107.286 109.392 107.992C109.077 108.986 108.241 109.434 107.339 109.792L107.34 109.793Z" fill="#C4AB9A"/>
    <path d="M85.8243 123.65C85.8929 123.796 85.9615 123.942 86.0302 124.088C86.2325 125.301 86.0161 125.561 84.7737 125.422C81.6555 125.077 78.546 124.636 75.3996 124.607C75.0142 124.591 74.6289 124.577 74.2435 124.561C73.6047 124.464 72.9694 124.457 72.3377 124.61C71.6197 124.784 70.1275 124.497 69.9937 124.417C69.8987 124.36 69.5467 124.358 69.4658 124.277C69.3057 123.81 69.4306 123.416 69.7245 123.057C69.8001 122.989 69.8846 122.937 69.9796 122.899C71.3593 122.63 72.7283 122.941 74.0939 123.024C77.2948 123.22 80.4712 123.687 83.6545 124.077C84.4622 124.176 85.1186 123.876 85.8243 123.65Z" fill="#325078"/>
    <path d="M99.8758 107.619C99.7702 108.131 99.6823 108.647 99.3796 109.094C99.2476 109.284 99.1297 109.485 98.9256 109.613C98.3537 109.964 97.7765 109.929 97.3031 109.488C96.9089 109.122 96.6186 108.659 97.011 108.097C96.923 107.382 97.1764 106.792 97.736 106.351C97.9595 106.174 98.0422 105.976 98.0633 105.721C98.2182 105.893 98.271 106.122 98.5771 106.188C99.3374 106.349 99.7298 106.889 99.8758 107.621V107.619Z" fill="#475196"/>
    <path d="M103.944 119.756C101.502 122.038 98.5207 122.878 95.2371 122.946C91.6226 123.02 88.0714 122.498 84.5273 121.906C84.3971 122.269 84.7051 122.449 84.881 122.666C85.1555 123.008 85.4283 123.346 85.6219 123.74C85.7099 123.912 85.7486 124.138 86.0319 124.086C86.0812 123.296 86.6548 123.64 87.0297 123.669C90.7709 123.966 94.5085 124.471 98.255 123.751C100.74 123.273 102.904 122.305 104.141 119.945C104.201 119.829 104.259 119.714 104.319 119.598C104.087 119.402 104.032 119.615 103.948 119.756H103.944Z" fill="#8AA0BC"/>
    <path d="M23.8709 57.1073C25.4177 56.6908 26.9575 57.0604 28.4902 57.1906C29.6745 57.2895 30.8482 57.5429 31.9762 57.9507C32.3862 58.053 32.5182 58.4209 32.6889 58.7246C33.9964 61.0517 35.3303 63.3649 36.6026 65.711C37.7816 67.8871 38.9113 70.0875 40.1889 72.2098C40.3596 72.4944 40.569 72.7668 40.5373 73.1278C39.9549 73.8653 39.1612 74.2106 38.2444 74.3286C38.167 74.2609 38.1617 74.1881 38.2303 74.11C39.0556 73.6362 39.2422 73.0705 38.709 72.2011C37.1287 69.6242 35.6787 66.9691 34.0527 64.4217C32.3775 61.7961 30.5297 59.2903 27.6262 57.7962C26.4384 57.1854 25.1696 57.0813 23.8691 57.1073H23.8709Z" fill="#E8EAEB"/>
    <path d="M38.2305 74.1099C38.2305 74.1689 38.2322 74.2279 38.234 74.2869C38.2727 74.6947 37.912 74.7693 37.6674 74.915C35.2266 76.3779 32.7524 77.7853 30.2818 79.2013C29.9632 79.3835 29.6254 79.5275 29.2435 79.3592C28.5836 78.4846 27.8639 77.636 27.9272 76.4421C28.7015 77.0773 28.7138 78.1983 29.5022 78.8733C32.4216 77.2803 35.3269 75.6959 38.2305 74.1116V74.1099Z" fill="#E8EAEB"/>
    <path d="M27.9278 76.4421C28.3818 77.3913 28.8376 78.3423 29.2916 79.2915C29.2599 79.3123 29.2265 79.3314 29.1948 79.3522C28.5103 79.2897 28.5472 78.5939 28.1918 78.2416C28.1126 78.1201 28.0475 77.99 27.9806 77.8598C27.9155 77.7349 27.8557 77.6065 27.7923 77.4798C27.7254 77.3549 27.6621 77.2282 27.5935 77.1032C27.5248 76.9748 27.4527 76.8464 27.3823 76.718C26.9212 75.8382 26.52 74.9254 25.9921 74.0803C25.9059 73.9554 25.8443 73.8148 25.7704 73.6829C25.7 73.5493 25.6331 73.4139 25.5592 73.2803C25.4906 73.1415 25.4096 73.0079 25.3392 72.8691C24.3767 70.8353 23.1889 68.916 22.2175 66.8874C22.0573 66.5508 21.7617 66.228 21.994 65.8063C22.455 65.6935 22.4533 66.1117 22.58 66.3373C23.0885 67.2501 23.4898 68.2201 24.0423 69.1121C24.1409 69.2023 24.1092 69.3568 24.2113 69.4453C24.3098 69.5355 24.2781 69.69 24.3802 69.7785C24.9715 70.6201 25.1914 71.6682 25.9024 72.4439C26.015 72.6105 26.1258 72.7771 26.2385 72.9437C26.5623 74.0838 27.201 75.0781 27.7589 76.1089C27.8592 76.1974 27.8222 76.3553 27.9278 76.4421Z" fill="#E8EAEB"/>
    <path d="M18.8035 59.1154C19.1414 59.7262 19.4792 60.3388 19.8189 60.9496C19.8963 61.111 19.7942 61.1457 19.6658 61.1648C19.4581 61.0607 19.3983 60.8455 19.2909 60.6668C19.5567 61.1769 19.9385 61.6125 20.2218 62.1123C20.2693 62.1747 20.3081 62.2424 20.338 62.3136C20.5474 62.9713 21.1809 63.4728 21.0647 64.2502C20.887 64.4185 20.6864 64.3786 20.4823 64.3161C19.3701 62.9851 18.7542 61.3904 18.0626 59.8373C17.899 59.4711 17.9958 59.1275 18.4498 58.9887C18.587 58.9783 18.7032 59.0269 18.8035 59.1154Z" fill="#E8EAEB"/>
    <path d="M19.6489 61.1158C19.7052 61.0603 19.7615 61.0047 19.8179 60.9492C21.2679 63.6494 22.8129 66.3009 24.0412 69.1122C23.3532 68.4701 23.1702 67.5452 22.6915 66.7851C22.4751 66.4432 22.4205 65.9955 22.014 65.7786C21.9771 65.7613 21.9419 65.7456 21.9049 65.7283C21.2661 65.0637 21.2028 64.1231 20.7558 63.3665C20.5446 63.0108 20.4074 62.6151 20.1557 62.2802C19.9569 61.9036 19.6348 61.5791 19.6507 61.1141L19.6489 61.1158Z" fill="#D9D9D9"/>
    <path d="M27.7587 76.1091C27.0442 75.1512 26.3914 74.1638 26.2383 72.9438C26.7451 73.9989 27.2519 75.054 27.7587 76.1091Z" fill="#D9D9D9"/>
    <path d="M25.9001 72.445C25.0273 71.7595 24.8161 70.7062 24.3779 69.7795C25.1258 70.5344 25.3634 71.5739 25.9001 72.445Z" fill="#D9D9D9"/>
    <path d="M27.9277 76.4421C27.8714 76.331 27.8151 76.2199 27.7588 76.1089C27.8151 76.2199 27.8714 76.331 27.9277 76.4421Z" fill="#F0F0F0"/>
    <path d="M24.3804 69.7802C24.3241 69.6692 24.2677 69.5581 24.2114 69.4453C24.2677 69.5564 24.3241 69.6674 24.3804 69.7802Z" fill="#EFEFEF"/>
    <path d="M24.2104 69.447C24.1541 69.3359 24.0978 69.2249 24.0415 69.1121C24.0978 69.2231 24.1541 69.3342 24.2104 69.447Z" fill="#EFEFEF"/>
    <path d="M18.8036 59.1154L18.4851 59.1224C18.4094 58.836 18.5819 58.8794 18.7561 58.9211L18.8177 58.9627C18.8089 59.013 18.8036 59.0651 18.8036 59.1154Z" fill="#EA9C47"/>
    <path d="M76.9328 52.9458C77.3762 53.18 77.8197 53.4126 78.2631 53.6468C79.736 55.488 80.0105 57.6659 79.9331 59.8871C79.8627 61.9243 79.3418 63.8609 77.9024 65.4418C77.927 64.6401 78.0132 63.8332 77.7246 63.0575C77.4748 62.3877 77.1422 61.7595 76.3468 61.6311C75.6059 61.5113 75.0569 61.9018 74.6064 62.4432C74.448 62.6341 74.2932 62.8284 74.0714 63.1009C71.2277 62.4206 68.8081 61.0601 66.948 58.7765C66.6876 58.4398 66.7615 58.0979 66.948 57.7682C68.4913 55.0438 70.6241 53.0794 73.848 52.4547C74.9654 52.2378 75.942 52.5519 76.931 52.9475L76.9328 52.9458Z" fill="#312206"/>
    <path d="M99.0764 109.802C98.9585 110.068 98.8424 110.335 98.7245 110.6C98.4887 110.823 98.2511 111.046 98.0153 111.268C97.051 111.68 96.326 111.3 95.7013 110.588C95.1716 110.172 94.5328 110.505 93.9644 110.34C93.8852 110.337 93.8096 110.324 93.7356 110.298C93.5016 110.234 93.2588 110.274 93.023 110.241C92.2346 110.123 91.5518 109.717 90.8127 109.462C89.2923 108.94 88.5761 109.167 87.654 110.47C87.5255 110.651 87.42 110.852 87.1806 110.916C86.6422 111.298 85.984 111.293 85.3769 111.452C83.7052 111.227 82.5807 110.21 81.7396 108.881C80.6784 107.206 80.1822 105.356 80.1118 103.369C79.9763 99.5603 80.6556 95.8293 81.099 92.0724C81.2556 90.7379 81.2979 89.3913 81.3929 88.0273C81.875 88.043 81.912 88.4438 82.0317 88.7111C83.1596 91.2151 84.2648 93.7296 85.3804 96.2389C86.1266 97.9204 87.0099 99.5152 88.2699 100.893C89.3574 102.083 90.0508 103.496 90.5593 105.014C91.096 106.616 92.2751 107.711 93.6688 108.601C94.5222 109.146 95.3106 109.006 96.0321 108.315C96.2503 108.105 96.4579 107.716 96.8574 108.091C97.095 108.591 96.6797 109.046 96.7606 109.577C97.1777 110.118 97.7338 110.031 98.325 109.861C98.5855 109.787 98.7614 109.493 99.0799 109.582C99.1169 109.655 99.1187 109.726 99.0799 109.799L99.0764 109.802Z" fill="#1D273D"/>
    <path d="M68.1269 80.1165C70.3741 80.5538 72.4682 80.212 74.3757 78.9209C74.9019 81.7963 75.1166 84.7047 75.1817 87.6166C75.2978 92.7219 75.3278 97.829 75.3929 102.934C74.6608 102.934 73.9288 102.934 73.1985 102.934C73.0313 103.089 72.8342 103.198 72.6072 103.202C71.6939 103.217 70.7894 103.358 69.8779 103.399C69.4362 103.42 69.1212 103.262 69.0666 102.78C68.991 101.91 69.2725 101.081 69.3693 100.231C69.6931 97.3726 69.3359 94.5336 69.2215 91.6877C69.1159 89.0552 68.9135 86.4348 68.4842 83.8336C68.3663 83.1238 68.2835 82.4072 68.0882 81.7113C68.0178 81.1786 67.6817 80.6389 68.1269 80.1183V80.1165Z" fill="white"/>
    <path d="M99.04 109.591C97.8628 110.537 97.0832 110.53 96.3652 109.555C96.3987 109.034 96.8967 108.651 96.8527 108.095C96.9055 108.095 96.9565 108.095 97.0093 108.095C97.1342 109.482 97.6516 109.819 99.0365 109.413C99.0823 109.451 99.0981 109.491 99.084 109.531C99.0699 109.57 99.0559 109.591 99.04 109.591Z" fill="#292F72"/>
    <path d="M79.7807 112.613C79.8881 112.693 79.9954 112.771 80.101 112.849C79.237 113.335 78.79 113.401 78.1143 113.117C78.2005 112.553 78.5243 112.264 79.1103 112.259C79.3337 112.377 79.5572 112.495 79.7807 112.613Z" fill="#CCDCEE"/>
    <path d="M38.8953 120.423C38.0577 119.111 38.1298 117.695 38.3973 116.256C38.4466 116.195 38.4976 116.135 38.5487 116.074C38.8777 115.687 39.3511 115.859 39.7576 115.767C40.9701 115.647 41.8798 116.312 42.8125 116.914C42.8178 116.975 42.8371 117.03 42.8723 117.082C42.9163 117.129 42.9621 117.171 43.0131 117.212C43.0747 117.244 43.1363 117.271 43.2014 117.294C43.2683 117.329 43.3334 117.363 43.4002 117.396C43.5217 117.429 43.6448 117.45 43.7645 117.49C45.2075 117.917 46.6733 118.089 48.1726 117.879C50.6081 117.54 53.0383 117.514 55.465 117.983C59.1023 118.686 62.7608 119.284 66.3947 119.999C67.3713 120.192 68.304 120.48 69.0272 121.207C69.6748 121.86 69.8103 122.512 69.4566 123.197C69.1011 123.414 68.7017 123.399 68.3093 123.395C65.3564 123.364 62.4054 123.373 59.4807 123.864C59.3417 123.886 59.2009 123.893 59.0601 123.89C55.9946 123.812 52.938 124.161 49.8725 124.069C47.6729 124.003 45.4961 123.796 43.3703 123.213C42.4201 122.953 41.5103 122.59 40.6815 122.056C40.3665 121.884 40.1219 121.622 39.8333 121.415C39.689 121.28 39.5587 121.131 39.4074 121.002C39.2297 120.817 39.0449 120.636 38.8971 120.424L38.8953 120.423Z" fill="#CCDCEE"/>
    <path d="M45.9929 111.759C45.9313 111.811 45.8679 111.863 45.8064 111.915C45.4808 111.901 45.4984 111.63 45.4861 111.436C45.4509 110.83 45.2591 110.263 45.1025 109.687C45.0655 108.217 45.4544 107.597 46.8464 107.426C49.588 107.087 51.7173 105.609 53.741 103.957C57.3889 100.982 59.5833 97.1212 60.6198 92.592C60.6884 92.2953 60.7412 91.9899 60.882 91.7157C61.0034 91.4814 61.1829 91.3079 61.4732 91.3183C61.8006 91.3305 61.9713 91.5387 62.0698 91.8216C62.1244 91.9812 62.1472 92.1461 62.149 92.3127C62.1754 95.8354 62.3074 99.3667 61.614 102.853C61.1319 105.279 60.5617 107.686 59.5886 109.976C59.2947 110.665 58.9973 111.366 58.2793 111.762C57.5526 111.92 56.8328 112.005 56.1624 111.57C56.0198 111.439 55.967 111.273 55.9618 111.089C56.1149 110.133 56.5777 109.204 56.2468 108.071C55.0731 108.654 54.1017 109.485 52.9385 109.966C51.5202 110.645 50.0315 111.11 48.4882 111.408C48.4055 111.419 48.3228 111.424 48.2418 111.425C48.0007 111.436 47.7544 111.401 47.5239 111.502C47.3813 111.573 47.2282 111.592 47.0698 111.592C46.7707 111.608 46.468 111.563 46.1706 111.63C46.1037 111.665 46.0457 111.708 45.9929 111.76V111.759Z" fill="#1D273D"/>
    <path d="M69.306 102.755C69.2954 103.166 69.5418 103.135 69.855 103.114C70.9689 103.036 72.0846 102.991 73.2003 102.933C75.2556 107.253 74.2491 111.973 70.5431 114.603C68.4472 116.091 66.0153 116.445 63.476 115.862C61.8658 115.492 60.2451 115.164 58.649 114.742C56.9685 114.3 55.4023 113.642 54.6069 111.933C54.936 111.667 55.251 111.879 55.5572 111.976C57.8853 112.703 60.1994 113.474 62.6436 113.751C63.5411 113.852 64.4368 113.904 65.3184 113.661C65.9572 113.486 66.6013 113.233 66.6893 112.486C66.7755 111.766 66.2757 111.324 65.6932 110.984C65.5965 110.928 65.4962 110.879 65.4082 110.808C65.204 110.473 65.4082 110.217 65.6 109.982C67.1943 108.047 68.097 105.783 68.8238 103.433C68.9065 103.168 68.8678 102.788 69.306 102.755Z" fill="#CCDCEE"/>
    <path d="M85.8249 123.651C85.5275 124.379 84.887 124.47 84.2324 124.405C82.1524 124.201 80.0706 123.989 77.9976 123.722C75.2824 123.371 72.5583 123.173 69.8237 123.094C69.4207 121.908 69.5316 120.645 69.2412 119.442C69.2694 119.22 69.4242 119.085 69.6178 119.045C70.927 118.769 72.0409 118.078 73.183 117.445C73.4787 117.301 73.7848 117.174 74.0699 117.013C75.1627 116.392 76.3171 116.572 77.3025 117.553C77.7513 117.999 78.1754 118.467 78.61 118.925C79.372 118.958 79.7292 119.732 80.4226 119.89C80.5897 119.972 80.7639 120.045 80.9065 120.17C80.9258 120.201 80.9452 120.232 80.9646 120.265C82.2104 120.688 83.4898 121.048 84.528 121.908C84.9662 122.486 85.5839 122.932 85.8249 123.652V123.651Z" fill="#5E7CA0"/>
    <path d="M38.5513 116.245C38.5003 116.247 38.4492 116.25 38.4 116.254C37.6837 116.21 37.2948 116.812 36.7335 117.074C36.4326 117.215 36.1616 117.439 35.7973 117.406C35.4929 117.364 35.4911 117.026 35.2412 116.871C34.2892 117.026 33.4393 117.748 32.3799 117.562C31.3628 115.986 31.4085 115.789 33.0134 114.747C33.1771 114.641 33.3284 114.492 33.5079 114.433C34.6746 114.051 35.2975 113.38 34.8523 112.101C35.9539 110.447 37.2227 109.892 39.2675 110.624C39.3045 111.875 37.8914 111.803 37.2297 112.601C38.9543 111.723 40.7633 111.726 42.4262 111.169C42.6427 111.096 42.8609 111.055 43.0879 111.129C43.5278 111.327 43.6176 111.759 43.7883 112.139C43.8639 112.337 43.9326 112.535 43.8446 112.748C42.5212 113.925 41.066 114.905 39.4206 115.596C39.1672 115.858 38.7607 115.922 38.553 116.245H38.5513Z" fill="#EDCEBB"/>
    <path d="M80.4272 120.112C79.6758 119.931 79.1584 119.404 78.6094 118.923C80.5028 118.585 82.4069 118.298 84.2845 117.892C86.6707 117.377 89.0199 116.684 91.4132 116.219C93.1571 115.881 94.9256 115.886 96.6114 116.697C98.1723 117.448 99.8476 117.72 101.584 117.575C101.514 118.703 100.576 118.784 99.7948 118.897C98.7953 119.039 97.7588 118.977 96.812 118.593C94.1249 117.505 91.5012 117.906 88.8475 118.739C86.2853 119.544 83.6651 120.122 80.9639 120.263H80.9674C80.8196 120.1 80.5891 120.226 80.4272 120.112Z" fill="#E7F1FC"/>
    <path d="M65.3818 110.737C66.4218 110.588 66.7052 111.411 66.9902 112.077C67.2683 112.728 66.8565 113.252 66.2811 113.58C65.1249 114.239 63.8597 114.165 62.6015 114.019C59.8369 113.7 57.2272 112.789 54.6052 111.933C54.1987 111.77 53.7922 111.609 53.3857 111.445C54.2902 110.921 55.1983 110.94 56.1098 111.432C56.8489 111.492 57.588 111.555 58.3288 111.616C58.8655 111.437 59.4093 111.465 59.9566 111.551C61.0001 111.714 62.0524 111.806 63.0995 111.937C63.6186 112.001 63.9776 111.654 64.3471 111.357C64.6621 111.104 64.8909 110.706 65.3818 110.739V110.737Z" fill="#E7F1FC"/>
    <path d="M68.9416 119.118C68.3943 119.045 66.9232 118.914 66.7754 118.784C67.6377 118.069 68.6565 117.146 69.561 116.518C70.7893 115.664 71.8399 115.973 73.1808 117.441C72.1725 118.64 70.7981 119.079 69.3006 119.268H69.3059C69.2179 119.142 69.0578 119.18 68.9416 119.118Z" fill="#325078"/>
    <path d="M43.8412 112.749C43.7708 112.581 43.7004 112.412 43.6318 112.244C43.4664 111.97 43.6441 111.794 43.8641 111.751C44.7351 111.581 44.9199 110.984 44.9164 110.236C44.9164 110.073 44.978 109.915 45.0871 109.783C45.1592 109.714 45.2384 109.705 45.3246 109.761C45.6854 110.436 45.7065 111.185 45.8086 111.916C45.3528 112.65 44.6366 112.789 43.8429 112.749H43.8412Z" fill="#2B3174"/>
    <path d="M38.5513 116.245C38.641 115.77 39.0299 115.683 39.4188 115.596C39.5314 115.652 39.6458 115.709 39.7584 115.765C39.3555 115.924 38.9542 116.084 38.5513 116.245Z" fill="#8AA0BC"/>
    <path d="M69.3003 119.27C69.2828 119.23 69.2652 119.19 69.2458 119.152C69.1314 119.012 68.9766 118.932 68.8041 118.882C68.3008 118.816 67.7958 118.517 67.2995 118.902C63.5707 118.158 59.8435 117.396 56.1112 116.672C54.3021 116.322 52.4984 115.866 50.6296 115.999C48.7414 116.133 46.9834 116.846 45.1568 117.259C44.65 117.259 43.2334 117.2 43.1366 117.085C43.1366 117.085 42.9202 116.971 42.8111 116.915C42.7266 116.947 42.6439 116.978 42.4873 117.037C42.6351 117.144 42.7125 117.202 42.7917 117.261C42.8498 117.315 42.9044 117.368 42.9607 117.424C43.0768 117.695 46.2162 118.368 47.7436 118.25C48.7168 118.174 49.6828 118 50.6577 117.936C53.1724 117.773 55.6131 118.295 58.0592 118.758C61.0507 119.326 64.0528 119.848 67.0356 120.454C68.6721 120.787 69.4306 121.679 69.4851 123.078C69.5907 123.173 69.6945 123.194 69.8001 123.078L69.8195 123.093C69.8248 121.795 69.9585 120.481 69.2968 119.272L69.3003 119.27Z" fill="#E7F1FC"/>
    <path d="M45.3219 109.762C45.2673 109.762 45.2128 109.762 45.16 109.762C44.9611 109.681 44.8608 109.513 44.7922 109.33C44.4702 108.464 43.8824 107.821 43.0976 107.338C42.9321 107.236 42.7703 107.12 42.7368 106.906C42.7597 106.75 42.7826 106.594 42.8054 106.438C42.911 105.566 43.4178 104.916 44.0021 104.305C45.6668 102.564 47.4617 100.952 49.3992 99.5258C52.6476 97.1345 54.7769 93.9641 56.2709 90.3286C57.3919 87.5989 58.5023 84.8744 60.2215 82.4329C61.8493 80.1197 63.8008 78.2351 66.5794 77.3327C66.7132 77.2894 66.8223 77.1957 66.9384 77.1158C67.0563 77.0551 67.1742 76.9926 67.2939 76.9319C67.8112 77.9332 67.7497 79.0802 68.128 80.1179C68.1878 80.616 68.2477 81.1157 68.3075 81.6138C68.4465 81.8845 68.4359 82.1812 68.2758 82.4086C67.6089 83.3595 67.762 84.4007 67.8288 85.4575C68.1227 90.0769 68.3356 94.6964 67.6828 99.3071C67.1021 103.411 65.2104 106.863 62.3156 109.818C61.8282 110.316 61.3249 110.798 60.9061 111.361C60.6914 111.65 60.4415 111.937 59.9998 111.782C59.4384 111.765 58.8718 111.814 58.328 111.619C60.174 108.924 60.7019 105.783 61.3495 102.701C62.0728 99.2603 61.888 95.7549 61.8809 92.2669C61.8809 91.9407 61.9302 91.5745 61.478 91.4652C61.0468 91.5138 61.0785 91.8452 61.0169 92.1437C60.1617 96.3536 58.2841 100.069 55.1781 103.08C53.172 105.023 50.9213 106.7 48.1322 107.475C47.8647 107.55 47.5831 107.576 47.3051 107.602C45.716 107.756 45.3254 108.18 45.3219 109.764V109.762Z" fill="#292F73"/>
    <path d="M76.9327 52.9462C72.829 51.6013 68.9365 54.619 67.1451 57.8971C66.992 58.1782 66.9304 58.4645 66.9462 58.7751C66.596 58.5044 66.4553 58.8324 66.2828 59.0163C65.5736 59.7695 64.824 60.4827 63.9459 61.0345C63.4197 61.3642 63.5112 61.8796 63.3546 62.3343C63.2086 62.7594 63.3529 63.2904 62.9006 63.608C60.4071 59.8753 64.1799 52.6165 70.1296 51.7887C72.5211 51.4555 74.8316 51.6065 76.9327 52.9479V52.9462Z" fill="#513710"/>
    <path d="M67.3029 74.7705C67.2923 73.941 67.2835 73.1115 67.2729 72.282C68.7054 71.2443 70.4158 70.6821 71.8659 69.4153C71.8887 71.9194 70.0973 74.3176 67.9575 74.9267C67.69 75.003 67.47 75.0256 67.3011 74.7705H67.3029Z" fill="#C4AB9A"/>
    <path d="M105.63 110.93C105.741 110.874 105.853 110.82 105.964 110.765C106.082 110.826 106.198 110.886 106.395 110.99C106.066 111.133 105.839 111.145 105.628 110.93H105.63Z" fill="#C4AB9A"/>
    <path d="M98.521 109.889C98.521 109.83 99.0384 109.472 99.0366 109.413C99.151 109.307 99.2654 109.2 99.3797 109.094C99.3692 109.368 99.2654 109.604 99.0771 109.804C99.0648 109.733 98.5351 109.96 98.5228 109.891L98.521 109.889Z" fill="#292F72"/>
    <path d="M69.4883 123.074C69.5938 123.074 69.7205 123.07 69.8261 123.07C69.9229 123.508 69.1961 124.082 70.0109 124.422C63.1057 124.717 56.1759 124.573 49.2707 124.54C46.5378 124.526 43.8226 124.211 41.4082 122.746C41.0052 122.501 40.6322 122.211 40.245 121.941C40.2028 121.769 40.2714 121.706 40.4439 121.743C43.2682 123.218 46.3407 123.688 49.4731 123.733C54.0748 123.798 58.6677 123.641 63.2535 123.15C65.3107 122.93 67.41 123.088 69.49 123.074H69.4883Z" fill="#8AA0BC"/>
    <path d="M33.8362 55.6097C34.4468 54.546 35.5484 53.9733 36.3772 53.1282C38.2672 52.8419 39.8369 53.4284 41.1936 54.7455C42.3586 55.8752 43.1856 57.2201 43.9247 58.6257C45.6229 61.8534 47.2066 65.1349 48.683 68.465C48.8625 68.871 49.1951 69.2008 49.2743 69.6537C49.2286 69.9122 49.0104 69.999 48.8062 70.0806C46.7122 70.9083 44.655 71.8228 42.4994 72.4944C42.0137 72.5222 41.7163 72.2688 41.5086 71.8627C39.2949 67.5279 36.9175 63.2798 34.658 58.9693C34.2708 58.2301 33.9594 57.4561 33.7447 56.6457C33.6497 56.2882 33.5933 55.936 33.838 55.6097H33.8362Z" fill="#E8EAEB"/>
    <path d="M49.2499 69.6393C48.1958 68.7109 47.9424 67.3521 47.3652 66.1756C45.6653 62.7171 44.2065 59.1302 41.94 55.9702C40.7363 54.2921 39.1437 53.1867 36.9212 53.2804C36.7417 53.2874 36.5587 53.1815 36.3774 53.1295C38.5947 51.3403 41.1622 50.6445 43.99 50.759C44.0745 50.733 44.1537 50.7399 44.2294 50.785C45.1497 52.0692 45.5738 53.598 46.3534 54.9533C46.964 56.4665 47.682 57.9328 48.3683 59.413C49.674 62.2225 50.9991 65.0233 52.2502 67.8588C52.3312 68.0931 52.4368 68.3239 52.3453 68.5807C52.171 68.8948 51.8332 68.9504 51.5393 69.0753C51.4671 69.1048 51.3932 69.1291 51.3193 69.1499C51.1698 69.1812 51.029 69.2402 50.89 69.3026C50.6084 69.4206 50.3163 69.5126 50.0382 69.6428C49.7743 69.7243 49.5103 69.8684 49.2481 69.641L49.2499 69.6393Z" fill="white"/>
    <path d="M33.8373 55.6104C34.0238 57.632 35.1166 59.3066 36.0158 61.0436C37.4043 63.7247 38.8719 66.3676 40.299 69.0313C40.8093 69.984 41.3109 70.9402 41.786 71.9085C41.9391 72.2208 42.1643 72.2816 42.4582 72.2833C42.4969 72.6321 42.1767 72.6564 41.9831 72.797C41.464 72.8924 41.0328 73.4061 40.4328 73.1215C37.6154 68.0647 34.7963 63.008 31.979 57.9513C32.4084 57.0246 32.9909 56.2142 33.839 55.6104H33.8373Z" fill="#D9D9D9"/>
    <path d="M53.3305 67.9057C52.2817 65.7071 51.2628 63.4963 50.2316 61.2889C48.2238 57.3133 46.5978 53.1503 44.472 49.3656C43.9775 49.3308 43.791 49.4402 43.6344 49.612C43.2771 49.9156 42.7563 50.0527 42.5645 50.5612C43.0625 50.7399 43.564 50.4536 43.9881 50.7573C44.0356 50.7712 44.0813 50.7833 44.1306 50.7955C44.194 50.8111 44.2432 50.8128 44.2784 50.8007C44.9577 52.1421 45.512 53.5425 46.2089 54.8769C46.5907 55.8591 47.0729 56.7962 47.5111 57.7524C49.0227 61.0529 50.5888 64.3275 52.0793 67.6385C52.1919 67.9751 52.4577 68.258 52.4366 68.645C52.25 68.9209 51.9368 68.999 51.6658 69.1274C49.5893 70.1113 47.5727 71.2115 45.5243 72.2492C45.2269 72.4002 44.7993 72.4661 44.8204 72.9468C47.5533 72.1868 50.0187 70.7829 52.6442 69.7695C53.6842 69.3686 53.7493 68.7838 53.3287 67.9057H53.3305Z" fill="#FCCA95"/>
    <path d="M42.7672 105.941C43.4781 103.841 44.9598 102.27 46.4503 100.705C46.7723 100.367 47.0697 100.004 47.3794 99.6519C51.1365 95.8966 54.5116 91.921 56.0373 86.6855C57.6123 81.2818 61.4397 78.2397 66.9389 77.1135C66.7171 77.5803 66.2015 77.5959 65.8179 77.7834C61.906 79.7009 59.7732 83.1091 58.0135 86.8192C56.8749 89.2191 56.0743 91.7579 54.677 94.0589C53.2059 96.4832 51.2614 98.3938 49.0406 100.129C47.024 101.705 45.0249 103.331 43.45 105.377C43.1983 105.703 43.0188 106.081 42.8041 106.435C42.7566 106.283 42.732 106.152 42.7654 105.941H42.7672Z" fill="#475196"/>
    <path d="M43.1172 111.26C40.951 111.968 38.607 112.029 36.3211 113.28C36.9582 111.838 38.5015 111.878 39.2405 110.658C37.9982 110.684 36.9353 110.189 36.0237 111.165C35.6859 111.525 35.2442 111.793 34.8482 112.103C34.081 111.997 33.2662 111.966 33.0287 111.081C33.0093 111.007 33.0252 110.925 33.0674 110.861C33.2627 110.557 33.5601 110.503 33.8505 110.417C34.4101 110.248 35.0101 110.127 35.5011 109.834C36.9951 108.942 38.5842 108.567 40.3122 108.763C40.7486 108.813 41.0654 108.693 41.2255 108.27C41.9224 108.895 42.5224 109.596 42.9589 110.424C43.0961 110.682 43.2932 110.939 43.1155 111.26H43.1172Z" fill="#C4AB9A"/>
    <path d="M43.1175 111.26C42.6459 110.427 42.345 109.471 41.4563 108.931C41.1818 108.765 41.2504 108.508 41.2275 108.268C41.5601 107.63 42.081 107.194 42.7374 106.904C44.0466 107.442 44.8702 108.381 45.1588 109.761C45.0514 110.533 45.5424 111.524 44.3704 111.911C44.1082 111.997 43.7281 111.808 43.6296 112.246C43.4589 111.918 43.2864 111.588 43.1157 111.26H43.1175Z" fill="#475196"/>
    <path d="M39.764 121.248C39.6496 121.137 39.5353 121.028 39.4209 120.917C39.2467 120.752 39.0707 120.587 38.8965 120.422C38.9141 120.644 39.0126 120.82 39.2168 120.929C39.3223 121.042 39.4279 121.153 39.5335 121.265C39.7711 121.491 40.0086 121.715 40.2462 121.941C40.3131 121.875 40.3782 121.809 40.4433 121.743C40.2163 121.578 39.991 121.413 39.764 121.248Z" fill="#8AA0BC"/>
    <path d="M23.5002 69.8254C22.6679 68.4909 21.8883 67.1634 21.2425 65.7335C21.2196 65.6519 21.2038 65.6467 21.1492 65.5842C21.1228 65.5461 21.0331 65.4905 21.0366 65.4454C21.012 65.3621 21.0401 65.3482 20.9838 65.2875C20.9574 65.2493 20.8712 65.1504 20.8765 65.1053C20.8536 65.0203 20.8483 64.956 20.7885 64.8936C20.7638 64.8571 20.7005 64.7409 20.7058 64.6958C20.6811 64.609 20.5826 64.3973 20.521 64.3348C20.4964 64.2966 20.6354 64.373 20.6319 64.3279C20.7339 64.1422 20.8712 64.2376 21.0014 64.2827C21.0788 64.1977 21.1457 64.2342 21.2073 64.3018C21.2495 64.3747 21.2073 64.4615 21.2495 64.5344C21.2777 64.5812 21.3006 64.6298 21.3217 64.6801C21.3393 64.7322 21.3639 64.7825 21.3938 64.8294C21.4255 64.8762 21.4519 64.9248 21.4765 64.9751C21.5082 65.0532 21.5416 65.1313 21.5927 65.2007C21.6261 65.2493 21.6543 65.2996 21.6771 65.3552C21.7159 65.4385 21.7827 65.4992 21.8513 65.5599C21.9147 65.6293 21.9517 65.7144 22.015 65.7838C22.8438 67.9182 24.1372 69.8254 25.1086 71.8904C25.2723 72.2375 25.4113 72.5932 25.5626 72.9455C25.5257 72.9593 25.4887 72.9715 25.4535 72.9854C25.0365 72.8656 25.0206 72.4509 24.8376 72.1611C24.3572 71.4028 24.1531 70.4917 23.5037 69.8254H23.5002Z" fill="#E8EAEB"/>
    <path d="M26.0695 73.9434C26.8016 74.7694 27.1817 75.7793 27.5899 76.7754C27.5512 76.7875 27.5125 76.7997 27.4755 76.8118C26.7013 76.0327 26.3476 75.0349 25.9956 74.0371C26.0202 74.0058 26.0466 73.9746 26.0713 73.9434H26.0695Z" fill="#E8EAEB"/>
    <path d="M29.2929 79.2884C29.168 79.3908 29.043 79.4932 28.9181 79.5973C28.809 79.5487 28.6999 79.4984 28.589 79.4498C28.633 78.976 28.0822 78.688 28.1878 78.1951C28.2124 78.1674 28.2388 78.1379 28.2635 78.1101C28.8019 78.3374 28.6541 79.1461 29.2911 79.2884H29.2929Z" fill="#E8EAEB"/>
    <path d="M28.0966 77.7747C28.1529 77.8857 28.2093 77.9968 28.2656 78.1079C28.0333 78.1703 28.0245 78.0246 28.0298 77.8632C28.0526 77.8337 28.0738 77.8042 28.0966 77.7729V77.7747Z" fill="#EEEEED"/>
    <path d="M27.9282 77.4414C27.9845 77.5525 28.0408 77.6636 28.0971 77.7746C27.8648 77.8371 27.856 77.6913 27.8613 77.5299C27.8842 77.5004 27.9053 77.4709 27.9282 77.4397V77.4414Z" fill="#EEEEED"/>
    <path d="M27.7582 77.1091C27.8145 77.2202 27.8708 77.3313 27.9271 77.4423C27.6966 77.5048 27.6861 77.3573 27.6913 77.1977C27.7142 77.1682 27.7353 77.1387 27.7582 77.1074V77.1091Z" fill="#EFEEED"/>
    <path d="M27.5893 76.7754C27.6456 76.8865 27.702 76.9975 27.7583 77.1086C27.475 77.1086 27.4802 76.968 27.5893 76.7754Z" fill="#EFEEED"/>
    <path d="M25.9008 73.6101C25.9571 73.7212 26.0135 73.8322 26.0698 73.9433C25.8375 74.0058 25.8287 73.8583 25.834 73.6986C25.8568 73.6691 25.878 73.6396 25.9008 73.6101Z" fill="#EFEEED"/>
    <path d="M25.7313 73.2769C25.7877 73.3879 25.844 73.499 25.9003 73.61C25.6698 73.6708 25.6592 73.525 25.6645 73.3654C25.6874 73.3359 25.7085 73.3064 25.7313 73.2769Z" fill="#EFEEED"/>
    <path d="M25.562 72.9438C25.6183 73.0549 25.6746 73.166 25.7309 73.277C25.4476 73.277 25.4529 73.1365 25.562 72.9438Z" fill="#EFEEED"/>
    <path d="M21.1684 64.4496C21.1121 64.3941 21.0575 64.3386 21.0012 64.283C20.7197 63.6167 20.4363 62.9503 20.1548 62.2839C21.0135 63.3269 21.5432 64.6474 22.0747 65.8604C21.962 65.8049 21.7896 65.6713 21.677 65.6157C21.5766 65.5255 21.6066 65.3711 21.5063 65.2826C21.406 65.1941 21.4376 65.0396 21.3373 64.9494C21.237 64.8609 21.2687 64.7047 21.1684 64.6162C21.1279 64.5798 21.1138 64.5433 21.1279 64.5069C21.142 64.4704 21.1543 64.4513 21.1684 64.4513V64.4496Z" fill="#F6F6F6"/>
    <path d="M19.6493 61.1168C19.8183 61.5055 19.9872 61.896 20.1544 62.2847C19.4751 61.6444 19.2991 60.7385 19.0088 59.8865C19.2217 60.296 19.4364 60.7073 19.6493 61.1168Z" fill="#F6F6F6"/>
    <path d="M28.6029 80.7732C28.2123 80.1051 27.8216 79.4352 27.4309 78.7671C27.4274 78.7133 27.4222 78.6613 27.4151 78.6092C27.3553 78.5572 27.3078 78.493 27.2585 78.4305C27.0016 77.8197 26.7781 77.1915 26.4807 76.6015C23.7179 71.1335 20.9446 65.6689 18.1624 60.2096C17.9126 59.7185 17.58 59.2691 17.2843 58.8005C16.8039 58.8717 16.9641 59.1615 17.082 59.4148C17.3512 59.9944 17.624 60.574 17.9161 61.1432C20.7387 66.6355 23.5648 72.1261 26.3892 77.6183L26.3927 77.627C26.5176 77.6982 26.4737 77.8578 26.5669 77.9463V77.9515C26.6813 78.0314 26.6373 78.1945 26.7464 78.276C26.8643 78.4444 26.9822 78.611 27.1001 78.7793C27.1424 78.8417 27.2145 78.8851 27.2286 78.9667C27.2251 78.9702 27.2233 78.9719 27.2198 78.9754C27.5664 79.6365 27.9114 80.2977 28.258 80.9571C28.3706 80.9641 28.4815 80.9693 28.5941 80.9762C28.7789 81.1324 28.9426 81.0144 29.1115 80.9415C28.983 80.7645 28.7895 80.7784 28.6012 80.7749L28.6029 80.7732Z" fill="#AF6A1D"/>
    <path d="M59.9998 111.779C60.8462 110.915 61.712 110.066 62.5356 109.181C65.1224 106.398 66.8311 103.179 67.3713 99.4133C67.9045 95.7014 67.9221 91.9722 67.6599 88.2361C67.5543 86.7194 67.5473 85.1958 67.4505 83.6774C67.396 82.8323 68.2617 82.395 68.3057 81.6106C68.9868 84.0262 69.2437 86.5059 69.3721 88.9927C69.571 92.7826 70.0373 96.5691 69.6555 100.371C69.5745 101.169 69.4214 101.959 69.3035 102.754C68.5204 105.666 67.3572 108.395 65.3793 110.736C63.9434 112.878 61.9197 112.074 59.998 111.779H59.9998Z" fill="#475196"/>
    <path d="M42.792 117.257C42.8486 117.311 42.9053 117.367 42.9619 117.421C42.9053 117.367 42.8486 117.311 42.792 117.257Z" fill="#DEE9F6"/>
    <path d="M68.9419 119.119C69.102 119.081 69.2252 119.128 69.3062 119.28C69.1847 119.227 69.0633 119.173 68.9419 119.119Z" fill="#E7F1FC"/>
    <path d="M52.2473 67.6197C51.6683 66.3616 51.0929 65.1017 50.5122 63.8436C49.1202 60.8259 47.7265 57.8082 46.3328 54.7904C45.6641 53.3987 44.9954 52.0053 44.3249 50.6135C44.2598 50.6743 44.1965 50.735 44.1314 50.794C44.8018 52.1944 45.4705 53.5931 46.141 54.9935C48.1084 59.2901 50.074 63.5868 52.0414 67.8834C52.0519 67.9077 52.0625 67.932 52.0748 67.9563C52.1329 68.1732 52.191 68.3919 52.249 68.6088C52.0695 68.7546 51.8636 68.8483 51.6454 68.9212C51.1756 69.119 50.7005 69.3047 50.2183 69.4695C47.5857 70.5194 44.9285 71.5068 42.3153 72.6035C41.8314 72.7666 41.3756 72.9592 41.1117 73.4399C40.9621 73.7141 40.6841 73.7974 40.3849 73.7471C39.776 73.643 39.2921 73.931 38.8117 74.2174C35.8096 76.003 32.7635 77.714 29.7579 79.4927C29.5432 79.6194 29.2968 79.8814 29.0188 79.5621C28.915 79.4476 28.8727 79.9352 28.7883 79.8034C27.0532 76.6832 25.1087 73.0894 23.532 69.8877C22.7154 68.614 19.1045 61.4575 18.3654 60.0155C18.2158 59.724 17.9571 59.3526 18.4833 59.1183C18.573 59.0507 18.6645 58.9847 18.7543 58.917C18.2879 58.5995 17.7741 58.8146 17.2814 58.7956C17.1705 59.0368 17.3166 59.2259 17.4186 59.4168C19.6535 63.644 21.8796 67.8765 24.0106 72.1558C25.0383 74.2191 26.0853 76.2737 27.0497 78.3665C27.1077 78.4724 27.1834 78.5678 27.2397 78.6754C27.2714 78.7483 27.3083 78.8177 27.3541 78.8836C27.7641 79.5326 27.8873 80.35 28.5489 80.848C28.7232 80.9556 28.9343 80.8359 29.1103 80.9348C33.6011 79.0068 37.4039 75.9145 42.0003 73.6846C42.7957 73.6065 43.8181 73.3185 44.8177 72.9419C47.4643 71.5536 50.1092 70.1671 52.8104 68.7511C52.5851 68.2982 52.4144 67.9563 52.2437 67.6145L52.2473 67.6197Z" fill="#EA9C47"/>
    <path d="M51.5221 68.8808C51.4764 68.8877 51.4289 68.9033 51.3814 68.9328C51.3286 68.9276 51.2811 68.938 51.2353 68.9641C51.1332 69.0508 50.9837 69.0196 50.8798 69.1029C50.6229 69.2035 50.366 69.3042 50.1073 69.4048C50.0827 69.4135 50.0563 69.4239 50.0317 69.4343C49.7712 69.502 49.5108 69.5714 49.2486 69.6391C46.9838 70.5206 44.7208 71.4022 42.456 72.2837C42.2765 72.3878 42.097 72.4937 41.9193 72.5978C41.423 72.7714 40.9268 72.9449 40.4306 73.1202C39.6985 73.5089 38.9647 73.8976 38.2326 74.2863C35.9995 75.5982 33.777 76.9327 31.5245 78.2116C30.8101 78.6177 30.152 79.1712 29.2897 79.291V79.2875C29.1771 79.4055 28.8709 79.2927 28.9149 79.5964C28.8937 79.7404 28.6087 79.8063 28.7934 80.0146C29.075 80.1794 29.3108 80.0701 29.5677 79.9157C32.3991 78.2307 35.2253 76.5353 38.0778 74.8867C38.8662 74.4321 39.5824 73.6616 40.684 74.0624C40.9092 74.144 41.2084 73.9496 41.2823 73.6963C41.4336 73.1774 41.8348 72.964 42.2783 72.7748C44.9795 71.718 47.6806 70.6612 50.3818 69.6061C50.8341 69.3857 51.2881 69.1654 51.7404 68.9467C51.9797 68.9398 52.1469 68.8287 52.2436 68.6135C52.0008 68.7038 51.7597 68.7923 51.5169 68.8825L51.5221 68.8808Z" fill="#AF6A1D"/>
    <path d="M51.2353 68.9646C51.1174 69.0118 50.9995 69.0572 50.8799 69.1044C50.9978 69.0572 51.1157 69.0118 51.2353 68.9646Z" fill="#D2B07D"/>
    <path d="M26.5708 77.9485C26.6306 78.0561 26.6887 78.1654 26.7485 78.273C26.6887 78.1654 26.6306 78.0561 26.5708 77.9485Z" fill="#F4E7D4"/>
    <path d="M26.395 77.6255C26.4531 77.7313 26.5112 77.8372 26.5692 77.9448C26.5112 77.8389 26.4531 77.7331 26.395 77.6255Z" fill="#F4E7D4"/>
    <path d="M27.1006 78.7786C27.1446 78.8428 27.1886 78.907 27.2308 78.9712C27.1868 78.907 27.1428 78.8428 27.1006 78.7786Z" fill="#C29A61"/>
    <path d="M25.5602 72.9463L25.7291 73.2795C25.7854 73.3906 25.8417 73.5016 25.898 73.6127C25.9543 73.7238 26.0106 73.8348 26.067 73.9459C26.4752 74.942 26.8553 75.9519 27.5874 76.7779C27.6437 76.889 27.7 77 27.7563 77.1111C27.8126 77.2222 27.8689 77.3332 27.9252 77.4443C27.9815 77.5554 28.0379 77.6664 28.0942 77.7775C28.1505 77.8885 28.2068 77.9996 28.2631 78.1107C28.2086 78.5948 28.9177 78.9002 28.5887 79.4503C26.7409 76.3198 25.1255 73.0713 23.4995 69.8262C23.957 69.6128 23.899 70.0692 24.0081 70.2427C24.5694 71.119 24.807 72.1759 25.5584 72.9463H25.5602Z" fill="#D9D9D9"/>
    <path d="M27.4159 78.6079C27.3631 78.5489 27.3121 78.4882 27.2593 78.4292C27.3121 78.4882 27.3631 78.5489 27.4159 78.6079Z" fill="#C29A61"/>
    <path d="M21.5078 65.2805C21.5641 65.3916 21.6204 65.5026 21.6785 65.6137C21.6222 65.5026 21.5659 65.3916 21.5078 65.2805Z" fill="#EDEBE8"/>
    <path d="M21.3389 64.9475C21.3952 65.0586 21.4515 65.1696 21.5078 65.2807C21.4515 65.1696 21.3952 65.0586 21.3389 64.9475Z" fill="#EDEBE8"/>
    <path d="M21.1704 64.6143C21.2267 64.7253 21.283 64.8364 21.3393 64.9474C21.283 64.8364 21.2267 64.7253 21.1704 64.6143Z" fill="#EDEBE8"/>
    <path d="M37.9222 61.0704C37.9028 61.0426 37.8852 61.0166 37.8694 60.9871L32.782 51.0628C32.782 51.0628 32.0324 50.7938 31.1877 51.2311C30.343 51.6684 29.2168 52.8484 29.2168 52.8484L30.3307 55.1755L34.3024 62.6686C34.3024 62.6686 35.8211 62.5281 37.0546 61.9519C38.0823 61.4712 37.9838 61.1624 37.9222 61.0721V61.0704ZM36.3244 61.7767C36.2029 61.8947 35.9794 62.0613 35.7841 61.8686C35.5905 61.6778 35.7841 61.5233 35.7841 61.5233C35.7841 61.5233 35.939 61.3706 36.1537 61.4088C36.3684 61.447 36.4458 61.6587 36.3244 61.7767Z" fill="#292F73"/>
    <path d="M37.391 61.7772C38.0562 61.3955 37.9752 61.1491 37.9207 61.071C37.9013 61.0432 37.8837 61.0172 37.8679 60.9877L32.7805 51.0634C32.7805 51.0634 32.3951 50.9263 31.8672 51.0078L37.3892 61.7772H37.391Z" fill="#475196"/>
    <path d="M29.9295 52.1631C29.5195 52.5292 29.2168 52.8485 29.2168 52.8485L30.3307 55.1756L34.3024 62.6687C34.3024 62.6687 34.6825 62.634 35.2157 62.5264L29.9312 52.1631H29.9295Z" fill="#1D273D"/>
    <path d="M35.9363 61.8797C35.9029 61.6264 36.0507 62.1244 36.2848 62.18C36.5611 62.2459 36.8021 61.9977 37.0854 62.5999C37.3705 63.2021 38.4387 65.4892 39.0898 65.7391C39.7409 65.989 40.3198 65.5795 40.7879 65.5482" stroke="black" stroke-width="0.543375" stroke-miterlimit="10" stroke-linecap="round"/>
    <path d="M36.0699 61.8794C36.0453 61.7996 36.0136 61.7024 36.0523 61.6642C36.2547 61.4681 36.8847 62.0738 36.7351 62.3011C36.6752 62.3896 36.413 62.4121 36.3039 62.2872" stroke="black" stroke-width="0.543375" stroke-miterlimit="10" stroke-linecap="round"/>
    <path d="M39.704 70.2133C39.704 70.2133 40.0964 69.7361 39.0916 68.6741C38.085 67.612 36.9412 67.1088 36.9131 66.2221C36.8849 65.3353 36.8568 63.9158 36.7353 63.3553C36.6649 63.0291 36.503 62.6161 36.3042 62.2881" stroke="black" stroke-width="0.543375" stroke-miterlimit="10" stroke-linecap="round"/>
</svg>
