<?xml version="1.0" encoding="utf-8"?>
<!-- Generator: Adobe Illustrator 27.0.1, SVG Export Plug-In . SVG Version: 6.00 Build 0)  -->
<svg version="1.1" id="Layer_1" xmlns="http://www.w3.org/2000/svg" xmlns:xlink="http://www.w3.org/1999/xlink" x="0px" y="0px"
	 viewBox="0 0 128 146" style="enable-background:new 0 0 128 146;" xml:space="preserve">
<style type="text/css">
	.st0{fill:#E9D2B1;}
	.st1{fill:#FFFFFF;}
	.st2{fill:#987B67;}
	.st3{fill:#EA9C47;}
	.st4{fill:#241E19;}
	.st5{fill:#AF6A1D;}
	.st6{fill:#E7F1FC;}
	.st7{fill:#CCDCEE;}
	.st8{fill:#8AA0BC;}
	.st9{fill:#FCCA95;}
	.st10{fill:#503F35;}
	.st11{fill:#1D273D;}
	.st12{fill:#475196;}
	.st13{fill:#483D35;}
	.st14{fill:#292F73;}
	.st15{fill:#D9D9D9;}
	.st16{fill:#B6B6B6;}
	.st17{fill:#A46D2F;}
	.st18{fill:#EFD5B3;}
	.st19{fill:#0E0A05;}
</style>
<g>
	<path class="st0" d="M1.7,87.2c1.7,5.8,1.2,15.3,22.5,20.1c21.3,4.8,16.8,11.3,22.7,20.7c5.8,9.4,29.4,20.9,42.1,15.8
		c12.7-5.1,8.5-22.6,11.8-28.7c3.3-6.1,18.6-15.5,22.3-26c3.7-10.5-4.5-21.5,0-32.9c4.5-11.4,5.9-21.1-0.7-29.9
		c-6.6-8.8-22.5-4-29.7-0.5C85.4,29.4,77.5,41,71.1,40.4c-6.3-0.6-17.1-14.9-18-22.4c-1-7.6-14.5-9.1-20-1.6c-5.5,7.5-2.8,18,8,29
		c10.8,11-10.1,15.3-24.8,20.2C1.5,70.5,0.1,81.5,1.7,87.2L1.7,87.2z"/>
	<path class="st1" d="M35.8,57.5c0.2,0.1,0.1,0.3,0.2,0.4c0,0-0.1,0-0.1,0C35.7,57.9,35.7,57.7,35.8,57.5
		C35.7,57.5,35.8,57.5,35.8,57.5z"/>
	<path class="st1" d="M35.5,57.2c0,0,0.1,0.1,0.1,0.1c0,0-0.1,0-0.1,0C35.5,57.3,35.5,57.3,35.5,57.2L35.5,57.2z"/>
	<path class="st1" d="M35.6,57.3c0,0,0.1,0.1,0.1,0.1h0C35.7,57.5,35.6,57.5,35.6,57.3L35.6,57.3z"/>
	<path class="st2" d="M111.9,93c0,0.6,0.1,1.3,0.1,1.9c-0.1,0.5-0.3,0.9-0.6,1.2c-0.5,0-1.1,0.1-1.6,0.1c0.7-1.1,0.7-2.2,0.6-3.4
		c0-0.3-0.1-0.5,0.1-0.8c0.3-0.2,0.6-0.2,0.9-0.1C111.9,92.1,112,92.5,111.9,93L111.9,93z"/>
	<path class="st3" d="M68.3,0.9c0.1,0,0.3,0,0.4,0c0.1,0,0.2,0,0.2,0c1.5,0.2,2.8,0.8,4.1,1.6c0.4,0.3,0.7,0.5,1.1,0.8
		c0.5,0.5,1,1,1.5,1.5l0.1,0.2c0.7,0.9,1.1,1.9,1.6,2.8c0.2,0.7,0.4,1.4,0.6,2.1c0.1,0.6,0.1,1.3,0.2,1.9c0.2,0.3,0.3,0.6,0.3,1
		c0,4-1,7.7-3.3,11c-1.4,2-3.4,3.3-5.7,4.2c-0.3,0.1-0.7,0.2-1.1,0.1c-0.9-0.3-1.8-0.4-2.7-0.3c-0.7,0-1.4-0.3-2-0.6
		c-0.1-0.1-0.2-0.2-0.4-0.2c-0.1,0-0.1-0.1-0.2-0.1c-0.1,0-0.1-0.1-0.1-0.2l0-0.1c0-0.1,0.1-0.2,0.2-0.2c0.1,0,0.1,0,0.2,0
		c0.1,0,0.3,0.1,0.4,0.1c0.1,0,0.1,0,0.2,0c0.3,0.1,0.5,0.1,0.7-0.1c0.2-0.7-0.4-1-0.8-1.4c-1.1-0.9-2-2-3-3.1
		c-0.8-0.9-1.4-2-1.9-3.1c-0.1-0.3-0.2-0.7-0.6-0.8c-0.3,0.6-0.2,1.1,0,1.7c0.4,1.7,1.3,3.1,2.5,4.3c0.5,0.5,1,0.9,1.4,1.4
		c0,0.1,0.1,0.1,0.1,0.2c0,0,0,0.1,0.1,0.1c0,0,0.1,0.1,0.1,0.1c0,0,0,0,0.1,0.1c0,0,0.1,0.1,0.1,0.1c0,0,0,0,0.1,0.1
		c0,0.1,0.1,0.1,0.1,0.2c0,0,0.7,0.4,0.7,0.5c0,0.1-0.7-0.1-0.8,0c-0.1,0-0.3-0.2-0.3-0.2c-0.1,0-0.1,0-0.2-0.1c0,0-0.1,0-0.1,0
		c-0.1,0-0.1-0.1-0.2-0.1c-0.1,0-0.1-0.1-0.2-0.1c-0.1,0-0.2-0.1-0.3-0.1c-3-2.2-4.9-5.1-5.3-8.8c-0.3-2.6,0.2-5.1,1-7.6
		c0.1-0.4,0.3-0.9-0.1-1.2c0.2-0.3,0.7,0.1,0.9-0.4L58.3,7c0.4-0.7,0.9-1.3,1.3-2c0.4-0.5,1-1,1.5-1.5c0.6-0.5,0.8-0.6,1.2-0.9
		c1.2-0.7,2.5-1.1,3.8-1.5C66.4,1.1,66.6,1,66.8,1c0.4,0,0.7-0.1,1.1-0.1C68,0.9,68.2,0.9,68.3,0.9L68.3,0.9z"/>
	<path class="st4" d="M31.7,36.6c0,0-0.1-0.1-0.1-0.1c-0.6-1.4,0.3-2.5,0.9-3.7c0.6-0.5,1.1-1.1,1.5-1.8c0.1-1,0.3-2,1-2.8
		c0.5-0.4,1.1-0.9,1.6-1.3c0.1-0.1,0.2-0.1,0.3-0.2c0-0.1,0.1-0.1,0.2-0.1c0.2-0.5,0.7-0.9,1.2-1.1c1.8-0.7,3.6-1.3,5.4-1.4
		c2.5-0.2,5,0.7,6,3.3c0.8,1.9,2.2,2.5,4.1,2.6c0.7,0,1.4,0.1,2.1,0.5c1.2,0.6,1.8,1.8,1.6,3.1c-0.1,0.4-0.2,0.8-0.3,1.2
		c-0.3,0.9-0.3,1.8,0.2,2.7c0.7,1.2,1.9,1.6,3.2,1c0.2-0.1,0.4-0.2,0.6-0.3c0.3-0.1,0.5-0.1,0.6,0.3c0,0.7,0.1,1.3,0.3,2
		c0,0.2-0.1,0.3-0.1,0.5c0.2,2.3-1.2,4.2-3.5,4.8c-1.8,0.5-3.4,0.3-4.8-1.1c-0.3-0.3-0.6-0.8-1.1-0.5c-0.2-0.1-0.2-0.4-0.3-0.6
		c-0.3-1.7-0.6-2-2.2-2.1c-1.4-0.5-2.3-1.7-3.2-2.9c-0.4-0.3-0.9-0.6-1.2-1c-0.2-0.2-0.4-0.3-0.6-0.3c-1.1,0.2-2.1-0.1-3.2-0.8
		c-0.9,1.2-1.7,2.4-3.1,3.1c-0.3-0.1-0.6-0.1-0.9,0c-1.4,0.2-2.9-0.6-3.6-1.9c0.1-0.6-0.4-0.6-0.7-0.6
		C32.8,36.9,32.2,36.9,31.7,36.6L31.7,36.6z"/>
	<path class="st5" d="M52.6,10.1c0.9-0.8,1.9-1.2,3-1.6c0.5-0.1,1-0.2,1.5-0.3c0.2,0,0.4,0,0.7,0.1c-0.6,1.7-1,3.3-1.3,5
		c-0.8,5.2,1.2,9.7,5.3,12.5c0,0,0.1,0.1,0.1,0.1c0,0,0.4,0.2,0.4,0.2c0,0,0.6,0.3,0.6,0.3c0.2,0.1,0.3,0.2,0.3,0.2
		c0.2,0.1,0.2,0.1,0.4,0.2c0.6,0.3,1.3,0.6,1.9,0.7c0.2,0,0.2,0.2,0.2,0.3c-0.6,0.5-1,1.2-1.6,1.5c-0.1,0-0.1,0.1-0.2,0.1
		c-0.1,0-0.2,0.1-0.3,0.2c-0.2,0.1-0.3,0.2-0.5,0.3c-0.1,0-0.1,0-0.2,0c-0.2,0-0.3,0-0.4-0.1c-1.4-1.7-3.2-2.3-5.3-2.6
		c-0.2,0-0.3-0.1-0.4-0.2c-0.3-0.4-0.8-0.8-1.2-1.2C53.7,24,52.4,21.6,52,19c-0.4-2.5-0.3-5,0.7-7.5c0.1-0.4,0.4-0.7,0.1-1.1
		C52.6,10.3,52.6,10.2,52.6,10.1L52.6,10.1z"/>
	<path class="st2" d="M38.7,39.5c0.1-0.3,0.3-0.5,0.5-0.7c1-0.7,1.7-1.7,2.4-2.8c1.1,1,2.3,1.2,3.7,0.9c0.3,0.7,1,0.9,1.5,1.4
		c0,0,0,0.1,0,0.1c0,0.2,0.1,0.3,0.2,0.5c0.1,1.1,0.6,2.1,1.5,2.7c0.6,0.1,0.8-0.5,1.3-0.4c1.8-0.2,2.5,0.6,2.5,2.8
		c0.1,1-0.6,1.5-1.3,1.9c-0.3,0.2-0.7,0.2-1.1,0.5c0.4,0.9,1.4,3.9,1,4.3c-1.2,0.5-2.5,1-3.5,2c-0.3,0.2-0.5,0.4-0.9,0.4
		c-0.1-0.3-0.1-0.5-0.2-0.8c0.2-0.3,0.4-0.5,0.6-0.7c1.1-1,1.6-2.8,1.1-4.3c-0.8,1.1-1.9,1.9-2.7,3c-0.4,0.3-0.9,0.5-1.2,0.8
		c-0.9,0.5-1.8,0.7-2.8,0.6c-0.7-0.1-1.4-0.3-1.7-1.1c-0.2-0.3-0.4-0.6-0.6-0.9c0-0.1-0.1-0.2-0.1-0.3c-0.1-0.1-0.1-0.3-0.2-0.4
		c-0.2-0.9-0.4-1.8-0.6-2.7c-0.2-0.6-0.3-1.3-0.3-2c0-1.3,0.2-2.6,0.4-3.9C38.3,40,38.4,39.7,38.7,39.5L38.7,39.5z"/>
	<path d="M38.7,39.5c-0.3,2-0.6,4.1-0.4,6.2c0,0.2-0.1,0.3-0.1,0.5c0,0-0.1,0-0.1,0c-0.1,0-0.2,0-0.3,0.1c-1,0.3-1.9,0.4-2.9,0.1
		c-2.4-0.7-3.5-2.8-2.7-5.3c0.2-0.7,0.6-1.3,0.8-1.9c0.4-0.6,0.8-1.1,1.1-1.7c0.8,0.6,1.5,1.5,2.6,1.7c0.4,0.1,0.9,0.1,1.3,0
		C38.3,39.1,38.7,39,38.7,39.5L38.7,39.5z"/>
	<path class="st6" d="M62.9,131c1.5-0.1,2.3-1.2,3.3-2.1c0.7-0.6,1.3-1.2,2-1.7c0.3,0,0.5,0.3,0.8,0.4c0.5,0,0.9,0.2,1.3,0.5
		c0.1,0.1,0.2,0.2,0.2,0.4c-0.1,0.1-0.2,0.2-0.3,0.2c-1.3,0.1-2.2,0.8-3,1.7c-1,1.1-2.3,1.8-3.8,1.9c-1.6,0.1-2.6,0.9-3.2,2.4
		c-0.5,0.4-1.1,0.5-1.7,0.5c0-0.1,0.2-1,0.3-1.1c0-0.1,0.1-0.2,0.1-0.3c0-0.1,0.4-0.5,0.4-0.6c0-0.1,0.1-0.1,0.1-0.1
		c0.4-0.3,0.8-0.6,1-1c0-0.1,0.1-0.1,0.1-0.1c0-0.1,0.1-0.1,0.1-0.1C61.4,131.2,62.6,131,62.9,131L62.9,131z"/>
	<path class="st6" d="M112.9,103.7c0.1-0.2-1.3-4.6-1.9-6.6c-0.1-0.4-0.2-0.8,0.2-1.1c0.3-0.4,0.5-0.8,0.7-1.3
		c0.1-0.2,0.1-0.6,0.4-0.7c0.6,0.2,0.7,0.7,0.6,1.1c-0.4,2.1,0.7,3.8,1.5,5.5c0.4,0.9,0.5,1.7,0.1,2.6c-0.5,1.1-0.3,2.1,0.1,3.2
		c0.1,0.3,1,1.1,0.8,1.5c-0.1,0.1-1.6-0.4-1.8-1.1C113.4,106.5,112.9,103.7,112.9,103.7L112.9,103.7z"/>
	<path class="st7" d="M115.4,107.8c-0.1,0-0.2-0.1-0.4-0.2c-0.1,0-0.1-0.1-0.2-0.1c0,0-0.1,0-0.1-0.1l-0.1-0.1
		c-0.3-0.7-0.5-1.2-0.7-1.9c-0.2-0.7-0.2-1.4,0.2-2.1c0.5-0.9,0.4-1.8-0.1-2.8c-0.6-1.2-1.2-2.5-1.5-3.9c-0.1-0.3,0-0.7,0.1-1
		c0.1-0.5,0.1-1.1-0.3-1.6c-0.1,0.3-0.2,0.6-0.3,0.8c-0.4-0.6-0.4-1.3-0.2-1.9c0.3-0.2,0.6-0.1,0.8,0c1.4,0.5,2.4,1.4,2.7,2.9
		c0.4,2,0.7,3.9,0.4,6c-0.1,0.7-0.1,1.4,0,2.1c0.2,1,0,2-0.1,3C115.7,107.3,115.7,107.7,115.4,107.8L115.4,107.8z"/>
	<path class="st8" d="M111.4,92c-0.1-0.6,0.4-0.4,0.6-0.4c1.2-0.1,2.3,0.1,3.5-0.1c0.4,0,0.8,0,1.3,0c0,2.8,0,5.6,0,8.3
		c-0.1,1.5-0.2,3.1-0.3,4.6c-0.1,1-0.1,2.1-0.2,3.1l-0.4,0.3c-0.2,0-0.4,0-0.6,0c0,0,0-0.1,0-0.2c0-0.1,0-0.1,0-0.2
		c0.1-1.1,0.3-2,0.2-3.1c-0.1-0.8-0.1-1.6,0-2.4c0.2-2,0-4-0.4-6c-0.3-1.7-1.6-2.5-3.2-2.9C111.7,92.7,111.7,92.3,111.4,92L111.4,92
		z"/>
	<path class="st3" d="M82.1,13.7c0,0,0,0.1,0,0.1c0.4,0.7,0.6,1.5,0.7,2.3c0.1,1.6,0.2,3.3,0.2,4.9c-0.2,4.1-1.8,7.5-5,10.1
		c-1.3,1-2.7,1.9-4.2,2.7C73.4,34,73,34,72.6,34.2c0,0-0.1,0.1-0.1,0.1c-0.8-0.2-1.6-0.5-2.5-0.7c-0.3-0.2-0.8-0.3-0.8-0.8
		c0.2-0.5,0.6-0.6,1.1-0.5c1,0.2,1.4-0.1,1.6-1.1c0-0.2,0.1-0.5,0.1-0.7c-0.1-1,0.4-1.5,1.2-2c2.7-1.4,4.6-3.6,6.1-6.2
		c1.4-2.3,1.7-4.9,1.8-7.5c0-0.6-0.2-1.2,0.2-1.7C81.6,13.4,81.8,13.5,82.1,13.7L82.1,13.7z"/>
	<path class="st9" d="M72.6,34.2c0.6-0.7,1.4-0.9,2.1-1.3c2.8-1.6,5.3-3.5,6.7-6.5c1.3-2.8,1.4-5.7,1.2-8.6
		c-0.1-1.3-0.2-2.8-0.6-4.1c0.1,0,0.1,0.1,0.2,0.1c0,0.1,1.2,1.6,1.2,1.7c0.2,0.3,0.3,0.6,0.5,0.9c0,0.1,0.5,1.3,0.6,1.5
		c0,0.2,0.1,0.3,0.1,0.5c0.1,0.2,0.1,0.4,0.2,0.6c0.3,1.9,0.4,3.8,0.1,5.6c-0.1,1-0.7,2.2-0.9,2.9c0,0.1-0.2,0.6-0.3,0.7
		c-0.9,1.9-2.7,3.4-3.3,4c-1.4,1.2-2.1,1.4-3,1.6C75.9,34.2,74.3,34.3,72.6,34.2L72.6,34.2z"/>
	<path class="st3" d="M70.9,36.6C70.9,36.6,70.8,36.6,70.9,36.6l-0.1,0c-0.2-0.2,0-0.4,0-0.6c0-0.1,0-0.1,0.1-0.2
		c0.1-0.2,0.1-0.4,0.1-0.6c0-0.1,0.1-0.3,0.1-0.4c0.4-0.7,0.5-0.7,1.4-0.3c0.1,0.8,0.7,1.5,0.6,2.3c-0.4,0.2-0.6-0.1-0.8-0.2
		c-0.1-0.1-0.2-0.3-0.3-0.4c-0.1-0.2-0.2-0.4-0.4-0.5C71.4,36,71.2,36.3,70.9,36.6L70.9,36.6z"/>
	<path d="M72.5,34.6c-0.4,0.3-0.7-0.2-1.1-0.1c-0.1,0.1-0.1,0.3-0.2,0.5c0,0-0.1,0-0.1,0.1C71.1,35,71,35,71,34.9
		c-0.1-0.1-0.1-0.2-0.1-0.3c-0.2-0.4-0.8-0.5-0.9-1c0-0.1,0-0.1,0.1-0.2c0.8,0.2,1.7,0.2,2.4,0.9C72.5,34.4,72.5,34.5,72.5,34.6
		L72.5,34.6z"/>
	<path class="st2" d="M26.9,53.9c0,0,0.1-0.1,0.1-0.1c0.2-0.1,0.4-0.2,0.6-0.3c0-0.1,0.1-0.2,0.2-0.3c0.2-0.4,0.4-0.8,0.7-1
		c0.3-0.1,0.7-0.1,0.9-0.5c0-0.1,0.1-0.2,0.1-0.3c1-1.1,1.5-1.1,2.4,0.1c0.2,0.2,0.4,0.4,0.5,0.6c1.1,1.1,2.3,2.2,2.5,3.9
		c0,0.3,0,0.7,0,1c-0.6,0.4-1.3,0.2-1.9,0.6c-0.6,0.2-1.1,0.5-1.6,1c-0.2,0.2-0.3,0.4-0.6,0.2c-0.2-0.3-0.5-0.6-0.9-0.8
		c-0.2-0.1-0.4-0.3-0.6-0.4c-0.2-0.1-0.4-0.3-0.6-0.4c-0.1-0.1-0.3-0.2-0.4-0.3c-0.2-0.1-0.4-0.3-0.6-0.4c-0.1,0-0.1-0.1-0.2-0.1
		c0-0.1-0.1-0.1-0.1-0.2c-0.4-0.6-0.8-1.1-0.7-1.9C26.8,54.1,26.9,54,26.9,53.9z"/>
	<path class="st10" d="M35.1,56c-0.5-1.5-1.8-2.6-2.5-3.9c0.4-0.4,0.4-1,0.6-1.5c0.1-0.2,0.2-0.4,0.3-0.6c0.4-0.5,0.8-1.1,1.3-1.4
		c0.6-0.4,1.1-0.4,1.6,0.3c0.1,0.8-0.4,1.3-0.7,2c-0.1,0.3-0.3,0.7-0.2,1.1C35.5,53.3,35.6,54.7,35.1,56z"/>
	<path class="st8" d="M30.9,58.8c0.6-0.5,1.2-1.2,2.1-1.4c0,0.1,0.1,0.1,0.1,0.2c0,0.1-0.1,0.2-0.1,0.3c0,0.1-0.1,0.1-0.1,0.2
		c-0.1,0.2-0.3,0.4-0.3,0.7c0.8,0.4,1.7-0.4,2.6,0.1c0,0.5-0.4,0.6-0.7,0.8c-0.6,0.5-1.2,1-1.4,1.8c-0.2,0.6-0.2,1.1,0.1,1.6
		c1.2,1.7,1.7,3.7,1.5,5.8c-0.2,2.3,1.7,5,4.1,5.2c0.4,0,0.8,0.2,1.2,0.2c1.1,0.1,2.1-0.2,2.8-1.2c0.2-0.3,0.4-0.6,0.6-0.9
		c0.8-1.6,2-2.8,3.5-3.6c1.1-0.6,1.9-1.5,2.5-2.5c0.6-1,1.1-2,1.8-2.9c2.1-2.8,4.9-3.7,8.2-2.5c1.6,0.6,3.3,0.9,5,0.8
		c0.3,0,0.6-0.1,0.7,0.2c0.1,0.9,0.2,1.9-0.4,2.7c-2.7,1.5-5.3,2.4-8.4,0.9c-1.9-0.9-3-0.4-4.1,1.4c-0.4,0.7-0.8,1.5-1.1,2.2
		c-1.3,2.2-3.2,3.7-5.5,4.8c-0.7,0.3-1.4,0.7-1.8,1.2c-1.4,1.6-3.1,1.7-5,1.2c-3.4-0.9-5.1-3.4-5.8-6.7c-0.3-1.4-0.2-2.9-0.4-4.3
		c0-1-0.3-1.8-0.5-2.7c-0.1-0.5-0.1-0.9-0.1-1.4c-0.4-0.3-0.8-0.7-1-1.2c0-0.1,0-0.3,0-0.4C30.8,59.1,30.9,59,30.9,58.8L30.9,58.8z"
		/>
	<path class="st6" d="M33,57.6c0-0.1,0-0.1,0-0.2c0.6-0.4,1.3-0.5,2-0.5c0.2,0.1,0.3,0.1,0.5,0.2c0,0,0.1,0.1,0.1,0.1
		c0,0,0.1,0.1,0.1,0.1c0.1,0.1,0.2,0.1,0.2,0.4c0,0.1,0,0.2,0,0.3l0,0C35,58.9,34,58.7,33,58.3c-0.2-0.1-0.3-0.2-0.2-0.4h0
		C32.9,57.9,32.9,57.7,33,57.6L33,57.6z"/>
	<path class="st8" d="M58.4,135.2c0.4-0.5,1.1-0.3,1.6-0.6c0.3-0.3,0.7-0.4,1-0.5c2.8-0.6,5.4-1.6,8.1-2.6c1.8-0.7,2.6-2.1,3.2-3.8
		c0.2-0.3,0.4-0.4,0.7-0.2c0.4,0.9,0.1,1.8,0,2.7c-0.1,0.9-0.2,1.8-0.3,2.7c-0.9,0.5-1.8,0.4-2.7,0.8c-0.9,0.1-1.8,0.4-2.7,0.7
		c-1.4,0.4-2.8,0.7-4.2,1c-0.2,0.1-0.4,0.1-0.6,0.1c-0.2,0.1-0.4,0.1-0.6,0.2c-0.9,0.2-1.8,0.4-2.7,0.6c-0.2,0-0.5-0.1-0.7-0.1
		C58.6,135.7,58.5,135.4,58.4,135.2L58.4,135.2z"/>
	<path class="st7" d="M32.8,57.9c0.7,0.5,1.6,0.5,2.4,0.4c0.2,0,0.5-0.1,0.7-0.1c0.1,0.1,0.1,0.2,0.2,0.3c0.4,0.5,0.8,0.9,0.9,1.5
		c0.1,0.6,0.2,1.2,0.4,1.8c0.3,1.3,0.9,2.3,2.1,2.9c1.1,0.6,2.3,1.2,2.7,2.4c0.3,0.1,0.3,0,0.4-0.1c0.6-1.4,1.8-2.3,3-3.1
		c1.8-1.2,2.9-2.8,3.2-4.9c0.1-0.4,0.2-0.8,0.2-1.2c0.4-2.9,2.4-4.4,5-5.3c0.4-0.1,0.8-0.3,1.3-0.4c2,0.1,3.9-0.3,5.9-0.6
		c1.4-0.2,2.8,0,4,1c0.1,0.1,0.2,0.2,0.3,0.2c0.1,0.1,0.3,0.2,0.4,0.3c0.1,0.1,0.1,0.2,0.2,0.3c0.1,0.7-0.2,1.4-0.1,2.1
		c-0.3,1.3-0.4,2.6-0.5,3.9c0,0.5-0.2,1-0.2,1.5c0,0.2-0.1,0.4-0.3,0.5c-1.6,0.3-3.3,0.3-4.7-0.4c-4.6-2.1-7.9-0.1-9.9,3.7
		c-1,1.9-2.1,3.5-4.1,4.4c-1.1,0.6-1.9,1.6-2.5,2.8c-0.7,1.3-1.4,2.6-3.1,2.5c-1.8-0.1-3.6-0.3-4.8-2c-1-1.3-1.4-2.6-1.3-4.2
		c0.2-1.7-0.3-3.3-1.2-4.8c-0.8-1.2-0.8-2.1,0.2-3.2c0.5-0.5,1-0.9,1.7-1.4c-1.1-0.2-2,0.6-3,0.1C32.1,58.5,32.4,58.2,32.8,57.9
		L32.8,57.9z"/>
	<path class="st6" d="M55.2,52.4c-1.3,0.5-2.7,0.8-3.9,1.8c-1.3,1.1-1.9,2.4-2.1,3.9c-0.3,1.9-0.6,3.8-2.2,5.1
		c-0.6,0.5-1.2,0.9-1.8,1.3c-1.1,0.9-2.2,1.7-2.6,3.2c-0.6,0-0.6-0.4-0.7-0.7c-0.3-0.7-0.8-1.2-1.5-1.5c-2.5-1-3.4-2.9-3.3-5.5
		c0,0,0,0,0,0c0.5,2.7,1.3,3.6,4.2,5.5c0.9-1.9,2.6-3.1,3.9-4.7c0.2-0.2,0.3-0.4,0.4-0.6c-0.1-0.3,0.1-0.6,0.2-0.9
		c0.4-1.1,0.6-2.3,1.1-3.4c0.8-1.8,2.1-3.1,4.1-3.5c0.1,0,0.2-0.1,0.3-0.1c0.4-0.1,0.7-0.2,1.1-0.3c0.8-0.2,1.6,0,2.4,0.1
		C54.9,52.1,55.2,52.1,55.2,52.4L55.2,52.4z"/>
	<path class="st5" d="M81.4,13.2c0.1,2.5,0,5.1-0.9,7.4c-1.5,3.7-3.9,6.7-7.6,8.5c-0.2,0.1-0.3,0.2-0.5,0.3
		c-0.5,3.6-0.6,3.7-2.4,3.1c-0.3,0-0.3,0.4-0.6,0.4c-0.3,0.1-0.5,0-0.7-0.2c-0.7-0.6-1.4-1.3-1.6-2.3c0-0.1,0-0.2,0-0.3
		c0-0.1,0.1-0.2,0.1-0.3c0.3-0.2,0.5,0.2,0.8,0.2c0.2-0.4-0.3-0.7,0-1.1c0.2-0.2,0.5,0.1,0.8-0.1c0-0.3-0.4-0.4-0.5-0.6
		c-0.1-0.2,0-0.3,0.2-0.3c2.1-0.3,3.8-1.4,5.3-2.8c2.6-2.4,3.6-5.6,4.3-9c0.3-1.4,0.3-2.9,0.2-4.3c0.1,0,0.2,0,0.3,0.1
		c0.1,0,0.2,0,0.3,0.1c0.3,0.1,0.6,0.1,0.9,0.2c0.4,0.2,0.8,0.4,1.2,0.6c0.1,0.1,0.3,0.2,0.4,0.3C81.2,13,81.3,13.1,81.4,13.2
		L81.4,13.2z"/>
	<path class="st11" d="M70.7,74.9c-0.2-2.7-0.3-5.5-1.4-8c-0.1-0.3-0.4-0.6-0.5-0.9c-0.4-0.2-0.3-0.6-0.3-0.9
		c0.1-0.5,0.3-0.9,0.4-1.4c0.4-1.7,1-3.3,1.4-5c0.2-0.8,0.4-1.5,0.6-2.3c0.2-0.4,0.1-1,0.5-1.3c0.1-0.1,0.1-0.3,0.2-0.4
		c0.3,0.1,0.5,0.1,0.8,0.2c0.4,0.3,0.2,0.6,0.1,0.9c-0.5,1.5-0.8,3.1-1.2,4.6c-0.4,1.6-0.3,3,0.4,4.5c0.3,0.5,0.5,1.1-0.1,1.6
		c-0.2,0.1-0.4,0.2-0.5,0.3c0,0.2,0,0.3,0,0.3c1.3,2.4,1.5,5,1.8,7.6c0.4,2.7,0.3,5.4,0.6,8.2c0.4,3.5,1.4,6.7,3.8,9.4
		c0.4,0.4,0.9,0.9,0.6,1.6c-0.6,3.8-1.2,7.5-1.7,11.3c-0.8,6.4-1.4,12.8-2.5,19.2c-0.1,0.5-0.2,1-0.3,1.4c-0.4,0.2-0.7,0.3-1.1,0.1
		c-0.3-0.3-0.1-0.7,0-1c0.4-2.4,1-4.7,1.1-7.1c0.3-4.6-0.2-9-2.8-13c-0.4-0.6-0.6-1.2-0.7-1.9c0.2-3.4,0.4-6.7,0.5-10.1
		c0.2-5.5,0.7-11,0.5-16.5C70.8,75.7,70.7,75.3,70.7,74.9L70.7,74.9z"/>
	<path class="st12" d="M77.8,93.8c0-0.7-0.5-1-0.9-1.5c-2.3-2.7-3.4-5.9-3.7-9.4c-0.5-4.5-0.3-9.1-1.5-13.5
		c-0.2-0.7-0.4-1.4-0.8-2.1c-0.2-0.3-0.4-0.6-0.3-1c0.3-0.1,0.6,0.1,0.8-0.1c0.4-0.3,0.8-0.1,1.1,0.1c0.7,0.4,1.2,1,1.5,1.7
		c1,2,1.5,4.2,1.8,6.4c0.5,4.5,1,9,2.2,13.4c0.7,2.7,2.3,4.7,4.8,5.9c0.3,0.1,0.5,0.3,0.8,0.4c0.3,0.2,0.5,0.4,0.4,0.8
		c-0.1,0.2-0.4,0.3-0.6,0.3c-1-0.1-1.9-0.1-2.8-0.4c-0.5-0.2-0.9-0.5-1.4-0.6c-0.4-0.3-0.7-0.5-1.1-0.8
		C77.9,93.6,77.9,93.7,77.8,93.8L77.8,93.8z"/>
	<path class="st2" d="M73,127.4c-0.2,0-0.4,0.1-0.6,0.3c0,0,0,0.1,0,0.1c0,0.1-0.1,0.1-0.1,0.2c-0.7,0.5-1.3,0.6-2.1,0.2
		c-0.4-0.2-0.9-0.3-1.2-0.6c0.1-0.7,0.1-1.4,0.2-2.1c0.1-0.1,0.1-0.1,0.2,0c0.7,1.1,1.8,0.7,2.8,0.9c0.3,0,0.6-0.1,0.9,0.2
		C73,126.8,73,127.1,73,127.4L73,127.4z"/>
	<path class="st10" d="M109.7,96.4c0-0.5,0-1,0-1.5c-0.4-0.8-0.3-1.7-0.3-2.6c0-0.2,0.1-0.4,0.3-0.4c0.3,0,0.6,0.1,0.9,0.1
		c0.2,1.1,0.2,2.1,0,3.2c-0.1,0.5-0.3,0.8-0.8,0.9C109.8,96.3,109.7,96.3,109.7,96.4L109.7,96.4z"/>
	<path class="st10" d="M73,126.5c-1.3,0.2-2.5,0.1-3.7-0.4v-0.7c0.7-0.4,2.2-0.2,2.8,0.3c0.4,0,0.8,0,1.1,0
		C73.2,126,73.1,126.3,73,126.5L73,126.5z"/>
	<path class="st11" d="M109.7,94.8c-0.4-0.3-0.8-0.2-1.2-0.2c-2.9,0-5.9,0.1-8.8,0.1c-3.6,0.1-7.1,0-10.7,0c-1.2,0-2.4,0-3.6-0.1
		c-0.5-0.1-1-0.1-1.4,0.3c-0.2,0.2-0.5,0.1-0.7,0.1c-1-0.1-1.9-0.3-2.9-0.4c0,0,0,0-0.1,0c0,0-0.7-0.4-1.2-0.3
		c0.2,0.1,0.8,0.5,0.9,0.5c1.5,1,3.3,1.3,5.1,1.5c7.7,0.9,15.4,0.7,23.1,0.4c0.5,0,1,0.1,1.5-0.2C109.8,95.9,109.6,95,109.7,94.8
		L109.7,94.8z"/>
	<path class="st9" d="M76.3,13.5c0,3.9-1.1,7.4-3.5,10.5c-0.6,0.8-1.3,1.4-2.3,1.5c-1.2,0.1-1.9-0.8-1.4-1.9c0.3-0.6,0.7-1.1,1-1.7
		c1.5-2.7,2.9-5.6,2.7-8.8c-0.1-2.4-0.7-4.7-2.2-6.6c-1-1.3-2.3-2-3.8-2.6c-0.6-0.2-1.2-0.5-1-1.2c0.1-0.8,0.8-0.7,1.3-0.7
		c4,0,7.5,2.7,8.5,6.8C76.1,10.3,76.3,11.9,76.3,13.5L76.3,13.5z"/>
	<path class="st9" d="M67.5,26.9c-1,0-1.4-0.5-1.4-1.1c0-0.7,0.5-1.2,1.2-1.2c0.7,0,1.2,0.5,1.2,1.2C68.5,26.6,68,26.9,67.5,26.9z"
		/>
	<path d="M68.4,27.8l-0.2,0.3c-0.3,0.4-0.8,0.4-1.2,0.4c-0.2,0-0.3-0.1-0.5-0.1c-0.3-0.1-0.7-0.1-0.8-0.5c-0.1-0.1-0.1-0.2-0.2-0.3
		C66.5,27.3,67.5,27.5,68.4,27.8L68.4,27.8z"/>
	<path class="st5" d="M63.7,24.4c-1.8-1.8-3.6-3.6-4.5-6c-0.2-0.4-0.3-0.9-0.8-1C58,17.6,58,17.9,58,18.1c0,1.5,0.5,2.8,1.3,4
		c0.8,1.2,2.8,3.2,2.8,3.3c0.1,0.1,0.2,0.2,0.5,0.5c0,0,0.7,0.5,0.9,0.6c0.1,0,0.1,0.1,0.3,0.1c0.3,0,0.9,0.1,1.1-0.3
		C65.4,25.1,64.3,25,63.7,24.4L63.7,24.4z"/>
	<path class="st13" d="M56.9,26.9c0.7,0.2,1.4,0.3,2.1,0.5c1.5,0.3,2.6,1.2,3.5,2.3c0.2,0.2,0.4,0.3,0.5,0.5
		c0.4,0.7,0.5,1.4,0.6,2.1c0.1,0.9,0.1,1.7-0.3,2.5c-0.1,0.2-0.2,0.5-0.2,0.7c-0.1,0.2-0.3,0.3-0.4,0.5c-0.4,0.5-0.7,1-0.9,1.6
		c-0.1,0.2-0.1,0.6-0.4,0.6c-0.1-0.4-0.3-0.1-0.5,0c-1.4,0.8-2.3,0.8-3.3,0c-1-0.8-1.3-2.4-0.9-3.7c0.3-0.7,0.5-1.4,0.4-2.1
		c-0.3-1.6-1.4-2.4-3.1-2.5c-1.1,0-2.3-0.2-3.3-0.8c-0.5-0.3-0.9-0.7-1-1.2c-1-3.3-4.5-4.4-7.7-3.6c-1.3,0.4-2.6,0.8-3.9,1.2
		c1.9-2.5,4.3-3.5,7.4-2.7c1.3,0.3,2.5,0.2,3.8,0c0.1-0.1,0.3-0.3,0.5-0.3c1.7-0.2,3,0.4,4,1.8c0.6,0.9,1.3,1.8,2.4,2.2
		c0.1,0.1,0.2,0.2,0.4,0.2C56.8,26.8,56.9,26.9,56.9,26.9L56.9,26.9z"/>
	<path d="M51.3,49h-0.9c-0.3-1-0.6-2-0.9-3c1.5,0,2.3-0.8,2.8-2.1c0.1-0.2,0.2-0.3,0.3-0.5c1,0.8,1.8,1.8,3.2,2.1
		c2.5,0.5,5.2-1.1,5.9-3.5c0.2-0.6-0.3-1.1,0.1-1.6c0.8,0.5,1.3,1.2,1.8,1.9c0.1,0.1,0.1,0.2,0.1,0.2c0-0.1,0-0.5,0-0.6
		c0.1-0.2,0.1-0.1,0.3,0c0.1,0.1,0.1,0.3,0.1,0.4c0,0.3,0.1,0.5,0.3,0.7c0.5,1.3,1,2.5,0.7,3.9c-0.1,0.3-0.1,0.5,0,0.8
		c0,0.1,0,0.2,0,0.3c0,0.1,0,0.3-0.1,0.4c0,0.1-0.1,0.1-0.2,0.1c-0.2,0-0.2-0.3-0.4-0.3c-1.1,1-2.3,1.5-3.8,1.4
		c-0.7-0.1-1.2,0.2-1.7,0.8c-1,1.2-2.4,1.7-3.9,1.5c-0.9-0.1-1.7-0.6-2-1.5C52.6,49.5,52.2,49,51.3,49L51.3,49z"/>
	<path class="st3" d="M56.9,26.9c-0.1,0-0.2,0-0.3,0c-0.1,0-0.2,0-0.3-0.1c-1-0.3-1.8-0.9-2.3-1.8c-1-1.6-2.3-2.4-4.3-2.3
		c-0.6-0.5-0.6-1.3-0.9-1.9c0-0.4-0.2-0.7-0.2-1c0-0.3-0.1-0.6-0.1-0.8c0-0.5,0.1-1.1,0.1-1.6c-0.1-0.4,0.2-0.8,0.2-1.2
		c0.2-0.2,0.1-0.5,0.2-0.7c0-0.1,0.1-0.3,0.1-0.4c0.2,0,0.1-0.2,0.1-0.2c0.1-0.2,0.2-0.5,0.3-0.8c0.2-0.3,0.4-0.7,0.6-1
		c0.1-0.2,0.2-0.3,0.3-0.5c0.3-0.3,0.6-0.7,0.9-1c0.4-0.5,0.8-1,1.4-1.2c0.8,0.1,0.4,0.6,0.2,0.9c-0.8,1.7-1,3.5-1,5.4
		c0,3.6,1.4,6.6,3.8,9.1C56.2,26.1,56.6,26.5,56.9,26.9L56.9,26.9z"/>
	<path class="st5" d="M52.6,10.1c-0.6,0.3-1,0.8-1.4,1.3c-0.2,0.3-0.5,0.6-0.7,0.9c0,0,0,0,0,0.1c-0.1,0.2-0.3,0.4-0.4,0.6
		c-0.2,0.3-0.8,1.6-0.9,1.9c0,0-0.5,1.5-0.5,1.5c-0.1,1.4,0.5-0.9,0.5-1l0.1-0.4l0.1-0.2c0.2-0.4,0.4-0.8,1.1-2.2l0.2-0.2
		c0.4-0.5,0.4-0.6,0.7-0.9c0.4-0.4,0.9-0.9,1.3-1.3C52.7,10.2,52.7,10.1,52.6,10.1L52.6,10.1z"/>
	<path class="st5" d="M49,20.8c-0.1-0.2-0.2-0.6-0.2-0.8c-0.1-0.5-0.1-1-0.1-1c0-0.6,0-1.2,0-1.8c0-0.4,0.3-1.6,0.3-1.8
		c-0.1,0.2-0.1,0.2-0.2,0.4c0,0,0,0.1,0,0.1c-0.2,0.5-0.3,0.8-0.3,1.3c0,0-0.1,1.7,0,2.7c0.1,0.5,0.7,2.4,0.9,3
		c0.1,0,0.3-0.1,0.4-0.1C49.5,22.1,49.3,21.5,49,20.8L49,20.8z"/>
	<path class="st3" d="M65.1,30.5c-0.4-0.1-0.3-0.4-0.3-0.7c0-0.1,0.1-0.1,0.1-0.2c0-0.1,0-0.2,0-0.3c-0.1-0.1-0.1,0-0.2,0h0
		c0,0.1-0.1,0.1-0.2,0.1c-0.3,0.1-0.6,0.4-0.7-0.2c0.7-0.3,0.9-1.3,1.8-1.5c0.3,0.1,0.5,0.4,0.8,0.3c0.5,0.4,0.2,1,0.3,1.4
		c0,0.9,0.1,1.7-0.1,2.6c0,0.1-0.1,0.1-0.2,0.2c-0.3,0-0.3-0.2-0.3-0.4c-0.1-0.8-0.5-1.5-0.5-2.2C65.8,30.1,65.7,30.4,65.1,30.5
		L65.1,30.5z"/>
	<path d="M63.2,29.8c-0.1,0-0.1,0-0.2,0c0,0,0,0,0,0c-0.2,0-0.3,0-0.5,0c0,0.2,0,0.4,0.3,0.5c0.3,0.1,0.4,0,0.3-0.3
		C63.3,29.9,63.3,29.8,63.2,29.8L63.2,29.8z"/>
	<path class="st14" d="M72.1,125.7c-0.9-0.1-1.9-0.2-2.8-0.3c0,0-0.1,0-0.1,0l0,0c-0.6-0.2-0.4-0.6-0.2-0.9c0.8-0.8,1-1.8,1.1-2.8
		c0.3-2.3,0.4-4.5,0.2-6.8c0-0.5,0.1-1.1,0.1-1.6c0.1-2.2-0.1-4.3-0.8-6.4c-0.1-0.3-0.1-0.5,0-0.9c0.1-1.1,0.1-2.2,0.2-3.2
		c0.8,1.8,2.1,3.4,2.7,5.4c1.3,4.1,1.6,8.3,0.7,12.5C72.8,122.3,72.7,124.1,72.1,125.7z"/>
	<path class="st12" d="M69.6,106c0.2,0.8,0.4,1.5,0.7,2.3c0.4,1.3,0.4,2.6,0.4,3.9c0,1.9,0,3.7,0,5.6c0,1.6-0.2,3.3-0.4,4.9
		c-0.2,0.9-0.4,1.7-1.3,2.2c-0.1,0.3,0.1,0.5,0.3,0.7c-0.4,0.1-0.5-0.2-0.4-0.5C69,118.7,69,112.3,69.6,106L69.6,106z"/>
	<path class="st14" d="M109.6,91.9c-0.4,1,0.2,2,0,3c-0.5,0-1.1,0-1.6,0c-6.9,0.1-13.7,0.2-20.6,0.1c-1.2,0-2.4-0.1-3.5-0.1
		c-0.1-0.4-0.4-0.6-0.7-0.7c-3.5-1.4-5-4.3-5.9-7.8c-1-4.3-1.3-8.6-1.9-13c-0.3-1.9-0.7-3.7-1.7-5.4c-0.5-0.9-1.2-1.7-2.3-1.7
		c0.4-0.4,0.2-0.8,0-1.1c-0.9-1.6-0.9-3.3-0.4-5c0.4-1.6,0.8-3.2,1.3-4.8c0-0.2,0-0.3,0-0.5c2.6,0.6,5,1.6,7.1,3.3
		c0.1,0.2,0.3,0.3,0.4,0.5c2,1.9,1.9,4.4,1.7,6.8c-0.2,2.1-0.7,4.3-1,6.4C80,76,80.7,80,82.3,83.9c0.2,0.5,0.3,1.1,0.8,1.6
		c2,3.6,5.5,4.5,9.1,5.2c4,0.8,8.1,0.6,12.1,0.7c1.6,0.1,3.1,0,4.7,0C109.3,91.5,109.7,91.4,109.6,91.9L109.6,91.9z"/>
	<path d="M64.9,61.5c0.2-1.8,0.5-3.6,0.7-5.4c0-0.2,0.1-0.4,0.1-0.6c0.3,0,0.3,0.2,0.3,0.4c0,0.4,0,0.8-0.1,1.1c0,0.1-0.1,0.2,0,0.3
		c0-0.1,0-0.1,0-0.2c0-0.2,0.1-0.4,0.1-0.6c0-0.1,0-0.2,0-0.3c0-0.1,0-0.3,0-0.4c0-0.2,0.1-0.4,0.1-0.6c0-0.1,0-0.1,0-0.2
		c0.1-0.2,0-0.5,0.1-0.7c0-0.1,0.1-0.3,0.2-0.4c0.1,0,0.1,0,0.2,0c0.1,0.1,0.1,0.2,0.1,0.3c0,0.3,0,0.5,0,0.8c0,0.1,0,0.2-0.1,0.2
		c0.1,0,0.1,0,0.1-0.1c0.1-0.1,0-0.3,0.1-0.4c0-0.3,0.1-0.5,0.1-0.8c0-0.1,0.1-0.2,0.2-0.3c0-0.1,0.1-0.1,0.2-0.1
		c0.1,0,0.2,0,0.3-0.1c0,0,0.1,0,0.1,0.1c0,0.1,0,0.3,0,0.4c0.2,0.6-0.2,1.2-0.3,1.7c-0.6,1.8-1,3.6-1.3,5.4c-0.1,1,0,2-0.2,2.9
		c-0.1,0.3,0,0.7-0.6,0.7c-0.2-0.1-0.4-0.3-0.6-0.4c0,0-0.1-0.1-0.1-0.1l0,0C64.7,63.4,64.8,62.5,64.9,61.5L64.9,61.5z"/>
	<path class="st1" d="M67.2,55.7c0.2-0.5,0.3-1.1,0.5-1.6c0.2-0.3,0.5-0.3,0.9-0.2c0.7,0.2,1.4,0.4,2.1,0.6c0.4,0.1,0.6,0.3,0.6,0.7
		c-0.1,0.4-0.2,0.9-0.3,1.3c-0.3,0.2-0.6,0.2-0.9,0.1c-0.8-0.2-1.5-0.3-2.3-0.3C67.3,56.4,67,56.2,67.2,55.7L67.2,55.7z"/>
	<path d="M65.9,56c0-0.2,0-0.4-0.2-0.5c0-0.7,0.1-1.5,0.1-2.2c0.1-1.5,0.1-3,0.2-4.5c0.6,0.3,0.2,0.8,0.4,1.2c0,0.2,0,0.5,0,0.7
		c0-0.2,0-0.3,0.1-0.5c0.7-2.6,1.4-5.2,2.2-7.9c0.1-0.4,0.1-0.8,0.6-1c0.3,0.1,0.2,0.3,0.1,0.5c-1,3.7-2,7.4-2.9,11
		c0,0.1-0.1,0.2-0.1,0.4c0,0.1,0,0.2,0,0.3c0,0.4,0,0.9,0,1.3c0,0.1,0,0.2,0,0.3c0,0.2,0,0.4-0.1,0.6C66,56,66,56.1,65.9,56L65.9,56
		z"/>
	<path class="st15" d="M66,55.4l0-0.3c0.2-0.5-0.1-1,0.1-1.5c0-0.1,0.1-0.1,0.1-0.2c0.1,0.1,0.1,0.1,0.2,0.2c0.1,0,0.1,0.1,0.1,0.2
		c0,0.1,0,0.2-0.1,0.3c0,0.1,0,0.3,0,0.4c0,0.4,0,0.5-0.1,0.8l0,0c0,0.1-0.1,0.2-0.1,0.2C66.1,55.5,66.1,55.4,66,55.4L66,55.4z"/>
	<path class="st15" d="M67.1,54.2c-0.1,0.3-0.1,0.4-0.2,0.7c-0.4,0-0.1-0.3-0.2-0.5c0-0.1,0-0.2,0-0.3c0-0.1-0.1-0.2,0-0.3
		c0-0.1,0.1-0.2,0.2-0.2c0.1,0,0.2,0,0.3,0c0,0,0,0.2-0.1,0.2C67.1,54,67.1,54.1,67.1,54.2L67.1,54.2z"/>
	<path class="st11" d="M79.7,58.6c0.2,0.3,1.2,1.4,1.4,2.4c0.4,1.8,0.4,3.6,0.1,5.4c-0.5,3.1-1.1,6.2-1,9.4c0.1,3.1,1,6,2.2,8.9
		c0.1,0.3,0.2,0.8,0.7,0.8c0,0-0.1-0.3-0.2-0.4c-0.5-1.9-0.7-3.9-0.7-5.9c0.1-4.7,0.8-9.3,0.8-14c0-0.1,0-0.3,0-0.4
		c0-0.2-0.1-0.3-0.1-0.5c-0.3-1.7-0.8-3.4-2-4.7c-0.1-0.1-0.2-0.3-0.2-0.3c0-0.1-1-1-1.1-1.1C79.5,58.3,79.6,58.5,79.7,58.6"/>
	<path class="st10" d="M46.2,52.2c-0.3-0.7-0.6-1.4-0.9-2.1c0-0.2,0.1-0.4,0.2-0.5c0.9-1,1.8-1.9,2.7-2.9
		C49,48.7,48.1,51.5,46.2,52.2z"/>
	<path class="st1" d="M50.8,50.6c0.5-0.1,1-0.3,1.6,0c-0.1,0.5-0.2,1-0.3,1.5c-0.3,0.3-0.7,0.3-1,0.3c-1.1,0.1-2.3-0.2-3.4,0.4
		c-0.2,0.1-0.5,0.2-0.5-0.2C48.3,51.6,49.5,50.9,50.8,50.6z"/>
	<path class="st15" d="M47.2,52.5c0.2,0.3,0.4,0,0.7-0.1c1.1-0.4,2.2-0.3,3.3-0.1c-0.1,0-0.1,0.1-0.2,0.1c-1.5-0.1-2.7,0.5-3.9,1.4
		c-0.7,0.5-1.2,1.2-1.6,1.9c-0.2,0-0.4,0-0.8,0c0.3-1.2,1.2-1.9,1.8-2.8C46.8,52.8,47,52.7,47.2,52.5L47.2,52.5z"/>
	<path d="M46.8,38.3c-0.1,0.2-0.1,0.3,0,0.5c0,1.4,0.7,2.4,1.9,3.2c0.4-0.3,0.8-0.6,1.1-0.8C48.6,40.4,47.7,39.4,46.8,38.3
		L46.8,38.3z"/>
	<path class="st7" d="M70.2,128.1c0.7,0.2,1.4,0,2.1-0.4c0,0,0.1,0,0.1-0.1l0,0c-0.3,1.5-1,2.9-2.4,3.6c-2.8,1.4-5.7,2.3-8.7,3
		c-0.4,0.1-0.8,0.2-1.2,0.3c0.4-1.8,1.7-2.4,3.4-2.5c1.4-0.1,2.5-0.7,3.4-1.7c0.9-1,1.8-2.1,3.5-1.8
		C70.3,128.3,70.3,128.2,70.2,128.1L70.2,128.1z"/>
	<path class="st16" d="M65.3,64.8c0.4,0,0.3-0.4,0.3-0.6c0.2-1,0-2.1,0.3-3.2c0.7,1.3,2.1,1.8,3.1,2.7c0,0.8-0.6,1.4-0.3,2.2
		c-0.5,0.3-0.3,0.8-0.5,1.2c-0.1,0.2-0.1,0.4-0.2,0.6c0,0.1-0.2,0.2-0.3,0.1C66.7,67,66.2,65.8,65.3,64.8L65.3,64.8z"/>
	<path d="M71.1,35c0-0.1,0-0.2,0-0.3c0,0.1-0.1,0.1-0.1,0.2c0,0,0,0,0,0.1c0,0,0,0,0,0.1c0,0,0,0.1,0,0.1c0,0.2-0.1,0.3-0.1,0.5
		l0,0.1c0,0.1-0.1,0.3-0.1,0.4c0,0.2-0.1,0.4-0.1,0.6c0,0,0,0,0,0c-0.1,0.2-0.3,0.7-0.3,0.7c0,0.1-0.8,2.7-1.2,3.9
		c0,0.1-0.3,0.6-0.3,0.6c0.1,0.2,0.5-0.1,0.5,0.1c0.3-1.3,1.3-4.9,1.3-4.9c0,0,0.1-0.5,0.1-0.5c0-0.2,0.2-0.6,0.2-0.6
		c0-0.2,0.1-0.4,0.1-0.6c0,0,0-0.1,0.1-0.1c0-0.1,0.1-0.2,0.1-0.2C71.2,35,71.1,35,71.1,35L71.1,35z"/>
	<path class="st7" d="M33,57.6c-0.1,0.1-0.1,0.2-0.2,0.3C32.9,57.8,32.9,57.7,33,57.6z"/>
	<path class="st16" d="M45.5,55.8c0-1.2,1-1.7,1.7-2.3c1.1-0.8,2.3-1.5,3.8-1c-2,0.3-3.2,1.6-4,3.3C46.5,55.9,46,55.8,45.5,55.8
		L45.5,55.8z"/>
	<path class="st3" d="M66.9,28.3c0.4-0.1,0.9-0.1,1.3-0.2c0.5,0.2,0.8,0.5,0.9,1C68.7,29.4,68.4,29,68,29c0,0.5,0.6,0.9,0.2,1.4
		c-0.5,0-0.6-0.5-1-0.7c-0.1,0.1-0.2,0.3-0.4,0.1c0-0.1,0-0.1,0-0.2C66.8,29.2,66.6,28.7,66.9,28.3L66.9,28.3z"/>
	<path class="st15" d="M69,63.7c-0.1,0.1-0.2,0.3-0.5,0.1c-0.7-0.9-1.7-1.4-2.6-2c0-0.3,0-0.5,0-0.7c0.2-1.8,0.7-3.6,1.3-5.4
		c0,0.2,0,0.5,0.3,0.5c1.2-0.3,2.3,0.3,3.4,0.3C70.6,59,69.6,61.3,69,63.7L69,63.7z"/>
	<path class="st8" d="M72.4,127.7c0,0-0.1,0.1-0.1,0.1C72.3,127.8,72.4,127.7,72.4,127.7z"/>
	<path class="st5" d="M62.9,30.2c0.2,0,0.3-0.1,0.3-0.3c0.1,0.4,0.4,0.8,0.7,1.1c0.2,0.3,0.6,0.5,0.4,0.9c-0.2,0.5-0.6,0.1-0.9,0.3
		C63.3,31.6,63.1,30.9,62.9,30.2L62.9,30.2z"/>
	<path class="st17" d="M56.4,26.8c0.1,0,0.2,0.1,0.3,0.1C56.5,26.9,56.4,26.8,56.4,26.8z"/>
	<path d="M63.9,41.4c0-0.3-0.5-2.9-0.6-3.2c0,0-0.1-2.2-0.3-2.4c-0.1,0-0.1,0-0.2-0.1c0,0.1-0.1,0.1-0.1,0.2
		c0.2,0.2,0.2,1.3,0.3,1.5c0.1,0.3,0.6,4.7,0.6,4.8c0,0.1,0.1,0.1,0.1,0c0-0.2,0.1,0,0.2-0.2C64,41.9,63.9,41.4,63.9,41.4z"/>
	<path class="st18" d="M64.7,29.5c0.1,0,0.1-0.1,0.2-0.1C64.8,29.4,64.7,29.4,64.7,29.5z"/>
	<path d="M66.7,54.3c0-0.1,0-0.2,0-0.3c0-0.1,0-0.2,0-0.3c0-0.1,0.1-0.1,0.1-0.2c0-0.1-0.1-0.1-0.1-0.2c-0.1-0.1-0.1-0.1-0.2,0
		c0,0.1-0.1,0.1-0.1,0.2c0,0,0,0.1,0,0.1c0,0.1,0,0.2,0,0.3l0.1,0h0.1c0,0.1,0,0.2,0,0.3c0,0.3,0,0.7,0,1c0,0.1,0,0.1,0,0.2
		c0.1,0,0.1,0,0.2,0c0-0.2,0.1-0.4,0.1-0.6C66.8,54.7,66.8,54.5,66.7,54.3L66.7,54.3z"/>
	<path class="st15" d="M66.2,55.4L66.2,55.4c-0.1,0-0.1,0-0.1,0c0,0.1-0.1,0.4-0.1,0.5c0,0.1,0,0.2-0.1,0.3c0,0.6-0.2,1.8-0.1,2.1
		C66,58.2,66,58,66,57.9c0-0.1,0-0.2,0-0.3c0-0.4,0.1-1.1,0.1-1.2c0-0.2,0.2-1.1,0.2-1.2C66.3,55.2,66.2,55.4,66.2,55.4L66.2,55.4z"
		/>
	<path class="st19" d="M66.3,50.3c0-1.1,0-2.1,0.1-3.2c0-0.1,0-0.1,0.1-0.1c0,0.9,0,1.8,0,2.7c0,0.3-0.1,0.5,0.1,0.8
		c-0.1,0.3-0.1,0.6-0.2,0.9C66,51.1,66.3,50.7,66.3,50.3L66.3,50.3z"/>
	<path class="st15" d="M66.2,53.6c0,0.5,0.1,1-0.1,1.5C66.1,54.6,65.9,54.1,66.2,53.6z"/>
	<path d="M64.8,47.7c0,0.2,0,0.6,0,0.7c0,0-0.1,0-0.1,0c-0.1-0.2,0-0.4-0.2-0.6c0,0.3,0.7,5.1,0.7,5.1c0.1,0.1,0.1,0.1,0.2,0.2
		c0.1,0.1,0.2,0.1,0.3,0.2C65.7,53.1,64.9,47.9,64.8,47.7L64.8,47.7z"/>
	<path d="M66,48.4c0-0.1,0.1-4.2,0.2-4.6c0-0.3,0.1-4.1,0.1-4.5c0-0.3,0-0.7,0-1c0-0.8,0.1-1.2,0.1-2.4c0-0.4,0-1.3,0-1.7l0-0.3
		c0-0.5,0-1,0-1.6c0,0,0.1,0,0.1,0c0-0.9,0-1.7,0-2.6c-0.1-0.5,0.1-1-0.1-1.5c0.1,0,0.2,0.1,0.4,0.1c0,0.6,0,1.1,0,1.7l-0.1,1.9
		c0,0.4,0,1.3,0,1.3c0,0.3,0,2.8-0.1,3.5c0,0.4,0,0.7-0.1,1.1c0,0.3,0,0.6,0,0.9c0,0.3-0.1,5.4-0.2,5.7c0,0.9,0,1.9,0,2.8
		c0,0,0,0-0.1,0c0,1.1,0,2.1,0,3.2c0,0.1,0,0.1-0.1,0.1c0.1,0.3-0.1,0.7,0.1,1c0,0.1,0,0.3-0.3,0.4c0-0.5,0-0.9,0-1.3
		c-0.1-0.5,0.1-1-0.2-1.5C66,48.7,66,48.5,66,48.4"/>
	<path class="st3" d="M71.1,34.6c0-0.7-0.8-0.4-1-0.9c-0.4,0.7-1.1,1.2-1.4,2.1c0.9-0.1,1.3-0.9,2.1-1c0,0.2,0.1,0.2,0.1,0.3
		C70.9,35.1,71,34.7,71.1,34.6L71.1,34.6z"/>
</g>
</svg>
