<?xml version="1.0" encoding="utf-8"?>
<svg width="128" height="146" viewBox="0 0 128 146" fill="none" xmlns="http://www.w3.org/2000/svg">
    <path d="M1.58913 87.3915C3.25788 93.2403 2.77495 102.698 24.0718 107.515C45.3687 112.333 40.9215 118.781 46.7563 128.207C52.5912 137.634 76.1274 149.133 88.8143 144.04C101.499 138.948 97.2887 121.4 100.572 115.328C103.855 109.255 119.161 99.8076 122.836 89.335C126.511 78.8624 118.336 67.8138 122.836 56.3893C127.336 44.9649 128.745 35.2472 122.179 26.4765C115.615 17.7058 99.7142 22.4388 92.5 25.9997C85.2858 29.5607 77.3442 41.1388 71 40.4997C64.6558 39.8624 53.9462 25.6457 52.9731 18.0729C52 10.5002 38.5 8.99992 33 16.5005C27.5 24.0011 30.1502 34.5401 41 45.5005C51.8498 56.4608 30.9255 60.8343 16.1548 65.7179C1.38404 70.6016 -0.0548213 81.6304 1.58913 87.3882V87.3915Z" fill="#E9D2B1"/>
    <path d="M35.6553 57.6321C35.8151 57.7439 35.8027 57.9147 35.8058 58.0792C35.7701 58.0855 35.7329 58.0901 35.6972 58.0963C35.5452 58.0032 35.5312 57.8681 35.5824 57.7144C35.6073 57.6864 35.6321 57.66 35.6553 57.6321Z" fill="white"/>
    <path d="M35.3596 57.334C35.4093 57.3837 35.4589 57.4334 35.5085 57.483C35.476 57.4892 35.4434 57.4955 35.4108 57.5017C35.3519 57.4598 35.3317 57.4039 35.3581 57.3355L35.3596 57.334Z" fill="white"/>
    <path d="M35.5083 57.4824C35.5582 57.5324 35.6082 57.5824 35.6565 57.6323H35.655C35.5208 57.6667 35.4724 57.6152 35.5068 57.4824H35.5083Z" fill="white"/>
    <path d="M111.772 93.127C111.817 93.7651 111.86 94.4033 111.905 95.0414C111.786 95.4964 111.621 95.9296 111.296 96.2836C110.753 96.31 110.21 96.3379 109.667 96.3643C110.367 95.3131 110.356 94.1362 110.267 92.9453C110.247 92.6752 110.191 92.3988 110.382 92.1581C110.652 91.9548 110.95 91.9641 111.257 92.0401C111.721 92.2637 111.905 92.6193 111.773 93.127H111.772Z" fill="#987B67"/>
    <path d="M68.1464 1.00153C68.2891 1.00619 68.4489 1.0124 68.5823 1.0155C68.6583 1.01706 68.7343 1.02482 68.8103 1.03724C70.2684 1.27946 71.5993 1.85394 72.8635 2.59766C73.2156 2.87248 73.5646 3.14265 73.9167 3.41747C74.41 3.90655 74.9032 4.39564 75.3949 4.88473L75.5314 5.04C76.1938 5.91725 76.6731 6.89853 77.1617 7.87515C77.3633 8.56453 77.5588 9.23683 77.7605 9.92621C77.8272 10.5612 77.8938 11.1978 77.9605 11.8329C78.1793 12.1186 78.294 12.4415 78.2909 12.8017C78.2708 16.7998 77.3168 20.5386 75.0056 23.8334C73.6018 25.8332 71.6365 27.1747 69.3392 28.01C68.9902 28.1373 68.6226 28.215 68.2426 28.1513C67.3522 27.892 66.4432 27.7864 65.5172 27.8097C64.782 27.8315 64.1553 27.5023 63.5224 27.1964C63.403 27.1266 63.296 27.035 63.1719 26.9713C63.1114 26.9402 63.0555 26.903 63.0012 26.8611C62.9501 26.8145 62.9082 26.7601 62.8756 26.6996L62.8554 26.5956C62.8725 26.4915 62.9361 26.4263 63.0338 26.3906C63.0974 26.3766 63.1626 26.3751 63.2277 26.3813C63.3549 26.403 63.479 26.4387 63.6046 26.4698C63.6682 26.4822 63.7303 26.4993 63.7923 26.5164C64.0452 26.5769 64.2964 26.6375 64.481 26.372C64.6486 25.6546 64.0855 25.3239 63.6713 24.9901C62.5374 24.0787 61.6409 22.9546 60.6993 21.8677C59.8958 20.9377 59.308 19.8772 58.8333 18.7484C58.7046 18.441 58.627 18.0839 58.2144 17.924C57.9569 18.5124 58.0593 19.0621 58.1989 19.6133C58.6177 21.2715 59.4848 22.6658 60.6807 23.8706C61.1523 24.3458 61.6564 24.7914 62.0721 25.3193C62.1124 25.3705 62.1497 25.4249 62.1838 25.4792C62.2024 25.504 62.2195 25.532 62.2365 25.5568C62.2738 25.605 62.3094 25.6562 62.3467 25.7059C62.3668 25.7292 62.3839 25.754 62.404 25.7773C62.4459 25.8223 62.4832 25.8705 62.5219 25.917C62.5406 25.9403 62.5592 25.9667 62.5778 25.99C62.6135 26.0413 62.6383 26.0972 62.6584 26.1562C62.6584 26.1872 63.372 26.594 63.372 26.6251C63.3394 26.7198 62.7127 26.5738 62.6181 26.5987C62.5561 26.6049 62.342 26.4263 62.28 26.4092C62.221 26.3875 62.1652 26.3596 62.1109 26.3269C62.083 26.3114 62.0566 26.2943 62.0287 26.2804C61.9682 26.2493 61.9092 26.2167 61.8503 26.1841C61.7867 26.1577 61.7246 26.1267 61.6641 26.0956C61.5711 26.0552 61.4811 26.0102 61.3927 25.9621C58.3819 23.762 56.505 20.8709 56.1157 17.115C55.8458 14.5097 56.277 11.9773 57.0712 9.49923C57.2139 9.05206 57.3271 8.64527 56.944 8.26953C57.1767 7.99315 57.6916 8.35337 57.8483 7.9062L58.2066 7.14385C58.6425 6.49328 59.0784 5.84272 59.5158 5.19371C59.9579 4.68444 60.5023 4.20001 60.9956 3.70316C61.5571 3.21717 61.7975 3.11625 62.1977 2.8228C63.389 2.07442 64.7277 1.70488 66.0462 1.2779C66.2478 1.21269 66.4572 1.16611 66.6682 1.14593C67.0699 1.10711 67.3848 1.05898 67.7602 1.01706C67.8889 1.00308 68.0192 0.996871 68.148 1.00153H68.1464Z" fill="#EA9C47"/>
    <path d="M31.5247 36.7221C31.4781 36.6724 31.4301 36.6227 31.3835 36.5731C30.7879 35.14 31.6395 34.0577 32.2677 32.9212C32.8214 32.3731 33.3581 31.8095 33.7614 31.1356C33.8204 30.086 34.0267 29.0892 34.8038 28.3051C35.3483 27.8595 35.8927 27.4139 36.4372 26.9683C36.5287 26.9062 36.6218 26.8425 36.7133 26.7804C36.7536 26.723 36.8048 26.678 36.8684 26.6469C37.1166 26.0988 37.5866 25.7883 38.0876 25.5135C39.8528 24.8474 41.6475 24.2217 43.529 24.0742C46.0202 23.8785 48.4865 24.8024 49.4886 27.3316C50.2533 29.2616 51.7036 29.878 53.5634 29.9541C54.2925 29.9836 54.9905 30.0829 55.6482 30.4137C56.8736 31.0285 57.4646 32.2039 57.2242 33.5547C57.1497 33.9724 57.007 34.3683 56.8891 34.772C56.6254 35.6772 56.5572 36.5746 57.0597 37.4379C57.7748 38.6691 58.9521 39.034 60.2349 38.4145C60.435 38.3182 60.6227 38.194 60.8337 38.1164C61.1424 38.0015 61.3688 38.0652 61.4619 38.4114C61.5115 39.079 61.572 39.7467 61.7132 40.4035C61.7116 40.5774 61.6372 40.7404 61.648 40.9174C61.8016 43.2448 60.4599 45.094 58.1486 45.7105C56.3586 46.1887 54.7221 45.9946 53.3277 44.6283C53.0422 44.3488 52.7739 43.8674 52.2124 44.1019C51.9875 43.9699 51.9921 43.737 51.9564 43.5212C51.6881 41.8568 51.3872 41.5695 49.7073 41.3801C48.2895 40.8304 47.4038 39.6892 46.5429 38.5216C46.1427 38.194 45.6805 37.9441 45.316 37.5699C45.1562 37.4053 44.9545 37.2749 44.725 37.3106C43.5973 37.486 42.5751 37.2003 41.5451 36.5358C40.6439 37.7298 39.8047 38.9533 38.4552 39.6411C38.1714 39.5278 37.8844 39.565 37.5881 39.5992C36.1595 39.7653 34.6766 38.9548 34.005 37.6537C34.0763 37.0823 33.6451 37.0979 33.293 37.0761C32.6849 37.0389 32.0722 37.0466 31.5231 36.7221H31.5247Z" fill="#241E19"/>
    <path d="M52.4799 10.227C53.3532 9.45226 54.4281 9.05167 55.4813 8.61072C55.9684 8.49582 56.457 8.38247 56.9441 8.26758C57.1612 8.28776 57.3784 8.30795 57.6933 8.33745C57.1069 10.0174 56.6819 11.6788 56.4198 13.3851C55.6271 18.5384 57.6142 23.1048 61.7108 25.884C61.7604 25.9306 61.7992 25.9586 61.8504 26.0036C61.886 26.0362 62.2087 26.2396 62.2087 26.2396C62.2583 26.2862 62.8012 26.575 62.8012 26.575C62.992 26.6743 63.0851 26.7318 63.127 26.7489C63.3007 26.8327 63.2914 26.8358 63.4992 26.9367C64.1057 27.2721 64.7526 27.4957 65.4196 27.668C65.5809 27.7146 65.646 27.8218 65.6166 27.9863C65.0147 28.4366 64.6486 29.14 63.9801 29.5204C63.9243 29.5561 63.8653 29.5887 63.8064 29.6197C63.718 29.6679 63.6357 29.7238 63.5535 29.7812C63.386 29.9023 63.2185 30.025 63.0122 30.0762C62.9408 30.0933 62.8695 30.1026 62.7966 30.1057C62.6461 30.1088 62.5003 30.0886 62.3591 30.0328C60.9864 28.3807 59.1265 27.7177 57.0837 27.4165C56.9115 27.3917 56.7595 27.3047 56.6354 27.1774C56.2864 26.7566 55.8645 26.4088 55.4782 26.0253C53.5393 24.0969 52.2906 21.7695 51.8191 19.1051C51.3739 16.5914 51.5399 14.0699 52.4752 11.6462C52.6102 11.2953 52.8847 10.9397 52.5714 10.5422C52.4892 10.4522 52.4318 10.3559 52.4783 10.2301L52.4799 10.227Z" fill="#AF6A1D"/>
    <path d="M38.5135 39.6334C38.6516 39.3772 38.7756 39.1366 39.0471 38.9565C40.0817 38.2671 40.7673 37.2594 41.4483 36.126C42.5124 37.101 43.761 37.3138 45.185 36.9893C45.4921 37.6662 46.2026 37.8914 46.6695 38.3975C46.6741 38.4301 46.6772 38.4643 46.6819 38.4969C46.7175 38.663 46.8199 38.8043 46.8478 38.9736C46.9874 40.1023 47.4249 41.0541 48.3292 41.6426C48.914 41.7109 49.1591 41.1054 49.6601 41.2435C51.4439 41.0277 52.1776 41.846 52.1869 44.0678C52.2396 45.0538 51.5913 45.5615 50.8607 46.0118C50.5473 46.2058 50.1487 46.2198 49.7795 46.5381C50.1378 47.4107 51.1321 50.4865 50.7335 50.8592C49.5019 51.3964 48.2516 51.8994 47.2372 52.8233C46.9657 53.0065 46.7269 53.2704 46.3484 53.1928C46.2088 52.8994 46.2631 52.7068 46.1048 52.3916C46.2553 52.0563 46.4942 51.9243 46.7532 51.7007C47.8561 50.7443 48.3928 48.8764 47.8949 47.3828C47.0541 48.5022 45.9932 49.3127 45.2269 50.4027C44.8376 50.6977 44.3753 50.8731 43.9798 51.1573C43.1189 51.6433 42.1975 51.8622 41.211 51.7519C40.4711 51.6681 39.8258 51.4197 39.5187 50.6573C39.3341 50.3421 39.1479 50.0269 38.9633 49.7133C38.9184 49.6108 38.8734 49.5068 38.8284 49.4043C38.7757 49.2584 38.7214 49.1124 38.6686 48.9665C38.4577 48.0752 38.2483 47.1825 38.0373 46.2912C37.7969 45.6546 37.7674 44.9854 37.7783 44.3209C37.8 43.0089 37.9365 41.7062 38.1381 40.4098C38.1831 40.121 38.2281 39.8151 38.5166 39.6381L38.5135 39.6334Z" fill="#987B67"/>
    <path d="M38.5136 39.6335C38.1894 41.6768 37.9351 43.7232 38.1553 45.7991C38.1724 45.956 38.0778 46.1237 38.0343 46.2867C37.9847 46.3022 37.9351 46.3177 37.8854 46.3333C37.797 46.3798 37.6869 46.369 37.6062 46.4373C36.6414 46.7292 35.6688 46.8239 34.6807 46.5491C32.2827 45.8845 31.1953 43.7388 32.0267 41.2235C32.2423 40.5713 32.582 39.9596 32.8659 39.3308C33.2459 38.7718 33.626 38.2113 34.0075 37.6523C34.8219 38.2889 35.461 39.1662 36.6057 39.3292C37.0556 39.3929 37.4682 39.4084 37.9056 39.3106C38.1708 39.2516 38.5214 39.1336 38.5152 39.6335H38.5136Z" fill="black"/>
    <path d="M62.7579 131.114C64.2315 131.013 65.0862 129.901 66.0742 129.038C66.7412 128.456 67.3508 127.805 68.0659 127.291C68.4072 127.296 68.6011 127.558 68.8617 127.69C69.372 127.678 69.7799 127.94 70.191 128.193C70.2934 128.3 70.4082 128.404 70.343 128.578C70.2655 128.685 70.1553 128.76 70.0343 128.764C68.7314 128.823 67.8565 129.606 67.0391 130.507C66.0153 131.635 64.7418 132.339 63.217 132.43C61.6023 132.527 60.608 133.353 60.0496 134.811C59.5206 135.166 58.925 135.289 58.2999 135.307C58.2952 135.202 58.5372 134.346 58.5868 134.247C58.6365 134.148 58.6861 134.048 58.7357 133.949C58.7854 133.899 59.1328 133.402 59.1825 133.353C59.2321 133.303 59.2817 133.253 59.3314 133.204C59.7362 132.913 60.0852 132.567 60.3738 132.16C60.4234 132.11 60.473 132.061 60.5227 132.011C60.5723 131.961 60.6219 131.912 60.6716 131.864C61.2874 131.347 62.4585 131.165 62.7563 131.114H62.7579Z" fill="#E7F1FC"/>
    <path d="M112.788 103.84C112.862 103.607 111.456 99.2461 110.857 97.268C110.722 96.8255 110.689 96.4513 111.082 96.1376C111.431 95.7821 111.6 95.3318 111.746 94.8691C111.862 94.6316 111.805 94.3133 112.104 94.127C112.667 94.2915 112.774 94.807 112.7 95.2402C112.343 97.313 113.388 98.9976 114.164 100.747C114.55 101.619 114.697 102.494 114.297 103.334C113.775 104.434 113.958 105.447 114.378 106.492C114.511 106.825 115.402 107.548 115.226 107.95C115.124 108.05 113.657 107.564 113.382 106.818C113.27 106.677 112.786 103.889 112.786 103.839L112.788 103.84Z" fill="#E7F1FC"/>
    <path d="M115.228 107.952C115.102 107.914 114.981 107.855 114.834 107.775C114.767 107.737 114.705 107.692 114.651 107.638C114.626 107.613 114.601 107.59 114.575 107.565L114.507 107.442C114.255 106.776 114.055 106.239 113.826 105.567C113.584 104.86 113.641 104.185 113.985 103.491C114.438 102.578 114.372 101.679 113.875 100.735C113.233 99.5144 112.724 98.2211 112.385 96.8734C112.298 96.5318 112.354 96.1948 112.436 95.8486C112.565 95.3098 112.521 94.7773 112.158 94.2043C112.059 94.5319 111.983 94.7881 111.905 95.0428C111.496 94.4357 111.536 93.7789 111.69 93.1097C111.967 92.8892 112.256 92.9933 112.534 93.0973C113.892 93.605 114.89 94.49 115.197 95.9511C115.609 97.9167 115.896 99.8995 115.639 101.921C115.547 102.635 115.506 103.367 115.62 104.07C115.788 105.095 115.582 106.093 115.566 107.104C115.561 107.4 115.56 107.806 115.229 107.952H115.228Z" fill="#CCDCEE"/>
    <path d="M111.275 92.1941C111.143 91.5824 111.63 91.7936 111.877 91.7796C113.028 91.7097 114.19 91.8867 115.335 91.6321C115.746 91.6321 116.158 91.6321 116.636 91.6321C116.636 94.4471 116.636 97.1984 116.636 99.9512C116.549 101.498 116.467 103.046 116.377 104.592C116.316 105.618 116.242 106.643 116.174 107.669L115.814 107.988C115.618 107.977 115.423 107.964 115.228 107.954C115.221 107.929 115.223 107.823 115.218 107.755C115.215 107.701 115.215 107.645 115.223 107.59C115.356 106.513 115.477 105.575 115.38 104.469C115.308 103.659 115.266 102.825 115.366 102.022C115.615 100.001 115.349 98.0213 114.968 96.0572C114.635 94.3322 113.357 93.5387 111.773 93.1304C111.573 92.8369 111.587 92.4301 111.277 92.1973L111.275 92.1941Z" fill="#8AA0BC"/>
    <path d="M81.9248 13.8485C81.9263 13.8904 81.9372 13.9308 81.9573 13.968C82.401 14.6543 82.5918 15.4229 82.6367 16.2225C82.7283 17.8574 82.8725 19.4893 82.8043 21.1304C82.6336 25.2543 81.0359 28.6655 77.7646 31.2398C76.4538 32.2708 75.033 33.1294 73.5733 33.9321C73.2212 34.1262 72.8102 34.1526 72.4798 34.3824C72.441 34.4258 72.4022 34.4693 72.3635 34.5128C71.5196 34.3373 70.7254 33.9927 69.8925 33.783C69.5621 33.5936 69.134 33.4974 69.1309 32.9912C69.3806 32.5301 69.756 32.4291 70.2601 32.5223C71.2466 32.7071 71.6251 32.4276 71.8237 31.4494C71.8733 31.2056 71.9214 30.9541 71.8904 30.7088C71.7663 29.7213 72.2425 29.2012 73.1003 28.754C75.776 27.3612 77.6761 25.1844 79.187 22.5946C80.5551 20.2516 80.8545 17.696 80.9879 15.0766C81.0173 14.5006 80.7924 13.8811 81.2283 13.3594C81.4594 13.5224 81.6921 13.6854 81.9232 13.8469L81.9248 13.8485Z" fill="#EA9C47"/>
    <path d="M72.4805 34.381C73.0451 33.7242 73.8843 33.5084 74.5931 33.0861C77.3464 31.4449 79.8453 29.5926 81.2755 26.5587C82.5847 23.7826 82.7119 20.8869 82.5102 17.9213C82.4187 16.5922 82.2729 15.111 81.8913 13.8223C81.9425 13.8378 82.017 13.8875 82.065 13.9154C82.11 13.9667 83.2377 15.5147 83.292 15.6094C83.4425 15.9059 83.5945 16.2025 83.7449 16.499C83.793 16.6 84.2832 17.8452 84.3328 17.9943C84.3809 18.1449 84.429 18.2955 84.4755 18.4461C84.5298 18.6417 84.5841 18.8374 84.6368 19.033C84.9765 20.9086 85.0603 22.7904 84.778 24.68C84.6617 25.638 84.1234 26.8832 83.8706 27.5742C83.8209 27.6735 83.6255 28.1471 83.5759 28.2465C82.6421 30.1733 80.9125 31.6856 80.32 32.2849C78.9534 33.4525 78.2042 33.659 77.334 33.9106C75.7456 34.3764 74.1231 34.4835 72.4805 34.3826V34.381Z" fill="#FCCA95"/>
    <path d="M70.7636 36.7227C70.7636 36.7227 70.6938 36.715 70.6938 36.7134L70.6287 36.7212C70.4736 36.5364 70.5852 36.3423 70.6085 36.1498C70.6225 36.0846 70.6411 36.0225 70.6628 35.9604C70.7435 35.7772 70.7543 35.5753 70.8086 35.3859C70.852 35.2539 70.8862 35.1204 70.9125 34.9838C71.2833 34.3285 71.4291 34.3006 72.352 34.7043C72.4389 35.4915 73.0764 36.1576 72.9538 36.9649C72.5226 37.1761 72.3784 36.8764 72.1674 36.7383C72.0666 36.5908 71.9658 36.4432 71.8649 36.2957C71.7951 36.0861 71.7052 35.8936 71.443 35.8129C71.2957 36.1731 71.063 36.4727 70.7652 36.7212L70.7636 36.7227Z" fill="#EA9C47"/>
    <path d="M72.3525 34.7054C71.9849 34.9818 71.6808 34.5377 71.2713 34.634C71.217 34.7721 71.1488 34.9476 71.079 35.1215C71.0511 35.1386 71.0216 35.1572 70.9937 35.1743C70.9285 35.1525 70.8758 35.1153 70.8355 35.0594C70.7812 34.9755 70.747 34.8808 70.7098 34.7892C70.4756 34.398 69.8768 34.3188 69.835 33.7645C69.8427 33.6915 69.883 33.6434 69.9482 33.6123C70.7951 33.8002 71.6932 33.8514 72.3649 34.5113C72.3618 34.5765 72.3571 34.6402 72.354 34.7054H72.3525Z" fill="black"/>
    <path d="M26.7622 54.0919C26.8103 54.0438 26.8599 53.9972 26.908 53.9491C27.1035 53.8466 27.2989 53.7426 27.4944 53.6401C27.544 53.5376 27.5952 53.4367 27.6448 53.3342C27.8418 52.9538 28.0435 52.5781 28.394 52.311C28.7042 52.1806 29.1138 52.2427 29.2921 51.8545C29.3402 51.7536 29.3868 51.6527 29.4348 51.5518C30.4291 50.4571 30.9177 50.4742 31.8531 51.634C32.0237 51.8452 32.2036 52.0502 32.3789 52.2567C33.4849 53.3886 34.6808 54.4614 34.9213 56.1585C34.9042 56.4939 34.8871 56.8308 34.8716 57.1662C34.3194 57.6102 33.5531 57.3929 32.9823 57.781C32.3805 57.9673 31.8655 58.295 31.4157 58.7359C31.2481 58.9005 31.0977 59.1443 30.7936 58.9843C30.547 58.6521 30.2461 58.3835 29.8769 58.194C29.6768 58.0465 29.4783 57.8975 29.2782 57.75C29.0796 57.6009 28.8811 57.4534 28.6825 57.3044C28.5352 57.2034 28.3878 57.1025 28.2389 57.0016C28.0419 56.8525 27.8434 56.7019 27.6464 56.5529C27.5952 56.5063 27.544 56.4597 27.4928 56.4131C27.4463 56.3619 27.3997 56.3107 27.3532 56.2594C26.9949 55.6787 26.5776 55.1198 26.6102 54.3823C26.6614 54.286 26.7126 54.1897 26.7622 54.0919Z" fill="#987B67"/>
    <path d="M34.9222 56.1577C34.4119 54.6376 33.1617 53.6004 32.3799 52.2558C32.8266 51.8754 32.7816 51.2808 33.0081 50.8041C33.1074 50.6054 33.2066 50.4066 33.3059 50.2094C33.7077 49.6893 34.0629 49.1272 34.6384 48.767C35.2387 48.3913 35.7816 48.3493 36.2112 49.0201C36.2717 49.7809 35.8033 50.3662 35.5582 51.0277C35.4294 51.3724 35.2929 51.7171 35.3302 52.0975C35.3581 53.4669 35.4698 54.8457 34.9222 56.1577Z" fill="#503F35"/>
    <path d="M30.7942 58.9824C31.4426 58.4716 31.9762 57.7868 32.851 57.6191C32.8976 57.6828 32.9146 57.7527 32.9069 57.8303C32.8882 57.9436 32.8464 58.0492 32.789 58.147C32.7502 58.2123 32.7068 58.2744 32.6602 58.3334C32.5237 58.5337 32.3283 58.7091 32.381 59.0243C33.1954 59.4358 34.1199 58.633 34.9683 59.1175C34.959 59.5755 34.5588 59.7385 34.2796 59.959C33.6669 60.4403 33.124 60.9667 32.8371 61.7197C32.6261 62.2725 32.6463 62.7973 32.9844 63.2801C34.2021 65.0191 34.6581 66.9335 34.5107 69.0545C34.3479 71.3912 36.1906 74.0385 38.6508 74.2838C39.0432 74.3226 39.431 74.4391 39.825 74.4732C40.9635 74.5726 41.9377 74.2807 42.586 73.2529C42.7722 72.9594 42.98 72.6784 43.1367 72.3694C43.934 70.795 45.0974 69.5855 46.6625 68.7533C47.7452 68.1772 48.5161 67.2813 49.1164 66.224C49.681 65.2318 50.2022 64.2133 50.8847 63.2941C52.9896 60.459 55.7739 59.5553 59.0748 60.7741C60.7159 61.3797 62.3601 61.6871 64.0959 61.5629C64.3565 61.5443 64.6543 61.4759 64.8296 61.7818C64.9242 62.715 65.0235 63.6481 64.4108 64.471C61.7583 66.0128 59.0717 66.8233 56.0562 65.3467C54.1809 64.4276 53.0377 64.898 52.0015 66.7146C51.5858 67.4444 51.2353 68.2098 50.8537 68.9582C49.5476 71.1754 47.6506 72.7079 45.3192 73.7404C44.6336 74.0447 43.9542 74.4111 43.4702 74.967C42.0773 76.5724 40.3477 76.6283 38.5019 76.147C35.0707 75.2527 33.4203 72.7684 32.6726 69.497C32.3516 68.0887 32.4818 66.6385 32.2492 65.2241C32.288 64.2676 31.9296 63.3873 31.7078 62.4821C31.593 62.0163 31.6349 61.5536 31.6148 61.0459C31.2115 60.7307 30.7849 60.3937 30.6143 59.8519C30.6143 59.7137 30.6143 59.577 30.6143 59.4389C30.6732 59.2882 30.7321 59.1361 30.7911 58.9839L30.7942 58.9824Z" fill="#8AA0BC"/>
    <path d="M32.8275 57.7839C32.8353 57.7296 32.843 57.6737 32.8508 57.6194C33.4604 57.18 34.1584 57.1442 34.8719 57.1644C35.0332 57.2203 35.1961 57.2778 35.3574 57.3337C35.4071 57.3834 35.4567 57.433 35.5063 57.4827C35.556 57.5324 35.6041 57.5821 35.6537 57.6318C35.7126 57.7203 35.8042 57.7343 35.8042 58.0774C35.8042 58.1752 35.8057 58.2746 35.8073 58.3724L35.7964 58.3848C34.8517 59.054 33.8699 58.7963 32.8926 58.4888C32.7251 58.4361 32.6258 58.2715 32.6646 58.0696H32.6662C32.7717 58.0044 32.7329 57.8554 32.829 57.7839H32.8275Z" fill="#E7F1FC"/>
    <path d="M58.3004 135.306C58.744 134.833 59.4203 134.993 59.9337 134.707C60.2207 134.407 60.5868 134.282 60.9823 134.195C63.7511 133.586 66.4067 132.637 69.0328 131.582C70.798 130.872 71.6248 129.445 72.2002 127.778C72.3569 127.512 72.5508 127.349 72.8719 127.529C73.2302 128.42 72.9603 129.318 72.8859 130.209C72.8114 131.113 72.6718 132.01 72.5617 132.887C71.6946 133.378 70.7329 133.285 69.8999 133.64C68.9676 133.761 68.0742 134.027 67.1993 134.362C65.8111 134.712 64.4212 135.061 63.0329 135.409C62.8344 135.459 62.6358 135.508 62.4357 135.556C62.2372 135.606 62.0402 135.657 61.8417 135.707C60.9482 135.906 60.0547 136.104 59.1628 136.303C58.9301 136.254 58.6975 136.204 58.4632 136.154C58.409 135.872 58.3531 135.587 58.2988 135.305L58.3004 135.306Z" fill="#8AA0BC"/>
    <path d="M32.6637 58.071C33.402 58.5958 34.2412 58.5508 35.0804 58.4871C35.3208 58.4685 35.5581 58.4204 35.7955 58.3846C35.8467 58.4825 35.8963 58.5803 35.9475 58.6781C36.3198 59.1299 36.7479 59.5507 36.8534 60.1655C36.9976 60.7618 37.0907 61.3658 37.2241 61.9635C37.5095 63.2445 38.1439 64.2599 39.3073 64.8965C40.4396 65.516 41.6371 66.0517 42.0202 67.3435C42.2715 67.3994 42.3661 67.3419 42.4049 67.255C43.0424 65.856 44.2182 64.9617 45.439 64.1652C47.2585 62.9774 48.3427 61.3689 48.6421 59.22C48.6995 58.8039 48.822 58.3955 48.8841 57.9794C49.3215 55.0433 51.2837 53.5512 53.8974 52.6988C54.3162 52.5622 54.7412 52.4147 55.1833 52.3401C57.1672 52.3992 59.1062 52.0265 61.0606 51.7827C62.483 51.6042 63.8651 51.8231 65.0548 52.7361C65.1541 52.8106 65.2472 52.8929 65.3403 52.9752C65.4628 53.0854 65.6163 53.1568 65.7296 53.2811C65.818 53.3758 65.8754 53.486 65.9111 53.6102C65.984 54.3322 65.728 55.0325 65.7761 55.7529C65.4768 57.0463 65.3666 58.366 65.2611 59.6842C65.2193 60.2013 65.044 60.6935 65.0331 61.2136C65.0285 61.4216 64.9152 61.5847 64.712 61.6701C63.0988 61.9697 61.4608 61.9977 59.9686 61.3192C55.3493 59.22 52.1043 61.2043 50.0909 65.0036C49.1074 66.8591 47.958 68.4692 46.002 69.4504C44.8635 70.0218 44.0786 71.0683 43.4892 72.2173C42.8268 73.5107 42.0823 74.7838 40.4055 74.7341C38.5813 74.6814 36.7991 74.3988 35.5597 72.7809C34.5995 71.5279 34.145 70.1678 34.2831 68.5701C34.4336 66.842 34.0008 65.2241 33.0344 63.7693C32.2247 62.552 32.2744 61.6794 33.2299 60.577C33.6843 60.0522 34.2738 59.6889 34.9346 59.1874C33.8565 58.998 32.9134 59.7463 31.9657 59.2619C31.9362 58.6641 32.2713 58.352 32.6621 58.071H32.6637Z" fill="#CCDCEE"/>
    <path d="M55.0203 52.5594C53.6786 53.0376 52.3151 53.4025 51.1611 54.3604C49.8938 55.4131 49.2981 56.7127 49.0453 58.2856C48.7413 60.1689 48.4202 62.0756 46.8023 63.386C46.2269 63.8518 45.6188 64.2742 45.0294 64.7229C43.9063 65.5769 42.8081 66.4541 42.439 67.8872C41.8743 67.881 41.834 67.4602 41.7006 67.1776C41.3671 66.4758 40.894 65.9277 40.1712 65.6327C37.711 64.6297 36.7493 62.7231 36.8533 60.1643C36.8967 60.1643 36.8284 60.1627 36.8719 60.1627C37.3636 62.8411 38.1609 63.768 41.0724 65.6514C42.0093 63.7897 43.6907 62.5445 44.941 60.9344C45.0914 60.7419 45.2016 60.5183 45.3303 60.3102C45.262 59.9764 45.3908 59.683 45.5102 59.3864C45.9601 58.2669 46.154 57.0652 46.6084 55.9473C47.4073 54.1136 48.6746 52.8373 50.7205 52.4895C50.8307 52.4631 50.9346 52.4181 51.0447 52.3932C51.4232 52.3327 51.7831 52.2007 52.1554 52.1106C52.9651 51.915 53.7624 52.1044 54.5612 52.1991C54.7675 52.224 55.0188 52.2504 55.0234 52.5609L55.0203 52.5594Z" fill="#E7F1FC"/>
    <path d="M81.2284 13.3604C81.3028 15.8742 81.2485 18.4159 80.3101 20.7573C78.8225 24.4697 76.3996 27.4508 72.7126 29.2426C72.5357 29.328 72.3713 29.4367 72.2193 29.5236C71.7167 33.0916 71.6206 33.2158 69.801 32.6398C69.5358 32.6755 69.4784 33.0761 69.162 33.059C68.889 33.1692 68.678 33.028 68.4919 32.868C67.7551 32.2361 67.1145 31.5312 66.8818 30.5453C66.8694 30.4335 66.8709 30.3217 66.8818 30.2083C66.8988 30.0981 66.9392 29.9972 67.0136 29.9118C67.3549 29.7223 67.5271 30.1229 67.8419 30.1431C68.0514 29.7736 67.5441 29.4165 67.7954 29.05C68.0188 28.8187 68.3181 29.1416 68.5524 28.9491C68.5198 28.6401 68.2003 28.5485 68.0886 28.3079C68.0358 28.1386 68.1118 28.0362 68.2607 27.9678C70.3858 27.7163 72.0363 26.5239 73.5207 25.1327C76.0941 22.723 77.1504 19.5291 77.7833 16.1769C78.0532 14.7469 78.0547 13.2859 77.9601 11.8311C78.0594 11.8543 78.1602 11.8776 78.2595 11.9009C78.3494 11.9475 78.4549 11.9444 78.5464 11.9879C78.8318 12.0608 79.1173 12.1323 79.4027 12.2052C79.7967 12.4071 80.1922 12.6074 80.5862 12.8092C80.7351 12.907 80.8856 13.0049 81.0345 13.1042C81.0996 13.1896 81.1632 13.2735 81.2284 13.3589V13.3604Z" fill="#AF6A1D"/>
    <path d="M70.5241 75.0569C70.3566 72.3211 70.2356 69.5745 69.0846 67.0172C68.9435 66.7052 68.7294 66.4257 68.5495 66.1322C68.171 65.9102 68.2315 65.5671 68.2842 65.2162C68.3556 64.7519 68.6038 64.3343 68.6364 63.8607C69.0024 62.173 69.5903 60.5473 70.0572 58.8875C70.2713 58.1283 70.4714 57.3659 70.6141 56.5896C70.7832 56.1486 70.7102 55.6114 71.1306 55.2683C71.188 55.1394 71.2469 55.0105 71.3307 54.8242C71.596 54.8755 71.8752 54.9298 72.1544 54.9857C72.5577 55.2621 72.3328 55.6176 72.2397 55.9219C71.7728 57.4373 71.4114 58.9776 71.0205 60.5132C70.6218 62.0751 70.6715 63.5408 71.3912 64.9895C71.6456 65.5019 71.8953 66.0484 71.3369 66.5499C71.1725 66.6943 70.9336 66.744 70.8359 66.8961C70.7894 67.0545 70.8064 67.1539 70.8545 67.2408C72.1792 69.6102 72.3483 72.2606 72.6849 74.8644C73.0354 77.5738 72.9734 80.3142 73.2712 83.0298C73.6528 86.514 74.689 89.7233 77.0421 92.411C77.4252 92.8488 77.9107 93.2712 77.6873 93.973C77.1274 97.749 76.5007 101.517 76.0229 105.303C75.2163 111.698 74.6067 118.12 73.4791 124.472C73.3937 124.955 73.2557 125.428 73.1409 125.906C72.781 126.141 72.4119 126.219 72.0225 125.976C71.7666 125.653 71.9279 125.31 71.9868 124.98C72.4026 122.612 72.9501 120.256 73.1161 117.861C73.4325 113.282 72.8757 108.849 70.3318 104.87C69.9502 104.272 69.7346 103.632 69.6167 102.946C69.7858 99.5749 70.0122 96.2057 70.11 92.8317C70.2697 87.3229 70.7785 81.825 70.6358 76.3084C70.6249 75.8907 70.5629 75.473 70.5241 75.0554V75.0569Z" fill="#1D273D"/>
    <path d="M77.6862 93.9728C77.7002 93.2896 77.1573 92.9263 76.7834 92.4962C74.4365 89.8054 73.3864 86.5992 73.0343 83.1228C72.5783 78.6232 72.7132 74.0584 71.5592 69.6333C71.3699 68.9082 71.1326 68.2126 70.7293 67.5729C70.5401 67.2717 70.281 66.9658 70.4005 66.5311C70.6735 66.4379 70.9914 66.646 71.2427 66.4239C71.6367 66.1398 72.0059 66.2951 72.3503 66.5109C73.0141 66.9301 73.5291 67.4922 73.8874 68.1955C74.905 70.1954 75.4138 72.3473 75.6433 74.5521C76.1118 79.075 76.6206 83.5839 77.8351 87.9888C78.5828 90.7029 80.1277 92.6794 82.6825 93.861C82.9524 93.9852 83.2223 94.1172 83.4596 94.2988C83.7248 94.5022 83.9482 94.732 83.8334 95.114C83.6892 95.3639 83.4425 95.4245 83.1943 95.3966C82.2404 95.291 81.2694 95.2941 80.3511 94.9571C79.8811 94.8034 79.4762 94.4867 78.9799 94.3951C78.6153 94.1327 78.2508 93.8703 77.8661 93.5939C77.8057 93.7212 77.7467 93.8454 77.6878 93.9697L77.6862 93.9728Z" fill="#475196"/>
    <path d="M72.872 127.529C72.6487 127.569 72.4486 127.65 72.3074 127.838C72.2966 127.875 72.2842 127.914 72.2733 127.951C72.2361 128.021 72.1895 128.085 72.1337 128.141C71.4729 128.611 70.7888 128.777 70.0582 128.291C69.6627 128.083 69.1927 128.024 68.8623 127.689C68.915 126.999 68.9678 126.309 69.0205 125.619C69.0919 125.563 69.1617 125.566 69.2299 125.625C69.9016 126.695 71.0138 126.371 71.9817 126.479C72.2935 126.515 72.627 126.377 72.8922 126.65C72.886 126.944 72.8813 127.237 72.8751 127.53L72.872 127.529Z" fill="#987B67"/>
    <path d="M109.527 96.5346C109.515 96.033 109.504 95.5315 109.492 95.03C109.087 94.2133 109.143 93.3314 109.155 92.4604C109.158 92.2787 109.239 92.0676 109.501 92.0645C109.802 92.1126 110.103 92.1623 110.405 92.2104C110.615 93.2848 110.619 94.3546 110.419 95.4384C110.329 95.9244 110.129 96.2256 109.669 96.3638C109.622 96.4197 109.576 96.4771 109.531 96.5346H109.527Z" fill="#503F35"/>
    <path d="M72.8896 126.651C71.6378 126.815 70.4108 126.758 69.1699 126.297V125.618C69.8276 125.239 71.371 125.38 71.9946 125.877C72.3761 125.888 72.7577 125.899 73.1409 125.91C73.0571 126.157 72.9733 126.405 72.8911 126.652L72.8896 126.651Z" fill="#503F35"/>
    <path d="M109.518 94.9951C109.141 94.7421 108.705 94.756 108.287 94.7529C105.338 94.7343 102.392 94.8135 99.4434 94.8802C95.8758 94.961 92.3035 94.9035 88.7327 94.8973C87.5446 94.8958 86.3564 94.9423 85.1697 94.7793C84.6904 94.7141 84.1708 94.6613 83.7597 95.0526C83.5565 95.2606 83.3021 95.197 83.0664 95.1644C82.1155 95.0339 81.1662 94.8864 80.2154 94.7452C80.189 94.7405 80.1657 94.7296 80.1425 94.7141C80.1192 94.6986 79.3948 94.3104 78.9775 94.3958C79.1761 94.5123 79.8121 94.8694 79.8726 94.902C81.4191 95.8988 83.1781 96.1814 84.9526 96.3879C92.6323 97.2838 100.334 97.0462 108.032 96.7543C108.527 96.7357 109.064 96.8397 109.524 96.5323C109.642 96.0137 109.479 95.1535 109.515 94.9936L109.518 94.9951Z" fill="#1D273D"/>
    <path d="M76.1663 13.6576C76.1291 17.5113 75.051 21.0281 72.7072 24.1163C72.1271 24.8802 71.395 25.4842 70.3883 25.5851C69.1846 25.7062 68.5052 24.77 69.0155 23.6691C69.2854 23.0884 69.6778 22.5667 69.9927 22.0047C71.5361 19.258 72.8748 16.4198 72.7026 13.1747C72.5769 10.8069 72.0325 8.50587 70.5294 6.57436C69.546 5.30894 68.1934 4.53727 66.7151 3.9721C66.1443 3.75473 65.5595 3.49388 65.6852 2.73774C65.8124 1.97228 66.4592 2.02351 67.0347 2.02041C71.0413 1.99712 74.5019 4.76241 75.5474 8.80708C75.9585 10.3986 76.1927 12.0087 76.1648 13.6576H76.1663Z" fill="#FCCA95"/>
    <path d="M67.3669 27.0836C66.3695 27.0945 65.9538 26.6132 65.9445 25.9471C65.9352 25.2375 66.4052 24.7174 67.159 24.7158C67.9005 24.7158 68.3782 25.1801 68.3891 25.9238C68.3999 26.7017 67.8741 27.0402 67.3669 27.0836Z" fill="#FCCA95"/>
    <path d="M68.2622 27.9715L68.1009 28.251C67.786 28.6826 67.3315 28.6469 66.8786 28.619C66.7188 28.605 66.5699 28.5491 66.4179 28.501C66.072 28.4264 65.7137 28.3736 65.5911 27.9591C65.5337 27.8613 65.4763 27.7634 65.4189 27.6656C66.4024 27.4327 67.3424 27.5958 68.2606 27.97L68.2622 27.9715Z" fill="black"/>
    <path d="M63.5444 24.5782C61.7016 22.8035 59.9426 20.9853 59.0072 18.5306C58.8506 18.1191 58.7311 17.6067 58.1634 17.5586C57.8144 17.7263 57.8563 18.0182 57.8501 18.2837C57.816 19.7758 58.3852 21.0847 59.1453 22.3128C59.9054 23.5425 61.9234 25.533 61.9544 25.5672C62.0072 25.6231 62.1809 25.7722 62.4632 26.0377C62.4973 26.0734 63.1938 26.5081 63.4063 26.5982C63.4699 26.6215 63.5552 26.6572 63.6762 26.6727C63.988 26.7208 64.5293 26.7317 64.8225 26.3575C65.2506 25.2163 64.1121 25.1231 63.5428 24.5751L63.5444 24.5782Z" fill="#AF6A1D"/>
    <path d="M56.8032 27.0859C57.5198 27.2505 58.238 27.4088 58.9531 27.5796C60.4049 27.929 61.5528 28.7379 62.454 29.9164C62.6107 30.0779 62.8139 30.1943 62.9163 30.4055C63.2885 31.0607 63.408 31.7905 63.5414 32.5155C63.6717 33.368 63.605 34.1986 63.287 35.0045C63.1924 35.242 63.1195 35.4873 63.0528 35.7342C62.9643 35.9298 62.7549 36.0137 62.6386 36.1845C62.2353 36.6813 61.9235 37.2248 61.711 37.8318C61.6304 38.0616 61.6459 38.3939 61.2736 38.4156C61.1417 37.998 60.9385 38.2868 60.7803 38.3784C59.3936 39.1796 58.4412 39.1889 57.4841 38.4048C56.5333 37.6253 56.1393 35.9826 56.6263 34.7358C56.89 34.0635 57.1599 33.3804 57.0312 32.6568C56.7551 31.0933 55.6212 30.2362 53.8823 30.2021C52.7345 30.1788 51.6239 30.0437 50.6311 29.373C50.1549 29.0516 49.7594 28.6432 49.6105 28.1339C48.6441 24.8035 45.1308 23.698 41.9416 24.5659C40.6324 24.923 39.3419 25.3438 38.042 25.7351C39.9328 23.2167 42.3837 22.2292 45.4767 23.0226C46.7331 23.3455 47.9849 23.2027 49.2382 23.0148C49.3623 22.8658 49.5081 22.7509 49.7051 22.7167C51.4052 22.5149 52.75 23.094 53.7226 24.5225C54.3539 25.4494 55.0519 26.3111 56.1563 26.7164C56.2866 26.7769 56.3937 26.8778 56.5271 26.9306C56.6217 26.9741 56.7256 27.0036 56.7985 27.0843L56.8032 27.0859Z" fill="#483D35"/>
    <path d="M51.1469 49.1552H50.286C49.9929 48.1677 49.7059 47.2051 49.3926 46.1524C50.877 46.1524 51.7053 45.3295 52.1831 44.0672C52.2669 43.9041 52.3506 43.7411 52.4406 43.5641C53.4783 44.3296 54.2741 45.3792 55.6344 45.6555C58.1054 46.157 60.8246 44.5299 61.5086 42.1357C61.673 41.5612 61.1674 41.0177 61.5676 40.4883C62.3369 40.9618 62.8178 41.7133 63.384 42.3825C63.4584 42.471 63.5003 42.5782 63.4988 42.5704C63.4708 42.4508 63.4646 42.1124 63.4786 41.9944C63.5344 41.8189 63.5391 41.8903 63.7966 41.9509C63.8819 42.0332 63.8819 42.2319 63.9083 42.3468C63.916 42.6185 64.0541 42.8017 64.1735 43.0502C64.7195 44.3094 65.1755 45.5841 64.8436 46.9924C64.749 47.2486 64.7583 47.5032 64.8482 47.7578C64.8746 47.8665 64.887 47.9768 64.8901 48.0885C64.887 48.236 64.8638 48.3773 64.7785 48.5016C64.7335 48.5543 64.6745 48.5838 64.6047 48.5901C64.4108 48.5683 64.3922 48.2671 64.158 48.3121C63.1063 49.3431 61.8592 49.8213 60.3856 49.6692C59.655 49.5931 59.1772 49.8927 58.7041 50.4858C57.7254 51.7156 56.3433 52.1627 54.8061 51.9748C53.9049 51.8646 53.1448 51.3584 52.8082 50.4952C52.4933 49.6847 52.0606 49.1599 51.1485 49.1568L51.1469 49.1552Z" fill="black"/>
    <path d="M56.8043 27.0871C56.702 27.0716 56.6011 27.0561 56.4988 27.0421C56.4072 26.9986 56.2971 27.0064 56.2118 26.9427C55.1818 26.6912 54.4575 26.0235 53.9239 25.1572C52.9373 23.5548 51.577 22.7117 49.6566 22.9027C49.0222 22.4198 49.0129 21.645 48.7647 20.9836C48.7353 20.6296 48.5988 20.3004 48.5414 19.9526C48.5631 19.6654 48.4855 19.3875 48.4638 19.1049C48.4173 18.5568 48.5243 18.0165 48.5367 17.4715C48.4778 17.0461 48.7058 16.6579 48.698 16.2402C48.8811 16.0415 48.7957 15.7651 48.895 15.5415C48.9369 15.4003 48.9803 15.2605 49.0222 15.1192C49.2363 15.1363 49.0812 14.9422 49.1587 14.8801C49.2906 14.6301 49.3216 14.3398 49.4643 14.0945C49.7047 13.787 49.8459 13.4237 50.0382 13.0883C50.1608 12.9346 50.2507 12.7592 50.3547 12.593C50.6525 12.2825 50.9115 11.9378 51.2078 11.6273C51.5909 11.1072 51.9756 10.5901 52.6333 10.3867C53.4678 10.483 53.0009 11.0202 52.8768 11.3028C52.1168 13.034 51.8825 14.8444 51.8608 16.7185C51.8189 20.3144 53.2258 23.2847 55.6363 25.8528C56.0241 26.2658 56.4135 26.6757 56.8028 27.0871H56.8043Z" fill="#EA9C47"/>
    <path d="M52.479 10.2275C51.9206 10.552 51.4599 10.979 51.1156 11.5287C50.872 11.833 50.627 12.1389 50.3834 12.4432C50.3664 12.4618 50.3539 12.4789 50.3462 12.4975C50.2159 12.687 50.0856 12.8764 49.9553 13.0658C49.8017 13.3577 49.1254 14.6355 49.0541 15.0035C49.0355 15.0392 48.5298 16.5049 48.5267 16.5469C48.4755 17.9411 49.0448 15.6758 49.068 15.578L49.2092 15.1914L49.2992 14.9725C49.5225 14.606 49.6683 14.1806 50.4346 12.8174L50.6145 12.5984C50.9977 12.0566 50.9899 12.0286 51.2862 11.7243C51.7345 11.2787 52.1828 10.8331 52.631 10.389C52.5798 10.3362 52.5271 10.2834 52.4759 10.2306L52.479 10.2275Z" fill="#AF6A1D"/>
    <path d="M48.8991 20.9707C48.8324 20.7579 48.7036 20.4086 48.6695 20.213C48.5858 19.7347 48.6028 19.2503 48.6075 19.1804C48.6075 18.5827 48.609 17.9849 48.6106 17.3871C48.6602 16.9912 48.8944 15.7693 48.8944 15.541C48.8401 15.6994 48.7859 15.763 48.7331 15.9245C48.7207 15.9602 48.7005 16.0192 48.6866 16.0549C48.5004 16.5285 48.4182 16.8452 48.3577 17.3514C48.3577 17.3514 48.2243 19.0547 48.3624 20.0111C48.4182 20.5064 49.0713 22.4472 49.2388 23.0186C49.3768 22.9798 49.5164 22.9425 49.6561 22.9037C49.4032 22.2594 49.1504 21.615 48.8975 20.9722L48.8991 20.9707Z" fill="#AF6A1D"/>
    <path d="M65.0022 30.6812C64.5554 30.5787 64.709 30.234 64.7075 29.9514C64.7292 29.8754 64.7773 29.8179 64.8284 29.7605C64.8393 29.6611 64.8502 29.5617 64.861 29.4639C64.8083 29.3521 64.7447 29.4266 64.6842 29.4546H64.6873C64.6423 29.5151 64.5834 29.5617 64.5182 29.6021C64.2468 29.6999 63.9303 29.9996 63.8047 29.4437C64.5244 29.1006 64.6966 28.096 65.5885 27.9609C65.8677 28.065 66.0725 28.3538 66.4168 28.2979C66.8729 28.7062 66.6278 29.2512 66.696 29.7341C66.6604 30.5865 66.7705 31.442 66.6278 32.2913C66.5906 32.3705 66.5347 32.4326 66.4603 32.4776C66.1857 32.4807 66.1531 32.2556 66.1221 32.0739C65.9887 31.2759 65.5901 30.5383 65.6304 29.8272C65.6723 30.2045 65.5637 30.5818 65.0006 30.6796L65.0022 30.6812Z" fill="#EA9C47"/>
    <path d="M63.1013 29.915C63.0408 29.9197 62.9787 29.9259 62.9182 29.9306C62.9167 29.9306 62.9151 29.9275 62.912 29.9259C62.7585 29.9228 62.6065 29.9197 62.4529 29.9166C62.4405 30.1433 62.4901 30.328 62.7538 30.3715C63.0361 30.4755 63.1339 30.3606 63.0997 30.0874C63.1246 30.0315 63.1246 29.974 63.0997 29.915H63.1013Z" fill="black"/>
    <path d="M71.9939 125.875C71.0523 125.788 70.1108 125.701 69.1677 125.616C69.118 125.616 69.0684 125.619 69.0188 125.62L68.9939 125.577C68.4092 125.362 68.5519 124.934 68.8342 124.651C69.6097 123.873 69.7928 122.894 69.9386 121.881C70.2674 119.619 70.331 117.348 70.1449 115.071C70.0999 114.523 70.21 113.986 70.2395 113.443C70.3527 111.27 70.0937 109.148 69.4717 107.064C69.3879 106.782 69.405 106.546 69.4345 106.192C69.495 105.11 69.5539 104.029 69.6144 102.948C70.4567 104.76 71.7054 106.37 72.2979 108.303C73.5605 112.41 73.8506 116.574 72.968 120.799C72.6159 122.485 72.5166 124.221 71.9939 125.875Z" fill="#292F73"/>
    <path d="M69.4348 106.192C69.6504 106.952 69.8521 107.716 70.0863 108.47C70.4803 109.743 70.5206 111.049 70.5051 112.367C70.485 114.22 70.4865 116.072 70.502 117.924C70.516 119.564 70.3484 121.183 70.0537 122.792C69.8909 123.685 69.6225 124.526 68.7818 124.952C68.636 125.282 68.8873 125.459 69.0362 125.619C68.6779 125.677 68.5755 125.422 68.5879 125.133C68.8562 118.819 68.9074 112.495 69.4333 106.192H69.4348Z" fill="#475196"/>
    <path d="M109.5 92.065C109.145 93.0525 109.705 94.04 109.514 95.0274C108.995 95.0306 108.453 95.029 107.934 95.0383C101.059 95.1687 94.1842 95.2417 87.3095 95.1843C86.126 95.1749 84.944 95.0973 83.7605 95.0523C83.7093 94.6051 83.3556 94.4421 83.0128 94.3039C79.4716 92.8755 77.9871 89.9968 77.1619 86.4661C76.163 82.1885 75.8481 77.8333 75.2431 73.5092C74.9825 71.6475 74.542 69.7983 73.5787 68.1463C73.0607 67.2566 72.4107 66.4678 71.2427 66.4244C71.6196 66.0471 71.4676 65.6496 71.2598 65.277C70.3663 63.6684 70.3585 62.0148 70.8146 60.2603C71.2303 58.6611 71.6243 57.0587 72.1238 55.4843C72.1734 55.3306 72.1455 55.1521 72.1532 54.9844C74.7917 55.5464 77.1867 56.6302 79.3009 58.3164C79.3847 58.5105 79.6174 58.5726 79.698 58.7698C81.6727 60.6857 81.6246 63.1265 81.3795 65.572C81.1639 67.7162 80.6877 69.8278 80.4054 71.9674C79.8531 76.1595 80.5868 80.1607 82.1101 84.0517C82.3241 84.5998 82.4529 85.1945 82.8763 85.6432C84.882 89.2127 88.4217 90.1505 92.0235 90.8399C96.0286 91.6054 100.116 91.4051 104.169 91.579C105.726 91.6458 107.288 91.6085 108.849 91.6163C109.17 91.6178 109.53 91.5526 109.499 92.0634L109.5 92.065Z" fill="#292F73"/>
    <path d="M64.7111 61.6667C64.9516 59.8625 65.1904 58.0598 65.4355 56.2572C65.4619 56.0647 65.527 55.8784 65.5736 55.6905C65.8978 55.6594 65.8528 55.9079 65.8823 56.0988C65.8683 56.4761 65.9303 56.8581 65.8249 57.2307C65.8249 57.341 65.7659 57.445 65.7907 57.5537C65.7845 57.4993 65.7876 57.4496 65.8063 57.3984C65.8326 57.1841 65.9071 56.9776 65.8854 56.7603C65.8854 56.6609 65.8854 56.5615 65.8854 56.4622C65.8854 56.3271 65.8854 56.1935 65.8947 56.0585C65.935 55.8628 65.9846 55.6687 66.0172 55.4716C66.0296 55.4048 66.0467 55.3411 66.0653 55.2759C66.1537 55.0461 66.1087 54.8024 66.1351 54.5664C66.1522 54.4173 66.194 54.2807 66.3119 54.1766C66.3864 54.1487 66.4562 54.1549 66.5244 54.1968C66.602 54.2791 66.6439 54.3769 66.6578 54.4887C66.6206 54.7542 66.6423 55.0244 66.6097 55.2899C66.5803 55.3598 66.5942 55.4576 66.4872 55.4778C66.5446 55.4933 66.5772 55.4762 66.5803 55.4126C66.6315 55.2759 66.6284 55.1331 66.6315 54.9918C66.6191 54.7294 66.6997 54.4856 66.768 54.2372C66.813 54.1099 66.8719 53.9919 66.9588 53.8878C67.0037 53.8366 67.0596 53.8025 67.1232 53.7807C67.2131 53.7574 67.3031 53.7341 67.4163 53.7046C67.4629 53.6922 67.5094 53.7279 67.511 53.7761C67.5187 53.9236 67.5249 54.0555 67.5327 54.1875C67.7173 54.8132 67.3496 55.3442 67.2411 55.9218C66.6547 57.6981 66.2111 59.5085 65.9055 61.3546C65.7644 62.3312 65.8962 63.3265 65.6961 64.2953C65.6325 64.6074 65.6899 65.0437 65.1439 64.9707C64.9361 64.845 64.7297 64.7176 64.5219 64.5919C64.4738 64.5608 64.4443 64.5282 64.4195 64.477L64.418 64.4723C64.5172 63.5376 64.615 62.6029 64.7142 61.6698L64.7111 61.6667Z" fill="black"/>
    <path d="M67.06 55.8122C67.2166 55.2703 67.3733 54.7284 67.53 54.185C67.7596 53.8978 68.0434 53.8683 68.3831 53.9645C69.0873 54.1648 69.7947 54.3589 70.5082 54.525C70.9239 54.6213 71.1566 54.8247 71.1333 55.2687C71.0309 55.7128 70.9301 56.1569 70.8277 56.6025C70.5485 56.8307 70.2305 56.809 69.9079 56.7422C69.1556 56.5854 68.4033 56.4472 67.6246 56.4845C67.1934 56.5047 66.8769 56.3494 67.0615 55.8137L67.06 55.8122Z" fill="white"/>
    <path d="M65.7497 56.1749C65.7217 56.001 65.745 55.81 65.5713 55.6905C65.6023 54.9483 65.6349 54.2061 65.6659 53.4639C65.7388 51.9718 65.8133 50.4797 65.8862 48.9876C66.5252 49.2423 66.1313 49.8028 66.2491 50.2096C66.2647 50.4502 66.2119 50.6925 66.2646 50.9253C66.2507 50.7608 66.2771 50.6086 66.322 50.4564C67.0123 47.8278 67.7367 45.21 68.4766 42.5969C68.579 42.2367 68.5898 41.788 69.0645 41.6436C69.322 41.774 69.2274 41.9805 69.1793 42.1777C68.1989 45.8575 67.2171 49.5373 66.2383 53.2171C66.2073 53.3366 66.1855 53.4577 66.1592 53.5788C66.1111 53.6813 66.1282 53.7931 66.1157 53.9002C66.0754 54.3381 66.1219 54.7775 66.0801 55.2153C66.0521 55.324 66.0351 55.4343 66.0335 55.5461C66.0444 55.7386 65.9885 55.9187 65.942 56.1019C65.897 56.1749 65.8334 56.1997 65.7512 56.1749H65.7497Z" fill="black"/>
    <path d="M65.8986 55.5459L65.9033 55.2432C66.0599 54.751 65.849 54.2293 66.0243 53.7386C66.0692 53.6843 66.1142 53.6315 66.1577 53.5771C66.2104 53.6346 66.2631 53.6936 66.3159 53.751C66.3748 53.793 66.4136 53.8473 66.4338 53.9156C66.4477 54.0259 66.4105 54.1206 66.3438 54.206C66.3314 54.3426 66.319 54.4792 66.3066 54.6159C66.3143 55.0537 66.319 55.1515 66.2026 55.4031L66.1623 55.3891C66.122 55.459 66.0987 55.5397 66.032 55.5941C65.9746 55.6111 65.9296 55.5925 65.8955 55.5444L65.8986 55.5459Z" fill="#D9D9D9"/>
    <path d="M66.9658 54.3616C66.8991 54.6473 66.8169 54.7933 66.7486 55.079C66.3577 55.0433 66.6493 54.7374 66.5532 54.5852C66.5532 54.4781 66.5532 54.371 66.5501 54.2638C66.5314 54.1582 66.4989 54.0542 66.5314 53.9455C66.578 53.8399 66.6571 53.7747 66.7734 53.7561C66.8882 53.7639 67.0045 53.7716 67.1193 53.7794C67.0976 53.8244 67.0697 53.9626 67.0495 54.0076C67.0061 54.1769 67.0014 54.2467 66.9658 54.3601V54.3616Z" fill="#D9D9D9"/>
    <path d="M79.5488 58.7453C79.7566 59.0621 80.7106 60.1878 80.9247 61.1473C81.3311 62.9639 81.2938 64.7697 80.996 66.5925C80.4888 69.6994 79.8544 72.786 80.0033 75.9752C80.1491 79.0929 81.0193 82.0042 82.1811 84.8549C82.3067 85.1623 82.3626 85.6374 82.8791 85.6452C82.8543 85.597 82.7473 85.3377 82.7193 85.2259C82.2431 83.2929 82.0291 81.3427 82.0586 79.3429C82.1284 74.6523 82.8403 70.0006 82.8419 65.3084C82.8419 65.1702 82.8295 65.0336 82.8047 64.8985C82.7721 64.7262 82.7395 64.5523 82.7116 64.3799C82.4262 62.6472 81.8864 61.0246 80.6687 59.7002C80.6082 59.6179 80.4469 59.4316 80.4469 59.4316C80.4221 59.3695 79.4247 58.4255 79.3037 58.3184C79.3347 58.4488 79.4526 58.6196 79.5503 58.7453" fill="#1D273D"/>
    <path d="M46.1059 52.3931C45.7957 51.7068 45.487 51.0205 45.1768 50.3343C45.2248 50.1728 45.2279 49.9694 45.3303 49.8576C46.2129 48.8949 47.1141 47.9509 48.02 46.9883C48.8328 48.8949 47.958 51.6152 46.1059 52.3931Z" fill="#503F35"/>
    <path d="M50.6954 50.767C51.2165 50.6568 51.7377 50.4953 52.3365 50.7593C52.2372 51.2639 52.1395 51.7623 52.0418 52.2607C51.7625 52.5914 51.3841 52.5712 51.0071 52.5557C49.8856 52.6985 48.7192 52.4035 47.6287 52.9174C47.4503 53.0013 47.1215 53.1084 47.0967 52.6846C48.1499 51.7685 49.3179 51.0698 50.6954 50.767Z" fill="white"/>
    <path d="M47.097 52.6856C47.3436 52.9775 47.5452 52.6965 47.7515 52.6235C48.8312 52.24 49.9154 52.3145 51.0059 52.5567C50.9376 52.6018 50.8694 52.6483 50.8011 52.6934C49.3244 52.6313 48.0649 53.1763 46.9217 54.0659C46.2469 54.5907 45.7319 55.2397 45.3318 55.9881C45.1177 55.9788 44.9036 55.9679 44.5732 55.9524C44.899 54.7646 45.8064 54.0488 46.3912 53.1328C46.6254 52.9837 46.8612 52.8347 47.0954 52.6841L47.097 52.6856Z" fill="#D9D9D9"/>
    <path d="M46.669 38.3971C46.5263 38.5523 46.5511 38.7138 46.6535 38.8784C46.6892 40.2913 47.3438 41.3238 48.5196 42.0738C48.9477 41.7601 49.3013 41.5008 49.6566 41.2415C48.4435 40.5211 47.5175 39.4994 46.6675 38.3955L46.669 38.3971Z" fill="black"/>
    <path d="M70.0564 128.294C70.8041 128.478 71.4974 128.34 72.1458 127.941C72.1954 127.923 72.2373 127.895 72.2761 127.859L72.3071 127.842C72.0248 129.388 71.2927 130.697 69.8811 131.4C67.1108 132.781 64.1651 133.702 61.1512 134.403C60.7433 134.498 60.3384 134.608 59.9336 134.711C60.371 132.936 61.6554 132.296 63.326 132.174C64.7049 132.073 65.8187 131.441 66.7649 130.464C67.7126 129.485 68.5952 128.387 70.2922 128.627C70.1619 128.443 70.1107 128.37 70.0595 128.297L70.0564 128.294Z" fill="#CCDCEE"/>
    <path d="M65.1396 64.969C65.5771 64.9349 65.4235 64.5917 65.4592 64.3511C65.6112 63.303 65.4375 62.2286 65.7213 61.1914C66.4628 62.4428 67.8092 62.9925 68.8547 63.8899C68.8221 64.6461 68.2233 65.3261 68.5506 66.132C68.0636 66.4114 68.2063 66.9347 68.0822 67.3539C68.0279 67.5402 67.9752 67.7265 67.9085 67.9657C67.8728 68.0961 67.7115 68.1411 67.6122 68.0495C66.5869 67.107 66.0223 65.9022 65.1412 64.969H65.1396Z" fill="#B6B6B6"/>
    <path d="M70.946 35.125C70.9398 35.0132 70.9336 34.9014 70.9274 34.7881C70.8793 34.8502 70.8312 34.9123 70.7831 34.9744C70.7676 34.9744 70.7567 34.9961 70.749 35.0381C70.7443 35.0614 70.7536 35.0831 70.7738 35.1002C70.7567 35.1266 70.7474 35.1545 70.7397 35.184C70.6947 35.3579 70.6528 35.5334 70.6451 35.7135L70.6388 35.8594C70.5908 36.0085 70.5427 36.1591 70.4946 36.3081C70.4496 36.4619 70.4 36.7134 70.355 36.8655C70.355 36.8655 70.3565 36.8655 70.3581 36.8655C70.2464 37.1015 70.0835 37.5642 70.0789 37.6062C70.0758 37.6652 69.2831 40.2814 68.8985 41.4987C68.8767 41.5654 68.5944 42.053 68.6472 42.1058C68.703 42.2703 69.1265 42.0111 69.1823 42.1756C69.5205 40.9164 70.5272 37.2754 70.5148 37.2304C70.5504 37.2133 70.6575 36.701 70.6388 36.6963C70.6885 36.5193 70.8188 36.1234 70.8219 36.1001C70.8669 35.9013 70.9088 35.7104 70.9537 35.5101C70.9755 35.4619 70.9941 35.4138 71.0049 35.3657C71.0313 35.2834 71.0577 35.2011 71.084 35.1188C71.039 35.1204 70.9941 35.1219 70.9506 35.1219L70.946 35.125Z" fill="black"/>
    <path d="M32.8269 57.7842C32.7726 57.8804 32.7184 57.9767 32.6641 58.073C32.7184 57.9767 32.7726 57.8804 32.8269 57.7842Z" fill="#CCDCEE"/>
    <path d="M45.3327 55.9874C45.3017 54.7872 46.2852 54.2842 47.0328 53.7081C48.1155 52.8712 49.3378 52.2486 50.8021 52.6942C48.8259 53.0172 47.6098 54.2593 46.8063 56.0029C46.3146 55.9983 45.8229 55.9936 45.3327 55.989V55.9874Z" fill="#B6B6B6"/>
    <path d="M66.7899 28.4249C67.2273 28.3674 67.6632 28.3084 68.1006 28.251C68.5954 28.4156 68.918 28.723 69.0173 29.2416C68.5675 29.5273 68.2728 29.1049 67.8974 29.1422C67.8819 29.6282 68.4682 30.0443 68.0851 30.5831C67.5732 30.5862 67.4491 30.0521 67.0737 29.8983C66.9605 29.9962 66.8845 30.2399 66.6828 29.9977C66.6549 29.9278 66.6378 29.8564 66.6347 29.7819C66.6875 29.3285 66.4843 28.8472 66.793 28.4249H66.7899Z" fill="#EA9C47"/>
    <path d="M68.853 63.8898C68.7165 64.0265 68.6126 64.1988 68.3986 63.9488C67.668 63.0964 66.6876 62.5577 65.7647 61.9304C65.7492 61.6757 65.7337 61.4351 65.7197 61.1929C65.9446 59.3452 66.4131 57.5581 67.0584 55.8145C67.1033 56.0225 67.0863 56.3455 67.4027 56.2725C68.5863 56.0008 69.6783 56.5628 70.8246 56.6048C70.4089 59.0999 69.4689 61.4522 68.8515 63.8929L68.853 63.8898Z" fill="#D9D9D9"/>
    <path d="M72.2795 127.857C72.2351 127.886 72.1908 127.914 72.1465 127.943C72.1908 127.914 72.2351 127.886 72.2795 127.857Z" fill="#8AA0BC"/>
    <path d="M62.7559 30.3738C62.9451 30.366 63.0397 30.2449 63.1002 30.085C63.1979 30.529 63.4973 30.8458 63.7641 31.1905C63.9751 31.4637 64.3566 31.6858 64.1953 32.1252C64.0247 32.5894 63.5811 32.2106 63.3112 32.3876C63.1266 31.7168 62.9404 31.0461 62.7559 30.3753V30.3738Z" fill="#AF6A1D"/>
    <path d="M56.2119 26.9404C56.3081 26.973 56.4043 27.0072 56.4989 27.0398C56.4027 27.0056 56.3081 26.973 56.2119 26.9404Z" fill="#A46D2F"/>
    <path d="M63.7756 41.5212C63.7648 41.2448 63.2622 38.6161 63.2125 38.2839C63.2125 38.2839 63.0838 36.0465 62.8821 35.8773C62.8154 35.8524 62.7472 35.8276 62.6789 35.8027C62.651 35.8835 62.6278 35.9518 62.6045 36.0201C62.7829 36.2515 62.8325 37.3026 62.8775 37.5619C62.9287 37.9066 63.5166 42.2183 63.5259 42.4108C63.5445 42.4916 63.5817 42.5056 63.6391 42.4419C63.6872 42.2897 63.7679 42.414 63.8175 42.2618C63.8377 42.0801 63.7725 41.5227 63.7756 41.5212Z" fill="black"/>
    <path d="M64.5186 29.6022C64.5744 29.5525 64.6318 29.5028 64.6876 29.4531C64.6318 29.5028 64.5744 29.5525 64.5186 29.6022Z" fill="#EFD5B3"/>
    <path d="M66.6069 54.4832C66.6069 54.39 66.6069 54.2968 66.6053 54.2037C66.6177 54.1152 66.6301 54.0282 66.6425 53.9397C66.686 53.8792 66.731 53.8186 66.7744 53.7581C66.7325 53.7006 66.6906 53.6432 66.6488 53.5857C66.5867 53.4569 66.5216 53.4538 66.4533 53.5811C66.4083 53.6385 66.3633 53.696 66.3184 53.7534C66.3323 53.8031 66.3463 53.8528 66.3602 53.9025C66.3556 54.0049 66.3525 54.1059 66.3478 54.2083L66.4145 54.2037H66.4812C66.489 54.3139 66.4983 54.4242 66.506 54.5328C66.489 54.8698 66.4735 55.2051 66.4564 55.5421C66.4192 55.6026 66.4161 55.6616 66.4564 55.7222C66.5231 55.7532 66.5774 55.7408 66.6193 55.6803C66.6627 55.48 66.7077 55.2797 66.7511 55.0809C66.703 54.8822 66.6565 54.6835 66.6084 54.4832H66.6069Z" fill="black"/>
    <path d="M66.0191 55.5553L65.9943 55.5522C65.954 55.5476 65.9385 55.5476 65.8981 55.546C65.8873 55.6764 65.8361 55.9186 65.7942 56.0615C65.7632 56.1655 65.7461 56.2726 65.7368 56.3813C65.6903 56.962 65.5476 58.1591 65.6856 58.4945C65.8392 58.3548 65.8687 58.1467 65.8702 58.0178C65.8718 57.9092 65.8764 57.8005 65.8873 57.6918C65.9292 57.3114 66.0129 56.5444 66.0129 56.4838C66.0315 56.3332 66.2084 55.4063 66.2285 55.2852C66.1804 55.3395 66.0657 55.4979 66.016 55.5522L66.0191 55.5553Z" fill="#D9D9D9"/>
    <path d="M66.1528 50.4667C66.1699 49.397 66.1885 48.3256 66.2055 47.2558C66.2102 47.1937 66.2443 47.1627 66.3064 47.1611C66.3141 48.0617 66.3172 48.9638 66.3327 49.8643C66.3374 50.1236 66.2474 50.4062 66.477 50.6251C66.4212 50.9139 66.3669 51.2012 66.311 51.4899C65.8767 51.2074 66.1807 50.8114 66.1528 50.4652V50.4667Z" fill="#0E0A05"/>
    <path d="M66.025 53.7393C65.9831 54.2408 66.1553 54.7594 65.904 55.2438C65.9211 54.7407 65.7877 54.2252 66.025 53.7393Z" fill="#D9D9D9"/>
    <path d="M64.6634 47.7959C64.651 47.9558 64.6821 48.3797 64.6697 48.5396C64.6417 48.5396 64.6138 48.5396 64.5843 48.5396C64.5269 48.3393 64.5936 48.1002 64.3951 47.945C64.3718 48.2182 65.0761 53.0004 65.0761 53.0004C65.1459 53.0548 65.2157 53.1091 65.2839 53.1634C65.3832 53.2271 65.484 53.2892 65.5833 53.3529C65.5399 53.2287 64.8046 48.0397 64.6603 47.7975L64.6634 47.7959Z" fill="black"/>
    <path d="M65.8906 48.5379C65.8922 48.4385 66.0333 44.2992 66.0442 43.9219C66.0457 43.6237 66.1791 39.8306 66.1915 39.4486C66.1947 39.1008 66.1978 38.7546 66.2009 38.4068C66.1807 37.5932 66.2551 37.2004 66.3048 35.9722C66.3187 35.5406 66.3327 34.6602 66.3467 34.2286L66.3529 33.9383C66.3606 33.4166 66.3699 32.8933 66.3777 32.3716C66.4056 32.3918 66.4351 32.3934 66.4646 32.3747C66.477 31.5052 66.4878 30.6342 66.5002 29.7647C66.4025 29.2787 66.6259 28.7772 66.4227 28.2959C66.5468 28.3394 66.6693 28.3813 66.7934 28.4248C66.7965 28.976 66.8012 29.5272 66.8043 30.0783L66.6817 31.9912C66.6677 32.3903 66.6445 33.283 66.6445 33.283C66.6414 33.5811 66.5949 36.1135 66.5623 36.7517C66.5592 37.1166 66.5437 37.4799 66.5064 37.8448C66.4956 38.1289 66.4847 38.4146 66.4723 38.6987C66.4692 38.9968 66.3234 44.0663 66.3218 44.3644C66.3187 45.296 66.3141 46.2276 66.311 47.1607C66.2924 47.1747 66.2769 47.1933 66.2598 47.2088C66.2551 48.2646 66.2707 49.3205 66.252 50.3778C66.2381 50.4384 66.2086 50.4772 66.1667 50.4958C66.266 50.8203 66.0504 51.193 66.3156 51.4911C66.3296 51.6386 66.3374 51.7814 66.0519 51.8466C66.0519 51.3886 66.0519 50.9476 66.0519 50.5067C65.9511 50.0067 66.1962 49.4695 65.8922 48.9897C65.8922 48.8407 65.8937 48.6901 65.8953 48.541" fill="black"/>
    <path d="M70.9265 34.7873C70.9374 34.1181 70.123 34.3681 69.9462 33.907C69.591 34.6305 68.8247 35.0948 68.5439 36.0233C69.4607 35.9254 69.8671 35.0979 70.6209 34.9845C70.6318 35.1367 70.7001 35.1398 70.7109 35.292C70.773 35.2609 70.8955 34.8743 70.925 34.7889L70.9265 34.7873Z" fill="#EA9C47"/>
</svg>
