<?xml version="1.0" encoding="utf-8"?>
<svg width="128" height="146" viewBox="0 0 128 146" fill="none" xmlns="http://www.w3.org/2000/svg">
    <g clip-path="url(#clip0_1058_9749)">
        <path d="M12.3303 42.9477C11.731 46.8776 8.21297 71.6866 33.2868 77.6002C45.2197 80.4146 54.8286 82.1413 56.502 91.3431C58.1754 100.545 55.8365 102.625 53.9348 105.764C52.0331 108.904 49.6447 108.699 49.6447 108.699L33.4636 108.919C33.4636 108.919 29.8014 106.859 27.6578 102.848C25.5143 98.8371 17.5957 91.3431 8.55898 100.383C-4.20473 115.034 4.07699 140.77 43.1568 145.298C82.235 149.828 97.2826 131.159 104.338 125.866C111.395 120.571 136.786 102.964 124.86 80.4146C117.207 65.9424 113.468 68.8812 111.873 55.5801C110.278 42.2789 115.906 33.6274 103.74 23.8828C91.5759 14.1383 72.1472 32.4459 60.408 29.741C48.6687 27.0361 44.9464 18.4565 30.5769 22.0086C16.2089 25.5622 12.3273 42.9507 12.3273 42.9507L12.3303 42.9477Z" fill="#E9D2B1"/>
        <path d="M96.6179 134.704C96.5598 134.751 96.5017 134.796 96.4436 134.843C95.3564 136.582 93.3546 137.149 91.1672 136.408C90.9479 136.324 89.9957 133.526 90.0613 133.384C91.9994 133.118 94.1437 133.268 95.9731 132.621C96.1512 133.285 96.4398 134.04 96.616 134.702L96.6179 134.704Z" fill="#EDCEBB"/>
        <path d="M96.0324 132.829C94.4204 133.927 92.7147 134.4 90.7635 134.336C90.563 134.329 90.368 134.23 90.2612 134.059C90.1225 133.841 90.0662 133.553 90.0044 133.216C90.1262 132.904 90.3943 132.939 90.726 133.057C92.2967 132.522 94.0737 131.935 95.6444 131.4L96.0305 132.829H96.0324Z" fill="#C4AB9A"/>
        <path d="M95.3357 126.063C95.6243 127.476 95.913 128.886 96.2035 130.298C96.2841 130.689 96.331 131.066 95.898 131.298C95.7743 131.553 95.57 131.715 95.3057 131.807C93.958 132.28 92.5953 132.714 91.2402 133.172C91.0377 133.24 90.8297 133.242 90.6423 133.107C90.4717 132.916 90.4248 132.681 90.423 132.439C90.3761 128.293 89.1784 124.36 88.1418 120.404C86.3687 113.637 84.4999 106.895 82.6199 100.158C81.4541 95.978 79.8552 91.9625 77.7297 88.1453C76.6051 86.1254 75.398 84.184 74.0053 82.3455C73.7692 82.0332 73.518 81.7433 73.2443 81.4702C72.4327 80.6473 72.0579 79.5476 71.4224 78.6087C69.7261 76.1006 67.8967 73.7123 65.5632 71.7485C65.4901 71.7017 65.4207 71.6494 65.3513 71.5951C65.2464 71.5128 65.1508 71.4231 65.0608 71.3258C62.4667 69.1955 59.7563 67.2374 56.7442 65.728C55.3272 65.0173 54.0058 64.1308 52.5644 63.4631C51.6291 63.0292 50.6619 62.7431 49.6179 62.8104C47.8297 62.9282 46.7313 63.9513 46.5701 65.7374C46.4839 66.6856 46.4596 67.647 46.6732 68.5914C46.8194 69.448 46.8063 70.3252 47.0331 71.1706C48.0809 76.6318 48.84 82.1473 50.0546 87.5786C50.7331 90.3298 51.4922 93.0604 52.182 95.8078C52.3638 96.5373 52.5663 97.3041 51.6441 97.7417C50.6938 97.8801 49.7772 98.3626 48.7819 98.0073C48.4389 97.7567 48.3377 97.3751 48.2739 96.9917C47.05 89.6509 45.0388 82.4596 44.0885 75.0701C43.7061 72.1076 43.5505 69.1301 43.8092 66.1414C44.1297 62.4401 47.1999 60.1565 50.8137 60.9887C53.0517 61.5031 55.0554 62.6159 57.1191 63.5679C59.4658 64.6526 61.865 65.5616 64.4179 66.0254C65.132 66.1545 65.8424 66.1881 66.5603 66.0628C69.012 65.6383 70.1441 63.5136 69.117 61.2487C69.0064 61.0037 68.8658 60.7699 68.8639 60.4912C69.1657 59.99 69.5406 60.3061 69.8648 60.4295C71.3718 61.0093 72.7214 61.9127 74.1834 62.5841C75.293 63.0947 76.3502 63.7137 77.5216 64.0953C78.59 64.4432 79.6153 64.5591 80.6031 63.8708C80.7962 63.7362 81.023 63.6296 81.2704 63.7792C81.8477 64.3927 82.0089 65.2025 82.2901 65.9506C83.8983 70.2205 84.738 74.6923 85.7464 79.1193C86.0388 80.4023 86.3912 81.6685 86.6798 82.9515C87.7988 87.2307 88.6648 91.5642 89.5345 95.8976C90.1062 98.6208 90.4942 101.374 90.9234 104.121C91.6188 108.559 92.7528 112.906 93.7293 117.284C94.2635 119.678 94.7453 122.083 95.2982 124.474C95.4238 125.014 95.3226 125.534 95.3376 126.063H95.3357Z" fill="#8AA0BC"/>
        <path d="M96.617 134.704C97.8784 135.345 99.1793 135.888 100.521 136.331C102.04 136.859 103.481 137.569 104.986 138.134C106.499 138.703 108.039 139.114 109.61 139.462C110.928 139.754 112.18 140.186 113.265 141.042C113.64 141.338 113.865 141.688 114.062 142.088L114.047 142.069C114.474 142.671 114.86 143.285 114.628 144.076C114.017 144.491 113.398 144.226 112.78 144.1C108.36 143.051 104.499 140.848 100.786 138.332C99.7941 137.661 98.7388 137.087 97.706 136.481C97.0931 136.122 96.4296 135.768 96.3452 134.93C96.379 134.786 96.4389 134.672 96.617 134.702V134.704Z" fill="#475196"/>
        <path d="M105.124 81.2156C106.586 79.3902 108.41 77.9314 110.089 76.3267C110.35 76.078 110.713 76.1771 111.038 76.1696C109.066 77.8529 107.094 79.5342 105.124 81.2175V81.2156Z" fill="#B69880"/>
        <path d="M78.6465 96.799C77.9942 93.137 76.7815 89.6452 75.3926 86.2095C74.7103 84.5225 73.9606 82.8635 73.2427 81.1934C74.6709 82.5306 75.8012 84.1129 76.7815 85.7793C80.1347 91.4818 82.3896 97.6089 83.9903 104.024C85.5704 110.359 87.4523 116.618 89.1092 122.936C89.9771 126.247 90.8355 129.581 90.7249 133.058C90.5206 133.184 90.3182 133.309 90.1139 133.434H90.0464L89.9789 133.43C89.8234 133.236 89.4916 132.518 89.2273 132C88.9799 131.515 88.7831 131.007 88.6369 130.483C87.7016 127.126 86.4889 123.858 85.4055 120.55C83.6623 115.219 81.7448 109.943 80.4084 104.49C79.8123 102.062 79.3381 99.6044 78.8077 97.16C78.7065 97.0627 78.7514 96.9 78.6465 96.8046V96.799Z" fill="#CCDCEE"/>
        <path d="M32.7421 107.584C32.7965 107.519 32.849 107.453 32.9033 107.388C33.1507 107.068 33.4787 106.886 33.8705 106.787C34.4815 106.634 35.0701 106.38 35.6924 106.297C38.742 105.888 41.3755 104.5 43.919 102.886C45.0305 102.181 46.2226 101.625 47.3566 100.963C48.1026 101.006 48.6612 101.629 49.4728 101.569C50.2525 101.511 50.9404 101.423 51.4427 100.741C51.6039 100.522 51.827 100.11 52.185 100.58C52.528 102.128 52.2112 103.612 51.6826 105.052C51.2946 106.112 50.3387 106.529 49.3397 106.819C47.4897 107.356 45.5778 107.53 43.6716 107.698C40.3052 107.994 36.9257 108.063 33.5481 108.108C33.2782 108.111 33.0045 108.132 32.7833 107.932C32.7684 107.816 32.7534 107.698 32.7402 107.582L32.7421 107.584Z" fill="#292F73"/>
        <path d="M32.7826 107.934C33.2231 107.878 33.6636 107.779 34.1059 107.771C38.6625 107.687 43.221 107.621 47.7308 106.856C48.4037 106.742 49.0728 106.576 49.7251 106.374C51.8656 105.708 51.7138 103.784 51.9893 102.125C52.0849 101.547 51.9837 100.935 51.9725 100.34C52.0587 100.14 52.1655 100.026 52.353 100.252C53.1514 102.71 53.4963 105.276 54.1392 107.773C54.083 108.24 54.3585 108.712 54.0774 109.314C53.1364 109.385 52.1355 109.518 51.1346 109.523C45.3859 109.563 39.6353 109.58 33.8866 109.587C32.7433 109.587 32.7939 108.723 32.7808 107.934H32.7826Z" fill="#1D273D"/>
        <path d="M78.6494 96.8044C78.7038 96.9223 78.7563 97.042 78.8106 97.1598C78.7563 97.042 78.7038 96.9223 78.6494 96.8044Z" fill="#F4E7D4"/>
        <path d="M26.8114 24.602C27.042 23.766 27.4281 23.0048 27.906 22.2847C28.1347 21.9126 28.4777 21.6863 28.8676 21.5086C31.293 20.4107 33.1355 18.6826 34.4532 16.3784C34.6819 15.98 34.845 15.4806 35.4129 15.3965C36.7831 16.6047 37.9396 17.9214 37.7034 19.9375C37.411 21.6339 36.7118 23.16 35.7672 24.5871C35.1711 25.2959 34.4495 25.8869 33.8441 26.5883C33.1074 27.443 33.1543 27.8769 34.039 28.5988C34.8712 29.2777 35.8984 29.4928 36.8993 29.4966C39.7839 29.5022 42.5187 30.2671 45.2534 31.0115C48.0462 31.7727 50.8596 32.489 53.525 33.6542C53.6412 33.7159 53.7518 33.787 53.8567 33.8637C53.9317 33.8992 54.0048 33.9404 54.0779 33.9834C54.4228 34.2078 54.8052 34.3593 55.1838 34.5183C55.3787 34.6249 55.5362 34.7708 55.6599 34.9541C55.7349 35.0663 55.8117 35.1766 55.8867 35.2907C56.4415 35.7714 57.0188 35.5451 57.5605 35.3001C59.1931 34.5632 60.8369 33.8506 62.4976 33.1754C64.9643 32.1692 67.4778 31.3164 70.1263 30.9217C71.5846 30.7048 73.0466 30.8151 74.5086 30.8394C75.0184 30.8507 75.412 31.1275 75.7906 31.4211C77.9593 33.1081 79.7437 35.1336 81.1514 37.492C81.1945 37.5687 81.2319 37.6473 81.2676 37.7277C81.305 37.8081 81.335 37.8904 81.3613 37.9746C81.4006 38.0999 81.4175 38.2308 81.4438 38.3598C83.5037 42.7906 85.6667 47.1595 88.9431 50.8646C90.0752 52.1457 91.2411 53.41 92.5588 54.4854C94.9317 56.4212 96.45 58.9311 97.7133 61.6299C98.3862 63.0663 98.9185 64.5644 99.2653 66.1205C99.3777 66.6199 99.4715 67.1174 99.3777 67.6298C99.3196 67.8935 99.1772 68.1105 99.0029 68.3106C98.9485 68.3761 98.8867 68.4359 98.8229 68.4939C98.7911 68.5219 98.7573 68.5481 98.7255 68.5762C98.5212 68.7295 98.3075 68.8698 98.0826 68.9932C97.9195 69.0737 97.7508 69.1148 97.569 69.0924C95.1923 68.8044 93.2598 67.6878 91.7266 65.8904C89.303 63.0495 87.4342 59.8419 85.7042 56.5559C84.3528 53.988 83.1344 51.3508 81.7268 48.811C80.4916 46.5816 78.9415 44.6309 76.8328 43.1609C75.7719 42.4221 74.6173 41.9639 73.2958 42.0985C71.0316 42.3305 69.8826 43.7781 70.16 46.0355C70.4243 48.1732 71.1178 50.1614 72.205 52.0223C72.8835 53.1837 73.5414 54.3564 73.7794 55.7161C74.2761 58.5458 72.3006 60.62 69.4403 60.2366C69.0841 60.1879 68.7355 60.0963 68.3719 60.1692C67.206 59.9803 66.2257 59.3295 65.1573 58.8937C64.222 58.5103 63.3054 58.0857 62.3758 57.6874C61.506 57.1955 60.417 57.102 59.7516 56.2416C59.5961 54.5808 59.4967 52.9163 59.0338 51.2929C57.9972 47.6608 56.1959 44.4682 53.6618 41.6759C49.0658 36.613 43.3153 33.5588 36.7306 31.9223C34.6088 31.3949 32.4608 30.9909 30.3277 30.5252C27.3475 29.8744 26.191 28.0995 26.7252 25.0341C26.7496 24.8901 26.7196 24.7348 26.8133 24.6039L26.8114 24.602Z" fill="#292F73"/>
        <path d="M62.4487 57.4831C64.4261 58.321 66.4036 59.1608 68.3829 59.9986C68.4167 59.9986 68.4523 60.0005 68.486 60.0024C68.5929 60.008 68.6922 60.0304 68.784 60.0884C68.8684 60.1576 68.9227 60.2455 68.9246 60.3577C69.6481 61.3658 70.0699 62.4244 69.6969 63.7074C69.0408 65.9592 67.5357 66.7354 64.6417 66.3576C61.1516 65.9031 58.0251 64.334 54.8799 62.8639C53.4723 62.2056 52.0703 61.5229 50.5202 61.2386C47.0038 60.5934 44.2635 62.92 44.0592 66.5072C43.7237 72.4417 44.7827 78.2021 45.9579 83.9626C46.9045 88.6065 47.8342 93.2561 48.7714 97.9018C48.2747 98.5134 47.3656 98.7323 46.4771 98.4555C45.9148 98.6313 45.6018 98.506 45.5062 97.8476C45.4031 97.1313 45.1763 96.4337 45.0039 95.7267C44.9589 95.3657 37.9056 68.2709 37.6263 67.8969C37.5626 67.5995 37.5008 67.304 37.437 67.0066C36.8372 63.9468 36.0744 60.9076 36.1287 57.7599C36.1531 56.3796 36.0519 54.9377 37.2552 53.8884C37.6095 53.7743 37.8831 53.9969 38.1905 54.0979C40.9384 55.0106 43.4725 56.4975 46.3366 57.1034C47.8585 57.4251 49.3805 57.7263 50.925 57.917C52.0215 58.0517 53.1068 58.2312 54.1864 58.4912C56.6381 59.0822 59.0504 58.9793 61.3315 57.7618C61.6839 57.5729 62.0569 57.4962 62.4505 57.4794L62.4487 57.4831Z" fill="#CCDCEE"/>
        <path d="M55.6074 2.36425C56.507 2.54567 57.4049 2.72709 58.3046 2.9085C59.7816 3.12359 60.8106 3.96334 61.4723 5.25197C61.9915 6.26193 62.4413 7.3018 63.5022 7.89842C63.7084 8.01438 63.8115 8.25752 63.8602 8.50066C64.3082 9.66584 64.8293 10.8011 64.9923 12.0617C65.2829 14.3172 64.8105 16.2698 62.8631 17.6725C62.5988 17.8633 62.3326 18.069 61.9765 18.0466C61.5828 17.7548 61.8246 17.3939 61.8846 17.0666C62.0477 16.195 62.0552 15.3422 61.6278 14.5361C60.8462 13.0585 59.313 12.7462 58.0253 13.7954C57.7966 13.9825 57.6186 14.2424 57.2231 14.2724C56.2371 13.801 56.0328 12.6508 55.3487 11.8915C55.0357 11.538 54.5033 11.5586 54.1828 11.2163C54.0291 10.9956 54.2259 10.745 54.1266 10.5112C53.8473 10.2737 53.5006 10.3915 53.1838 10.3485C52.5784 10.399 51.9786 10.2924 51.4275 10.0923C49.9393 9.54989 48.4248 9.38343 46.8615 9.59477C43.2983 8.49505 40.2712 6.65468 38.275 3.39103C38.245 3.34241 38.1869 3.31436 38.1288 3.29378C37.9808 2.39792 37.9939 1.50953 38.3631 0.6679C38.6162 0.0899816 39.1504 -0.257891 39.6396 0.235864C41.9769 2.59803 44.9103 2.58868 47.9074 2.48956C50.4716 2.4054 53.0395 2.40353 55.6036 2.36612L55.6074 2.36425Z" fill="#513710"/>
        <path d="M26.8119 24.6025C26.8325 25.1692 26.7875 25.7472 26.8869 26.3008C27.5354 29.9609 27.9084 29.7851 31.8146 30.5313C38.3168 31.7732 44.566 33.6005 49.8686 37.7563C54.815 41.6334 58.3782 46.455 59.6772 52.7242C59.9189 53.8912 60.0164 55.0863 59.9077 56.2852C59.7221 56.4273 59.5122 56.4254 59.3098 56.3562C58.3445 56.0233 57.4635 55.5109 56.5526 55.062C56.397 54.9853 56.2714 54.8338 56.3333 54.6206C55.5254 45.662 48.4478 36.0468 37.852 34.169C35.8483 33.8137 33.8258 33.5612 31.8127 33.2489C30.8343 33.0974 29.8971 32.7963 28.9449 32.5307C26.2327 31.7732 25.7923 30.0339 25.8991 27.8494C25.9553 26.7047 26.2852 25.6237 26.8138 24.6044L26.8119 24.6025Z" fill="#475196"/>
        <path d="M56.3288 54.6185C57.4872 55.2432 58.6268 55.9128 59.9032 56.285C60.7523 56.6852 61.5996 57.0836 62.4486 57.4838C60.1507 59.0287 57.5922 59.5262 54.9362 58.937C51.7066 58.2207 48.3609 58.1272 45.1988 57.1191C42.4716 56.2494 39.8231 55.1591 37.2515 53.891C38.4998 52.2115 40.3517 51.8 42.2467 51.7701C46.8295 51.6972 51.2268 52.694 55.4779 54.3717C55.7515 54.4801 56.0439 54.5381 56.3269 54.6204L56.3288 54.6185Z" fill="#E7F1FC"/>
        <path d="M53.4521 10.1023C53.8588 10.1191 54.3256 9.87035 54.6348 10.3417C54.7061 10.7382 54.3331 10.8897 54.215 11.1721C54.2037 11.2207 54.1925 11.2693 54.1812 11.3179C54.14 11.4096 54.0838 11.49 54.0125 11.5592C53.8832 11.6845 53.7389 11.8117 53.5702 11.8585C50.9854 12.5804 48.6106 14.0878 45.7934 13.9401C45.4073 13.9719 45.0137 13.9925 44.665 14.1757C43.6904 14.6826 42.6613 14.922 41.5648 14.8603C41.4074 14.8509 41.2781 14.9257 41.1487 14.9968C40.5358 15.0884 39.9248 15.1857 39.3943 15.5448C39.205 15.5504 39.0626 15.4606 38.9445 15.3241C38.5658 14.6433 38.3166 13.9027 37.9792 13.2013C37.8311 12.7132 37.4356 12.2811 37.6343 11.7126C38.2809 11.0505 39.1619 10.8223 39.9679 10.4539C40.3934 10.611 40.742 10.3641 41.1112 10.2313C42.4289 10.106 43.7466 10.149 45.0549 10.3173C46.4026 10.4913 47.7409 10.5324 49.0811 10.3061C50.5318 10.0611 52.0013 10.2481 53.454 10.1023H53.4521Z" fill="#EDCEBB"/>
        <path d="M38.1338 3.29165C38.1994 3.20562 38.2106 2.90263 38.3887 3.18692C40.3268 6.31403 43.3089 8.0534 46.6172 9.36073C46.5366 9.6207 46.3323 9.74975 46.0905 9.79277C44.4992 10.0808 42.8947 10.2585 41.2752 10.2491C41.1178 10.2491 40.9885 10.178 40.891 10.0509C39.3428 8.0534 38.1863 5.89696 38.1357 3.28978L38.1338 3.29165Z" fill="#2D200A"/>
        <path d="M35.2927 15.4507C33.7163 18.6826 31.229 20.9344 27.9058 22.2848C29.4802 19.311 31.6451 16.8179 34.1868 14.6372C34.3367 14.51 34.5542 14.4614 34.7416 14.3772C34.8728 14.394 34.9759 14.4614 35.0621 14.5586C35.2027 14.7662 35.3639 14.9626 35.3883 15.2263C35.3826 15.3123 35.3508 15.3872 35.2927 15.4507Z" fill="#475196"/>
        <path d="M40.8879 10.0537C42.826 10.0574 44.7192 9.69834 46.616 9.36169C48.3292 9.00821 49.9749 9.24012 51.6075 9.84048C52.1773 10.05 52.8352 10.0219 53.4519 10.1042C50.8427 10.4726 48.2467 10.9683 45.5851 10.6877C44.0163 10.5231 42.4418 10.3529 40.858 10.4521C40.6705 10.525 40.6443 10.4371 40.6874 10.2819C40.7549 10.2071 40.8223 10.1322 40.8898 10.0574L40.8879 10.0537Z" fill="#C4AB9A"/>
        <path d="M34.8883 14.5906C34.8396 14.5196 34.7908 14.4485 34.7402 14.3793C34.9277 12.7615 35.788 11.4411 36.4328 9.98975C37.3456 10.4124 37.2275 11.226 37.6305 11.716C37.8048 12.1892 37.9791 12.6643 38.1535 13.1374C37.5837 14.1979 36.5565 14.5701 35.4956 14.8824C35.2294 14.961 35.0533 14.7646 34.8864 14.5925L34.8883 14.5906Z" fill="white"/>
        <path d="M40.6845 10.2769C40.7408 10.333 40.7989 10.3909 40.8551 10.4471C40.5589 10.6958 40.2628 10.7033 39.9629 10.4545C40.2028 10.3947 40.4427 10.3367 40.6845 10.2769Z" fill="#EDCEBB"/>
        <path d="M94.8391 71.4842C91.5439 69.5241 89.2347 66.5766 86.9199 63.6327C84.4082 60.4402 82.5563 56.8492 80.637 53.2957C79.1131 50.4734 77.4524 47.7353 75.1769 45.433C74.5378 44.7877 73.8855 44.1163 72.8977 43.9442C72.4985 44.5708 72.9258 45.029 73.1582 45.4592C74.3972 47.7521 75.8629 49.903 77.3493 52.0407C79.0925 54.545 80.92 57.0063 81.621 60.0624C81.9172 61.3547 81.9434 62.6134 81.1449 63.7674C80.1234 64.8578 78.8882 64.854 77.5893 64.4295C75.5312 63.7543 73.6812 62.6359 71.7656 61.6596C70.8359 61.1864 69.9343 60.6571 68.924 60.3579C68.8622 60.298 68.8003 60.2363 68.7366 60.1764C68.6447 60.0698 68.4817 60.1035 68.388 60.0006L68.3823 59.9988C69.2464 59.8192 70.1161 60.0736 71.0027 59.8678C72.4385 59.5368 73.5687 58.3136 73.5987 56.8006C73.6324 55.1098 72.8771 53.6697 72.0392 52.2913C70.8546 50.3425 70.1161 48.2459 69.8575 46.0016C69.7113 44.7316 69.8575 43.4411 71.0364 42.6219C72.5266 41.5877 74.1685 41.4586 75.7861 42.2516C78.5808 43.6207 80.4402 45.9398 81.9172 48.5938C84.3838 53.0301 86.3294 57.7526 89.1841 61.9757C90.8148 64.3883 92.3237 66.9637 95.2084 68.1626C96.0256 68.5029 96.8934 68.718 97.7369 68.9911C97.8137 69.2249 97.6994 69.41 97.5438 69.5503C96.8109 70.2105 96.0256 70.8071 95.2646 71.4356C95.1465 71.5328 94.9928 71.5534 94.8428 71.4842H94.8391Z" fill="#1D273D"/>
        <path d="M46.4766 98.4573C47.2413 98.2721 48.006 98.0888 48.7708 97.9037C49.7267 97.7784 50.6845 97.6512 51.6405 97.5259C51.7004 97.9411 51.7604 98.3563 51.8204 98.7715C51.663 99.183 51.3743 99.4728 50.9713 99.63C49.6799 100.133 48.3959 100.733 46.9826 100.03C46.814 99.5065 46.6453 98.9828 46.4766 98.4573Z" fill="#C4AB9A"/>
        <path d="M91.4402 136.104C93.4233 136.928 95.0109 136.188 96.4429 134.839C96.8534 135.937 97.918 136.244 98.7971 136.783C101.058 138.167 103.311 139.564 105.571 140.948C107.65 142.22 109.925 143.009 112.257 143.665C112.394 143.705 112.519 143.787 112.651 143.849C112.27 144.253 111.764 144.168 111.299 144.157C107.916 144.077 104.555 143.721 101.193 143.375C99.5244 143.203 97.8731 142.908 96.2105 142.695C94.3136 142.451 92.9978 141.533 92.3455 139.687C92.0175 138.756 91.6989 137.824 91.4252 136.878C91.3521 136.622 91.2584 136.358 91.4402 136.106V136.104Z" fill="#292F73"/>
        <path d="M91.4389 136.105C91.9207 137.451 92.3911 138.802 92.8878 140.141C93.4352 141.616 94.6685 142.166 96.0949 142.368C101.587 143.148 107.088 143.821 112.647 143.848C113.311 143.906 113.975 143.963 114.638 144.023L114.653 144.035C115.348 145.016 114.994 145.834 113.78 145.942C111.984 146.101 110.196 145.899 108.411 145.723C106.033 145.49 103.654 145.248 101.261 145.267C98.9252 145.286 96.6028 145.104 94.2842 144.874C92.7866 144.727 92.4736 144.366 92.513 142.95C91.9975 141.094 91.7651 139.166 91.0978 137.348C91.0416 136.894 90.9835 136.441 90.9272 135.987C91.1128 135.961 91.3077 135.889 91.4371 136.103L91.4389 136.105Z" fill="#1D273D"/>
        <path d="M46.9819 100.03C48.7288 100.126 50.3858 99.8771 51.8197 98.7717C51.9978 99.2655 52.1777 99.7574 52.3558 100.251C52.2152 100.219 52.0577 100.12 51.9753 100.339C51.4017 102.127 48.9407 102.486 47.3718 101.083C47.2537 101.035 47.1075 101.085 47.0025 100.988C46.9951 100.668 46.9894 100.348 46.9819 100.029V100.03Z" fill="#EDCEBB"/>
        <path d="M47.0018 100.989C47.1255 101.021 47.2492 101.053 47.371 101.085C45.0374 102.708 42.5764 104.158 40.0366 105.384C38.2185 106.263 36.0911 106.503 34.1023 107.032C33.6994 107.139 33.3001 107.268 32.9009 107.388C33.4969 105.551 35.0002 104.889 36.6965 104.522C40.2728 103.75 43.5492 102.113 47.0018 100.989Z" fill="#475196"/>
        <path d="M35.8154 24.6075C39.6935 25.7596 43.5716 26.9155 47.4515 28.062C47.9351 28.2041 48.4299 28.3014 48.921 28.4192C49.5658 28.4117 50.0363 28.7053 50.4186 29.2159C51.4777 30.6299 52.711 31.896 53.8694 33.2258C53.9818 33.353 54.0793 33.4914 54.158 33.641C54.1974 33.7158 54.2236 33.7963 54.2442 33.8785C54.2461 33.9197 54.248 33.9627 54.2499 34.0039C54.2086 34.1292 54.158 34.2395 53.9931 34.1497C53.9331 34.146 53.8731 34.1404 53.8131 34.1367C53.7513 34.0843 53.6913 34.0282 53.6332 33.9702C48.8179 32.1822 43.9071 30.7271 38.8332 29.8967C37.6092 29.6966 36.3271 29.878 35.1163 29.4796C34.807 29.3768 34.4884 29.2758 34.2091 29.1131C32.6646 28.2097 32.5634 27.4504 33.823 26.1805C34.4096 25.5876 35.0282 25.0265 35.6317 24.4504L35.6411 24.4691C35.6973 24.5196 35.7554 24.5664 35.8154 24.6113V24.6075Z" fill="#1D273D"/>
        <path d="M81.3759 38.256C82.105 39.3819 82.8491 40.4984 83.5633 41.6356C85.492 44.7028 88.0299 47.2221 90.6709 49.6628C94.5677 53.2631 97.3099 57.6396 99.0231 62.6351C99.5404 64.1426 100.02 65.7061 99.8703 67.3557C99.7766 67.7148 99.5779 67.9056 99.1843 67.7728C98.8975 64.4811 97.5667 61.5709 95.8798 58.7936C94.9613 57.2824 93.8386 55.9732 92.4759 54.8024C87.2427 50.3025 83.7769 44.5682 81.1641 38.2672C81.1978 38.2354 81.2315 38.2017 81.2653 38.1699C81.3028 38.198 81.3384 38.2279 81.3759 38.256Z" fill="#475196"/>
        <path d="M65.3264 29.2807C67.45 29.1404 69.57 29.0955 71.6449 29.6697C72.7395 29.9727 73.8042 30.3617 74.7132 31.0743C68.9758 30.6198 63.9019 32.8043 58.8411 35.0468C58.2413 35.3124 57.6565 35.6191 57.0398 35.836C56.4156 36.0549 55.8533 35.967 55.5928 35.2338C55.6153 35.1983 55.6359 35.1627 55.6584 35.1253C55.8196 34.9832 56.0164 34.9046 56.2057 34.8093C58.9179 33.3392 61.4746 31.6298 63.9843 29.8418C64.3798 29.5594 64.736 29.1236 65.3264 29.2788V29.2807Z" fill="#475196"/>
        <path d="M94.8389 71.4841C95.8042 70.6537 96.7695 69.8233 97.7348 68.9911C97.8454 68.9275 97.9578 68.8639 98.0684 68.8003C98.8107 69.7747 98.9644 70.981 99.3617 72.0901C99.2643 73.1244 98.3946 73.5302 97.7254 74.1025C97.5286 74.3045 97.2156 74.1961 97.0075 74.3719C96.687 74.7646 96.3327 75.1069 95.7498 75.2397C95.2231 74.0296 95.478 72.6419 94.8389 71.486V71.4841Z" fill="#B6B6B6"/>
        <path d="M54.0158 33.7308C53.9483 33.6298 53.8789 33.5288 53.8115 33.4278C53.8996 32.4627 53.834 31.5238 53.4122 30.628C53.0205 29.7976 52.2557 29.1916 51.939 28.3443C52.1489 28.0638 52.297 28.2359 52.5463 28.2003C52.6681 28.2153 52.7899 28.2284 52.9099 28.2434C53.4666 28.2321 53.8396 28.5127 54.1564 28.9522C55.0448 30.1866 56.1282 31.2713 56.9848 32.5338C56.8498 33.5381 56.2556 34.3049 55.6596 35.0699C55.5696 35.1204 55.4984 35.0998 55.4422 35.0157C55.3241 34.9034 55.206 34.7931 55.0879 34.6809C54.7768 34.4546 54.4038 34.3012 54.2163 33.9328C54.2163 33.9328 54.0814 33.8205 54.0139 33.7326L54.0158 33.7308Z" fill="#B6B6B6"/>
        <path d="M39.3889 15.4843C39.7225 16.3914 40.2623 17.2255 40.4029 18.2747C39.4714 18.6899 38.5904 17.9774 37.7151 18.2074C37.4714 18.7947 37.8069 19.4306 37.462 19.9673C37.7675 17.9699 36.3074 16.8159 35.2915 15.4506C35.2915 15.3945 35.2953 15.3403 35.3065 15.286C36.5492 14.7156 37.7994 14.8203 39.0552 15.2355C39.1658 15.3178 39.2764 15.402 39.3889 15.4843Z" fill="#B6B6B6"/>
        <path d="M99.1844 67.7738C99.413 67.6354 99.6417 67.4951 99.8704 67.3567C100.988 67.3922 101.913 68.0169 102.796 68.5368C103.709 69.0755 102.635 69.4327 102.384 69.8535C102.249 70.4464 101.76 70.6185 101.269 70.7905C99.8029 70.6858 98.652 69.6646 98.5864 68.4134V68.4171C98.6801 68.3872 98.7345 68.3143 98.7832 68.2339C98.9182 68.0805 99.0513 67.9253 99.1862 67.7719L99.1844 67.7738Z" fill="white"/>
        <path d="M98.5872 68.4167C99.1682 69.5558 99.9292 70.4703 101.316 70.6106C101.007 71.4859 100.014 72.2415 99.2057 72.2116C98.7615 71.0969 98.2685 69.999 98.0698 68.802C98.2423 68.673 98.4147 68.5458 98.5872 68.4167Z" fill="#D9D9D9"/>
        <path d="M54.2181 33.9316C54.5405 34.1748 54.7898 34.3824 55.0897 34.6798C54.6679 34.6162 54.3024 34.4422 53.9932 34.1486C54.0681 34.0757 54.1431 34.0046 54.2181 33.9316Z" fill="#1D273D"/>
        <path d="M81.3764 38.2567C81.307 38.2604 81.2358 38.2641 81.1664 38.2679C81.1627 38.1538 81.1571 38.0416 81.1533 37.9275C81.2283 38.0378 81.3033 38.1482 81.3782 38.2567H81.3764Z" fill="#2F3996"/>
        <path d="M55.4438 35.0137C55.5001 35.023 55.5563 35.0286 55.6144 35.0286C55.6763 35.0604 55.6931 35.1072 55.665 35.1689C55.6425 35.1913 55.6182 35.2138 55.5957 35.2362C55.5451 35.1633 55.4945 35.0885 55.4457 35.0155L55.4438 35.0137Z" fill="#2F3996"/>
        <path d="M53.6328 33.9685C53.6931 34.0249 53.7535 34.0795 53.8138 34.1359C53.7535 34.0795 53.6931 34.0249 53.6328 33.9685Z" fill="#2C3453"/>
        <path d="M98.7863 68.2349C98.7203 68.2969 98.6524 68.3571 98.5864 68.4192C98.6524 68.3571 98.7203 68.2969 98.7863 68.2349Z" fill="#E2E1E1"/>
        <path d="M68.3887 60.0037C68.5049 60.0616 68.6211 60.1215 68.7373 60.1795C68.6211 60.1215 68.5049 60.0616 68.3887 60.0037Z" fill="#292F73"/>
        <path d="M56.8428 32.5474C55.7482 31.5299 54.9047 30.2993 53.975 29.1434C53.6657 28.76 53.3377 28.457 52.9085 28.2438C53.2571 28.1971 53.2796 27.9352 53.2927 27.6659C53.6245 27.2189 54.1287 26.9945 54.5654 26.6859C56.2749 25.4796 57.615 22.9846 57.5326 20.8974C56.0237 22.3917 54.5017 23.6485 52.9047 24.8119C51.7726 25.0887 50.7792 25.7152 49.7052 26.1398C47.4803 27.0169 46.127 25.5562 45.6978 23.8393C45.1261 21.552 45.1729 19.2403 45.351 16.9174C45.9039 16.6593 46.3838 16.9922 46.8899 17.1119C47.3135 17.211 47.694 17.5159 48.2038 17.3831C48.6911 16.7752 48.26 16.3619 47.8533 15.9729C47.3978 15.5371 46.7605 15.3744 46.2638 15.0003C45.9264 14.7479 45.4672 14.5159 45.8159 13.9567C45.8983 13.9212 45.9827 13.9025 46.0726 13.9025C46.2488 13.9324 46.4269 13.9605 46.605 13.9773C48.2956 14.5533 49.9001 14.2373 51.4858 13.549C52.6629 13.0384 53.8906 12.6326 54.9497 11.8788C55.0959 11.7741 55.2683 11.7143 55.4576 11.7479C56.1137 11.8003 55.9562 12.4624 56.2336 12.8028C56.5879 13.2385 56.8334 13.7641 57.302 14.1082C58.6759 12.7766 59.5513 12.5316 60.6946 13.1525C61.9261 13.8221 62.5784 15.4922 62.2072 17.052C62.1323 17.37 62.0104 17.6767 61.9092 17.9872C61.883 18.7334 61.2794 18.9223 60.749 19.173C60.3722 19.3506 59.9261 19.3057 59.435 19.5844C59.5325 20.5775 59.4894 21.6324 59.5812 22.691C59.6731 23.7514 59.8774 24.7969 59.973 25.8573C59.4088 26.5157 59.8024 27.1983 59.9261 27.8716C60.1042 28.2233 59.9111 28.515 59.7387 28.7787C58.9608 29.9664 58.108 31.1035 57.3451 32.3005C57.2402 32.4651 57.1071 32.6596 56.8447 32.5492L56.8428 32.5474Z" fill="#EDCEBB"/>
        <path d="M59.9741 25.8531C59.7623 25.653 59.5617 25.4772 59.5355 25.1293C59.3818 23.1431 59.1962 21.1606 59.0088 19.0359C60.2084 19.1874 61.2112 18.9443 61.9103 17.983C65.4922 16.0136 65.1755 12.5386 64.0115 9.58539C63.8709 9.23191 63.4211 8.94576 63.7003 8.4707L63.7135 8.4838C63.7716 8.53616 63.8259 8.5904 63.8803 8.64651L63.8953 8.66147C63.9534 8.71384 64.0059 8.76995 64.0546 8.8298L64.0696 8.84663C64.1314 8.89339 64.1821 8.9495 64.2233 9.01496L64.2439 9.04114C64.3076 9.06919 64.3508 9.11782 64.3732 9.18328C67.9308 12.8453 67.9552 16.9955 64.4407 21.4037C64.1802 21.731 63.8878 22.0378 63.6479 22.38C62.8288 23.5508 62.9131 24.3438 63.9421 25.3538C64.1183 25.5258 64.2814 25.696 64.2158 26.158C62.7969 26.8388 61.3836 26.4498 59.976 25.8531H59.9741Z" fill="#2C1F09"/>
        <path d="M55.4602 11.7446C52.7198 13.5195 49.9626 15.2364 46.4519 14.2059C46.3432 14.1124 46.1839 14.1442 46.0733 14.0581C46.0339 14.0226 45.9871 14.0058 45.9346 14.0095C45.7884 13.959 45.6066 13.9291 45.7753 13.7121C48.7368 13.6897 51.2803 12.2253 53.9925 11.3387C54.0488 11.2826 54.1106 11.2359 54.1818 11.1985L54.2137 11.176C54.6542 11.3107 55.239 11.133 55.4602 11.7465V11.7446Z" fill="#2E210B"/>
        <path d="M45.7742 13.71C45.8267 13.8092 45.8811 13.9083 45.9336 14.0074C45.7592 14.7293 46.4209 14.7798 46.7939 15.0043C47.3787 15.3596 48.0554 15.5747 48.464 16.1751C48.7451 16.5884 48.9401 17.0354 48.6008 17.5011C48.2447 17.9892 47.8248 17.7424 47.3937 17.5815C46.7227 17.3328 46.0329 17.1345 45.3506 16.9157C43.793 16.5136 42.3516 15.8571 41.0377 14.9257C40.9702 14.7256 40.9815 14.561 41.2495 14.5816C42.5559 14.6863 43.7574 14.3796 44.9064 13.7587C45.137 13.6333 45.4818 13.7194 45.7742 13.7082V13.71Z" fill="#C4AB9A"/>
        <path d="M39.0568 15.2375C37.8066 15.2544 36.5583 15.2712 35.308 15.288C35.1675 15.0561 35.0288 14.8242 34.8882 14.5923C35.9041 14.813 36.6032 14.179 37.353 13.6833C37.6229 13.5057 37.8872 13.3186 38.1552 13.1372C38.577 13.7862 38.8956 14.4782 39.0568 15.2375Z" fill="#E8EAEB"/>
        <path d="M54.1826 11.196C54.1185 11.2431 54.0563 11.2901 53.9922 11.3371C54.0563 11.2901 54.1185 11.2431 54.1826 11.196Z" fill="#513710"/>
        <path d="M115.738 97.0491C114.534 98.2947 113.262 99.4674 111.923 100.567C108.613 99.2541 106.578 94.8066 109.638 91.9619C113.732 88.154 117.754 84.2694 121.702 80.31C121.891 80.1193 122.082 79.9266 122.362 79.863C124.041 81.176 125.096 82.906 125.548 84.9596C125.687 85.5861 125.291 86.2388 124.926 86.7962C123.363 89.1827 121.58 91.3802 119.441 93.2861C118.126 94.4587 116.999 95.8222 115.736 97.0528L115.738 97.0491Z" fill="#725E4C"/>
        <path d="M122.374 79.9263C120.509 81.9406 118.562 83.8708 116.536 85.7242C115.831 86.3695 115.166 87.0559 114.476 87.7161C113.055 89.0776 111.706 90.5271 110.189 91.7764C107.207 94.2377 108.277 97.8324 110.825 99.6672C111.207 99.944 111.557 100.266 111.923 100.565C111.091 101.423 110.159 102.157 109.155 102.875C106.701 100.163 104.279 97.4883 101.858 94.8119C101.58 94.3892 101.927 94.1648 102.163 93.9366C102.478 93.6355 102.845 93.3905 103.143 93.067C103.773 92.547 104.204 91.7634 105.102 91.6025C105.644 91.5988 105.976 92.0215 106.403 92.2496C106.714 92.4161 107.04 92.5246 107.389 92.5694C108.365 92.2291 108.577 91.6867 108.069 90.832C107.805 90.3868 107.32 90.0408 107.432 89.4236C107.949 88.4062 108.948 87.8451 109.73 87.0876C110.755 86.0964 111.777 85.0883 112.901 84.2018C113.156 83.9998 113.394 83.7604 113.739 83.7118C114.549 83.7791 115.091 84.5983 115.962 84.4973C116.661 84.1644 116.744 83.8689 116.378 83.132C116.14 82.6532 115.634 82.2567 115.88 81.6171C116.856 80.4219 118.073 79.4662 119.19 78.417C119.679 77.9588 120.129 77.4239 120.755 77.119C120.89 77.0947 121.017 77.1041 121.121 77.2107L121.132 77.2219C121.169 77.2948 121.222 77.3547 121.287 77.4033C121.467 77.6464 121.647 77.8896 121.827 78.1346C121.996 78.7349 122.434 79.2549 122.371 79.9263H122.374Z" fill="#463B30"/>
        <path d="M103.301 93.2304C102.965 93.8906 102.032 94.0085 101.857 94.8164C101.499 94.9848 101.265 94.8389 101.02 94.5583C99.3064 92.6132 97.5764 90.685 95.8557 88.7474C95.5389 88.3901 95.2091 88.0254 95.4002 87.4812C96.5623 86.4095 97.7263 85.3397 98.8847 84.2662C99.0946 84.0716 99.3945 83.9183 99.2933 83.5442C99.3683 83.4863 99.4789 83.4488 99.5332 83.5068C100.197 84.225 101.068 84.1184 101.914 84.124C102.352 84.586 101.863 84.8216 101.64 85.0629C100.819 85.9513 99.9231 86.7686 99.0984 87.6532C102.352 85.4145 105.237 82.7325 108.204 80.1478C109.754 78.7956 111.267 77.3985 112.905 76.1472C112.986 76.1136 113.068 76.0911 113.154 76.0818C113.197 76.0874 113.239 76.093 113.282 76.1005C113.752 76.6298 113.299 76.9851 113.004 77.3162C111.317 79.2164 109.66 81.1428 107.81 82.8952C105.915 84.6926 104.264 86.69 102.851 88.897C102.013 90.2081 101.788 91.405 102.98 92.6058C103.147 92.7741 103.291 92.9723 103.299 93.2323L103.301 93.2304Z" fill="#8D7562"/>
        <path d="M122.375 79.927C121.925 79.4108 121.73 78.8179 121.831 78.1353C122.186 78.4962 122.54 78.8572 122.894 79.2182C124.639 81.1801 126.384 83.142 128.064 85.0329C127.089 86.0858 126.187 87.1538 125.188 88.1207C122.246 90.9729 119.265 93.7858 116.296 96.6099C116.126 96.7727 115.925 96.9036 115.738 97.0513C116.536 95.9797 117.423 94.9828 118.383 94.0551C120.699 91.8145 122.875 89.4636 124.65 86.7554C125.443 85.5453 125.471 84.4232 124.684 83.2019C123.957 82.0778 123.277 80.9257 122.375 79.927Z" fill="#8D7562"/>
        <path d="M102.056 84.2546C100.995 84.5651 100.003 84.6025 99.2967 83.5439C98.7119 82.8762 98.1271 82.2085 97.5442 81.5389C97.353 81.3313 97.4505 81.1256 97.6135 80.9966C98.6013 80.2036 99.113 79.0945 99.651 78.0022C99.7185 77.8657 99.8234 77.7628 99.9752 77.7161C100.732 78.0677 101.411 78.5109 101.771 79.3096C101.383 80.0838 101.546 80.7646 102.123 81.3781C102.716 82.1393 103.07 82.9454 102.611 83.9086C102.487 84.1218 102.343 84.3032 102.058 84.2565L102.056 84.2546Z" fill="#463B30"/>
        <path d="M100.037 77.8148C99.4264 79.2044 98.7142 80.5249 97.5427 81.5385C97.1734 81.4394 96.806 81.3422 96.4518 81.2468C96.0469 80.6109 96.3674 80.061 96.5867 79.5224C97.1678 78.0897 97.4452 76.6104 97.359 75.0674C97.344 74.7943 97.464 74.4315 97.0085 74.3716C97.1809 74.2482 97.3534 74.1266 97.5258 74.0032C97.8651 74.1229 98.0113 74.424 98.1631 74.7064C98.6261 75.5667 99.1771 76.3653 99.7769 77.134C99.9269 77.3267 100.202 77.495 100.037 77.8167V77.8148Z" fill="#C4AB9A"/>
        <path d="M100.037 77.8161C98.9874 76.6846 98.1608 75.4072 97.5254 74.0045C98.0596 73.3817 98.8937 73.0432 99.2048 72.2128C100.069 71.8892 100.626 71.1635 101.315 70.6118C101.671 70.3612 102.028 70.1087 102.384 69.8562C103.351 70.0956 104.196 70.5781 105.01 71.1336C105.313 71.3412 105.589 71.6741 106.037 71.5264C107.171 72.1099 108.176 72.7963 108.179 74.2626C107.939 74.6049 107.716 74.9527 107.656 75.3791C107.636 75.525 107.61 75.7008 107.508 75.7944C106.586 76.6435 106.061 77.8966 104.849 78.4445C104.386 78.654 104.131 79.0524 103.801 79.3909C103.072 80.139 102.427 80.1334 101.673 79.3909C101.128 78.8654 100.581 78.3417 100.035 77.8161H100.037Z" fill="#EDCEBB"/>
        <path d="M102.056 84.2559C102.173 84.1344 102.287 84.0147 102.403 83.8931C103.074 82.756 104.086 81.933 105.025 81.0428C106.889 79.309 108.875 77.7193 110.83 76.0921C110.917 76.0005 111.01 75.9182 111.108 75.8396C111.303 75.6863 111.507 75.546 111.702 75.3908C112.847 74.4538 113.992 73.5186 114.828 72.1234C113.842 71.8933 113.282 72.4133 112.669 72.7967C112.206 73.0866 111.841 73.6271 111.168 73.412C111.059 73.3335 110.965 73.2493 111.059 73.1015C112.285 72.6545 112.945 71.4968 113.968 70.7917C114.33 70.5411 114.6 70.1558 115.216 70.053C117.438 71.9962 119.379 74.3191 121.362 76.5335C121.475 76.8683 121.203 77.003 121.126 77.218C121.01 77.2349 120.892 77.2536 120.776 77.2704C120.266 77.5435 119.934 77.2237 119.602 76.9151C119.016 76.3708 118.498 75.7499 117.846 75.2748C116.742 74.4706 115.458 74.0928 114.38 75.417C114.082 75.7835 113.672 76.0472 113.192 76.1669C113.134 76.2268 113.068 76.2754 112.993 76.3128C108.191 80.3882 103.695 84.832 98.4258 88.35C99.3255 86.7023 100.962 85.7222 102.056 84.2597V84.2559Z" fill="#DAC8B9"/>
        <path d="M65.3261 29.2825C63.015 30.8142 60.7133 32.3591 58.3872 33.8703C57.6918 34.3229 56.9327 34.6782 56.2017 35.0766C56.0592 35.1178 55.9168 35.1757 55.7368 34.9588C56.4697 33.6402 57.3488 32.3778 58.1847 31.0892C58.7714 30.1821 59.4575 29.3535 60.1229 28.51C60.4902 28.0443 60.897 27.5824 61.5549 27.5076C62.7657 27.545 63.8941 27.9602 65.0393 28.2856C65.5941 28.4427 65.7441 28.8055 65.3261 29.2843V29.2825Z" fill="white"/>
        <path d="M111.055 73.0989C111.101 73.1699 111.148 73.241 111.195 73.3121C112.234 73.9218 112.4 74.6175 111.754 75.6256C111.578 75.7453 111.401 75.8669 111.225 75.9866C111.105 76.0763 110.974 76.0876 110.835 76.0352C110.412 75.3582 110.485 74.4941 109.907 73.8451C108.982 72.8071 108.123 71.7317 106.558 71.7167C106.408 71.7167 106.275 71.6269 106.183 71.4979C107.653 69.7772 108.271 69.766 109.69 71.4418C110.153 71.9879 110.601 72.5452 111.056 73.0989H111.055Z" fill="#8D7562"/>
        <path d="M106.182 71.4975C108.677 71.4451 110.953 73.639 110.82 75.9637C110.017 76.5529 109.517 76.003 109.007 75.4868C108.741 75.0398 108.302 74.6938 108.201 74.1477C107.804 73.0068 106.82 72.3504 106.038 71.5256C106.087 71.5181 106.136 71.5087 106.182 71.4975Z" fill="#463B30"/>
        <path d="M61.5555 27.5049C59.2557 29.493 57.863 32.1787 56.1067 34.5858C55.968 34.7766 55.7693 34.9898 56.2023 35.0758C56.0542 35.2815 55.8574 35.218 55.6644 35.1693C55.6625 35.117 55.6456 35.0702 55.6138 35.0291C56.0243 34.2005 56.4347 33.3739 56.8434 32.5472C57.8705 30.9874 58.8977 29.4276 59.9248 27.8696C60.414 27.5105 60.8751 27.0186 61.5555 27.5068V27.5049Z" fill="#D9D9D9"/>
        <path d="M64.3699 9.18199C64.3268 9.1353 64.2838 9.08674 64.2407 9.04004C64.2838 9.08674 64.3268 9.1353 64.3699 9.18199Z" fill="#513710"/>
        <path d="M64.2225 9.01647C64.1716 8.96004 64.1188 8.9036 64.0679 8.84717C64.1188 8.9036 64.1716 8.96004 64.2225 9.01647Z" fill="#513710"/>
        <path d="M64.0533 8.82873C64.0005 8.77229 63.9459 8.71586 63.8931 8.65942C63.9459 8.71586 64.0005 8.77229 64.0533 8.82873Z" fill="#513710"/>
        <path d="M63.8787 8.64535C63.8222 8.5908 63.7675 8.53624 63.7109 8.48169C63.7675 8.53624 63.8222 8.5908 63.8787 8.64535Z" fill="#513710"/>
        <path d="M121.292 77.4066L121.135 77.2241C121.188 77.2843 121.241 77.3445 121.292 77.4066Z" fill="#DAC8B9"/>
        <path d="M52.9042 24.8125C53.1779 23.9185 54.0813 23.6847 54.6811 23.133C55.6595 22.2334 56.6605 21.3581 57.667 20.4585C58.6529 22.4036 55.9107 26.8212 53.2903 27.6666C53.161 26.7146 53.0317 25.7645 52.9023 24.8125H52.9042Z" fill="#C4AB9A"/>
        <path d="M52.5455 28.1982C52.4031 28.2225 52.2606 28.2468 52.0319 28.2861C52.9785 29.3802 53.8951 30.4089 54.09 31.8378C54.1669 32.397 54.2962 32.9655 53.8126 33.4256C52.4837 32.2099 51.3609 30.8091 50.2494 29.4026C49.8895 28.9463 49.4791 28.5909 48.9224 28.4151C49.4378 28.3721 48.928 27.9775 49.2747 27.7063C50.2775 27.8559 51.4115 28.0261 52.5474 28.1963L52.5455 28.1982Z" fill="#D9D9D9"/>
        <path d="M35.8174 24.6083C35.759 24.5613 35.7005 24.5124 35.6421 24.4653C35.7005 24.5124 35.759 24.5613 35.8174 24.6083Z" fill="#292F73"/>
        <path d="M46.0732 14.0564C46.1988 14.105 46.3263 14.1555 46.4519 14.2042C46.3263 14.1555 46.1988 14.105 46.0732 14.0564Z" fill="#C4AB9A"/>
        <path d="M113.191 76.1638C113.796 75.6008 114.34 74.9425 115.024 74.4992C115.933 73.9082 116.895 74.2692 117.678 74.8321C118.443 75.382 119.093 76.0927 119.781 76.7473C120.068 77.0185 120.344 77.2803 120.773 77.2691C119.198 78.7466 117.624 80.226 116.049 81.7035C115.659 82.072 115.339 81.7185 114.998 81.6007C114.1 81.2883 113.646 81.5427 113.517 82.4423C113.517 82.9286 114.158 83.3307 113.708 83.8749C111.669 85.7265 109.63 87.5781 107.592 89.4278C107.174 89.8225 106.814 89.4372 106.443 89.3324C105.397 89.0388 104.771 89.6111 104.972 90.6959C105.019 91.0494 105.457 91.3804 105.036 91.7601C104.458 92.2501 103.881 92.742 103.302 93.232C101.521 91.4103 101.362 90.9989 102.507 89.0145C103.634 87.0619 105.024 85.3076 106.623 83.7309C108.775 81.61 110.837 79.4106 112.827 77.1419C113.062 76.8763 113.474 76.6388 113.193 76.1656L113.191 76.1638Z" fill="#B79980"/>
        <path d="M105.033 91.7574C104.928 91.4114 104.821 91.0636 104.717 90.7176C104.589 90.106 104.953 89.8479 105.466 89.7525C106.443 89.5692 107.845 90.5754 108.023 91.5442C108.13 92.1203 107.839 92.5037 107.446 92.8516C106.445 92.9208 105.881 92.0286 105.033 91.7574Z" fill="#483D35"/>
        <path d="M113.709 83.8713C113.846 83.2877 113.138 83.0035 113.201 82.4442C113.616 81.6419 114.105 81.4754 114.843 81.9299C115.383 82.2628 115.82 82.721 116.202 83.2241C116.609 83.7609 116.515 84.2827 116.084 84.769C115.098 84.9785 114.506 84.1574 113.709 83.8713Z" fill="#483D35"/>
        <path d="M107.446 92.8497C107.988 91.4844 107.322 90.2314 105.93 90.0088C105.343 89.9153 104.858 90.0312 104.717 90.7158C104.398 90.1434 104.665 89.6703 105.041 89.2812C105.42 88.8904 105.907 88.8473 106.447 89.0101C106.839 89.1279 107.128 89.5281 107.594 89.4234C107.549 89.9097 107.93 90.1565 108.179 90.4838C109.024 91.6041 108.771 92.4102 107.448 92.8479L107.446 92.8497Z" fill="#725E4C"/>
        <path d="M116.083 84.7718C116.229 83.6608 115.566 82.5256 114.52 82.0337C113.929 81.755 113.556 82.043 113.2 82.4489C113.395 81.179 114.272 80.7619 115.331 81.4539C115.558 81.6035 115.755 81.7737 116.049 81.7045C115.896 82.3647 116.497 82.6901 116.724 83.182C117.088 83.975 116.928 84.495 116.085 84.7718H116.083Z" fill="#725E4C"/>
        <path d="M112.992 76.3079C113.058 76.259 113.126 76.21 113.192 76.1611C113.126 76.21 113.058 76.259 112.992 76.3079Z" fill="#B79980"/>
        <path d="M109.025 75.2596C109.563 75.6505 110.035 76.2059 110.821 75.9647C110.956 75.9722 111.091 75.9796 111.225 75.9871C111.164 76.047 111.1 76.1087 111.038 76.1685C109.407 77.0046 108.196 78.3643 106.841 79.5425C106.24 80.0662 105.711 80.6722 105.124 81.2146C104.217 82.1067 103.31 82.9988 102.403 83.8909C102.821 82.9259 102.401 82.1478 101.844 81.3997C102.543 80.3729 103.587 79.6922 104.496 78.8954C105.55 77.9734 106.54 76.984 107.608 76.0806C108.028 75.7253 108.375 75.224 109.025 75.2577V75.2596Z" fill="#8D7562"/>
        <path d="M111.756 75.6257C112.146 74.7168 111.741 73.9967 111.197 73.3122C111.863 73.2991 112.204 72.7361 112.695 72.4313C113.422 71.9787 114.149 71.5242 115.255 71.7767C114.506 73.5347 113.117 74.569 111.756 75.6257Z" fill="#B79980"/>
    </g>
    <defs>
        <clipPath id="clip0_1058_9749">
            <rect width="128" height="146" fill="white"/>
        </clipPath>
    </defs>
</svg>
