<svg width="42" height="42" viewBox="0 0 42 42" fill="none" xmlns="http://www.w3.org/2000/svg">
<path d="M30.6254 17.5836V10.5486C30.6254 10.4327 30.6023 10.3179 30.5576 10.211C30.5128 10.104 30.4472 10.007 30.3647 9.92564L21.6147 1.29114C21.4511 1.13082 21.2312 1.04102 21.0022 1.04102C20.7731 1.04102 20.5532 1.13082 20.3897 1.29114L11.6397 9.92564C11.5571 10.007 11.4915 10.104 11.4468 10.211C11.402 10.3179 11.3789 10.4327 11.3789 10.5486V17.5836C11.3793 17.7554 11.4301 17.9232 11.5252 18.0663C11.6203 18.2093 11.7554 18.3212 11.9136 18.388C12.0718 18.4548 12.2462 18.4735 12.415 18.4419C12.5838 18.4103 12.7396 18.3297 12.8629 18.2101L20.6959 10.6046C20.7775 10.5255 20.8867 10.4813 21.0004 10.4813C21.1141 10.4813 21.2233 10.5255 21.3049 10.6046L29.1414 18.2101C29.2647 18.3297 29.4205 18.4103 29.5893 18.4419C29.7581 18.4735 29.9325 18.4548 30.0907 18.388C30.2489 18.3212 30.384 18.2093 30.4791 18.0663C30.5742 17.9232 30.6251 17.7554 30.6254 17.5836Z" stroke="#FDFEFF" stroke-width="1.5" stroke-linecap="round" stroke-linejoin="round"/>
<path d="M30.625 31.7698V26.756L21.6143 17.8888C21.4507 17.7285 21.2308 17.6387 21.0018 17.6387C20.7727 17.6387 20.5528 17.7285 20.3893 17.8888L11.6393 26.4988C11.5556 26.5803 11.4892 26.6777 11.4438 26.7853C11.3984 26.8929 11.375 27.0085 11.375 27.1253V31.7715C11.3747 31.9442 11.4255 32.1131 11.5209 32.257C11.6164 32.4008 11.7523 32.5132 11.9115 32.58C12.0707 32.6468 12.2461 32.665 12.4157 32.6323C12.5852 32.5996 12.7413 32.5175 12.8643 32.3963L20.6938 24.6963C20.7757 24.6165 20.8856 24.5719 21 24.5719C21.1144 24.5719 21.2243 24.6165 21.3063 24.6963L29.1358 32.3963C29.2588 32.5176 29.4151 32.5998 29.5848 32.6324C29.7545 32.665 29.93 32.6467 30.0893 32.5797C30.2486 32.5127 30.3845 32.4 30.4798 32.2559C30.5751 32.1117 30.6257 31.9426 30.625 31.7698V31.7698Z" stroke="#FDFEFF" stroke-width="1.5" stroke-linecap="round" stroke-linejoin="round"/>
<path d="M30.625 40.9626L21.6195 31.9309C21.5382 31.8494 21.4417 31.7848 21.3354 31.7406C21.2291 31.6965 21.1151 31.6738 21 31.6738C20.8849 31.6738 20.7709 31.6965 20.6646 31.7406C20.5583 31.7848 20.4618 31.8494 20.3805 31.9309L11.375 40.9626" stroke="#FDFEFF" stroke-width="1.5" stroke-linecap="round" stroke-linejoin="round"/>
</svg>
