<?xml version="1.0" encoding="utf-8"?>
<svg width="77" height="69" viewBox="0 0 77 69" fill="none" xmlns="http://www.w3.org/2000/svg">
    <path d="M5.64226 12.3141C5.90995 16.5447 11.6933 18.071 12.4746 20.6769C14.9998 29.1025 -10.103 33.9591 4.70593 44.953C7.29893 46.878 10.0792 47.1396 16.7759 48.7985C35.5496 53.4471 29.1297 67.7484 41.5042 68.4487C54.0912 69.1605 67.5651 69.1319 74.927 60.5898C82.289 52.0488 55.6433 44.8239 56.683 38.2307C57.7227 31.6388 69.9754 35.8339 73.0348 28.537C76.0943 21.2401 69.9294 8.72454 55.3882 2.75521C40.847 -3.21412 4.91273 0.760481 5.64341 12.313L5.64226 12.3141Z" fill="#FFF3E5"/>
    <path d="M20.7807 24.637C20.8508 24.637 20.9209 24.637 20.9901 24.637C21.2136 24.4547 21.2922 24.1135 21.6307 24.0558C22.3918 24.0335 23.1445 23.8857 23.9085 23.8959C28.05 23.6383 30.9786 25.764 33.5398 28.68C36.4395 31.981 38.4873 35.8204 40.6324 39.5994C41.2505 40.6892 41.9097 41.7529 42.54 42.8353C43.375 44.2691 43.2992 44.6801 42.007 45.7448C38.6182 47.4455 35.3772 49.4085 32.0848 51.2793C30.9487 51.9247 30.5859 51.8363 29.9557 50.6507C29.6303 50.0389 29.3507 49.4029 28.9888 48.8096C28.9252 48.7334 28.8691 48.6516 28.8167 48.5679C28.7391 48.4442 28.6765 48.3112 28.6054 48.1838C28.5558 48.1011 28.5147 48.0146 28.4773 47.9272C27.877 46.6961 27.2542 45.4751 26.6361 44.2524C26.5136 43.9976 26.3809 43.7484 26.2172 43.5159C25.6122 42.534 25.183 41.46 24.5958 40.4688C24.5378 40.3963 24.4873 40.3181 24.4396 40.2391C24.3695 40.1219 24.3087 40.0001 24.2479 39.8774C24.2021 39.7993 24.1619 39.7184 24.1217 39.6375C24.0553 39.5166 23.9899 39.3967 23.9235 39.2748C23.8767 39.1912 23.8346 39.1065 23.7935 39.0201C22.1562 35.707 20.3833 32.4636 18.6898 29.1812C18.2522 28.4029 17.7903 27.6358 17.5135 26.7794C17.5042 26.679 17.5163 26.5795 17.5425 26.4818C17.9455 25.6505 18.8236 25.4385 19.5174 24.9866C19.7886 24.8825 20.1074 25.0554 20.3608 24.8443C20.473 24.7197 20.6713 24.7662 20.7816 24.6351L20.7807 24.637Z" fill="white"/>
    <path d="M20.7806 24.637C20.6404 24.7068 20.5001 24.7765 20.3599 24.8462C20.5001 24.7765 20.6404 24.7068 20.7806 24.637Z" fill="#FDFDFD"/>
    <path d="M23.9319 24.2057C25.8563 23.6822 27.7722 24.1472 29.6789 24.3089C31.1516 24.4335 32.6131 24.7506 34.0158 25.263C34.5263 25.3904 34.6899 25.8516 34.9022 26.2338C36.5292 29.1526 38.1881 32.0556 39.7712 34.9977C41.2383 37.7268 42.6447 40.4876 44.2334 43.1507C44.4456 43.5068 44.7056 43.849 44.6663 44.3019C43.9416 45.228 42.9532 45.6595 41.8134 45.8092C41.7171 45.7236 41.7105 45.6325 41.7956 45.5358C42.8223 44.9416 43.0542 44.2331 42.3912 43.1414C40.4257 39.9092 38.6219 36.5775 36.5994 33.3825C34.5151 30.089 32.2176 26.9451 28.6054 25.0714C27.127 24.3043 25.5495 24.175 23.9319 24.2067V24.2057Z" fill="#E8EAEB"/>
    <path d="M41.7948 45.5349C41.7957 45.6083 41.7976 45.6827 41.7985 45.7562C41.8472 46.2676 41.3983 46.3606 41.0935 46.5447C38.0564 48.3793 34.9781 50.1451 31.9063 51.9212C31.5089 52.1508 31.0891 52.3303 30.615 52.1192C29.794 51.022 28.8982 49.9564 28.9767 48.4612C29.9399 49.258 29.9567 50.6649 30.9357 51.5111C34.5676 49.5128 38.1807 47.5248 41.7948 45.5367V45.5349Z" fill="#E8EAEB"/>
    <path d="M28.9768 48.4602C29.5425 49.6514 30.1082 50.8434 30.674 52.0346C30.6337 52.0597 30.5935 52.0848 30.5533 52.1108C29.7015 52.0327 29.7482 51.1596 29.3059 50.7188C29.2068 50.5654 29.1264 50.4027 29.0441 50.24C28.9628 50.0828 28.8898 49.9219 28.8094 49.7639C28.7271 49.6067 28.6467 49.4486 28.5626 49.2924C28.4765 49.1306 28.3877 48.9698 28.2998 48.8089C27.7257 47.7042 27.2273 46.5614 26.5699 45.5005C26.4624 45.3424 26.3857 45.1685 26.294 45.0011C26.2071 44.8328 26.122 44.6627 26.0322 44.4953C25.9462 44.3205 25.8452 44.154 25.7583 43.9792C24.5604 41.4277 23.083 39.0203 21.8739 36.4762C21.6738 36.0549 21.3063 35.6486 21.5953 35.1195C22.1694 34.9772 22.1675 35.5017 22.3246 35.7853C22.9586 36.9309 23.4561 38.1471 24.1443 39.2657C24.2668 39.3783 24.2275 39.5726 24.3556 39.6842C24.4781 39.7967 24.4398 39.991 24.567 40.1026C25.3029 41.1571 25.575 42.4728 26.4596 43.4455C26.5989 43.6547 26.7382 43.8639 26.8785 44.0731C27.2815 45.5042 28.0763 46.7502 28.7711 48.0436C28.8954 48.1552 28.8496 48.3533 28.9815 48.4611L28.9768 48.4602Z" fill="white"/>
    <path d="M17.628 26.7246C18.0488 27.4917 18.4696 28.2589 18.8904 29.0251C18.9876 29.2268 18.8595 29.2715 18.7006 29.2947C18.4415 29.1645 18.3686 28.8949 18.234 28.6708C18.565 29.3105 19.0391 29.8582 19.3916 30.484C19.4505 30.5621 19.4982 30.6467 19.5356 30.7369C19.7955 31.5617 20.5847 32.1912 20.4389 33.1657C20.2191 33.3768 19.9695 33.3257 19.7151 33.2475C18.3321 31.5766 17.5663 29.5765 16.706 27.6293C16.5031 27.17 16.6228 26.7395 17.1867 26.5646C17.3578 26.5516 17.5018 26.6121 17.6271 26.7227L17.628 26.7246Z" fill="#E8EAEB"/>
    <path d="M18.6804 29.2344C18.7506 29.1646 18.8198 29.0958 18.8899 29.0261C20.6946 32.4126 22.6162 35.7397 24.1441 39.2666C23.2894 38.4614 23.0603 37.3 22.4638 36.3487C22.1954 35.9201 22.1262 35.3594 21.6203 35.0869C21.5754 35.0655 21.5305 35.0451 21.4847 35.0246C20.6899 34.1896 20.6114 33.0124 20.0541 32.0621C19.7922 31.6158 19.6211 31.1183 19.3079 30.6989C19.061 30.2275 18.6608 29.8202 18.6786 29.2353L18.6804 29.2344Z" fill="#E8EAEB"/>
    <path d="M28.7669 48.0421C27.8786 46.8398 27.066 45.6021 26.8744 44.0716C27.5055 45.3948 28.1358 46.7189 28.7669 48.0421Z" fill="#E8EAEB"/>
    <path d="M26.4564 43.4443C25.3707 42.5842 25.1089 41.2629 24.5638 40.1006C25.4932 41.0481 25.7887 42.3508 26.4564 43.4443Z" fill="#E8EAEB"/>
    <path d="M28.9765 48.461C28.9063 48.3215 28.8362 48.1821 28.7661 48.0426C28.8362 48.1821 28.9063 48.3215 28.9765 48.461Z" fill="#F0F0F0"/>
    <path d="M24.5637 40.1019C24.4935 39.9624 24.4234 39.822 24.3523 39.6825C24.4225 39.822 24.4926 39.9624 24.5637 40.1019Z" fill="#EFEFEF"/>
    <path d="M24.3538 39.6838C24.2837 39.5443 24.2136 39.4048 24.1425 39.2644C24.2126 39.4039 24.2828 39.5434 24.3538 39.6838Z" fill="#EFEFEF"/>
    <path d="M17.6278 26.7242L17.2323 26.7325C17.1369 26.3746 17.3529 26.4266 17.5689 26.4806L17.6456 26.5317C17.6344 26.5949 17.6278 26.6591 17.6278 26.7242Z" fill="#F4E7D4"/>
    <path d="M36.3284 22.3256C37.0867 20.9922 38.4575 20.2734 39.4889 19.2134C41.8406 18.8535 43.7921 19.5909 45.48 21.2414C46.9293 22.6585 47.957 24.3453 48.8771 26.1083C50.9895 30.156 52.9606 34.2734 54.7971 38.4522C55.0206 38.9617 55.4348 39.3746 55.5321 39.9427C55.475 40.2673 55.2039 40.377 54.9504 40.4774C52.3463 41.5151 49.7851 42.6635 47.1042 43.505C46.4992 43.5394 46.1308 43.2223 45.8718 42.7119C43.1189 37.275 40.1594 31.945 37.3485 26.5388C36.866 25.6108 36.4789 24.6391 36.2115 23.6246C36.0936 23.1764 36.0245 22.7347 36.3274 22.3256H36.3284Z" fill="#E8EAEB"/>
    <path d="M55.5024 39.9256C54.1924 38.7624 53.8763 37.0561 53.1573 35.5804C51.0412 31.2408 49.2271 26.7421 46.4088 22.7781C44.9127 20.6729 42.9303 19.2865 40.1662 19.4036C39.9437 19.4129 39.7146 19.28 39.4892 19.213C42.2477 16.9683 45.4419 16.0961 48.9588 16.2403C49.0625 16.2077 49.1626 16.2161 49.2561 16.2728C50.4016 17.8833 50.929 19.8025 51.8977 21.5023C52.6561 23.4011 53.55 25.2404 54.4046 27.0964C56.0298 30.6205 57.6784 34.1345 59.2334 37.6903C59.3334 37.9841 59.4653 38.2742 59.3522 38.5959C59.1352 38.9893 58.7154 39.059 58.3497 39.2152C58.2609 39.2524 58.1683 39.2831 58.0758 39.3101C57.8897 39.3501 57.7148 39.4235 57.5428 39.5016C57.1931 39.6504 56.8284 39.7648 56.4843 39.9284C56.156 40.0298 55.8278 40.2111 55.5015 39.9266L55.5024 39.9256Z" fill="white"/>
    <path d="M36.3286 22.3256C36.5605 24.8604 37.9191 26.9628 39.0393 29.1424C40.7674 32.5067 42.5926 35.8216 44.3674 39.1617C45.0014 40.3556 45.627 41.5551 46.2161 42.7714C46.4059 43.1629 46.6874 43.2391 47.053 43.2428C47.1007 43.6808 46.7014 43.7105 46.4611 43.8863C45.8159 44.0072 45.2801 44.6506 44.532 44.2926C41.0264 37.9491 37.5208 31.6066 34.0152 25.263C34.55 24.0998 35.2747 23.0844 36.3286 22.3256V22.3256Z" fill="#D9D9D9"/>
    <path d="M56.7229 29.451C58.0059 32.2192 59.2729 34.9939 60.5783 37.7509C61.101 38.8546 61.0196 39.5865 59.7264 40.0895C56.4592 41.3616 53.3941 43.1208 49.9932 44.0749C49.967 43.4714 50.4991 43.3886 50.8693 43.199C53.4184 41.8972 55.9263 40.5182 58.5099 39.2824C58.8474 39.1206 59.2374 39.0211 59.4683 38.6761C59.4945 38.1917 59.1644 37.8355 59.0242 37.4143C57.1718 33.2615 55.2221 29.1534 53.3426 25.0137C52.7975 23.8132 52.1972 22.637 51.7221 21.4058C50.8376 19.6967 50.1372 17.9012 49.2666 16.1856C49.0263 15.7197 48.7411 15.279 48.5186 14.8029C48.7131 14.5853 48.945 14.4505 49.5593 14.4933C52.2028 19.2393 54.2263 24.4613 56.7239 29.45L56.7229 29.451Z" fill="#FCCA95"/>
    <path d="M23.4712 40.1593C22.4352 38.4855 21.5683 36.7243 20.7642 34.9306C20.7352 34.8274 20.6604 34.754 20.5931 34.6759C20.5613 34.6275 20.5472 34.5745 20.5529 34.5169C20.522 34.4127 20.4509 34.3355 20.3808 34.2574C20.349 34.2109 20.3359 34.1589 20.3415 34.1021C20.3125 33.9952 20.2415 33.9162 20.1676 33.8381C20.1358 33.7925 20.1237 33.7423 20.1302 33.6874C20.1003 33.5786 20.032 33.4959 19.9544 33.4187C19.9245 33.3703 19.9067 33.3183 19.902 33.2616C20.0283 33.0282 20.1994 33.149 20.3621 33.2048C20.4593 33.0979 20.5407 33.1435 20.6183 33.2299C20.6716 33.3201 20.6183 33.4289 20.6707 33.521C20.7053 33.5805 20.7333 33.6409 20.7604 33.7032C20.7838 33.7683 20.8119 33.8306 20.8493 33.8901C20.8885 33.9487 20.9222 34.0101 20.9521 34.0733C20.9914 34.1719 21.0335 34.2695 21.0971 34.3569C21.1391 34.4174 21.1737 34.4815 21.2018 34.5494C21.2514 34.6545 21.3346 34.7298 21.4178 34.806C21.4954 34.8925 21.5431 35.0004 21.6216 35.0859C22.6521 37.7649 24.2614 40.1565 25.4704 42.747C25.6733 43.1813 25.8473 43.6295 26.0352 44.0712C25.9894 44.0879 25.9445 44.1037 25.8987 44.1205C25.3788 43.9707 25.3592 43.451 25.131 43.0874C24.5335 42.1361 24.2791 40.9924 23.4712 40.1583V40.1593Z" fill="#E8EAEB"/>
    <path d="M26.665 45.325C27.5749 46.3618 28.048 47.6292 28.5567 48.878C28.509 48.8938 28.4613 48.9087 28.4136 48.9245C27.4505 47.9472 27.0101 46.6957 26.5715 45.4431C26.6024 45.4041 26.6342 45.365 26.665 45.326V45.325Z" fill="#E8EAEB"/>
    <path d="M30.676 52.0296C30.5208 52.1588 30.3655 52.2871 30.2103 52.4164C30.0738 52.355 29.9382 52.2927 29.8017 52.2313C29.8559 51.6372 29.1724 51.2754 29.3024 50.658C29.3342 50.6227 29.3659 50.5864 29.3968 50.5511C30.0663 50.8356 29.883 51.851 30.676 52.0305V52.0296Z" fill="#E8EAEB"/>
    <path d="M29.1875 50.1322C29.2576 50.2717 29.3277 50.4112 29.3969 50.5506C29.1089 50.6287 29.0977 50.4456 29.1042 50.2447C29.1323 50.2075 29.1594 50.1703 29.1875 50.1322Z" fill="#EEEEED"/>
    <path d="M28.9767 49.7142C29.0468 49.8537 29.117 49.9932 29.1871 50.1318C28.8991 50.2099 28.8879 50.0267 28.8944 49.8258C28.9225 49.7886 28.9496 49.7514 28.9776 49.7133L28.9767 49.7142Z" fill="#EEEEED"/>
    <path d="M28.7661 49.297C28.8362 49.4364 28.9063 49.5759 28.9765 49.7145C28.6885 49.7926 28.6772 49.6085 28.6838 49.4085C28.7118 49.3713 28.7389 49.3341 28.767 49.296L28.7661 49.297Z" fill="#EFEEED"/>
    <path d="M28.5561 48.8788C28.6262 49.0182 28.6964 49.1577 28.7665 49.2963C28.414 49.2972 28.4196 49.1205 28.5561 48.8788Z" fill="#EFEEED"/>
    <path d="M26.4548 44.9077C26.5249 45.0472 26.5951 45.1867 26.6643 45.3262C26.3763 45.4034 26.3651 45.2202 26.3716 45.0193C26.3996 44.9821 26.4277 44.9449 26.4548 44.9077Z" fill="#EFEEED"/>
    <path d="M26.245 44.4897C26.3151 44.6291 26.3852 44.7686 26.4554 44.9072L26.4544 44.9081C26.1664 44.9853 26.1552 44.8021 26.1618 44.6012C26.1898 44.564 26.2179 44.5268 26.245 44.4897Z" fill="#EFEEED"/>
    <path d="M26.035 44.0716C26.1052 44.211 26.1753 44.3496 26.2454 44.4891L26.2445 44.49C25.892 44.4909 25.8976 44.3143 26.0341 44.0725L26.035 44.0716Z" fill="#EFEEED"/>
    <path d="M20.5705 33.4147C20.5013 33.3449 20.4321 33.2752 20.3629 33.2055C20.0113 32.3695 19.6607 31.5336 19.3091 30.6976C20.3779 32.0059 20.9614 33.5662 21.6225 35.0866C21.4831 35.0168 21.3429 34.9471 21.2036 34.8764C21.0792 34.7639 21.1166 34.5705 20.9922 34.458C20.8679 34.3464 20.9071 34.1521 20.7818 34.0405C20.6575 33.928 20.6967 33.7346 20.5714 33.623C20.521 33.5774 20.5032 33.5318 20.52 33.4854C20.5368 33.4389 20.5527 33.4156 20.5696 33.4156L20.5705 33.4147Z" fill="#F6F6F6"/>
    <path d="M18.6806 29.2343C18.8901 29.7225 19.0996 30.2107 19.3099 30.6989C18.4646 29.8964 18.2449 28.7601 17.8839 27.6908C18.1495 28.205 18.4151 28.7192 18.6806 29.2334V29.2343Z" fill="#F6F6F6"/>
    <path d="M29.8171 53.8931C29.3308 53.0543 28.8446 52.2156 28.3584 51.3769C28.3546 51.3099 28.3481 51.2439 28.3397 51.1779C28.2649 51.1118 28.2069 51.0309 28.1452 50.9538C27.8244 50.1876 27.5486 49.4 27.1774 48.6598C23.74 41.8002 20.2905 34.9462 16.8298 28.0978C16.5184 27.4823 16.1042 26.9178 15.7376 26.3292C15.1392 26.4194 15.3402 26.7811 15.487 27.0991C15.8227 27.8263 16.1603 28.5534 16.524 29.2676C20.0343 36.1578 23.5502 43.0462 27.0651 49.9346L27.0708 49.9458C27.2269 50.0341 27.1708 50.2359 27.2868 50.3456L27.2896 50.3512C27.4289 50.4516 27.3747 50.6562 27.5102 50.7594C27.6571 50.9696 27.8039 51.1807 27.9497 51.3908C28.0021 51.4698 28.0928 51.5238 28.1106 51.6251C28.1068 51.6288 28.1031 51.6326 28.0993 51.6363C28.5295 52.4657 28.9605 53.2942 29.3907 54.1227C29.53 54.1302 29.6693 54.1385 29.8087 54.146C30.0378 54.3422 30.2425 54.1934 30.4511 54.1013C30.2902 53.8791 30.0499 53.8958 29.8161 53.8931H29.8171Z" fill="#AF6A1D"/>
    <path d="M59.2302 37.393C58.5112 35.8141 57.793 34.2343 57.0721 32.6563C55.3403 28.8709 53.6057 25.0854 51.873 21.2999C51.0408 19.5537 50.2086 17.8074 49.3764 16.0611C49.2876 15.5097 49.252 14.9211 48.518 14.8049C48.0748 15.1861 47.4267 15.3572 47.1874 15.997C47.8073 16.221 48.431 15.8621 48.9584 16.2424C49.0164 16.2601 49.0753 16.2759 49.1351 16.2889C49.9683 18.0445 50.8014 19.8001 51.6355 21.5557C51.6355 21.5557 51.6355 21.5575 51.6355 21.5584C54.0817 26.9479 56.5279 32.3374 58.975 37.7259C58.9881 37.7566 59.0021 37.7882 59.018 37.8208C59.09 38.0941 59.162 38.3666 59.234 38.64C59.0114 38.8222 58.7543 38.9412 58.4841 39.0324C57.9006 39.2816 57.3096 39.5131 56.7093 39.7214C53.4356 41.0381 50.1291 42.2776 46.8769 43.6519C46.2747 43.8565 45.7081 44.0973 45.3799 44.7017C45.1928 45.0448 44.8487 45.1508 44.4766 45.0867C43.7201 44.9565 43.117 45.3173 42.5195 45.6762C38.7857 47.9163 34.9958 50.0624 31.2564 52.2931C30.9909 52.4521 30.6832 52.7813 30.3382 52.3814C30.2091 52.2382 30.1446 52.8687 30.0399 52.7032C27.8817 48.7894 25.472 44.1959 23.5102 40.1798C22.4957 38.5814 18.0064 29.6705 17.0863 27.8601C16.9002 27.4947 16.5785 27.0288 17.2321 26.734C17.3443 26.6504 17.4565 26.5667 17.5697 26.4821C16.989 26.0831 16.3513 26.3537 15.7388 26.3296C15.6004 26.6308 15.7837 26.8689 15.9099 27.1088C18.6908 32.4108 21.4587 37.7213 24.1096 43.0884C25.3879 45.6762 26.6895 48.2547 27.8902 50.8806C27.9612 51.0136 28.0557 51.1336 28.1258 51.2675C28.1641 51.3595 28.2118 51.446 28.2679 51.5278C28.7775 52.3415 28.9309 53.3662 29.7547 53.9929C29.9716 54.1268 30.2344 53.9771 30.4523 54.1026C36.0384 51.685 40.769 47.8056 46.4879 45.0076C47.4782 44.91 48.749 44.5474 49.9935 44.0769C53.285 42.3362 56.5765 40.5955 59.9353 38.8185C59.6538 38.2504 59.4425 37.8217 59.2302 37.393V37.393Z" fill="#EA9C47"/>
    <path d="M58.3446 38.97C58.282 38.9765 58.2184 39.0007 58.1539 39.0407C58.0893 39.0342 58.0286 39.0472 57.9715 39.0797C57.8444 39.1885 57.6592 39.1495 57.5302 39.2527C57.2122 39.3782 56.8943 39.5038 56.5764 39.6293C56.5437 39.6414 56.5091 39.6553 56.4754 39.6693C56.1509 39.7548 55.8264 39.8404 55.502 39.9259C52.6855 41.0315 49.8691 42.1371 47.0526 43.2437C46.8301 43.3748 46.6066 43.5068 46.384 43.6388C45.7669 43.8574 45.1497 44.075 44.5326 44.2935C43.6209 44.7816 42.7101 45.2698 41.7984 45.7571C39.0193 47.4038 36.2562 49.0767 33.4538 50.6816C32.5645 51.1912 31.7472 51.8848 30.6738 52.0355L30.6756 52.0308C30.5354 52.1778 30.1539 52.0373 30.21 52.4177C30.1838 52.598 29.8285 52.6817 30.0585 52.9421C30.4101 53.1485 30.7018 53.0109 31.0216 52.8184C34.5441 50.7039 38.059 48.5783 41.6086 46.5093C42.5885 45.9384 43.4797 44.9723 44.8514 45.4753C45.1329 45.5785 45.5051 45.3331 45.5967 45.016C45.7856 44.3651 46.2849 44.0973 46.8366 43.8592C50.1973 42.5342 53.557 41.2091 56.9177 39.8841C57.4815 39.6079 58.0454 39.3317 58.6083 39.0565C58.9057 39.0481 59.1142 38.9096 59.2339 38.6381C58.9375 38.7487 58.641 38.8584 58.3446 38.9691V38.97Z" fill="#AF6A1D"/>
    <path d="M57.9718 39.0784C57.825 39.1361 57.6772 39.1937 57.5304 39.2514C57.6772 39.1937 57.825 39.1361 57.9718 39.0784Z" fill="#D2B07D"/>
    <path d="M27.29 50.3492C27.3639 50.4849 27.4369 50.6216 27.5107 50.7574C27.4369 50.6216 27.3639 50.4849 27.29 50.3492Z" fill="#F4E7D4"/>
    <path d="M27.0707 49.9438C27.1427 50.0768 27.2147 50.2107 27.2867 50.3437C27.2147 50.2107 27.1427 50.0768 27.0707 49.9438Z" fill="#F4E7D4"/>
    <path d="M27.9498 51.3896C28.004 51.4705 28.0582 51.5505 28.1125 51.6314C28.0582 51.5505 28.004 51.4705 27.9498 51.3896Z" fill="#C29A61"/>
    <path d="M26.0341 44.0728C26.1042 44.2123 26.1744 44.3518 26.2445 44.4903C26.3146 44.6298 26.3847 44.7693 26.4549 44.9078C26.525 45.0473 26.5951 45.1868 26.6653 45.3253C27.173 46.5741 27.6462 47.8406 28.5569 48.8783C28.6271 49.0178 28.6972 49.1573 28.7673 49.2958C28.8375 49.4353 28.9076 49.5748 28.9777 49.7133C29.0479 49.8528 29.118 49.9923 29.1881 50.1308C29.2582 50.2703 29.3284 50.4098 29.3985 50.5483C29.3312 51.1565 30.7179 52.0966 30.0334 52.6759C27.735 48.75 25.4702 44.1221 23.4486 40.0521C24.0181 39.7834 23.9676 40.4621 24.105 40.6779C24.8026 41.776 25.0981 43.103 26.035 44.07L26.0341 44.0728Z" fill="#E8EAEB"/>
    <path d="M28.3398 51.1774C28.2753 51.103 28.2107 51.0277 28.1453 50.9533C28.2098 51.0277 28.2743 51.103 28.3398 51.1774Z" fill="#C29A61"/>
    <path d="M20.991 34.458C21.0611 34.5975 21.1322 34.737 21.2023 34.8764C21.1322 34.737 21.0611 34.5975 20.991 34.458Z" fill="#EDEBE8"/>
    <path d="M20.7819 34.0407C20.8521 34.1802 20.9222 34.3197 20.9923 34.4592C20.9222 34.3197 20.8521 34.1802 20.7819 34.0407Z" fill="#EDEBE8"/>
    <path d="M20.5713 33.6219C20.6414 33.7613 20.7116 33.9008 20.7817 34.0403C20.7116 33.9008 20.6414 33.7613 20.5713 33.6219Z" fill="#EDEBE8"/>
    <path d="M20.5699 33.4152C20.5699 33.4849 20.5709 33.5537 20.5718 33.6235C20.5466 33.5742 20.5157 33.5268 20.5008 33.4756C20.497 33.4635 20.5456 33.4356 20.5699 33.4152V33.4152Z" fill="#EDEBE8"/>
    <path d="M41.7202 29.8635C41.6986 29.831 41.6762 29.7994 41.6594 29.764L35.6973 18.0366C35.6973 18.0366 34.8183 17.7186 33.829 18.2347C32.8397 18.7508 31.5194 20.1456 31.5194 20.1456L32.8257 22.8952L37.4796 31.7511C37.4796 31.7511 39.2581 31.5847 40.7037 30.9031C41.9081 30.3359 41.7931 29.9695 41.7211 29.8626L41.7202 29.8635ZM39.8472 30.6986C39.7051 30.839 39.4423 31.0342 39.2141 30.8073C38.986 30.5805 39.2141 30.4001 39.2141 30.4001C39.2141 30.4001 39.3965 30.2187 39.6471 30.2643C39.8977 30.3099 39.9884 30.5591 39.8472 30.6986V30.6986Z" fill="#292F73"/>
    <path d="M41.0981 30.6983C41.8779 30.2474 41.7826 29.9563 41.719 29.8633C41.6975 29.8308 41.675 29.7992 41.6582 29.7638L35.6961 18.0364C35.6961 18.0364 35.2454 17.8737 34.6264 17.9704L41.099 30.6983H41.0981Z" fill="#475196"/>
    <path d="M32.3545 19.337C31.8739 19.7704 31.5186 20.146 31.5186 20.146L32.8249 22.8956L37.4788 31.7516C37.4788 31.7516 37.9239 31.7098 38.5485 31.5833L32.3545 19.337V19.337Z" fill="#1D273D"/>
    <path d="M39.3914 30.8177C39.3521 30.5183 39.5251 31.1078 39.8 31.1729C40.1227 31.2501 40.406 30.9581 40.7398 31.6694C41.0736 32.3808 42.3248 35.0829 43.0878 35.3796C43.8508 35.6762 44.5306 35.1899 45.0786 35.1545" stroke="black" stroke-width="2" stroke-miterlimit="10" stroke-linecap="round"/>
    <path d="M39.5493 30.818C39.5203 30.7241 39.4829 30.6088 39.5296 30.5642C39.7662 30.3326 40.5049 31.0495 40.3291 31.3164C40.2599 31.4215 39.9523 31.4466 39.8242 31.3006" stroke="black" stroke-width="2" stroke-miterlimit="10" stroke-linecap="round"/>
    <path d="M43.8073 40.6665C43.8073 40.6665 44.2683 40.1021 43.0891 38.8467C41.91 37.5914 40.5682 36.9982 40.5364 35.9502C40.5046 34.9023 40.47 33.2257 40.3288 32.5618C40.2474 32.1759 40.0567 31.6878 39.8238 31.3009" stroke="black" stroke-width="2" stroke-miterlimit="10" stroke-linecap="round"/>
</svg>
