<?xml version="1.0" encoding="utf-8"?>
<!-- Generator: Adobe Illustrator 27.0.1, SVG Export Plug-In . SVG Version: 6.00 Build 0)  -->
<svg version="1.1" id="Layer_1" xmlns="http://www.w3.org/2000/svg" xmlns:xlink="http://www.w3.org/1999/xlink" x="0px" y="0px"
	 viewBox="0 0 128 146" style="enable-background:new 0 0 128 146;" xml:space="preserve">
<style type="text/css">
	.st0{clip-path:url(#SVGID_00000002378255894244875390000017406292568407159478_);}
	.st1{fill:#E9D2B1;}
	.st2{fill:#EDCEBB;}
	.st3{fill:#C4AB9A;}
	.st4{fill:#8AA0BC;}
	.st5{fill:#475196;}
	.st6{fill:#B69880;}
	.st7{fill:#CCDCEE;}
	.st8{fill:#292F73;}
	.st9{fill:#1D273D;}
	.st10{fill:#F4E7D4;}
	.st11{fill:#513710;}
	.st12{fill:#E7F1FC;}
	.st13{fill:#2D200A;}
	.st14{fill:#FFFFFF;}
	.st15{fill:#B6B6B6;}
	.st16{fill:#D9D9D9;}
	.st17{fill:#2F3996;}
	.st18{fill:#2C3453;}
	.st19{fill:#E2E1E1;}
	.st20{fill:#2C1F09;}
	.st21{fill:#2E210B;}
	.st22{fill:#E8EAEB;}
	.st23{fill:#725E4C;}
	.st24{fill:#463B30;}
	.st25{fill:#8D7562;}
	.st26{fill:#DAC8B9;}
	.st27{fill:#B79980;}
	.st28{fill:#483D35;}
</style>
<g>
	<defs>
		<rect id="SVGID_1_" width="128" height="146"/>
	</defs>
	<clipPath id="SVGID_00000082369816611606035430000015581183564838123946_">
		<use xlink:href="#SVGID_1_"  style="overflow:visible;"/>
	</clipPath>
	<g style="clip-path:url(#SVGID_00000082369816611606035430000015581183564838123946_);">
		<path class="st1" d="M12.3,42.9c-0.6,3.9-4.1,28.7,21,34.7c11.9,2.8,21.5,4.5,23.2,13.7c1.7,9.2-0.7,11.3-2.6,14.4
			c-1.9,3.1-4.3,2.9-4.3,2.9l-16.2,0.2c0,0-3.7-2.1-5.8-6.1c-2.1-4-10.1-11.5-19.1-2.5c-12.8,14.7-4.5,40.4,34.6,44.9
			c39.1,4.5,54.1-14.1,61.2-19.4c7.1-5.3,32.4-22.9,20.5-45.5c-7.7-14.5-11.4-11.5-13-24.8c-1.6-13.3,4-22-8.1-31.7
			c-12.2-9.7-31.6,8.6-43.3,5.9C48.7,27,44.9,18.5,30.6,22C16.2,25.6,12.3,43,12.3,42.9L12.3,42.9z"/>
		<path class="st2" d="M96.6,134.7c-0.1,0-0.1,0.1-0.2,0.1c-1.1,1.7-3.1,2.3-5.3,1.6c-0.2-0.1-1.2-2.9-1.1-3
			c1.9-0.3,4.1-0.1,5.9-0.8C96.2,133.3,96.4,134,96.6,134.7L96.6,134.7z"/>
		<path class="st3" d="M96,132.8c-1.6,1.1-3.3,1.6-5.3,1.5c-0.2,0-0.4-0.1-0.5-0.3c-0.1-0.2-0.2-0.5-0.3-0.8
			c0.1-0.3,0.4-0.3,0.7-0.2c1.6-0.5,3.3-1.1,4.9-1.7L96,132.8L96,132.8z"/>
		<path class="st4" d="M95.3,126.1c0.3,1.4,0.6,2.8,0.9,4.2c0.1,0.4,0.1,0.8-0.3,1c-0.1,0.3-0.3,0.4-0.6,0.5
			c-1.3,0.5-2.7,0.9-4.1,1.4c-0.2,0.1-0.4,0.1-0.6-0.1c-0.2-0.2-0.2-0.4-0.2-0.7c0-4.1-1.2-8.1-2.3-12c-1.8-6.8-3.6-13.5-5.5-20.2
			c-1.2-4.2-2.8-8.2-4.9-12c-1.1-2-2.3-4-3.7-5.8c-0.2-0.3-0.5-0.6-0.8-0.9c-0.8-0.8-1.2-1.9-1.8-2.9c-1.7-2.5-3.5-4.9-5.9-6.9
			c-0.1,0-0.1-0.1-0.2-0.2c-0.1-0.1-0.2-0.2-0.3-0.3c-2.6-2.1-5.3-4.1-8.3-5.6c-1.4-0.7-2.7-1.6-4.2-2.3c-0.9-0.4-1.9-0.7-2.9-0.7
			c-1.8,0.1-2.9,1.1-3,2.9c-0.1,0.9-0.1,1.9,0.1,2.9c0.1,0.9,0.1,1.7,0.4,2.6c1,5.5,1.8,11,3,16.4c0.7,2.8,1.4,5.5,2.1,8.2
			c0.2,0.7,0.4,1.5-0.5,1.9c-1,0.1-1.9,0.6-2.9,0.3c-0.3-0.3-0.4-0.6-0.5-1C47,89.7,45,82.5,44.1,75.1c-0.4-3-0.5-5.9-0.3-8.9
			c0.3-3.7,3.4-6,7-5.2c2.2,0.5,4.2,1.6,6.3,2.6c2.3,1.1,4.7,2,7.3,2.5c0.7,0.1,1.4,0.2,2.1,0c2.5-0.4,3.6-2.5,2.6-4.8
			c-0.1-0.2-0.3-0.5-0.3-0.8c0.3-0.5,0.7-0.2,1-0.1c1.5,0.6,2.9,1.5,4.3,2.2c1.1,0.5,2.2,1.1,3.3,1.5c1.1,0.3,2.1,0.5,3.1-0.2
			c0.2-0.1,0.4-0.2,0.7-0.1c0.6,0.6,0.7,1.4,1,2.2c1.6,4.3,2.4,8.7,3.5,13.2c0.3,1.3,0.6,2.5,0.9,3.8c1.1,4.3,2,8.6,2.9,12.9
			c0.6,2.7,1,5.5,1.4,8.2c0.7,4.4,1.8,8.8,2.8,13.2c0.5,2.4,1,4.8,1.6,7.2C95.4,125,95.3,125.5,95.3,126.1L95.3,126.1z"/>
		<path class="st5" d="M96.6,134.7c1.3,0.6,2.6,1.2,3.9,1.6c1.5,0.5,3,1.2,4.5,1.8c1.5,0.6,3.1,1,4.6,1.3c1.3,0.3,2.6,0.7,3.7,1.6
			c0.4,0.3,0.6,0.6,0.8,1l0,0c0.4,0.6,0.8,1.2,0.6,2c-0.6,0.4-1.2,0.1-1.8,0c-4.4-1-8.3-3.3-12-5.8c-1-0.7-2-1.2-3.1-1.9
			c-0.6-0.4-1.3-0.7-1.4-1.6C96.4,134.8,96.4,134.7,96.6,134.7L96.6,134.7z"/>
		<path class="st6" d="M105.1,81.2c1.5-1.8,3.3-3.3,5-4.9c0.3-0.2,0.6-0.1,0.9-0.2C109.1,77.9,107.1,79.5,105.1,81.2L105.1,81.2z"/>
		<path class="st7" d="M78.6,96.8c-0.7-3.7-1.9-7.2-3.3-10.6c-0.7-1.7-1.4-3.3-2.1-5c1.4,1.3,2.6,2.9,3.5,4.6
			c3.4,5.7,5.6,11.8,7.2,18.2c1.6,6.3,3.5,12.6,5.1,18.9c0.9,3.3,1.7,6.6,1.6,10.1c-0.2,0.1-0.4,0.3-0.6,0.4H90l-0.1,0
			c-0.2-0.2-0.5-0.9-0.8-1.4c-0.2-0.5-0.4-1-0.6-1.5c-0.9-3.4-2.1-6.6-3.2-9.9c-1.7-5.3-3.7-10.6-5-16.1c-0.6-2.4-1.1-4.9-1.6-7.3
			C78.7,97.1,78.8,96.9,78.6,96.8L78.6,96.8z"/>
		<path class="st8" d="M32.7,107.6c0.1-0.1,0.1-0.1,0.2-0.2c0.2-0.3,0.6-0.5,1-0.6c0.6-0.2,1.2-0.4,1.8-0.5c3-0.4,5.7-1.8,8.2-3.4
			c1.1-0.7,2.3-1.3,3.4-1.9c0.7,0,1.3,0.7,2.1,0.6c0.8-0.1,1.5-0.1,2-0.8c0.2-0.2,0.4-0.6,0.7-0.2c0.3,1.5,0,3-0.5,4.5
			c-0.4,1.1-1.3,1.5-2.3,1.8c-1.8,0.5-3.8,0.7-5.7,0.9c-3.4,0.3-6.7,0.4-10.1,0.4c-0.3,0-0.5,0-0.8-0.2
			C32.8,107.8,32.8,107.7,32.7,107.6L32.7,107.6z"/>
		<path class="st9" d="M32.8,107.9c0.4-0.1,0.9-0.2,1.3-0.2c4.6-0.1,9.1-0.2,13.6-0.9c0.7-0.1,1.3-0.3,2-0.5c2.1-0.7,2-2.6,2.3-4.2
			c0.1-0.6,0-1.2,0-1.8c0.1-0.2,0.2-0.3,0.4-0.1c0.8,2.5,1.1,5,1.8,7.5c-0.1,0.5,0.2,0.9-0.1,1.5c-0.9,0.1-1.9,0.2-2.9,0.2
			c-5.7,0-11.5,0.1-17.2,0.1C32.7,109.6,32.8,108.7,32.8,107.9L32.8,107.9z"/>
		<path class="st10" d="M78.6,96.8c0.1,0.1,0.1,0.2,0.2,0.4C78.8,97,78.7,96.9,78.6,96.8z"/>
		<path class="st8" d="M26.8,24.6c0.2-0.8,0.6-1.6,1.1-2.3c0.2-0.4,0.6-0.6,1-0.8c2.4-1.1,4.3-2.8,5.6-5.1c0.2-0.4,0.4-0.9,1-1
			c1.4,1.2,2.5,2.5,2.3,4.5c-0.3,1.7-1,3.2-1.9,4.6c-0.6,0.7-1.3,1.3-1.9,2c-0.7,0.9-0.7,1.3,0.2,2c0.8,0.7,1.9,0.9,2.9,0.9
			c2.9,0,5.6,0.8,8.4,1.5c2.8,0.8,5.6,1.5,8.3,2.6c0.1,0.1,0.2,0.1,0.3,0.2c0.1,0,0.1,0.1,0.2,0.1c0.3,0.2,0.7,0.4,1.1,0.5
			c0.2,0.1,0.4,0.3,0.5,0.4c0.1,0.1,0.2,0.2,0.2,0.3c0.6,0.5,1.1,0.3,1.7,0c1.6-0.7,3.3-1.4,4.9-2.1c2.5-1,5-1.9,7.6-2.3
			c1.5-0.2,2.9-0.1,4.4-0.1c0.5,0,0.9,0.3,1.3,0.6c2.2,1.7,4,3.7,5.4,6.1c0,0.1,0.1,0.2,0.1,0.2c0,0.1,0.1,0.2,0.1,0.2
			c0,0.1,0.1,0.3,0.1,0.4c2.1,4.4,4.2,8.8,7.5,12.5c1.1,1.3,2.3,2.5,3.6,3.6c2.4,1.9,3.9,4.4,5.2,7.1c0.7,1.4,1.2,2.9,1.6,4.5
			c0.1,0.5,0.2,1,0.1,1.5c-0.1,0.3-0.2,0.5-0.4,0.7c-0.1,0.1-0.1,0.1-0.2,0.2c0,0-0.1,0.1-0.1,0.1c-0.2,0.2-0.4,0.3-0.6,0.4
			c-0.2,0.1-0.3,0.1-0.5,0.1c-2.4-0.3-4.3-1.4-5.8-3.2c-2.4-2.8-4.3-6-6-9.3c-1.4-2.6-2.6-5.2-4-7.7c-1.2-2.2-2.8-4.2-4.9-5.7
			c-1.1-0.7-2.2-1.2-3.5-1.1c-2.3,0.2-3.4,1.7-3.1,3.9c0.3,2.1,1,4.1,2,6c0.7,1.2,1.3,2.3,1.6,3.7c0.5,2.8-1.5,4.9-4.3,4.5
			c-0.4,0-0.7-0.1-1.1-0.1c-1.2-0.2-2.1-0.8-3.2-1.3c-0.9-0.4-1.9-0.8-2.8-1.2c-0.9-0.5-2-0.6-2.6-1.4c-0.2-1.7-0.3-3.3-0.7-4.9
			c-1-3.6-2.8-6.8-5.4-9.6c-4.6-5.1-10.3-8.1-16.9-9.8c-2.1-0.5-4.3-0.9-6.4-1.4c-3-0.7-4.1-2.4-3.6-5.5
			C26.7,24.9,26.7,24.7,26.8,24.6L26.8,24.6z"/>
		<path class="st7" d="M62.4,57.5c2,0.8,4,1.7,5.9,2.5c0,0,0.1,0,0.1,0c0.1,0,0.2,0,0.3,0.1c0.1,0.1,0.1,0.2,0.1,0.3
			c0.7,1,1.1,2.1,0.8,3.3c-0.7,2.3-2.2,3-5.1,2.7c-3.5-0.5-6.6-2-9.8-3.5c-1.4-0.7-2.8-1.3-4.4-1.6c-3.5-0.6-6.3,1.7-6.5,5.3
			C43.7,72.4,44.8,78.2,46,84c0.9,4.6,1.9,9.3,2.8,13.9c-0.5,0.6-1.4,0.8-2.3,0.6c-0.6,0.2-0.9,0.1-1-0.6c-0.1-0.7-0.3-1.4-0.5-2.1
			c0-0.4-7.1-27.5-7.4-27.8c-0.1-0.3-0.1-0.6-0.2-0.9c-0.6-3.1-1.4-6.1-1.3-9.2c0-1.4-0.1-2.8,1.1-3.9c0.4-0.1,0.6,0.1,0.9,0.2
			c2.7,0.9,5.3,2.4,8.1,3c1.5,0.3,3,0.6,4.6,0.8c1.1,0.1,2.2,0.3,3.3,0.6c2.5,0.6,4.9,0.5,7.1-0.7C61.7,57.6,62.1,57.5,62.4,57.5
			L62.4,57.5z"/>
		<path class="st11" d="M55.6,2.4c0.9,0.2,1.8,0.4,2.7,0.5c1.5,0.2,2.5,1.1,3.2,2.3c0.5,1,1,2,2,2.6c0.2,0.1,0.3,0.4,0.4,0.6
			c0.4,1.2,1,2.3,1.1,3.6c0.3,2.3-0.2,4.2-2.1,5.6c-0.3,0.2-0.5,0.4-0.9,0.4c-0.4-0.3-0.2-0.7-0.1-1c0.2-0.9,0.2-1.7-0.3-2.5
			c-0.8-1.5-2.3-1.8-3.6-0.7c-0.2,0.2-0.4,0.4-0.8,0.5c-1-0.5-1.2-1.6-1.9-2.4c-0.3-0.4-0.8-0.3-1.2-0.7c-0.2-0.2,0-0.5-0.1-0.7
			c-0.3-0.2-0.6-0.1-0.9-0.2c-0.6,0.1-1.2-0.1-1.8-0.3c-1.5-0.5-3-0.7-4.6-0.5c-3.6-1.1-6.6-2.9-8.6-6.2c0,0-0.1-0.1-0.1-0.1
			C38,2.4,38,1.5,38.4,0.7c0.3-0.6,0.8-0.9,1.3-0.4c2.3,2.4,5.3,2.4,8.3,2.3C50.5,2.4,53,2.4,55.6,2.4L55.6,2.4z"/>
		<path class="st5" d="M26.8,24.6c0,0.6,0,1.1,0.1,1.7c0.6,3.7,1,3.5,4.9,4.2c6.5,1.2,12.8,3.1,18.1,7.2c4.9,3.9,8.5,8.7,9.8,15
			c0.2,1.2,0.3,2.4,0.2,3.6c-0.2,0.1-0.4,0.1-0.6,0.1c-1-0.3-1.8-0.8-2.8-1.3c-0.2-0.1-0.3-0.2-0.2-0.4c-0.8-9-7.9-18.6-18.5-20.5
			c-2-0.4-4-0.6-6-0.9c-1-0.2-1.9-0.5-2.9-0.7c-2.7-0.8-3.2-2.5-3-4.7C26,26.7,26.3,25.6,26.8,24.6L26.8,24.6z"/>
		<path class="st12" d="M56.3,54.6c1.2,0.6,2.3,1.3,3.6,1.7c0.8,0.4,1.7,0.8,2.5,1.2c-2.3,1.5-4.9,2-7.5,1.5
			c-3.2-0.7-6.6-0.8-9.7-1.8c-2.7-0.9-5.4-2-7.9-3.2c1.2-1.7,3.1-2.1,5-2.1c4.6-0.1,9,0.9,13.2,2.6C55.8,54.5,56,54.5,56.3,54.6
			L56.3,54.6z"/>
		<path class="st2" d="M53.5,10.1c0.4,0,0.9-0.2,1.2,0.2c0.1,0.4-0.3,0.5-0.4,0.8c0,0,0,0.1,0,0.1c0,0.1-0.1,0.2-0.2,0.2
			c-0.1,0.1-0.3,0.3-0.4,0.3c-2.6,0.7-5,2.2-7.8,2.1c-0.4,0-0.8,0.1-1.1,0.2c-1,0.5-2,0.7-3.1,0.7c-0.2,0-0.3,0.1-0.4,0.1
			c-0.6,0.1-1.2,0.2-1.8,0.5c-0.2,0-0.3-0.1-0.4-0.2c-0.4-0.7-0.6-1.4-1-2.1c-0.1-0.5-0.5-0.9-0.3-1.5c0.6-0.7,1.5-0.9,2.3-1.3
			c0.4,0.2,0.8-0.1,1.1-0.2c1.3-0.1,2.6-0.1,3.9,0.1c1.3,0.2,2.7,0.2,4,0C50.5,10.1,52,10.2,53.5,10.1L53.5,10.1z"/>
		<path class="st13" d="M38.1,3.3c0.1-0.1,0.1-0.4,0.3-0.1c1.9,3.1,4.9,4.9,8.2,6.2c-0.1,0.3-0.3,0.4-0.5,0.4
			c-1.6,0.3-3.2,0.5-4.8,0.5c-0.2,0-0.3-0.1-0.4-0.2C39.3,8.1,38.2,5.9,38.1,3.3L38.1,3.3z"/>
		<path class="st5" d="M35.3,15.5c-1.6,3.2-4.1,5.5-7.4,6.8c1.6-3,3.7-5.5,6.3-7.6c0.1-0.1,0.4-0.2,0.6-0.3c0.1,0,0.2,0.1,0.3,0.2
			c0.1,0.2,0.3,0.4,0.3,0.7C35.4,15.3,35.4,15.4,35.3,15.5z"/>
		<path class="st3" d="M40.9,10.1c1.9,0,3.8-0.4,5.7-0.7c1.7-0.4,3.4-0.1,5,0.5c0.6,0.2,1.2,0.2,1.8,0.3c-2.6,0.4-5.2,0.9-7.9,0.6
			c-1.6-0.2-3.1-0.3-4.7-0.2c-0.2,0.1-0.2,0-0.2-0.2C40.8,10.2,40.8,10.1,40.9,10.1L40.9,10.1z"/>
		<path class="st14" d="M34.9,14.6c0-0.1-0.1-0.1-0.1-0.2c0.2-1.6,1-2.9,1.7-4.4c0.9,0.4,0.8,1.2,1.2,1.7c0.2,0.5,0.3,0.9,0.5,1.4
			c-0.6,1.1-1.6,1.4-2.7,1.7C35.2,15,35.1,14.8,34.9,14.6L34.9,14.6z"/>
		<path class="st2" d="M40.7,10.3c0.1,0.1,0.1,0.1,0.2,0.2c-0.3,0.2-0.6,0.3-0.9,0C40.2,10.4,40.4,10.3,40.7,10.3z"/>
		<path class="st9" d="M94.8,71.5c-3.3-2-5.6-4.9-7.9-7.9c-2.5-3.2-4.4-6.8-6.3-10.3c-1.5-2.8-3.2-5.6-5.5-7.9
			c-0.6-0.6-1.3-1.3-2.3-1.5c-0.4,0.6,0,1.1,0.3,1.5c1.2,2.3,2.7,4.4,4.2,6.6c1.7,2.5,3.6,5,4.3,8c0.3,1.3,0.3,2.6-0.5,3.7
			c-1,1.1-2.3,1.1-3.6,0.7c-2.1-0.7-3.9-1.8-5.8-2.8c-0.9-0.5-1.8-1-2.8-1.3c-0.1-0.1-0.1-0.1-0.2-0.2c-0.1-0.1-0.3-0.1-0.3-0.2l0,0
			c0.9-0.2,1.7,0.1,2.6-0.1c1.4-0.3,2.6-1.6,2.6-3.1c0-1.7-0.7-3.1-1.6-4.5c-1.2-1.9-1.9-4-2.2-6.3c-0.1-1.3,0-2.6,1.2-3.4
			c1.5-1,3.1-1.2,4.7-0.4c2.8,1.4,4.7,3.7,6.1,6.3c2.5,4.4,4.4,9.2,7.3,13.4c1.6,2.4,3.1,5,6,6.2c0.8,0.3,1.7,0.6,2.5,0.8
			c0.1,0.2,0,0.4-0.2,0.6c-0.7,0.7-1.5,1.3-2.3,1.9C95.1,71.5,95,71.6,94.8,71.5L94.8,71.5z"/>
		<path class="st3" d="M46.5,98.5c0.8-0.2,1.5-0.4,2.3-0.6c1-0.1,1.9-0.3,2.9-0.4c0.1,0.4,0.1,0.8,0.2,1.2c-0.2,0.4-0.4,0.7-0.8,0.9
			c-1.3,0.5-2.6,1.1-4,0.4C46.8,99.5,46.6,99,46.5,98.5z"/>
		<path class="st8" d="M91.4,136.1c2,0.8,3.6,0.1,5-1.3c0.4,1.1,1.5,1.4,2.4,1.9c2.3,1.4,4.5,2.8,6.8,4.2c2.1,1.3,4.4,2.1,6.7,2.7
			c0.1,0,0.3,0.1,0.4,0.2c-0.4,0.4-0.9,0.3-1.4,0.3c-3.4-0.1-6.7-0.4-10.1-0.8c-1.7-0.2-3.3-0.5-5-0.7c-1.9-0.2-3.2-1.2-3.9-3
			c-0.3-0.9-0.6-1.9-0.9-2.8C91.4,136.6,91.3,136.4,91.4,136.1L91.4,136.1z"/>
		<path class="st9" d="M91.4,136.1c0.5,1.3,1,2.7,1.4,4c0.5,1.5,1.8,2,3.2,2.2c5.5,0.8,11,1.5,16.6,1.5c0.7,0.1,1.3,0.1,2,0.2l0,0
			c0.7,1,0.3,1.8-0.9,1.9c-1.8,0.2-3.6,0-5.4-0.2c-2.4-0.2-4.8-0.5-7.2-0.5c-2.3,0-4.7-0.2-7-0.4c-1.5-0.1-1.8-0.5-1.8-1.9
			c-0.5-1.9-0.7-3.8-1.4-5.6c-0.1-0.5-0.1-0.9-0.2-1.4C91.1,136,91.3,135.9,91.4,136.1L91.4,136.1z"/>
		<path class="st2" d="M47,100c1.7,0.1,3.4-0.2,4.8-1.3c0.2,0.5,0.4,1,0.5,1.5c-0.1,0-0.3-0.1-0.4,0.1c-0.6,1.8-3,2.1-4.6,0.7
			c-0.1,0-0.3,0-0.4-0.1C47,100.7,47,100.3,47,100L47,100z"/>
		<path class="st5" d="M47,101c0.1,0,0.2,0.1,0.4,0.1c-2.3,1.6-4.8,3.1-7.3,4.3c-1.8,0.9-3.9,1.1-5.9,1.6c-0.4,0.1-0.8,0.2-1.2,0.4
			c0.6-1.8,2.1-2.5,3.8-2.9C40.3,103.8,43.5,102.1,47,101z"/>
		<path class="st9" d="M35.8,24.6c3.9,1.2,7.8,2.3,11.6,3.5c0.5,0.1,1,0.2,1.5,0.4c0.6,0,1.1,0.3,1.5,0.8c1.1,1.4,2.3,2.7,3.5,4
			c0.1,0.1,0.2,0.3,0.3,0.4c0,0.1,0.1,0.2,0.1,0.2c0,0,0,0.1,0,0.1c0,0.1-0.1,0.2-0.3,0.1c-0.1,0-0.1,0-0.2,0
			c-0.1-0.1-0.1-0.1-0.2-0.2c-4.8-1.8-9.7-3.2-14.8-4.1c-1.2-0.2-2.5,0-3.7-0.4c-0.3-0.1-0.6-0.2-0.9-0.4c-1.5-0.9-1.6-1.7-0.4-2.9
			c0.6-0.6,1.2-1.2,1.8-1.7l0,0C35.7,24.5,35.8,24.6,35.8,24.6L35.8,24.6z"/>
		<path class="st5" d="M81.4,38.3c0.7,1.1,1.5,2.2,2.2,3.4c1.9,3.1,4.5,5.6,7.1,8c3.9,3.6,6.6,8,8.4,13c0.5,1.5,1,3.1,0.8,4.7
			c-0.1,0.4-0.3,0.5-0.7,0.4c-0.3-3.3-1.6-6.2-3.3-9c-0.9-1.5-2-2.8-3.4-4c-5.2-4.5-8.7-10.2-11.3-16.5c0,0,0.1-0.1,0.1-0.1
			C81.3,38.2,81.3,38.2,81.4,38.3z"/>
		<path class="st5" d="M65.3,29.3c2.1-0.1,4.2-0.2,6.3,0.4c1.1,0.3,2.2,0.7,3.1,1.4c-5.7-0.5-10.8,1.7-15.9,4
			c-0.6,0.3-1.2,0.6-1.8,0.8c-0.6,0.2-1.2,0.1-1.4-0.6c0,0,0-0.1,0.1-0.1c0.2-0.1,0.4-0.2,0.5-0.3c2.7-1.5,5.3-3.2,7.8-5
			C64.4,29.6,64.7,29.1,65.3,29.3L65.3,29.3z"/>
		<path class="st15" d="M94.8,71.5c1-0.8,1.9-1.7,2.9-2.5c0.1-0.1,0.2-0.1,0.3-0.2c0.7,1,0.9,2.2,1.3,3.3c-0.1,1-1,1.4-1.6,2
			c-0.2,0.2-0.5,0.1-0.7,0.3c-0.3,0.4-0.7,0.7-1.3,0.9C95.2,74,95.5,72.6,94.8,71.5L94.8,71.5z"/>
		<path class="st15" d="M54,33.7c-0.1-0.1-0.1-0.2-0.2-0.3c0.1-1,0-1.9-0.4-2.8c-0.4-0.8-1.2-1.4-1.5-2.3c0.2-0.3,0.4-0.1,0.6-0.1
			c0.1,0,0.2,0,0.4,0c0.6,0,0.9,0.3,1.2,0.7c0.9,1.2,2,2.3,2.8,3.6c-0.1,1-0.7,1.8-1.3,2.5c-0.1,0.1-0.2,0-0.2-0.1
			c-0.1-0.1-0.2-0.2-0.4-0.3c-0.3-0.2-0.7-0.4-0.9-0.7C54.2,33.9,54.1,33.8,54,33.7L54,33.7z"/>
		<path class="st15" d="M39.4,15.5c0.3,0.9,0.9,1.7,1,2.8c-0.9,0.4-1.8-0.3-2.7-0.1c-0.2,0.6,0.1,1.2-0.3,1.8c0.3-2-1.2-3.2-2.2-4.5
			c0-0.1,0-0.1,0-0.2c1.2-0.6,2.5-0.5,3.7-0.1C39.2,15.3,39.3,15.4,39.4,15.5z"/>
		<path class="st14" d="M99.2,67.8c0.2-0.1,0.5-0.3,0.7-0.4c1.1,0,2,0.7,2.9,1.2c0.9,0.5-0.2,0.9-0.4,1.3c-0.1,0.6-0.6,0.8-1.1,0.9
			c-1.5-0.1-2.6-1.1-2.7-2.4v0c0.1,0,0.1-0.1,0.2-0.2C98.9,68.1,99.1,67.9,99.2,67.8L99.2,67.8z"/>
		<path class="st16" d="M98.6,68.4c0.6,1.1,1.3,2.1,2.7,2.2c-0.3,0.9-1.3,1.6-2.1,1.6c-0.4-1.1-0.9-2.2-1.1-3.4
			C98.2,68.7,98.4,68.5,98.6,68.4z"/>
		<path class="st9" d="M54.2,33.9c0.3,0.2,0.6,0.5,0.9,0.7c-0.4-0.1-0.8-0.2-1.1-0.5C54.1,34.1,54.1,34,54.2,33.9z"/>
		<path class="st17" d="M81.4,38.3c-0.1,0-0.1,0-0.2,0c0-0.1,0-0.2,0-0.3C81.2,38,81.3,38.1,81.4,38.3L81.4,38.3z"/>
		<path class="st17" d="M55.4,35c0.1,0,0.1,0,0.2,0c0.1,0,0.1,0.1,0.1,0.1c0,0,0,0-0.1,0.1C55.5,35.2,55.5,35.1,55.4,35L55.4,35z"/>
		<path class="st18" d="M53.6,34c0.1,0.1,0.1,0.1,0.2,0.2C53.8,34.1,53.7,34,53.6,34z"/>
		<path class="st19" d="M98.8,68.2c-0.1,0.1-0.1,0.1-0.2,0.2C98.7,68.4,98.7,68.3,98.8,68.2z"/>
		<path class="st8" d="M68.4,60c0.1,0.1,0.2,0.1,0.3,0.2C68.6,60.1,68.5,60.1,68.4,60z"/>
		<path class="st2" d="M56.8,32.5c-1.1-1-1.9-2.2-2.9-3.4c-0.3-0.4-0.6-0.7-1.1-0.9c0.3,0,0.4-0.3,0.4-0.6c0.3-0.4,0.8-0.7,1.3-1
			c1.7-1.2,3-3.7,3-5.8c-1.5,1.5-3,2.8-4.6,3.9c-1.1,0.3-2.1,0.9-3.2,1.3c-2.2,0.9-3.6-0.6-4-2.3c-0.6-2.3-0.5-4.6-0.3-6.9
			c0.6-0.3,1,0.1,1.5,0.2c0.4,0.1,0.8,0.4,1.3,0.3c0.5-0.6,0.1-1-0.4-1.4c-0.5-0.4-1.1-0.6-1.6-1c-0.3-0.3-0.8-0.5-0.4-1
			c0.1,0,0.2-0.1,0.3-0.1c0.2,0,0.4,0.1,0.5,0.1c1.7,0.6,3.3,0.3,4.9-0.4c1.2-0.5,2.4-0.9,3.5-1.7c0.1-0.1,0.3-0.2,0.5-0.1
			c0.7,0.1,0.5,0.7,0.8,1.1c0.4,0.4,0.6,1,1.1,1.3c1.4-1.3,2.2-1.6,3.4-1c1.2,0.7,1.9,2.3,1.5,3.9c-0.1,0.3-0.2,0.6-0.3,0.9
			c0,0.7-0.6,0.9-1.2,1.2c-0.4,0.2-0.8,0.1-1.3,0.4c0.1,1,0.1,2,0.1,3.1c0.1,1.1,0.3,2.1,0.4,3.2c-0.6,0.7-0.2,1.3,0,2
			c0.2,0.4,0,0.6-0.2,0.9c-0.8,1.2-1.6,2.3-2.4,3.5C57.2,32.5,57.1,32.7,56.8,32.5L56.8,32.5z"/>
		<path class="st20" d="M60,25.9c-0.2-0.2-0.4-0.4-0.4-0.7c-0.2-2-0.3-4-0.5-6.1c1.2,0.2,2.2-0.1,2.9-1.1c3.6-2,3.3-5.4,2.1-8.4
			c-0.1-0.4-0.6-0.6-0.3-1.1l0,0c0.1,0.1,0.1,0.1,0.2,0.2l0,0C64,8.7,64,8.8,64.1,8.8l0,0c0.1,0,0.1,0.1,0.2,0.2l0,0
			c0.1,0,0.1,0.1,0.1,0.1c3.6,3.7,3.6,7.8,0.1,12.2c-0.3,0.3-0.6,0.6-0.8,1c-0.8,1.2-0.7,2,0.3,3c0.2,0.2,0.3,0.3,0.3,0.8
			C62.8,26.8,61.4,26.4,60,25.9L60,25.9z"/>
		<path class="st21" d="M55.5,11.7c-2.7,1.8-5.5,3.5-9,2.5c-0.1-0.1-0.3-0.1-0.4-0.1c0,0-0.1-0.1-0.1,0c-0.1-0.1-0.3-0.1-0.2-0.3
			c3,0,5.5-1.5,8.2-2.4c0.1-0.1,0.1-0.1,0.2-0.1l0,0C54.7,11.3,55.2,11.1,55.5,11.7L55.5,11.7z"/>
		<path class="st3" d="M45.8,13.7c0.1,0.1,0.1,0.2,0.2,0.3c-0.2,0.7,0.5,0.8,0.9,1c0.6,0.4,1.3,0.6,1.7,1.2c0.3,0.4,0.5,0.9,0.1,1.3
			c-0.4,0.5-0.8,0.2-1.2,0.1c-0.7-0.2-1.4-0.4-2-0.7c-1.6-0.4-3-1.1-4.3-2c-0.1-0.2-0.1-0.4,0.2-0.3c1.3,0.1,2.5-0.2,3.7-0.8
			C45.1,13.6,45.5,13.7,45.8,13.7L45.8,13.7z"/>
		<path class="st22" d="M39.1,15.2c-1.3,0-2.5,0-3.7,0.1c-0.1-0.2-0.3-0.5-0.4-0.7c1,0.2,1.7-0.4,2.5-0.9c0.3-0.2,0.5-0.4,0.8-0.5
			C38.6,13.8,38.9,14.5,39.1,15.2z"/>
		<path class="st11" d="M54.2,11.2c-0.1,0-0.1,0.1-0.2,0.1C54.1,11.3,54.1,11.2,54.2,11.2z"/>
		<path class="st23" d="M115.7,97c-1.2,1.2-2.5,2.4-3.8,3.5c-3.3-1.3-5.3-5.8-2.3-8.6c4.1-3.8,8.1-7.7,12.1-11.7
			c0.2-0.2,0.4-0.4,0.7-0.4c1.7,1.3,2.7,3,3.2,5.1c0.1,0.6-0.3,1.3-0.6,1.8c-1.6,2.4-3.3,4.6-5.5,6.5C118.1,94.5,117,95.8,115.7,97
			L115.7,97z"/>
		<path class="st24" d="M122.4,79.9c-1.9,2-3.8,3.9-5.8,5.8c-0.7,0.6-1.4,1.3-2.1,2c-1.4,1.4-2.8,2.8-4.3,4.1
			c-3,2.5-1.9,6.1,0.6,7.9c0.4,0.3,0.7,0.6,1.1,0.9c-0.8,0.9-1.8,1.6-2.8,2.3c-2.5-2.7-4.9-5.4-7.3-8.1c-0.3-0.4,0.1-0.6,0.3-0.9
			c0.3-0.3,0.7-0.5,1-0.9c0.6-0.5,1.1-1.3,2-1.5c0.5,0,0.9,0.4,1.3,0.6c0.3,0.2,0.6,0.3,1,0.3c1-0.3,1.2-0.9,0.7-1.7
			c-0.3-0.4-0.7-0.8-0.6-1.4c0.5-1,1.5-1.6,2.3-2.3c1-1,2-2,3.2-2.9c0.3-0.2,0.5-0.4,0.8-0.5c0.8,0.1,1.4,0.9,2.2,0.8
			c0.7-0.3,0.8-0.6,0.4-1.4c-0.2-0.5-0.7-0.9-0.5-1.5c1-1.2,2.2-2.2,3.3-3.2c0.5-0.5,0.9-1,1.6-1.3c0.1,0,0.3,0,0.4,0.1l0,0
			c0,0.1,0.1,0.1,0.2,0.2c0.2,0.2,0.4,0.5,0.5,0.7C122,78.7,122.4,79.3,122.4,79.9L122.4,79.9z"/>
		<path class="st25" d="M103.3,93.2c-0.3,0.7-1.3,0.8-1.4,1.6c-0.4,0.2-0.6,0-0.8-0.3c-1.7-1.9-3.4-3.9-5.2-5.8
			c-0.3-0.4-0.6-0.7-0.5-1.3c1.2-1.1,2.3-2.1,3.5-3.2c0.2-0.2,0.5-0.3,0.4-0.7c0.1-0.1,0.2-0.1,0.2,0c0.7,0.7,1.5,0.6,2.4,0.6
			c0.4,0.5-0.1,0.7-0.3,0.9c-0.8,0.9-1.7,1.7-2.5,2.6c3.3-2.2,6.1-4.9,9.1-7.5c1.5-1.4,3.1-2.7,4.7-4c0.1,0,0.2-0.1,0.2-0.1
			c0,0,0.1,0,0.1,0c0.5,0.5,0,0.9-0.3,1.2c-1.7,1.9-3.3,3.8-5.2,5.6c-1.9,1.8-3.5,3.8-5,6c-0.8,1.3-1.1,2.5,0.1,3.7
			C103.1,92.8,103.3,93,103.3,93.2L103.3,93.2z"/>
		<path class="st25" d="M122.4,79.9c-0.4-0.5-0.6-1.1-0.5-1.8c0.4,0.4,0.7,0.7,1.1,1.1c1.7,2,3.5,3.9,5.2,5.8
			c-1,1.1-1.9,2.1-2.9,3.1c-2.9,2.9-5.9,5.7-8.9,8.5c-0.2,0.2-0.4,0.3-0.6,0.4c0.8-1.1,1.7-2.1,2.6-3c2.3-2.2,4.5-4.6,6.3-7.3
			c0.8-1.2,0.8-2.3,0-3.6C124,82.1,123.3,80.9,122.4,79.9z"/>
		<path class="st24" d="M102.1,84.3c-1.1,0.3-2.1,0.3-2.8-0.7c-0.6-0.7-1.2-1.3-1.8-2c-0.2-0.2-0.1-0.4,0.1-0.5c1-0.8,1.5-1.9,2-3
			c0.1-0.1,0.2-0.2,0.3-0.3c0.8,0.4,1.4,0.8,1.8,1.6c-0.4,0.8-0.2,1.5,0.4,2.1c0.6,0.8,0.9,1.6,0.5,2.5
			C102.5,84.1,102.3,84.3,102.1,84.3L102.1,84.3z"/>
		<path class="st3" d="M100,77.8c-0.6,1.4-1.3,2.7-2.5,3.7c-0.4-0.1-0.7-0.2-1.1-0.3c-0.4-0.6-0.1-1.2,0.1-1.7
			c0.6-1.4,0.9-2.9,0.8-4.5c0-0.3,0.1-0.6-0.4-0.7c0.2-0.1,0.3-0.2,0.5-0.4c0.3,0.1,0.5,0.4,0.6,0.7c0.5,0.9,1,1.7,1.6,2.4
			C99.9,77.3,100.2,77.5,100,77.8L100,77.8z"/>
		<path class="st2" d="M100,77.8c-1-1.1-1.9-2.4-2.5-3.8c0.5-0.6,1.4-1,1.7-1.8c0.9-0.3,1.4-1,2.1-1.6c0.4-0.3,0.7-0.5,1.1-0.8
			c1,0.2,1.8,0.7,2.6,1.3c0.3,0.2,0.6,0.5,1,0.4c1.1,0.6,2.1,1.3,2.1,2.7c-0.2,0.3-0.5,0.7-0.5,1.1c0,0.1,0,0.3-0.1,0.4
			c-0.9,0.8-1.4,2.1-2.7,2.7c-0.5,0.2-0.7,0.6-1,0.9c-0.7,0.7-1.4,0.7-2.1,0C101.1,78.9,100.6,78.3,100,77.8L100,77.8z"/>
		<path class="st26" d="M102.1,84.3c0.1-0.1,0.2-0.2,0.3-0.4c0.7-1.1,1.7-2,2.6-2.9c1.9-1.7,3.8-3.3,5.8-5c0.1-0.1,0.2-0.2,0.3-0.3
			c0.2-0.2,0.4-0.3,0.6-0.4c1.1-0.9,2.3-1.9,3.1-3.3c-1-0.2-1.5,0.3-2.2,0.7c-0.5,0.3-0.8,0.8-1.5,0.6c-0.1-0.1-0.2-0.2-0.1-0.3
			c1.2-0.4,1.9-1.6,2.9-2.3c0.4-0.3,0.6-0.6,1.2-0.7c2.2,1.9,4.2,4.3,6.1,6.5c0.1,0.3-0.2,0.5-0.2,0.7c-0.1,0-0.2,0-0.3,0.1
			c-0.5,0.3-0.8,0-1.2-0.4c-0.6-0.5-1.1-1.2-1.8-1.6c-1.1-0.8-2.4-1.2-3.5,0.1c-0.3,0.4-0.7,0.6-1.2,0.8c-0.1,0.1-0.1,0.1-0.2,0.1
			c-4.8,4.1-9.3,8.5-14.6,12C99.3,86.7,101,85.7,102.1,84.3L102.1,84.3z"/>
		<path class="st14" d="M65.3,29.3c-2.3,1.5-4.6,3.1-6.9,4.6c-0.7,0.5-1.5,0.8-2.2,1.2c-0.1,0-0.3,0.1-0.5-0.1
			c0.7-1.3,1.6-2.6,2.4-3.9c0.6-0.9,1.3-1.7,1.9-2.6c0.4-0.5,0.8-0.9,1.4-1c1.2,0,2.3,0.5,3.5,0.8C65.6,28.4,65.7,28.8,65.3,29.3
			L65.3,29.3z"/>
		<path class="st25" d="M111.1,73.1c0,0.1,0.1,0.1,0.1,0.2c1,0.6,1.2,1.3,0.6,2.3c-0.2,0.1-0.4,0.2-0.5,0.4c-0.1,0.1-0.3,0.1-0.4,0
			c-0.4-0.7-0.4-1.5-0.9-2.2c-0.9-1-1.8-2.1-3.3-2.1c-0.1,0-0.3-0.1-0.4-0.2c1.5-1.7,2.1-1.7,3.5-0.1
			C110.2,72,110.6,72.5,111.1,73.1L111.1,73.1z"/>
		<path class="st24" d="M106.2,71.5c2.5-0.1,4.8,2.1,4.6,4.5c-0.8,0.6-1.3,0-1.8-0.5c-0.3-0.4-0.7-0.8-0.8-1.3
			c-0.4-1.1-1.4-1.8-2.2-2.6C106.1,71.5,106.1,71.5,106.2,71.5z"/>
		<path class="st16" d="M61.6,27.5c-2.3,2-3.7,4.7-5.4,7.1c-0.1,0.2-0.3,0.4,0.1,0.5c-0.1,0.2-0.3,0.1-0.5,0.1c0-0.1,0-0.1-0.1-0.1
			c0.4-0.8,0.8-1.7,1.2-2.5c1-1.6,2.1-3.1,3.1-4.7C60.4,27.5,60.9,27,61.6,27.5L61.6,27.5z"/>
		<path class="st11" d="M64.4,9.2c0,0-0.1-0.1-0.1-0.1C64.3,9.1,64.3,9.1,64.4,9.2z"/>
		<path class="st11" d="M64.2,9c-0.1-0.1-0.1-0.1-0.2-0.2C64.1,8.9,64.2,9,64.2,9z"/>
		<path class="st11" d="M64.1,8.8c-0.1-0.1-0.1-0.1-0.2-0.2C63.9,8.7,64,8.8,64.1,8.8z"/>
		<path class="st11" d="M63.9,8.6c-0.1-0.1-0.1-0.1-0.2-0.2C63.8,8.5,63.8,8.6,63.9,8.6z"/>
		<path class="st26" d="M121.3,77.4l-0.2-0.2C121.2,77.3,121.2,77.3,121.3,77.4z"/>
		<path class="st3" d="M52.9,24.8c0.3-0.9,1.2-1.1,1.8-1.7c1-0.9,2-1.8,3-2.7c1,1.9-1.8,6.4-4.4,7.2C53.2,26.7,53,25.8,52.9,24.8
			L52.9,24.8z"/>
		<path class="st16" d="M52.5,28.2c-0.1,0-0.3,0-0.5,0.1c0.9,1.1,1.9,2.1,2.1,3.6c0.1,0.6,0.2,1.1-0.3,1.6c-1.3-1.2-2.5-2.6-3.6-4
			c-0.4-0.5-0.8-0.8-1.3-1c0.5,0,0-0.4,0.4-0.7C50.3,27.9,51.4,28,52.5,28.2L52.5,28.2z"/>
		<path class="st8" d="M35.8,24.6c-0.1,0-0.1-0.1-0.2-0.1C35.7,24.5,35.8,24.6,35.8,24.6z"/>
		<path class="st3" d="M46.1,14.1c0.1,0,0.3,0.1,0.4,0.1C46.3,14.2,46.2,14.1,46.1,14.1z"/>
		<path class="st27" d="M113.2,76.2c0.6-0.6,1.1-1.2,1.8-1.7c0.9-0.6,1.9-0.2,2.7,0.3c0.8,0.5,1.4,1.3,2.1,1.9
			c0.3,0.3,0.6,0.5,1,0.5c-1.6,1.5-3.1,3-4.7,4.4c-0.4,0.4-0.7,0-1.1-0.1c-0.9-0.3-1.4-0.1-1.5,0.8c0,0.5,0.6,0.9,0.2,1.4
			c-2,1.9-4.1,3.7-6.1,5.6c-0.4,0.4-0.8,0-1.1-0.1c-1-0.3-1.7,0.3-1.5,1.4c0,0.4,0.5,0.7,0.1,1.1c-0.6,0.5-1.2,1-1.7,1.5
			c-1.8-1.8-1.9-2.2-0.8-4.2c1.1-2,2.5-3.7,4.1-5.3c2.2-2.1,4.2-4.3,6.2-6.6C113.1,76.9,113.5,76.6,113.2,76.2L113.2,76.2z"/>
		<path class="st28" d="M105,91.8c-0.1-0.3-0.2-0.7-0.3-1c-0.1-0.6,0.2-0.9,0.8-1c1-0.2,2.4,0.8,2.6,1.8c0.1,0.6-0.2,1-0.6,1.3
			C106.4,92.9,105.9,92,105,91.8z"/>
		<path class="st28" d="M113.7,83.9c0.1-0.6-0.6-0.9-0.5-1.4c0.4-0.8,0.9-1,1.6-0.5c0.5,0.3,1,0.8,1.4,1.3c0.4,0.5,0.3,1.1-0.1,1.5
			C115.1,85,114.5,84.2,113.7,83.9z"/>
		<path class="st23" d="M107.4,92.8c0.5-1.4-0.1-2.6-1.5-2.8c-0.6-0.1-1.1,0-1.2,0.7c-0.3-0.6-0.1-1,0.3-1.4
			c0.4-0.4,0.9-0.4,1.4-0.3c0.4,0.1,0.7,0.5,1.1,0.4c0,0.5,0.3,0.7,0.6,1.1C109,91.6,108.8,92.4,107.4,92.8L107.4,92.8z"/>
		<path class="st23" d="M116.1,84.8c0.1-1.1-0.5-2.2-1.6-2.7c-0.6-0.3-1,0-1.3,0.4c0.2-1.3,1.1-1.7,2.1-1c0.2,0.1,0.4,0.3,0.7,0.3
			c-0.2,0.7,0.4,1,0.7,1.5C117.1,84,116.9,84.5,116.1,84.8L116.1,84.8z"/>
		<path class="st27" d="M113,76.3c0.1,0,0.1-0.1,0.2-0.1C113.1,76.2,113.1,76.3,113,76.3z"/>
		<path class="st25" d="M109,75.3c0.5,0.4,1,0.9,1.8,0.7c0.1,0,0.3,0,0.4,0c-0.1,0.1-0.1,0.1-0.2,0.2c-1.6,0.8-2.8,2.2-4.2,3.4
			c-0.6,0.5-1.1,1.1-1.7,1.7c-0.9,0.9-1.8,1.8-2.7,2.7c0.4-1,0-1.7-0.6-2.5c0.7-1,1.7-1.7,2.7-2.5c1.1-0.9,2-1.9,3.1-2.8
			C108,75.7,108.4,75.2,109,75.3L109,75.3z"/>
		<path class="st27" d="M111.8,75.6c0.4-0.9,0-1.6-0.6-2.3c0.7,0,1-0.6,1.5-0.9c0.7-0.5,1.5-0.9,2.6-0.7
			C114.5,73.5,113.1,74.6,111.8,75.6z"/>
	</g>
</g>
</svg>
