<?xml version="1.0" encoding="utf-8"?>
<svg width="74" height="67" viewBox="0 0 74 67" fill="none" xmlns="http://www.w3.org/2000/svg">
    <path d="M18.4453 8.80806C18.4453 8.80806 5.1874 11.0097 2.44965 20.5365C-0.288099 30.0633 -2.24232 42.7542 5.1874 47.8432C12.6171 52.931 25.1294 51.2198 29.4308 54.0302C33.7322 56.8405 34.9764 66.3306 45.1071 66.2766C55.2378 66.2226 52.3657 52.4647 60.1561 48.4955C67.9466 44.5275 73.8127 40.2895 73.421 34.6883C73.0303 29.0871 62.0518 20.2678 61.6761 15.1983C61.2993 10.1277 52.5725 4.85149 45.1071 6.21935C37.6418 7.58721 26.5943 7.88352 18.4453 8.80806V8.80806Z" fill="#FFF3E5"/>
    <path d="M33.0034 32.2451C32.9246 32.2525 31.8742 31.5212 31.7972 31.4823C31.6804 31.4304 31.5673 31.3757 31.4542 31.3154C27.6593 28.546 25.296 24.909 24.8056 20.1821C24.4653 16.9038 25.0095 13.7164 26.009 10.5994C26.1889 10.0377 26.7628 9.1479 26.989 8.5955C27.1234 8.26647 27.2644 7.94485 27.4396 7.63621C27.9254 6.77887 28.4891 5.96417 29.0881 5.1819C29.6045 4.50716 30.3082 3.90841 30.9535 3.30688C31.6377 2.66828 31.9502 2.54964 32.4675 2.19837C33.9334 1.20385 34.6232 0.973067 36.2837 0.437347C36.5387 0.354857 38.2826 -0.152132 40.5226 0.045288C42.3779 0.208414 43.7936 0.78677 45.9094 1.9166C46.4054 2.18168 49.771 3.7907 51.8663 8.7577C53.4629 12.542 53.5268 15.5997 53.4119 17.319C53.0763 22.3389 52.3225 24.5327 49.4103 28.6767C47.6422 31.1931 44.3629 32.8438 41.4683 33.8939C41.0279 34.0533 40.5644 34.1507 40.0869 34.0719C38.965 33.7466 37.8191 33.6131 36.6536 33.6418C35.7283 33.6696 34.9384 33.2544 34.1392 32.8688C33.989 32.7799 33.0034 32.2451 33.0034 32.2451V32.2451Z" fill="#EA9C47"/>
    <path d="M33.7657 31.8435C33.9252 31.8723 34.0819 31.9168 34.2395 31.9548C34.3201 31.9696 34.398 31.9909 34.4768 32.0141C34.7948 32.0901 35.1129 32.1661 35.3437 31.8333C35.5551 30.9315 34.8458 30.5135 34.3229 30.0936C32.8951 28.9471 31.764 27.5318 30.5791 26.1638C29.5666 24.9941 28.8268 23.6585 28.2278 22.2386C28.0647 21.853 27.9682 21.4025 27.449 21.2014C27.1255 21.942 27.2534 22.6334 27.4286 23.3267C27.9571 25.4121 29.0484 27.1666 30.5559 28.6839C31.1502 29.2817 31.7844 29.8425 32.3092 30.507C32.3601 30.571 32.4065 30.6396 32.451 30.7072C32.4742 30.7387 32.4955 30.7739 32.5187 30.8055C32.566 30.8666 32.6105 30.9306 32.6568 30.9936C32.6819 31.0223 32.7041 31.0539 32.7292 31.0835C32.7811 31.1401 32.8293 31.1994 32.8775 31.2596C32.9016 31.2893 32.9239 31.3208 32.947 31.3514" fill="#DE9E57"/>
    <path d="M50.0702 15.8326C50.0229 20.6828 48.6646 25.1067 45.7125 28.9939C44.9819 29.956 44.0585 30.7141 42.7911 30.842C41.2752 30.994 40.4194 29.816 41.062 28.4304C41.4013 27.6991 41.8973 27.0429 42.2941 26.3366C44.2374 22.8804 45.9258 19.3092 45.7079 15.2264C45.5494 12.2466 44.8633 9.35204 42.97 6.92183C41.7304 5.33043 40.0263 4.35816 38.1637 3.64726C37.4451 3.37292 36.7071 3.04574 36.8657 2.09386C37.0261 1.13086 37.8401 1.19481 38.5661 1.19018C43.6144 1.16145 47.9757 4.64085 49.2913 9.72927C49.8087 11.7313 50.1035 13.7574 50.0702 15.8335V15.8326Z" fill="#FCCA95"/>
    <path d="M38.9823 32.7274C37.7251 32.7413 37.2012 32.1361 37.1901 31.2963C37.179 30.4028 37.7714 29.7494 38.7208 29.7476C39.6545 29.7457 40.258 30.3324 40.2701 31.2676C40.2831 32.2454 39.6211 32.6727 38.9823 32.7265V32.7274Z" fill="#FCCA95"/>
    <path d="M40.1102 33.8454C40.0425 33.9631 39.9748 34.0799 39.9071 34.1976C39.5103 34.7398 38.9373 34.6953 38.3671 34.661C38.1659 34.6443 37.9777 34.5739 37.7877 34.5127C37.3528 34.42 36.9004 34.3514 36.7455 33.8315C36.6732 33.7082 36.6018 33.5858 36.5295 33.4626C37.7682 33.1688 38.954 33.3745 40.1111 33.8454H40.1102Z" fill="black"/>
    <path d="M34.1643 29.5755C31.8437 27.3436 29.6268 25.0543 28.4466 21.966C28.2491 21.4489 28.0989 20.8038 27.3831 20.7435C26.9427 20.9539 26.9965 21.3219 26.9891 21.6565C26.9455 23.5343 27.6631 25.1804 28.62 26.7273C29.5768 28.2742 32.12 30.7795 32.1598 30.823C32.2256 30.8926 32.4445 31.0798 32.8014 31.4162C32.845 31.4607 33.723 32.0085 33.99 32.1216C34.0697 32.1512 34.1782 32.1957 34.3303 32.2161C34.7225 32.2773 35.4818 32.3403 35.7748 31.8185C36.5276 30.481 34.8792 30.2651 34.1625 29.5764L34.1643 29.5755Z" fill="#AF6A1D"/>
    <path d="M36.0043 37.2554C35.4266 37.2406 35.6455 36.7846 35.6937 36.4324C35.7066 36.3341 35.7465 36.1849 35.7855 36.0968C35.8364 35.9828 35.8466 35.8466 35.8262 35.7233C35.8003 35.5685 35.7613 35.5481 35.6761 35.5963C35.6751 35.5963 35.4999 35.6927 35.499 35.6937C35.3608 35.7826 35.2876 35.8568 35.206 35.9013C34.887 36.0755 34.1843 36.3434 34.4976 35.6974C34.9362 34.7937 35.6213 34.0003 36.746 33.8307C37.0983 33.9614 37.4006 34.0355 37.79 34.2543C38.3639 34.7687 38.0551 35.4536 38.1413 36.0626C38.0959 37.1349 38.235 38.2128 38.056 39.2806C38.0097 39.3798 37.9383 39.4585 37.8447 39.516C37.4998 39.5197 37.4571 39.237 37.4182 39.0081C37.2504 38.0043 37.2865 36.3517 37.1187 36.1849C36.5606 35.6316 36.7247 37.273 36.0052 37.2545L36.0043 37.2554Z" fill="#EA9C47"/>
    <path d="M38.2565 34.4159C38.8072 34.3427 39.3579 34.2694 39.9077 34.1971C40.5308 34.4048 41.3272 34.8339 41.063 35.4447C40.796 36.061 39.9764 34.9729 39.6509 35.3186C39.2318 35.7654 40.6272 36.7488 39.8864 37.1325C39.3134 37.43 39.0854 36.4652 38.6116 36.2714C38.4688 36.3947 38.3724 36.7024 38.1183 36.3966C38.0831 36.3085 38.0618 36.2186 38.0571 36.1241C38.1239 35.5541 37.8671 34.9479 38.2556 34.4159H38.2565Z" fill="#EA9C47"/>
    <path d="M37.3318 53.9054C37.3346 53.8072 37.3031 50.1192 37.316 49.7439C37.3188 49.4482 37.4848 45.687 37.5005 45.3107C37.5043 44.9669 37.508 44.6221 37.5117 44.2782C37.4866 43.4718 37.5803 43.0826 37.6415 41.8656C37.6591 41.4383 37.6758 40.5652 37.6934 40.137L37.7017 39.8497C37.7119 39.3325 37.7694 39.2185 37.7796 38.7004C37.8519 38.2759 37.8158 37.6327 37.8538 37.6141C37.8686 36.7512 37.8723 36.5742 37.8872 35.7122C37.7639 35.2312 38.0457 34.7326 37.7889 34.2571C37.9447 34.2997 38.1004 34.3424 38.2552 34.3841C38.2599 34.9309 38.2645 35.4768 38.2682 36.0237L38.1134 37.92C38.0949 38.3167 38.0661 39.2 38.0661 39.2C38.0624 39.4957 38.004 42.0065 37.9632 42.6386C37.9586 43.0001 37.9409 43.3615 37.8927 43.7221C37.8788 44.0039 37.8649 44.2865 37.8501 44.5683C37.8464 44.864 37.6619 49.8894 37.66 50.185C37.6554 51.1091 37.6025 52.9888 37.5803 53.0045C37.5738 54.0519 37.5469 55.2392 37.4978 55.9695C37.4876 56.4839 37.4598 56.8176 37.5478 57.3264C37.5664 57.4719 37.4533 58.2542 37.3198 57.6008C37.3198 57.1457 37.3198 56.7091 37.3198 56.2717" fill="black"/>
</svg>
