<?xml version="1.0" encoding="utf-8"?>
<!-- Generator: Adobe Illustrator 27.0.1, SVG Export Plug-In . SVG Version: 6.00 Build 0)  -->
<svg version="1.1" id="Layer_1" xmlns="http://www.w3.org/2000/svg" xmlns:xlink="http://www.w3.org/1999/xlink" x="0px" y="0px"
	 viewBox="0 0 90 90" style="enable-background:new 0 0 90 90;" xml:space="preserve">
<style type="text/css">
	.st0{fill:none;stroke:#FDFEFF;stroke-width:1.5;stroke-linecap:round;stroke-linejoin:round;}
	.st1{fill:#FFF3E5;}
	.st2{fill:#FFFFFF;}
	.st3{fill:#FDFDFD;}
	.st4{fill:#E8EAEB;}
	.st5{fill:#F0F0F0;}
	.st6{fill:#EFEFEF;}
	.st7{fill:#F4E7D4;}
	.st8{fill:#D9D9D9;}
	.st9{fill:#FCCA95;}
	.st10{fill:#EEEEED;}
	.st11{fill:#EFEEED;}
	.st12{fill:#F6F6F6;}
	.st13{fill:#AF6A1D;}
	.st14{fill:#EA9C47;}
	.st15{fill:#D2B07D;}
	.st16{fill:#C29A61;}
	.st17{fill:#EDEBE8;}
	.st18{fill:#292F73;}
	.st19{fill:#475196;}
	.st20{fill:#1D273D;}
	.st21{fill:none;stroke:#000000;stroke-width:2;stroke-linecap:round;stroke-miterlimit:10;}
</style>
<path class="st0" d="M20,31.8v29.5"/>
<path class="st0" d="M25.8,30.3c-1.7,0.3-3.3,0.7-4.9,1.3c-0.6,0.2-1.2,0.2-1.8,0c-5.1-2-10.8-2.1-16-0.3c-0.5,0.2-1,0.5-1.4,1
	c-0.3,0.5-0.5,1-0.5,1.6v23.9c0,0.4,0.1,0.8,0.3,1.2c0.2,0.4,0.4,0.7,0.8,0.9c0.3,0.3,0.7,0.4,1.1,0.5c0.4,0.1,0.8,0.1,1.2,0
	c4.8-1.3,9.9-1.1,14.5,0.7c0.6,0.2,1.2,0.2,1.8,0c4.6-1.8,9.7-2.1,14.5-0.7c0.4,0.1,0.8,0.1,1.2,0c0.4-0.1,0.8-0.3,1.1-0.5
	c0.3-0.3,0.6-0.6,0.8-0.9c0.2-0.4,0.3-0.8,0.3-1.2V33.8c0-0.6-0.2-1.1-0.5-1.6c-0.3-0.5-0.8-0.8-1.3-1c-1.3-0.4-2.6-0.7-3.9-1"/>
<path class="st0" d="M33.1,43.8L29.4,40l-3.8,3.8V31.3c0-0.7,0.3-1.3,0.7-1.8c0.5-0.5,1.1-0.7,1.8-0.7h2.5c0.7,0,1.3,0.3,1.8,0.7
	c0.5,0.5,0.7,1.1,0.7,1.8V43.8z"/>
<g>
	<path class="st1" d="M12.5,22.9c0.3,4.2,6.1,5.8,6.8,8.4c2.5,8.4-22.6,13.3-7.8,24.3c2.6,1.9,5.4,2.2,12.1,3.8
		C42.4,64.1,36,78.4,48.4,79.1c12.6,0.7,26.1,0.7,33.4-7.9c7.4-8.5-19.3-15.8-18.2-22.4c1-6.6,13.3-2.4,16.4-9.7
		c3.1-7.3-3.1-19.8-17.6-25.8C47.7,7.4,11.8,11.4,12.5,22.9L12.5,22.9z"/>
	<path class="st2" d="M27.7,35.3c0.1,0,0.1,0,0.2,0c0.2-0.2,0.3-0.5,0.6-0.6c0.8,0,1.5-0.2,2.3-0.2c4.1-0.3,7.1,1.9,9.6,4.8
		c2.9,3.3,4.9,7.1,7.1,10.9c0.6,1.1,1.3,2.2,1.9,3.2c0.8,1.4,0.8,1.8-0.5,2.9c-3.4,1.7-6.6,3.7-9.9,5.5c-1.1,0.6-1.5,0.6-2.1-0.6
		c-0.3-0.6-0.6-1.2-1-1.8c-0.1-0.1-0.1-0.2-0.2-0.2c-0.1-0.1-0.1-0.3-0.2-0.4c0-0.1-0.1-0.2-0.1-0.3c-0.6-1.2-1.2-2.5-1.8-3.7
		c-0.1-0.3-0.3-0.5-0.4-0.7c-0.6-1-1-2.1-1.6-3c-0.1-0.1-0.1-0.2-0.2-0.2c-0.1-0.1-0.1-0.2-0.2-0.4c0-0.1-0.1-0.2-0.1-0.2
		c-0.1-0.1-0.1-0.2-0.2-0.4c0-0.1-0.1-0.2-0.1-0.3c-1.6-3.3-3.4-6.6-5.1-9.8c-0.4-0.8-0.9-1.5-1.2-2.4c0-0.1,0-0.2,0-0.3
		c0.4-0.8,1.3-1,2-1.5c0.3-0.1,0.6,0.1,0.8-0.1C27.4,35.4,27.6,35.4,27.7,35.3L27.7,35.3z"/>
	<path class="st3" d="M27.7,35.3c-0.1,0.1-0.3,0.1-0.4,0.2C27.4,35.4,27.5,35.3,27.7,35.3z"/>
	<path class="st4" d="M30.8,34.8c1.9-0.5,3.8-0.1,5.7,0.1c1.5,0.1,2.9,0.4,4.3,1c0.5,0.1,0.7,0.6,0.9,1c1.6,2.9,3.3,5.8,4.9,8.8
		c1.5,2.7,2.9,5.5,4.5,8.2c0.2,0.4,0.5,0.7,0.4,1.2c-0.7,0.9-1.7,1.4-2.9,1.5c-0.1-0.1-0.1-0.2,0-0.3c1-0.6,1.3-1.3,0.6-2.4
		c-2-3.2-3.8-6.6-5.8-9.8c-2.1-3.3-4.4-6.4-8-8.3C34,34.9,32.4,34.8,30.8,34.8L30.8,34.8z"/>
	<path class="st4" d="M48.7,56.2c0,0.1,0,0.1,0,0.2c0,0.5-0.4,0.6-0.7,0.8c-3,1.8-6.1,3.6-9.2,5.4c-0.4,0.2-0.8,0.4-1.3,0.2
		c-0.8-1.1-1.7-2.2-1.6-3.7c1,0.8,1,2.2,2,3C41.5,60.1,45.1,58.2,48.7,56.2L48.7,56.2z"/>
	<path class="st2" d="M35.9,59.1c0.6,1.2,1.1,2.4,1.7,3.6c0,0-0.1,0.1-0.1,0.1c-0.9-0.1-0.8-1-1.2-1.4c-0.1-0.2-0.2-0.3-0.3-0.5
		c-0.1-0.2-0.2-0.3-0.2-0.5c-0.1-0.2-0.2-0.3-0.2-0.5c-0.1-0.2-0.2-0.3-0.3-0.5c-0.6-1.1-1.1-2.2-1.7-3.3c-0.1-0.2-0.2-0.3-0.3-0.5
		c-0.1-0.2-0.2-0.3-0.3-0.5c-0.1-0.2-0.2-0.3-0.3-0.5c-1.2-2.6-2.7-5-3.9-7.5c-0.2-0.4-0.6-0.8-0.3-1.4c0.6-0.1,0.6,0.4,0.7,0.7
		c0.6,1.1,1.1,2.4,1.8,3.5c0.1,0.1,0.1,0.3,0.2,0.4c0.1,0.1,0.1,0.3,0.2,0.4c0.7,1.1,1,2.4,1.9,3.3c0.1,0.2,0.3,0.4,0.4,0.6
		c0.4,1.4,1.2,2.7,1.9,4C35.8,58.8,35.7,59,35.9,59.1L35.9,59.1z"/>
	<path class="st4" d="M24.5,37.4c0.4,0.8,0.8,1.5,1.3,2.3c0.1,0.2,0,0.2-0.2,0.3c-0.3-0.1-0.3-0.4-0.5-0.6c0.3,0.6,0.8,1.2,1.2,1.8
		c0.1,0.1,0.1,0.2,0.1,0.3c0.3,0.8,1,1.5,0.9,2.4c-0.2,0.2-0.5,0.2-0.7,0.1c-1.4-1.7-2.1-3.7-3-5.6c-0.2-0.5-0.1-0.9,0.5-1.1
		C24.3,37.2,24.4,37.2,24.5,37.4L24.5,37.4z"/>
	<path class="st4" d="M25.6,39.9c0.1-0.1,0.1-0.1,0.2-0.2c1.8,3.4,3.7,6.7,5.3,10.2c-0.9-0.8-1.1-2-1.7-2.9c-0.3-0.4-0.3-1-0.8-1.3
		c0,0-0.1,0-0.1-0.1c-0.8-0.8-0.9-2-1.4-3c-0.3-0.4-0.4-0.9-0.7-1.4C26,40.9,25.6,40.5,25.6,39.9L25.6,39.9z"/>
	<path class="st4" d="M35.7,58.7c-0.9-1.2-1.7-2.4-1.9-4C34.4,56,35,57.4,35.7,58.7z"/>
	<path class="st4" d="M33.3,54.1c-1.1-0.9-1.3-2.2-1.9-3.3C32.4,51.7,32.7,53,33.3,54.1z"/>
	<path class="st5" d="M35.9,59.1c-0.1-0.1-0.1-0.3-0.2-0.4C35.7,58.8,35.8,59,35.9,59.1z"/>
	<path class="st6" d="M31.5,50.7c-0.1-0.1-0.1-0.3-0.2-0.4C31.3,50.5,31.4,50.6,31.5,50.7z"/>
	<path class="st6" d="M31.2,50.3c-0.1-0.1-0.1-0.3-0.2-0.4C31.1,50,31.2,50.2,31.2,50.3z"/>
	<path class="st7" d="M24.5,37.4l-0.4,0c-0.1-0.4,0.1-0.3,0.3-0.3l0.1,0.1C24.5,37.2,24.5,37.3,24.5,37.4z"/>
	<path class="st4" d="M43.2,33c0.8-1.3,2.1-2.1,3.2-3.1c2.4-0.4,4.3,0.4,6,2c1.4,1.4,2.5,3.1,3.4,4.9c2.1,4,4.1,8.2,5.9,12.3
		c0.2,0.5,0.6,0.9,0.7,1.5c-0.1,0.3-0.3,0.4-0.6,0.5c-2.6,1-5.2,2.2-7.8,3c-0.6,0-1-0.3-1.2-0.8c-2.8-5.4-5.7-10.8-8.5-16.2
		c-0.5-0.9-0.9-1.9-1.1-2.9C43,33.8,42.9,33.4,43.2,33L43.2,33z"/>
	<path class="st2" d="M62.4,50.6c-1.3-1.2-1.6-2.9-2.3-4.3c-2.1-4.3-3.9-8.8-6.7-12.8c-1.5-2.1-3.5-3.5-6.2-3.4
		c-0.2,0-0.5-0.1-0.7-0.2c2.8-2.2,6-3.1,9.5-3c0.1,0,0.2,0,0.3,0c1.1,1.6,1.7,3.5,2.6,5.2c0.8,1.9,1.7,3.7,2.5,5.6
		c1.6,3.5,3.3,7,4.8,10.6c0.1,0.3,0.2,0.6,0.1,0.9c-0.2,0.4-0.6,0.5-1,0.6c-0.1,0-0.2,0.1-0.3,0.1c-0.2,0-0.4,0.1-0.5,0.2
		c-0.3,0.1-0.7,0.3-1.1,0.4C63,50.7,62.7,50.8,62.4,50.6L62.4,50.6z"/>
	<path class="st8" d="M43.2,33c0.2,2.5,1.6,4.6,2.7,6.8c1.7,3.4,3.6,6.7,5.3,10c0.6,1.2,1.3,2.4,1.8,3.6c0.2,0.4,0.5,0.5,0.8,0.5
		c0,0.4-0.4,0.5-0.6,0.6c-0.6,0.1-1.2,0.8-1.9,0.4c-3.5-6.3-7-12.7-10.5-19C41.4,34.7,42.2,33.7,43.2,33z"/>
	<path class="st9" d="M63.6,40.1c1.3,2.8,2.6,5.5,3.9,8.3c0.5,1.1,0.4,1.8-0.9,2.3c-3.3,1.3-6.3,3-9.7,4c0-0.6,0.5-0.7,0.9-0.9
		c2.5-1.3,5.1-2.7,7.6-3.9c0.3-0.2,0.7-0.3,1-0.6c0-0.5-0.3-0.8-0.4-1.3c-1.9-4.2-3.8-8.3-5.7-12.4c-0.5-1.2-1.1-2.4-1.6-3.6
		c-0.9-1.7-1.6-3.5-2.5-5.2c-0.2-0.5-0.5-0.9-0.7-1.4c0.2-0.2,0.4-0.4,1-0.3C59.1,29.9,61.1,35.1,63.6,40.1L63.6,40.1z"/>
	<path class="st4" d="M30.4,50.8c-1-1.7-1.9-3.4-2.7-5.2c0-0.1-0.1-0.2-0.2-0.3c0,0,0-0.1,0-0.2c0-0.1-0.1-0.2-0.2-0.3
		c0,0,0-0.1,0-0.2c0-0.1-0.1-0.2-0.2-0.3c0,0,0-0.1,0-0.2c0-0.1-0.1-0.2-0.2-0.3c0,0,0-0.1-0.1-0.2c0.1-0.2,0.3-0.1,0.5-0.1
		c0.1-0.1,0.2-0.1,0.3,0c0.1,0.1,0,0.2,0.1,0.3c0,0.1,0.1,0.1,0.1,0.2c0,0.1,0.1,0.1,0.1,0.2c0,0.1,0.1,0.1,0.1,0.2
		c0,0.1,0.1,0.2,0.1,0.3c0,0.1,0.1,0.1,0.1,0.2c0,0.1,0.1,0.2,0.2,0.3c0.1,0.1,0.1,0.2,0.2,0.3c1,2.7,2.6,5.1,3.8,7.7
		c0.2,0.4,0.4,0.9,0.6,1.3c0,0-0.1,0-0.1,0c-0.5-0.1-0.5-0.7-0.8-1C31.4,52.8,31.2,51.6,30.4,50.8L30.4,50.8z"/>
	<path class="st4" d="M33.6,56c0.9,1,1.4,2.3,1.9,3.6c0,0-0.1,0-0.1,0c-1-1-1.4-2.2-1.8-3.5C33.5,56,33.5,56,33.6,56L33.6,56z"/>
	<path class="st4" d="M37.6,62.7c-0.2,0.1-0.3,0.3-0.5,0.4c-0.1-0.1-0.3-0.1-0.4-0.2c0.1-0.6-0.6-1-0.5-1.6c0,0,0.1-0.1,0.1-0.1
		C37,61.5,36.8,62.5,37.6,62.7L37.6,62.7z"/>
	<path class="st10" d="M36.1,60.8c0.1,0.1,0.1,0.3,0.2,0.4C36,61.3,36,61.1,36,60.9C36,60.8,36.1,60.8,36.1,60.8z"/>
	<path class="st10" d="M35.9,60.4c0.1,0.1,0.1,0.3,0.2,0.4c-0.3,0.1-0.3-0.1-0.3-0.3C35.8,60.4,35.8,60.4,35.9,60.4L35.9,60.4z"/>
	<path class="st11" d="M35.7,59.9c0.1,0.1,0.1,0.3,0.2,0.4c-0.3,0.1-0.3-0.1-0.3-0.3C35.6,60,35.6,60,35.7,59.9L35.7,59.9z"/>
	<path class="st11" d="M35.4,59.5c0.1,0.1,0.1,0.3,0.2,0.4C35.3,59.9,35.3,59.8,35.4,59.5z"/>
	<path class="st11" d="M33.3,55.5c0.1,0.1,0.1,0.3,0.2,0.4c-0.3,0.1-0.3-0.1-0.3-0.3C33.3,55.6,33.3,55.6,33.3,55.5z"/>
	<path class="st11" d="M33.1,55.1c0.1,0.1,0.1,0.3,0.2,0.4l0,0c-0.3,0.1-0.3-0.1-0.3-0.3C33.1,55.2,33.1,55.2,33.1,55.1z"/>
	<path class="st11" d="M32.9,54.7c0.1,0.1,0.1,0.3,0.2,0.4l0,0C32.8,55.1,32.8,55,32.9,54.7L32.9,54.7z"/>
	<path class="st12" d="M27.5,44.1c-0.1-0.1-0.1-0.1-0.2-0.2c-0.4-0.8-0.7-1.7-1.1-2.5c1.1,1.3,1.7,2.9,2.3,4.4
		c-0.1-0.1-0.3-0.1-0.4-0.2c-0.1-0.1-0.1-0.3-0.2-0.4c-0.1-0.1-0.1-0.3-0.2-0.4c-0.1-0.1-0.1-0.3-0.2-0.4
		C27.4,44.2,27.4,44.2,27.5,44.1C27.4,44.1,27.4,44.1,27.5,44.1L27.5,44.1z"/>
	<path class="st12" d="M25.6,39.9c0.2,0.5,0.4,1,0.6,1.5c-0.8-0.8-1.1-1.9-1.4-3C25,38.8,25.3,39.4,25.6,39.9L25.6,39.9z"/>
	<path class="st13" d="M36.7,64.5c-0.5-0.8-1-1.7-1.5-2.5c0-0.1,0-0.1,0-0.2c-0.1-0.1-0.1-0.1-0.2-0.2c-0.3-0.8-0.6-1.6-1-2.3
		c-3.4-6.9-6.9-13.7-10.3-20.6c-0.3-0.6-0.7-1.2-1.1-1.8c-0.6,0.1-0.4,0.5-0.3,0.8c0.3,0.7,0.7,1.5,1,2.2c3.5,6.9,7,13.8,10.5,20.7
		l0,0c0.2,0.1,0.1,0.3,0.2,0.4l0,0c0.1,0.1,0.1,0.3,0.2,0.4c0.1,0.2,0.3,0.4,0.4,0.6c0.1,0.1,0.1,0.1,0.2,0.2c0,0,0,0,0,0
		c0.4,0.8,0.9,1.7,1.3,2.5c0.1,0,0.3,0,0.4,0c0.2,0.2,0.4,0,0.6,0C37.2,64.5,36.9,64.5,36.7,64.5L36.7,64.5z"/>
	<path class="st14" d="M66.1,48c-0.7-1.6-1.4-3.2-2.2-4.7c-1.7-3.8-3.5-7.6-5.2-11.4c-0.8-1.7-1.7-3.5-2.5-5.2
		c-0.1-0.6-0.1-1.1-0.9-1.3c-0.4,0.4-1.1,0.6-1.3,1.2c0.6,0.2,1.2-0.1,1.8,0.2c0.1,0,0.1,0,0.2,0c0.8,1.8,1.7,3.5,2.5,5.3
		c0,0,0,0,0,0c2.4,5.4,4.9,10.8,7.3,16.2c0,0,0,0.1,0,0.1c0.1,0.3,0.1,0.5,0.2,0.8c-0.2,0.2-0.5,0.3-0.7,0.4
		c-0.6,0.2-1.2,0.5-1.8,0.7c-3.3,1.3-6.6,2.6-9.8,3.9c-0.6,0.2-1.2,0.4-1.5,1c-0.2,0.3-0.5,0.4-0.9,0.4c-0.8-0.1-1.4,0.2-2,0.6
		c-3.7,2.2-7.5,4.4-11.3,6.6c-0.3,0.2-0.6,0.5-0.9,0.1c-0.1-0.1-0.2,0.5-0.3,0.3c-2.2-3.9-4.6-8.5-6.5-12.5
		c-1-1.6-5.5-10.5-6.4-12.3c-0.2-0.4-0.5-0.8,0.1-1.1c0.1-0.1,0.2-0.2,0.3-0.3c-0.6-0.4-1.2-0.1-1.8-0.2c-0.1,0.3,0,0.5,0.2,0.8
		c2.8,5.3,5.5,10.6,8.2,16c1.3,2.6,2.6,5.2,3.8,7.8c0.1,0.1,0.2,0.3,0.2,0.4c0,0.1,0.1,0.2,0.1,0.3c0.5,0.8,0.7,1.8,1.5,2.5
		c0.2,0.1,0.5,0,0.7,0.1c5.6-2.4,10.3-6.3,16-9.1c1-0.1,2.3-0.5,3.5-0.9c3.3-1.7,6.6-3.5,9.9-5.3C66.5,48.9,66.3,48.5,66.1,48z"/>
	<path class="st13" d="M65.2,49.6c-0.1,0-0.1,0-0.2,0.1c-0.1,0-0.1,0-0.2,0c-0.1,0.1-0.3,0.1-0.4,0.2c-0.3,0.1-0.6,0.3-1,0.4
		c0,0-0.1,0-0.1,0c-0.3,0.1-0.6,0.2-1,0.3c-2.8,1.1-5.6,2.2-8.4,3.3c-0.2,0.1-0.4,0.3-0.7,0.4c-0.6,0.2-1.2,0.4-1.9,0.7
		c-0.9,0.5-1.8,1-2.7,1.5c-2.8,1.6-5.5,3.3-8.3,4.9c-0.9,0.5-1.7,1.2-2.8,1.4l0,0c-0.1,0.1-0.5,0-0.5,0.4c0,0.2-0.4,0.3-0.2,0.5
		c0.4,0.2,0.6,0.1,1-0.1c3.5-2.1,7-4.2,10.6-6.3c1-0.6,1.9-1.5,3.2-1c0.3,0.1,0.7-0.1,0.7-0.5c0.2-0.7,0.7-0.9,1.2-1.2
		c3.4-1.3,6.7-2.7,10.1-4c0.6-0.3,1.1-0.6,1.7-0.8c0.3,0,0.5-0.1,0.6-0.4C65.8,49.4,65.5,49.5,65.2,49.6L65.2,49.6z"/>
	<path class="st15" d="M64.9,49.7c-0.1,0.1-0.3,0.1-0.4,0.2C64.6,49.8,64.7,49.8,64.9,49.7z"/>
	<path class="st7" d="M34.2,61c0.1,0.1,0.1,0.3,0.2,0.4C34.3,61.3,34.3,61.1,34.2,61z"/>
	<path class="st7" d="M34,60.6c0.1,0.1,0.1,0.3,0.2,0.4C34.1,60.8,34,60.7,34,60.6z"/>
	<path class="st16" d="M34.8,62c0.1,0.1,0.1,0.2,0.2,0.2C35,62.2,34.9,62.1,34.8,62z"/>
	<path class="st4" d="M32.9,54.7c0.1,0.1,0.1,0.3,0.2,0.4c0.1,0.1,0.1,0.3,0.2,0.4c0.1,0.1,0.1,0.3,0.2,0.4c0.5,1.2,1,2.5,1.9,3.6
		c0.1,0.1,0.1,0.3,0.2,0.4c0.1,0.1,0.1,0.3,0.2,0.4c0.1,0.1,0.1,0.3,0.2,0.4c0.1,0.1,0.1,0.3,0.2,0.4c-0.1,0.6,1.3,1.5,0.6,2.1
		c-2.3-3.9-4.6-8.6-6.6-12.6c0.6-0.3,0.5,0.4,0.7,0.6C31.7,52.4,32,53.7,32.9,54.7L32.9,54.7z"/>
	<path class="st16" d="M35.2,61.8c-0.1-0.1-0.1-0.1-0.2-0.2C35.1,61.7,35.2,61.7,35.2,61.8z"/>
	<path class="st17" d="M27.9,45.1c0.1,0.1,0.1,0.3,0.2,0.4C28,45.4,28,45.2,27.9,45.1z"/>
	<path class="st17" d="M27.7,44.7c0.1,0.1,0.1,0.3,0.2,0.4C27.8,45,27.7,44.8,27.7,44.7z"/>
	<path class="st17" d="M27.5,44.3c0.1,0.1,0.1,0.3,0.2,0.4C27.6,44.5,27.5,44.4,27.5,44.3z"/>
	<path class="st17" d="M27.5,44.1c0,0.1,0,0.1,0,0.2C27.4,44.2,27.4,44.2,27.5,44.1C27.4,44.1,27.4,44.1,27.5,44.1z"/>
	<path class="st18" d="M48.6,40.5C48.6,40.5,48.6,40.4,48.6,40.5l-6-11.8c0,0-0.9-0.3-1.9,0.2s-2.3,1.9-2.3,1.9l1.3,2.7l4.7,8.9
		c0,0,1.8-0.2,3.2-0.8C48.8,41,48.7,40.6,48.6,40.5L48.6,40.5z M46.7,41.3c-0.1,0.1-0.4,0.3-0.6,0.1c-0.2-0.2,0-0.4,0-0.4
		s0.2-0.2,0.4-0.1C46.8,40.9,46.9,41.2,46.7,41.3z"/>
	<path class="st19" d="M48,41.3c0.8-0.5,0.7-0.7,0.6-0.8c0,0,0-0.1-0.1-0.1l-6-11.7c0,0-0.5-0.2-1.1-0.1L48,41.3L48,41.3z"/>
	<path class="st20" d="M39.2,30c-0.5,0.4-0.8,0.8-0.8,0.8l1.3,2.7l4.7,8.9c0,0,0.4,0,1.1-0.2L39.2,30z"/>
	<path class="st21" d="M46.3,41.5c0-0.3,0.1,0.3,0.4,0.4c0.3,0.1,0.6-0.2,0.9,0.5C48,43,49.2,45.7,50,46c0.8,0.3,1.4-0.2,2-0.2"/>
	<path class="st21" d="M46.4,41.5c0-0.1-0.1-0.2,0-0.3c0.2-0.2,1,0.5,0.8,0.8c-0.1,0.1-0.4,0.1-0.5,0"/>
	<path class="st21" d="M50.7,51.3c0,0,0.5-0.6-0.7-1.8c-1.2-1.3-2.5-1.8-2.6-2.9c0-1-0.1-2.7-0.2-3.4c-0.1-0.4-0.3-0.9-0.5-1.3"/>
</g>
</svg>
