<?xml version="1.0" encoding="utf-8"?>
<!-- Generator: Adobe Illustrator 27.0.1, SVG Export Plug-In . SVG Version: 6.00 Build 0)  -->
<svg version="1.1" id="Layer_1" xmlns="http://www.w3.org/2000/svg" xmlns:xlink="http://www.w3.org/1999/xlink" x="0px" y="0px"
	 viewBox="0 0 90 90" style="enable-background:new 0 0 90 90;" xml:space="preserve">
<style type="text/css">
	.st0{fill:none;stroke:#FDFEFF;stroke-width:1.5;stroke-linecap:round;stroke-linejoin:round;}
	.st1{fill:#FFF3E5;}
	.st2{fill:#EA9C47;}
	.st3{fill:#DE9E57;}
	.st4{fill:#FCCA95;}
	.st5{fill:#AF6A1D;}
</style>
<path class="st0" d="M30.6,41.6v-7c0-0.1,0-0.2-0.1-0.3c0-0.1-0.1-0.2-0.2-0.3l-8.8-8.6C21.5,25.1,21.2,25,21,25
	c-0.2,0-0.4,0.1-0.6,0.3l-8.8,8.6c-0.1,0.1-0.1,0.2-0.2,0.3c0,0.1-0.1,0.2-0.1,0.3v7c0,0.2,0.1,0.3,0.1,0.5c0.1,0.1,0.2,0.3,0.4,0.3
	c0.2,0.1,0.3,0.1,0.5,0.1c0.2,0,0.3-0.1,0.4-0.2l7.8-7.6c0.1-0.1,0.2-0.1,0.3-0.1c0.1,0,0.2,0,0.3,0.1l7.8,7.6
	c0.1,0.1,0.3,0.2,0.4,0.2c0.2,0,0.3,0,0.5-0.1c0.2-0.1,0.3-0.2,0.4-0.3C30.6,41.9,30.6,41.8,30.6,41.6z"/>
<path class="st0" d="M30.6,55.8v-5l-9-8.9c-0.2-0.2-0.4-0.3-0.6-0.3c-0.2,0-0.4,0.1-0.6,0.3l-8.7,8.6c-0.1,0.1-0.2,0.2-0.2,0.3
	c0,0.1-0.1,0.2-0.1,0.3v4.6c0,0.2,0.1,0.3,0.1,0.5c0.1,0.1,0.2,0.3,0.4,0.3c0.2,0.1,0.3,0.1,0.5,0.1c0.2,0,0.3-0.1,0.4-0.2l7.8-7.7
	c0.1-0.1,0.2-0.1,0.3-0.1s0.2,0,0.3,0.1l7.8,7.7c0.1,0.1,0.3,0.2,0.4,0.2c0.2,0,0.3,0,0.5-0.1s0.3-0.2,0.4-0.3
	C30.6,56.1,30.6,55.9,30.6,55.8L30.6,55.8z"/>
<path class="st0" d="M30.6,65l-9-9c-0.1-0.1-0.2-0.1-0.3-0.2c-0.1,0-0.2-0.1-0.3-0.1s-0.2,0-0.3,0.1c-0.1,0-0.2,0.1-0.3,0.2l-9,9"/>
<g>
	<path class="st1" d="M26.7,20.7c0,0-13.3,2.2-16,11.7C8,41.9,6,54.6,13.5,59.7c7.4,5.1,19.9,3.4,24.2,6.2
		c4.3,2.8,5.5,12.3,15.7,12.2c10.1-0.1,7.3-13.8,15-17.8c7.8-4,13.7-8.2,13.3-13.8C81.3,40.9,70.3,32.1,70,27.1
		c-0.4-5.1-9.1-10.3-16.6-9C45.9,19.4,34.9,19.7,26.7,20.7z"/>
	<path class="st2" d="M41.3,44.1c-0.1,0-1.1-0.7-1.2-0.8c-0.1-0.1-0.2-0.1-0.3-0.2c-3.8-2.8-6.2-6.4-6.6-11.1
		c-0.3-3.3,0.2-6.5,1.2-9.6c0.2-0.6,0.8-1.5,1-2c0.1-0.3,0.3-0.7,0.5-1c0.5-0.9,1-1.7,1.6-2.5c0.5-0.7,1.2-1.3,1.9-1.9
		c0.7-0.6,1-0.8,1.5-1.1c1.5-1,2.2-1.2,3.8-1.8c0.3-0.1,2-0.6,4.2-0.4c1.9,0.2,3.3,0.7,5.4,1.9c0.5,0.3,3.9,1.9,6,6.8
		c1.6,3.8,1.7,6.8,1.5,8.6c-0.3,5-1.1,7.2-4,11.4c-1.8,2.5-5,4.2-7.9,5.2c-0.4,0.2-0.9,0.3-1.4,0.2c-1.1-0.3-2.3-0.5-3.4-0.4
		c-0.9,0-1.7-0.4-2.5-0.8C42.3,44.6,41.3,44.1,41.3,44.1z"/>
	<path class="st3" d="M42,43.7c0.2,0,0.3,0.1,0.5,0.1c0.1,0,0.2,0,0.2,0.1c0.3,0.1,0.6,0.2,0.9-0.2c0.2-0.9-0.5-1.3-1-1.7
		c-1.4-1.1-2.6-2.6-3.7-3.9c-1-1.2-1.8-2.5-2.4-3.9c-0.2-0.4-0.3-0.8-0.8-1c-0.3,0.7-0.2,1.4,0,2.1c0.5,2.1,1.6,3.8,3.1,5.4
		c0.6,0.6,1.2,1.2,1.8,1.8c0.1,0.1,0.1,0.1,0.1,0.2c0,0,0,0.1,0.1,0.1c0,0.1,0.1,0.1,0.1,0.2c0,0,0,0.1,0.1,0.1
		c0.1,0.1,0.1,0.1,0.1,0.2c0,0,0,0.1,0.1,0.1"/>
	<path class="st4" d="M58.4,27.7c0,4.9-1.4,9.3-4.4,13.2c-0.7,1-1.7,1.7-2.9,1.8c-1.5,0.2-2.4-1-1.7-2.4c0.3-0.7,0.8-1.4,1.2-2.1
		c1.9-3.5,3.6-7,3.4-11.1c-0.2-3-0.8-5.9-2.7-8.3c-1.2-1.6-2.9-2.6-4.8-3.3c-0.7-0.3-1.5-0.6-1.3-1.6c0.2-1,1-0.9,1.7-0.9
		c5,0,9.4,3.5,10.7,8.5C58.1,23.6,58.4,25.6,58.4,27.7L58.4,27.7z"/>
	<path class="st4" d="M47.3,44.6c-1.3,0-1.8-0.6-1.8-1.4c0-0.9,0.6-1.5,1.5-1.5c0.9,0,1.5,0.6,1.5,1.5
		C48.6,44.1,47.9,44.5,47.3,44.6L47.3,44.6z"/>
	<path d="M48.4,45.7c-0.1,0.1-0.1,0.2-0.2,0.4c-0.4,0.5-1,0.5-1.5,0.5c-0.2,0-0.4-0.1-0.6-0.1c-0.4-0.1-0.9-0.2-1-0.7
		c-0.1-0.1-0.1-0.2-0.2-0.4C46,45,47.2,45.2,48.4,45.7L48.4,45.7z"/>
	<path class="st5" d="M42.4,41.4c-2.3-2.2-4.5-4.5-5.7-7.6c-0.2-0.5-0.3-1.2-1.1-1.2c-0.4,0.2-0.4,0.6-0.4,0.9
		c0,1.9,0.7,3.5,1.6,5.1c1,1.5,3.5,4.1,3.5,4.1c0.1,0.1,0.3,0.3,0.6,0.6c0,0,0.9,0.6,1.2,0.7c0.1,0,0.2,0.1,0.3,0.1
		c0.4,0.1,1.2,0.1,1.4-0.4C44.8,42.3,43.2,42.1,42.4,41.4L42.4,41.4z"/>
	<path class="st2" d="M44.3,49.1c-0.6,0-0.4-0.5-0.3-0.8c0-0.1,0.1-0.2,0.1-0.3c0.1-0.1,0.1-0.3,0-0.4c0-0.2-0.1-0.2-0.2-0.1
		c0,0-0.2,0.1-0.2,0.1c-0.1,0.1-0.2,0.2-0.3,0.2c-0.3,0.2-1,0.4-0.7-0.2c0.4-0.9,1.1-1.7,2.2-1.9c0.4,0.1,0.7,0.2,1,0.4
		c0.6,0.5,0.3,1.2,0.4,1.8c0,1.1,0.1,2.2-0.1,3.2c0,0.1-0.1,0.2-0.2,0.2c-0.3,0-0.4-0.3-0.4-0.5c-0.2-1-0.1-2.7-0.3-2.8
		C44.8,47.5,45,49.1,44.3,49.1L44.3,49.1z"/>
	<path class="st2" d="M46.5,46.3c0.6-0.1,1.1-0.1,1.7-0.2c0.6,0.2,1.4,0.6,1.2,1.2c-0.3,0.6-1.1-0.5-1.4-0.1c-0.4,0.4,1,1.4,0.2,1.8
		c-0.6,0.3-0.8-0.7-1.3-0.9c-0.1,0.1-0.2,0.4-0.5,0.1c0-0.1-0.1-0.2-0.1-0.3C46.4,47.4,46.1,46.8,46.5,46.3L46.5,46.3z"/>
	<path d="M45.6,65.8c0-0.1,0-3.8,0-4.2c0-0.3,0.2-4.1,0.2-4.4c0-0.3,0-0.7,0-1c0-0.8,0.1-1.2,0.1-2.4c0-0.4,0-1.3,0.1-1.7l0-0.3
		c0-0.5,0.1-0.6,0.1-1.1c0.1-0.4,0-1.1,0.1-1.1c0-0.9,0-1,0-1.9c-0.1-0.5,0.2-1-0.1-1.5c0.2,0,0.3,0.1,0.5,0.1c0,0.5,0,1.1,0,1.6
		l-0.2,1.9c0,0.4,0,1.3,0,1.3c0,0.3-0.1,2.8-0.1,3.4c0,0.4,0,0.7-0.1,1.1c0,0.3,0,0.6,0,0.8c0,0.3-0.2,5.3-0.2,5.6
		c0,0.9-0.1,2.8-0.1,2.8c0,1,0,2.2-0.1,3c0,0.5,0,0.8,0.1,1.4c0,0.1-0.1,0.9-0.2,0.3c0-0.5,0-0.9,0-1.3"/>
</g>
</svg>
