<?xml version="1.0" encoding="utf-8"?>
<!-- Generator: Adobe Illustrator 27.8.0, SVG Export Plug-In . SVG Version: 6.00 Build 0)  -->
<svg version="1.1" id="Layer_1" xmlns="http://www.w3.org/2000/svg" xmlns:xlink="http://www.w3.org/1999/xlink" x="0px" y="0px"
	 viewBox="0 0 96 96" style="enable-background:new 0 0 96 96;" xml:space="preserve">
<style type="text/css">
	.st0{fill:#F0DEC6;}
	.st1{fill:#B06A1D;}
	.st2{fill:#FCCA95;}
	.st3{fill:#C9DEF1;}
	.st4{fill:#85A2C1;}
	.st5{fill:#404040;}
	.st6{fill:#2D399D;}
	.st7{fill:#E6F2FE;}
	.st8{fill:#463075;}
	.st9{fill:#BFAEE2;}
	.st10{fill:#EB9C47;}
	.st11{fill:#272F77;}
	.st12{fill:#BEA589;}
	.st13{fill:#282828;}
	.st14{fill:#1B273F;}
	.st15{fill:#2E399D;}
	.st16{fill:#1E2A42;}
	.st17{fill:#947EC6;}
	.st18{fill:#847058;}
	.st19{fill:#847059;}
	.st20{fill:#E5F2FE;}
	.st21{fill:#010101;}
	.st22{fill:#857058;}
	.st23{fill:#463175;}
	.st24{fill:#B7A6DD;}
	.st25{fill:#B9A8D8;}
	.st26{fill:#463176;}
	.st27{fill:#4D3875;}
	.st28{fill:#BFAEE1;}
	.st29{fill:#BEADE1;}
	.st30{fill:#4B377A;}
	.st31{fill:#BFA489;}
	.st32{fill:#947EBD;}
	.st33{fill:#B7A5CF;}
	.st34{fill:#BEADE2;}
	.st35{fill:#453075;}
</style>
<g>
	<path class="st0" d="M68.6,32.7c-7.1-2.1-6.2-5.3-6.1-6.6c-1,0.3-2-4.7-0.7-5.2c-1.4-1.9-3.3-2.8-5.7-2.5c-2.2,0-5-0.1-6.8-1.5
		c-1.7-1.1-12.9-7.1-13.6-7.2c-1.6-0.7-4-0.8-5.7-0.1c-3.3,1.1-6.3,4.1-7.8,7.4c-3.2,6-3.8,13-2.9,20.1c0.2,2.7,0.3,5.4,1.1,8
		c1.2,3.6,3.7,7.4,7.8,8.5c1.6-1.7,6.4-0.9,5.7-0.2c3.9-0.7,7.1-1.2,10.6,0.9c2.5,1.5,1.4,2,3.1,3.6c0,0,5.3,1.5,5.8,6.3
		c0,0,1,0.9,2.2,1.7c4.2,3,8,0.8,9.7-3.5c0.9-2.2,0.7-4.8,0.6-7.4c-0.8-5.5,4-8.8,5.6-13.4C73.2,37.9,72.3,33.9,68.6,32.7z"/>
	<path d="M52.8,7.5c-1.4,0.9-3.9,2.2-4.4,1.2c-0.1-0.5-1.7-1.8-0.9-2c2-0.5,9.7-3.6,8.4-6.3c-0.1-0.4,0.4,0.2,0.5,0.3
		c0.2,0.3,0.4,0.7,0.4,0.7c0.4,1.8-1.4,3.5-2.6,4.9C53.7,6.9,53.3,7.3,52.8,7.5z"/>
	<path class="st1" d="M45.9,91.4c2.6-15.6,2.6-32,0.4-47.6c-0.8-1.2-3.1,1.8-3.5,1.4c1.5-2.3,4.2-3.5,5.1-2.5
		c4.8,5,1.8,46.4-0.2,48.8c0,0-1.3,0.6-1.6,0.6l0,0C45.8,92.1,45.7,92,45.9,91.4L45.9,91.4z"/>
	<path class="st2" d="M50.9,37.7c1.1,9.8,4.1,39.1,4.2,39.4l0.2,2.1c0.1,1,0.8,7.7,0.8,7.7c0,0.4,0.2,0.7-0.2,1l0,0
		c-0.1,0.1-1,0.4-1,0.4c-2.2-11.5-2.6-23.9-4.1-35.8C51,47.9,48.3,42,50.9,37.7z"/>
	<path class="st3" d="M54.9,88.8c0,0.1,0.2,0.5,0.1,0.6c-0.7,1.5-0.8,0.9,0,1.3c1.3,2.3,4.6-0.2,8,2.5c0,0.2,0,0.5,0,0.5
		c-1.5,1.2-11.6,2.2-12-0.3c0.1-0.8-0.4-1.9,0.5-2.4C52.6,90.6,53.7,89.6,54.9,88.8z"/>
	<path class="st4" d="M54.9,88.8c-0.1,0.7-2.8,2.1-3.5,2.5c-0.4,0.2-0.2,1.6-0.2,2.2c0,0.1,0,0.3,0.1,0.4c0.3,0.4,1.1,0.6,1.5,0.8
		c1.4,0.4,2.9,0.3,4.3,0.2c1.9-0.1,4-0.4,5.8-1.1c0,0-0.3,1.2-0.6,1.6c0,0-0.3,0.4-0.6,0.5l0,0c-0.1,0.1-6.6-0.2-9.7,0
		c-0.7,0.1-2.8-0.1-2.9-0.2l0,0c0,0-0.1,0-0.1-0.1l0,0c-0.1-0.1-0.2-3.3-0.3-4.7c1.6-1.1,3.6-1.7,5.4-2.5
		C54.4,88.5,54.8,88.4,54.9,88.8L54.9,88.8L54.9,88.8z"/>
	<path class="st5" d="M34.9,11c0.3-0.6,0.8-1.6,1.1-2.1c0.3-0.3,0.8-0.7,0.9-0.8c0,0-0.3-0.8-0.2-1.4c0.1-0.7,0.1-1,0.3-1.5
		c1.2-3.7,5.3-5.4,9.2-4.6C48.4,1.1,49.6,1,50.6,1c0.5,0,0.9-0.1,0.9-0.1c-0.3,0.8-5,0.2-5.9,0.4C42.4,0.7,39.3,3,38.7,6
		c0,1.5,1.3,2.6-1,3.2C36.8,9.3,35.2,11.7,34.9,11z"/>
	<path class="st6" d="M67.9,21.2c-0.1,0.9-0.3,1.5-0.4,1.7V23c-0.4,0.4-1.3-3.1-1.7-3.9l0,0c-0.9-2.5-3.4-4-4.4-6.5c0,0,0,0,0-0.1
		l0.5-0.7l0.4,0.4c0.1,0.1,0.5,0.6,0.6,0.7l0,0c0.6,0.6,3,3.5,3.3,3.9l0,0c0.2,0.3,0.5,0.8,0.7,1.2c0,0,0.4,0.6,0.9,2.1
		C67.9,20.6,67.9,21,67.9,21.2z"/>
	<path class="st7" d="M62.9,93.4c-3.5-2.4-7.2-0.2-8.1-2.5c1.8,0.2,4.3-0.5,6.2,0c0.1,0,0.3,0.1,0.4,0.2c0.7,0.4,1.2,1,1.4,1.7
		C62.9,92.8,62.9,93.4,62.9,93.4z"/>
	<path class="st8" d="M64.4,5.7c0.1,0,0.3-0.1,0.3,0.1c-0.1,1.1,0.1,2.3,0.5,3.3c0.2,0.4-5.9,2-5.8,0.9c1.1-0.8,5.3-0.3,5.1-1.9
		C64.4,7.3,63.8,6.2,64.4,5.7z"/>
	<path class="st9" d="M64.3,5.7c0.1,0.1,0,0.2,0,0.2c0,0.9-7.3,2.8-5.3,1.2C59.1,7,64.3,5.7,64.3,5.7z"/>
	<path class="st7" d="M54.2,90.8c-0.2,0.3-1.9,1-1.6,0.3c0.6-0.4,1.3-0.8,1.8-1.4c0.8-1,0.4,0.4,0.1,0.7l0,0
		C54.3,90.7,54.4,90.7,54.2,90.8z"/>
	<path class="st10" d="M55,88.4c-2.4,1-4.8,2.2-7.3,3.2c2.8-15.7,2.4-32.1,0.4-47.8c0-0.3-0.2-0.7-0.5-0.9c-1.2-0.9-3.3,0.9-4.1,1.9
		c-0.8,1.3-2.3,2.2-3.5,3.3c-11.5,5.4-13,12.6-7.9,21.4c0.5,0.9,2.3,2.6,2.9,3.6c0.4,0.6-0.5,0.4-0.1,1L34,74.7l-1.1,0.9l-1.6,0.6
		c-3.7-6.3-7.5-14.5-3.8-21.6l0,0c0.6-1,1.3-2,2.5-2.2c1.8-0.9,3.3-2.5,4.5-4c0.8-0.9,1-2.3,1.9-3.1c1.3,0,2.4-0.6,3.4-1.4
		c1.7-1,3.2-0.8,4.1-3c0.3-0.8,0.9-1,1.7-1.1c2.1-0.1,1.3-1,2.6-1.4c0.8-0.3,1.8-0.4,2.5-0.7c0.4,1.3-0.5,1.8-0.7,3
		c-0.1,0.7-0.3,1.5-0.2,2.3C51.6,57.9,52.9,73.2,55,88.4z"/>
	<path class="st1" d="M40,48.1l-1,0.4c-0.4,0.1-0.7,0.3-1.1,0.5c-3.1,2.1-6.2,3.8-8.2,7.3c-2.8,6.3,1.6,13,5.3,17.8
		c0,0,1.5-1.1,2.1-1.6c0.6-0.6-0.8-1.9-1.7-2.6c-0.5-0.4-1-1-1.5-1.5c-2.5-3.4-4.8-8-2.7-12c1.9-3.1,7.8-7.7,7.9-7.7L40,48.1z"/>
	<path class="st2" d="M27.4,54.5c-3.4,7.3,0.1,15.1,3.8,21.6c-0.1,0.2,0.1,0.2,0,0.2c-0.9,0.1-2.9,0.8-3.1-0.6
		c-0.5-2.3-1.1-4.7-1.6-7.1c-0.5-1.9-0.7-3.9-0.9-5.9C25.1,59.9,25.4,56.8,27.4,54.5z"/>
	<path class="st3" d="M28.4,76.4c1.4,0.4,2.8,0.4,4.2-0.1c0.8-0.3,0.8-0.2,1,0.6c0.4,1.2-0.7,1.6-1.6,2c-2.6,1-5.3,2.1-8.1,3
		c-0.2-0.3-0.8-1.5-0.2-1.6c1.7-0.6,3.6-1.7,4.1-3.5C27.9,76.5,28.2,76.5,28.4,76.4z"/>
	<path class="st4" d="M23.9,82c2.6-1.1,5.3-1.9,7.9-3c0.6-0.3,1.7-0.5,1.8-1.3c0-0.1,0-0.2,0-0.3c-0.1-0.4-0.1-1.1-0.5-1.1
		c-1.4,0.5-3,1-4.3,0.2c2,0,3.6-0.9,5.3-1.8c1.9,4.7,1.9,3.5-2.4,5.4c-2,0.8-4,1.5-6.2,2C24.8,82.5,24.2,83.1,23.9,82z"/>
	<path class="st7" d="M28,76.5c-0.1,1.7-2.1,2.7-3.3,3.5c-0.3,0.3-1,0.3-1.2,0.7C23,78.2,26,77,28,76.5z"/>
	<path class="st11" d="M29.6,35.1c1-2.7,2.7-5.1,4.2-7.6c2.3-0.5,2.2-4.4,5.2-4.3c0.5,0.3,1.5,0.9,1.8,0.1c0.1-0.4-0.5-0.6-0.7-0.8
		c-0.9-0.5-1-2.1-0.1-2.6c2.1,1,1.3-0.2,3,2c0.3,0.8-0.7,1.4-0.4,2.2c0.7,2.1,1.7,4.2,2,6.5c-0.7,0.6-0.1,1.6-0.1,2.3
		c0.3,0.9-0.4,2.9,0.1,3.3c0.1,0.2,0,0.4-0.2,0.5c-1.4-2.3-5.4-1.6-6.7,0.7c-0.3-0.4-0.2-0.9-0.1-1c0.6-2.5,4.4-3.8,3.9-6.7
		c-0.3-0.8-0.7,0.6-0.9-0.1c-0.1-0.4-0.7-0.4-0.8-0.7c1.8-0.5,0.7-1.9-0.7-1.3c-1.8,0.7-6.5,4.8-4.9,6.8c-0.1,0.9-1.4-0.1-1.9,0.4
		c-0.3,1.2,1.6,2.6,2.6,3.1c0.8,0.3,1.5,0.5,2.3,0.6c0.5,0.1,0.2,0.6,0.4,0.9c0.1-0.9,1.1-1.9,1.7-0.8c0.3,0.4,0,1.1,0.6,1.3
		c0,0.5,0,0.9-0.3,1.3c-0.7-0.6-1-1.3-2.1-0.9C34.8,39.6,30.4,38.5,29.6,35.1z"/>
	<path class="st12" d="M42.9,23.1c0.7-1.6-0.3-3.3-2-3.4c0.2-1.3-0.1-2.6,0-4c-3.1,2-4.8-5.2-1.3-4.4c2,0.1,1.9-3.2,2.9-4.2
		c1,0,1.9,0.3,2.9,0.3c0.6,0,1.4-0.5,2-0.2c4,4.7,3.2,16.8-5.3,9.9c0,1.5,1.2,2.8,2.6,3.3c0.1,0,0.6,0.1,0.3,0.3
		c-0.7,0.4-0.4,5.1-0.8,3.6C44.3,22.6,43.6,23.7,42.9,23.1z"/>
	<path class="st13" d="M55.2,0.1c-1.2-0.3-2.4,0.5-3.6,0.8C48,2.3,42.9-0.6,40.2,3.3c-3.4,3.3,0.7,4.8-2.3,5.9
		c-0.8,0.3-1.7,0.8-2.3,1.5C35.2,11.3,35,11,35,11c-1.4,3.5,2.6,2.9,2.7,1.5c0.2-1.9,3-1.4,3.7-3.3c0.6-0.4,1.1-2,1.1-2.2
		c0,0,0.8,0.3,1.1,0.4c0.1,0,0.3,0,0.4,0c0.2,0,0.5,0,0.9-0.1c3.3-0.8,8.7-2.7,9-3C55.2,3.3,57.8,0.8,55.2,0.1z"/>
	<path d="M34.7,11.6c0,0,0.2-0.1,0.3,0.1c0.8,0.9,1.5,0.9,2.6,0.8l-0.1,0.4c0,1.8,1.4,3.6,3.2,2.8c0,0,0.1,1.4,0,2.3
		c0,0-0.3,0.3-1,0.4C36.4,18.5,33.9,14.7,34.7,11.6z"/>
	<path class="st1" d="M50.9,37.7c-0.3,0.1-0.9,0.1-1.2,0.2c-0.5,0.1-0.9,0.3-1.4,0.4c-0.9,0.2-0.6,0.8-1.3,1.1c-0.9,0.5-2.3,0-2.8,1
		c-0.3,0.8-0.9,1.6-1.5,2.2c-0.5,0.4-1.2,0.6-1.9,0.8s-1.2,0.8-1.9,1.2c-0.6,0.3-1.7,0.8-2.4,0.6c0.6-0.7,1.2-1.5,1.9-2.1
		c0.9,0,1.2-0.6,1.7-1.2c2.1-0.1,2.1-1,3.2-2.4c0.7-1,2.1-0.4,3.2-0.7c0.3-0.1,0.5-0.1,0.5-0.5c-0.2-0.4-1.2-0.2-0.6-0.9
		c1.3-0.3,3.1,0.1,4.4,0L50.9,37.7z"/>
	<path class="st14" d="M40,41.8c-0.3,0.7-1,1.3-1.8,1.2c-0.9-0.3-1-1.4-0.8-2.2c-2.5-0.7-9.7-1.9-7.9-5.7c0.4,0.4,0.3,1.1,0.7,1.5
		c1.3,1.8,4.3,2.6,6.5,3.4c0.3,0.1,0.7,0.3,1,0.2C38.9,39.7,39.7,40.9,40,41.8z"/>
	<path class="st2" d="M36.1,45.5c-0.4,2.5-5.3,7.5-7.9,7.9C30.3,50.8,33.8,48,36.1,45.5z"/>
	<path class="st6" d="M39.1,23.3c-0.9,0.3-1.6,0.1-2.2,1.1c-0.6,0.7-1.9,3.7-3,3.2c1.3-1.8,2.1-4.8,4.7-5.2
		C38.7,22.6,39.1,23.1,39.1,23.3z"/>
	<path class="st14" d="M39.1,23.3c-0.2-0.3-0.5-0.5-0.5-0.9c0.1,0,0.2-0.1,0.2-0.2c0.1-0.8,0.4-1.6,1.1-2.1
		c-0.2,0.8-0.6,1.6,0.3,2.3c0.3,0.3,0.8,0.4,0.9,0.8C41.1,24.2,39.5,23.8,39.1,23.3z"/>
	<path class="st15" d="M40.8,19.6c0.7,0,1.4,0,1.8,0.7c0.3,0.5,0.4,1,0.4,1.5c0,0.4-0.5-0.5-0.6-0.7c-0.4-1.1-2.9-0.8-2.3-1.3
		C40.3,19.8,40.6,19.6,40.8,19.6z"/>
	<path class="st11" d="M66.4,24.5c-0.3,0.2-0.5,0.3-0.5,0.3c-0.2,0,0.1-0.6-0.5-0.4c-3.9,1.6-8.2,1.5-12.3,2.3
		c-1.4,0.3-3.5,1.3-3.7,2.8c0,0.4,0.3,0.5,0.6,0.5c0.9-0.6,1.9,1.4,3.6,1.5c0.4,0.1,0.8,0.1,1.2,0c0.9,0.4,1.8,0.6,2.7,0.7
		c0,1,0.6,1.2,1.3,1.7c1,0.5,0.8,1.5,1.1,2.3c0.1,0.5,0.8,0.6,0.8,0.8c-0.6,0.9-1.5,1.4-2.5,1.6c-0.2-0.2-0.4-0.3-0.7-0.4
		c-6.1-0.6-11.1-5.1-12-11.2c-0.4-2-0.9-4-0.3-5.9c0.3-0.7-0.5-0.5-0.3-1c0.4-0.8,1.3-0.9,1.9-0.5c0.1,0,0.1,0.1,0.2,0.2
		c0,0.1-0.1,0.1,0,0.1c0.3,1.1-0.7,1.8-0.9,2.8c-0.1,0.5,0.5,0.8,0.7,0.3c0.2-0.4,0.5-0.7,0.7-1.1c0.2-0.1,0-1.3,0.4-0.9
		c0,0.3,0.2,0.4,0.5,0.4c0.9,0-0.4,0.8,0.6,1.2c1.4,0.9,13.6,0.6,12.9-1.8c0.2-1,1.1-0.7,1-1.6c-0.1-2.3-1.5-4.1-3.2-5.6
		c-0.7-0.3-1.4,1-2.3,0.6c-0.4-0.1-0.7-0.1-1.1,0.1l-0.1-0.4c0.9-0.3,1.2-1.2,1.7-1.8c1.1-1.3,2.1-2,3.6-2c0.2,0,0.7-0.2,0.6,0.2
		c-0.3,1.3-1.7,1.8-0.5,3.3c1.8,2.4,4.1,4.6,4.8,7.6c0.3,2,1.5,1,0.6,2.5C67,24,66.8,24.3,66.4,24.5z"/>
	<path class="st6" d="M45,20.3c0.4,0,0.6,0.3,0.4,0.6c-0.3,0.8-0.3,1.6-0.4,2.4c0.3,2.4,0.7,4.8,1.6,7.1c1.5,3.3,4.3,6.2,8,7.2
		c0.7,0.3,3.6,0.4,3.6,1.1c-2.5,0.7-5.1-0.2-7.4-1.4c-3.9-2.4-6.6-8.5-6.6-12.9C44.4,23.2,44.1,21.2,45,20.3z"/>
	<path class="st14" d="M54.9,31.5c-1.3,0.6-3.1-0.5-4-1.5c-0.4-0.1-1.6,0.6-1.5-0.3c0.7-4.7,9.6-3.5,13.3-4.5c1-0.3,2-0.7,3-0.9
		c0.1,0,0.3,0,0.4,0.1c0.8,0.5-2.1,1.4-2.1,1.4c-2.1,0.8-3.7,1.1-5.7,1.3C54.4,27.5,47.9,28.1,54.9,31.5z"/>
	<path class="st6" d="M60.8,37.1c-0.1-0.1-0.2-0.1-0.3-0.2c-0.2-0.1-0.4-0.2-0.5-0.5c-0.2-0.3-0.3-0.6-0.3-1c0-0.6-0.3-1-0.7-1.3
		c-0.3-0.2-0.7-0.4-1-0.7c-0.1-0.1-0.1-0.1-0.2-0.2c-0.2-0.2-0.3-0.5-0.2-0.8c0-0.1,0-0.1,0-0.2c0.7,0.1,1.4,0.2,2.1,0.5
		c0.7,0.3,1.2,0.8,1.5,1.4c0.2,0.3,0.2,0.6,0.2,1C61.4,35.9,61.3,36.5,60.8,37.1z"/>
	<path class="st16" d="M61.3,12.7c-0.6-0.6,0.8-2,0.9-2.5C62.7,11.1,61.9,12.1,61.3,12.7z"/>
	<path class="st17" d="M64.3,5.7L64.3,5.7C64.4,5.7,64.4,5.7,64.3,5.7c0,0.5,0,1,0.1,1.5c0,0.3,0.1,0.6,0.2,0.9
		c0.1,0.3,0,0.5-0.2,0.7c-0.1,0.1-0.2,0.1-0.3,0.2c-0.3,0.1-0.6,0.2-0.8,0.2c-0.9,0.1-1.8,0.3-2.7,0.5c-0.4,0.1-0.9,0.2-1.3,0.3
		c-0.1,0-0.1-0.1-0.2-0.2c0-0.1-0.1-0.2,0-0.3c0-0.6-0.2-1.1-0.3-1.7c0,0.1,0.1,0.4,0,0.5c-0.1,0-0.1,0-0.2,0.1
		c-0.1,0.3-0.2,0.5-0.5,0.6c-0.1,0.1-0.4,0.4-0.5,0.3c-0.1-0.4,0-1,0-1.4c0.3,0,0.5-0.2,0.5-0.3c0.2-0.2,0.7-0.4,0.8-0.5
		c0,0,0.1-0.1,0.1,0l0,0l0,0c-0.1,0.1-0.1,0.2,0,0.3c0.1,0.1,0.2,0.1,0.3,0.1c0.3,0,0.7,0,1-0.1c1-0.3,2-0.6,2.9-1
		c0.1,0,0.2-0.1,0.3-0.1C63.9,6.3,64.2,6.1,64.3,5.7z"/>
	<path class="st18" d="M59.3,9.8c0,0.1,0.1,0.1,0.1,0.2c0,0,0,0,0,0.1c-0.3,0.3-0.7,0.5-1.1,0.8c-0.5,0.4-0.9,0.7-1.2,1.3
		c-0.1,0.1-0.1,0.2-0.3,0.3c-0.7,0.2-1.2,0-1.6-0.6c-0.3-0.3-0.6-0.7-0.7-1.1c0.2-0.2-0.1-3.5,0-3.5c0.1,0.1,1.7,0.9,3,1.6
		c0.1,0.1,0.1,0.5,0.2,0.6C58.5,9.9,59.2,9.8,59.3,9.8z"/>
	<path class="st6" d="M56.8,12.5c0.4-0.8,1-1.3,1.8-1.8c0.3-0.2,0.5-0.5,0.8-0.6c0.2,0.2,0.3,0.3,0.6,0.3c-0.1,0.2-0.4,0.3-0.5,0.4
		c-0.4,0.3-0.8,0.7-1.2,1.2c-0.4,0.4-1.2,2-1.9,1.8C56.3,13.4,56.4,12.8,56.8,12.5z"/>
	<path class="st19" d="M58.2,7.6c-1.9,1.1-2-0.3-2-0.8c0-0.3,2-1,2.2-1.2l0.1,0.3c0.2,0.5,0.4,1.2,0.4,1.2s-0.1,0.1-0.1,0.4
		L58.2,7.6z"/>
	<path class="st4" d="M48.1,34.7c0.7,0.9,1.8,1.9,2.7,2.6c-1.2,0.2-2.7-0.2-3.9,0.1c-0.6,0.1-1.2-0.2-1.9-0.2c-0.1,0-0.5,0-0.4-0.3
		c0.3-0.3,0.2-0.7,0.4-1c0.9-1.1-0.3-4.8,0.5-3.9C46.2,32.8,47.1,33.9,48.1,34.7z"/>
	<path class="st6" d="M34.3,34.6c-0.3,2.2,1.7,3.3,3.6,3.3c0.6-0.6,1.1-0.7,2.1,0.2c0.1,0.1,0.3,0.3,0.2,0.5c0,0.4,0.2,1.2-0.1,1.4
		s-0.5-0.4-0.4-0.6c0-0.2,0-0.4-0.1-0.5c-0.1-0.3-0.7-0.7-1-0.5c-0.3,0.3-0.6,0.8-0.6,1.2c0,0,0,0.1-0.1,0.1h-0.1
		c-0.3-0.3,0.1-1-0.3-1c-0.9-0.1-1.7-0.4-2.5-0.7c-0.7-0.3-1.3-0.7-1.7-1.3c-0.4-0.5-1.2-1.1-0.9-1.8c0.2-0.3,0.7-0.2,1-0.1
		C33.7,34.9,34,34.6,34.3,34.6z"/>
	<path class="st14" d="M39.9,29c-0.7,0-1.4,0.2-2,0.6c-0.9,0.6-1.6,1.3-2.3,2.1c-0.6,0.7-1,1.5-1.2,2.4c0,0.1,0,0.2-0.1,0.3
		c0,0,0,0,0,0.1s-0.1,0-0.2,0c-0.1-0.1-0.2-0.2-0.2-0.4c0-0.6,0.1-1.2,0.4-1.8c0.3-0.5,0.5-1,0.9-1.4c0.2-0.3,0.5-0.5,0.7-0.8
		c0.3-0.3,0.6-0.6,0.9-0.9c0.5-0.5,1-0.9,1.6-1.3c0.4-0.3,0.9-0.4,1.4-0.5c0.4,0,0.7,0.1,1,0.3c0.3,0.3,0.2,0.8-0.1,1
		C40.5,28.9,40.2,29,39.9,29z"/>
	<path class="st14" d="M40.2,38.6c-0.1,0-0.3-0.4-0.4-0.6c-0.2-0.3-0.6-0.5-1-0.5c-0.2,0-0.4,0.1-0.5,0.2c-0.1,0.1-0.2,0.2-0.4,0.2
		c0-0.1-0.1-0.3-0.1-0.4c0-0.4,0.3-0.6,0.6-0.8c0.2-0.2,0.4-0.3,0.6-0.5c0.6-0.5,1.3-0.8,2.1-0.9c0.6-0.1,1.2,0,1.8,0.2
		c0.2,0.1,0.5,0.2,0.7,0.3c0.3,0.1,0.5,0.3,0.8,0.6c0.1,0.1,0.2,0.2,0.2,0.4c0,0,0,0.1-0.1,0.1c-0.4,0.1-0.7-0.1-1-0.3
		c-0.7-0.3-1.3-0.2-1.9,0.4c-0.3,0.3-0.7,0.7-1,1C40.4,38.2,40.4,38.6,40.2,38.6z"/>
	<path class="st3" d="M48.1,34.7c-1.2-0.6-2-1.8-2.9-2.8c-0.5-0.5-0.3-1.2-0.5-1.7c-0.6-1.7-1.2-3.5-1.8-5.2c-0.5-1.3,0-1.8,0-1.8
		c0.5,0.2,1.5-0.3,1.4,0c-0.3,2.2-0.2,4.2,0.9,5.8C45.9,30.9,46.8,32.9,48.1,34.7z"/>
	<path class="st18" d="M40.1,39.9c0-0.4,0.1-0.9,0-1.3c0-0.1,0-0.2,0.1-0.2c0.4,0.1,0.4,1,0.5,1.3s0.3,0.4,0.6,0.3
		c0.3-0.1,0.4-0.3,0.6-0.5c0.3-0.4,0.6-0.8,1-1.1c0.5-0.4,1.2-0.4,1.8-0.4c0.7,0,1.4,0.1,2-0.1c0.1,0,0.2,0,0.3,0s0.1,0.1,0.1,0.2
		c-0.1,0.6-0.9,0.5-1.4,0.6c-0.4,0-0.8,0-1.3,0c-1.1,0-1.5,1.4-2.1,2.2c-0.5,0.7-1.4,0.9-2.2,0.8c-0.2-0.1-0.2-0.2-0.3-0.3
		c0-0.1,0-0.2,0.1-0.4C40,40.8,40,40.4,40.1,39.9z"/>
	<path class="st6" d="M37.7,37.1c-0.4-1.3,0.2-2.9,1.1-3.8c0.9-0.9,2.2-1.8,2.2-3.2c0.6-1.2,1.1,0,0.9,0.7c-0.1,0.7-0.5,1.2-0.9,1.8
		c-0.8,0.9-1.7,1.8-2.4,2.8c-0.2,0.4-0.6,0.7-0.6,1.2S37.6,36.6,37.7,37.1z"/>
	<path class="st6" d="M44.8,30.5c0.6,1.8,1,4,0,5.8c-0.2-0.1-0.4-0.4-0.2-0.9c0.2-0.8,0.1-1.1,0.1-1.9c-0.1-0.6-0.1-1.2-0.2-1.8
		c0-0.3-0.2-0.9,0.1-1.1C44.7,30.6,44.8,30.6,44.8,30.5z"/>
	<path class="st5" d="M53.8,4.1c-0.3,0.7-8,4.1-10.6,3c-0.1,0-0.1-0.2,0-0.2c2.4-0.3,5-0.9,7.5-1.9C50.7,5,54.1,3.3,53.8,4.1z"/>
	<path class="st18" d="M45.1,19.1c0-0.2,0-0.5,0-0.5c-1-0.6-2.1-1.1-3-1.9c-0.5-0.1,0,1,0.1,1.2c0.6,1.2,1.5,2,2.7,2.4
		c0,0,0,0,0.1,0l0,0c0-0.1,0.1-0.2,0.1-0.3C45.1,20,45.1,19.2,45.1,19.1z"/>
	<path class="st20" d="M45.2,28.9c0,0.4-0.4-0.4-0.5-0.5c-0.8-1.3-1.9-4.1-0.4-5.3c0,0.4,0,1.3,0,1.3C44.4,26,44.9,27.4,45.2,28.9z"
		/>
	<path class="st21" d="M38.3,11.3c0.1-0.1,0.8-0.5,0.9-0.6c0.3-0.2,0.6-0.3,0.9-0.5c0.4-0.3,1.2-1.8,1.5-2.1
		c0.2-0.2,0.6-0.2,0.5-0.1c-0.3,0.7-0.5,1.7-1.8,3.1c-0.1,0.1-0.2,0.2-0.4,0.3c-0.1,0.1-0.3,0.1-0.4,0
		C39.3,11.2,38.6,11.1,38.3,11.3z"/>
	<path class="st12" d="M47.1,38.2c-1.1,0.3-2.3-0.1-3.3,0.1c-0.8,0.2-1.4,0.8-1.8,1.4c-0.1,0.1-0.2,0.2-0.2,0.3
		c-0.2,0.3-0.9,0.5-1,0.1c-0.2-0.5-0.1-1.1-0.5-1.6c0.3-0.6,1-1.1,1.5-1.6c0.9-0.9,1.9-0.2,2.9,0.1c0.4,0.1,0.7,0.1,1.1,0.2
		c0.1,0,0.4,0,0.5,0.1c-0.7,0.4-2.9-0.7-3.8,0.6l0,0c0.5-0.4,1-0.4,1.7-0.3c0.9,0.2,1.8,0.3,2.7,0.4C46.9,37.9,47.1,38,47.1,38.2z"
		/>
	<path class="st22" d="M46.6,37.8c-0.5,0-0.8,0-1.3-0.1c-0.4-0.1-0.8-0.1-1.1-0.2c-0.2,0-0.5-0.1-0.7-0.1s-0.4,0-0.6,0.1
		c-0.2,0.1-0.4,0.2-0.6,0.4h-0.1v-0.1c0.2-0.4,0.5-0.7,1-0.8c0.4-0.1,0.7,0,1.1,0c0.3,0,0.9,0.1,0.9,0.1c0.3,0,0.9,0,1.1-0.1
		c0.1,0,0.2,0.2,0.2,0.3C46.5,37.5,46.6,37.8,46.6,37.8z"/>
	<path class="st6" d="M48.8,21.4c0,0,0.4,0,0.5,0c0.5,0,1.1,0,1.6,0c1.3-0.1,2.6,0,3.9,0c0.4,0,0.7,0,1.1,0s0.8,0,1.2,0
		c0.8,0,1.6,0,2.5-0.1c0.7,0,2.3-0.6,2.5-0.6c0,0,0.1,0,0.2,0c0.1,0.1,0.1,0.2,0.1,0.3c0,0.1-0.1,0.2-0.1,0.3
		c-0.3,0.3-0.6,0.6-1,0.8c-0.5,0.2-0.9,0.3-1.4,0.4s-3.2,0.4-3.6,0.5c-0.7,0-2.3,0.1-2.7,0.1c-0.8,0-1.6,0-2.5,0
		c-0.7,0-1.5-0.2-2.1-0.5c-0.1,0-0.2-0.1-0.3-0.2c-0.3-0.3-0.3-0.4-0.1-0.8C48.8,21.6,48.7,21.5,48.8,21.4z"/>
	<path class="st14" d="M62.5,20c-0.1-0.1-0.1-0.3-0.1-0.5c0-1.6-1.2-2.8-2.1-4c-0.2-0.2-0.9-1.3-1.2-1.1c-0.8,0.3-2.1,0.9-2.6-0.2
		c0.3-0.7,1.5,0.2,2.1-0.4c0.2-0.2,1.2-0.8,1.4-0.4c0.1,0.2,0.3,0.3,0.4,0.5c0.3,0.3,0.5,0.5,0.8,0.8c0.6,0.6,1,1.2,1.3,2
		c0.3,0.7,0.5,1.5,0.6,2.3C63.3,19.4,63.1,20.2,62.5,20z"/>
	<path class="st14" d="M47,19.6c0.8,0.4,1.4,1.6,0.8,2.4c-0.3,0.4-0.6,0.8-0.9,1.2c-0.3,0.2-0.6,0.2-0.7-0.2
		c-0.2-0.7,0.3-1.4,0.7-1.9c0.2-0.3,0.3-0.8,0.1-1.1C47,19.8,46.8,19.6,47,19.6z"/>
	<path class="st23" d="M57.5,10.2c0,0,0.2-0.5,0.3-0.7c0.4-0.1,0.9-0.6,0.9-1.4c0-0.1,0.1-0.1,0.1,0c0.1,0.3,0.3,1.2,0.4,1.6
		c0,0.1,0,0.2,0.1,0.2C59,9.9,57.5,10.2,57.5,10.2z"/>
	<path class="st24" d="M59.2,9.6C59.1,9.3,59,9,58.9,8.7c-0.1-0.2-0.1-0.4-0.1-0.7c0-0.1,0-0.2,0-0.3c0,0,0-0.1,0.1-0.1
		s0.1,0,0.1,0.1c0,0.2,0.3,1.2,0.4,1.6C59.3,9.4,59.4,9.5,59.2,9.6z"/>
	<path class="st25" d="M56.9,7.9l1.3-0.3c0,0.3,0,0.3-0.2,0.4c0,0-0.1,0-0.1,0.1C57.6,8.1,56.9,8.1,56.9,7.9z"/>
	<path class="st26" d="M54.9,10.3c0.1,0.1,0.5,0.4,0.5,0.4s-3,0.6-4,0.8c-0.4,0-0.9-0.8-0.8-1.1c0.1-0.2,0.2-0.2,0.4-0.1l0.1,0.1
		c0.3,0.7,0.8,0.6,1.4,0.4c0.7-0.2,1.3-0.4,2-0.5C54.5,10.3,54.8,10.2,54.9,10.3z"/>
	<path class="st27" d="M57.1,9.5c0,0.2,0.2,0.5,0.2,0.7c0,0-0.4,0.1-0.5,0.1c0-0.2,0-0.5,0.1-0.7C56.9,9.5,57,9.4,57.1,9.5z"/>
	<path class="st17" d="M54.9,10.3c-0.6,0.1-1.1,0.3-1.7,0.4c-0.3,0.1-0.7,0.2-1,0.3c-0.2,0.1-0.4,0.1-0.6,0c-0.2,0-0.4-0.1-0.5-0.3
		c-0.1-0.1-0.1-0.3-0.2-0.4c0-0.1-0.1-0.1-0.2,0c-0.1,0.1,0,0.3,0,0.4c0.1,0.3,0.3,0.5,0.5,0.7c0,0,0.1,0,0.1,0.1
		c-0.1,0.1-0.1,0.3-0.3,0.4c-0.3-0.2-0.6-0.3-0.8-0.6C50,11.2,49.9,11,50,10.8c0.2-0.1,0.2-0.2,0.2-0.4c0-0.3,0.1-0.6,0.2-0.8
		c0-0.1,0-0.2,0.2-0.2c0.2,0.1,0.3,0.2,0.5,0.2c0.2,0.2,0.5,0.1,0.8,0.1c0.5-0.1,1.1-0.2,1.6-0.4c0.1,0,0.3-0.1,0.5,0
		C54,9.2,54.7,9.9,54.9,10.3z"/>
	<path class="st28" d="M54,9.1c-0.4,0.2-0.9,0.3-1.4,0.4c-0.2,0-1,0.2-1.2,0.2s-0.2,0-0.2-0.2c0.2-0.1,0.5-0.2,0.8-0.2
		c0.5-0.1,1-0.3,1.5-0.4c0.1,0,0.1-0.1,0.2-0.1S53.9,8.9,54,9.1z"/>
	<path class="st29" d="M50.7,9.3c-0.2,0.4-0.4,0.6-0.4,1c0,0.3,0.2,0.9-0.2,0.4c-0.1-0.1-0.2-0.1-0.2-0.3c-0.3-0.5,0.1-1.2,0.7-1.2
		C50.6,9.2,50.7,9.2,50.7,9.3z"/>
	<path class="st30" d="M50.9,11.7c-0.1,0-0.2-0.1-0.2-0.1c-0.2-0.1-0.6-0.7-0.7-0.9c0-0.1-0.1-0.2-0.1-0.2c0-0.1,0-0.2-0.1-0.3l0,0
		c-0.1,0.2-0.1,0.7,0,0.8c0,0.1,0.3,0.7,0.6,0.9c0.2,0.2,0.4,0.3,0.7,0.1C51,11.8,51,11.7,50.9,11.7z"/>
	<path class="st31" d="M57,4.9c-0.3,0.1-0.4,0.3-0.6,0.5c-0.4,0.1-0.7,0-1,0.4c-0.1,0.2-0.2,0.4-0.5,0.5c-0.6,0-0.6,0.6-1,0.9
		c-0.4,0.4-0.6,1-0.1,1.5c1.1,1.7,1.8,2.4,1.8,1.9l0,0c0-0.1-0.1-0.3-0.1-0.4c-0.1-0.3-0.3-0.7-0.5-1c-0.1-0.3-0.3-0.5-0.4-0.8
		c0,0,0-0.1,0-0.2l0,0c0.1,0.1,0.2,0.2,0.2,0.3c0.3,0.6,0.5,1.2,0.8,1.8l0,0l0,0c0.3,0.6,0.5,0.6,0.4-0.2l0,0l0,0c0-0.1,0-0.1,0-0.2
		c-0.1-0.5-0.2-1-0.3-1.4c0-0.1-0.1-0.3-0.1-0.4c0-0.1,0-0.1,0-0.1l0,0c0.1,0.1,0.1,0.3,0.2,0.5c0.1,0.5,0.3,1.3,0.4,1.8
		c0.1,0.8,0.6,0.4,0.6-0.8c0-0.1,0.2-0.1,0.2-0.1c0.1,0.8,0.4,1.3,0.6,0.7c0.1-0.2,0.1-0.3,0.1-0.5c0-0.5,0-1.1,0.1-1.6
		c0-0.3,0-0.6,0-0.9c0-0.4,0-1.1,0.4-1.3C58.2,6,58.3,6,58.3,6C58.8,5.5,57.5,4.8,57,4.9z M56.7,7.9c0,0-0.1-0.7-0.2-0.9
		c0-0.1,0-0.2,0-0.3V6.6c0,0,0.1,0,0.1,0.1c0.1,0.2,0.1,0.3,0.2,0.5c0,0.2,0.1,0.6,0.1,0.6C56.9,8,56.8,8,56.7,7.9z"/>
	<path class="st32" d="M57.1,9.6c-0.1,0-0.2,0.1-0.2,0.1c0-0.4-0.1-0.8-0.1-1.2L57,8.4l0.1,0.9V9.6z"/>
	<path class="st33" d="M56.9,8.3c-0.1,0-0.1,0-0.2,0.1c0-0.2,0-0.3,0-0.5c0,0,0.1,0,0.2,0C56.9,7.9,56.9,8.2,56.9,8.3z"/>
	<path class="st9" d="M74.7,3.1c0.2,1.4-5,1.8-7.6,2.5c-0.7,0.1-2,0.5-2.3-0.4l0,0C65.5,4.9,74.7,3.1,74.7,3.1z"/>
	<path class="st34" d="M75.7,3.1c-0.6,0.6-0.5,1.5-0.5,2.3c0,1-0.6,0.3-0.5-0.2C74.6,4.5,74.6,2.7,75.7,3.1z"/>
	<path class="st9" d="M77,4.9c0.2,1.4-0.3,2.2-0.4,0.3C76.5,4.6,76.2,4,76,3.5c-0.2-0.3-0.1-0.4,0.2-0.2C76.8,3.6,76.8,4.3,77,4.9z"
		/>
	<path class="st17" d="M65.3,9.4l-0.1-0.2c-0.3-0.7-0.5-1.3-0.6-2.1c-0.1-0.5-0.1-1,0-1.5c0-0.1,0.1-0.5,0.2-0.5c0,0,0.1,0,0.1,0.1
		c0,0.5,0.7,0.5,1.1,0.5c1.1-0.1,2.2-0.4,3.4-0.7c1.7-0.5,3.7-0.6,5.1-1.8c0.1,0.1,0,0.1,0,0.2c-0.1,0.3-0.1,0.7-0.2,1
		c0,0.5,0.1,0.9,0.3,1.3c0,0.1,0.1,0,0.1,0c0,0.1,0.2,0.1,0.3,0c0.1,0.1,0.1,0.2,0.1,0.3c0.1,0.4,0.2,0.8,0.4,1.2
		c0.5,1,1.2-0.3,1.1-0.9c0,0,0-0.1,0-0.2l0.1,0.1c0.1,0,0.1-0.2,0.1-0.2s-0.1,0.7-0.2,1c-0.1,0.2-0.2,0.4-0.2,0.5
		c-0.1,0.2-0.3,0.3-0.5,0.3c-0.1,0-0.1,0-0.2,0c-0.4-0.2-0.6-0.5-0.8-0.9c0-0.1,0-0.1-0.1-0.1s-0.1,0.1-0.1,0.1
		c-0.4,0.8-1.5,0.8-2.2,1.1c-2.2,0.6-4.4,1.2-6.7,1.4C65.4,9.6,65.5,9.4,65.3,9.4z"/>
	<path class="st26" d="M74.9,5.8C74.9,5.9,74.9,5.9,74.9,5.8c-0.1,0.1-0.2,0.1-0.2,0c-0.1-0.3-0.2-0.5-0.3-0.8
		c0-0.2-0.1-0.5-0.1-0.5c0-0.4,0.2-1.3,0.2-1.3l0.1-0.1c0.1,0,0.7-0.1,0.7-0.1c-0.2,0.2-0.4,0.2-0.5,0.7c-0.1,0.3-0.1,0.8-0.1,1.1
		C74.8,5.4,74.9,5.8,74.9,5.8z"/>
	<path class="st35" d="M76.8,6.2c0,0,0,0.3,0,0.5c0,0.1-0.1,0.2-0.1,0.3c-0.1,0.2-0.1,0.4-0.2,0.5l-0.1,0.1c-0.1,0.1-0.4,0.1-0.5,0
		l0,0c-0.1-0.1-0.2-0.3-0.3-0.4c-0.2-0.5-0.4-1-0.4-1.5c0-0.2,0-0.5,0-0.7c0-0.1,0-0.1,0-0.2c0-0.2,0-0.5,0-0.7
		c0-0.3,0.1-0.5,0.3-0.8c0.1-0.1,0.2-0.2,0.3-0.3c0,0,0.2,0,0.3,0.1C76,3.1,76,3.2,76,3.2l0.1,0.1c0.2,0.2,0.4,0.6,0.5,0.8
		c0.1,0.4,0.1,0.8,0.1,1.3C76.7,5.7,76.7,6.1,76.8,6.2z"/>
	<path class="st35" d="M65.3,9.4c0.1,0,0.3,0,0.4,0c0.2,0,0.5,0,0.7,0c0.4-0.1,0.8-0.1,1.2-0.2c0.3-0.1,0.7-0.1,1-0.2
		c0.8-0.2,1.6-0.4,2.4-0.6c0.9-0.2,1.8-0.5,2.7-0.7c0.2-0.1,0.4-0.1,0.5-0.2c0.1,0,0.2-0.1,0.2-0.2c0.1-0.1,0.2-0.2,0.3-0.4V6.8
		c0-0.1,0-0.1,0.1-0.1C75,6.7,75,6.8,75,6.8c0.1,0.1,0.2,0.3,0.2,0.4c0.1,0.2,0.3,0.6,0.7,0.7c-0.1,0-1.2,0.2-1.3,0.3
		c-0.5,0.1-1,0.2-1.5,0.3c0,0-4.3,0.9-5,1c-0.4,0.1-0.9,0.2-1.3,0.3c-0.1,0-0.5,0.1-0.6,0.1c-0.2,0-0.3,0-0.4,0
		C65.6,9.8,65.3,9.4,65.3,9.4z"/>
	<path class="st9" d="M66.7,7.5c0,0-0.6,0-0.4-0.3c0-0.1,0.1-0.1,0.2-0.2c0.4-0.2,2-0.4,3-0.6c0.2,0,1.3-0.2,1.1,0.1l-0.1,0.1
		C69.1,7.5,66.7,7.5,66.7,7.5z"/>
</g>
</svg>
