<svg width="40" height="40" viewBox="0 0 40 40" fill="none" xmlns="http://www.w3.org/2000/svg">
<path d="M20 6.76172V36.2317" stroke="#FDFEFF" stroke-width="1.5" stroke-linecap="round" stroke-linejoin="round"/>
<path d="M25.8167 5.30656C24.1428 5.58891 22.4986 6.02521 20.905 6.6099C20.3204 6.81913 19.6813 6.81913 19.0967 6.6099C13.9793 4.60425 8.31496 4.48608 3.11835 6.27656C2.5756 6.44877 2.10185 6.78948 1.76589 7.24922C1.42992 7.70896 1.24922 8.26381 1.25002 8.83323V32.7282C1.24841 33.1375 1.34061 33.5417 1.51953 33.9097C1.69845 34.2778 1.95935 34.6 2.28217 34.8515C2.605 35.103 2.98118 35.2772 3.38182 35.3608C3.78246 35.4443 4.19692 35.4349 4.59335 35.3332C9.37868 33.9933 14.471 34.2555 19.0934 36.0799C19.6777 36.2905 20.3173 36.2905 20.9017 36.0799C25.524 34.2552 30.6164 33.9929 35.4017 35.3332C35.7976 35.4344 36.2113 35.4436 36.6113 35.3604C37.0113 35.2771 37.387 35.1034 37.7096 34.8527C38.0322 34.602 38.2932 34.2808 38.4727 33.9138C38.6521 33.5467 38.7453 33.1435 38.745 32.7349V8.83323C38.7447 8.26558 38.5641 7.71269 38.2292 7.25436C37.8943 6.79603 37.4224 6.45596 36.8817 6.28323C35.5926 5.86895 34.2753 5.54812 32.94 5.32323" stroke="#FDFEFF" stroke-width="1.5" stroke-linecap="round" stroke-linejoin="round"/>
<path d="M33.125 18.7686L29.375 15.0186L25.625 18.7686V6.26855C25.625 5.60551 25.8884 4.96963 26.3572 4.50079C26.8261 4.03195 27.462 3.76855 28.125 3.76855H30.625C31.288 3.76855 31.9239 4.03195 32.3928 4.50079C32.8616 4.96963 33.125 5.60551 33.125 6.26855V18.7686Z" stroke="#FDFEFF" stroke-width="1.5" stroke-linecap="round" stroke-linejoin="round"/>
</svg>
