<?xml version="1.0" encoding="utf-8"?>
<svg width="76" height="78" viewBox="0 0 76 78" fill="none" xmlns="http://www.w3.org/2000/svg">
    <path d="M25.7623 67.8498C25.7623 67.8498 30.6622 64.099 36.2285 70.0444C41.7948 75.9909 47.9022 79.3633 51.8416 76.696C89.2258 51.3846 26.6734 49.8054 39.7073 43.2251C44.4016 40.8545 73.8275 49.9595 75.6691 38.7404C77.5096 27.5214 67.0722 27.8009 62.1584 21.0963C57.2436 14.3918 57.9674 11.3127 52.6206 6.72912C48.5513 3.2417 35.2922 -6.20953 23.4899 9.34353C15.5087 19.8621 28.3921 28.2333 26.7756 31.723C20.5591 45.1413 2.40124 30.4498 0.428639 38.2447C-1.73238 46.7827 7.83539 65.684 15.2525 68.1868C22.6696 70.6885 23.429 68.9966 25.7635 67.8486L25.7623 67.8498Z" fill="#FFF3E5"/>
    <path d="M38.1678 56.2458C35.7961 57.1779 33.3786 57.9697 30.9165 58.6232C27.2998 54.8352 27.3077 47.6301 33.1412 45.6904C40.9449 43.096 48.699 40.3525 56.4005 37.4647C56.7701 37.3264 57.1447 37.1832 57.5551 37.2677C58.9938 40.057 59.3416 43.0204 58.6878 46.0495C58.4881 46.9736 57.559 47.6073 56.7324 48.1285C53.1822 50.3687 49.4512 52.222 45.4261 53.4664C42.949 54.2324 40.6071 55.3704 38.1678 56.2438V56.2458Z" fill="#725E4C"/>
    <path d="M57.5321 37.3649C53.8051 38.9208 50.0204 40.3144 46.1782 41.5589C44.8418 41.9916 43.5322 42.5039 42.2057 42.9674C39.4723 43.9224 36.7806 45.0365 33.9916 45.7836C28.4999 47.2549 27.7249 52.73 30.0003 56.7469C30.3431 57.3517 30.6133 57.9973 30.9164 58.624C29.2789 59.2636 27.5828 59.6775 25.8023 60.0246C24.1867 54.8867 22.5939 49.8184 21.0002 44.7501C20.8889 44.0149 21.489 43.9244 21.9461 43.7652C22.5512 43.5544 23.1921 43.4509 23.7882 43.2012C24.9468 42.8899 25.7407 41.4723 27.0393 41.8056C27.3781 41.7996 30.2795 40.8924 30.8081 40.1344C32.1236 39.0869 34.7437 39.7603 36.251 39.2252C38.2273 38.5248 40.2106 37.7987 42.2574 37.2993C42.7224 37.1859 43.1844 37.0098 43.6772 37.1561C43.6753 36.7223 47.1002 36.3652 47.8216 35.6579C49.8595 34.6542 52.0682 34.119 54.2055 33.3968C55.1395 33.0815 56.0685 32.6398 57.0929 32.616C57.2887 32.6667 57.0214 32.41 57.0929 32.616L56.921 32.1693C56.5077 31.7167 57.392 33.2944 57.4526 33.3988C57.543 33.8355 57.8133 34.1946 57.9037 34.6313C57.7606 35.5406 58.0279 36.5055 57.5321 37.3669V37.3649Z" fill="#463B30"/>
    <path d="M28.904 30.7086C29.2081 31.5969 27.1374 31.3601 26.6913 31.5461C25.0488 32.2325 23.3518 32.7796 21.7073 33.4601C27.4275 32.4544 32.9251 30.626 38.4724 28.9787C41.3728 28.1172 44.2503 27.1722 47.2043 26.4967C47.3324 26.4997 47.4556 26.5216 47.5769 26.5614C47.6305 26.5952 47.6832 26.63 47.7368 26.6639C48.0409 27.6626 47.2162 27.8596 46.622 28.1222C43.203 29.6342 39.8079 31.202 36.2637 32.4176C32.63 33.665 29.1981 35.3312 25.96 37.4232C24.0363 38.6657 23.001 40.1329 23.8585 42.4736C23.9777 42.7999 24.0493 43.157 23.9002 43.5072C22.6304 44.0205 22.6572 44.1478 21.0009 44.7496C20.4186 44.7566 20.1961 44.4184 20.0381 43.8911C18.9431 40.2364 17.8134 36.5916 16.7035 32.9408C16.4988 32.2664 16.2812 31.577 16.8724 30.9642C19.0822 30.24 21.292 29.5198 23.4998 28.7897C23.9002 28.6574 29.1107 27.3244 29.2051 26.7613" fill="#725E4C"/>
    <path d="M57.5327 37.3649C57.2485 36.398 57.3528 35.4828 57.9043 34.6293C58.1556 35.3296 58.408 36.0299 58.6594 36.7302C59.7871 40.4287 60.9139 44.1272 61.9999 47.6895C60.0524 48.5032 58.1924 49.3806 56.2648 50.066C50.5864 52.0853 44.8801 54.0291 39.1827 55.9967C38.8548 56.1101 38.5061 56.1639 38.1673 56.2454C39.8912 55.2984 41.6866 54.5066 43.5377 53.851C48.005 52.2684 52.356 50.45 56.387 47.9083C58.1884 46.7723 58.9148 45.2852 58.6097 43.1673C58.3285 41.2156 58.1248 39.2559 57.5317 37.3649H57.5327Z" fill="#8D7562"/>
    <path d="M27.7444 30.7181C27.9729 30.6266 28.2014 30.535 28.43 30.4445C30.0227 29.3314 31.8808 28.8489 33.6822 28.2302C37.2343 27.0474 40.863 26.1352 44.4707 25.1514C44.6416 25.0818 44.8175 25.029 44.9954 24.9823C45.3491 24.8957 45.7088 24.8331 46.0635 24.7435C48.167 24.1905 50.2704 23.6374 52.2447 22.2795C51.0693 21.3683 50.0002 21.7215 48.9489 21.8577C48.1531 21.9612 47.3333 22.4636 46.5663 21.7622C46.4679 21.5911 44.6943 21.9224 44.9109 21.7802C46.4679 21.5902 50.1144 20.284 51.9139 19.9667C52.5517 19.8543 53.1479 19.8046 54.0332 19.7409C55.8078 23.706 56.9773 28.0074 58.269 32.1903C58.2153 32.7076 57.8258 32.5146 57.5923 32.7534C57.4254 32.7056 57.2008 32.8658 57.0339 32.818C56.1864 32.8717 55.9389 32.2401 55.6856 31.6243C55.2355 30.535 54.9265 29.3871 54.3462 28.3515C53.3635 26.5978 51.8801 25.3046 49.6305 26.4187C49.0085 26.7271 48.2961 26.8286 47.5837 26.6953C47.4695 26.74 47.3512 26.7639 47.229 26.7679C38.3164 29.2886 29.5855 32.4888 20.3887 33.9749C22.6015 32.3167 25.3885 32.0063 27.7464 30.7161L27.7444 30.7181Z" fill="#DAC8B9"/>
    <path d="M47.5749 26.6934C48.7295 26.3104 49.8592 25.7623 51.0446 25.5852C52.6214 25.3494 53.6846 26.4238 54.3861 27.6573C55.0717 28.8629 55.5049 30.2138 56.0216 31.512C56.2362 32.0521 56.4458 32.5704 57.0261 32.8171C54.0165 33.8338 51.0068 34.8504 47.9972 35.8671C47.251 36.1217 44.4739 36.8877 43.5399 37.3423C39.6817 38.5738 35.8225 39.8063 31.9644 41.0378C31.1655 41.3104 27.9164 42.3459 27.1175 42.5956C26.0454 42.899 24.9724 43.2034 23.9003 43.5068C22.6384 39.9754 22.6781 39.3268 25.4244 37.3682C28.1261 35.4413 31.0592 33.9412 34.1622 32.8082C38.3354 31.2852 42.439 29.5991 46.4889 27.7787C46.9638 27.5648 47.6604 27.5011 47.5749 26.6934Z" fill="#B79980"/>
    <path d="M27.3312 41.007C27.5369 40.1087 28.1797 39.9863 28.924 40.1724C30.3418 40.5255 31.5958 42.7309 31.24 44.1415C31.0284 44.9791 30.4054 45.3143 29.6692 45.5391C28.289 45.0188 27.2607 41.5372 27.3322 41.007H27.3312Z" fill="#483D35"/>
    <path d="M43.7361 35.1212C44.7824 34.2995 45.5355 34.3771 46.244 35.4385C46.7626 36.2144 47.0637 37.0988 47.2654 38.004C47.481 38.9719 47.0329 39.6155 46.1595 40.0015C44.7148 39.6802 43.3069 35.8305 43.7351 35.1212H43.7361Z" fill="#483D35"/>
    <path d="M29.6675 45.5382C31.2274 44.0411 31.1092 41.9521 29.3853 40.8011C28.6589 40.3157 27.9386 40.1725 27.3305 41.0071C27.255 40.0431 27.8998 39.5736 28.6421 39.2831C29.3892 38.9907 30.0639 39.2324 30.6849 39.7815C31.136 40.1804 31.9627 42.2266 32.0928 42.8175C32.537 44.8369 31.7034 45.762 29.6675 45.5382Z" fill="#725E4C"/>
    <path d="M46.1609 40.0001C47.0382 38.6005 46.8475 36.6726 45.7525 35.3725C45.1335 34.6383 44.4588 34.7955 43.7365 35.1198C44.7748 33.5361 46.2026 33.5152 47.1922 35.0919C47.4049 35.4311 47.9911 37.4624 47.9911 38.2602C47.9911 39.5455 47.4585 40.1433 46.1609 40.0001V40.0001Z" fill="#725E4C"/>
    <path d="M43.3511 22.3C43.828 23.1535 43.3322 24.8147 44.5305 24.9749C44.7063 25.0674 44.8822 25.1599 45.0581 25.2524C44.9378 25.2952 39.5525 26.5844 37.0208 27.3335C35.896 27.6667 34.819 28.1561 33.7012 28.5232C31.9425 29.1628 30.1828 29.8025 28.4241 30.4421C29.5747 29.4046 29.4893 28.1044 29.2051 26.7615C30.769 25.8125 32.5794 25.5389 34.2844 25.0296C36.2567 24.4397 38.1853 23.7205 40.1656 23.1634C40.9426 22.9446 42.4508 22.6541 43.3511 22.3Z" fill="#7E6753"/>
    <path d="M44.8443 25.3076C41.6598 22.7282 46.9647 22.9013 46.6596 21.6499C47.5559 22.0398 48.3557 21.4957 49.2013 21.3863C50.4522 21.2241 53.0207 21.3962 53.0217 22.0776C53.3376 22.758 47.3124 24.7257 44.8453 25.3076H44.8443Z" fill="#B79980"/>
    <path d="M28.9673 20.6771C28.7358 20.6463 25.607 23.172 23.8006 23.6276C23.5025 23.7032 23.2471 23.917 23.3753 24.313C23.7459 25.5664 24.1175 26.8198 24.4882 28.0732C24.7823 29.9264 26.1296 30.4815 27.7372 30.7162C28.0602 30.7142 28.4199 30.7491 28.6901 30.5899C29.8954 29.5812 29.9172 28.284 29.5923 26.9003C29.1969 25.7255 29.3976 24.7119 30.3892 23.9121C30.3892 23.9121 34.3537 20.6373 36.8814 19.6346C39.4091 18.6319 42.1068 19.739 42.1068 19.739C42.1664 20.126 42.1863 20.5229 42.1465 20.9367C42.2856 21.8121 42.3204 22.4637 42.4029 23.2257C42.7487 24.2135 42.9027 25.1018 44.5302 24.9755C46.1359 21.9404 44.4398 17.6063 41.0764 16.1489C41.0059 16.135 41.146 16.1688 41.0764 16.1489C41.0764 16.1489 36.0676 16.893 33.6929 17.8122C31.3192 18.7304 28.9683 20.6781 28.9683 20.6781L28.9673 20.6771Z" fill="#463B30"/>
    <path d="M46.6035 21.278C46.6223 21.4024 46.6412 21.5257 46.6601 21.6501C47.0536 23.2626 46.1066 24.6075 45.746 24.6821C45.437 24.7348 44.4215 25.1407 44.2695 24.9855C44.1184 23.8176 44.9859 22.798 44.6113 21.5745C44.0111 19.6158 43.5233 17.6501 41.4437 16.6693C41.2449 16.5758 41.1217 16.3758 41.076 16.147C44.0926 14.7414 44.9262 15.1045 45.7956 18.2201C46.0788 19.2348 46.3352 20.2574 46.6044 21.277L46.6035 21.278Z" fill="#725E4C"/>
</svg>
