<svg width="42" height="42" viewBox="0 0 42 42" fill="none" xmlns="http://www.w3.org/2000/svg">
<path d="M35.875 10.5H6.125C3.22551 10.5 0.875 12.8505 0.875 15.75V33.25C0.875 36.1495 3.22551 38.5 6.125 38.5H35.875C38.7745 38.5 41.125 36.1495 41.125 33.25V15.75C41.125 12.8505 38.7745 10.5 35.875 10.5Z" stroke="#FDFEFF" stroke-width="1.5" stroke-linecap="round" stroke-linejoin="round"/>
<path d="M14.875 10.5V7C14.8778 6.07259 15.2474 5.18396 15.9032 4.52819C16.559 3.87241 17.4476 3.50277 18.375 3.5H23.625C24.5524 3.50277 25.441 3.87241 26.0968 4.52819C26.7526 5.18396 27.1222 6.07259 27.125 7V10.5" stroke="#FDFEFF" stroke-width="1.5" stroke-linecap="round" stroke-linejoin="round"/>
<path d="M34.125 10.5V38.5" stroke="#FDFEFF" stroke-width="1.5" stroke-linecap="round" stroke-linejoin="round"/>
<path d="M28.875 10.5V38.5" stroke="#FDFEFF" stroke-width="1.5" stroke-linecap="round" stroke-linejoin="round"/>
<path d="M13.125 10.5V38.5" stroke="#FDFEFF" stroke-width="1.5" stroke-linecap="round" stroke-linejoin="round"/>
<path d="M7.875 10.5V38.5" stroke="#FDFEFF" stroke-width="1.5" stroke-linecap="round" stroke-linejoin="round"/>
</svg>
