<svg width="89" height="131" viewBox="0 0 89 131" fill="none" xmlns="http://www.w3.org/2000/svg">
<path d="M33.3854 88.4258V86.1112C33.3854 85.8291 33.3298 85.5499 33.2219 85.2895C33.1139 85.0289 32.9557 84.7922 32.7562 84.5929C32.5567 84.3936 32.3199 84.2354 32.0593 84.1277C31.7987 84.02 31.5193 83.9647 31.2374 83.9648H22.5787C22.2966 83.9647 22.0174 84.02 21.7568 84.1277C21.4962 84.2354 21.2594 84.3936 21.0599 84.5929C20.8604 84.7922 20.7021 85.0289 20.5942 85.2895C20.4863 85.5499 20.4307 85.8291 20.4307 86.1112V88.4258" stroke="#420A98" stroke-width="1.5" stroke-linecap="round" stroke-linejoin="round"/>
<path d="M16.1123 88.4247V86.0935C16.1123 84.3844 16.7912 82.7454 17.9997 81.5368C19.2081 80.3283 20.8473 79.6494 22.5564 79.6494H31.2601C32.9688 79.6499 34.6075 80.329 35.8156 81.5373C37.0238 82.7459 37.7025 84.3847 37.7025 86.0935V88.4247" stroke="#420A98" stroke-width="1.5" stroke-linecap="round" stroke-linejoin="round"/>
<path d="M21.5038 92.599H15.0264V90.0796C15.0264 89.8433 15.073 89.6092 15.1634 89.3909C15.2538 89.1726 15.3865 88.9743 15.5537 88.8073C15.7209 88.6403 15.9192 88.5079 16.1377 88.4176C16.356 88.3274 16.5901 88.2809 16.8264 88.2813H19.7037C19.94 88.2809 20.1741 88.3274 20.3924 88.4176C20.6107 88.5079 20.8092 88.6403 20.9764 88.8073C21.1436 88.9743 21.2763 89.1726 21.3667 89.3909C21.4571 89.6092 21.5038 89.8433 21.5038 90.0796V92.599Z" stroke="#420A98" stroke-width="1.5" stroke-linecap="round" stroke-linejoin="round"/>
<path d="M38.7831 92.599H32.3057V90.0796C32.3057 89.6025 32.4952 89.1451 32.8323 88.8079C33.1697 88.4707 33.6271 88.2813 34.104 88.2813H36.9897C37.226 88.2809 37.4601 88.3274 37.6784 88.4176C37.8969 88.5079 38.0952 88.6403 38.2624 88.8073C38.4295 88.9743 38.5623 89.1726 38.6527 89.3909C38.7431 89.6092 38.7897 89.8433 38.7897 90.0796L38.7831 92.599Z" stroke="#420A98" stroke-width="1.5" stroke-linecap="round" stroke-linejoin="round"/>
<path d="M7.47754 92.5996V129.314" stroke="#420A98" stroke-width="1.5" stroke-linecap="round" stroke-linejoin="round"/>
<path d="M46.3408 92.5996V129.314" stroke="#420A98" stroke-width="1.5" stroke-linecap="round" stroke-linejoin="round"/>
<path d="M49.0576 92.5996H4.75822C2.68262 92.5996 1 94.2822 1 96.3578V125.556C1 127.632 2.68262 129.314 4.75822 129.314H49.0576C51.1332 129.314 52.8158 127.632 52.8158 125.556V96.3578C52.8158 94.2822 51.1332 92.5996 49.0576 92.5996Z" stroke="#420A98" stroke-width="1.5" stroke-linecap="round" stroke-linejoin="round"/>
<path d="M66.5889 99.491L67.4314 126.037C68.0718 125.004 68.9652 124.152 70.027 123.561C71.0889 122.97 72.284 122.66 73.4992 122.66H74.6898C75.9428 122.658 77.174 122.987 78.2582 123.616V85.7803" stroke="#420A98" stroke-width="1.5" stroke-linecap="round" stroke-linejoin="round"/>
<path d="M58.1543 126.037L59.0085 99.1152" stroke="#420A98" stroke-width="1.5" stroke-linecap="round" stroke-linejoin="round"/>
<path d="M47.3271 81.9717V88.2226" stroke="#420A98" stroke-width="1.5" stroke-linecap="round" stroke-linejoin="round"/>
<path d="M56.53 99.9353C57.8658 99.7083 59.1293 99.17 60.2185 98.364C61.3075 97.5581 62.1917 96.5072 62.7993 95.2962C63.5115 96.7259 64.6083 97.9286 65.9664 98.7692C67.3245 99.6099 68.89 100.055 70.4872 100.055H78.2568V81.9717C80.9413 81.4192 83.3534 79.9584 85.0867 77.8352C86.8201 75.7121 87.7687 73.0566 87.7731 70.3158V66.744C87.7732 61.0171 85.8062 55.4639 82.201 51.0141C78.596 46.5642 73.5719 43.4879 67.9696 42.2998V42.3581L62.7993 47.5983L57.6141 42.3631V42.2998C52.0115 43.4875 46.9871 46.5639 43.3821 51.0138C39.7771 55.4637 37.81 61.0171 37.8105 66.744V70.3141C37.8147 73.0549 38.7635 75.7105 40.4968 77.8335C42.2302 79.9568 44.6423 81.4176 47.3268 81.9701" stroke="#420A98" stroke-width="1.5" stroke-linecap="round" stroke-linejoin="round"/>
<path d="M52.9004 43.7998L62.793 71.5044L72.6872 43.7998" stroke="#420A98" stroke-width="1.5" stroke-linecap="round" stroke-linejoin="round"/>
<path d="M70.2168 50.7217L62.7936 47.5996L55.3721 50.7217" stroke="#420A98" stroke-width="1.5" stroke-linecap="round" stroke-linejoin="round"/>
<path d="M78.8135 129.799C79.2318 129.799 79.6426 129.688 80.0048 129.479C80.3669 129.27 80.6675 128.969 80.8763 128.606C81.0851 128.244 81.1947 127.833 81.1942 127.415C81.1937 126.996 81.0829 126.586 80.8733 126.224C80.247 125.138 79.3457 124.237 78.2604 123.611C77.175 122.984 75.9438 122.655 74.6907 122.655H73.5001C72.2469 122.655 71.0159 122.985 69.9307 123.611C68.8454 124.238 67.944 125.139 67.3174 126.224C67.1083 126.585 66.9982 126.996 66.998 127.414C66.998 127.832 67.1079 128.242 67.3169 128.604C67.5259 128.966 67.8264 129.267 68.1885 129.475C68.5505 129.684 68.9609 129.794 69.3789 129.794L78.8135 129.799Z" stroke="#420A98" stroke-width="1.5" stroke-linecap="round" stroke-linejoin="round"/>
<path d="M56.2086 129.797C56.6271 129.798 57.0382 129.687 57.4005 129.478C57.7629 129.269 58.0638 128.968 58.2727 128.606C58.4817 128.243 58.5916 127.832 58.5911 127.414C58.5906 126.995 58.4799 126.584 58.2701 126.222C57.6701 125.197 56.8229 124.338 55.8057 123.725" stroke="#420A98" stroke-width="1.5" stroke-linecap="round" stroke-linejoin="round"/>
<path d="M61.3628 48.2012L58.7188 60.0953L62.7932 71.5031L66.8678 60.0953L64.2252 48.2012" stroke="#420A98" stroke-width="1.5" stroke-linecap="round" stroke-linejoin="round"/>
<path d="M62.793 82.21V95.2963" stroke="#420A98" stroke-width="1.5" stroke-linecap="round" stroke-linejoin="round"/>
<path d="M62.793 71.5039V72.6945" stroke="#420A98" stroke-width="1.5" stroke-linecap="round" stroke-linejoin="round"/>
<path d="M58.0346 82.2098H49.7089C48.9103 82.2103 48.1137 82.1305 47.3311 81.9717" stroke="#420A98" stroke-width="1.5" stroke-linecap="round" stroke-linejoin="round"/>
<path d="M47.3271 60.7969V70.3148C47.328 70.9456 47.5791 71.5503 48.025 71.9964C48.4711 72.4425 49.0759 72.6935 49.7066 72.6943H58.0323" stroke="#420A98" stroke-width="1.5" stroke-linecap="round" stroke-linejoin="round"/>
<path d="M75.8805 72.6937C76.2956 72.6936 76.7036 72.5848 77.0636 72.3782C77.4238 72.1717 77.7236 71.8747 77.9336 71.5165C77.9409 70.7642 77.7445 70.024 77.3648 69.3746C76.9852 68.7251 76.4367 68.1907 75.7774 67.828C75.1184 67.4654 74.3732 67.2882 73.6214 67.3152C72.8696 67.3422 72.1393 67.5724 71.5078 67.9814L65.0654 72.6937H75.8805Z" stroke="#420A98" stroke-width="1.5" stroke-linecap="round" stroke-linejoin="round"/>
<path d="M58.0352 82.2095H75.8788C76.6802 82.2105 77.4798 82.1301 78.2649 81.9697" stroke="#420A98" stroke-width="1.5" stroke-linecap="round" stroke-linejoin="round"/>
<path d="M78.2583 60.7969V70.3148C78.2579 70.9457 78.007 71.5507 77.5609 71.9969C77.1148 72.443 76.5099 72.6938 75.8788 72.6943H58.0352" stroke="#420A98" stroke-width="1.5" stroke-linecap="round" stroke-linejoin="round"/>
<path d="M52.6804 73.2891C51.5763 73.2891 50.5176 73.7277 49.7368 74.5083C48.9562 75.2889 48.5176 76.3478 48.5176 77.4519C48.5176 78.5559 48.9562 79.6148 49.7368 80.3954C50.5176 81.1762 51.5763 81.6148 52.6804 81.6148H56.8433V73.2891H52.6804Z" stroke="#420A98" stroke-width="1.5" stroke-linecap="round" stroke-linejoin="round"/>
<path d="M52.9021 43.8081C51.445 44.4349 50.0511 45.1994 48.7393 46.091L47.92 49.0883C47.8296 49.3462 47.8046 49.6226 47.8476 49.8925C47.8906 50.1625 48 50.4176 48.166 50.6347C48.3318 50.8518 48.5493 51.0243 48.7984 51.1366C49.0477 51.249 49.3209 51.2974 49.5935 51.2779H49.8116C50.0639 51.2373 50.3225 51.2723 50.5548 51.3785C50.7872 51.4848 50.9827 51.6574 51.1169 51.8749C51.2511 52.0924 51.3179 52.3446 51.3088 52.6001C51.2996 52.8553 51.2149 53.1021 51.0655 53.3094L50.7175 54.0071C50.4509 54.6177 50.3523 55.2884 50.4316 55.95C50.5108 56.6116 50.7654 57.24 51.1687 57.7703L62.7997 71.5044L52.9005 43.7998" stroke="#420A98" stroke-width="1.5" stroke-linecap="round" stroke-linejoin="round"/>
<path d="M72.6891 43.7998C74.1431 44.4271 75.5338 45.192 76.8419 46.0844L77.6628 49.0816C77.7529 49.3389 77.7777 49.6145 77.7353 49.8836C77.6928 50.1528 77.5841 50.4072 77.4192 50.6242C77.2542 50.8412 77.0379 51.0139 76.79 51.1268C76.5419 51.2396 76.2696 51.2893 75.9977 51.2713H75.7712C75.5191 51.231 75.2607 51.2663 75.0286 51.3725C74.7965 51.4789 74.6008 51.6514 74.4666 51.8687C74.3324 52.0859 74.2655 52.338 74.2741 52.5932C74.2829 52.8483 74.367 53.0953 74.5157 53.3028L74.8654 54.0004C75.132 54.6111 75.2306 55.2818 75.1513 55.9433C75.0719 56.6049 74.8174 57.2333 74.4141 57.7637L62.7998 71.5044L72.6891 43.7998Z" stroke="#420A98" stroke-width="1.5" stroke-linecap="round" stroke-linejoin="round"/>
<path d="M67.9729 38.7188L67.9679 42.3638L62.7927 47.599L57.6074 42.3638L57.6108 38.7021" stroke="#420A98" stroke-width="1.5" stroke-linecap="round" stroke-linejoin="round"/>
<path d="M48.4625 21.235V22.4655C44.3679 22.4655 44.6444 29.6406 49.1802 29.6406H49.1935C50.0925 32.5506 51.9 35.0961 54.3511 36.9043C56.802 38.7123 59.7676 39.6877 62.8135 39.6877C65.8592 39.6877 68.8248 38.7123 71.2759 36.9043C73.7268 35.0961 75.5344 32.5506 76.4335 29.6406H76.4535C80.9877 29.6406 81.2641 22.4655 77.1712 22.4655V19.5965C77.1712 18.7959 77.1049 17.9966 76.973 17.207" stroke="#420A98" stroke-width="1.5" stroke-linecap="round" stroke-linejoin="round"/>
<path d="M59.2236 31.207C60.286 31.9155 61.5344 32.2935 62.8112 32.2935C64.0882 32.2935 65.3365 31.9155 66.3987 31.207" stroke="#420A98" stroke-width="1.5" stroke-linecap="round" stroke-linejoin="round"/>
<path d="M54.9233 13.8262C61.2159 19.929 72.0743 18.9232 78.6016 16.7136C78.5561 12.5552 76.8717 8.58289 73.9141 5.65941C70.9564 2.73609 66.9648 1.09776 62.8063 1.10059C58.6477 1.10342 54.6582 2.74725 51.7046 5.67473C48.7511 8.60221 47.072 12.5769 47.0322 16.7352V21.719C47.0322 21.719 54.9233 19.7375 54.9233 13.8262Z" stroke="#420A98" stroke-width="1.5" stroke-linecap="round" stroke-linejoin="round"/>
<path d="M54.9237 13.8267C54.196 13.1207 54.0911 13.234 53.5 12.3281" stroke="#420A98" stroke-width="1.5" stroke-linecap="round" stroke-linejoin="round"/>
<path d="M57.275 23.5978C56.8152 23.5978 56.4424 23.2249 56.4424 22.7652C56.4424 22.3053 56.8152 21.9326 57.275 21.9326" stroke="#420A98" stroke-width="1.5"/>
<path d="M57.2754 23.5978C57.7353 23.5978 58.108 23.2249 58.108 22.7652C58.108 22.3053 57.7353 21.9326 57.2754 21.9326" stroke="#420A98" stroke-width="1.5"/>
<path d="M68.0709 23.5978C67.6111 23.5978 67.2383 23.2249 67.2383 22.7652C67.2383 22.3053 67.6111 21.9326 68.0709 21.9326" stroke="#420A98" stroke-width="1.5"/>
<path d="M68.0713 23.5978C68.5312 23.5978 68.9039 23.2249 68.9039 22.7652C68.9039 22.3053 68.5312 21.9326 68.0713 21.9326" stroke="#420A98" stroke-width="1.5"/>
</svg>
