<?xml version="1.0" encoding="utf-8"?>
<!-- Generator: Adobe Illustrator 27.0.1, SVG Export Plug-In . SVG Version: 6.00 Build 0)  -->
<svg version="1.1" id="Layer_1" xmlns="http://www.w3.org/2000/svg" xmlns:xlink="http://www.w3.org/1999/xlink" x="0px" y="0px"
	 viewBox="0 0 128 146" style="enable-background:new 0 0 128 146;" xml:space="preserve">
<style type="text/css">
	.st0{fill:#E9D2B1;}
	.st1{fill:#FFFFFF;}
	.st2{fill:#FDFDFD;}
	.st3{fill:#15110C;}
	.st4{fill:#312206;}
	.st5{fill:#292F73;}
	.st6{fill:#8AA0BC;}
	.st7{fill:#EDCEBB;}
	.st8{fill:#CCDCEE;}
	.st9{fill:#475196;}
	.st10{fill:#C4AB9A;}
	.st11{fill:#325078;}
	.st12{fill:#E8EAEB;}
	.st13{fill:#D9D9D9;}
	.st14{fill:#F0F0F0;}
	.st15{fill:#EFEFEF;}
	.st16{fill:#EA9C47;}
	.st17{fill:#1D273D;}
	.st18{fill:#292F72;}
	.st19{fill:#5E7CA0;}
	.st20{fill:#E7F1FC;}
	.st21{fill:#2B3174;}
	.st22{fill:#513710;}
	.st23{fill:#FCCA95;}
	.st24{fill:#EEEEED;}
	.st25{fill:#EFEEED;}
	.st26{fill:#F6F6F6;}
	.st27{fill:#AF6A1D;}
	.st28{fill:#DEE9F6;}
	.st29{fill:#D2B07D;}
	.st30{fill:#F4E7D4;}
	.st31{fill:#C29A61;}
	.st32{fill:#EDEBE8;}
	.st33{fill:none;stroke:#000000;stroke-width:0.5434;stroke-linecap:round;stroke-miterlimit:10;}
</style>
<g>
	<path class="st0" d="M58,43.5c-9-1.1-13.8-35.4-36-24.3C-0.3,30.3-6.2,46.9,6.9,62.1C20,77.2,4.8,90.5,5.1,108
		c0.2,8.9,8.8,38.8,38.7,38c29.9-0.8,27.4-5.6,43.1-4.7c15.7,0.9,20.4,8.3,30.4,0.9c10-7.4-7.9-22.2-5.2-34.4
		c2.7-12.2,13.4-18.7,12.8-32.3c-0.6-13.6-11.2-39.4-33.5-37.9C69.2,39.1,69.4,44.9,58,43.5z"/>
	<path class="st1" d="M19.3,57.5c0.1,0,0.1,0,0.2,0c0.2-0.1,0.2-0.4,0.5-0.5c0.6,0,1.2-0.1,1.8-0.1c3.3-0.2,5.7,1.5,7.7,3.8
		c2.3,2.6,4,5.7,5.7,8.7c0.5,0.9,1,1.7,1.5,2.6c0.7,1.1,0.6,1.5-0.4,2.3c-2.7,1.4-5.3,2.9-8,4.4c-0.9,0.5-1.2,0.4-1.7-0.5
		c-0.3-0.5-0.5-1-0.8-1.5c-0.1-0.1-0.1-0.1-0.1-0.2c-0.1-0.1-0.1-0.2-0.2-0.3c0-0.1-0.1-0.1-0.1-0.2c-0.5-1-1-2-1.5-2.9
		c-0.1-0.2-0.2-0.4-0.3-0.6c-0.5-0.8-0.8-1.6-1.3-2.4c0-0.1-0.1-0.1-0.1-0.2c-0.1-0.1-0.1-0.2-0.2-0.3c0-0.1-0.1-0.1-0.1-0.2
		c-0.1-0.1-0.1-0.2-0.2-0.3c0-0.1-0.1-0.1-0.1-0.2c-1.3-2.6-2.7-5.2-4.1-7.8c-0.4-0.6-0.7-1.2-0.9-1.9c0-0.1,0-0.2,0-0.2
		c0.3-0.7,1-0.8,1.6-1.2c0.2-0.1,0.5,0.1,0.7-0.1C19.1,57.5,19.2,57.6,19.3,57.5L19.3,57.5z"/>
	<path class="st2" d="M19.3,57.5c-0.1,0.1-0.2,0.1-0.3,0.2C19.1,57.6,19.2,57.5,19.3,57.5z"/>
	<path class="st3" d="M62.8,11.4c-0.2-0.2-0.3-0.5-0.4-0.9c-0.1-0.8-0.2-1.5-0.1-2.3c0-0.4,0.2-0.8,0.3-1.2c0.3-0.7,0.6-1.4,1-2.1
		c2.5-3.9,8.1-5.8,12.7-4.4c0.3,0.1,0.5,0.2,0.8,0.3c3.5,1.7,5.4,4.8,6.9,8.1c1.4,3.2,4,5.1,7.2,6.3c1.6,0.6,3.2,0.9,4.9,1.3
		c1.8,0.5,3.5,1.1,5,2.1c2.2,1.4,2.7,3.8,1.9,6.2c-0.4,1.3-1.3,2.4-2.4,3.4c-1.4,1.2-3,2.3-4.4,3.5c-2.1,1.9-2.9,4.4-3,7.1
		c-0.2,2.3,0.3,4.6,0.8,6.8c0.3,1.5,0.6,3,0.4,4.5c-0.4,3-2.4,4.7-5,6c-2.6,1.3-5.4,1.2-8.2,0.8c-0.7-0.1-1.4-0.2-2.3-0.2
		c0.2,0.8,0.7,1.4,0.5,2.2c1.4,4.3-0.8,8-4.3,10c-0.8,0.5-1.8,0.7-2.7,1.1c-0.3,0.1-0.5,0.1-0.8,0c-0.4-0.5-0.3-1-0.2-1.6
		c0.1-0.3,0.3-0.6,0.7-0.6c1.9,0.2,2.9-0.7,3.5-2.3c1.7-2.1,2.2-4.5,1.9-7c-0.1-1.5-0.4-2.9-1.3-4.1c-0.1-0.1-0.1-0.3-0.1-0.5
		c0.3-0.5,0.8-0.5,1.3-0.6c1-0.2,1.9-0.6,2.7-1.3c1-0.8,1.7-1.8,1.3-3.2c-0.4-1.5-1.4-2.7-2.9-3.3c-1.4-0.5-2.9-1-4.2-1.8
		c-1.5-0.9-2.6-2.1-3.3-3.7c-1.3-2.9-1.2-6.1,2.2-8.8c1.2-0.9,2.3-1.8,3.3-3c1-1.2,1.7-2.4,1.8-4c0-0.6,0.6-1,0.3-1.7
		c-0.1-3-2.7-6-6.2-7.2c-1.4-0.5-2.9-0.6-4.4-0.8C66.1,14.1,64,13.5,62.8,11.4L62.8,11.4z"/>
	<path class="st4" d="M88,9.6c-1.7-1-3.4-2.2-4.6-3.8c-0.7-0.7-1.3-1.4-2-2.2c-1.2-1.3-2.5-2.3-4.2-2.9c0,0.1,0.1,0.2,0.1,0.2
		c3.2,1.9,5.1,4.9,6.6,8.1c0.6,1.3,1.4,2.5,2.4,3.5c1.9,1.7,4.2,2.7,6.7,3.4c2.4,0.6,4.7,1.1,7,2.2c3.4,1.7,4,4.8,2.3,7.7
		c-1.2,2.1-3.3,3.3-5.2,4.7c-2.7,2.1-3.9,4.8-4.1,8.1c-0.2,2.5,0.4,4.8,0.9,7.2c0.4,1.9,0.9,3.9-0.1,5.8c-1.7,3.3-4.7,4.7-8.2,5
		c-2.3,0.2-4.7-0.3-7-0.6c0.4,0.9,0.9,1.7,1.1,2.6c0.1-0.4,0.4-0.1,0.5-0.1c4.6,2.2,9.4,3.2,14.5,1.7c5.2-1.9,7.5-5.5,6.9-10.8
		c-0.2-1.9-0.7-3.8-1.4-5.7c-1.4-3.7-0.5-6.8,2.2-9.5c0.7-0.7,1.4-1.4,2.2-2.1c1-1,2.1-1.9,3.1-2.9c2.5-2.5,4-5.4,3.2-9
		c-0.4-0.9-0.8-1.9-1.2-2.8c-0.7-1-1.6-2-2.5-2.8c-2.9-2.1-6.3-3-9.8-3.4c-3.1-0.4-6.2-0.4-9.1-1.7L88,9.6L88,9.6z"/>
	<path class="st5" d="M94.2,102.7c0.8,0.9,1.5,1.8,1.8,3c0.1,0.2,0.1,0.5-0.1,0.7c-0.5,0.5-0.6,1.1-0.9,1.7
		c-0.1,0.1-0.1,0.1-0.2,0.1c-0.4,0-0.6,0.3-0.9,0.5c-0.8,0.6-1.6,0.6-2.4,0.1c-1.4-0.9-2.6-2-3.2-3.6c-0.6-1.7-1.5-3.2-2.7-4.6
		c-1.6-1.8-2.4-3.9-3.3-6c-0.7-1.5-1.3-3-2-4.5c-0.2-0.4-0.4-0.9-0.8-1.4c0,1.3-0.1,2.5-0.3,3.7c-0.4,3.7-1.1,7.4-0.9,11.1
		c0.1,2,0.6,3.8,1.7,5.4c0.6,1,1.4,1.7,2.5,2.1c0.3,0.1,0.7,0.2,0.8,0.5c0,0.1-0.1,0.3-0.3,0.3c-1.7,0.4-3.4,1.1-5.2,1
		c-0.3,0-0.6-0.2-0.9-0.4c-1.9-1.4-2.9-3.3-3.4-5.6c-0.3-1.4-0.3-2.8-0.5-4.2c0-0.1,0-0.1,0-0.2c0.1-3.7-0.2-7.5-0.2-11.2
		c0.1-4.1-0.3-8.2-0.8-12.3c-0.1-0.7-0.3-1.3-0.2-2c0-0.3,0-0.8,0.6-0.7c0.2,0.1,0.4,0.1,0.5,0.2c0.8,0.9,1.9,1.4,3,1.9
		c1.3,0.6,2.6,1.3,3.8,2c2.9,1.6,4.6,4.1,5.5,7.2c0.5,1.7,0.9,3.5,1.3,5.2c1,3.8,3.1,6.9,6.3,9.2C93.5,102.1,93.8,102.4,94.2,102.7
		L94.2,102.7z"/>
	<path class="st6" d="M77.8,112.6c1.9-0.1,3.7-0.8,5.6-1.2c0.5-0.6,1.3-0.5,1.9-0.7c2.1-0.2,4.3-0.6,6.4-0.6c0.6,0,1.2,0.2,1.8,0.2
		c0.3,0,0.5,0.1,0.7,0.3c0.5,0.5,1.2,0.4,1.8,0.5c0.6,0.4,1.1,1,1.6,1.6c0.7,0.7,1.5,1.3,2.5,1.6c0.6,0.2,1.2,0.5,1.8,0.8
		c0.3,0.2,0.6,0.4,0.6,0.8c0.1,0.3,0.2,0.7,0.2,1c0.1,0.3,0.1,0.5,0,0.9c-1-0.1-2-0.2-3,0c-1.7,0.2-3.3,0-4.8-0.7
		c-2-0.9-4.1-0.9-6.3-0.4c-2.1,0.5-4.2,1.2-6.4,1.5c-1.8,0.3-3.5,0.9-5.4,0.8c-0.4,0.1-0.6-0.2-0.8-0.5c-0.3-0.3-0.7-0.7-1-1
		c-0.8-0.7-1.7-0.8-2.7-0.4c-0.3,0.2-0.6,0.4-1,0.4c-0.3,0-0.5-0.3-0.7-0.5c-1-0.9-1.9-1-3-0.2c-0.9,0.6-1.7,1.4-2.4,2.2
		c-1.8-0.2-3.6-0.7-5.4-1c-2.8-0.6-5.6-1.1-8.4-1.6c-2-0.4-3.9-0.1-5.7,0.5c-0.8,0.2-1.5,0.4-2.3,0.6c-0.4,0-0.9,0-1.3,0
		c-0.1,0-0.2,0-0.3,0c-0.2,0-0.3-0.1-0.5-0.2c-0.1,0-0.1-0.1-0.2-0.1c-0.1-0.1-0.3-0.1-0.4-0.2c-0.9-0.5-1.8-1-2.9-1
		c-0.2-0.1-0.3-0.1-0.3-0.3c0-0.2,0.1-0.3,0.3-0.4c1.5-0.7,2.8-1.7,4.1-2.7c0.7-0.1,1.4-0.2,1.9-0.8c0.1-0.1,0.2-0.1,0.3-0.2
		c0.2,0,0.4-0.1,0.5-0.1c0.4,0,0.7,0,1.1-0.1c0.5-0.1,1.1,0,1.6-0.2c1.4-0.1,2.7-0.1,4.1,0c0.5,0.2,1,0.3,1.5,0.6
		c0.9,1.3,2.1,2.2,3.7,2.6c1.9,0.5,3.8,1,5.7,1.3c4.2,0.7,7.5-1.1,9.2-4.9c0.9-2,1.3-4.1,0.5-6.3c-0.1-0.3-0.3-0.6-0.4-0.9
		c-0.1-0.3-0.2-0.6,0.1-0.8c0.7-0.2,1.4-0.3,2,0.2c0.2,1.3,0.3,2.6,0.5,3.9c0.4,2.2,1.5,4,3.2,5.5c-0.1,0.3-0.5,0.3-0.5,0.7
		C77.1,113,77.5,113.1,77.8,112.6L77.8,112.6z"/>
	<path class="st7" d="M72.5,76.2c-0.4,0-0.3,0.4-0.3,0.6c0,0.7,0.1,1.4,0.2,2.1c-0.3,0.5-0.7,0.8-1.3,1c-1.6,0.6-3.3,0.9-5,0.3
		c-0.6-0.6-0.5-1.5-0.8-2.3c-0.1-0.3-0.1-0.6-0.2-1c0.1-0.7,0-1.4,0-2.1c0.1-0.2,0.3-0.2,0.5-0.2c1.9-0.4,3.9-2.6,3.9-4.6
		c-1.5,0.9-3,1.8-4.5,2.4c-0.6,0.1-1.3,0.2-1.9,0.1c-1.2-0.2-1.9-0.8-2.3-1.9c-0.3-1-0.5-1.9-0.4-2.9c0.1-1.3,0.1-2.6,0.3-4
		c0-0.1,0-0.2,0-0.2c0.1-2.3,1.9-3.3,3.3-4.7c0.3-0.3,0.6-0.5,1-0.2c0.8,0.6,1.5,1.4,2.3,2.1c1.1,0.8,2.4,1.4,3.8,1.8
		c0.5,0.1,0.9,0.2,1.2-0.2c0.7-0.7,1.5-1.3,2.6-0.7c0.9,0.5,1.5,2.1,1.2,3.2c0,0.2-0.1,0.4-0.2,0.6c-0.9,2.3-1.9,2.8-4,2.3
		c-0.2,0.6-0.2,1.3-0.2,2c0.3,0,0.6,0,0.8,0c-0.3,0.1-0.5,0.2-0.8,0.3c-0.1,1.9,0.1,3.7,0.4,5.5C72.2,75.9,72.3,76.1,72.5,76.2z"/>
	<path class="st8" d="M99.6,117.6c1-0.2,2.1-0.4,3.1,0c0-0.3-0.2,1.1-0.4,2c-0.2,0.1-0.4,0.3-0.5,0.5c-0.9,1.2-2.3,1.7-3.6,2.2
		c-1.5,0.6-3.1,0.8-4.7,0.9c-3.3,0.1-6.5-0.3-9.7-0.8c-0.4-0.1-0.8-0.2-1.1-0.3c-1.1-0.5-2.1-1.1-3.3-1.5c-0.2-0.1-0.5-0.1-0.3-0.5
		c0.3-0.2,0.6-0.3,1-0.3c2.7-0.2,5.2-0.9,7.8-1.7c2.3-0.7,4.6-0.8,6.9,0.1c0.8,0.3,1.6,0.4,2.5,0.4
		C98.1,118.7,98.9,118.3,99.6,117.6L99.6,117.6z"/>
	<path class="st9" d="M94.2,102.7c-2.7-1.3-4.5-3.5-6-6c-1.5-2.5-1.9-5.3-2.6-8c-0.5-2.1-1.3-4.1-2.7-5.8c-1.2-1.5-2.8-2.4-4.5-3.3
		c-1.3-0.6-2.6-1.2-3.9-1.8c-0.7-0.3-1.3-0.7-1.5-1.5c3.3,0.5,6.6,1.3,9.5,3c2.4,1.4,3.3,3.7,4,6.1c0.4,1.6,0.7,3.1,1,4.7
		c0.7,3.4,2,6.5,4.2,9.3C92.6,100.5,93.4,101.7,94.2,102.7L94.2,102.7z"/>
	<path class="st7" d="M102.4,115.9c-0.4-0.7-1.2-0.9-2-1.2c-1.9-0.6-3.3-1.9-4.4-3.5c0-0.5,0.3-0.7,0.8-0.8c0.1,0,0,0,0.1,0
		c1.6,1,3.2,1.1,4.9,0.2c0.5-0.3,1.1-0.2,1.7,0.1c0.2,0.1,0.5,0.3,0.7,0.2c-0.2,0-0.4-0.1-0.5-0.2c-0.4-0.2-0.8-0.3-1.2-0.3
		c-0.7-0.1-1.4-0.3-1.8-1c-0.4-0.5-0.2-0.9,0.3-1.1c1.5-0.6,3.4,0,4.3,1.4c0.4,0.7,1.1,1.2,0.7,2.1c3.1,3,3.4,3.5,2.3,4.4
		c-0.3-0.1-0.6-0.3-0.9-0.4c-0.2,0.3-0.4,0.5-0.6,0.8c-0.9-0.5-1.7-0.9-2.5-1.4c-0.1,0.3-0.3,0.6-0.4,0.8
		C103.3,116.6,102.9,115.7,102.4,115.9L102.4,115.9z"/>
	<path class="st10" d="M105.3,109.8c-1.1-0.8-2.3-1.5-3.8-1.2c-0.3,0.1-0.7,0-0.9,0.3c0.2,0.9,1,1.2,1.7,1.3
		c0.6,0.1,1.1,0.3,1.6,0.5c0,0.3-0.1,0.3-0.3,0.2c-0.8-0.3-1.6-0.3-2.3,0.1c-1.7,1-3.2,0.6-4.6-0.5c-0.2-0.3,0.1-0.6,0.2-0.9
		c0.1-0.2,0.3-0.5,0.3-0.7c0.3-0.4,0.2-1,0.7-1.4c2.8-1,5.8,0,8.6-0.8c0.6-0.2,1.1,0.5,0.9,1.2C107.1,109,106.2,109.4,105.3,109.8
		L105.3,109.8z"/>
	<path class="st11" d="M83.8,123.7c0.1,0.1,0.1,0.3,0.2,0.4c0.2,1.2,0,1.5-1.3,1.3c-3.1-0.3-6.2-0.8-9.4-0.8c-0.4,0-0.8,0-1.2,0
		c-0.6-0.1-1.3-0.1-1.9,0c-0.7,0.2-2.2-0.1-2.3-0.2c-0.1-0.1-0.4-0.1-0.5-0.1c-0.2-0.5,0-0.9,0.3-1.2c0.1-0.1,0.2-0.1,0.3-0.2
		c1.4-0.3,2.7,0,4.1,0.1c3.2,0.2,6.4,0.7,9.6,1.1C82.5,124.2,83.1,123.9,83.8,123.7z"/>
	<path class="st9" d="M97.9,107.6c-0.1,0.5-0.2,1-0.5,1.5c-0.1,0.2-0.2,0.4-0.5,0.5c-0.6,0.4-1.1,0.3-1.6-0.1
		c-0.4-0.4-0.7-0.8-0.3-1.4c-0.1-0.7,0.2-1.3,0.7-1.7c0.2-0.2,0.3-0.4,0.3-0.6c0.2,0.2,0.2,0.4,0.5,0.5
		C97.3,106.3,97.7,106.9,97.9,107.6L97.9,107.6z"/>
	<path class="st6" d="M101.9,119.8c-2.4,2.3-5.4,3.1-8.7,3.2c-3.6,0.1-7.2-0.4-10.7-1c-0.1,0.4,0.2,0.5,0.4,0.8
		c0.3,0.3,0.5,0.7,0.7,1.1c0.1,0.2,0.1,0.4,0.4,0.3c0-0.8,0.6-0.4,1-0.4c3.7,0.3,7.5,0.8,11.2,0.1c2.5-0.5,4.6-1.4,5.9-3.8
		c0.1-0.1,0.1-0.2,0.2-0.3C102.1,119.4,102,119.6,101.9,119.8L101.9,119.8z"/>
	<path class="st12" d="M21.9,57.1c1.5-0.4,3.1,0,4.6,0.1c1.2,0.1,2.4,0.4,3.5,0.8c0.4,0.1,0.5,0.5,0.7,0.8c1.3,2.3,2.6,4.6,3.9,7
		c1.2,2.2,2.3,4.4,3.6,6.5c0.2,0.3,0.4,0.6,0.3,0.9c-0.6,0.7-1.4,1.1-2.3,1.2c-0.1-0.1-0.1-0.1,0-0.2c0.8-0.5,1-1,0.5-1.9
		c-1.6-2.6-3-5.2-4.7-7.8c-1.7-2.6-3.5-5.1-6.4-6.6C24.4,57.2,23.2,57.1,21.9,57.1L21.9,57.1z"/>
	<path class="st12" d="M36.2,74.1c0,0.1,0,0.1,0,0.2c0,0.4-0.3,0.5-0.6,0.6c-2.4,1.5-4.9,2.9-7.4,4.3c-0.3,0.2-0.7,0.3-1,0.2
		c-0.7-0.9-1.4-1.7-1.3-2.9c0.8,0.6,0.8,1.8,1.6,2.4C30.4,77.3,33.3,75.7,36.2,74.1L36.2,74.1z"/>
	<path class="st12" d="M25.9,76.4c0.5,0.9,0.9,1.9,1.4,2.8c0,0-0.1,0-0.1,0.1c-0.7-0.1-0.6-0.8-1-1.1C26.1,78.1,26,78,26,77.9
		c-0.1-0.1-0.1-0.3-0.2-0.4c-0.1-0.1-0.1-0.3-0.2-0.4c-0.1-0.1-0.1-0.3-0.2-0.4c-0.5-0.9-0.9-1.8-1.4-2.6c-0.1-0.1-0.1-0.3-0.2-0.4
		c-0.1-0.1-0.1-0.3-0.2-0.4c-0.1-0.1-0.1-0.3-0.2-0.4c-1-2-2.2-4-3.1-6c-0.2-0.3-0.5-0.7-0.2-1.1c0.5-0.1,0.5,0.3,0.6,0.5
		c0.5,0.9,0.9,1.9,1.5,2.8c0.1,0.1,0.1,0.2,0.2,0.3c0.1,0.1,0.1,0.2,0.2,0.3c0.6,0.8,0.8,1.9,1.5,2.7c0.1,0.2,0.2,0.3,0.3,0.5
		c0.3,1.1,1,2.1,1.5,3.2C25.9,76.2,25.8,76.4,25.9,76.4z"/>
	<path class="st12" d="M16.8,59.1c0.3,0.6,0.7,1.2,1,1.8c0.1,0.2,0,0.2-0.2,0.2c-0.2-0.1-0.3-0.3-0.4-0.5c0.3,0.5,0.6,0.9,0.9,1.4
		c0,0.1,0.1,0.1,0.1,0.2c0.2,0.7,0.8,1.2,0.7,1.9c-0.2,0.2-0.4,0.1-0.6,0.1c-1.1-1.3-1.7-2.9-2.4-4.5c-0.2-0.4-0.1-0.7,0.4-0.8
		C16.6,59,16.7,59,16.8,59.1z"/>
	<path class="st13" d="M17.6,61.1c0.1-0.1,0.1-0.1,0.2-0.2c1.5,2.7,3,5.4,4.2,8.2c-0.7-0.6-0.9-1.6-1.3-2.3c-0.2-0.3-0.3-0.8-0.7-1
		c0,0-0.1,0-0.1-0.1c-0.6-0.7-0.7-1.6-1.1-2.4c-0.2-0.4-0.3-0.8-0.6-1.1C18,61.9,17.6,61.6,17.6,61.1L17.6,61.1z"/>
	<path class="st13" d="M25.8,76.1c-0.7-1-1.4-1.9-1.5-3.2C24.7,74,25.3,75.1,25.8,76.1z"/>
	<path class="st13" d="M23.9,72.4c-0.9-0.7-1.1-1.7-1.5-2.7C23.1,70.5,23.4,71.6,23.9,72.4z"/>
	<path class="st14" d="M25.9,76.4c-0.1-0.1-0.1-0.2-0.2-0.3C25.8,76.2,25.9,76.3,25.9,76.4z"/>
	<path class="st15" d="M22.4,69.8c-0.1-0.1-0.1-0.2-0.2-0.3C22.3,69.6,22.3,69.7,22.4,69.8z"/>
	<path class="st15" d="M22.2,69.4c-0.1-0.1-0.1-0.2-0.2-0.3C22.1,69.2,22.2,69.3,22.2,69.4z"/>
	<path class="st16" d="M16.8,59.1l-0.3,0c-0.1-0.3,0.1-0.2,0.3-0.2l0.1,0C16.8,59,16.8,59.1,16.8,59.1z"/>
	<path class="st4" d="M74.9,52.9c0.4,0.2,0.9,0.5,1.3,0.7c1.5,1.8,1.7,4,1.7,6.2c-0.1,2-0.6,4-2,5.6c0-0.8,0.1-1.6-0.2-2.4
		c-0.2-0.7-0.6-1.3-1.4-1.4c-0.7-0.1-1.3,0.3-1.7,0.8c-0.2,0.2-0.3,0.4-0.5,0.7c-2.8-0.7-5.3-2-7.1-4.3c-0.3-0.3-0.2-0.7,0-1
		c1.5-2.7,3.7-4.7,6.9-5.3C73,52.2,73.9,52.6,74.9,52.9L74.9,52.9z"/>
	<path class="st17" d="M97.1,109.8c-0.1,0.3-0.2,0.5-0.4,0.8c-0.2,0.2-0.5,0.4-0.7,0.7c-1,0.4-1.7,0-2.3-0.7
		c-0.5-0.4-1.2-0.1-1.7-0.2c-0.1,0-0.2,0-0.2,0c-0.2-0.1-0.5,0-0.7-0.1c-0.8-0.1-1.5-0.5-2.2-0.8c-1.5-0.5-2.2-0.3-3.2,1
		c-0.1,0.2-0.2,0.4-0.5,0.4c-0.5,0.4-1.2,0.4-1.8,0.5c-1.7-0.2-2.8-1.2-3.6-2.6c-1.1-1.7-1.6-3.5-1.6-5.5c-0.1-3.8,0.5-7.5,1-11.3
		c0.2-1.3,0.2-2.7,0.3-4c0.5,0,0.5,0.4,0.6,0.7c1.1,2.5,2.2,5,3.3,7.5c0.7,1.7,1.6,3.3,2.9,4.7c1.1,1.2,1.8,2.6,2.3,4.1
		c0.5,1.6,1.7,2.7,3.1,3.6c0.9,0.5,1.6,0.4,2.4-0.3c0.2-0.2,0.4-0.6,0.8-0.2c0.2,0.5-0.2,1-0.1,1.5c0.4,0.5,1,0.5,1.6,0.3
		c0.3-0.1,0.4-0.4,0.8-0.3C97.1,109.7,97.1,109.7,97.1,109.8L97.1,109.8z"/>
	<path class="st1" d="M66.1,80.1c2.2,0.4,4.3,0.1,6.2-1.2c0.5,2.9,0.7,5.8,0.8,8.7c0.1,5.1,0.1,10.2,0.2,15.3c-0.7,0-1.5,0-2.2,0
		c-0.2,0.2-0.4,0.3-0.6,0.3c-0.9,0-1.8,0.2-2.7,0.2c-0.4,0-0.8-0.1-0.8-0.6c-0.1-0.9,0.2-1.7,0.3-2.5c0.3-2.9,0-5.7-0.1-8.5
		c-0.1-2.6-0.3-5.3-0.7-7.9c-0.1-0.7-0.2-1.4-0.4-2.1C66,81.2,65.7,80.6,66.1,80.1L66.1,80.1z"/>
	<path class="st18" d="M97,109.6c-1.2,0.9-2,0.9-2.7,0c0-0.5,0.5-0.9,0.5-1.5c0.1,0,0.1,0,0.2,0c0.1,1.4,0.6,1.7,2,1.3
		C97.1,109.5,97.1,109.5,97,109.6C97.1,109.6,97.1,109.6,97,109.6z"/>
	<path class="st8" d="M77.8,112.6c0.1,0.1,0.2,0.2,0.3,0.2c-0.9,0.5-1.3,0.6-2,0.3c0.1-0.6,0.4-0.9,1-0.9
		C77.3,112.4,77.6,112.5,77.8,112.6z"/>
	<path class="st8" d="M36.9,120.4c-0.8-1.3-0.8-2.7-0.5-4.2c0-0.1,0.1-0.1,0.2-0.2c0.3-0.4,0.8-0.2,1.2-0.3c1.2-0.1,2.1,0.5,3.1,1.1
		c0,0.1,0,0.1,0.1,0.2c0,0,0.1,0.1,0.1,0.1c0.1,0,0.1,0.1,0.2,0.1c0.1,0,0.1,0.1,0.2,0.1c0.1,0,0.2,0.1,0.4,0.1
		c1.4,0.4,2.9,0.6,4.4,0.4c2.4-0.3,4.9-0.4,7.3,0.1c3.6,0.7,7.3,1.3,10.9,2c1,0.2,1.9,0.5,2.6,1.2c0.6,0.7,0.8,1.3,0.4,2
		c-0.4,0.2-0.8,0.2-1.1,0.2c-3,0-5.9,0-8.8,0.5c-0.1,0-0.3,0-0.4,0c-3.1-0.1-6.1,0.3-9.2,0.2c-2.2-0.1-4.4-0.3-6.5-0.9
		c-1-0.3-1.9-0.6-2.7-1.2c-0.3-0.2-0.6-0.4-0.8-0.6c-0.1-0.1-0.3-0.3-0.4-0.4C37.2,120.8,37,120.6,36.9,120.4L36.9,120.4z"/>
	<path class="st17" d="M44,111.8c-0.1,0.1-0.1,0.1-0.2,0.2c-0.3,0-0.3-0.3-0.3-0.5c0-0.6-0.2-1.2-0.4-1.7c0-1.5,0.4-2.1,1.7-2.3
		c2.7-0.3,4.9-1.8,6.9-3.5c3.6-3,5.8-6.8,6.9-11.4c0.1-0.3,0.1-0.6,0.3-0.9c0.1-0.2,0.3-0.4,0.6-0.4c0.3,0,0.5,0.2,0.6,0.5
		c0.1,0.2,0.1,0.3,0.1,0.5c0,3.5,0.2,7.1-0.5,10.5c-0.5,2.4-1.1,4.8-2,7.1c-0.3,0.7-0.6,1.4-1.3,1.8c-0.7,0.2-1.4,0.2-2.1-0.2
		c-0.1-0.1-0.2-0.3-0.2-0.5c0.2-1,0.6-1.9,0.3-3c-1.2,0.6-2.1,1.4-3.3,1.9c-1.4,0.7-2.9,1.1-4.5,1.4c-0.1,0-0.2,0-0.2,0
		c-0.2,0-0.5,0-0.7,0.1c-0.1,0.1-0.3,0.1-0.5,0.1c-0.3,0-0.6,0-0.9,0C44.1,111.7,44,111.7,44,111.8L44,111.8z"/>
	<path class="st8" d="M67.3,102.8c0,0.4,0.2,0.4,0.5,0.4c1.1-0.1,2.2-0.1,3.3-0.2c2.1,4.3,1,9-2.7,11.7c-2.1,1.5-4.5,1.8-7.1,1.3
		c-1.6-0.4-3.2-0.7-4.8-1.1c-1.7-0.4-3.2-1.1-4-2.8c0.3-0.3,0.6-0.1,1,0c2.3,0.7,4.6,1.5,7.1,1.8c0.9,0.1,1.8,0.2,2.7-0.1
		c0.6-0.2,1.3-0.4,1.4-1.2c0.1-0.7-0.4-1.2-1-1.5c-0.1-0.1-0.2-0.1-0.3-0.2c-0.2-0.3,0-0.6,0.2-0.8c1.6-1.9,2.5-4.2,3.2-6.5
		C66.9,103.2,66.9,102.8,67.3,102.8z"/>
	<path class="st19" d="M83.8,123.7c-0.3,0.7-0.9,0.8-1.6,0.8c-2.1-0.2-4.2-0.4-6.2-0.7c-2.7-0.3-5.4-0.5-8.2-0.6
		c-0.4-1.2-0.3-2.4-0.6-3.7c0-0.2,0.2-0.4,0.4-0.4c1.3-0.3,2.4-1,3.6-1.6c0.3-0.1,0.6-0.3,0.9-0.4c1.1-0.6,2.2-0.4,3.2,0.5
		c0.4,0.4,0.9,0.9,1.3,1.4c0.8,0,1.1,0.8,1.8,1c0.2,0.1,0.3,0.2,0.5,0.3c0,0,0,0.1,0.1,0.1c1.2,0.4,2.5,0.8,3.6,1.6
		C83,122.5,83.6,122.9,83.8,123.7L83.8,123.7z"/>
	<path class="st7" d="M36.6,116.2c-0.1,0-0.1,0-0.2,0c-0.7,0-1.1,0.6-1.7,0.8c-0.3,0.1-0.6,0.4-0.9,0.3c-0.3,0-0.3-0.4-0.6-0.5
		c-1,0.2-1.8,0.9-2.9,0.7c-1-1.6-1-1.8,0.6-2.8c0.2-0.1,0.3-0.3,0.5-0.3c1.2-0.4,1.8-1.1,1.3-2.3c1.1-1.7,2.4-2.2,4.4-1.5
		c0,1.3-1.4,1.2-2,2c1.7-0.9,3.5-0.9,5.2-1.4c0.2-0.1,0.4-0.1,0.7,0c0.4,0.2,0.5,0.6,0.7,1c0.1,0.2,0.1,0.4,0.1,0.6
		c-1.3,1.2-2.8,2.2-4.4,2.8C37.2,115.9,36.8,115.9,36.6,116.2L36.6,116.2z"/>
	<path class="st20" d="M78.4,120.1c-0.8-0.2-1.3-0.7-1.8-1.2c1.9-0.3,3.8-0.6,5.7-1c2.4-0.5,4.7-1.2,7.1-1.7
		c1.7-0.3,3.5-0.3,5.2,0.5c1.6,0.8,3.2,1,5,0.9c-0.1,1.1-1,1.2-1.8,1.3c-1,0.1-2,0.1-3-0.3c-2.7-1.1-5.3-0.7-8,0.1
		c-2.6,0.8-5.2,1.4-7.9,1.5h0C78.8,120.1,78.6,120.2,78.4,120.1z"/>
	<path class="st20" d="M63.4,110.7c1-0.1,1.3,0.7,1.6,1.3c0.3,0.7-0.1,1.2-0.7,1.5c-1.2,0.7-2.4,0.6-3.7,0.4c-2.8-0.3-5.4-1.2-8-2.1
		c-0.4-0.2-0.8-0.3-1.2-0.5c0.9-0.5,1.8-0.5,2.7,0c0.7,0.1,1.5,0.1,2.2,0.2c0.5-0.2,1.1-0.2,1.6-0.1c1,0.2,2.1,0.3,3.1,0.4
		c0.5,0.1,0.9-0.3,1.2-0.6C62.7,111.1,62.9,110.7,63.4,110.7L63.4,110.7z"/>
	<path class="st11" d="M66.9,119.1c-0.5-0.1-2-0.2-2.2-0.3c0.9-0.7,1.9-1.6,2.8-2.3c1.2-0.9,2.3-0.5,3.6,0.9c-1,1.2-2.4,1.6-3.9,1.8
		h0C67.2,119.1,67.1,119.2,66.9,119.1z"/>
	<path class="st21" d="M41.8,112.7c-0.1-0.2-0.1-0.3-0.2-0.5c-0.2-0.3,0-0.4,0.2-0.5c0.9-0.2,1.1-0.8,1.1-1.5c0-0.2,0.1-0.3,0.2-0.5
		c0.1-0.1,0.2-0.1,0.2,0c0.4,0.7,0.4,1.4,0.5,2.2C43.4,112.7,42.6,112.8,41.8,112.7L41.8,112.7z"/>
	<path class="st6" d="M36.6,116.2c0.1-0.5,0.5-0.6,0.9-0.6c0.1,0.1,0.2,0.1,0.3,0.2C37.4,115.9,37,116.1,36.6,116.2z"/>
	<path class="st20" d="M67.3,119.3c0,0,0-0.1-0.1-0.1c-0.1-0.1-0.3-0.2-0.4-0.3c-0.5-0.1-1-0.4-1.5,0c-3.7-0.7-7.5-1.5-11.2-2.2
		c-1.8-0.4-3.6-0.8-5.5-0.7c-1.9,0.1-3.6,0.8-5.5,1.3c-0.5,0-1.9-0.1-2-0.2c0,0-0.2-0.1-0.3-0.2c-0.1,0-0.2,0.1-0.3,0.1
		c0.1,0.1,0.2,0.2,0.3,0.2c0.1,0.1,0.1,0.1,0.2,0.2c0.1,0.3,3.3,0.9,4.8,0.8c1-0.1,1.9-0.2,2.9-0.3c2.5-0.2,5,0.4,7.4,0.8
		c3,0.6,6,1.1,9,1.7c1.6,0.3,2.4,1.2,2.4,2.6c0.1,0.1,0.2,0.1,0.3,0l0,0C67.8,121.8,68,120.5,67.3,119.3L67.3,119.3z"/>
	<path class="st5" d="M43.3,109.8c-0.1,0-0.1,0-0.2,0c-0.2-0.1-0.3-0.2-0.4-0.4c-0.3-0.9-0.9-1.5-1.7-2c-0.2-0.1-0.3-0.2-0.4-0.4
		c0-0.2,0-0.3,0.1-0.5c0.1-0.9,0.6-1.5,1.2-2.1c1.7-1.7,3.5-3.4,5.4-4.8c3.2-2.4,5.4-5.6,6.9-9.2c1.1-2.7,2.2-5.5,4-7.9
		c1.6-2.3,3.6-4.2,6.4-5.1c0.1,0,0.2-0.1,0.4-0.2c0.1-0.1,0.2-0.1,0.4-0.2c0.5,1,0.5,2.1,0.8,3.2c0.1,0.5,0.1,1,0.2,1.5
		c0.1,0.3,0.1,0.6,0,0.8c-0.7,1-0.5,2-0.4,3c0.3,4.6,0.5,9.2-0.1,13.8c-0.6,4.1-2.5,7.6-5.4,10.5c-0.5,0.5-1,1-1.4,1.5
		c-0.2,0.3-0.5,0.6-0.9,0.4c-0.6,0-1.1,0-1.7-0.2c1.8-2.7,2.4-5.8,3-8.9c0.7-3.4,0.5-6.9,0.5-10.4c0-0.3,0-0.7-0.4-0.8
		c-0.4,0-0.4,0.4-0.5,0.7c-0.9,4.2-2.7,7.9-5.8,10.9c-2,1.9-4.3,3.6-7,4.4c-0.3,0.1-0.5,0.1-0.8,0.1
		C43.7,107.8,43.3,108.2,43.3,109.8L43.3,109.8z"/>
	<path class="st22" d="M74.9,52.9c-4.1-1.3-8,1.7-9.8,5c-0.2,0.3-0.2,0.6-0.2,0.9c-0.4-0.3-0.5,0.1-0.7,0.2c-0.7,0.8-1.5,1.5-2.3,2
		c-0.5,0.3-0.4,0.8-0.6,1.3c-0.1,0.4,0,1-0.5,1.3c-2.5-3.7,1.3-11,7.2-11.8C70.5,51.5,72.8,51.6,74.9,52.9L74.9,52.9z"/>
	<path class="st10" d="M65.3,74.8c0-0.8,0-1.7,0-2.5c1.4-1,3.1-1.6,4.6-2.9c0,2.5-1.8,4.9-3.9,5.5C65.7,75,65.5,75,65.3,74.8
		L65.3,74.8z"/>
	<path class="st10" d="M103.6,110.9c0.1-0.1,0.2-0.1,0.3-0.2c0.1,0.1,0.2,0.1,0.4,0.2C104.1,111.1,103.8,111.1,103.6,110.9
		L103.6,110.9z"/>
	<path class="st18" d="M96.5,109.9c0-0.1,0.5-0.4,0.5-0.5c0.1-0.1,0.2-0.2,0.3-0.3c0,0.3-0.1,0.5-0.3,0.7
		C97.1,109.7,96.5,110,96.5,109.9L96.5,109.9z"/>
	<path class="st6" d="M67.5,123.1c0.1,0,0.2,0,0.3,0c0.1,0.4-0.6,1,0.2,1.4c-6.9,0.3-13.8,0.2-20.7,0.1c-2.7,0-5.4-0.3-7.9-1.8
		c-0.4-0.2-0.8-0.5-1.2-0.8c0-0.2,0-0.2,0.2-0.2c2.8,1.5,5.9,1.9,9,2c4.6,0.1,9.2-0.1,13.8-0.6C63.3,122.9,65.4,123.1,67.5,123.1
		L67.5,123.1z"/>
	<path class="st12" d="M31.8,55.6c0.6-1.1,1.7-1.6,2.5-2.5c1.9-0.3,3.5,0.3,4.8,1.6c1.2,1.1,2,2.5,2.7,3.9c1.7,3.2,3.3,6.5,4.8,9.8
		c0.2,0.4,0.5,0.7,0.6,1.2c0,0.3-0.3,0.3-0.5,0.4c-2.1,0.8-4.2,1.7-6.3,2.4c-0.5,0-0.8-0.2-1-0.6c-2.2-4.3-4.6-8.6-6.9-12.9
		c-0.4-0.7-0.7-1.5-0.9-2.3C31.6,56.3,31.6,55.9,31.8,55.6L31.8,55.6z"/>
	<path class="st1" d="M47.2,69.6c-1.1-0.9-1.3-2.3-1.9-3.5c-1.7-3.5-3.2-7-5.4-10.2c-1.2-1.7-2.8-2.8-5-2.7c-0.2,0-0.4-0.1-0.5-0.2
		c2.2-1.8,4.8-2.5,7.6-2.4c0.1,0,0.2,0,0.2,0c0.9,1.3,1.3,2.8,2.1,4.2c0.6,1.5,1.3,3,2,4.5c1.3,2.8,2.6,5.6,3.9,8.4
		c0.1,0.2,0.2,0.5,0.1,0.7c-0.2,0.3-0.5,0.4-0.8,0.5c-0.1,0-0.1,0.1-0.2,0.1c-0.1,0-0.3,0.1-0.4,0.2c-0.3,0.1-0.6,0.2-0.9,0.3
		C47.8,69.7,47.5,69.9,47.2,69.6L47.2,69.6z"/>
	<path class="st13" d="M31.8,55.6c0.2,2,1.3,3.7,2.2,5.4c1.4,2.7,2.9,5.3,4.3,8c0.5,1,1,1.9,1.5,2.9c0.2,0.3,0.4,0.4,0.7,0.4
		c0,0.3-0.3,0.4-0.5,0.5c-0.5,0.1-1,0.6-1.6,0.3C35.6,68.1,32.8,63,30,58C30.4,57,31,56.2,31.8,55.6L31.8,55.6z"/>
	<path class="st23" d="M51.3,67.9c-1-2.2-2.1-4.4-3.1-6.6c-2-4-3.6-8.1-5.8-11.9c-0.5,0-0.7,0.1-0.8,0.2c-0.4,0.3-0.9,0.4-1.1,0.9
		c0.5,0.2,1-0.1,1.4,0.2c0,0,0.1,0,0.1,0c0.1,0,0.1,0,0.1,0c0.7,1.3,1.2,2.7,1.9,4.1c0.4,1,0.9,1.9,1.3,2.9c1.5,3.3,3.1,6.6,4.6,9.9
		c0.1,0.3,0.4,0.6,0.4,1c-0.2,0.3-0.5,0.4-0.8,0.5c-2.1,1-4.1,2.1-6.1,3.1c-0.3,0.2-0.7,0.2-0.7,0.7c2.7-0.8,5.2-2.2,7.8-3.2
		C51.7,69.4,51.7,68.8,51.3,67.9L51.3,67.9z"/>
	<path class="st9" d="M40.8,105.9c0.7-2.1,2.2-3.7,3.7-5.2c0.3-0.3,0.6-0.7,0.9-1.1c3.8-3.8,7.1-7.7,8.7-13
		c1.6-5.4,5.4-8.4,10.9-9.6c-0.2,0.5-0.7,0.5-1.1,0.7c-3.9,1.9-6,5.3-7.8,9c-1.1,2.4-1.9,4.9-3.3,7.2c-1.5,2.4-3.4,4.3-5.6,6.1
		c-2,1.6-4,3.2-5.6,5.2c-0.3,0.3-0.4,0.7-0.6,1.1C40.8,106.3,40.7,106.2,40.8,105.9L40.8,105.9z"/>
	<path class="st10" d="M41.1,111.3c-2.2,0.7-4.5,0.8-6.8,2c0.6-1.4,2.2-1.4,2.9-2.6c-1.2,0-2.3-0.5-3.2,0.5
		c-0.3,0.4-0.8,0.6-1.2,0.9c-0.8-0.1-1.6-0.1-1.8-1c0-0.1,0-0.2,0-0.2c0.2-0.3,0.5-0.4,0.8-0.4c0.6-0.2,1.2-0.3,1.7-0.6
		c1.5-0.9,3.1-1.3,4.8-1.1c0.4,0.1,0.8-0.1,0.9-0.5c0.7,0.6,1.3,1.3,1.7,2.2C41.1,110.7,41.3,110.9,41.1,111.3L41.1,111.3z"/>
	<path class="st9" d="M41.1,111.3c-0.5-0.8-0.8-1.8-1.7-2.3c-0.3-0.2-0.2-0.4-0.2-0.7c0.3-0.6,0.9-1.1,1.5-1.4
		c1.3,0.5,2.1,1.5,2.4,2.9c-0.1,0.8,0.4,1.8-0.8,2.2c-0.3,0.1-0.6-0.1-0.7,0.3C41.5,111.9,41.3,111.6,41.1,111.3L41.1,111.3z"/>
	<path class="st6" d="M37.8,121.2c-0.1-0.1-0.2-0.2-0.3-0.3c-0.2-0.2-0.4-0.3-0.5-0.5c0,0.2,0.1,0.4,0.3,0.5
		c0.1,0.1,0.2,0.2,0.3,0.3c0.2,0.2,0.5,0.4,0.7,0.7c0.1-0.1,0.1-0.1,0.2-0.2C38.2,121.6,38,121.4,37.8,121.2z"/>
	<path class="st12" d="M21.5,69.8c-0.8-1.3-1.6-2.7-2.3-4.1c0-0.1,0-0.1-0.1-0.1c0,0-0.1-0.1-0.1-0.1c0-0.1,0-0.1-0.1-0.2
		c0,0-0.1-0.1-0.1-0.2c0-0.1,0-0.1-0.1-0.2c0,0-0.1-0.2-0.1-0.2c0-0.1-0.1-0.3-0.2-0.4c0,0,0.1,0,0.1,0c0.1-0.2,0.2-0.1,0.4,0
		c0.1-0.1,0.1,0,0.2,0c0,0.1,0,0.2,0,0.2c0,0,0.1,0.1,0.1,0.1c0,0.1,0,0.1,0.1,0.1c0,0,0.1,0.1,0.1,0.1c0,0.1,0.1,0.2,0.1,0.2
		c0,0,0.1,0.1,0.1,0.2c0,0.1,0.1,0.1,0.2,0.2c0.1,0.1,0.1,0.2,0.2,0.2c0.8,2.1,2.1,4,3.1,6.1c0.2,0.3,0.3,0.7,0.5,1.1
		c0,0-0.1,0-0.1,0c-0.4-0.1-0.4-0.5-0.6-0.8C22.4,71.4,22.2,70.5,21.5,69.8L21.5,69.8z"/>
	<path class="st12" d="M24.1,73.9c0.7,0.8,1.1,1.8,1.5,2.8c0,0-0.1,0-0.1,0C24.7,76,24.3,75,24.1,73.9C24,74,24,74,24.1,73.9
		L24.1,73.9z"/>
	<path class="st12" d="M27.3,79.3c-0.1,0.1-0.2,0.2-0.4,0.3c-0.1,0-0.2-0.1-0.3-0.1c0-0.5-0.5-0.8-0.4-1.3c0,0,0.1-0.1,0.1-0.1
		C26.8,78.3,26.7,79.1,27.3,79.3L27.3,79.3z"/>
	<path class="st24" d="M26.1,77.8c0.1,0.1,0.1,0.2,0.2,0.3C26,78.2,26,78,26.1,77.8C26.1,77.8,26.1,77.8,26.1,77.8L26.1,77.8z"/>
	<path class="st24" d="M25.9,77.4c0.1,0.1,0.1,0.2,0.2,0.3C25.9,77.8,25.9,77.7,25.9,77.4C25.9,77.5,25.9,77.5,25.9,77.4L25.9,77.4z
		"/>
	<path class="st25" d="M25.8,77.1c0.1,0.1,0.1,0.2,0.2,0.3C25.7,77.5,25.7,77.4,25.8,77.1C25.7,77.2,25.7,77.1,25.8,77.1L25.8,77.1z
		"/>
	<path class="st25" d="M25.6,76.8c0.1,0.1,0.1,0.2,0.2,0.3C25.5,77.1,25.5,77,25.6,76.8z"/>
	<path class="st25" d="M23.9,73.6c0.1,0.1,0.1,0.2,0.2,0.3C23.8,74,23.8,73.9,23.9,73.6C23.9,73.7,23.9,73.6,23.9,73.6z"/>
	<path class="st25" d="M23.7,73.3c0.1,0.1,0.1,0.2,0.2,0.3C23.7,73.7,23.7,73.5,23.7,73.3C23.7,73.3,23.7,73.3,23.7,73.3z"/>
	<path class="st25" d="M23.6,72.9c0.1,0.1,0.1,0.2,0.2,0.3C23.4,73.3,23.5,73.1,23.6,72.9z"/>
	<path class="st26" d="M19.2,64.4c-0.1-0.1-0.1-0.1-0.2-0.2c-0.3-0.7-0.6-1.3-0.8-2c0.9,1,1.4,2.4,1.9,3.6c-0.1-0.1-0.3-0.2-0.4-0.2
		c-0.1-0.1-0.1-0.2-0.2-0.3s-0.1-0.2-0.2-0.3c-0.1-0.1-0.1-0.2-0.2-0.3C19.1,64.6,19.1,64.5,19.2,64.4
		C19.1,64.5,19.2,64.5,19.2,64.4L19.2,64.4z"/>
	<path class="st26" d="M17.6,61.1c0.2,0.4,0.3,0.8,0.5,1.2c-0.7-0.6-0.9-1.5-1.1-2.4C17.2,60.3,17.4,60.7,17.6,61.1z"/>
	<path class="st27" d="M26.6,80.8c-0.4-0.7-0.8-1.3-1.2-2c0-0.1,0-0.1,0-0.2c-0.1-0.1-0.1-0.1-0.2-0.2c-0.3-0.6-0.5-1.2-0.8-1.8
		c-2.8-5.5-5.5-10.9-8.3-16.4c-0.2-0.5-0.6-0.9-0.9-1.4c-0.5,0.1-0.3,0.4-0.2,0.6c0.3,0.6,0.5,1.2,0.8,1.7c2.8,5.5,5.6,11,8.5,16.5
		l0,0c0.1,0.1,0.1,0.2,0.2,0.3v0c0.1,0.1,0.1,0.2,0.2,0.3c0.1,0.2,0.2,0.3,0.4,0.5c0,0.1,0.1,0.1,0.1,0.2c0,0,0,0,0,0
		c0.3,0.7,0.7,1.3,1,2c0.1,0,0.2,0,0.3,0c0.2,0.2,0.3,0,0.5,0C27,80.8,26.8,80.8,26.6,80.8L26.6,80.8z"/>
	<path class="st9" d="M58,111.8c0.8-0.9,1.7-1.7,2.5-2.6c2.6-2.8,4.3-6,4.8-9.8c0.5-3.7,0.6-7.4,0.3-11.2c-0.1-1.5-0.1-3-0.2-4.6
		c-0.1-0.8,0.8-1.3,0.9-2.1c0.7,2.4,0.9,4.9,1.1,7.4c0.2,3.8,0.7,7.6,0.3,11.4c-0.1,0.8-0.2,1.6-0.4,2.4c-0.8,2.9-1.9,5.6-3.9,8
		C61.9,112.9,59.9,112.1,58,111.8L58,111.8z"/>
	<path class="st28" d="M40.8,117.3c0.1,0.1,0.1,0.1,0.2,0.2C40.9,117.4,40.8,117.3,40.8,117.3z"/>
	<path class="st20" d="M66.9,119.1c0.2,0,0.3,0,0.4,0.2C67.2,119.2,67.1,119.2,66.9,119.1z"/>
	<path class="st16" d="M50.2,67.6c-0.6-1.3-1.2-2.5-1.7-3.8c-1.4-3-2.8-6-4.2-9.1c-0.7-1.4-1.3-2.8-2-4.2c-0.1,0.1-0.1,0.1-0.2,0.2
		c0.7,1.4,1.3,2.8,2,4.2c2,4.3,3.9,8.6,5.9,12.9c0,0,0,0,0,0.1c0.1,0.2,0.1,0.4,0.2,0.7c-0.2,0.1-0.4,0.2-0.6,0.3
		c-0.5,0.2-0.9,0.4-1.4,0.5c-2.6,1-5.3,2-7.9,3.1c-0.5,0.2-0.9,0.4-1.2,0.8c-0.1,0.3-0.4,0.4-0.7,0.3c-0.6-0.1-1.1,0.2-1.6,0.5
		c-3,1.8-6,3.5-9.1,5.3c-0.2,0.1-0.5,0.4-0.7,0.1c-0.1-0.1-0.1,0.4-0.2,0.2c-1.7-3.1-3.7-6.7-5.3-9.9c-0.8-1.3-4.4-8.4-5.2-9.9
		c-0.1-0.3-0.4-0.7,0.1-0.9c0.1-0.1,0.2-0.1,0.3-0.2c-0.5-0.3-1-0.1-1.5-0.1c-0.1,0.2,0,0.4,0.1,0.6c2.2,4.2,4.5,8.5,6.6,12.7
		c1,2.1,2.1,4.1,3,6.2c0.1,0.1,0.1,0.2,0.2,0.3c0,0.1,0.1,0.1,0.1,0.2c0.4,0.6,0.5,1.5,1.2,2c0.2,0.1,0.4,0,0.6,0.1
		c4.5-1.9,8.3-5,12.9-7.3c0.8-0.1,1.8-0.4,2.8-0.7c2.6-1.4,5.3-2.8,8-4.2C50.6,68.3,50.4,68,50.2,67.6L50.2,67.6z"/>
	<path class="st27" d="M49.5,68.9c0,0-0.1,0-0.1,0.1c-0.1,0-0.1,0-0.1,0c-0.1,0.1-0.3,0.1-0.4,0.1c-0.3,0.1-0.5,0.2-0.8,0.3
		c0,0-0.1,0-0.1,0c-0.3,0.1-0.5,0.1-0.8,0.2c-2.3,0.9-4.5,1.8-6.8,2.6c-0.2,0.1-0.4,0.2-0.5,0.3c-0.5,0.2-1,0.3-1.5,0.5
		c-0.7,0.4-1.5,0.8-2.2,1.2c-2.2,1.3-4.5,2.6-6.7,3.9c-0.7,0.4-1.4,1-2.2,1.1v0c-0.1,0.1-0.4,0-0.4,0.3c0,0.1-0.3,0.2-0.1,0.4
		c0.3,0.2,0.5,0.1,0.8-0.1c2.8-1.7,5.7-3.4,8.5-5c0.8-0.5,1.5-1.2,2.6-0.8c0.2,0.1,0.5-0.1,0.6-0.4c0.2-0.5,0.6-0.7,1-0.9
		c2.7-1.1,5.4-2.1,8.1-3.2c0.5-0.2,0.9-0.4,1.4-0.7c0.2,0,0.4-0.1,0.5-0.3C50,68.7,49.8,68.8,49.5,68.9L49.5,68.9z"/>
	<path class="st29" d="M49.2,69c-0.1,0-0.2,0.1-0.4,0.1C49,69.1,49.1,69,49.2,69z"/>
	<path class="st30" d="M24.6,77.9c0.1,0.1,0.1,0.2,0.2,0.3C24.7,78.2,24.6,78.1,24.6,77.9z"/>
	<path class="st30" d="M24.4,77.6c0.1,0.1,0.1,0.2,0.2,0.3C24.5,77.8,24.5,77.7,24.4,77.6z"/>
	<path class="st31" d="M25.1,78.8c0,0.1,0.1,0.1,0.1,0.2C25.2,78.9,25.1,78.8,25.1,78.8z"/>
	<path class="st13" d="M23.6,72.9l0.2,0.3c0.1,0.1,0.1,0.2,0.2,0.3c0.1,0.1,0.1,0.2,0.2,0.3c0.4,1,0.8,2,1.5,2.8
		c0.1,0.1,0.1,0.2,0.2,0.3c0.1,0.1,0.1,0.2,0.2,0.3c0.1,0.1,0.1,0.2,0.2,0.3c0.1,0.1,0.1,0.2,0.2,0.3c-0.1,0.5,0.7,0.8,0.3,1.3
		c-1.8-3.1-3.5-6.4-5.1-9.6c0.5-0.2,0.4,0.2,0.5,0.4C22.6,71.1,22.8,72.2,23.6,72.9L23.6,72.9z"/>
	<path class="st31" d="M25.4,78.6c-0.1-0.1-0.1-0.1-0.2-0.2C25.3,78.5,25.4,78.5,25.4,78.6z"/>
	<path class="st32" d="M19.5,65.3c0.1,0.1,0.1,0.2,0.2,0.3C19.6,65.5,19.6,65.4,19.5,65.3z"/>
	<path class="st32" d="M19.3,64.9c0.1,0.1,0.1,0.2,0.2,0.3C19.5,65.2,19.4,65.1,19.3,64.9z"/>
	<path class="st32" d="M19.2,64.6c0.1,0.1,0.1,0.2,0.2,0.3C19.3,64.8,19.2,64.7,19.2,64.6z"/>
	<path class="st5" d="M35.9,61.1C35.9,61,35.9,61,35.9,61.1l-5.1-10c0,0-0.7-0.3-1.6,0.2c-0.8,0.4-2,1.6-2,1.6l1.1,2.3l4,7.5
		c0,0,1.5-0.1,2.8-0.7C36.1,61.5,36,61.2,35.9,61.1L35.9,61.1z M34.3,61.8c-0.1,0.1-0.3,0.3-0.5,0.1c-0.2-0.2,0-0.3,0-0.3
		s0.2-0.2,0.4-0.1C34.4,61.4,34.4,61.7,34.3,61.8z"/>
	<path class="st9" d="M35.4,61.8c0.7-0.4,0.6-0.6,0.5-0.7c0,0,0-0.1-0.1-0.1l-5.1-9.9c0,0-0.4-0.1-0.9-0.1L35.4,61.8L35.4,61.8z"/>
	<path class="st17" d="M27.9,52.2c-0.4,0.4-0.7,0.7-0.7,0.7l1.1,2.3l4,7.5c0,0,0.4,0,0.9-0.1L27.9,52.2L27.9,52.2z"/>
	<path class="st33" d="M33.9,61.9c0-0.3,0.1,0.2,0.3,0.3c0.3,0.1,0.5-0.2,0.8,0.4c0.3,0.6,1.4,2.9,2,3.1c0.7,0.2,1.2-0.2,1.7-0.2"/>
	<path class="st33" d="M34.1,61.9c0-0.1-0.1-0.2,0-0.2c0.2-0.2,0.8,0.4,0.7,0.6c-0.1,0.1-0.3,0.1-0.4,0"/>
	<path class="st33" d="M37.7,70.2c0,0,0.4-0.5-0.6-1.5c-1-1.1-2.2-1.6-2.2-2.5c0-0.9-0.1-2.3-0.2-2.9c-0.1-0.3-0.2-0.7-0.4-1.1"/>
</g>
</svg>
