<svg width="20" height="21" viewBox="0 0 20 21" fill="none" xmlns="http://www.w3.org/2000/svg">
<path d="M13.3333 14.2266V16.8331C13.3333 17.9376 12.4379 18.8331 11.3333 18.8331H8.66662C7.56205 18.8331 6.66663 17.9376 6.66663 16.8331V14.2266" stroke="#420A98" stroke-width="1.5" stroke-linecap="round" stroke-linejoin="round"/>
<path d="M6.66663 6.77299V4.1665C6.66663 3.06193 7.56206 2.1665 8.66663 2.1665H11.3333C12.4379 2.1665 13.3333 3.06193 13.3333 4.1665V6.77299" stroke="#420A98" stroke-width="1.5" stroke-linecap="round" stroke-linejoin="round"/>
<path d="M15 10.5C15 7.73858 12.7614 5.5 10 5.5C7.23858 5.5 5 7.73858 5 10.5C5 13.2614 7.23858 15.5 10 15.5C12.7614 15.5 15 13.2614 15 10.5Z" stroke="#420A98" stroke-width="1.5" stroke-linecap="round" stroke-linejoin="round"/>
<path d="M11.6667 10.5002H10V8.8335" stroke="#420A98" stroke-width="1.5" stroke-linecap="round" stroke-linejoin="round"/>
</svg>
