<svg width="186" height="278" viewBox="0 0 186 278" fill="none" xmlns="http://www.w3.org/2000/svg">
<path d="M146.078 99.195C127.699 93.616 130.212 85.3614 130.451 82.1753C127.896 83.0257 125.215 69.8013 128.719 68.4484C125.195 63.3511 120.009 61.1074 113.856 62.0198C108.183 62.1429 100.907 61.7043 96.3183 58.1195C91.896 55.1887 63.028 39.8824 61.1279 39.508C56.9186 37.7803 50.585 37.5429 46.3472 39.2963C37.7497 42.292 30.2091 50.0437 26.2363 58.2994C17.7754 73.8419 16.655 92.1814 18.7708 110.348C19.324 117.363 19.4736 124.516 21.6738 131.002C24.733 140.306 31.4319 150.01 41.8789 152.955C46.135 148.423 58.3056 150.533 56.6497 152.452C66.7478 150.689 75.004 149.237 84.0912 154.754C90.4865 158.636 87.6349 160.087 92.0547 164.216C92.0547 164.216 105.928 168.253 107.28 180.546C107.28 180.546 109.783 182.797 113.11 185.117C123.933 192.943 133.728 187.112 138.2 175.822C140.539 169.984 139.991 163.2 139.65 156.822C137.466 142.344 150.183 134.12 154.37 121.915C158.141 112.567 155.752 102.132 146.078 99.195Z" fill="#F1DFC5"/>
<path d="M105.577 33.9258C101.93 36.2717 95.5179 39.6802 94.1801 37.0735C94.0301 35.7762 89.8082 32.3289 91.8791 31.9535C96.9811 30.5381 116.847 22.5689 113.478 15.7982C113.139 14.633 114.515 16.3147 114.756 16.5887C115.404 17.327 115.672 18.5083 115.672 18.5083C116.812 23.3418 112.103 27.6416 108.78 31.2413C107.832 32.2686 106.754 33.1687 105.577 33.9258Z" fill="black"/>
<path d="M87.4367 251.855C94.1252 211.352 94.2736 168.918 88.5851 128.335C86.5058 125.125 80.5347 133.046 79.4336 131.876C83.4499 125.902 90.2684 122.735 92.7144 125.274C105.287 138.321 97.2973 245.748 92.1749 252.022C92.1749 252.022 88.7558 253.67 87.9972 253.67L88.0138 253.657C87.2095 253.61 87.127 253.26 87.4389 251.842L87.4367 251.855Z" fill="#B06A1D"/>
<path d="M100.578 112.047C103.502 137.583 111.156 213.787 111.447 214.454L112.063 220.025C112.375 222.614 114.14 240.059 114.14 240.059C114.168 240.977 114.671 241.969 113.72 242.735L113.729 242.729C113.403 242.904 111.022 243.753 111.022 243.753C105.345 213.771 104.214 181.605 100.4 150.857C100.823 138.562 93.8072 123.407 100.578 112.047Z" fill="#FCCA95"/>
<path d="M110.637 245.01C110.714 245.39 111.065 246.344 110.891 246.691C108.95 250.569 108.912 249.051 110.965 250.03C114.264 256.094 123.09 249.611 131.643 256.634C131.637 257.1 131.572 257.996 131.576 258.062C127.772 261.242 101.519 263.735 100.583 257.22C100.967 255.23 99.596 252.181 101.786 251.047C105.083 249.565 107.979 247.103 110.637 245.01Z" fill="#C9DEF1"/>
<path d="M110.636 245.01C110.406 246.874 103.321 250.529 101.48 251.531C100.336 252.01 101.041 255.71 100.903 257.278C100.872 257.642 100.96 258.009 101.17 258.308C101.959 259.43 103.987 259.806 105.153 260.276C108.826 261.392 112.659 260.967 116.433 260.905C121.47 260.605 126.793 259.778 131.576 258.063C131.576 258.063 130.825 261.119 129.886 262.358C129.886 262.358 129.021 263.414 128.436 263.798L128.448 263.791C128.285 264.002 111.45 263.295 103.325 263.796C101.425 263.972 95.9294 263.632 95.699 263.376L95.7137 263.388C95.625 263.332 95.5521 263.259 95.4956 263.171L95.5086 263.187C95.2116 262.801 95.0719 254.571 94.8525 250.949C99.0097 248.161 104.366 246.589 109.012 244.38C109.724 244.065 110.426 243.823 110.62 244.812L110.618 244.81C110.62 244.812 110.636 245.01 110.636 245.01Z" fill="#85A2C1"/>
<path d="M59.1631 42.7785C59.9194 41.1578 61.1679 38.6352 62.1587 37.285C62.8597 36.3297 64.0925 35.2864 64.2308 35.1895C64.2308 35.1895 63.5519 33.1055 63.7824 31.3992C63.992 29.8471 64.0901 29.1089 64.6474 27.7505C67.8278 18.0861 78.4385 13.6855 88.4846 15.805C94.0063 16.9699 97.2948 16.7118 99.7188 16.7465C100.981 16.7645 102.135 16.3893 102.135 16.3893C101.25 18.5099 89.0644 17.0282 86.8421 17.3381C78.6035 15.8771 70.6612 21.9094 68.9189 29.9707C68.9277 33.933 72.2158 36.7694 66.4136 38.3961C64.1617 38.5061 59.9527 44.4444 59.1631 42.7785Z" fill="#404040"/>
<path d="M144.398 69.5415C144.21 71.7742 143.662 73.4881 143.475 73.9022L143.376 74.1609C142.393 75.082 140.004 65.9944 138.924 64.0749C138.92 64.0668 138.916 64.0588 138.913 64.0501C136.511 57.564 130.059 53.4483 127.463 47.2816C127.443 47.2341 127.442 47.1805 127.461 47.1326L128.719 45.2051C128.729 45.2304 129.692 46.14 129.711 46.1592C129.922 46.3685 131.074 47.6333 131.282 47.9931C131.289 48.0053 131.296 48.0158 131.306 48.0263C132.773 49.6521 139.175 57.1824 139.833 58.3222C139.835 58.3265 139.838 58.3303 139.841 58.3344C140.481 59.2469 141.17 60.3729 141.706 61.422C141.706 61.422 142.856 63.1085 144.039 66.998C144.319 67.9166 144.445 68.9868 144.398 69.5415Z" fill="#2D399D"/>
<path d="M131.642 256.634C122.584 250.318 113.192 256.166 110.821 249.98C115.565 250.485 122.05 248.578 126.794 249.97C127.086 250.024 127.447 250.179 127.824 250.382C129.553 251.311 130.824 252.916 131.354 254.801C131.536 255.449 131.642 256.634 131.642 256.634Z" fill="#E6F2FE"/>
<path d="M135.465 29.0049C135.656 29.0778 136.16 28.8591 136.124 29.2736C135.877 32.1016 136.391 35.3738 137.535 37.9404C138.004 38.9942 122.117 43.1472 122.405 40.2377C125.161 38.1694 136.213 39.4647 135.606 35.2372C135.434 33.3461 134.068 30.4086 135.465 29.0049Z" fill="#463075"/>
<path d="M135.306 28.998C135.54 29.1497 135.332 29.451 135.338 29.6349C135.419 32.1112 116.686 36.9485 121.606 32.6966C121.789 32.5381 135.306 28.998 135.306 28.998Z" fill="#BFAEE2"/>
<path d="M109.167 250.278C108.578 250.983 104.256 252.994 104.997 250.974C106.619 249.807 108.454 248.826 109.659 247.181C111.712 244.664 110.746 248.13 110 249.146V249.146C109.37 249.923 109.569 249.873 109.167 250.278Z" fill="#E6F2FE"/>
<path d="M111.021 243.752C104.712 246.412 98.5631 249.563 92.1744 252.022C99.5067 211.172 98.4701 168.766 93.3059 127.784C93.1942 126.898 92.7398 126.079 92.0142 125.555C88.8545 123.274 83.3095 127.973 81.3567 130.592C79.2164 134.124 75.2965 136.317 72.3217 139.207C42.6251 153.264 38.7273 171.928 52.0973 194.711C53.5119 197.122 58.197 201.65 59.7773 204.212C60.7255 205.75 58.3957 205.308 59.6198 206.836L57.2223 208.245L53.8394 210.53L49.5716 211.993C39.9336 195.734 30.2809 174.381 39.7026 155.987L39.7022 155.988C41.2702 153.384 43.1329 150.879 46.2421 150.1C50.9668 147.623 54.7595 143.644 58.0997 139.555C60.283 137.121 60.6806 133.554 63.1353 131.429C66.5915 131.418 69.4585 129.96 72.0543 127.831C76.5771 125.329 80.4099 125.763 82.6486 119.968C83.5106 117.878 85.0768 117.227 87.0993 117.103C92.4938 116.89 90.4885 114.566 93.7873 113.362C95.9542 112.642 98.4919 112.228 100.435 111.421C101.379 114.808 99.0753 116.025 98.5933 119.171C98.2619 121.094 97.9367 123.139 98.0155 125.085C102.458 164.603 105.718 204.279 111.021 243.752Z" fill="#EB9C47"/>
<path d="M72.3221 139.207L69.7228 140.197C68.7373 140.534 67.8039 141.006 66.9459 141.594C58.9711 147.068 50.9243 151.62 45.9294 160.362C38.7534 176.501 50.0059 194.129 59.6202 206.836C59.6202 206.836 63.6303 204.021 65.1793 202.617C66.7249 201.016 63.109 197.628 60.755 195.708C59.3291 194.545 58.0443 193.219 56.9468 191.744C50.3413 182.867 44.3969 171.028 50.0204 160.532C54.8541 152.453 70.2252 140.693 70.3597 140.59L72.3221 139.207Z" fill="#B06A1D"/>
<path d="M39.7027 155.987C30.9536 174.813 40.0464 195.35 49.5717 211.993C49.4327 212.425 49.8122 212.493 49.448 212.548C47.1234 212.759 41.8317 214.627 41.3749 211.007C40.0982 204.876 38.5264 198.791 37.1104 192.684C35.7583 187.636 35.3178 182.428 34.761 177.261C33.8348 169.688 34.556 162.007 39.7027 155.987Z" fill="#FCCA95"/>
<path d="M42.426 212.77C46.1172 213.717 49.6687 213.853 53.28 212.508C55.2898 211.834 55.4466 211.931 55.8933 213.993C57.0573 217.264 54.0982 218.263 51.5989 219.327C44.729 222.074 37.8447 224.909 30.7707 227.055C30.2506 226.218 28.6176 223.196 30.1791 222.923C34.5543 221.255 39.6672 218.453 40.9336 213.659C41.0334 212.924 41.8997 212.989 42.426 212.77Z" fill="#C9DEF1"/>
<path d="M30.7705 227.055C37.4382 224.255 44.5115 222.095 51.195 219.196C52.7474 218.382 55.6245 217.807 55.864 215.815C55.8908 215.592 55.8639 215.367 55.8095 215.149C55.5803 214.231 55.6613 212.171 54.6341 212.357C51.013 213.555 46.9228 214.985 43.3893 212.999C48.525 213.05 52.7989 210.591 57.2225 208.245C62.0968 220.44 62.0984 217.474 50.8841 222.499C45.6975 224.563 40.4098 226.333 35.0355 227.845C33.0668 228.358 31.3886 230.119 30.7705 227.055Z" fill="#85A2C1"/>
<path d="M41.4943 213.03C41.2138 217.46 36.1393 220.082 32.7711 222.209C31.8844 223.03 30.0748 223.045 29.5391 224.1C28.2933 217.513 36.2863 214.175 41.4943 213.03Z" fill="#E6F2FE"/>
<path d="M45.4873 105.369C48.218 98.394 52.5814 92.111 56.5365 85.7649C62.5446 84.4057 62.2687 74.1877 70.0054 74.485C71.3475 75.1547 73.8242 76.8192 74.8225 74.8567C75.0315 73.7185 73.5879 73.2976 72.9058 72.6599C70.5748 71.2395 70.3157 67.2702 72.6811 65.9316C78.0706 68.5925 76.1814 65.288 80.4708 71.1544C81.1298 73.3685 78.5437 74.8739 79.4744 77.0147C81.2068 82.5487 83.8908 88.0868 84.8116 93.7446C82.9812 95.1881 84.5222 97.9116 84.4403 99.8673C85.241 102.209 83.3613 107.518 84.7878 108.568C84.9287 109.199 84.7644 109.694 84.1478 109.984C80.553 103.962 70.0784 105.688 66.8754 111.834C66.0234 110.78 66.242 109.491 66.5957 109.25C68.0759 102.64 77.9776 99.1802 76.7314 91.8357C76.0373 89.86 74.8968 93.4662 74.2644 91.6165C74.0108 90.4926 72.5423 90.5093 72.1254 89.7127C76.689 88.3728 73.9095 84.7387 70.4093 86.2475C65.752 88.0347 53.7453 98.8219 57.7331 103.754C57.3623 106.166 53.9652 103.445 52.7705 104.69C51.9084 107.88 56.8201 111.489 59.5763 112.768C61.5529 113.508 63.538 114.208 65.6521 114.439C66.9996 114.598 66.2179 116 66.7116 116.89C67.0354 114.624 69.5505 111.875 71.2712 114.664C71.9946 115.772 71.274 117.479 72.7704 118.067C72.7605 119.283 72.8083 120.513 71.9847 121.547C70.2786 119.996 69.2676 118.116 66.4888 119.152C58.7932 117.181 47.6265 114.252 45.4873 105.369Z" fill="#272F77"/>
<path d="M79.7238 74.1699C81.5163 69.9945 79.0668 65.4278 74.5454 65.2637C74.9791 61.7417 74.1651 58.5693 74.4795 54.8102C66.2764 60.1359 61.8738 41.3011 70.9856 43.2104C76.0962 43.5891 76.0463 34.7201 78.6332 32.1249C81.1874 32.2121 83.6801 32.8315 86.2527 32.8149C87.6911 32.791 89.8031 31.3742 91.5003 32.2583C102.028 44.6585 99.9295 75.9719 77.6139 57.8565C77.5753 61.7849 80.6692 65.269 84.3277 66.5598C84.7079 66.6722 85.8846 66.9398 85.1373 67.3924C83.4151 68.3619 84.1616 80.7241 82.9607 76.7554C83.4336 72.8966 81.6067 75.7527 79.7238 74.1699Z" fill="#BEA589"/>
<path d="M111.425 14.3432C108.249 13.5049 105.199 15.7026 102.135 16.3894C92.6298 19.9467 79.6639 12.506 72.5583 22.5833C63.6067 31.272 74.3744 35.274 66.631 38.036C64.4843 38.737 62.1068 40.1023 60.7577 41.9677C59.6128 43.5509 59.1634 42.7786 59.1634 42.7786C55.535 51.9485 65.975 50.3304 66.3068 46.6294C66.7521 41.6632 74.1517 42.9616 75.8987 37.9596C77.3345 36.9578 78.7459 32.7757 78.7562 32.1286C78.7562 32.1286 80.8011 32.9596 81.5195 33.1155C81.8288 33.1826 82.2771 33.1193 82.6875 33.0256C83.2527 33.074 83.9597 33.033 84.9517 32.8014C93.6822 30.7633 107.275 25.8311 108.036 24.9884C111.495 22.9032 118.29 16.1559 111.425 14.3432Z" fill="#282828"/>
<path d="M58.6768 44.2086C58.6768 44.2086 59.163 44.0646 59.4783 44.4035C61.5954 46.679 63.2815 46.7534 66.3235 46.4381L66.1869 47.4547C66.2415 52.2023 69.8491 56.8772 74.4792 54.8103C74.4792 54.8103 74.6593 58.4386 74.5994 60.8698C74.5994 60.8698 73.9312 61.7115 72.0338 61.8132C63.0263 62.2959 56.5612 52.4469 58.6768 44.2086Z" fill="black"/>
<path d="M100.578 112.047C99.8728 112.193 98.1191 112.437 97.4232 112.619C96.2269 112.93 95.0412 113.282 93.8531 113.624C91.5697 114.18 92.3965 115.643 90.5165 116.619C88.2974 117.901 84.6052 116.563 83.3079 119.285C82.4311 121.45 81.0487 123.411 79.2699 124.931C77.8612 126.029 76.0163 126.43 74.3219 126.914C72.4231 127.398 71.2029 129.138 69.4654 129.965C67.802 130.791 64.9183 132.185 63.1357 131.429C64.8137 129.635 66.2399 127.439 68.0583 125.848C70.3422 125.772 71.1531 124.245 72.5079 122.808C78.014 122.465 77.9322 120.3 80.773 116.415C82.6799 113.701 86.2826 115.43 88.9997 114.544C89.6703 114.375 90.3945 114.214 90.2988 113.261C89.8442 112.322 87.2722 112.721 88.8071 110.956C92.1093 110.111 96.9975 111.256 100.357 110.911L100.578 112.047Z" fill="#B06A1D"/>
<path d="M72.4417 122.955C71.6664 124.804 69.7865 126.237 67.7178 126.051C65.4996 125.193 65.0445 122.381 65.7454 120.354C59.3414 118.572 40.8219 115.348 45.4871 105.369C46.4763 106.493 46.399 108.161 47.3821 109.325C50.8886 114.143 58.6061 116.01 63.9546 118.2C64.7607 118.401 65.7181 119.022 66.5221 118.674C69.614 117.386 71.6532 120.394 72.4417 122.955Z" fill="#1B273F"/>
<path d="M62.1313 132.515C60.9621 138.937 48.2919 151.854 41.7783 153.02C47.2812 146.224 56.2414 138.966 62.1313 132.515Z" fill="#FCCA95"/>
<path d="M69.9934 74.6167C67.6959 75.4342 65.877 74.9499 64.2564 77.4965C62.6334 79.2833 59.1766 87.2068 56.5361 85.7647C59.9663 80.936 62.0257 73.1603 68.7115 72.1616C69.0544 72.7624 70.1001 74.0227 69.9934 74.6167Z" fill="#2D399D"/>
<path d="M69.9935 74.6168C69.4847 73.8723 68.7535 73.1846 68.7119 72.1617C68.9488 72.098 69.1573 72.03 69.1652 71.7111C69.3361 69.6466 70.2478 67.4042 72.1348 66.3262C71.4849 68.3989 70.4744 70.5584 72.8231 72.2525C73.5628 72.9584 74.7967 73.3282 75.1573 74.3371C75.1916 77.147 70.9989 76.0877 69.9935 74.6168Z" fill="#1B273F"/>
<path d="M74.5454 65.2632C76.3039 65.2266 78.2181 65.3819 79.1831 67.0986C79.9046 68.2943 80.3349 69.7175 80.3103 71.1C80.2923 72.1142 79.0854 69.898 78.6837 69.2066C77.5546 66.2382 71.2354 67.053 72.6804 65.9317C73.0563 65.6399 73.8755 65.3523 74.5454 65.2632Z" fill="#2E399D"/>
<path d="M140.589 77.8081C139.936 78.3389 139.408 78.6938 139.408 78.6938C138.986 78.6234 139.602 77.1152 138.093 77.5397C127.955 81.6942 116.895 81.5606 106.278 83.6422C102.749 84.4889 97.1629 87.1561 96.6013 91.0128C96.6258 92.0646 97.2874 92.4349 98.2801 92.2412C100.523 90.5882 103.137 96.0338 107.591 96.122C108.634 96.2668 109.61 96.4085 110.622 96.1152C112.882 97.063 115.277 97.5597 117.682 97.9834C117.634 100.695 119.121 100.997 121.122 102.427C123.618 103.609 123.237 106.277 124.066 108.459C124.357 109.682 126.268 109.919 126.165 110.524C124.708 112.784 122.194 114.279 119.553 114.717C119.092 114.159 118.47 113.926 117.785 113.743C102.118 112.172 89.0744 100.256 86.877 84.5943C85.8705 79.4741 84.4374 74.178 86.1176 69.0393C86.8183 67.232 84.7122 67.6897 85.3238 66.4549C86.3506 64.3821 88.7825 64.0225 90.3717 65.0252C90.5445 65.1342 90.7213 65.2397 90.7699 65.4605C90.7398 65.593 90.6312 65.7268 90.6609 65.8517C91.5667 68.7628 88.7775 70.5269 88.4071 73.2046C88.0322 74.5878 89.6327 75.3126 90.311 73.9974C90.939 73.0561 91.5263 72.0883 92.1671 71.1546C92.6853 70.8299 92.2843 67.7469 93.1611 68.858C93.2466 69.6247 93.7104 69.853 94.4204 69.7999C96.7046 69.7633 93.4123 71.9701 96.0599 72.9097C99.6054 75.3943 131.184 74.4345 129.443 68.2155C129.855 65.5019 132.418 66.2915 132.085 63.8985C131.766 57.8683 128.177 53.1038 123.859 49.1788C122.063 48.423 120.275 51.6859 117.967 50.8105C117.009 50.6046 116.026 50.6127 115.138 51.1319L114.783 50.033C117.062 49.138 117.857 47.0133 119.284 45.3074C121.682 42.1214 124.231 40.4572 128.296 40.3048C128.873 40.2494 130.021 39.7286 129.912 40.7321C129.213 44.2358 125.49 45.5409 128.68 49.3159C133.383 55.4998 139.255 61.3037 141.121 69.0819C141.957 74.3756 145.003 71.8213 142.6 75.5533C142.051 76.4045 141.375 77.1685 140.589 77.8081Z" fill="#272F77"/>
<path d="M85.3005 67.1458C86.429 67.0751 86.7839 67.8144 86.471 68.8048C85.7974 70.7956 85.6982 72.892 85.5323 74.9742C86.3028 81.1338 87.3705 87.4185 89.6569 93.2449C93.5992 101.813 100.943 109.199 110.189 111.814C112.017 112.62 119.467 112.792 119.552 114.717C113.093 116.646 106.164 114.225 100.466 111.124C90.3236 104.851 83.6071 89.2366 83.4043 77.6396C83.6412 74.3292 82.7344 69.4881 85.3005 67.1458Z" fill="#2D399D"/>
<path d="M110.622 96.1154C107.11 97.7961 102.492 94.8241 100.085 92.1593C98.9532 91.9823 95.9606 93.6245 96.3036 91.3443C98.1263 79.2251 121.084 82.3216 130.884 79.5619C133.551 78.8107 135.992 77.6819 138.623 77.166C138.999 77.0922 139.396 77.1521 139.719 77.3586C141.686 78.6157 134.239 80.9927 134.239 80.9927C128.712 82.9846 124.508 83.8432 119.489 84.5251C109.72 85.7658 92.7008 87.2512 110.622 96.1154Z" fill="#1B273F"/>
<path d="M126.164 110.524C125.946 110.284 125.648 110.208 125.352 110.114C124.731 109.919 124.304 109.505 124.001 108.929C123.566 108.1 123.297 107.243 123.258 106.296C123.198 104.844 122.572 103.67 121.323 102.875C120.429 102.306 119.544 101.727 118.719 101.06C118.533 100.91 118.338 100.77 118.161 100.61C117.515 100.025 117.268 99.3357 117.601 98.4873C117.662 98.3327 117.656 98.152 117.681 97.9834C119.574 98.1621 121.421 98.5604 123.181 99.2762C124.981 100.008 126.248 101.329 127.1 103.054C127.502 103.868 127.657 104.738 127.692 105.641C127.761 107.452 127.333 109.101 126.164 110.524Z" fill="#2D399D"/>
<path d="M127.484 47.1826C125.818 45.5885 129.561 42.0297 129.918 40.6001C130.966 42.9411 129.089 45.558 127.484 47.1826Z" fill="#1E2A42"/>
<path d="M135.306 28.998L135.526 29.0042C135.524 29.0728 135.534 29.144 135.518 29.2094C135.231 30.423 135.39 31.6422 135.526 32.8507C135.621 33.6868 135.801 34.5093 136.009 35.3249C136.195 36.0568 135.926 36.6433 135.577 37.2273C135.433 37.4677 135.176 37.5783 134.908 37.6789C134.196 37.9467 133.455 38.1133 132.712 38.2204C130.365 38.5587 128.067 39.1337 125.748 39.6046C124.64 39.8297 123.516 40.0952 122.413 40.347C122.203 40.2835 122.111 40.1324 122.012 39.9534C121.894 39.7252 121.847 39.4842 121.885 39.2291C121.951 37.7007 121.233 36.3142 121.109 34.8196C121.048 35.2048 121.32 35.7663 121.074 36.137C120.704 36.1396 120.703 36.2457 120.658 36.4997C120.526 37.2532 120.136 37.8361 119.452 38.199C119.147 38.3608 118.468 39.2892 118.197 38.8796C117.963 37.8972 118.09 36.1757 118.23 35.1893C118.439 34.7691 119.099 34.4299 119.198 33.9457C119.814 33.4439 120.923 32.9004 121.241 32.6354C121.342 32.5516 121.499 32.4777 121.603 32.6885C121.603 32.6894 121.604 32.6899 121.605 32.6906L121.606 32.6966C121.463 32.9752 121.295 33.2739 121.496 33.5682C121.679 33.8365 121.993 33.9048 122.316 33.9302C123.186 33.9988 124.041 33.862 124.862 33.6253C127.451 32.8791 130.02 32.0653 132.534 31.0906C132.778 30.9961 133.027 30.9165 133.278 30.8434C134.258 30.5578 135.021 30.0396 135.306 28.998Z" fill="#947EC6"/>
<path d="M122.197 39.9059C122.277 40.0557 122.346 40.2231 122.426 40.373C122.425 40.4274 122.423 40.4816 122.421 40.5358C121.555 41.3218 120.564 41.9462 119.626 42.6368C118.365 43.565 117.229 44.594 116.414 45.9466C116.239 46.2383 116.055 46.538 115.723 46.695C114.022 47.1085 112.607 46.6929 111.555 45.2526C110.896 44.3501 110.036 43.4715 109.671 42.3782C110.122 41.7618 109.485 33.1812 109.722 33.1558C109.943 33.3146 114.031 35.5035 117.467 37.3517C117.852 37.5586 117.705 38.7883 118.067 38.9833C119.997 40.0228 122.051 39.8018 122.197 39.9059Z" fill="#847058"/>
<path d="M115.765 46.5395C116.789 44.5134 118.481 43.0432 120.342 41.7901C121.018 41.3416 121.603 40.5425 122.413 40.3472C122.94 40.962 123.324 41.192 124.056 41.2149C123.815 41.6448 123.091 41.9322 122.704 42.1981C121.555 43.0792 120.527 44.1059 119.667 45.2596C118.554 46.4146 116.462 50.4487 114.783 50.0329C114.286 48.9589 114.683 47.5457 115.765 46.5395Z" fill="#2D399D"/>
<path d="M119.374 34.0169C114.416 37.0073 114.268 33.2387 114.104 32.0053C114.147 31.1901 119.31 29.3504 119.745 28.7627C119.79 28.7946 120.122 29.5118 120.122 29.5118C120.767 30.7462 121.241 32.6355 121.241 32.6355C121.241 32.6355 120.904 32.9515 120.989 33.5756L119.374 34.0169Z" fill="#847059"/>
<path d="M93.2379 104.151C95.0095 106.515 97.9422 109.012 100.195 110.957C97.0743 111.561 93.1224 110.555 89.9859 111.124C88.3247 111.437 86.8166 110.663 85.1322 110.622C84.7586 110.562 83.8198 110.492 84.0068 109.945C84.7773 109.266 84.6331 108.162 85.0447 107.317C87.3541 104.518 84.3455 94.8408 86.2412 97.0973C88.3343 99.6167 90.5968 102.183 93.2379 104.151Z" fill="#85A2C1"/>
<path d="M57.6358 104.026C56.7361 109.856 62.0168 112.769 67.0782 112.615C68.6603 111.048 70.0394 110.696 72.4488 113.09C72.8281 113.391 73.1104 113.789 72.9099 114.284C72.8222 115.203 73.3398 117.411 72.6171 117.992C71.8088 118.563 71.4048 117.073 71.4451 116.483C71.4685 115.988 71.3466 115.531 71.1956 115.073C71.0177 114.204 69.373 113.264 68.635 113.87C67.7822 114.66 67.1657 115.842 67.0218 117.012C67.0196 117.134 66.9565 117.26 66.8391 117.367C66.7709 117.429 66.668 117.429 66.5986 117.369C65.8236 116.69 66.7582 114.74 65.7949 114.698C63.4822 114.555 61.2897 113.727 59.1551 112.894C57.4487 112.06 55.6709 111.043 54.6497 109.399C53.6366 108.008 51.4898 106.528 52.4007 104.588C53.0034 103.695 54.1858 104.003 55.0271 104.382C55.8764 104.821 56.771 103.988 57.6358 104.026Z" fill="#2D399D"/>
<path d="M72.246 89.7152C70.3508 89.6589 68.6701 90.2563 67.1215 91.3215C64.867 92.8722 62.8342 94.6734 61.1312 96.801C59.6203 98.6886 58.4777 100.801 57.876 103.17C57.8254 103.369 57.7732 103.649 57.7148 103.846C57.7148 103.846 57.7008 103.947 57.636 104.026C57.5238 104.163 57.2479 104.117 57.1382 104.012C56.8518 103.736 56.7205 103.39 56.7135 102.994C56.6848 101.364 56.8914 99.7994 57.6544 98.3087C58.316 97.016 59.0729 95.7941 59.9638 94.6573C60.5346 93.9289 61.1731 93.2502 61.8134 92.5797C62.5751 91.7821 63.3631 91.0089 64.1544 90.2402C65.4396 88.9916 66.8311 87.868 68.3525 86.9207C69.4395 86.2439 70.6317 85.7482 71.9095 85.6134C72.854 85.5137 73.7718 85.816 74.4867 86.4633C75.2742 87.1761 75.1024 88.4865 74.185 89.0396C73.5915 89.3974 72.944 89.6373 72.246 89.7152Z" fill="#1B273F"/>
<path d="M72.9836 114.501C72.6093 114.438 72.269 113.339 72.0676 113.058C71.4255 112.161 70.4407 111.836 69.4386 111.634C68.9466 111.535 68.432 111.777 68.0542 112.168C67.7854 112.446 67.5065 112.688 67.0786 112.615C66.9959 112.357 66.8152 111.937 66.7324 111.68C66.8344 110.687 67.5068 110.135 68.2367 109.528C68.7368 109.112 69.2794 108.748 69.7916 108.346C71.3929 107.09 73.2122 106.379 75.2071 105.973C76.8388 105.641 78.3342 105.965 79.8434 106.473C80.4666 106.683 81.0497 106.975 81.634 107.268C82.3789 107.642 83.0283 108.136 83.6178 108.727C83.9624 109.073 84.2196 109.281 84.1659 109.759C84.1481 109.822 84.0486 110.044 84.0354 110.108C83.0234 110.271 82.1559 109.775 81.2979 109.41C79.3782 108.593 77.7781 108.879 76.3673 110.432C75.5389 111.344 74.6311 112.185 73.7509 113.05C73.4859 113.31 73.3968 114.449 72.9836 114.501Z" fill="#1B273F"/>
<path d="M93.2384 104.151C90.081 102.601 88.1254 99.4024 85.7317 96.9298C84.4516 95.6824 85.0527 93.8996 84.4177 92.4258C82.892 87.88 81.4154 83.3212 79.7792 78.8088C78.5316 75.3681 79.7237 74.17 79.7239 74.17C81.1007 74.6328 83.5189 73.5138 83.4192 74.2431C82.6301 80.0197 82.8832 85.3427 85.7802 89.4253C87.6016 94.6235 89.9099 99.7307 93.2384 104.151Z" fill="#C9DEF1"/>
<path d="M72.6165 117.992C72.7464 116.867 72.7778 115.743 72.5589 114.626C72.5149 114.401 72.5916 114.225 72.7064 114.051C73.847 114.385 73.7602 116.55 74.1094 117.508C74.3768 118.422 74.8613 118.643 75.749 118.295C76.4291 118.028 76.8264 117.464 77.2197 116.899C77.9476 115.854 78.7352 114.888 79.8086 114.14C81.2354 113.145 82.8602 113.059 84.4576 113.088C86.2474 113.121 88.0274 113.27 89.7977 112.897C90.0459 112.845 90.2756 112.879 90.4861 113.024C90.6949 113.149 90.7362 113.352 90.6955 113.562C90.4615 115.006 88.2283 114.942 87.0811 115.099C85.9757 115.092 84.8704 115.101 83.7651 115.095C80.8399 115.034 79.7943 118.893 78.2016 120.793C76.8983 122.545 74.5291 123.057 72.4413 122.955C71.9874 122.818 71.8247 122.453 71.7884 122.049C71.7596 121.729 71.8189 121.405 71.9502 121.111C72.3966 120.112 72.4715 119.079 72.6165 117.992Z" fill="#847058"/>
<path d="M66.3022 110.529C65.2488 107.161 66.7287 103.008 69.0829 100.53C71.3396 98.0654 74.7793 95.8774 74.7683 92.1736C76.3551 89.1478 77.6024 92.0437 77.1904 94.0452C76.8613 95.8066 75.9501 97.2741 74.8149 98.6481C72.7262 101.095 70.3598 103.31 68.5438 105.982C67.9154 106.932 66.9426 107.815 67.0762 109.058C67.1126 110.428 66.2276 109.309 66.3022 110.529Z" fill="#2D399D"/>
<path d="M84.7141 93.6162C86.3345 98.4187 87.3173 104.22 84.621 108.849C84.1073 108.462 83.5283 107.923 83.9824 106.571C84.4935 104.605 84.3233 103.56 84.2885 101.541C84.1272 99.9946 84.1234 98.4075 83.7596 96.8775C83.7248 95.9704 83.2825 94.4723 84.0634 93.8698C84.2842 93.7942 84.5563 93.8514 84.7141 93.6162Z" fill="#2D399D"/>
<path d="M108.036 24.9886C107.342 26.7017 87.4897 35.8392 80.5669 32.7588C80.3174 32.6478 80.3685 32.2812 80.6393 32.2456C86.9709 31.4116 93.6125 30.0133 99.8387 27.2837C100.058 27.1877 108.857 22.802 108.036 24.9886Z" fill="#404040"/>
<path d="M85.5109 63.9448C85.5201 63.4407 85.537 62.6368 85.537 62.6368C82.8619 61.191 80.077 59.681 77.7399 57.6573C76.5184 57.33 77.6543 60.2519 77.8928 60.8396C79.3726 63.8579 81.8063 66.2074 85.0518 67.1257C85.1028 67.1401 85.1556 67.1485 85.2086 67.1494C85.2431 67.15 85.277 67.1488 85.3002 67.1459C85.3728 66.9589 85.5195 66.546 85.4594 66.3541C85.4015 66.1693 85.5072 64.1476 85.5109 63.9448Z" fill="#847058"/>
<path d="M85.7801 89.4254C85.6786 90.3875 84.7118 88.3158 84.5213 88.0763C82.5534 84.7064 79.6931 77.2862 83.4191 74.2432C83.5224 75.2952 83.4044 77.6405 83.4044 77.6405C83.5939 81.6737 84.8016 85.5341 85.7801 89.4254Z" fill="#E5F2FE"/>
<path d="M67.9912 43.5152C68.1341 43.1781 70.1087 42.1464 70.3963 41.9538C71.2776 41.3639 71.8591 41.15 72.7067 40.514C73.6422 39.8121 75.7884 35.8907 76.5399 35.0049C76.9752 34.4917 77.9974 34.359 77.8738 34.7137C77.2107 36.6163 76.6641 39.2669 73.1843 42.9239C72.9023 43.2204 72.5557 43.459 72.2186 43.6955C71.8735 43.9378 71.5073 43.9547 71.1787 43.6494C70.6644 43.1716 68.6982 43.0477 67.9912 43.5152Z" fill="#010101"/>
<path d="M90.7002 113.32C87.9086 114.147 84.8188 113.117 82.0057 113.498C79.898 113.923 78.4216 115.496 77.313 117.24C77.1308 117.488 76.9206 117.716 76.7494 117.971C76.2246 118.7 74.4628 119.268 74.0433 118.208C73.485 116.859 73.6731 115.241 72.707 114.051C73.5688 112.412 75.2404 111.273 76.4957 109.921C78.7212 107.485 81.499 109.32 84.0355 110.109C84.9914 110.373 85.9694 110.491 86.9569 110.55C87.2569 110.567 88.0957 110.517 88.3421 110.776C86.4923 111.926 80.8616 109.043 78.3906 112.258C78.3791 112.359 78.4263 112.388 78.5105 112.322C79.804 111.305 81.2367 111.192 82.8161 111.498C85.1476 111.949 87.5066 112.254 89.8606 112.576C90.1418 112.625 90.7002 112.874 90.7002 113.32Z" fill="#BEA589"/>
<path d="M89.2579 112.494C87.9329 112.526 87.2666 112.501 85.9721 112.283C84.994 112.118 84.0068 111.999 83.0292 111.811C82.3921 111.688 81.7356 111.665 81.0875 111.6C80.5522 111.546 80.0779 111.681 79.6269 111.988C79.1171 112.336 78.5719 112.631 78.0387 112.944C77.9481 112.997 77.8216 113.011 77.7681 112.905C77.7296 112.829 77.7215 112.697 77.7629 112.627C78.3597 111.616 79.1468 110.808 80.3533 110.605C81.2978 110.446 82.201 110.61 83.1717 110.712C83.8653 110.715 85.5598 110.965 85.5598 110.965C86.3943 111.043 87.9633 110.991 88.3419 110.776C88.5662 110.859 88.8587 111.382 88.9527 111.512C89.0919 111.705 89.2929 112.379 89.2579 112.494Z" fill="#857058"/>
<path d="M95.0094 69.9353C95.0094 69.9353 95.9761 69.8653 96.3166 69.8569C97.698 69.8227 99.0678 69.9214 100.448 69.8561C103.835 69.6956 107.218 69.8456 110.601 69.9682C111.568 70.0032 112.534 69.9979 113.501 69.9644C114.536 69.9286 115.574 69.9354 116.609 69.9752C118.753 70.0575 120.894 69.9952 123.03 69.8342C124.758 69.704 129.153 68.2867 129.442 68.2153C129.554 68.2936 129.724 68.2128 129.835 68.2926C130.092 68.4774 130.169 68.744 130.075 69.0218C129.988 69.2768 129.867 69.5388 129.695 69.743C128.955 70.6236 128.071 71.2976 126.975 71.7193C125.783 72.1777 124.544 72.448 123.312 72.7402C122.115 73.0241 115.043 73.8881 113.966 74.0416C112.932 74.1889 108.591 74.3976 107.701 74.4033C105.563 74.4171 103.422 74.4727 101.288 74.388C99.3636 74.3116 97.4668 73.9845 95.7212 73.0844C95.4757 72.9578 95.2345 72.8307 95.0405 72.6257C94.3199 71.8639 94.3637 71.5148 94.8581 70.6138C94.9716 70.407 94.866 70.1258 95.0094 69.9353Z" fill="#2D399D"/>
<path d="M130.535 66.2974C130.374 65.9445 130.38 65.4416 130.376 65.0581C130.38 60.93 127.21 57.7242 124.927 54.5607C124.342 53.9921 122.66 51.1895 121.895 51.5694C119.8 52.3162 116.423 53.8339 115.138 51.1318C116.012 49.3921 119.013 51.5793 120.593 50.0974C121.213 49.6898 123.645 47.9536 124.119 48.9554C124.353 49.5323 124.851 49.8398 125.251 50.247C125.951 50.9589 126.667 51.6551 127.37 52.3649C128.841 53.8513 129.901 55.6042 130.716 57.5142C131.61 59.397 132.069 61.3748 132.283 63.4344C132.634 64.5988 132.116 66.6871 130.535 66.2974Z" fill="#1B273F"/>
<path d="M90.4492 65.105C92.535 66.2825 94.0944 69.2701 92.6327 71.3664C91.8429 72.3576 91.0869 73.4513 90.2456 74.4002C89.5769 75.0292 88.6775 74.8058 88.3564 73.9425C87.9378 72.1731 89.1535 70.3805 90.1113 68.9791C90.7415 68.1145 90.8633 67.0047 90.468 66.0174C90.3022 65.6869 89.937 65.1997 90.4492 65.105Z" fill="#1B273F"/>
<path d="M117.556 40.7364C117.556 40.7364 118.143 39.5206 118.312 38.8405C119.449 38.5292 120.568 37.1926 120.723 35.1439C120.734 34.9996 120.933 35.0074 120.981 35.1439C121.286 36.009 121.889 38.391 122.029 39.2959C122.085 39.4993 122.141 39.7026 122.197 39.9059C121.294 40.0888 117.556 40.7364 117.556 40.7364Z" fill="#463175"/>
<path d="M122.029 39.2959C121.595 38.5131 121.348 37.6701 121.143 36.8135C121.008 36.2469 120.911 35.6718 120.85 35.0926C120.815 34.7683 120.789 34.4504 120.799 34.3098C120.805 34.2233 120.863 34.0963 120.932 34.0669C121.112 33.9893 121.163 34.1541 121.2 34.2779C121.329 34.7014 121.942 37.4205 122.16 38.3474C122.236 38.6749 122.355 39.0188 122.029 39.2959Z" fill="#B7A6DD"/>
<path d="M115.909 34.8919L119.375 34.0171C119.374 34.7468 119.272 34.9074 118.793 35.1089C118.709 35.1443 118.505 35.2398 118.413 35.2438C117.852 35.2683 115.837 35.2615 115.909 34.8919Z" fill="#B9A8D8"/>
<path d="M110.805 40.8846C111.095 41.1823 112.018 41.8917 112.018 41.8917C112.018 41.8917 104.298 43.5306 101.536 44.0948C100.493 44.025 99.1743 42.0699 99.5498 41.1258C99.7428 40.6404 100.068 40.4999 100.509 40.8743C100.588 40.9418 100.666 41.0188 100.706 41.1107C101.464 42.8372 102.85 42.6851 104.295 42.2824C106.023 41.801 107.744 41.2992 109.492 40.8934C109.931 40.7913 110.366 40.6724 110.805 40.8846Z" fill="#463176"/>
<path d="M116.383 39.0336C116.467 39.4484 116.792 40.4524 116.876 40.8674C116.876 40.8674 115.811 41.0779 115.651 41.1361C115.564 40.5265 115.781 39.9167 115.817 39.3069C116.011 39.1283 116.18 38.8746 116.383 39.0336Z" fill="#4D3875"/>
<path d="M110.805 40.885C109.335 41.2482 107.863 41.6027 106.396 41.9781C105.529 42.2 104.666 42.4394 103.81 42.7006C103.266 42.8668 102.718 42.8561 102.17 42.8026C101.587 42.7459 101.127 42.4714 100.846 41.9373C100.67 41.6036 100.496 41.2678 100.299 40.9465C100.174 40.7416 99.9346 40.8036 99.8106 41.0139C99.6041 41.364 99.7529 41.7031 99.8538 42.0108C100.103 42.7714 100.572 43.4094 101.154 43.958C101.244 44.0431 101.407 44.0514 101.536 44.0952C101.381 44.4582 101.203 44.8045 100.853 45.0265C100.105 44.4985 99.18 44.1941 98.6757 43.3584C98.4574 42.9968 98.0753 42.6513 98.4159 42.1612C98.8729 41.971 98.9601 41.5903 98.9588 41.1494C98.9566 40.3751 99.2454 39.6682 99.5175 38.9633C99.6055 38.7353 99.6467 38.3905 100.049 38.4689C100.452 38.6393 100.795 38.9943 101.294 38.8724C101.911 39.2846 102.583 39.2533 103.273 39.1279C104.656 38.8769 106.025 38.57 107.373 38.1688C107.756 38.0547 108.147 37.8575 108.568 38.0502C108.718 38.1833 110.21 40.0732 110.805 40.885Z" fill="#947EC6"/>
<path d="M108.568 38.05C107.421 38.514 106.216 38.7805 105.02 39.0769C104.523 39.2 102.423 39.5071 101.876 39.5047C101.418 39.5027 101.403 39.4664 101.294 38.8722C101.931 38.5298 102.653 38.4685 103.334 38.2732C104.645 37.8974 105.965 37.557 107.281 37.2012C107.489 37.145 107.643 37.0154 107.76 36.8389C108.024 37.2464 108.27 37.5829 108.568 38.05Z" fill="#BFAEE1"/>
<path d="M100.048 38.4688C99.5052 39.4911 99.1042 39.9766 98.9584 41.1493C98.8482 42.036 99.5562 43.4636 98.3669 42.2388C98.1128 41.977 97.8651 41.8667 97.7709 41.5308C97.0954 40.161 98.1203 38.3736 99.5962 38.2945C99.7729 38.2774 99.9324 38.3215 100.048 38.4688Z" fill="#BEADE1"/>
<path d="M100.597 44.5188C100.387 44.4104 100.169 44.3147 99.9648 44.1969C99.3271 43.8297 98.4736 42.4318 98.125 41.8358C98.0113 41.6415 97.9334 41.429 97.8943 41.2075C97.8402 40.9013 97.7889 40.5943 97.5688 40.342L97.5701 40.3369C97.3772 40.7432 97.4229 42.2062 97.6164 42.547C97.6463 42.7962 98.4862 44.2704 99.0761 44.777C99.6148 45.2396 100.189 45.4498 100.853 45.0266C100.861 44.8108 100.805 44.6259 100.597 44.5188Z" fill="#4B377A"/>
<path d="M116.223 27.1145C115.528 27.3776 115.137 27.879 114.57 28.3599C113.65 28.6799 112.733 28.4408 112.076 29.3854C111.755 29.9531 111.458 30.3935 110.787 30.5718C109.205 30.4949 109.234 32.264 108.149 32.9381C106.976 34.0298 106.649 35.5746 107.76 36.8393C110.538 41.3534 112.414 43.0098 112.551 41.8777C112.55 41.8764 112.55 41.8753 112.55 41.8738C112.568 41.577 112.401 41.1205 112.324 40.9327C111.955 40.034 111.471 39.1899 111.057 38.3125C110.724 37.6057 110.309 36.9244 110.105 36.1705C110.071 36.0447 110.043 35.8743 110.026 35.7497C110.017 35.6801 110.098 35.6363 110.153 35.6798C110.423 35.8924 110.584 36.2394 110.755 36.5255C111.644 38.007 112.016 39.757 112.719 41.3297C112.721 41.3323 112.721 41.335 112.722 41.3376L112.768 41.4323C113.628 42.9415 114.061 42.9926 113.903 40.9941C113.903 40.9941 113.903 40.9941 113.903 40.9941C113.902 40.9865 113.901 40.9785 113.901 40.9709C113.889 40.8209 113.873 40.6594 113.855 40.4863C113.718 39.3067 113.397 37.9213 113.1 36.7727C113.008 36.4193 112.941 36.0606 112.901 35.6979C112.885 35.5565 112.872 35.425 112.868 35.3504C112.866 35.3138 112.913 35.2966 112.935 35.3255C113.202 35.6676 113.31 36.19 113.394 36.5742C113.667 37.8241 114.113 40.0687 114.357 41.3258C114.733 43.3968 116.048 42.4415 115.817 39.3069C115.806 39.161 116.373 39.028 116.399 39.1719C116.76 41.1868 117.345 42.4503 117.964 41.0755C118.141 40.6818 118.237 40.2569 118.262 39.8262C118.337 38.5442 118.382 36.874 118.408 35.6782C118.424 34.9095 118.404 34.1405 118.337 33.3746C118.243 32.2965 118.242 30.4306 119.284 29.9924C119.42 29.9352 119.549 29.8595 119.652 29.7538C120.771 28.6011 117.469 26.6987 116.223 27.1145ZM115.506 34.9695C115.506 34.9695 115.116 33.2041 115.022 32.7022C114.973 32.4358 114.978 32.1574 114.979 31.8845C114.98 31.8 115.028 31.6748 115.092 31.6406C115.204 31.5811 115.289 31.6949 115.321 31.786C115.48 32.2372 115.607 32.603 115.718 33.202C115.845 33.8337 115.908 34.8917 115.908 34.8917C115.846 34.9874 115.595 35.0423 115.506 34.9695Z" fill="#BFA489"/>
<path d="M116.399 39.1721C116.191 39.1775 115.817 39.307 115.817 39.307C115.74 38.2635 115.508 37.2304 115.604 36.1751L116.063 36.0005L116.301 38.3433L116.399 39.1721Z" fill="#947EBD"/>
<path d="M116.064 36.0001C115.929 36.0585 115.739 36.1169 115.604 36.175C115.595 35.7706 115.516 35.3734 115.507 34.9694C115.582 34.9582 115.833 34.9031 115.909 34.8916C115.909 34.8916 116.035 35.6353 116.064 36.0001Z" fill="#B7A5CF"/>
<path d="M162.074 22.3145C162.688 25.941 148.919 26.9296 142.439 28.8279C140.632 29.0934 137.244 30.1238 136.511 27.7668C136.51 27.7493 136.548 27.6905 136.548 27.6905C138.242 26.9253 162.074 22.3145 162.074 22.3145Z" fill="#BFAEE2"/>
<path d="M164.776 22.259C163.193 23.9153 163.472 26.2825 163.514 28.3865C163.564 30.9216 161.972 29.1397 162.111 27.7797C161.902 25.8148 161.805 21.3403 164.776 22.259Z" fill="#BEADE2"/>
<path d="M168.03 26.989C168.55 30.5595 167.303 32.6939 166.963 27.6596C166.738 26.2587 166.132 24.5755 165.382 23.3377C164.898 22.6514 165.245 22.2851 165.872 22.7181C167.462 23.5726 167.676 25.445 168.03 26.989Z" fill="#BFAEE2"/>
<path d="M137.922 38.7629L137.653 38.318C136.957 36.5808 136.306 34.811 136.068 32.9444C135.905 31.6778 135.849 30.3852 136.002 29.1178C136.014 28.9826 136.337 27.7861 136.547 27.6901C136.604 27.6965 136.684 27.7769 136.686 27.8491C136.713 29.0536 138.605 29.1341 139.509 29.0618C142.553 28.8114 145.494 27.9527 148.472 27.3201C153.035 26.0188 158.153 25.7888 161.94 22.6543C162.091 22.8326 162.007 23.0262 161.962 23.2075C161.753 24.0549 161.625 24.9157 161.543 25.7823C161.426 27.0365 161.769 28.1938 162.33 29.3018C162.455 29.5483 162.551 29.4249 162.661 29.3023C162.779 29.6673 163.264 29.598 163.341 29.1876C163.56 29.3902 163.557 29.6756 163.616 29.9352C163.854 30.996 164.12 32.0497 164.622 33.022C165.906 35.6263 167.716 32.1954 167.404 30.6431C167.395 30.5452 167.344 30.3237 167.407 30.2378C167.52 30.3061 167.673 30.4729 167.772 30.4323C167.943 30.3615 168.029 30.0214 168.029 30.0214C168.029 30.0214 167.779 31.9335 167.549 32.5632C167.325 33.1755 167.122 33.6047 166.952 33.9046C166.694 34.3569 166.25 34.6769 165.737 34.7681C165.548 34.8016 165.356 34.8156 165.216 34.7778C164.303 34.1899 163.683 33.3566 163.204 32.403C163.136 32.2674 163.094 32.061 162.93 32.0516C162.703 32.0385 162.699 32.2831 162.643 32.4342C161.719 34.4248 158.85 34.6303 156.983 35.2829C151.285 36.8195 145.574 38.43 139.683 39.0157C138.02 39.2656 138.439 38.8879 137.922 38.7629Z" fill="#947EC6"/>
<path d="M162.717 29.4506C162.733 29.5297 162.668 29.6373 162.591 29.6864C162.484 29.7547 162.296 29.607 162.264 29.5394C161.936 28.8567 161.618 28.1698 161.484 27.4169C161.395 26.9193 161.33 26.0101 161.33 26.0101C161.277 24.8338 161.931 22.7115 161.941 22.6543C161.999 22.5464 162.072 22.444 162.074 22.3141C162.271 22.2421 163.856 22.145 163.856 22.145C163.24 22.5835 162.931 22.5807 162.47 24.0027C162.284 24.8859 162.158 26.0904 162.198 26.9817C162.247 28.4118 162.697 29.3568 162.717 29.4506Z" fill="#463176"/>
<path d="M167.553 30.3449C167.61 30.4424 167.595 31.141 167.533 31.5328C167.484 31.8373 167.401 32.1378 167.312 32.434C167.165 32.9251 167.036 33.4164 166.691 33.7899C166.691 33.7899 166.475 34.0056 166.373 34.0772C166.011 34.3321 165.455 34.2586 165.124 33.9653C165.108 33.9512 165.092 33.9367 165.077 33.9216C164.755 33.5973 164.521 33.2245 164.346 32.8117C163.853 31.6478 163.518 30.4394 163.342 29.1877C163.404 28.5867 163.366 27.988 163.304 27.3894C163.284 27.1971 163.26 27.0031 163.265 26.8107C163.283 26.2105 163.289 25.6084 163.347 25.0115C163.418 24.2712 163.654 23.5734 164.036 22.9314C164.214 22.6322 164.481 22.4492 164.776 22.2588C164.776 22.2588 165.322 22.3726 165.59 22.5681C165.355 22.4979 165.286 22.7289 165.316 22.8018C165.368 22.9295 165.459 23.0294 165.565 23.118C166.172 23.6273 166.654 24.5756 166.852 25.244C167.168 26.308 167.135 27.4166 167.217 28.524C167.251 28.9883 167.273 30.0566 167.553 30.3449Z" fill="#453075"/>
<path d="M137.923 38.7633C138.252 38.7981 138.58 38.8365 138.909 38.8668C139.517 38.9226 140.116 38.817 140.714 38.7388C141.775 38.6002 142.835 38.4511 143.891 38.2833C144.756 38.146 145.618 37.9947 146.47 37.7823C148.567 37.2593 150.666 36.7462 152.766 36.2346C155.095 35.6673 157.405 35.0337 159.692 34.3195C160.176 34.1684 160.659 34.0092 161.103 33.7581C161.323 33.6336 161.543 33.5075 161.75 33.3624C162.127 33.0972 162.398 32.7478 162.529 32.2996C162.556 32.2064 162.591 32.1154 162.62 32.0227C162.665 31.8774 162.675 31.6853 162.874 31.6798C163.065 31.6745 163.097 31.8704 163.172 31.9999C163.376 32.3536 163.577 32.709 163.776 33.0658C164.034 33.531 164.584 34.6596 165.526 34.8007C165.247 34.8675 162.456 35.3953 162.021 35.4852C160.711 35.7557 159.403 36.033 158.095 36.3104C158.002 36.3299 146.766 38.6915 145.008 39.0414C143.842 39.2735 142.671 39.4771 141.505 39.7048C141.24 39.7565 140.191 39.9769 139.931 40.0329C139.527 40.1198 139.151 40.1407 138.764 39.9095C138.557 39.7816 137.92 38.8014 137.923 38.7633Z" fill="#453075"/>
<path d="M141.138 33.8595C141.138 33.8595 139.589 33.8394 139.975 33.1577C140.053 33.02 140.279 32.8132 140.418 32.7365C141.416 32.1839 145.591 31.7611 148.201 31.1592C148.769 31.0595 151.587 30.5209 151.096 31.4972C151.039 31.6097 150.95 31.7028 150.842 31.7692C147.467 33.8596 141.138 33.8557 141.138 33.8595Z" fill="#BFAEE2"/>
</svg>
