<svg width="152" height="250" viewBox="0 0 152 250" fill="none" xmlns="http://www.w3.org/2000/svg">
<path d="M129.078 85.195C110.699 79.616 113.212 71.3614 113.451 68.1753C110.896 69.0257 108.215 55.8013 111.719 54.4484C108.195 49.3511 103.009 47.1074 96.8563 48.0198C91.1833 48.1429 83.907 47.7043 79.3183 44.1195C74.896 41.1887 46.028 25.8824 44.1279 25.508C39.9186 23.7803 33.585 23.5429 29.3472 25.2963C20.7497 28.292 13.2091 36.0437 9.23628 44.2994C0.775407 59.8419 -0.344976 78.1814 1.77078 96.3483C2.32396 103.363 2.47359 110.516 4.67377 117.002C7.733 126.306 14.4319 136.01 24.8789 138.955C29.135 134.423 41.3056 136.533 39.6497 138.452C49.7478 136.689 58.004 135.237 67.0912 140.754C73.4865 144.636 70.6349 146.087 75.0547 150.216C75.0547 150.216 88.9277 154.253 90.2803 166.546C90.2803 166.546 92.783 168.797 96.1101 171.117C106.933 178.943 116.728 173.112 121.2 161.822C123.539 155.984 122.991 149.2 122.65 142.822C120.466 128.344 133.183 120.12 137.37 107.915C141.141 98.567 138.752 88.1317 129.078 85.195Z" fill="#F1DFC5"/>
<path d="M88.5772 19.9258C84.9303 22.2717 78.5179 25.6802 77.1801 23.0735C77.0301 21.7762 72.8082 18.3289 74.8791 17.9535C79.9811 16.5381 99.8468 8.56892 96.4781 1.79824C96.1386 0.632982 97.515 2.31471 97.7556 2.58874C98.4037 3.32703 98.6717 4.50829 98.6717 4.50829C99.8119 9.34177 95.1029 13.6416 91.7801 17.2413C90.8318 18.2686 89.7542 19.1687 88.5772 19.9258Z" fill="black"/>
<path d="M70.4367 237.855C77.1252 197.352 77.2736 154.918 71.5851 114.335C69.5058 111.125 63.5347 119.046 62.4336 117.876C66.4499 111.902 73.2684 108.735 75.7144 111.274C88.2873 124.321 80.2973 231.748 75.1749 238.022C75.1749 238.022 71.7558 239.67 70.9972 239.67L71.0138 239.657C70.2095 239.61 70.127 239.26 70.4389 237.842L70.4367 237.855Z" fill="#B06A1D"/>
<path d="M83.5778 98.0474C86.5018 123.583 94.1561 199.787 94.4465 200.454L95.0632 206.025C95.3752 208.614 97.1402 226.059 97.1402 226.059C97.1676 226.977 97.6713 227.969 96.7201 228.735L96.7289 228.729C96.4028 228.904 94.0216 229.753 94.0216 229.753C88.3449 199.771 87.2139 167.605 83.4 136.857C83.8234 124.562 76.8072 109.407 83.5778 98.0474Z" fill="#FCCA95"/>
<path d="M93.6368 231.01C93.7138 231.39 94.0653 232.344 93.8914 232.691C91.9502 236.569 91.9118 235.051 93.9652 236.03C97.2638 242.094 106.09 235.611 114.643 242.634C114.637 243.1 114.572 243.996 114.576 244.062C110.772 247.242 84.5189 249.735 83.5832 243.22C83.9669 241.23 82.596 238.181 84.7863 237.047C88.0831 235.565 90.979 233.103 93.6368 231.01Z" fill="#C9DEF1"/>
<path d="M93.6364 231.01C93.4062 232.874 86.321 236.529 84.4799 237.531C83.3362 238.01 84.0413 241.71 83.9035 243.278C83.8715 243.642 83.9601 244.009 84.1701 244.308C84.9585 245.43 86.9871 245.806 88.153 246.276C91.8258 247.392 95.6587 246.967 99.4332 246.905C104.47 246.605 109.793 245.778 114.576 244.063C114.576 244.063 113.825 247.119 112.886 248.358C112.886 248.358 112.021 249.414 111.436 249.798L111.448 249.791C111.285 250.002 94.4501 249.295 86.3247 249.796C84.4254 249.972 78.9294 249.632 78.699 249.376L78.7137 249.388C78.625 249.332 78.5521 249.259 78.4956 249.171L78.5086 249.187C78.2116 248.801 78.0719 240.571 77.8525 236.949C82.0097 234.161 87.3664 232.589 92.0118 230.38C92.7244 230.065 93.4261 229.823 93.6197 230.812L93.6184 230.81C93.6197 230.812 93.6364 231.01 93.6364 231.01Z" fill="#85A2C1"/>
<path d="M42.1631 28.7785C42.9194 27.1578 44.1679 24.6352 45.1587 23.285C45.8597 22.3297 47.0925 21.2864 47.2308 21.1895C47.2308 21.1895 46.5519 19.1055 46.7824 17.3992C46.992 15.8471 47.0901 15.1089 47.6474 13.7505C50.8278 4.08605 61.4385 -0.314481 71.4846 1.80496C77.0063 2.96991 80.2948 2.71181 82.7188 2.74645C83.9806 2.76448 85.1349 2.3893 85.1349 2.3893C84.25 4.50989 72.0644 3.02825 69.8421 3.3381C61.6035 1.87706 53.6612 7.90935 51.9189 15.9707C51.9277 19.933 55.2158 22.7694 49.4136 24.3961C47.1617 24.5061 42.9527 30.4444 42.1631 28.7785Z" fill="#404040"/>
<path d="M127.398 55.5415C127.21 57.7742 126.662 59.4881 126.475 59.9022L126.376 60.1609C125.393 61.082 123.004 51.9944 121.924 50.0749C121.92 50.0668 121.916 50.0588 121.913 50.0501C119.511 43.564 113.059 39.4483 110.463 33.2816C110.443 33.2341 110.442 33.1805 110.461 33.1326L111.719 31.2051C111.729 31.2304 112.692 32.14 112.711 32.1592C112.922 32.3685 114.074 33.6333 114.282 33.9931C114.289 34.0053 114.296 34.0158 114.306 34.0263C115.773 35.6521 122.175 43.1824 122.833 44.3222C122.835 44.3265 122.838 44.3303 122.841 44.3344C123.481 45.2469 124.17 46.3729 124.706 47.422C124.706 47.422 125.856 49.1085 127.039 52.998C127.319 53.9166 127.445 54.9868 127.398 55.5415Z" fill="#2D399D"/>
<path d="M114.642 242.634C105.584 236.318 96.1924 242.166 93.8213 235.98C98.5653 236.485 105.05 234.578 109.794 235.97C110.086 236.024 110.447 236.179 110.824 236.382C112.553 237.311 113.824 238.916 114.354 240.801C114.536 241.449 114.642 242.634 114.642 242.634Z" fill="#E6F2FE"/>
<path d="M118.465 15.0049C118.656 15.0778 119.16 14.8591 119.124 15.2736C118.877 18.1016 119.391 21.3738 120.535 23.9404C121.004 24.9942 105.117 29.1472 105.405 26.2377C108.161 24.1694 119.213 25.4647 118.606 21.2372C118.434 19.3461 117.068 16.4086 118.465 15.0049Z" fill="#463075"/>
<path d="M118.306 14.998C118.54 15.1497 118.332 15.451 118.338 15.6349C118.419 18.1112 99.6864 22.9485 104.606 18.6966C104.789 18.5381 118.306 14.998 118.306 14.998Z" fill="#BFAEE2"/>
<path d="M92.1671 236.278C91.5784 236.983 87.2558 238.994 87.9974 236.974C89.6192 235.807 91.4537 234.826 92.6594 233.181C94.7118 230.664 93.7465 234.13 93.0004 235.146V235.146C92.3697 235.923 92.5692 235.873 92.1671 236.278Z" fill="#E6F2FE"/>
<path d="M94.0215 229.752C87.7117 232.412 81.5631 235.563 75.1744 238.022C82.5067 197.172 81.4701 154.766 76.3059 113.784C76.1942 112.898 75.7398 112.079 75.0142 111.555C71.8545 109.274 66.3095 113.973 64.3567 116.592C62.2164 120.124 58.2965 122.317 55.3217 125.207C25.6251 139.264 21.7273 157.928 35.0973 180.711C36.5119 183.122 41.197 187.65 42.7773 190.212C43.7255 191.75 41.3957 191.308 42.6198 192.836L40.2223 194.245L36.8394 196.53L32.5716 197.993C22.9336 181.734 13.2809 160.381 22.7026 141.987L22.7022 141.988C24.2702 139.384 26.1329 136.879 29.2421 136.1C33.9668 133.623 37.7595 129.644 41.0997 125.555C43.283 123.121 43.6806 119.554 46.1353 117.429C49.5915 117.418 52.4585 115.96 55.0543 113.831C59.5771 111.329 63.4099 111.763 65.6486 105.968C66.5106 103.878 68.0768 103.227 70.0993 103.103C75.4938 102.89 73.4885 100.566 76.7873 99.3618C78.9542 98.6425 81.4919 98.2285 83.4348 97.4209C84.3789 100.808 82.0753 102.025 81.5933 105.171C81.2619 107.094 80.9367 109.139 81.0155 111.085C85.4584 150.603 88.7184 190.279 94.0215 229.752Z" fill="#EB9C47"/>
<path d="M55.3221 125.207L52.7228 126.197C51.7373 126.534 50.8039 127.006 49.9459 127.594C41.9711 133.068 33.9243 137.62 28.9294 146.362C21.7534 162.501 33.0059 180.129 42.6202 192.836C42.6202 192.836 46.6303 190.021 48.1793 188.617C49.7249 187.016 46.109 183.628 43.755 181.708C42.3291 180.545 41.0443 179.219 39.9468 177.744C33.3413 168.867 27.3969 157.028 33.0204 146.532C37.8541 138.453 53.2252 126.693 53.3597 126.59L55.3221 125.207Z" fill="#B06A1D"/>
<path d="M22.7027 141.987C13.9536 160.813 23.0464 181.35 32.5717 197.993C32.4327 198.425 32.8122 198.493 32.448 198.548C30.1234 198.759 24.8317 200.627 24.3749 197.007C23.0982 190.876 21.5264 184.791 20.1104 178.684C18.7583 173.636 18.3178 168.428 17.761 163.261C16.8348 155.688 17.556 148.007 22.7027 141.987Z" fill="#FCCA95"/>
<path d="M25.426 198.77C29.1172 199.717 32.6687 199.853 36.28 198.508C38.2898 197.834 38.4466 197.931 38.8933 199.993C40.0573 203.264 37.0982 204.263 34.5989 205.327C27.729 208.074 20.8447 210.909 13.7707 213.055C13.2506 212.218 11.6176 209.196 13.1791 208.923C17.5543 207.255 22.6672 204.453 23.9336 199.659C24.0334 198.924 24.8997 198.989 25.426 198.77Z" fill="#C9DEF1"/>
<path d="M13.7705 213.055C20.4382 210.255 27.5115 208.095 34.195 205.196C35.7474 204.382 38.6245 203.807 38.864 201.815C38.8908 201.592 38.8639 201.367 38.8095 201.149C38.5803 200.231 38.6613 198.171 37.6341 198.357C34.013 199.555 29.9228 200.985 26.3893 198.999C31.525 199.05 35.7989 196.591 40.2225 194.245C45.0968 206.44 45.0984 203.474 33.8841 208.499C28.6975 210.563 23.4098 212.333 18.0355 213.845C16.0668 214.358 14.3886 216.119 13.7705 213.055Z" fill="#85A2C1"/>
<path d="M24.4943 199.03C24.2138 203.46 19.1393 206.082 15.7711 208.209C14.8844 209.03 13.0748 209.045 12.5391 210.1C11.2933 203.513 19.2863 200.175 24.4943 199.03Z" fill="#E6F2FE"/>
<path d="M28.4873 91.3689C31.218 84.394 35.5814 78.111 39.5365 71.7649C45.5446 70.4057 45.2687 60.1877 53.0054 60.485C54.3475 61.1547 56.8242 62.8192 57.8225 60.8567C58.0315 59.7185 56.5879 59.2976 55.9058 58.6599C53.5748 57.2395 53.3157 53.2702 55.6811 51.9316C61.0706 54.5925 59.1814 51.288 63.4708 57.1544C64.1298 59.3685 61.5437 60.8739 62.4744 63.0147C64.2068 68.5487 66.8908 74.0868 67.8116 79.7446C65.9812 81.1881 67.5222 83.9116 67.4403 85.8673C68.241 88.2085 66.3613 93.5179 67.7878 94.5682C67.9287 95.1992 67.7644 95.6936 67.1478 95.9841C63.553 89.9617 53.0784 91.688 49.8754 97.8337C49.0234 96.7798 49.242 95.4907 49.5957 95.2496C51.0759 88.6399 60.9776 85.1802 59.7314 77.8357C59.0373 75.86 57.8968 79.4662 57.2644 77.6165C57.0108 76.4926 55.5423 76.5093 55.1254 75.7127C59.689 74.3728 56.9095 70.7387 53.4093 72.2475C48.752 74.0347 36.7453 84.8219 40.7331 89.7538C40.3623 92.1659 36.9652 89.4447 35.7705 90.6896C34.9084 93.8804 39.8201 97.4887 42.5763 98.7684C44.5529 99.5084 46.538 100.208 48.6521 100.439C49.9996 100.598 49.2179 102 49.7116 102.89C50.0354 100.624 52.5505 97.8748 54.2712 100.664C54.9946 101.772 54.274 103.479 55.7704 104.067C55.7605 105.283 55.8083 106.513 54.9847 107.547C53.2786 105.996 52.2676 104.116 49.4888 105.152C41.7932 103.181 30.6265 100.252 28.4873 91.3689Z" fill="#272F77"/>
<path d="M62.7238 60.1699C64.5163 55.9945 62.0668 51.4278 57.5454 51.2637C57.9791 47.7417 57.1651 44.5693 57.4795 40.8102C49.2764 46.1359 44.8738 27.3011 53.9856 29.2104C59.0962 29.5891 59.0463 20.7201 61.6332 18.1249C64.1874 18.2121 66.6801 18.8315 69.2527 18.8149C70.6911 18.791 72.8031 17.3742 74.5003 18.2583C85.0279 30.6585 82.9295 61.9719 60.6139 43.8565C60.5753 47.7849 63.6692 51.269 67.3277 52.5598C67.7079 52.6722 68.8846 52.9398 68.1373 53.3924C66.4151 54.3619 67.1616 66.7241 65.9607 62.7554C66.4336 58.8966 64.6067 61.7527 62.7238 60.1699Z" fill="#BEA589"/>
<path d="M94.4246 0.343238C91.2491 -0.495145 88.1987 1.70261 85.1352 2.38942C75.6298 5.94673 62.6639 -1.49399 55.5583 8.58333C46.6067 17.272 57.3744 21.274 49.631 24.036C47.4843 24.737 45.1068 26.1023 43.7577 27.9677C42.6128 29.5509 42.1634 28.7786 42.1634 28.7786C38.535 37.9485 48.975 36.3304 49.3068 32.6294C49.7521 27.6632 57.1517 28.9616 58.8987 23.9596C60.3345 22.9578 61.7459 18.7757 61.7562 18.1286C61.7562 18.1286 63.8011 18.9596 64.5195 19.1155C64.8288 19.1826 65.2771 19.1193 65.6875 19.0256C66.2527 19.074 66.9597 19.033 67.9517 18.8014C76.6822 16.7633 90.2751 11.8311 91.0362 10.9884C94.4948 8.90318 101.29 2.15594 94.4246 0.343238Z" fill="#282828"/>
<path d="M41.6768 30.2086C41.6768 30.2086 42.163 30.0646 42.4783 30.4035C44.5954 32.679 46.2815 32.7534 49.3235 32.4381L49.1869 33.4547C49.2415 38.2023 52.8491 42.8772 57.4792 40.8103C57.4792 40.8103 57.6593 44.4386 57.5994 46.8698C57.5994 46.8698 56.9312 47.7115 55.0338 47.8132C46.0263 48.2959 39.5612 38.4469 41.6768 30.2086Z" fill="black"/>
<path d="M83.578 98.0471C82.8728 98.1934 81.1191 98.4374 80.4232 98.6185C79.2269 98.9299 78.0412 99.2821 76.8531 99.6244C74.5697 100.18 75.3965 101.643 73.5165 102.619C71.2974 103.901 67.6052 102.563 66.3079 105.285C65.4311 107.45 64.0487 109.411 62.2699 110.931C60.8612 112.029 59.0163 112.43 57.3219 112.914C55.4231 113.398 54.2029 115.138 52.4654 115.965C50.802 116.791 47.9183 118.185 46.1357 117.429C47.8137 115.635 49.2399 113.439 51.0583 111.848C53.3422 111.772 54.1531 110.245 55.5079 108.808C61.014 108.465 60.9322 106.3 63.773 102.415C65.6799 99.7006 69.2826 101.43 71.9997 100.544C72.6703 100.375 73.3945 100.214 73.2988 99.2605C72.8442 98.3222 70.2722 98.7206 71.8071 96.9562C75.1093 96.1115 79.9975 97.2562 83.3568 96.9108L83.578 98.0471Z" fill="#B06A1D"/>
<path d="M55.4417 108.955C54.6664 110.804 52.7865 112.237 50.7178 112.051C48.4996 111.193 48.0445 108.381 48.7454 106.354C42.3414 104.572 23.8219 101.348 28.4871 91.3687C29.4763 92.4929 29.399 94.1608 30.3821 95.325C33.8886 100.143 41.6061 102.01 46.9546 104.2C47.7607 104.401 48.7181 105.022 49.5221 104.674C52.614 103.386 54.6532 106.394 55.4417 108.955Z" fill="#1B273F"/>
<path d="M45.1313 118.515C43.9621 124.937 31.2919 137.854 24.7783 139.02C30.2812 132.224 39.2414 124.966 45.1313 118.515Z" fill="#FCCA95"/>
<path d="M52.9934 60.6167C50.6959 61.4342 48.877 60.9499 47.2564 63.4965C45.6334 65.2833 42.1766 73.2068 39.5361 71.7647C42.9663 66.936 45.0257 59.1603 51.7115 58.1616C52.0544 58.7624 53.1001 60.0227 52.9934 60.6167Z" fill="#2D399D"/>
<path d="M52.9935 60.6168C52.4847 59.8723 51.7535 59.1846 51.7119 58.1617C51.9488 58.098 52.1573 58.03 52.1652 57.7111C52.3361 55.6466 53.2478 53.4042 55.1348 52.3262C54.4849 54.3989 53.4744 56.5584 55.8231 58.2525C56.5628 58.9584 57.7967 59.3282 58.1573 60.3371C58.1916 63.147 53.9989 62.0877 52.9935 60.6168Z" fill="#1B273F"/>
<path d="M57.5454 51.2632C59.3039 51.2266 61.2181 51.3819 62.1831 53.0986C62.9046 54.2943 63.3349 55.7175 63.3103 57.1C63.2923 58.1142 62.0854 55.898 61.6837 55.2066C60.5546 52.2382 54.2354 53.053 55.6804 51.9317C56.0563 51.6399 56.8755 51.3523 57.5454 51.2632Z" fill="#2E399D"/>
<path d="M123.589 63.8081C122.936 64.3389 122.408 64.6938 122.408 64.6938C121.986 64.6234 122.602 63.1152 121.093 63.5397C110.955 67.6942 99.8951 67.5606 89.2784 69.6422C85.7486 70.4889 80.1629 73.1561 79.6013 77.0128C79.6258 78.0646 80.2874 78.4349 81.2801 78.2412C83.5235 76.5882 86.1371 82.0338 90.5914 82.122C91.6345 82.2668 92.6099 82.4085 93.6223 82.1152C95.8818 83.063 98.2766 83.5597 100.682 83.9834C100.634 86.6951 102.121 86.997 104.122 88.4274C106.618 89.6087 106.237 92.2768 107.066 94.459C107.357 95.6818 109.268 95.9189 109.165 96.5238C107.708 98.7844 105.194 100.279 102.553 100.717C102.092 100.159 101.47 99.9256 100.785 99.7433C85.1183 98.172 72.0744 86.2565 69.877 70.5943C68.8705 65.4741 67.4374 60.178 69.1176 55.0393C69.8183 53.232 67.7122 53.6897 68.3238 52.4549C69.3506 50.3821 71.7825 50.0225 73.3717 51.0252C73.5445 51.1342 73.7213 51.2397 73.7699 51.4605C73.7398 51.593 73.6312 51.7268 73.6609 51.8517C74.5667 54.7628 71.7775 56.5269 71.4071 59.2046C71.0322 60.5878 72.6327 61.3126 73.311 59.9974C73.939 59.0561 74.5263 58.0883 75.1671 57.1546C75.6853 56.8299 75.2843 53.7469 76.1611 54.858C76.2466 55.6247 76.7104 55.853 77.4204 55.7999C79.7046 55.7633 76.4123 57.9701 79.0599 58.9097C82.6054 61.3943 114.184 60.4345 112.443 54.2155C112.855 51.5019 115.418 52.2915 115.085 49.8985C114.766 43.8683 111.177 39.1038 106.859 35.1788C105.063 34.423 103.275 37.6859 100.967 36.8105C100.009 36.6046 99.0257 36.6127 98.1384 37.1319L97.7834 36.033C100.062 35.138 100.857 33.0133 102.284 31.3074C104.682 28.1214 107.231 26.4572 111.296 26.3048C111.873 26.2494 113.021 25.7286 112.912 26.7321C112.213 30.2358 108.49 31.5409 111.68 35.3159C116.383 41.4998 122.255 47.3037 124.121 55.0819C124.957 60.3756 128.003 57.8213 125.6 61.5533C125.051 62.4045 124.375 63.1685 123.589 63.8081Z" fill="#272F77"/>
<path d="M68.3005 53.1458C69.429 53.0751 69.7839 53.8144 69.471 54.8048C68.7974 56.7956 68.6982 58.892 68.5323 60.9742C69.3028 67.1338 70.3705 73.4185 72.6569 79.2449C76.5992 87.8131 83.9432 95.1987 93.1892 97.814C95.0171 98.6196 102.467 98.7923 102.552 100.717C96.0933 102.646 89.1643 100.225 83.4665 97.1239C73.3236 90.8514 66.6071 75.2366 66.4043 63.6396C66.6412 60.3292 65.7344 55.4881 68.3005 53.1458Z" fill="#2D399D"/>
<path d="M93.6222 82.1154C90.1096 83.7961 85.4921 80.8241 83.0846 78.1593C81.9532 77.9823 78.9606 79.6245 79.3036 77.3443C81.1263 65.2251 104.084 68.3216 113.884 65.5619C116.551 64.8107 118.992 63.6819 121.623 63.166C121.999 63.0922 122.396 63.1521 122.719 63.3586C124.686 64.6157 117.239 66.9927 117.239 66.9927C111.712 68.9846 107.508 69.8432 102.489 70.5251C92.7196 71.7658 75.7008 73.2512 93.6222 82.1154Z" fill="#1B273F"/>
<path d="M109.164 96.5239C108.946 96.2837 108.648 96.2076 108.352 96.1142C107.731 95.9185 107.304 95.5051 107.001 94.9286C106.566 94.0996 106.297 93.2431 106.258 92.2964C106.198 90.8443 105.572 89.6703 104.323 88.8753C103.429 88.3059 102.544 87.7266 101.719 87.0601C101.533 86.91 101.338 86.7698 101.161 86.6099C100.515 86.0252 100.268 85.3357 100.601 84.4873C100.662 84.3327 100.656 84.152 100.681 83.9834C102.574 84.1621 104.421 84.5604 106.181 85.2762C107.981 86.0083 109.248 87.3288 110.1 89.0541C110.502 89.8682 110.657 90.7379 110.692 91.6409C110.761 93.452 110.333 95.1008 109.164 96.5239Z" fill="#2D399D"/>
<path d="M110.484 33.1826C108.818 31.5885 112.561 28.0297 112.918 26.6001C113.966 28.9411 112.089 31.558 110.484 33.1826Z" fill="#1E2A42"/>
<path d="M118.306 14.998L118.526 15.0042C118.524 15.0728 118.534 15.144 118.518 15.2094C118.231 16.423 118.39 17.6422 118.526 18.8507C118.621 19.6868 118.801 20.5093 119.009 21.3249C119.195 22.0568 118.926 22.6433 118.577 23.2273C118.433 23.4677 118.176 23.5783 117.908 23.6789C117.196 23.9467 116.455 24.1133 115.712 24.2204C113.365 24.5587 111.067 25.1337 108.748 25.6046C107.64 25.8297 106.516 26.0952 105.413 26.347C105.203 26.2835 105.111 26.1324 105.012 25.9534C104.894 25.7252 104.847 25.4842 104.885 25.2291C104.951 23.7007 104.233 22.3142 104.109 20.8196C104.048 21.2048 104.32 21.7663 104.074 22.137C103.704 22.1396 103.703 22.2457 103.658 22.4997C103.526 23.2532 103.136 23.8361 102.452 24.199C102.147 24.3608 101.468 25.2892 101.197 24.8796C100.963 23.8972 101.09 22.1757 101.23 21.1893C101.439 20.7691 102.099 20.4299 102.198 19.9457C102.814 19.4439 103.923 18.9004 104.241 18.6354C104.342 18.5516 104.499 18.4777 104.603 18.6885C104.603 18.6894 104.604 18.6899 104.605 18.6906L104.606 18.6966C104.463 18.9752 104.295 19.2739 104.496 19.5682C104.679 19.8365 104.993 19.9048 105.316 19.9302C106.186 19.9988 107.041 19.862 107.862 19.6253C110.451 18.8791 113.02 18.0653 115.534 17.0906C115.778 16.9961 116.027 16.9165 116.278 16.8434C117.258 16.5578 118.021 16.0396 118.306 14.998Z" fill="#947EC6"/>
<path d="M105.197 25.9059C105.277 26.0557 105.346 26.2231 105.426 26.373C105.425 26.4274 105.423 26.4816 105.421 26.5358C104.555 27.3218 103.564 27.9462 102.626 28.6368C101.365 29.565 100.229 30.594 99.4143 31.9466C99.2387 32.2383 99.0552 32.538 98.723 32.695C97.0219 33.1085 95.6072 32.6929 94.5554 31.2526C93.8962 30.3501 93.0363 29.4715 92.6705 28.3782C93.1217 27.7618 92.4846 19.1812 92.7219 19.1558C92.943 19.3146 97.0308 21.5035 100.467 23.3517C100.852 23.5586 100.705 24.7883 101.067 24.9833C102.997 26.0228 105.051 25.8018 105.197 25.9059Z" fill="#847058"/>
<path d="M98.7648 32.5395C99.7886 30.5134 101.481 29.0432 103.342 27.7901C104.018 27.3416 104.603 26.5425 105.413 26.3472C105.94 26.962 106.324 27.192 107.056 27.2149C106.815 27.6448 106.091 27.9322 105.704 28.1981C104.555 29.0792 103.527 30.1059 102.667 31.2596C101.554 32.4146 99.4618 36.4487 97.7832 36.0329C97.2862 34.9589 97.6833 33.5457 98.7648 32.5395Z" fill="#2D399D"/>
<path d="M102.374 20.0169C97.4157 23.0073 97.2676 19.2387 97.1045 18.0053C97.1466 17.1901 102.31 15.3504 102.745 14.7627C102.79 14.7946 103.122 15.5118 103.122 15.5118C103.767 16.7462 104.241 18.6355 104.241 18.6355C104.241 18.6355 103.904 18.9515 103.989 19.5756L102.374 20.0169Z" fill="#847059"/>
<path d="M76.2379 90.1507C78.0095 92.5147 80.9422 95.0121 83.1946 96.9565C80.0743 97.5611 76.1224 96.5548 72.9859 97.1238C71.3247 97.4373 69.8166 96.6631 68.1322 96.6225C67.7586 96.5624 66.8198 96.4922 67.0068 95.9453C67.7773 95.2661 67.6331 94.1617 68.0447 93.3167C70.3541 90.5179 67.3455 80.8408 69.2412 83.0973C71.3343 85.6167 73.5968 88.1826 76.2379 90.1507Z" fill="#85A2C1"/>
<path d="M40.6358 90.0262C39.7361 95.8558 45.0168 98.769 50.0782 98.6148C51.6603 97.0475 53.0394 96.6955 55.4488 99.0898C55.8281 99.3907 56.1104 99.7894 55.9099 100.284C55.8222 101.203 56.3398 103.411 55.6171 103.992C54.8088 104.563 54.4048 103.073 54.4451 102.483C54.4685 101.988 54.3466 101.531 54.1956 101.073C54.0177 100.204 52.373 99.2638 51.635 99.8699C50.7822 100.66 50.1657 101.842 50.0218 103.012C50.0196 103.134 49.9565 103.26 49.8391 103.367C49.7709 103.429 49.668 103.429 49.5986 103.369C48.8236 102.69 49.7582 100.74 48.7949 100.698C46.4822 100.555 44.2897 99.7265 42.1551 98.8937C40.4487 98.0601 38.6709 97.0435 37.6497 95.3985C36.6366 94.0077 34.4898 92.5275 35.4007 90.5885C36.0034 89.6954 37.1858 90.0026 38.0271 90.3819C38.8764 90.8208 39.771 89.9882 40.6358 90.0262Z" fill="#2D399D"/>
<path d="M55.246 75.7152C53.3508 75.6589 51.6701 76.2563 50.1215 77.3215C47.867 78.8722 45.8342 80.6734 44.1312 82.801C42.6203 84.6886 41.4777 86.8014 40.876 89.1695C40.8254 89.3686 40.7732 89.6485 40.7148 89.8459C40.7148 89.8459 40.7008 89.9475 40.636 90.0264C40.5238 90.1628 40.2479 90.1172 40.1382 90.0117C39.8518 89.7364 39.7205 89.3905 39.7135 88.9939C39.6848 87.3641 39.8914 85.7994 40.6544 84.3087C41.316 83.016 42.0729 81.7941 42.9638 80.6573C43.5346 79.9289 44.1731 79.2502 44.8134 78.5797C45.5751 77.7821 46.3631 77.0089 47.1544 76.2402C48.4396 74.9916 49.8311 73.868 51.3525 72.9207C52.4395 72.2439 53.6317 71.7482 54.9095 71.6134C55.854 71.5137 56.7718 71.816 57.4867 72.4633C58.2742 73.1761 58.1024 74.4865 57.185 75.0396C56.5915 75.3974 55.944 75.6373 55.246 75.7152Z" fill="#1B273F"/>
<path d="M55.9836 100.501C55.6093 100.438 55.269 99.3394 55.0676 99.0581C54.4255 98.1611 53.4407 97.8358 52.4386 97.6341C51.9466 97.5351 51.432 97.7771 51.0542 98.1678C50.7854 98.4458 50.5065 98.6879 50.0786 98.6147C49.9959 98.3575 49.8152 97.9374 49.7324 97.68C49.8344 96.6874 50.5068 96.1347 51.2367 95.5279C51.7368 95.1123 52.2794 94.7479 52.7916 94.3461C54.3929 93.0901 56.2122 92.3793 58.2071 91.973C59.8388 91.6406 61.3342 91.9652 62.8434 92.473C63.4666 92.6827 64.0497 92.9753 64.634 93.2683C65.3789 93.6418 66.0283 94.1358 66.6178 94.7275C66.9624 95.0734 67.2196 95.281 67.1659 95.7586C67.1481 95.8217 67.0486 96.0439 67.0354 96.1082C66.0234 96.271 65.1559 95.7748 64.2979 95.4098C62.3782 94.593 60.7781 94.879 59.3673 96.432C58.5389 97.3439 57.6311 98.1849 56.7509 99.0495C56.4859 99.3099 56.3968 100.449 55.9836 100.501Z" fill="#1B273F"/>
<path d="M76.2384 90.1505C73.081 88.601 71.1254 85.4024 68.7317 82.9298C67.4516 81.6824 68.0527 79.8996 67.4177 78.4258C65.892 73.88 64.4154 69.3212 62.7792 64.8088C61.5316 61.3681 62.7237 60.17 62.7239 60.17C64.1007 60.6328 66.5189 59.5138 66.4192 60.2431C65.6301 66.0197 65.8832 71.3427 68.7802 75.4253C70.6016 80.6235 72.9099 85.7307 76.2384 90.1505Z" fill="#C9DEF1"/>
<path d="M55.6165 103.992C55.7464 102.867 55.7778 101.743 55.5589 100.626C55.5149 100.401 55.5916 100.225 55.7064 100.051C56.847 100.385 56.7602 102.55 57.1094 103.508C57.3768 104.422 57.8613 104.643 58.749 104.295C59.4291 104.028 59.8264 103.464 60.2197 102.899C60.9476 101.854 61.7352 100.888 62.8086 100.14C64.2354 99.1448 65.8602 99.0586 67.4576 99.088C69.2474 99.121 71.0274 99.2704 72.7977 98.8971C73.0459 98.8448 73.2756 98.879 73.4861 99.0236C73.6949 99.1494 73.7362 99.3523 73.6955 99.5623C73.4615 101.006 71.2283 100.942 70.0811 101.099C68.9757 101.092 67.8704 101.101 66.7651 101.095C63.8399 101.034 62.7943 104.893 61.2016 106.793C59.8983 108.545 57.5291 109.057 55.4413 108.955C54.9874 108.818 54.8247 108.453 54.7884 108.049C54.7596 107.729 54.8189 107.405 54.9502 107.111C55.3966 106.112 55.4715 105.079 55.6165 103.992Z" fill="#847058"/>
<path d="M49.3022 96.5293C48.2488 93.1607 49.7287 89.0082 52.0829 86.5303C54.3396 84.0654 57.7793 81.8774 57.7683 78.1736C59.3551 75.1478 60.6024 78.0437 60.1904 80.0452C59.8613 81.8066 58.9501 83.2741 57.8149 84.6481C55.7262 87.0947 53.3598 89.3101 51.5438 91.9822C50.9154 92.9321 49.9426 93.8148 50.0762 95.0579C50.1126 96.4276 49.2276 95.309 49.3022 96.5293Z" fill="#2D399D"/>
<path d="M67.7141 79.6162C69.3345 84.4187 70.3173 90.2198 67.621 94.8485C67.1073 94.4616 66.5283 93.9229 66.9824 92.5711C67.4935 90.6048 67.3233 89.5601 67.2885 87.5409C67.1272 85.9946 67.1234 84.4075 66.7596 82.8775C66.7248 81.9704 66.2825 80.4723 67.0634 79.8698C67.2842 79.7942 67.5563 79.8514 67.7141 79.6162Z" fill="#2D399D"/>
<path d="M91.0358 10.9886C90.342 12.7017 70.4897 21.8392 63.5669 18.7588C63.3174 18.6478 63.3685 18.2812 63.6393 18.2456C69.9709 17.4116 76.6125 16.0133 82.8387 13.2837C83.0577 13.1877 91.8574 8.802 91.0358 10.9886Z" fill="#404040"/>
<path d="M68.5109 49.9448C68.5201 49.4407 68.537 48.6368 68.537 48.6368C65.8619 47.191 63.077 45.681 60.7399 43.6573C59.5184 43.33 60.6543 46.2519 60.8928 46.8396C62.3726 49.8579 64.8063 52.2074 68.0518 53.1257C68.1028 53.1401 68.1556 53.1485 68.2086 53.1494C68.2431 53.15 68.277 53.1488 68.3002 53.1459C68.3728 52.9589 68.5195 52.546 68.4594 52.3541C68.4015 52.1693 68.5072 50.1476 68.5109 49.9448Z" fill="#847058"/>
<path d="M68.7801 75.4254C68.6786 76.3875 67.7118 74.3158 67.5213 74.0763C65.5534 70.7064 62.6931 63.2862 66.4191 60.2432C66.5224 61.2952 66.4044 63.6405 66.4044 63.6405C66.5939 67.6737 67.8016 71.5341 68.7801 75.4254Z" fill="#E5F2FE"/>
<path d="M50.9912 29.5152C51.1341 29.1781 53.1087 28.1464 53.3963 27.9538C54.2776 27.3639 54.8591 27.15 55.7067 26.514C56.6422 25.8121 58.7884 21.8907 59.5399 21.0049C59.9752 20.4917 60.9974 20.359 60.8738 20.7137C60.2107 22.6163 59.6641 25.2669 56.1843 28.9239C55.9023 29.2204 55.5557 29.459 55.2186 29.6955C54.8735 29.9378 54.5073 29.9547 54.1787 29.6494C53.6644 29.1716 51.6982 29.0477 50.9912 29.5152Z" fill="#010101"/>
<path d="M73.7002 99.3199C70.9086 100.147 67.8188 99.1168 65.0057 99.498C62.898 99.9227 61.4216 101.496 60.313 103.24C60.1308 103.488 59.9206 103.716 59.7494 103.971C59.2246 104.7 57.4628 105.268 57.0433 104.208C56.485 102.859 56.6731 101.241 55.707 100.051C56.5688 98.4125 58.2404 97.2732 59.4957 95.9207C61.7212 93.4847 64.499 95.3202 67.0355 96.1087C67.9914 96.3726 68.9694 96.4913 69.9569 96.5496C70.2569 96.5673 71.0957 96.5175 71.3421 96.7762C69.4923 97.9256 63.8616 95.0433 61.3906 98.2582C61.3791 98.3594 61.4263 98.3879 61.5105 98.3217C62.804 97.3048 64.2367 97.1925 65.8161 97.498C68.1476 97.949 70.5066 98.2538 72.8606 98.5759C73.1418 98.6248 73.7002 98.8742 73.7002 99.3199Z" fill="#BEA589"/>
<path d="M72.2579 98.4941C70.9329 98.5261 70.2666 98.5013 68.9721 98.2832C67.994 98.1183 67.0068 97.9991 66.0292 97.811C65.3921 97.6883 64.7356 97.6651 64.0875 97.6001C63.5522 97.5464 63.0779 97.6812 62.6269 97.9885C62.1171 98.3357 61.5719 98.6314 61.0387 98.9439C60.9481 98.997 60.8216 99.0109 60.7681 98.9052C60.7296 98.8289 60.7215 98.6971 60.7629 98.627C61.3597 97.616 62.1468 96.8076 63.3533 96.6048C64.2978 96.446 65.201 96.6097 66.1717 96.7123C66.8653 96.7147 68.5598 96.965 68.5598 96.965C69.3943 97.043 70.9633 96.991 71.3419 96.7763C71.5662 96.8588 71.8587 97.3819 71.9527 97.512C72.0919 97.7046 72.2929 98.3787 72.2579 98.4941Z" fill="#857058"/>
<path d="M78.0094 55.9353C78.0094 55.9353 78.9761 55.8653 79.3166 55.8569C80.698 55.8227 82.0678 55.9214 83.4476 55.8561C86.8351 55.6956 90.2177 55.8456 93.6011 55.9682C94.5685 56.0032 95.5336 55.9979 96.5014 55.9644C97.536 55.9286 98.5743 55.9354 99.6089 55.9752C101.753 56.0575 103.894 55.9952 106.03 55.8342C107.758 55.704 112.153 54.2867 112.442 54.2153C112.554 54.2936 112.724 54.2128 112.835 54.2926C113.092 54.4774 113.169 54.744 113.075 55.0218C112.988 55.2768 112.867 55.5388 112.695 55.743C111.955 56.6236 111.071 57.2976 109.975 57.7193C108.783 58.1777 107.544 58.448 106.312 58.7402C105.115 59.0241 98.0432 59.8881 96.966 60.0416C95.9324 60.1889 91.5914 60.3976 90.7007 60.4033C88.5629 60.4171 86.4224 60.4727 84.2879 60.388C82.3636 60.3116 80.4668 59.9845 78.7212 59.0844C78.4757 58.9578 78.2345 58.8307 78.0405 58.6257C77.3199 57.8639 77.3637 57.5148 77.8581 56.6138C77.9716 56.407 77.866 56.1258 78.0094 55.9353Z" fill="#2D399D"/>
<path d="M113.535 52.2974C113.374 51.9445 113.38 51.4416 113.376 51.0581C113.38 46.93 110.21 43.7242 107.927 40.5607C107.342 39.9921 105.66 37.1895 104.895 37.5694C102.8 38.3162 99.4226 39.8339 98.1377 37.1318C99.0125 35.3921 102.013 37.5793 103.593 36.0974C104.213 35.6898 106.645 33.9536 107.119 34.9554C107.353 35.5323 107.851 35.8398 108.251 36.247C108.951 36.9589 109.667 37.6551 110.37 38.3649C111.841 39.8513 112.901 41.6042 113.716 43.5142C114.61 45.397 115.069 47.3748 115.283 49.4344C115.634 50.5988 115.116 52.6871 113.535 52.2974Z" fill="#1B273F"/>
<path d="M73.4492 51.105C75.535 52.2825 77.0944 55.2701 75.6327 57.3664C74.8429 58.3576 74.0869 59.4513 73.2456 60.4002C72.5769 61.0292 71.6775 60.8058 71.3564 59.9425C70.9378 58.1731 72.1535 56.3805 73.1113 54.9791C73.7415 54.1145 73.8633 53.0047 73.468 52.0174C73.3022 51.6869 72.937 51.1997 73.4492 51.105Z" fill="#1B273F"/>
<path d="M100.556 26.7364C100.556 26.7364 101.143 25.5206 101.312 24.8405C102.449 24.5292 103.568 23.1926 103.723 21.1439C103.734 20.9996 103.933 21.0074 103.981 21.1439C104.286 22.009 104.889 24.391 105.029 25.2959C105.085 25.4993 105.141 25.7026 105.197 25.9059C104.294 26.0888 100.556 26.7364 100.556 26.7364Z" fill="#463175"/>
<path d="M105.029 25.2959C104.595 24.5131 104.348 23.6701 104.143 22.8135C104.008 22.2469 103.911 21.6718 103.85 21.0926C103.815 20.7683 103.789 20.4504 103.799 20.3098C103.805 20.2233 103.863 20.0963 103.932 20.0669C104.112 19.9893 104.163 20.1541 104.2 20.2779C104.329 20.7014 104.942 23.4205 105.16 24.3474C105.236 24.6749 105.355 25.0188 105.029 25.2959Z" fill="#B7A6DD"/>
<path d="M98.9091 20.8919L102.375 20.0171C102.374 20.7468 102.272 20.9074 101.793 21.1089C101.709 21.1443 101.505 21.2398 101.413 21.2438C100.852 21.2683 98.8369 21.2615 98.9091 20.8919Z" fill="#B9A8D8"/>
<path d="M93.8053 26.8846C94.0954 27.1823 95.0182 27.8917 95.0182 27.8917C95.0182 27.8917 87.2984 29.5306 84.5361 30.0948C83.4925 30.025 82.1743 28.0699 82.5498 27.1258C82.7428 26.6404 83.068 26.4999 83.5086 26.8743C83.5881 26.9418 83.6659 27.0188 83.7062 27.1107C84.464 28.8372 85.8498 28.6851 87.2951 28.2824C89.0226 27.801 90.7441 27.2992 92.4919 26.8934C92.9314 26.7913 93.3659 26.6724 93.8053 26.8846Z" fill="#463176"/>
<path d="M99.3828 25.0336C99.4665 25.4484 99.7917 26.4524 99.8756 26.8674C99.8756 26.8674 98.811 27.0779 98.6514 27.1361C98.5641 26.5265 98.781 25.9167 98.8173 25.3069C99.0111 25.1283 99.1795 24.8746 99.3828 25.0336Z" fill="#4D3875"/>
<path d="M93.8051 26.885C92.3353 27.2482 90.8632 27.6027 89.3965 27.9781C88.5295 28.2 87.6663 28.4394 86.8105 28.7006C86.2657 28.8668 85.7183 28.8561 85.1696 28.8026C84.5873 28.7459 84.1271 28.4714 83.8457 27.9373C83.6699 27.6036 83.4964 27.2678 83.2994 26.9465C83.1737 26.7416 82.9346 26.8036 82.8106 27.0139C82.6041 27.364 82.7529 27.7031 82.8538 28.0108C83.1032 28.7714 83.5723 29.4094 84.1535 29.958C84.2436 30.0431 84.4067 30.0514 84.536 30.0952C84.3807 30.4582 84.2025 30.8045 83.8534 31.0265C83.1052 30.4985 82.18 30.1941 81.6757 29.3584C81.4574 28.9968 81.0753 28.6513 81.4159 28.1612C81.8729 27.971 81.9601 27.5903 81.9588 27.1494C81.9566 26.3751 82.2454 25.6682 82.5175 24.9633C82.6055 24.7353 82.6467 24.3905 83.0489 24.4689C83.4521 24.6393 83.795 24.9943 84.2937 24.8724C84.9112 25.2846 85.5826 25.2533 86.2735 25.1279C87.6565 24.8769 89.0249 24.57 90.3729 24.1688C90.7562 24.0547 91.1473 23.8575 91.5681 24.0502C91.7182 24.1833 93.2096 26.0732 93.8051 26.885Z" fill="#947EC6"/>
<path d="M91.5683 24.05C90.4212 24.514 89.2156 24.7805 88.0201 25.0769C87.5232 25.2 85.4226 25.5071 84.8763 25.5047C84.4184 25.5027 84.4026 25.4664 84.2939 24.8722C84.9314 24.5298 85.6532 24.4685 86.3342 24.2732C87.6446 23.8974 88.9652 23.557 90.2814 23.2012C90.4893 23.145 90.643 23.0154 90.7599 22.8389C91.0241 23.2464 91.2704 23.5829 91.5683 24.05Z" fill="#BFAEE1"/>
<path d="M83.0484 24.4688C82.5052 25.4911 82.1042 25.9766 81.9584 27.1493C81.8482 28.036 82.5562 29.4636 81.3669 28.2388C81.1128 27.977 80.8651 27.8667 80.7709 27.5308C80.0954 26.161 81.1203 24.3736 82.5962 24.2945C82.7729 24.2774 82.9324 24.3215 83.0484 24.4688Z" fill="#BEADE1"/>
<path d="M83.597 30.5188C83.3868 30.4104 83.1694 30.3147 82.9648 30.1969C82.3271 29.8297 81.4736 28.4318 81.125 27.8358C81.0113 27.6415 80.9334 27.429 80.8943 27.2075C80.8402 26.9013 80.7889 26.5943 80.5688 26.342L80.5701 26.3369C80.3772 26.7432 80.4229 28.2062 80.6164 28.547C80.6463 28.7962 81.4862 30.2704 82.0761 30.777C82.6148 31.2396 83.1892 31.4498 83.8528 31.0266C83.8606 30.8108 83.8045 30.6259 83.597 30.5188Z" fill="#4B377A"/>
<path d="M99.2227 13.1145C98.5278 13.3776 98.137 13.879 97.5698 14.3599C96.6504 14.6799 95.7333 14.4408 95.0763 15.3854C94.7552 15.9531 94.4578 16.3935 93.7869 16.5718C92.2053 16.4949 92.2339 18.264 91.1492 18.9381C89.976 20.0298 89.649 21.5746 90.7595 22.8393C93.5375 27.3534 95.4137 29.0098 95.5507 27.8777C95.5504 27.8764 95.5497 27.8753 95.5498 27.8738C95.5682 27.577 95.4012 27.1205 95.324 26.9327C94.9545 26.034 94.4706 25.1899 94.0572 24.3125C93.7243 23.6057 93.3091 22.9244 93.1052 22.1705C93.0711 22.0447 93.0427 21.8743 93.0264 21.7497C93.0173 21.6801 93.0979 21.6363 93.1532 21.6798C93.4233 21.8924 93.584 22.2394 93.7555 22.5255C94.6437 24.007 95.0165 25.757 95.7195 27.3297C95.7206 27.3323 95.721 27.335 95.722 27.3376L95.7682 27.4323C96.6282 28.9415 97.0607 28.9926 96.9027 26.9941C96.9027 26.9941 96.9027 26.9941 96.9027 26.9941C96.9022 26.9865 96.9014 26.9785 96.9008 26.9709C96.8887 26.8209 96.8733 26.6594 96.8546 26.4863C96.7176 25.3067 96.3972 23.9213 96.0999 22.7727C96.0084 22.4193 95.9415 22.0606 95.901 21.6979C95.8852 21.5565 95.8719 21.425 95.8677 21.3504C95.8657 21.3138 95.9127 21.2966 95.9352 21.3255C96.2022 21.6676 96.3095 22.19 96.3936 22.5742C96.6674 23.8241 97.1132 26.0687 97.3574 27.3258C97.7333 29.3968 99.0479 28.4415 98.8166 25.3069C98.8059 25.161 99.3728 25.028 99.3986 25.1719C99.7603 27.1868 100.345 28.4503 100.964 27.0755C101.141 26.6818 101.237 26.2569 101.262 25.8262C101.337 24.5442 101.382 22.874 101.408 21.6782C101.424 20.9095 101.404 20.1405 101.337 19.3746C101.243 18.2965 101.242 16.4306 102.284 15.9924C102.42 15.9352 102.549 15.8595 102.652 15.7538C103.771 14.6011 100.469 12.6987 99.2227 13.1145ZM98.5064 20.9695C98.5064 20.9695 98.1162 19.2041 98.0223 18.7022C97.9726 18.4358 97.9779 18.1574 97.9794 17.8845C97.9799 17.8 98.0276 17.6748 98.0922 17.6406C98.2045 17.5811 98.2887 17.6949 98.3208 17.786C98.4801 18.2372 98.607 18.603 98.7178 19.202C98.8454 19.8337 98.9085 20.8917 98.9085 20.8917C98.8458 20.9874 98.5948 21.0423 98.5064 20.9695Z" fill="#BFA489"/>
<path d="M99.399 25.1721C99.1911 25.1775 98.8169 25.307 98.8169 25.307C98.7405 24.2635 98.5075 23.2304 98.6042 22.1751L99.0634 22.0005L99.3006 24.3433L99.399 25.1721Z" fill="#947EBD"/>
<path d="M99.0635 22.0001C98.9288 22.0585 98.7388 22.1169 98.6042 22.175C98.5951 21.7706 98.5162 21.3734 98.5068 20.9694C98.5821 20.9582 98.8333 20.9031 98.9089 20.8916C98.9089 20.8916 99.0352 21.6353 99.0635 22.0001Z" fill="#B7A5CF"/>
<path d="M145.074 8.31445C145.688 11.941 131.919 12.9296 125.439 14.8279C123.632 15.0934 120.244 16.1238 119.511 13.7668C119.51 13.7493 119.548 13.6905 119.548 13.6905C121.242 12.9253 145.074 8.31445 145.074 8.31445Z" fill="#BFAEE2"/>
<path d="M147.776 8.25901C146.193 9.91531 146.472 12.2825 146.514 14.3865C146.564 16.9216 144.972 15.1397 145.111 13.7797C144.902 11.8148 144.805 7.3403 147.776 8.25901Z" fill="#BEADE2"/>
<path d="M151.03 12.989C151.55 16.5595 150.303 18.6939 149.963 13.6596C149.738 12.2587 149.132 10.5755 148.382 9.33772C147.898 8.65142 148.245 8.28506 148.872 8.71812C150.462 9.57259 150.676 11.445 151.03 12.989Z" fill="#BFAEE2"/>
<path d="M120.922 24.7629L120.653 24.318C119.957 22.5808 119.306 20.811 119.068 18.9444C118.905 17.6778 118.849 16.3852 119.002 15.1178C119.014 14.9826 119.337 13.7861 119.547 13.6901C119.604 13.6965 119.684 13.7769 119.686 13.8491C119.713 15.0536 121.605 15.1341 122.509 15.0618C125.553 14.8114 128.494 13.9527 131.472 13.3201C136.035 12.0188 141.153 11.7888 144.94 8.6543C145.091 8.83263 145.007 9.02621 144.962 9.20752C144.753 10.0549 144.625 10.9157 144.543 11.7823C144.426 13.0365 144.769 14.1938 145.33 15.3018C145.455 15.5483 145.551 15.4249 145.661 15.3023C145.779 15.6673 146.264 15.598 146.341 15.1876C146.56 15.3902 146.557 15.6756 146.616 15.9352C146.854 16.996 147.12 18.0497 147.622 19.022C148.906 21.6263 150.716 18.1954 150.404 16.6431C150.395 16.5452 150.344 16.3237 150.407 16.2378C150.52 16.3061 150.673 16.4729 150.772 16.4323C150.943 16.3615 151.029 16.0214 151.029 16.0214C151.029 16.0214 150.779 17.9335 150.549 18.5632C150.325 19.1755 150.122 19.6047 149.952 19.9046C149.694 20.3569 149.25 20.6769 148.737 20.7681C148.548 20.8016 148.356 20.8156 148.216 20.7778C147.303 20.1899 146.683 19.3566 146.204 18.403C146.136 18.2674 146.094 18.061 145.93 18.0516C145.703 18.0385 145.699 18.2831 145.643 18.4342C144.719 20.4248 141.85 20.6303 139.983 21.2829C134.285 22.8195 128.574 24.43 122.683 25.0157C121.02 25.2656 121.439 24.8879 120.922 24.7629Z" fill="#947EC6"/>
<path d="M145.717 15.4506C145.733 15.5297 145.668 15.6373 145.591 15.6864C145.484 15.7547 145.296 15.607 145.264 15.5394C144.936 14.8567 144.618 14.1698 144.484 13.4169C144.395 12.9193 144.33 12.0101 144.33 12.0101C144.277 10.8338 144.931 8.71147 144.941 8.65428C144.999 8.54645 145.072 8.444 145.074 8.31407C145.271 8.24206 146.856 8.14502 146.856 8.14502C146.24 8.58346 145.931 8.58074 145.47 10.0027C145.284 10.8859 145.158 12.0904 145.198 12.9817C145.247 14.4118 145.697 15.3568 145.717 15.4506Z" fill="#463176"/>
<path d="M150.553 16.3449C150.61 16.4424 150.595 17.141 150.533 17.5328C150.484 17.8373 150.401 18.1378 150.312 18.434C150.165 18.9251 150.036 19.4164 149.691 19.7899C149.691 19.7899 149.475 20.0056 149.373 20.0772C149.011 20.3321 148.455 20.2586 148.124 19.9653C148.108 19.9512 148.092 19.9367 148.077 19.9216C147.755 19.5973 147.521 19.2245 147.346 18.8117C146.853 17.6478 146.518 16.4394 146.342 15.1877C146.404 14.5867 146.366 13.988 146.304 13.3894C146.284 13.1971 146.26 13.0031 146.265 12.8107C146.283 12.2105 146.289 11.6084 146.347 11.0115C146.418 10.2712 146.654 9.57345 147.036 8.93139C147.214 8.63225 147.481 8.44924 147.776 8.25879C147.776 8.25879 148.322 8.37255 148.59 8.56809C148.355 8.49792 148.286 8.72893 148.316 8.80182C148.368 8.92949 148.459 9.02939 148.565 9.11805C149.172 9.62733 149.654 10.5756 149.852 11.244C150.168 12.308 150.135 13.4166 150.217 14.524C150.251 14.9883 150.273 16.0566 150.553 16.3449Z" fill="#453075"/>
<path d="M120.923 24.7633C121.252 24.7981 121.58 24.8365 121.909 24.8668C122.517 24.9226 123.116 24.817 123.714 24.7388C124.775 24.6002 125.835 24.4511 126.891 24.2833C127.756 24.146 128.618 23.9947 129.47 23.7823C131.567 23.2593 133.666 22.7462 135.766 22.2346C138.095 21.6673 140.405 21.0337 142.692 20.3195C143.176 20.1684 143.659 20.0092 144.103 19.7581C144.323 19.6336 144.543 19.5075 144.75 19.3624C145.127 19.0972 145.398 18.7478 145.529 18.2996C145.556 18.2064 145.591 18.1154 145.62 18.0227C145.665 17.8774 145.675 17.6853 145.874 17.6798C146.065 17.6745 146.097 17.8704 146.172 17.9999C146.376 18.3536 146.577 18.709 146.776 19.0658C147.034 19.531 147.584 20.6596 148.526 20.8007C148.247 20.8675 145.456 21.3953 145.021 21.4852C143.711 21.7557 142.403 22.033 141.095 22.3104C141.002 22.3299 129.766 24.6915 128.008 25.0414C126.842 25.2735 125.671 25.4771 124.505 25.7048C124.24 25.7565 123.191 25.9769 122.931 26.0329C122.527 26.1198 122.151 26.1407 121.764 25.9095C121.557 25.7816 120.92 24.8014 120.923 24.7633Z" fill="#453075"/>
<path d="M124.138 19.8595C124.138 19.8595 122.589 19.8394 122.975 19.1577C123.053 19.02 123.279 18.8132 123.418 18.7365C124.416 18.1839 128.591 17.7611 131.201 17.1592C131.769 17.0595 134.587 16.5209 134.096 17.4972C134.039 17.6097 133.95 17.7028 133.842 17.7692C130.467 19.8596 124.138 19.8557 124.138 19.8595Z" fill="#BFAEE2"/>
</svg>
