<svg width="187" height="135" viewBox="0 0 187 135" fill="none" xmlns="http://www.w3.org/2000/svg">
<path d="M172.037 122.323C167.886 128.486 158.652 134.453 151.224 134.224C143.796 133.995 139.534 128.039 131.78 128.039C127.713 128.039 116.04 129.623 111.123 124.108C104.543 116.728 105.882 107.142 100.505 102.637C92.6569 96.063 81.2566 104.972 78.145 107.695C63.8637 120.197 43.0167 127.108 35.5814 117.103C28.7516 107.912 39.0999 95.4865 40.6693 86.5243C42.0701 78.5248 38.3246 69.8596 31.5381 65.3989C23.1879 59.9106 -7.11388 56.5109 5.74565 34.6116C12.7392 22.7019 34.8172 14.3412 55.4604 19.5407C67.9097 22.6764 79.6303 30.3312 92.4245 29.2708C109.693 27.8395 121.085 14.4975 133.673 7.21902C141.827 2.50387 151.78 2.39969 161.187 2.89201C170.593 3.38434 180.154 8.00402 184.737 16.2334C189.32 24.4628 186.803 38.6787 177.513 44.843C157.095 58.3905 158.582 67.8615 162.482 72.4475C185.021 98.9487 180.235 110.152 172.037 122.323Z" fill="#F1DFC5"/>
<path d="M130.536 37.208C134.391 46.3853 135.747 56.5977 134.535 66.3568C139.752 63.6807 144.968 61.0047 150.185 58.3286C151.385 57.7131 152.63 57.0603 153.425 55.9717C154.666 54.2751 154.522 51.9669 154.269 49.8806C153.501 43.5621 152.224 37.3056 150.453 31.1919C150.296 30.6494 150.06 30.0292 149.519 29.8675C149.14 29.7544 148.739 29.9123 148.376 30.0675C142.855 32.4243 137.334 34.7812 130.536 37.208Z" fill="#E8EAEB"/>
<path d="M151.013 33.1927C151.106 32.9495 150.396 30.1108 149.518 29.8675C148.062 29.4642 144.272 32.0835 133.725 36.0408C133.508 36.5212 133.836 36.8007 134.354 36.9012C134.871 37.0017 137.533 35.8741 138.016 35.6623C142.513 33.6902 146.114 35.441 151.013 33.1927Z" fill="#B6B6B6"/>
<path d="M130.536 37.2083C130.625 37.1652 131.679 36.7401 132.118 36.6367C132.267 36.8312 134.558 39.4578 135.365 41.2259C137.913 46.8146 135.872 53.1766 137.987 56.6585C140.626 61.0009 148.837 59.0204 148.837 59.0204L134.535 66.3572C134.535 66.3572 134.454 51.3278 134.322 50.7701C131.798 40.1198 130.765 37.7028 130.536 37.2083Z" fill="#B6B6B6"/>
<path d="M28.8805 66.2203L114.941 42.2812C114.941 42.2812 137.54 44.5662 138.011 46.1985C138.345 47.361 121.73 62.0817 121.73 62.0817L35.0069 84.2263L27.0989 80.3447L25.2129 73.665L28.8805 66.2203Z" fill="#7946C6"/>
<path d="M55.2707 64.6768C54.9571 64.73 49.2097 66.4635 48.9679 66.5472C47.5537 70.2979 46.2332 72.3328 43.1074 74.8505C43.4342 74.8158 48.7336 73.1628 49.0191 73.1143C53.6441 69.8017 53.428 68.6964 55.2707 64.6768Z" fill="#453075"/>
<path d="M27.0996 80.3448L48.4695 73.665C48.4695 73.665 37.6533 82.1664 32.936 84.754C32.6919 84.6032 27.0996 80.3448 27.0996 80.3448Z" fill="#453075"/>
<path d="M70.2949 60.3022L77.192 58.5933C77.192 58.5933 75.7385 60.8511 75.7385 62.8729C75.7385 64.1267 72.4873 62.2035 70.7774 62.1384C70.5322 62.1291 70.2949 60.3022 70.2949 60.3022Z" fill="#453075"/>
<path d="M106.856 50.7695C106.856 50.7695 106.425 52.8845 105.77 53.4783C105.325 53.8826 104.989 53.715 104.938 54.3146C104.893 54.8531 104.527 55.7276 103.873 55.7276C103.351 55.7276 103.031 55.496 103.031 55.496C103.031 55.496 102.434 56.2998 101.521 55.6991C100.884 55.2796 100.617 53.8668 100.524 53.8802C99.3577 54.0487 99.558 52.6254 99.558 52.6254L106.856 50.7695Z" fill="#453075"/>
<path d="M130.359 44.2186C125.14 43.1591 114.942 42.2812 114.942 42.2812L105.383 44.9402C105.383 44.9402 106.856 46.0879 106.856 50.7697C107.037 50.7355 112.59 49.3349 112.766 49.206C112.766 46.9138 113.227 44.377 113.855 44.377C114.113 44.377 112.258 50.4743 114.923 56.5976C118.967 56.0009 127.195 52.5404 129.66 49.4846C129.106 48.3578 129.026 47.3915 129.1 46.6084C129.174 45.8253 129.629 44.7158 130.359 44.2186Z" fill="#947EC6"/>
<path d="M28.8805 66.2206L50.9767 60.0742C50.9767 60.0742 50.5673 63.5171 48.9672 66.5472C48.8657 66.7395 33.1372 71.1974 25.2129 73.6653C26.2236 71.3388 28.8805 66.2206 28.8805 66.2206Z" fill="#947EC6"/>
<path d="M129.66 49.4846C130.279 49.9453 133.312 48.9058 134.035 48.6367C135.296 48.1675 137.3 46.185 137.413 45.7588C137.489 45.7613 137.971 46.0104 138.011 46.1986C138.186 47.0239 133.049 51.8891 132.787 51.946C131.518 52.2207 130.14 50.4753 129.66 49.4846Z" fill="#453075"/>
<path d="M114.923 56.5974C113.625 56.3883 78.4756 65.2803 78.4756 65.2803C78.4756 65.2803 81.9267 66.6372 82.6883 66.7705C83.738 66.9542 83.5394 71.6328 84.1682 72.4931C84.797 73.3535 97.2933 68.6214 97.2933 68.6214C97.2933 68.6214 121.449 62.4703 121.731 62.0815C118.806 61.3322 116.368 58.6213 114.923 56.5974Z" fill="#453075"/>
<path d="M99.5895 52.6173L77.1914 58.5934C77.1914 58.5934 81.9858 51.4999 88.8934 49.5293C89.2133 49.438 92.4097 48.5488 92.4097 48.5488C92.4097 48.5488 94.3221 49.3384 95.508 49.1519C96.6939 48.9655 97.9875 48.7434 98.9812 49.3035C98.9303 50.2131 99.5895 52.6173 99.5895 52.6173Z" fill="#947EC6"/>
<path d="M18.9339 115.651C17.3061 116.206 12.9809 117.676 12.9139 118.041C12.5811 119.858 13.9399 130.243 14.6393 132.036C14.8813 132.657 16.8828 132.63 17.5278 132.463C19.0261 132.076 19.8053 131.655 20.4224 130.236C20.8744 129.196 20.5932 127.991 20.2041 126.927C19.815 125.862 19.5231 125.374 19.5537 124.241C19.5844 123.107 19.976 121.999 21.15 121.71C20.2632 120.063 19.8903 117.351 18.9339 115.651Z" fill="#CCDCEE"/>
<path d="M11.9851 90.5956C10.4043 90.2573 5.95854 89.4362 5.73017 89.6967C4.59552 90.9914 0.62244 100.251 0.333502 102.023C0.233518 102.637 1.86456 103.578 2.46545 103.755C3.86144 104.165 4.692 104.203 5.86707 103.363C6.72775 102.748 7.0744 101.648 7.267 100.609C7.4596 99.569 7.45629 99.0376 8.02086 98.145C8.58543 97.2524 10.307 96.4028 11.3937 96.7363C11.4618 94.9904 11.9484 92.4168 11.9851 90.5956Z" fill="#CCDCEE"/>
<path d="M19.963 122.588C19.4981 123.391 19.4646 124.647 19.6785 125.456C19.8669 126.169 21.2599 128.635 20.3397 130.417C20.0179 131.04 19.6335 131.682 18.7901 132.037C18.001 131.039 17.6974 129.45 18.3098 128.336C18.5428 127.911 18.9017 127.511 18.9017 127.027C18.9017 125.487 18.1529 125.161 18.5415 123.904C18.7539 123.216 19.3735 122.678 19.963 122.588Z" fill="#E7F1FC"/>
<path d="M21.1119 121.736C20.7308 121.845 20.4393 122.052 20.15 122.323C19.8764 121.374 19.2759 120.459 18.4418 119.931C17.6078 119.402 16.451 119.327 15.6527 119.909C13.74 121.302 14.1139 129.104 17.1987 132.522C16.3665 132.623 14.8771 132.607 14.6282 132.169C14.0206 131.1 12.423 119.147 12.9135 118.041C13.0862 117.652 13.5248 117.536 13.9236 117.386C15.4055 116.829 16.8873 116.271 18.3691 115.714C19.2405 117.621 20.1119 119.529 21.1119 121.736Z" fill="#8AA0BC"/>
<path d="M10.2854 96.7619C9.88727 96.8347 9.76789 96.8302 9.36834 97.0481C9.13219 95.806 8.85258 94.6356 8.98889 93.3125C9.04016 92.8148 8.87022 92.3408 8.43786 92.0891C7.9393 91.7989 7.28293 91.9154 6.80196 92.2339C5.02463 93.411 1.42993 101.858 1.41396 102.552C1.40682 102.862 1.823 103.474 2.10098 103.612C1.74012 103.495 0.0332031 102.619 0.0332031 102.24C0.0332031 100.836 5.20967 90.0248 5.7302 89.697C5.87641 89.605 6.2434 89.6203 6.42003 89.655C8.01784 89.9685 9.18363 90.0401 10.7814 90.3536C10.2739 92.1117 10.1998 94.3897 10.2854 96.7619Z" fill="#8AA0BC"/>
<path d="M9.10115 97.1895C9.10115 97.1895 8.08445 96.789 7.59934 97.0415C7.11424 97.294 6.68376 97.6961 6.45948 98.1949C5.46054 100.416 5.46395 100.005 4.25205 100.936C3.56222 101.467 2.90172 102.99 2.90234 103.875C4.35916 104.214 5.97337 104.181 6.88602 101.986C7.18974 101.256 7.37722 100.182 7.47393 99.4522C7.69365 97.7939 9.10115 97.1895 9.10115 97.1895Z" fill="#E7F1FC"/>
<path d="M72.1441 55.7981C71.0388 65.2824 68.1891 72.1418 63.5725 79.7166C58.5833 87.9025 53.3909 95.5138 46.2876 102.705C39.1842 109.896 30.8438 115.84 20.6115 122.323C19.0544 117.894 16.5976 115.073 14.4305 111.169C22.2356 109.848 30.8407 104.741 36.6594 99.3738C39.8903 96.3935 46.3662 87.9884 50.9797 81.6492C40.9185 90.93 25.0019 96.5622 10.2849 96.7615C10.0661 92.7466 10.1881 92.9615 9.9601 88.947C9.89606 87.8194 9.27244 84.4508 9.2373 84.5641C17.1782 87.7909 25.3613 86.3047 32.5447 83.427C39.728 80.5492 48.0989 73.3855 53.1637 67.5349C58.716 61.1211 61.1159 58.1145 65.3552 51.6406C67.1296 53.6226 69.0561 55.0131 72.1441 55.7981Z" fill="#292F73"/>
<path d="M54.0734 93.79C48.0408 95.4911 43.1371 108.285 19.585 119.85C20.1502 121.091 20.4294 121.796 20.6115 122.323C20.6413 122.269 43.6226 109.044 54.0734 93.79Z" fill="#475196"/>
<path d="M66.5894 53.8301C68.385 54.8049 70.2199 55.0984 72.25 55.3289C72.1581 55.7849 72.0499 56.691 71.958 57.2539C70.2769 56.9648 68.6306 57.9122 68.0661 59.5219C66.8301 58.1928 66.2564 56.276 66.5894 53.8301Z" fill="#1D273D"/>
<path d="M55.618 64.6772C49.7276 71.4061 42.464 78.4803 35.4484 82.1194C28.4949 85.7263 17.5948 87.7465 9.2373 84.5643C9.77187 88.2201 9.71371 90.7941 10.1526 93.7954C15.0426 92.7423 20.2595 92.2479 25.2616 92.2494C27.4578 92.2501 29.6635 92.3528 31.8431 92.0835C35.4822 91.634 38.8541 90.0196 42.0628 88.2449C46.8612 85.591 50.8593 81.7048 50.898 81.7246C52.4324 79.1082 53.8999 76.3622 55.4812 73.7228C56.7905 75.0346 58.2723 76.2444 60.0314 76.828C61.7904 77.4117 63.876 77.2722 65.3062 76.0934C63.2848 75.6791 59.5633 73.7192 58.486 71.9593C57.4755 70.3084 55.618 64.6772 55.618 64.6772Z" fill="#1D273D"/>
<path d="M71.8769 57.8179C71.1527 58.3054 70.648 58.8603 70.238 59.631C69.8281 60.4018 69.5469 61.2332 69.2676 62.0603C69.7901 62.417 70.1052 62.981 70.651 63.3327C71.212 61.7649 71.5687 60.3144 71.8769 57.8179Z" fill="#475196"/>
<path d="M49.0849 84.2266C45.8121 88.4774 38.0052 100.243 27.7379 105.965C24.2497 107.909 18.8928 110.206 14.2793 111.176C15.3576 112.871 16.5817 114.834 17.6978 116.466C29.6193 110.252 39.3445 101.927 46.986 90.8659C48.1295 89.2106 49.9772 86.1051 49.0849 84.2266Z" fill="#1D273D"/>
<path d="M85.9086 71.2209C86.2833 71.1201 86.6579 71.0193 86.9273 70.8377C88.1886 69.1764 89.4499 67.5152 90.7113 65.854C90.8833 65.6274 91.0738 65.3877 91.3466 65.3071C91.7243 65.1954 92.1374 65.4473 92.3229 65.7948C92.5083 66.1423 92.5128 66.5574 92.4726 66.9492C92.3634 68.0144 91.0425 70.0844 91.0425 70.0844C91.0425 70.0844 95.1002 69.137 97.1857 68.7005C96.4964 70.0349 95.9576 71.0928 94.9974 72.2476C94.0371 73.4023 92.799 74.3747 91.3513 74.7744C89.0028 75.4228 86.3009 74.5372 84.168 75.7147C84.4782 74.1845 85.0562 72.7089 85.9086 71.2209Z" fill="#F6E8D4"/>
<path d="M91.0426 70.0846C91.0426 70.0846 90.8823 70.8374 91.1698 71.1249C91.5149 71.47 92.3054 71.6099 92.9465 71.0836C93.2771 70.8121 93.849 70.6555 94.288 70.9118C94.6391 71.1169 94.5977 72.1223 94.7863 72.4933C95.909 71.3707 97.2931 68.6216 97.2931 68.6216L91.0426 70.0846Z" fill="#C4B29B"/>
<path d="M85.567 71.2444C85.9477 71.1658 86.5698 71.0135 86.9274 70.8379C86.5445 71.602 86.6929 73.0903 87.1674 73.8011C87.4428 74.2137 87.8915 74.4859 88.363 74.6401C88.8345 74.7943 89.1262 74.9743 89.6181 75.0254C87.3876 75.2705 86.487 75.3902 83.8809 75.3902" fill="#C4B29B"/>
<path d="M98.625 46.8203C95.9865 47.7177 93.0384 48.424 92.1947 48.609C91.8902 48.6757 90.9319 48.5787 91.0536 47.6954C91.1232 47.1907 92.1064 47.1606 92.4999 46.8401C94.2032 45.4525 94.8795 44.9195 96.3863 43.8787C97.9122 42.8248 99.6252 42.3124 101.408 42.8215C103.055 43.2915 104.379 44.5785 104.883 46.5592C105.305 48.2188 105.156 49.9756 104.886 52.2011C104.757 53.2618 104.097 52.9888 104.117 53.1081C104.117 53.5333 104.245 53.5573 103.99 54.603C103.933 54.8399 103.772 55.0679 103.537 55.1334C103.303 55.199 102.906 55.0184 102.838 54.797C102.749 55.0943 102.621 55.4061 102.244 55.3723C101.935 55.3446 101.631 54.9945 101.457 54.7375C101.276 54.4702 100.977 53.2889 100.945 53.1561C100.623 53.3168 100.029 53.1783 99.7782 52.921C99.5273 52.6638 99.3997 52.3133 99.29 51.9711C98.7611 50.321 98.704 48.4632 98.625 46.8203Z" fill="#F6E8D4"/>
<path d="M98.625 46.8199C98.625 46.8199 97.8398 46.3535 97.4637 46.1136C97.0875 45.8737 96.6295 45.7305 96.1918 45.8168C95.8072 45.8927 95.4789 46.1338 95.1649 46.3684C94.0493 47.2015 93.5765 47.7156 92.4609 48.5487C95.5128 47.9447 98.625 46.8199 98.625 46.8199Z" fill="#C4B29B"/>
<path d="M64.7839 38.9865C69.7842 38.612 74.7862 37.2259 78.9323 34.4058C83.0784 31.5858 86.2999 27.2393 87.1843 22.3037C88.0687 17.368 86.3844 11.9089 82.4799 8.76281C78.5754 5.61677 72.4951 5.2496 68.5502 8.34478C66.8557 9.67422 65.6236 11.5078 63.9969 12.9193C62.3702 14.3308 60.0466 15.3064 58.0704 14.4503C55.7356 13.4388 55.063 10.5425 53.8919 8.28352C52.3603 5.3292 49.5779 3.12386 46.4638 1.95051C43.3498 0.777165 39.9254 0.581191 36.6252 1.00842C32.182 1.58362 27.6914 3.42748 24.9947 7.00536C22.298 10.5832 21.9509 16.1049 25.0146 19.374C27.8998 22.4526 32.6991 22.7363 36.8591 22.0319C38.8089 21.7018 41.2816 22.9532 43.1268 23.6646C45.1957 24.4622 47.0926 26.9635 48.1188 28.9291C49.6238 31.8116 49.978 32.632 52.1645 35.0389C54.3509 37.4458 57.4682 39.2461 60.7107 39.0018" fill="#282828"/>
<path d="M68.153 19.588C66.1933 22.9117 62.1225 24.5886 58.2654 24.4852C54.4083 24.3817 50.7448 22.7504 47.4618 20.7231C45.1713 19.3086 42.908 17.6481 40.2498 17.2224C37.4914 16.7807 34.7303 17.7344 32.0037 18.3424C29.2772 18.9505 25.9266 19.1708 23.7119 17.4681C24.7948 19.7436 27.0132 21.2079 29.0994 21.8037C31.1857 22.3995 33.197 22.533 35.8075 22.1862C37.9582 21.9004 40.2206 22.4041 42.2005 23.2914C46.6053 25.2653 47.9013 29.9369 50.8487 33.7594C54.5118 38.5101 60.7908 41.1052 66.553 39.8536C72.4602 38.5705 78.5135 35.6003 82.3286 31.531C81.7802 29.5294 82.2068 27.239 83.0942 25.363C78.1798 25.7615 73.1285 23.9886 68.153 19.588Z" fill="#0D0D0D"/>
<path d="M81.2737 12.9718C81.2737 12.9718 81.1768 12.0534 80.3726 12.5924C76.5601 15.1481 72.1055 15.9173 68.9609 15.6255C70.0838 16.1982 70.9703 17.1152 70.6996 17.9924C77.8911 17.1792 81.2737 12.9718 81.2737 12.9718Z" fill="#0D0D0D"/>
<path d="M74.1364 35.9707C76.097 35.803 77.7835 36.8588 79.1778 38.2472C82.5438 41.5991 84.9753 45.7372 86.0908 50.3063C82.6549 51.2379 79.0997 52.2289 75.7756 53.1756C75.5602 52.6265 74.9913 52.4744 74.4125 52.5877C73.8336 52.7011 73.2462 53.0625 72.5762 53.7325C74.6123 48.1641 74.2397 41.7222 73.7765 37.0914C73.7765 37.0703 74.1083 36.0538 74.1364 35.9707Z" fill="#EA9C47"/>
<path d="M74.0458 40.4067C78.7475 44.7663 81.4136 51.6076 81.4136 51.6076L75.7756 53.1759C75.7756 53.1759 75.6753 52.2828 73.8035 52.7983C73.3405 52.9258 72.9785 53.416 72.5762 53.7328C73.0543 51.8011 74.6124 48.4075 74.0458 40.4067Z" fill="#AF6A1D"/>
<path d="M85.9606 49.799C85.2133 49.6577 84.4279 49.1562 83.9471 48.5669C83.4662 47.9776 83.1206 47.2926 82.7483 46.6294C81.6259 44.6299 80.2295 42.7845 78.6104 41.1609C78.0995 40.6485 77.5504 40.1344 77.2911 39.4588C77.0319 38.7833 77.2483 37.5481 77.8649 37.127C81.8072 39.8718 84.7719 44.4278 85.9606 49.799Z" fill="#FCCA95"/>
<path d="M69.0075 36.3799C70.2765 37.4723 72.5734 37.5442 74.0956 36.8465C75.1584 41.7891 74.6348 47.1859 73.2998 52.0621C73.0741 52.8866 72.8309 53.83 73.3003 54.5444C73.5401 54.9095 73.9534 55.1847 74.0297 55.6147C74.1121 56.0791 73.7333 56.5277 73.287 56.6802C72.8407 56.8328 72.3514 56.7595 71.8899 56.6622C69.2106 56.0972 66.6997 54.7562 64.74 52.8437C64.2375 52.3534 63.752 51.7908 63.6138 51.1025C63.4458 50.2662 63.8196 49.4281 64.1591 48.6456C64.9878 46.7353 65.6638 44.7589 66.1785 42.7412C66.7847 40.3652 67.2472 37.7798 69.0075 36.3799Z" fill="#CCDCEE"/>
<path d="M73.0068 37.0829C73.7505 42.5104 71.0663 47.9453 71.3686 53.4153C71.4136 54.2302 71.4852 55.268 72.3881 55.7404C73.1113 56.1187 73.8339 55.9351 73.8339 55.1906C72.8106 54.1673 73.0294 53.473 73.1302 53.0562C73.5186 51.4488 73.9144 49.5747 74.3094 47.2363C75.0931 42.5976 74.73 39.9502 74.0959 36.8469C74.0058 36.4058 73.4595 36.8158 73.0068 37.0829Z" fill="#E7F1FC"/>
<path d="M68.7607 36.3799C69.6418 36.6848 70.0709 37.2253 71.0033 37.2326C71.3928 41.001 70.7648 43.7687 69.4489 47.3214C69.0328 48.4449 67.8383 50.486 67.7038 51.6766C67.5693 52.8671 68.7012 55.0224 69.5129 55.9408C67.3863 55.1207 66.0922 54.2253 65.2607 52.9102" fill="#8AA0BC"/>
<path d="M68.0665 34.9581C68.534 32.8373 69.952 27.4349 70.2123 26.5757C69.4229 25.2526 69.0484 24.6181 68.5623 22.6623C68.553 22.658 66.562 23.3412 65.894 20.6533C65.6155 19.5327 65.7768 18.3412 66.2365 17.2819C66.5333 16.5983 66.9562 15.9205 67.6228 15.5871C68.3214 15.2377 69.2266 15.3547 69.8135 15.8704C70.4003 16.386 70.8816 17.2686 70.7 17.9928C75.4717 17.4465 79.7312 15.1635 81.9118 12.1871C81.9075 12.1964 81.9032 12.2056 81.9879 12.1675C83.8115 14.7151 84.8035 17.788 84.5648 20.9119C84.326 24.0358 83.8403 26.0045 82.1432 28.6381C81.4691 29.6843 80.3319 31.0927 79.334 31.8366C78.0933 32.7614 77.2334 32.9507 75.3484 31.5876C74.9396 33.2866 74.6019 34.5554 74.2701 36.2053C74.2009 36.5491 74.1248 36.908 73.9023 37.1791C73.6322 37.508 72.2696 37.6499 71.5307 37.5495C69.6655 37.2961 68.92 36.7827 68.0665 34.9581Z" fill="#F6E8D4"/>
<path d="M75.3479 31.5877C75.3479 31.5877 72.6916 30.0884 71.1343 27.8037C70.8002 29.0895 70.7476 30.9553 71.6576 32.0891C72.8727 33.6032 74.8041 33.8143 74.8041 33.8143L75.3479 31.5877Z" fill="#C4B29B"/>
<path d="M68.291 34.4734C70.3674 36.483 69.847 39.8053 69.3178 42.6461C68.7885 45.4868 67.5569 48.1472 65.9489 50.637C66.7535 52.5217 67.0175 54.5868 67.5881 56.555C68.1588 58.5232 69.1375 60.5112 70.8965 61.5624C73.3027 63.0004 76.6297 62.3782 78.8262 64.1197C79.4862 64.643 79.9948 65.3501 80.7045 65.8035C81.4871 66.3034 82.4394 66.4487 83.2941 66.8114C85.0719 67.5658 86.3746 69.3371 86.5652 71.2589C86.7557 73.1807 85.8261 75.1733 84.231 76.262C82.7255 77.2897 80.8032 77.4926 78.9824 77.4064C77.1616 77.3202 75.3514 76.9774 73.5297 77.0412C71.1036 77.1263 68.7276 77.9308 66.3018 77.8412C62.0338 77.6836 58.2069 74.6495 56.3336 70.8114C54.4602 66.9733 54.4049 62.8066 55.1645 58.4796C51.5534 59.1227 48.6327 57.217 46.1477 55.1887C43.6627 53.1604 41.96 50.1971 41.4589 47.0288C41.1447 45.0419 41.3492 42.8392 42.6461 41.3015C43.2704 40.5612 44.2132 39.997 45.1713 40.1376C46.2678 40.2985 47.4334 40.7834 48.1603 41.6198C49.0695 42.6662 49.2761 43.129 50.6357 43.3993C51.7253 43.616 52.6536 43.4291 53.5401 42.7595C54.4266 42.0899 55.5057 41.1143 55.6361 40.0098C55.933 37.3074 57.8519 35.6215 60.2272 34.299C62.6025 32.9765 66.1961 32.446 68.291 34.4734Z" fill="#EA9C47"/>
<path d="M68.9518 44.2136C68.3141 44.1577 67.8524 43.3872 67.6641 42.7754C67.0952 40.9274 67.2902 38.2462 68.1819 38.0224C69.2479 37.7547 69.7871 39.0068 69.7871 39.0068C69.7871 39.0068 69.7301 41.2197 68.9518 44.2136Z" fill="#FCCA95"/>
<path d="M52.347 43.3666C51.2282 43.6096 49.9423 43.3527 49.061 42.622C48.5418 42.1915 48.441 41.8776 47.9581 41.4068C47.4752 40.9361 46.5491 40.3548 45.6904 40.2373C46.0634 41.5213 47.0086 42.8845 48.1555 43.572C49.3023 44.2595 50.8974 44.3148 52.347 43.3666Z" fill="#FCCA95"/>
<path d="M65.1514 45.6747C65.1514 43.0809 68.7536 43.9228 68.4821 45.6613C68.3794 46.3188 66.9088 49.3315 66.1103 50.3843C65.6727 48.8739 65.1514 46.0517 65.1514 45.6747Z" fill="#AF6A1D"/>
<path d="M54.9962 59.5293C55.6858 63.2347 56.8432 66.4424 58.7341 68.9038C60.625 71.3651 63.8769 72.1715 66.9766 72.0122C68.9321 71.9116 70.8116 71.0202 72.7669 71.1249C74.4633 71.2156 76.0205 72.045 77.5114 72.8595C79.0022 73.6741 80.5529 74.5115 82.2482 74.6209C83.9435 74.7303 86.0062 73.5151 86.5896 71.939C86.6707 74.2262 85.7979 75.8492 84.2858 76.7521C82.7737 77.6549 80.9257 77.7948 79.1677 77.6896C77.4097 77.5844 75.6611 77.2579 73.9011 77.3191C72.1475 77.38 70.424 77.7871 68.6748 77.9258C63.1493 78.364 59.5664 75.9704 56.9608 72.2666C54.3553 68.5628 53.6981 63.5856 54.9962 59.5293Z" fill="#AF6A1D"/>
<path d="M41.3379 45.0412C42.1849 46.8992 44.1671 48.2795 46.1592 48.7277C48.1513 49.1758 50.3404 48.641 51.9014 47.3247C53.4625 46.0085 54.3568 44.0628 54.3909 42.0495C55.545 40.8954 55.6179 40.1313 55.6179 40.1313C55.6179 40.1313 54.6937 52.216 55.0301 58.6092C55.0031 58.5596 50.8157 59.5084 45.9236 55.0013C42.3361 51.6962 41.1582 48.9812 41.3379 45.0412Z" fill="#AF6A1D"/>
<path d="M65.036 42.8198C65.8352 43.0393 65.3359 47.7498 66.5016 52.2043C67.2716 55.1464 68.1587 59.0872 69.8426 60.7395C71.3082 62.1775 72.5689 62.0672 74.5955 62.3968C77.772 62.9136 78.4628 63.8374 80.0022 65.2368C82.2323 67.2641 84.4756 65.8776 86.0914 69.5502C85.6797 68.6088 84.415 68.1655 83.3907 68.0849C82.3663 68.0043 81.3502 68.2615 80.3357 68.4248C79.3212 68.5881 78.2368 68.6491 77.309 68.2076C76.1158 67.64 75.3995 66.3479 74.219 65.7544C72.8933 65.0881 71.2961 65.4394 69.8382 65.1642C68.1248 64.8408 65.7962 63.6392 64.8497 62.1748C63.9032 60.7104 63.5383 58.2514 63.2043 56.5401C62.3869 52.3512 63.1878 42.3123 65.036 42.8198Z" fill="#FCCA95"/>
<path d="M157.957 103.392C159.471 103.143 160.677 102.043 161.98 101.234C163.284 100.425 165.059 99.9158 166.287 100.837C166.88 101.281 167.221 101.978 167.522 102.655C168.617 105.12 169.47 107.693 170.065 110.325C170.342 111.555 170.56 112.862 170.159 114.058C169.717 115.376 168.594 116.343 167.447 117.13C164.045 119.461 159.976 120.805 155.856 120.958C153.645 115.204 154.309 108.425 157.957 103.392Z" fill="#E8EAEB"/>
<path d="M119.455 80.6357C126.38 78.4371 133.488 76.8186 140.682 75.8027C139.59 79.1609 138.491 82.5507 138.136 86.0641C137.781 89.5776 138.224 93.2726 140.041 96.3005C140.867 97.6762 141.974 99.4236 141.002 100.701C140.385 101.512 139.233 101.622 138.22 101.73C132.724 102.321 127.473 104.963 123.724 109.023C117.159 101.319 115.365 89.8556 119.455 80.6357Z" fill="#E8EAEB"/>
<path d="M166.617 59.6259C163.763 67.1553 163.145 75.5167 164.861 83.3839C165.057 84.2821 165.347 85.2646 166.132 85.743C166.9 86.2115 167.882 86.037 168.762 85.8473C174.719 84.5629 180.677 83.2786 186.634 81.9942C183.808 73.6896 183.182 64.6467 184.701 56.0952C178.963 57.9764 172.968 59.0716 166.617 59.6259Z" fill="#E8EAEB"/>
<path d="M40.2855 0.801167C40.5311 1.0364 40.4979 1.41718 40.301 1.69449C40.1041 1.9718 39.7878 2.13571 39.4794 2.27906C38.0388 2.94871 36.5056 3.39447 35.0291 3.98088C33.5526 4.56728 32.1015 5.31772 31.0141 6.476C30.1636 7.38203 29.5742 8.49518 28.9513 9.57052C28.3284 10.6459 27.6418 11.7197 26.6582 12.4791C25.6746 13.2386 24.0131 13.7173 22.8447 13.2938C22.8349 6.49004 29.0208 3.27679 31.4273 2.32216C34.6247 1.05385 37.6168 0.643377 40.2855 0.801167Z" fill="#69686A"/>
<path d="M65.2487 11.6981C65.1019 14.074 62.9924 16.2397 60.7084 16.9104C58.4245 17.5812 56.0561 16.848 54.648 14.9287C53.584 13.4785 53.2505 11.8471 52.708 10.1323C51.9267 7.66316 50.5982 5.54373 49.2158 3.31738C52.7796 5.37899 53.4002 6.67617 54.6142 9.83626C55.9064 13.2003 57.6743 14.6218 58.9938 14.7185C62.2372 14.9563 64.451 12.5509 65.2487 11.6981Z" fill="#69686A"/>
<path d="M68.2734 8.56999C71.2013 6.20093 74.4284 5.32054 77.8567 6.19104C81.2851 7.06154 84.5077 9.81969 85.8284 12.9499C83.5515 12.7109 82.4124 11.4228 81.6143 9.25793C79.9267 10.6711 77.0734 10.8832 74.8812 10.686C72.6889 10.4889 70.8296 9.80888 68.2734 8.56999Z" fill="#69686A"/>
<path d="M140.362 44.0798C140.894 43.011 142.306 44.3436 142.306 44.3436C142.306 44.3436 142.488 43.674 142.62 43.3534C142.74 43.0603 142.943 42.7383 143.268 42.7983C143.642 42.8673 143.673 43.3174 143.611 43.6818C143.529 44.1578 143.394 45.1373 143.394 45.1373C143.394 45.1373 144.329 45.9035 144.91 46.3178C145.152 46.4902 145.421 46.7146 145.406 47.0115C145.388 47.3533 144.974 47.5562 144.638 47.4916C144.302 47.4269 142.87 46.4497 142.87 46.4497C142.87 46.4497 142.651 47.5211 142.413 48.0111C142.272 48.3018 142.027 48.5986 141.726 48.47C141.445 48.3499 141.465 48.0013 141.524 47.6957C141.658 46.9926 141.887 45.7589 141.887 45.7589C141.887 45.7589 140.076 44.6544 140.362 44.0798Z" fill="#453075"/>
<path d="M136.81 49.5868C136.737 49.348 136.595 49.0451 136.808 48.9155C137.03 48.7804 137.282 49.0295 137.434 49.2405C141.524 54.9161 150.366 50.9506 148.438 43.6353C147.169 38.8257 141.085 37.6606 138.35 40.3961C137.473 41.2723 136.851 42.3869 136.493 43.5729C136.412 43.8396 136.269 44.1698 135.99 44.1609C135.809 44.1552 135.666 43.9859 135.631 43.8081C135.595 43.6302 135.628 42.944 135.696 42.7762C139.228 34.1308 149.218 38.3727 149.589 44.5383C150.213 54.9322 138.263 54.3594 136.81 49.5868Z" fill="#453075"/>
<path d="M166.617 59.6261C166.969 59.4716 168.296 59.4658 168.296 59.4658C168.296 59.4658 165.035 71.4322 166.771 77.2062C167.285 78.9148 168.11 80.6344 169.593 81.6273C171.16 82.6771 173.166 82.7341 175.052 82.7556C178.501 82.795 182.26 82.1545 185.709 82.1938C179.908 83.4179 173.796 85.3218 167.994 86.5459C167.351 86.6816 166.644 86.809 166.066 86.4947C165.502 86.1877 165.223 85.5445 165.007 84.9397C163.573 80.9107 163.244 76.5412 163.656 72.2843C164.068 68.0274 164.71 63.5517 166.617 59.6261Z" fill="#B6B6B6"/>
<path d="M175.494 59.881C177.84 60.0402 180.546 59.8159 182.986 58.9456C183.09 62.5876 184.019 68.8737 184.019 68.8737L184.7 56.0952C184.7 56.0952 181.74 57.0256 181.31 57.1087C178.785 57.5961 172.932 58.8699 172.932 58.8699C172.932 58.8699 173.245 59.7284 175.494 59.881Z" fill="#B6B6B6"/>
<path d="M157.957 103.392C156.852 106.854 156.02 108.809 155.414 112.392C154.916 115.341 155.986 117.599 158.577 118.606C160.554 119.375 162.783 119.285 164.814 118.673C160.609 120.788 157.027 120.963 157.027 120.963C157.027 120.963 157.022 121.198 156.993 121.311C156.911 121.627 156.46 121.713 156.181 121.543C155.902 121.373 155.76 121.05 155.647 120.743C154.388 117.32 153.392 113.794 155.755 107.517C156.045 106.747 157.017 103.82 157.957 103.392Z" fill="#B6B6B6"/>
<path d="M138.8 82.1982C135.776 84.7695 131.536 84.7801 127.842 86.2361C126.753 86.6653 125.675 87.2453 124.976 88.1842C124.277 89.123 124.051 90.4917 124.698 91.4672C125.207 92.2338 126.121 92.6117 126.996 92.8988C128.539 93.4056 130.131 93.7638 131.743 93.9669C132.438 94.0544 133.146 94.1154 133.801 94.3626C134.457 94.6098 135.068 95.0783 135.3 95.7391C135.511 96.3371 135.382 97.0141 135.087 97.5751C134.791 98.1361 134.344 98.6003 133.889 99.0421C132.134 100.747 130.151 102.258 127.893 103.202C125.636 104.146 122.585 104.288 120.216 103.674C120.778 104.976 122.512 109.175 123.583 109.213C124.946 109.261 124.508 108.141 126.905 106.573C131.085 103.84 133.326 102.848 138.204 101.779C139.32 101.535 141.056 101.44 141.381 100.344C141.62 99.5435 141.143 98.27 140.752 97.5312C138.676 93.6035 137.585 90.1921 138.185 85.6182" fill="#B6B6B6"/>
<path d="M140.104 77.5957C133.173 79.1509 126.19 80.3453 119.156 81.3408C119.327 80.9354 119.424 80.3812 119.839 80.2356C120.259 80.0881 126.719 78.3403 133.42 76.8296C133.753 76.7545 140.368 75.4699 140.69 75.5833C141.012 75.6966 140.554 76.7581 140.104 77.5957Z" fill="#B6B6B6"/>
<path d="M164.637 100.345C166.343 102.437 167.853 105.429 168.428 108.066C169.004 110.704 168.911 113.623 168.537 116.297C169.78 115.465 170.753 113.6 170.753 112.082C170.753 108.417 168.897 104.828 167.025 101.678C166.694 101.122 166.02 100.333 164.637 100.345Z" fill="#B6B6B6"/>
<path d="M177.303 78.3061C176.633 77.746 175.524 77.8313 174.939 78.4801C174.354 79.1289 174.38 80.232 174.986 80.8607C175.592 81.4894 176.684 81.5589 177.372 81.0206C178.06 80.4823 178.426 79.2444 177.303 78.3061Z" fill="#7946C6"/>
<path d="M162.978 106.179C162.451 106.197 161.911 106.218 161.427 106.425C160.943 106.632 160.521 107.071 160.491 107.596C160.462 108.122 160.96 108.659 161.473 108.542C161.76 108.477 162.045 108.236 162.312 108.361C162.492 108.445 162.566 108.675 162.53 108.871C162.494 109.067 162.374 109.235 162.253 109.393C161.758 110.039 161.187 110.643 160.859 111.388C160.531 112.133 160.503 113.083 161.046 113.688C161.707 114.424 162.887 114.35 163.821 114.024C164.235 113.88 164.645 113.692 164.958 113.386C165.272 113.08 165.478 112.637 165.411 112.203C165.343 111.77 164.952 111.383 164.515 111.405C164.25 111.419 164.014 111.567 163.766 111.662C163.518 111.757 163.206 111.788 163.015 111.604C162.855 111.448 162.842 111.187 162.925 110.98C163.008 110.773 163.169 110.609 163.328 110.453C163.745 110.046 164.184 109.652 164.506 109.167C164.828 108.682 165.027 108.082 164.902 107.513C164.777 106.944 164.261 106.444 162.978 106.179Z" fill="#947EC6"/>
<path d="M163.987 115.632C163.71 115.224 163.077 115.139 162.676 115.426C162.275 115.714 162.143 116.301 162.341 116.753C162.539 117.204 163.026 117.499 163.519 117.514C163.829 117.523 164.151 117.425 164.364 117.2C164.577 116.975 164.654 116.615 163.987 115.632Z" fill="#947EC6"/>
<path d="M132.196 96.3506C131.66 96.0557 130.925 96.1883 130.525 96.6522C130.126 97.1161 130.104 97.8627 130.476 98.3489C130.848 98.8351 131.575 99.0095 132.126 98.7448C132.678 98.48 133.371 97.4363 132.196 96.3506Z" fill="#947EC6"/>
<path d="M125.707 84.0629C125.121 84.2411 124.504 84.4381 124.094 84.8938C123.685 85.3496 123.596 86.1523 124.075 86.5339C124.553 86.9139 125.252 86.6842 125.805 86.4261C126.358 86.168 127.029 85.8997 127.544 86.2284C127.863 86.4326 128.021 86.8283 128.025 87.2074C128.029 87.5864 127.9 87.9539 127.751 88.3026C127.309 89.3392 126.676 90.2902 126.285 91.3476C125.895 92.405 125.776 93.6477 126.353 94.6161C126.804 95.3726 127.625 95.8551 128.481 96.0591C129.763 96.3643 131.171 96.0843 132.238 95.3125C133.305 94.5406 134.012 93.2905 134.123 91.9783C134.157 91.58 134.126 91.144 133.868 90.8389C133.503 90.4076 132.805 90.4122 132.312 90.6878C131.818 90.9635 131.477 91.4409 131.139 91.8934C130.8 92.346 130.424 92.8066 129.901 93.0209C129.378 93.2352 128.671 93.1054 128.42 92.5993C128.173 92.1028 128.448 91.5166 128.718 91.0323C129.17 90.2212 129.623 89.4101 130.075 88.599C130.528 87.7873 130.995 86.913 130.92 85.9866C130.834 84.9302 130.004 84.0187 129.001 83.6741C127.999 83.3294 126.945 83.6871 125.707 84.0629Z" fill="#947EC6"/>
<path d="M176.745 63.0471C176.586 62.362 175.686 61.8433 175.154 62.3039C174.862 62.5567 174.803 62.9794 174.766 63.3636C174.374 67.448 174.394 71.5718 174.826 75.6521C174.895 76.3059 175.179 77.146 175.836 77.1191C176.498 77.092 176.707 76.221 176.725 75.5582C176.819 72.0941 176.905 63.7322 176.745 63.0471Z" fill="#7946C6"/>
</svg>
