<svg width="200" height="152" viewBox="0 0 200 152" fill="none" xmlns="http://www.w3.org/2000/svg">
<path d="M141.152 44.2948C132.225 46.7924 122.941 41.2144 116.69 34.2972C110.438 27.38 105.863 18.9174 98.8448 12.7994C89.0195 4.23403 75.1755 1.25557 62.3456 3.16254C49.5156 5.06951 38.9824 7.87099 28.8794 16.0987C18.6034 24.4672 8.26614 39.0241 5.76127 52.1302C3.25639 65.2364 11.14 82.1577 23.255 87.4352C30.7342 90.6933 36.6475 89.34 43.2965 95.3825C51.6782 103 48.0449 118.265 57.1255 127.912C63.1474 134.31 81.5033 134.202 90.0079 136.2C114.641 141.985 140.398 141.169 165.413 137.422C171.271 136.544 177.294 135.436 182.247 132.151C187.201 128.866 190.849 122.849 189.662 116.977C188.327 110.375 181.471 105.682 181.117 98.9527C180.691 90.8794 189.439 85.804 193.36 78.7599C198.99 68.6438 193.334 55.032 183.736 48.6723C174.138 42.3127 161.356 38.6426 141.152 44.2948Z" fill="#E9D2B1"/>
<path d="M91.7969 129.251C93.8439 131.786 94.9463 135.084 94.8405 138.356C94.7346 141.628 93.4213 144.846 91.2148 147.241C110.048 144.991 129.266 148.982 148.019 146.131C150.679 145.727 153.559 145.042 155.202 142.887C156.391 141.329 156.707 139.254 156.644 137.286C156.569 134.97 155.92 132.505 154.148 131.037C152.413 129.599 150.005 129.417 147.765 129.312C129.518 128.458 111.23 128.502 91.7969 129.251Z" fill="#FCDDC4"/>
<path d="M45.103 129.345C47.2278 131.573 48.414 134.69 48.3152 137.786C48.2165 140.881 46.8342 143.914 44.5898 146.298C61.1717 145.04 93.0635 146.021 92.5456 145.892C94.9988 143.872 96.8069 140.911 96.9696 137.715C97.1324 134.519 95.4282 131.173 92.535 129.882C90.8646 129.136 60.5936 128.711 45.103 129.345Z" fill="#FCCA95"/>
<path d="M46.4862 130.567L148.784 131.048C148.784 131.048 154.897 132.417 154.897 138.165C154.897 144.704 147.804 144.779 147.804 144.779L46.0811 144.552C46.0811 144.552 41.8367 144.401 42.1887 146.539C42.5924 148.989 46.0463 148.593 46.0463 148.593L148.422 148.292C148.422 148.292 159.03 149.041 159.03 138.366C159.03 126.965 148.289 127.355 148.289 127.355L46.3517 126.944C46.3517 126.944 43.6997 126.932 43.6997 128.812C43.6997 130.721 46.4862 130.567 46.4862 130.567Z" fill="#EA9C47"/>
<path d="M151.667 136.835H94.4626C94.3053 136.835 94.1777 136.706 94.1777 136.547C94.1777 136.387 94.3053 136.258 94.4626 136.258H151.667C151.824 136.258 151.952 136.387 151.952 136.547C151.952 136.706 151.824 136.835 151.667 136.835Z" fill="#FCCA95"/>
<path d="M150.09 139.971H93.6696C93.5123 139.971 93.3848 139.842 93.3848 139.683C93.3848 139.524 93.5123 139.395 93.6696 139.395H150.09C150.247 139.395 150.375 139.524 150.375 139.683C150.375 139.842 150.247 139.971 150.09 139.971Z" fill="#FCCA95"/>
<path d="M148.688 143.107H93.5368C93.3795 143.107 93.252 142.978 93.252 142.819C93.252 142.66 93.3795 142.531 93.5368 142.531H148.688C148.845 142.531 148.972 142.66 148.972 142.819C148.972 142.978 148.845 143.107 148.688 143.107Z" fill="#FCCA95"/>
<path d="M145.869 133.178H92.8649C92.7076 133.178 92.5801 133.049 92.5801 132.89C92.5801 132.731 92.7076 132.602 92.8649 132.602H145.869C146.027 132.602 146.154 132.731 146.154 132.89C146.154 133.049 146.027 133.178 145.869 133.178Z" fill="#FCCA95"/>
<path d="M119.705 135.857C119.722 136.72 116.86 135.369 115.661 140.237C115.12 142.436 114.922 145.008 115.253 147.241C115.248 147.229 115.244 147.217 115.262 147.129C113.914 145.97 112.96 144.348 112.65 142.603C111.705 143.79 111.068 145.508 111.262 146.942C110.188 144.981 109.91 144.056 109.997 142.318C110.085 140.581 110.533 138.536 111.271 136.965C111.495 136.487 111.75 135.995 112.183 135.698C112.647 135.38 113.238 135.339 113.798 135.324C115.586 135.274 119.693 135.285 119.705 135.857Z" fill="#292F73"/>
<path d="M150.23 104.535C147.426 106.597 146.077 110.283 146.228 113.788C146.378 117.293 147.859 120.622 149.754 123.36C133.964 126.717 117.586 125.9 101.581 123.833C98.2034 123.397 94.6154 122.808 92.0857 120.501C90.129 118.717 89.0505 115.99 89.2501 113.333C89.4497 110.675 90.9229 108.145 93.1235 106.68C95.6816 104.978 98.9069 104.768 101.967 104.687C106.889 104.556 111.814 104.62 116.737 104.685C127.313 104.825 137.89 104.964 150.23 104.535Z" fill="#EA9C47"/>
<path d="M47.0113 102.909L149.883 102.644C149.883 102.644 152.91 102.189 152.91 104.498C152.91 106.472 149.346 106.093 149.346 106.093C149.346 106.093 116.474 106.092 99.4017 106.398C99.4262 106.39 93.8846 106.789 93.8846 113.836C93.8846 121.594 99.8966 122.262 99.8966 122.262L148.901 122.738C148.901 122.738 152.021 122.495 152.25 125.118C152.456 127.487 149.193 127.387 149.193 127.387L46.3519 126.944C46.3519 126.944 40.7871 125.995 40.7871 114.346C40.7871 104.094 47.0113 102.909 47.0113 102.909Z" fill="#FCCA95"/>
<path d="M146.226 114.032H146.226L96.8482 113.976C96.7151 113.976 96.6073 113.866 96.6074 113.731C96.6076 113.597 96.7155 113.488 96.8484 113.488H96.8487L146.226 113.544C146.359 113.544 146.467 113.654 146.467 113.788C146.467 113.923 146.359 114.032 146.226 114.032Z" fill="#AF6A1D"/>
<path d="M146.553 117.453H100.514C100.381 117.453 100.273 117.344 100.273 117.209C100.273 117.074 100.381 116.965 100.514 116.965H146.553C146.686 116.965 146.794 117.074 146.794 117.209C146.794 117.344 146.686 117.453 146.553 117.453Z" fill="#AF6A1D"/>
<path d="M148.103 120.829H108.223C108.09 120.829 107.982 120.719 107.982 120.585C107.982 120.45 108.09 120.341 108.223 120.341H148.103C148.236 120.341 148.344 120.45 148.344 120.585C148.344 120.719 148.236 120.829 148.103 120.829Z" fill="#AF6A1D"/>
<path d="M146.64 110.406H100.02C99.8872 110.406 99.7793 110.297 99.7793 110.162C99.7793 110.028 99.8872 109.918 100.02 109.918H146.64C146.773 109.918 146.881 110.028 146.881 110.162C146.881 110.297 146.773 110.406 146.64 110.406Z" fill="#AF6A1D"/>
<path d="M94.2169 82.4867C96.2639 85.1699 97.3663 88.6607 97.2604 92.1241C97.1545 95.5875 95.8413 98.9935 93.6348 101.528C112.468 99.147 131.686 103.37 150.439 100.353C153.099 99.925 155.978 99.2009 157.622 96.9199C158.811 95.2701 159.127 93.0738 159.064 90.9909C158.989 88.5396 158.34 85.9309 156.568 84.3771C154.833 82.855 152.425 82.6632 150.184 82.5521C131.938 81.6474 113.65 81.6939 94.2169 82.4867Z" fill="#FCCA95"/>
<path d="M47.5248 82.5857C49.6497 84.9446 50.8358 88.2437 50.7371 91.5201C50.6384 94.7964 49.2561 98.0067 47.0117 100.529C63.5936 99.1985 95.4853 100.236 94.9675 100.099C97.4207 97.9623 99.2287 94.8277 99.3915 91.445C99.5543 88.0622 97.85 84.5212 94.9569 83.1543C93.2865 82.3651 63.0154 81.9155 47.5248 82.5857Z" fill="#EA9C47"/>
<path d="M48.9081 83.8798L151.206 84.3887C151.206 84.3887 157.319 85.8381 157.319 91.9217C157.319 98.8423 150.226 98.9222 150.226 98.9222L48.503 98.6812C48.503 98.6812 44.2585 98.5222 44.6106 100.784C45.0143 103.378 48.4682 102.958 48.4682 102.958L150.844 102.641C150.844 102.641 161.452 103.433 161.452 92.1346C161.452 80.0672 150.711 80.4798 150.711 80.4798L48.7736 80.0454C48.7736 80.0454 46.1215 80.0327 46.1215 82.022C46.1215 84.0425 48.9081 83.8798 48.9081 83.8798Z" fill="#AF6A1D"/>
<path d="M154.089 90.497H96.8845C96.7271 90.497 96.5996 90.3679 96.5996 90.2087C96.5996 90.0495 96.7271 89.9204 96.8845 89.9204H154.089C154.246 89.9204 154.373 90.0495 154.373 90.2087C154.373 90.3679 154.246 90.497 154.089 90.497Z" fill="#EA9C47"/>
<path d="M152.512 93.8163H96.0915C95.9342 93.8163 95.8066 93.6873 95.8066 93.528C95.8066 93.3688 95.9342 93.2397 96.0915 93.2397H152.512C152.669 93.2397 152.797 93.3688 152.797 93.528C152.797 93.6873 152.669 93.8163 152.512 93.8163Z" fill="#EA9C47"/>
<path d="M151.11 97.1357H95.9587C95.8014 97.1357 95.6738 97.0066 95.6738 96.8474C95.6738 96.6882 95.8014 96.5591 95.9587 96.5591H151.11C151.267 96.5591 151.394 96.6882 151.394 96.8474C151.394 97.0066 151.267 97.1357 151.11 97.1357Z" fill="#EA9C47"/>
<path d="M148.291 86.6264H95.2868C95.1295 86.6264 95.002 86.4973 95.002 86.3381C95.002 86.1789 95.1295 86.0498 95.2868 86.0498H148.291C148.449 86.0498 148.576 86.1789 148.576 86.3381C148.576 86.4973 148.449 86.6264 148.291 86.6264Z" fill="#EA9C47"/>
<path d="M146.503 42.2778C144.728 42.7175 142.822 42.3079 141.202 41.4516C139.582 40.5952 138.349 39.7251 137.103 38.3721C135.759 36.9124 134.376 34.9023 133.701 33.0276C133.026 31.1528 132.992 28.9607 133.994 27.2423C134.604 26.1956 135.853 24.9768 137.053 24.979C138.507 24.9816 139.487 26.5351 140.853 27.0384C142.224 27.5436 143.754 27.3279 145.154 26.9113C146.554 26.4948 148.122 25.7494 149.553 25.4607C152.797 24.8063 155.539 25.6413 158.084 27.779C161.715 30.8298 162.233 34.0022 162.284 37.3489C162.3 38.3604 162.205 39.3767 162.321 40.3814C162.438 41.3862 162.797 42.411 163.555 43.0706C164.519 43.9099 166.392 44.2295 167.031 45.3426C167.513 46.1809 166.926 47.1631 166.331 47.9234C165.737 48.6837 164.314 49.3712 163.418 49.7149C160.396 50.8741 157.496 50.6745 154.457 49.56C151.418 48.4455 148.798 46.2004 146.503 42.2778Z" fill="#B04734"/>
<path d="M147.161 34.8124C146.082 34.6232 144.426 33.5347 144.426 33.5347C144.426 33.5347 135.752 30.1165 134.865 26.1138C133.03 27.9144 132.755 31.056 133.65 33.4797C134.544 35.9035 136.905 38.3984 138.901 40.0146C141.541 42.1521 144.329 43.382 147.663 42.8139C149.111 46.3746 151.482 48.7843 155.975 50.1141C159.626 51.1948 165.132 49.8718 166.427 47.7984C163.654 48.4712 160.707 46.9847 159.025 44.6534C157.279 42.2328 156.584 39.7479 157.65 37.0705C156.215 35.9502 155.027 34.716 154.211 33.0777C152.478 34.0722 150.123 35.3317 147.161 34.8124Z" fill="#632D1B"/>
<path d="M162.281 38.0605C161.754 39.0049 161.342 39.9271 161.201 41.0023C161.059 42.0775 161.248 43.229 161.89 44.0979C162.41 44.8025 163.215 45.2853 164.075 45.4094C164.936 45.5335 166.033 45.4781 166.727 44.9486C166.052 44.2657 165.532 44.158 164.996 43.8728C164.152 43.4231 163.983 43.3687 163.555 42.9355C162.851 42.2232 162.608 41.4655 162.488 40.8503C162.239 39.5788 162.33 39.1861 162.281 38.0605Z" fill="#D87A64"/>
<path d="M139.365 26.1137C140.852 27.2721 142.642 27.5787 144.611 27.0598C146.456 26.5736 147.429 25.8871 149.552 25.4606C152.015 24.9659 154.545 25.2839 156.725 26.5445C158.904 27.8051 160.564 29.9921 161.488 32.3541C160.823 31.1846 159.949 30.0362 158.878 29.2318C158.522 28.9649 158.105 28.7114 157.666 28.7742C157.035 28.8647 156.515 29.5896 155.906 29.3982C155.424 29.2466 155.292 28.6403 155.051 28.1908C154.721 27.5724 154.073 27.1691 153.392 27.0258C152.712 26.8826 152.002 26.9748 151.332 27.162C149.277 27.7368 147.499 29.1832 145.391 29.5048C143.044 29.8629 140.788 28.8964 139.365 26.1137Z" fill="#D87A64"/>
<path d="M61.688 89.0841C64.7655 88.715 67.7185 87.3477 70.0066 85.2322C71.2018 84.1272 72.2548 82.7398 72.4789 81.1171C72.703 79.4945 71.8567 77.6435 70.3029 77.1834C68.7862 76.7343 67.2338 77.6653 65.6644 77.8529C62.6816 78.2095 59.9685 75.8721 56.9661 75.7861C54.8864 75.7266 52.9195 76.7634 51.2684 78.0445C50.2737 78.8164 49.3443 79.6974 48.661 80.7609C47.9778 81.8244 47.5517 83.0856 47.6205 84.3523C47.7025 85.8608 48.4583 87.232 49.095 88.5985C49.7317 89.9651 50.2731 91.4992 49.8992 92.9619C49.6614 93.8918 49.062 94.8308 49.3768 95.7369C49.6349 96.4796 50.4661 96.8976 51.2438 96.883C52.0215 96.8684 52.7506 96.5068 53.4147 96.0969C55.1727 95.0117 56.6873 93.525 57.8128 91.7797C58.4312 90.8208 59.036 89.4022 61.688 89.0841Z" fill="#62472A"/>
<path d="M60.1628 76.5383C60.1628 76.5383 56.7373 76.2511 55.119 76.8534C53.8268 77.3343 52.6751 78.4782 52.6079 79.87C52.5883 80.2764 52.6436 80.7367 52.3748 81.0394C52.11 81.3377 51.6598 81.3363 51.2672 81.3903C50.1832 81.5392 49.2535 82.2064 48.7751 82.8453C47.6627 84.3313 47.876 85.746 47.876 85.746C47.876 85.746 45.5541 81.8764 51.1711 77.8404C56.3622 74.1104 60.1628 76.5383 60.1628 76.5383Z" fill="#7D5C39"/>
<path d="M61.7637 77.1559C61.7972 78.6704 64.4068 79.5909 65.531 79.6543C66.6646 79.7183 69.1414 79.1271 69.2836 77.0654C67.1828 76.8871 66.3588 78.9219 61.7637 77.1559Z" fill="#7D5C39"/>
<path d="M72.3091 79.3125C72.3091 79.3125 70.7954 81.5391 68.1495 83.4631C68.09 83.5064 64.8242 84.9376 64.8242 84.9376C64.8242 84.9376 51.6974 90.5901 51.6703 90.6599C51.2315 91.7918 50.0085 91.6026 50.0085 91.6026C50.0085 91.6026 50.2046 92.2968 49.4779 94.2101C49.3746 94.482 48.6937 96.0736 50.5083 96.7696C51.7144 97.2323 53.9128 97.0275 56.7817 93.3502C59.5407 89.8139 65.8524 87.9438 65.8524 87.9438C65.8524 87.9438 67.2942 87.626 69.0107 86.3334C73.7759 82.745 72.3091 79.3125 72.3091 79.3125Z" fill="#4D351D"/>
<path d="M57.7525 84.7375C61.7227 86.2362 66.2744 85.2761 69.6281 82.3263C69.803 82.1725 69.9722 81.9998 70.0597 81.7826C70.1471 81.5654 70.1282 81.2875 69.9554 81.1312C69.6721 80.875 69.2036 81.0203 68.717 81.2582C65.9685 82.6021 64.946 83.7593 61.9023 83.9936C61.1166 84.054 56.8715 83.7878 57.7525 84.7375Z" fill="#7D5C39"/>
<path d="M61.2423 98.1154C61.1811 96.5328 61.0885 96.0753 61.0885 96.0753C61.0885 96.0753 62.7343 96.8961 63.8027 96.2749C64.6255 95.7965 65.4264 94.8934 65.8307 94.0245C66.235 93.1556 66.3075 92.4135 66.3522 91.4541C66.4767 88.7821 64.8288 84.9357 64.8247 84.9376C62.5619 85.5489 60.0781 85.4529 57.8214 84.7378C57.199 86.5311 55.5494 87.5711 53.72 88.2114C53.4433 87.7074 52.5638 87.5422 52.0474 87.7855C51.531 88.0287 51.3455 88.5525 51.2925 89.1265C51.2394 89.7004 51.4197 90.1851 51.6884 90.6934C51.9713 91.2288 52.3592 91.6251 52.8829 91.921C53.9145 92.504 54.6732 91.5676 54.6732 91.5676C54.6732 91.5676 56.5666 93.8867 56.2694 98.0522C56.2501 98.3236 56.3076 98.1528 56.3854 98.4131C56.5337 98.9088 57.0336 99.2056 57.5188 99.37C58.6147 99.7413 59.8499 99.6717 61.2423 98.1154Z" fill="#DDB285"/>
<path d="M135.418 104.667C135.293 104.172 135.165 103.67 134.905 103.233C134.645 102.796 134.228 102.426 133.729 102.35C133.333 102.29 132.756 102.351 132.384 102.501C131.525 102.848 130.893 103.391 130.168 103.971C130.071 103.523 129.975 103.075 129.871 102.602C129.481 102.891 129.032 103.084 128.586 103.272C128.141 103.46 127.805 103.632 127.409 103.912C127.013 104.192 126.556 104.592 126.416 105.06C126.276 105.528 126.37 106.083 126.724 106.415C127.078 106.747 127.7 106.776 128.028 106.421C127.758 106.957 127.97 107.689 128.4 108.033C128.744 108.839 128.304 109.803 127.637 110.365C126.969 110.927 126.118 111.199 125.321 111.546C124.523 111.893 123.716 112.372 123.333 113.16C122.976 113.892 123.05 114.754 123.132 115.566C123.174 115.983 123.238 116.443 123.553 116.715C123.922 117.033 124.564 117.049 125.032 116.924C125.5 116.798 126.418 116.774 126.418 116.774C126.418 116.774 125.759 118.361 127.345 119.846C127.79 120.263 128.449 120.747 129.018 120.531C129.32 120.417 130.403 119.102 130.631 118.872C133.519 115.964 135.404 113.75 137.958 110.539C138.222 110.207 138.498 109.834 138.483 109.409C138.462 108.82 137.914 108.419 137.468 108.04C136.438 107.167 135.737 105.935 135.418 104.667Z" fill="#CCDCEE"/>
<path d="M71.5061 116.552C75.3911 116.333 79.4218 116.85 82.8009 118.802C83.7055 119.325 84.6374 120.084 84.717 121.135C84.7761 121.916 84.3229 122.666 83.7159 123.151C83.1088 123.637 82.3628 123.904 81.6274 124.148C76.2928 125.917 70.7417 126.907 65.0799 127.96C65.6954 128.412 65.3953 129.495 64.7261 129.86C64.0568 130.225 63.2408 130.095 62.4942 129.95C55.891 128.668 51.6637 128.458 43.4037 123.627C41.8693 122.73 40.3413 121.788 39.0712 120.538C36.9706 118.469 34.7427 113.797 36.5292 112.08C37.4741 111.172 39.5283 111.265 40.8209 111.431C42.1135 111.597 44.7463 111.153 45.9353 111.693C48.7682 112.978 51.2457 113.409 54.0506 114.748C60.1329 115.707 65.4007 116.895 71.5061 116.552Z" fill="#CCDCEE"/>
<path d="M150.74 53.1827C147.309 58.9006 146.137 65.9646 147.533 72.5032C145.692 71.3086 143.929 69.9904 142.26 68.5602C144.098 67.1688 144.998 64.8555 145.582 62.6085C146.538 58.9267 146.884 55.0831 146.599 51.2871C147.559 52.6369 149.31 53.3596 150.74 53.1827Z" fill="#8AA0BC"/>
<path d="M132.457 102.556C132.665 104.174 133.63 105.698 134.637 106.972C135.033 107.473 135.46 107.977 135.635 108.593C135.956 109.722 135.359 110.893 134.729 111.88C132.747 114.986 130.558 117.868 127.654 120.114C128.412 120.737 129.001 120.825 129.477 120.585C129.553 120.546 130.503 119.535 130.982 118.968C133.16 116.387 135.338 113.807 137.515 111.226C137.8 110.889 138.089 110.546 138.276 110.145C138.463 109.743 138.636 109.449 138.483 109.033C138.301 108.54 137.747 108.039 137.356 107.691C136.62 107.036 136.057 106.183 135.741 105.244C135.564 104.719 135.463 104.169 135.266 103.651C135.069 103.133 134.978 102.813 134.497 102.546C134.017 102.279 133.366 102.115 132.457 102.556Z" fill="#8AA0BC"/>
<path d="M130.057 102.728C130.17 103.142 130.115 103.572 130.228 103.987C129.492 104.419 130.594 104.004 130.278 104.803C130.158 105.106 128.405 106.692 128.669 106.877C128.946 107.072 129.073 107.003 129.405 107.062C129.741 107.123 130.358 107.483 130.591 107.863C130.908 108.381 130.971 108.624 130.983 109.233C130.997 109.953 130.624 110.63 130.149 111.165C129.673 111.7 129.092 112.127 128.57 112.615C127.364 113.74 126.455 115.259 126.316 116.912C125.759 116.912 124.253 117.21 123.834 117.052C123.449 116.907 123.184 116.49 123.184 115.954C123.749 116.325 124.702 116.002 125.155 115.498C125.609 114.993 125.841 114.33 126.182 113.742C126.656 112.924 127.34 112.255 128.019 111.601C128.401 111.234 128.789 110.863 129.069 110.411C129.349 109.959 129.514 109.409 129.406 108.887C129.298 108.365 128.698 107.831 128.172 107.788C127.603 107.211 128.009 106.463 128.009 106.463C128.009 106.463 127.581 106.801 127.301 106.716C127.021 106.631 126.906 106.578 126.724 106.416C127.22 106.324 127.701 106.281 127.946 105.272C128.029 104.926 127.792 104.227 127.409 103.912C128.3 103.339 129.137 102.788 130.057 102.728Z" fill="#8AA0BC"/>
<path d="M146.264 56.3087C147.131 55.6401 147.988 54.8784 148.534 53.9233C148.873 54.0513 149.11 54.1056 149.393 54.1775C148.433 55.5644 147.484 56.9456 146.173 57.9971C146.124 57.5354 146.076 57.0738 146.264 56.3087Z" fill="#CCDCEE"/>
<path d="M146.771 52.5635C147.249 53.126 147.855 53.6583 148.548 53.9005C148.009 54.8934 147.213 55.7421 146.262 56.3391C146.313 55.1686 146.497 53.9018 146.771 52.5635Z" fill="#E7F1FC"/>
<path d="M131.44 103.047C131.563 102.979 131.792 102.977 131.9 103.067C132.009 103.158 132.03 103.324 131.988 103.46C131.946 103.596 131.853 103.709 131.763 103.818C131.013 104.724 130.262 105.631 129.512 106.538C129.348 106.735 129.149 106.951 128.894 106.947C128.606 106.943 128.392 106.636 128.387 106.344C128.382 106.052 128.529 105.781 128.687 105.537C129.404 104.432 130.244 103.713 131.44 103.047Z" fill="#E7F1FC"/>
<path d="M127.24 110.655C127.056 111.274 126.58 111.998 126.06 112.372C125.539 112.745 124.945 112.997 124.357 113.246C124.006 113.395 123.561 113.601 123.184 113.554C123.419 112.758 124.094 112.026 124.851 111.704C125.634 111.371 126.667 111.026 127.24 110.655Z" fill="#E7F1FC"/>
<path d="M130.966 109.536C131.016 109.261 131.526 109.291 131.719 109.49C131.912 109.69 131.986 109.931 131.961 110.208C131.88 111.081 131.372 111.857 130.774 112.49C130.176 113.124 129.478 113.655 128.886 114.293C128.293 114.932 127.796 115.718 127.736 116.592C127.706 117.023 127.784 117.456 127.742 117.886C127.699 118.316 127.495 118.773 127.097 118.929C126.637 119.111 126.493 118.763 126.414 118.436C126.214 117.608 126.264 117.149 126.372 116.508C126.6 115.156 127.255 113.881 128.218 112.916C128.754 112.38 129.377 111.941 129.922 111.414C130.467 110.887 130.831 110.27 130.966 109.536Z" fill="#E7F1FC"/>
<path d="M61.0869 96.0754C61.0869 96.0754 58.8918 95.273 57.2372 93.3302C57.1897 93.2745 57.1019 93.4812 57.093 93.5855C56.9799 94.9029 57.7354 96.7584 59.824 97.7885C60.2762 98.0115 60.7815 97.9253 61.2217 97.6791C61.178 96.7465 61.0869 96.0754 61.0869 96.0754Z" fill="#B58E63"/>
<path d="M77.459 96.1355C78.2488 94.2321 79.041 92.3218 79.5754 90.3295C80.1097 88.3371 80.3815 86.2474 80.1118 84.2011C80.046 83.7019 79.8151 83.3282 79.9135 82.8346C79.9828 82.4873 80.279 82.0328 80.4207 81.7088C81.4163 79.4319 81.3936 76.8511 81.3537 74.3615C81.5098 74.186 81.8045 74.2093 81.9907 74.3516C82.1769 74.4939 82.2783 74.7205 82.3616 74.9411C82.7939 76.0864 82.9372 77.342 82.7742 78.5569C83.4193 78.8406 83.9047 79.4686 84.0215 80.1707C84.3691 79.8171 84.809 79.6494 85.0923 80.0576C85.3755 80.4658 85.3777 80.8687 85.0778 81.5051C85.6757 82.1404 85.4758 83.3502 84.7767 83.8691C84.9478 84.6694 84.6382 85.5552 84.008 86.0686C83.748 86.2804 83.4376 86.4347 83.2238 86.6941C82.8593 87.1364 82.8586 87.7679 82.858 88.3438C82.854 92.2088 82.0178 96.0708 80.4244 99.5833" fill="#DDB285"/>
<path d="M77.8809 96.5375C78.6339 96.5625 79.3536 96.1468 79.8473 95.5708C80.341 94.9948 80.6367 94.2728 80.8625 93.5453C81.5274 91.4031 81.6497 89.1316 81.7218 86.8874C81.727 86.7258 81.7475 86.5361 81.8853 86.4544C82.0422 86.3613 82.2339 86.4704 82.4018 86.5408C82.7572 86.6899 83.1029 86.729 83.4145 86.5059C82.7607 87.2493 82.8497 88.2749 82.8336 89.27C82.7787 92.6838 81.9906 95.8932 80.7604 98.814C79.9352 98.4239 78.9856 98.2031 78.4025 97.4951" fill="#B58E63"/>
<path d="M84.6206 84.7596C84.1004 85.1073 83.6131 85.2325 82.99 85.2121C82.6975 85.2025 82.4151 85.108 82.1375 85.0144C81.8234 84.9085 81.4611 84.7505 81.3944 84.4222C81.338 84.1446 81.5375 83.8692 81.7831 83.733C82.0287 83.5968 82.3144 83.5622 82.5874 83.4991C83.6741 83.2479 84.258 82.4429 85.0789 81.5049C85.4324 81.6362 85.668 82.3506 85.5656 82.8222C85.4633 83.2938 85.1691 83.5902 84.7778 83.8689C84.8321 84.1492 84.8662 84.5955 84.6206 84.7596Z" fill="#B58E63"/>
<path d="M84.0224 80.1709C83.1197 80.9611 82.001 81.5324 80.846 81.7299C80.7937 81.1566 81.2395 80.2 81.5509 79.7183C82.0572 78.935 82.7751 78.5571 82.7751 78.5571C82.7751 78.5571 83.1391 78.6768 83.4148 78.9559C83.8533 79.3997 83.9896 79.8107 84.0224 80.1709Z" fill="#B58E63"/>
<path d="M62.1064 101.055C61.9083 100.022 61.7101 98.9892 61.512 97.9564C61.4982 97.8848 61.4827 97.8095 61.4348 97.755C61.3233 97.6284 61.1208 97.6854 60.9643 97.7459C59.6033 98.2722 58.0647 98.3138 56.6779 97.8617C56.5018 97.8043 56.2927 97.7441 56.1457 97.8579C56.0151 97.959 56.0002 98.1493 55.9988 98.3157C55.9915 99.1509 56.0382 99.9865 56.1384 100.815C56.1812 101.169 56.2451 101.546 56.4886 101.803C56.7382 102.067 57.1189 102.145 57.4745 102.208C58.3086 102.356 59.1585 102.497 59.9985 102.389C60.8386 102.282 61.6817 101.889 62.1064 101.055Z" fill="#CCDCEE"/>
<path d="M57.8562 98.1234C57.5106 98.3918 57.0825 98.9576 57.7434 100.181C58.1373 100.909 58.8509 101.66 61.4644 101.518C60.8376 102.066 59.9672 102.28 59.1424 102.202C58.3176 102.124 57.5354 101.774 56.8465 101.308C56.5311 101.095 56.2638 100.652 56.1664 101.023C56.1478 101.094 56.0089 100.043 55.9974 99.7788C55.976 99.2897 55.9107 98.7326 55.9164 98.243C55.9183 98.0738 56.1434 97.814 56.2852 97.7654C56.6665 97.6347 57.383 97.8096 57.8562 98.1234Z" fill="#8AA0BC"/>
<path d="M62.8472 128.106C59.9026 127.795 56.987 127.203 53.6856 126.226C50.7272 125.35 44.0509 123.477 40.1349 119.446C38.4484 117.71 37.4985 116.265 36.8613 114.988C36.292 113.848 36.2564 112.411 36.2564 112.411C36.2564 112.411 35.6602 113.126 35.9586 114.771C36.1608 115.885 36.0574 116.255 37.7145 118.941C39.7428 122.228 46.663 125.56 51.2818 127.394C55.6703 129.137 61.4643 129.755 61.4643 129.755C61.4643 129.755 62.2591 129.589 62.8472 128.106Z" fill="#8AA0BC"/>
<path d="M61.9026 99.99C61.9026 99.99 60.7208 99.9987 60.2564 99.7145C59.792 99.4303 59.4461 98.9543 59.3079 98.3984C59.288 98.3141 59.2461 98.1457 59.2461 98.1457C59.2461 98.1457 60.1697 98.0303 60.4564 97.917C60.6437 97.8429 61.0063 97.6666 61.2219 97.6788C61.556 97.6977 61.5095 97.9329 61.5446 98.1104C61.7516 99.1552 61.9026 99.99 61.9026 99.99Z" fill="#E7F1FC"/>
<path d="M156.803 83.7015C157.543 85.8546 158.196 86.7583 158.069 89.5361C158.024 90.5176 157.862 91.2457 158.403 92.0614C158.755 92.5914 159.124 93.0283 159.63 93.7902C159.766 93.9964 159.91 94.796 160.097 94.9573C160.393 95.2133 160.801 94.8759 160.939 94.507C161.077 94.138 161.104 93.5921 160.997 93.2129C161.388 94.5233 161.462 94.9503 161.94 96.6471C162.016 96.9172 162.406 97.7975 162.632 97.9594C162.859 98.1212 163.437 98.1339 163.606 97.9116C163.717 97.7674 163.677 96.7606 163.677 96.5784C163.676 94.5616 163.781 93.3087 163.201 91.379C162.094 87.6876 160.386 84.8253 160.065 81.9468C160.065 81.9468 158.697 82.7074 156.803 83.7015Z" fill="#EDD2B4"/>
<path d="M130.932 48.0322C129.669 45.2682 128.387 42.4342 128.124 39.4005C127.993 37.8936 128.554 36.5757 128.421 35.0498C128.302 33.6811 128.012 33.2769 129.151 30.8861C129.362 30.4435 129.701 29.95 129.47 29.5174C129.331 29.2556 129.017 29.1228 128.724 29.1373C128.43 29.1518 128.156 29.2912 127.916 29.4629C127.352 29.8661 126.93 30.4672 126.738 31.1383C126.67 31.3785 126.629 31.6306 126.509 31.8494C126.39 32.0682 126.165 32.2527 125.919 32.2304C125.763 32.2163 125.404 31.7637 125.266 31.689C124.587 31.3227 123.942 31.7362 123.283 32.1376C122.625 32.5389 122.18 33.2603 122.057 34.0286C121.929 34.8286 122.13 35.649 122.438 36.397C122.77 37.2035 123.237 37.9674 123.889 38.539C124.225 38.8333 124.389 39.0783 124.659 39.4358C124.969 39.8474 125.327 40.9071 125.446 41.4108C126.186 44.5513 126.784 46.8373 127.525 49.9778C128.375 49.3465 129.473 49.188 130.932 48.0322Z" fill="#EDD2B4"/>
<path d="M144.426 33.5346C143.522 35.6606 143.27 38.4984 143.27 41.1402C143.27 41.9372 143.347 43.3704 143.628 44.115C143.909 44.8595 144.38 45.579 145.084 45.9377C145.677 46.2404 146.386 46.3137 147.326 46.0805C147.27 47.2829 147.186 48.6999 146.8 50.8171C146.71 51.308 146.488 51.802 146.624 52.2815C146.729 52.648 147 52.9415 147.291 53.1847C148.818 54.464 151.156 54.6387 152.852 53.6002C152.259 51.1755 152.151 48.7652 152.537 46.2979C152.658 45.523 152.978 43.5769 152.978 43.5769C152.978 43.5769 153.929 42.8625 154.572 41.9169C155.022 42.6104 155.974 42.7755 156.688 42.3686C157.403 41.9617 157.987 41.3005 158.347 40.5549C158.632 39.9654 158.753 39.2481 158.756 38.5919C158.76 37.9356 158.462 37.2413 157.884 36.9434C157.307 36.6454 156.454 36.8162 156.138 37.3912C154.827 36.0644 154.132 33.9089 154.212 33.0776C154.212 33.0776 147.525 35.0624 144.426 33.5346Z" fill="#EDD2B4"/>
<path d="M141.123 31.9719C140.872 31.8208 140.671 31.6875 140.784 31.4153C140.905 31.1258 141.33 31.2259 141.608 31.3659C145.445 33.2981 150.066 33.5216 154.101 32.0613C154.248 32.008 154.758 31.953 154.911 32.1078C155.327 32.5286 154.731 32.9203 154.339 33.0779C151.782 34.1057 149.069 34.2354 146.73 34.0813C144.391 33.9272 142.341 32.706 141.123 31.9719Z" fill="#D87A64"/>
<path d="M147.243 46.1007C148.713 45.867 149.917 45.4401 151.423 44.3313C151.49 44.2819 151.796 45.7592 150.099 47.5684C149.287 48.4344 148.232 48.9291 147.066 49.1144C147.15 48.2983 147.316 47.4173 147.243 46.1007Z" fill="#D1B496"/>
<path d="M157.113 84.6048C157.769 86.0011 158.088 87.5582 158.034 89.1033C158.009 89.8052 157.917 90.6932 158.092 91.3727C158.375 92.4667 159.522 93.4756 159.952 94.7552C160.001 94.9013 160.052 95.0659 160.186 95.1388C160.304 95.2027 160.456 95.1714 160.564 95.0918C160.672 95.0121 160.726 94.8817 160.802 94.7704C161.236 94.1345 161.008 93.3097 161.025 93.3039C160.679 92.0629 159.618 90.5622 158.749 89.5982C157.982 88.747 157.9 87.9822 158.259 86.8887C158.618 85.7952 159.655 84.9193 160.791 84.8925C160.664 84.4241 160.538 83.9557 160.411 83.4873C159.625 83.7003 158.827 83.8691 158.022 83.9929" fill="#D1B496"/>
<path d="M128.496 48.3679C126.988 45.6424 126.169 42.5308 126.08 39.3907C126.735 38.811 127.181 37.9938 127.316 37.1239C127.476 36.0909 127.211 35.045 127.136 34.0021C127.07 33.0741 127.161 32.1219 127.514 31.263C127.867 30.4041 128.466 29.6535 129.331 29.3405C128.918 28.9226 128.121 29.2088 127.656 29.6117C127.19 30.0146 126.909 30.4515 126.764 31.0537C126.711 31.2742 126.596 31.6546 126.59 31.6686C126.505 31.8785 126.263 32.2189 126.039 32.2078C125.602 32.186 125.583 31.6741 124.943 31.5698C125.544 32.2427 125.834 32.894 126.194 33.7248C126.494 34.4188 126.748 35.349 126.712 36.1058C126.676 36.8626 126.495 37.8035 125.877 37.9684C125.295 38.1235 124.175 38.0419 123.667 37.5273C122.771 36.6208 122.87 36.753 122.186 35.6696C122.444 36.7204 122.946 37.7992 123.692 38.5756C123.995 38.8914 124.215 38.8224 124.468 39.1804C124.834 39.6978 125.16 40.4596 125.311 41.0769C126.019 43.9553 126.655 46.8521 127.216 49.7634C127.398 49.6634 127.58 49.5634 127.762 49.4635" fill="#D1B496"/>
<path d="M145.731 49.5262C144.827 48.6164 143.452 48.3177 142.261 48.7769C141.46 49.0859 140.7 50.0404 140.084 50.6449C139.469 51.2493 138.848 51.6525 138.075 52.0273C137.301 52.402 136.125 52.0269 135.421 51.5313C134.813 51.1038 134.373 49.9987 133.968 49.3718C133.038 47.9284 131.316 47.5859 129.616 47.6807C127.916 47.7754 126.878 48.9571 126.11 50.4952C125.309 52.0974 125.407 55.8234 126.354 57.8103C127.126 59.4284 127.815 60.8287 129.668 62.9662C129.861 63.1882 130.078 63.4086 130.316 63.6264C133.288 63.7908 136.108 63.5797 139.005 62.6602C139.358 62.5483 140.834 62.0227 141.2 62.0716C141.567 62.1206 141.926 62.3974 141.908 62.7709C141.85 63.9498 140.208 64.1254 139.856 64.3434L130.319 63.6292C133.479 66.5226 140.316 68.9373 142.608 67.92C145.286 66.5321 147.018 58.0013 147.018 53.3387C147.018 51.9717 146.688 50.4903 145.731 49.5262Z" fill="#EA9C47"/>
<path d="M143.269 67.5995C144.183 66.5009 144.668 65.4322 145.148 64.0804C145.627 62.7286 145.779 61.4295 145.28 60.0851C144.78 58.7407 143.662 57.3029 142.26 57.0777C141.127 56.8957 139.929 57.6055 138.899 58.1164C137.869 58.6273 136.891 59.2628 135.798 59.6162C134.327 60.0921 133.314 60.5105 131.89 59.9029C130.467 59.2953 129.09 58.2065 128.4 56.8079C127.2 54.3763 126.673 51.4593 127.245 48.8037C125.889 49.699 125.386 51.6457 125.569 53.9158C125.701 55.5491 125.696 56.4361 126.475 58.406C127.271 60.4201 128.105 62.0216 129.895 63.2156C131.242 64.1147 132.821 63.8381 134.415 63.5816C136.009 63.325 137.271 63.3855 138.772 62.786C139.664 62.4297 141.329 61.8714 141.657 62.6144C141.967 63.3179 140.095 64.2432 140.095 64.2432C140.095 64.2432 140.091 64.9789 140.467 65.3792" fill="#AF6A1D"/>
<path d="M152.407 82.2699C150.457 80.2958 149.967 77.8868 149.593 75.3981C148.361 75.078 147.072 73.6152 146.922 71.5683C144.321 68.7653 141.771 65.9604 139.221 63.1555C138.287 62.128 136.736 60.5321 135.47 59.9774C134.08 59.3685 133.049 59.3144 131.693 59.9981C130.372 60.6644 129.19 61.9068 128.791 63.9552L128.708 63.8845C127.95 62.9018 126.682 61.8999 124.716 62.5913C123.442 63.0398 123.113 64.6781 122.784 66.0029C122.455 67.3278 122.321 69.5734 122.448 70.9333C122.728 73.9284 123.41 76.0482 123.87 79.0205C125.14 87.2329 126.411 95.4454 127.799 103.656C128.502 103.337 129.353 103.028 130.058 102.727C130.156 103.144 130.142 103.213 130.198 103.872C131.412 103.043 131.967 102.618 133.331 102.302C133.331 89.6076 135.497 84.5739 135.497 74.8854C136.452 77.0472 137.955 78.9577 139.836 80.359C139.841 80.3875 139.912 80.4405 139.944 80.4383C139.949 80.4419 139.953 80.4457 139.958 80.4493C141.11 80.4172 143.951 80.6058 145.102 80.6528C148.129 80.9071 149.371 81.028 152.407 82.2699Z" fill="#292F73"/>
<path d="M125.757 62.3691C124.242 64.0425 123.335 66.5104 123.602 70.6698C123.79 73.5962 125.226 76.726 125.518 79.6437C125.717 81.6387 125.851 83.3977 124.812 85.1051C124.247 81.27 122.497 72.551 122.4 70.9795C122.247 68.5063 122.405 66.3397 123.429 63.894C123.921 62.7211 124.784 62.4467 125.757 62.3691Z" fill="#475196"/>
<path d="M136.383 60.5103C138.499 61.87 143.255 67.2558 146.501 71.1146C141.81 69.1844 138.231 65.5394 136.383 60.5103Z" fill="#475196"/>
<path d="M133.998 62.311C135.664 63.8264 136.717 65.8946 137.755 67.9034C138.794 69.9122 139.896 71.9637 141.626 73.4042C143.356 74.8448 145.88 75.5438 147.879 74.5198C148.703 74.2855 149.586 74.7935 150.094 75.4922C150.601 76.1909 150.827 77.0509 151.104 77.8712C151.723 79.6999 151.225 80.4604 152.135 82.1598C149.686 81.1339 146.752 80.7761 143.695 80.5819C142.28 80.4921 139.943 80.4385 139.943 80.4385C139.943 80.4385 137.808 79.0633 136.797 77.4395C136.39 76.7856 135.497 74.8856 135.497 74.8856C135.497 74.8856 135.92 71.4353 135.92 70.4401C135.92 66.9579 135.115 64.471 133.998 62.311Z" fill="#1D273D"/>
<path d="M127.735 62.9316C125.872 66.5601 126.693 71.0843 126.927 75.1664C127.162 79.2485 128.477 83.9735 127.656 87.977C127.462 88.9199 125.758 91.1306 125.758 91.1306L127.8 103.655C128.82 103.212 129.276 103.067 130.058 102.727L128.791 63.9552C128.791 63.9552 128.433 63.3399 127.735 62.9316Z" fill="#1D273D"/>
<path d="M133.215 59.5029C131.253 60.5215 130.392 62.7515 130.138 64.9682C129.885 67.185 130.3 69.4154 130.561 71.6312C131.806 82.1857 131.303 90.1894 131.303 103.131C130.886 103.443 130.653 103.557 130.198 103.872C129.401 97.6272 129.336 92.8302 129.123 87.1706C128.836 79.5481 128.84 75.9262 128.618 70.0234C128.556 68.3905 128.791 63.9552 128.791 63.9552C128.791 63.9552 129.231 60.094 133.215 59.5029Z" fill="#475196"/>
<path d="M151.476 52.1159C149.202 54.5331 147.775 57.6822 147.08 60.9442C146.384 64.2061 146.389 67.5869 146.714 70.9077C146.81 71.8945 146.942 72.9024 147.391 73.7838C147.84 74.6652 148.695 75.8243 149.672 75.9003C149.744 77.6058 150.118 79.4826 151.829 81.7744C153.165 83.5642 155.301 84.8466 157.509 84.6584C159.111 84.5219 160.505 83.7176 161.773 82.7188C163.135 81.6464 164.482 80.1891 164.401 78.4448C164.352 77.4009 163.777 76.4394 163.031 75.7177C162.284 74.9959 161.305 74.3751 161.305 74.3751C161.305 74.3751 163.547 74.7107 164.912 73.6483C165.465 73.218 166.136 72.8978 166.562 71.8942C166.842 71.2359 166.812 70.4602 166.118 69.6232C165.094 68.3879 163.414 68.1024 162.1 67.1909C161.008 66.4335 159.866 64.3006 159.531 63.0044C158.777 60.0889 159.083 57.8619 158.457 54.9155C158.121 53.332 157.458 51.6621 156.052 50.8873C154.599 50.0858 152.755 50.7553 151.476 52.1159Z" fill="#EA9C47"/>
<path d="M155.326 50.6298C153.213 51.3775 151.608 53.271 150.616 55.3025C149.624 57.3341 149.219 59.6061 148.985 61.8598C148.512 66.4236 148.83 71.3909 149.67 75.9004C148.702 76.0476 147.699 74.8998 147.217 74.0347C146.735 73.1696 146.612 71.9093 146.461 70.928C145.704 66.0107 146.358 60.8795 148.325 56.3181C148.971 54.8185 149.772 53.3581 150.924 52.2101C152.075 51.0622 153.578 50.1393 155.326 50.6298Z" fill="#AF6A1D"/>
<path d="M150.211 56.0609C150.421 55.4618 151.62 53.37 152.166 53.0563C152.34 52.9565 152.543 52.875 152.736 52.9267C153.024 53.0038 153.167 53.3565 153.122 53.6548C153.076 53.9531 152.895 54.209 152.725 54.4574C151.635 56.0572 150.836 57.8597 150.38 59.7477C150.323 59.9857 150.22 60.2744 149.979 60.3026C149.71 60.3341 149.477 60.0513 149.424 59.7826C149.233 58.8257 149.971 56.7462 150.211 56.0609Z" fill="#FCCA95"/>
<path d="M146.628 57.9115C146.405 56.763 146.57 55.08 146.347 53.9315C146.138 52.8563 145.37 51.3023 144.645 50.7893C143.873 50.2439 142.528 50.6299 142.124 50.8401C141.044 51.4013 140.06 51.7395 139.73 51.6658C139.273 51.5634 139.511 51.1493 139.511 51.1493C139.511 51.1493 141.02 49.4338 141.835 48.8978C142.649 48.3617 143.192 48.4348 144.146 48.6208C145.454 48.8759 146.153 49.4329 146.593 50.7051C147.033 51.9772 147.094 53.0678 147.017 54.5252C146.984 55.1539 146.794 57.0266 146.628 57.9115Z" fill="#FCCA95"/>
<path d="M136.565 52.0659C136.021 51.849 135.469 51.495 134.933 50.9522C134.477 50.4908 134.287 49.6402 133.902 49.117C133.187 48.1475 132.077 47.6664 130.893 47.5055C129.709 47.3447 128.474 47.6954 127.588 48.4836C127.792 48.8571 128.044 49.2629 128.461 49.3249C128.793 49.3744 129.096 49.2821 129.42 49.1935C130.148 48.9945 130.993 49.0196 131.554 49.3414C132.628 49.9581 132.739 51.2026 133.614 52.0843C133.973 52.4456 134.417 52.72 134.899 52.8783C135.191 52.9743 135.509 53.0276 135.805 52.9459C136.102 52.8643 136.468 52.633 136.565 52.0659Z" fill="#FCCA95"/>
<path d="M156.06 84.5779C157.75 84.0251 158.847 82.3218 159.294 80.5826C159.741 78.8433 159.511 76.9907 159.024 75.2627C158.536 73.5347 157.799 71.8907 157.209 70.1959C156.104 67.0253 155.517 63.671 155.478 60.3094C155.461 58.8849 155.586 57.3428 156.504 56.263C156.737 55.9884 157.078 55.737 157.425 55.8227C158.08 55.9839 158.005 56.7969 157.874 57.4147C156.976 61.6593 157.303 65.8514 158.845 69.9021C159.492 71.6021 160.382 73.2249 161.304 74.3752C161.377 74.4668 163.506 75.3263 164.192 77.0847C164.7 78.3864 164.423 79.146 164.077 80.0454C162.882 83.1489 159.643 85.2135 156.06 84.5779Z" fill="#FCCA95"/>
<path d="M161.305 74.3752C159.023 71.9038 157.533 66.7418 157.292 63.9973C157.102 61.8309 157.647 58.6631 157.647 58.6631C157.647 58.6631 158.249 58.6796 158.42 59.1172C158.502 59.3274 158.502 59.5597 158.505 59.7856C158.542 62.3829 158.541 63.947 161.095 67.8047C162.523 69.9626 164.114 71.0067 166.648 71.654C166.364 72.5464 165.435 73.6008 164.416 74.0807C163.398 74.5606 162.475 74.6802 161.305 74.3752Z" fill="#AF6A1D"/>
<path d="M42.4232 116.467C42.4917 116.107 42.8969 116.001 43.2499 116.084C43.603 116.167 43.9359 116.356 44.1922 116.615C48.239 120.711 50.7662 120.887 56.3647 123.385C58.3294 124.261 61.6922 125.306 61.6922 125.306L61.9916 126.846C61.9916 126.846 54.0257 124.878 48.7387 122.156C45.9546 120.723 42.1016 118.159 42.4232 116.467Z" fill="#E7F1FC"/>
<path d="M38.2345 112.863C39.7491 113.249 42.2372 112.759 44.4444 113.558C44.4444 113.558 46.6349 114.596 47.5788 114.863C48.3543 115.082 50.0929 114.819 50.2074 114.34C50.3089 113.915 50.2997 113.459 49.1846 112.93C47.9932 112.364 46.5476 112.634 45.8245 112.386C43.3924 111.384 40.5439 111.156 38.4364 111.363C37.6403 111.363 36.8613 111.827 36.8613 111.827C36.8613 111.827 37.3352 112.633 38.2345 112.863Z" fill="#E7F1FC"/>
<path d="M77.709 116.932C77.709 116.932 78.4321 118.735 81.9698 120.228C82.9392 120.637 84.7145 120.597 84.5939 120.586C84.1159 119.264 81.9518 118.244 80.6571 117.779C78.2857 116.928 77.709 116.932 77.709 116.932Z" fill="#E7F1FC"/>
<path d="M62.8482 125.953C62.8482 125.953 52.2079 122.871 48.7546 120.417C42.2873 115.822 40.8223 111.431 40.8223 111.431C40.8223 111.431 43.0647 111.379 44.9645 112.036C43.9788 112.408 43.4309 113.6 43.632 114.645C43.8331 115.69 44.6705 116.539 45.6535 116.918C46.6364 117.297 47.7405 117.253 48.7575 116.981C49.7745 116.709 50.721 116.222 51.6499 115.722C51.6499 115.722 51.7503 115.641 51.8795 115.561C52.4052 115.071 52.9309 114.581 53.4565 114.092C53.7501 115.051 54.4653 115.838 55.3079 116.368C56.1505 116.898 57.1165 117.194 58.0863 117.406C62.132 118.291 66.4933 117.767 70.1443 115.793C71.4394 116.233 73.0761 116.566 74.4419 116.537C73.9696 116.674 73.4142 117.297 73.8583 117.935C74.5305 118.901 75.723 119.367 76.836 119.723C77.9489 120.078 78.5809 120.406 79.7376 120.563C78.1243 120.706 77.0424 120.68 75.2054 120.823C72.8942 121.458 72.1271 121.531 69.7896 122.058C67.452 122.585 62.8482 125.953 62.8482 125.953Z" fill="#8AA0BC"/>
<path d="M41.4999 109.638C40.1715 111.815 38.4567 114.723 37.8439 117.515C37.457 119.277 37.2182 119.31 36.8994 125.382C36.7707 127.833 37.4886 130.87 39.2463 132.56C39.463 132.769 39.7642 132.973 40.0399 132.856C40.2613 132.762 40.4273 132.6 40.4048 132.358C40.3824 132.116 40.3021 131.562 40.2128 131.336C39.7016 130.044 39.5761 129.171 39.7766 128.242C40.1202 128.316 40.4286 128.462 40.5803 128.783C40.732 129.104 41.1096 129.329 41.4273 129.177C41.6158 129.087 41.6362 128.742 41.6002 128.535C41.4893 127.896 41.3399 127.736 41.0132 127.311C40.6865 126.887 39.6068 126.054 39.3707 125.295C38.8913 123.753 39.7174 120.71 39.7174 120.71C39.7174 120.71 41.3136 115.073 44.6904 111.514C44.6904 111.514 43.2619 109.291 41.4999 109.638Z" fill="#DDB285"/>
<path d="M39.4707 125.533C40.3665 126.381 41.4323 127.477 41.5775 128.41C41.6109 128.626 41.6689 128.929 41.5263 129.092C41.3641 129.278 41.0561 129.242 40.8557 129.099C40.6553 128.956 40.5244 128.737 40.3609 128.552C40.1974 128.368 40.0761 128.317 39.7771 128.242C39.8886 127.391 39.837 126.536 39.4707 125.533Z" fill="#B58E63"/>
<path d="M43.8345 109.647C39.3399 113.364 36.8713 122.299 38.1926 131.198C36.4723 127.722 36.8063 125.54 37.0961 122.223C37.4498 118.174 37.8677 115.755 40.9387 110.566C41.4827 110.417 42.6196 109.534 43.8345 109.647Z" fill="#B58E63"/>
<path d="M63.1621 125.495C67.0336 122.785 70.2467 120.985 76.2571 120.545C77.6519 120.443 79.0752 120.342 80.4233 120.718C80.7801 120.818 81.1796 121.001 81.2617 121.366C81.3404 121.716 81.0635 122.067 80.7325 122.196C80.4015 122.325 80.0334 122.289 79.6801 122.257C76.7329 121.984 73.607 121.886 70.7725 123.18C69.0139 123.983 67.3497 124.983 65.6383 125.884C65.2785 126.073 64.9101 126.266 64.5089 126.326C64.1076 126.386 63.6601 126.29 63.1621 125.495Z" fill="#E7F1FC"/>
<path d="M65.1893 125.848C64.1971 125.607 63.2048 125.366 62.2126 125.125C61.7912 125.023 61.2404 124.973 61.0287 125.356C60.899 125.59 60.9723 125.889 61.1079 126.12C61.2435 126.351 61.442 126.541 61.5638 126.78C61.8098 127.261 61.7459 127.933 61.6198 128.463C61.4936 128.993 61.3273 129.413 61.2516 129.952C61.1758 130.492 61.26 131.094 61.6427 131.477C62.1421 131.977 62.9414 131.94 63.642 131.885C64.3426 131.831 64.9781 131.75 65.4272 132.297C65.8772 132.845 65.7007 133.79 65.7007 134.942C65.7007 136.358 65.8886 137.349 66.686 138.513C67.4835 139.676 68.9354 140.428 70.3054 140.142C70.5381 140.094 70.7805 140.006 70.9211 139.813C71.0992 139.567 71.0631 139.23 71.019 138.929C70.6148 136.168 70.2107 133.408 69.85 130.571C69.7116 129.548 69.5732 128.524 69.4347 127.5C69.4055 127.284 69.3711 127.055 69.2336 126.887C69.0704 126.688 68.8015 126.62 68.5516 126.563C67.4411 126.311 66.3177 126.121 65.1893 125.848Z" fill="#292F73"/>
<path d="M72.5409 96.5609C71.5583 97.8145 70.561 99.083 69.2962 100.043C68.0315 101.004 66.4479 101.637 64.8794 101.436C63.6639 101.28 63.4144 100.792 61.9831 100.68C61.1679 100.617 61.2291 101.681 59.0355 101.805C58.304 101.846 57.5641 101.152 56.8829 100.879C55.9902 100.521 55.1673 100.97 54.2078 101.008C52.085 101.09 49.3011 99.8341 47.2167 99.419C43.4806 98.6751 40.1872 100.443 37.8992 103.523C37.1134 104.581 36.5196 105.845 36.5294 107.168C36.5392 108.492 37.2618 109.861 38.4779 110.348C39.6062 110.799 40.932 110.451 42.0556 110.914C43.0277 111.314 43.6661 112.24 44.3822 113.017C45.0983 113.793 46.1096 114.496 47.1267 114.233C47.8942 114.035 48.4302 113.339 48.8117 112.636C49.1931 111.934 49.4948 111.164 50.0602 110.603C50.6255 110.041 51.5716 109.848 52.2128 110.318C53.086 110.959 52.7483 112.288 52.0908 113.154C51.4332 114.019 50.5092 114.791 50.3805 115.875C50.2218 117.212 51.3514 118.332 52.4684 119.063C58.0749 122.732 66.2105 122.209 71.3016 117.838C72.1421 117.116 73.1162 115.905 72.6545 114.892C72.3212 114.161 71.8393 113.771 71.0486 113.683C70.2579 113.595 69.1564 113.722 68.4474 113.357C67.308 112.771 66.8842 111.463 67.6021 110.393C68.558 108.968 70.168 108.805 71.8683 108.881C74.8369 109.014 77.83 108.558 80.6287 107.547C82.0934 107.018 83.5629 106.293 84.5007 105.037C85.4385 103.782 86.0873 102.355 84.6001 100.393C83.6901 99.1918 81.9609 98.959 80.7015 98.143C79.5862 97.4204 78.9409 96.587 77.9045 95.7526C76.8682 94.9182 74.6008 93.9327 72.5409 96.5609Z" fill="#292F73"/>
<path d="M85.4311 102.119C85.4311 102.119 83.683 101.521 83.1018 101.645C82.3204 101.812 80.9751 102.78 79.9206 101.937C78.6027 100.884 78.5398 98.2764 75.213 99.2613C73.9324 99.6404 72.7859 100.517 71.5838 101.103C69.7042 102.019 65.3125 101.471 65.3125 101.471C65.3125 101.471 67.3261 101.342 68.3453 100.609C69.2106 99.9878 70.581 98.9644 71.2154 98.1036C71.8498 97.2429 72.4835 96.3623 73.3149 95.6952C74.1463 95.028 75.2185 94.5898 76.2657 94.7623C77.5479 94.9736 80.2126 97.915 80.9864 98.2493C80.9864 98.2493 83.5371 99.356 84.1612 99.9308C85.385 101.058 85.4311 102.119 85.4311 102.119Z" fill="#475196"/>
<path d="M63.7507 121.274C64.9592 120.855 65.3272 119.531 65.4007 118.241C65.4743 116.95 65.0105 115.691 64.4613 114.524C63.9121 113.357 63.2654 112.223 62.9307 110.976C62.2276 108.355 63.2606 106.313 64.2326 105.407C65.0094 104.683 65.8683 103.92 66.9206 103.828C67.4517 103.781 68.0608 103.97 68.2841 104.46C68.4793 104.889 68.3192 105.395 68.1025 105.813C67.8857 106.23 67.2815 107.218 66.7993 108.685C66.4776 109.663 66.9823 111.729 66.9823 111.729C66.9823 111.729 68.0904 113.415 69.0991 113.56C69.8602 113.669 70.7005 113.513 71.4219 113.589C72.1432 113.665 72.6883 114.072 73.0604 114.702C73.3448 115.184 73.3408 115.806 73.1253 116.323C72.9098 116.84 72.5032 117.258 71.9589 117.67C69.5142 119.57 66.9771 120.864 63.7507 121.274Z" fill="#475196"/>
<path d="M85.3993 103.315C85.3993 103.315 83.1009 102.51 81.6513 103.396C80.106 104.34 78.8411 106.522 77.0511 106.758C75.8388 106.917 73.8181 105.965 72.5959 105.939C71.0469 105.906 69.4913 106.365 68.2022 107.235C67.4604 107.735 66.7774 108.417 66.5598 109.292C66.2746 110.44 66.5583 111.646 67.4465 112.357C66.9952 111.328 67.4416 110.447 68.304 109.845C69.1664 109.244 70.2645 109.135 71.3101 109.075C73.3914 108.955 75.2165 108.906 77.2825 108.624C79.3484 108.341 81.7303 107.367 83.4141 106.123C85.1229 104.86 85.3993 103.315 85.3993 103.315Z" fill="#1D273D"/>
<path d="M61.7309 127.53C63.4171 126.97 65.7712 126.909 66.8913 128.556C69.151 131.879 69.215 136.19 69.6335 140.202C70.1771 140.268 70.7478 140.227 70.9657 139.741C71.2021 139.213 70.9662 138.372 70.8855 137.798C69.6863 129.276 69.6844 127.473 69.1868 126.641C69.009 126.344 64.8697 125.704 62.9286 125.299C62.552 125.22 61.6323 124.778 61.1682 125.193C60.9496 125.389 60.7755 125.832 61.2323 126.34C61.5982 126.747 61.605 126.839 61.7309 127.53Z" fill="#1D273D"/>
<path d="M61.7087 127.971C61.6489 128.409 61.7757 129.011 61.9673 129.408C62.5991 130.717 63.7871 129.917 64.7984 130.015C65.3515 130.068 65.9378 130.288 66.3165 130.86C67.4185 132.525 66.5905 135.493 67.2884 137.842C67.5614 138.76 68.9355 140.105 68.9355 140.105C68.9355 140.105 67.348 139.826 66.3408 138.321C65.838 137.57 65.5816 136.653 65.5722 135.668C65.5678 135.217 65.7001 133.859 65.695 133.56C65.6874 133.12 65.4703 132.157 65.0792 132.006C63.8874 131.544 62.9464 132.343 61.8137 131.619C61.3319 131.312 61.2632 130.893 61.2393 130.547C61.1977 129.94 61.3431 128.995 61.7087 127.971Z" fill="#475196"/>
<path d="M52.6458 110.886C52.6458 110.886 52.4757 108.946 55.9159 109.121C57.0992 109.182 57.7157 108.062 57.4153 107.445C56.733 106.042 54.9707 106.158 53.432 106.3C51.8933 106.441 50.4465 107.229 49.3751 108.356C48.935 108.818 48.5523 109.338 48.0787 109.765C47.605 110.193 47.0116 110.531 46.377 110.528C45.7733 110.524 45.2186 110.218 44.6477 110.019C43.1141 109.486 40.6484 110.645 40.6484 110.645C40.6484 110.645 42.1049 110.763 42.8132 111.367C43.5216 111.972 43.7726 112.604 44.4153 113.28C45.058 113.955 46.1483 114.524 47.3133 114.174C47.9643 113.978 48.4745 113.233 48.812 112.636C49.1496 112.04 50.27 110.3 51.0921 110.076C52.132 109.793 52.6458 110.886 52.6458 110.886Z" fill="#1D273D"/>
<path d="M55.0267 100.898C54.8564 101.973 53.9562 102.717 52.8854 102.817C51.8147 102.918 50.7556 102.596 49.6922 102.434C47.231 102.059 43.8911 101.888 41.897 103.396C39.9029 104.903 38.5055 106.587 39.8013 110.602C38.9281 110.683 37.8484 110.215 37.3324 109.497C36.8163 108.78 36.4376 108.139 36.4375 107.251C36.4373 104.926 37.9481 102.455 39.8112 101.094C41.6743 99.7344 43.3399 99.2505 45.6371 99.2505C47.666 99.2505 50.0813 100.297 52.1159 100.77C52.8594 100.943 54.3306 101.104 55.0267 100.898Z" fill="#475196"/>
<path d="M61.3745 100.894C61.4266 101.445 61.1966 101.976 60.8088 102.368C60.421 102.759 59.9115 103.006 59.3888 103.172C58.6483 103.407 57.8392 103.49 57.0975 103.259C56.3557 103.028 55.6961 102.446 55.4991 101.686C55.4245 101.398 55.598 100.791 55.598 100.791C55.598 100.791 56.1986 100.609 56.884 100.879C57.3077 101.046 58.247 101.804 59.1528 101.751C60.0586 101.699 60.5439 101.371 61.3745 100.894Z" fill="#1D273D"/>
<path d="M96.1484 44.6146C96.0374 45.1606 95.9264 45.7066 95.8175 46.253C95.8146 46.2434 95.8117 46.2338 95.8132 46.2182C97.428 46.8023 97.4424 47.1547 97.2525 47.7542C97.0223 48.4809 95.3573 48.325 95.3573 48.325L95.3204 48.7775C95.3204 48.7775 96.5024 48.9385 96.2773 49.9776C96.1293 50.6608 94.8555 50.5039 94.8555 50.5039C94.8555 50.5039 94.8032 51.2956 94.4468 51.443C93.8794 51.6777 93.7303 51.5129 91.8551 51.1359C91.5014 51.0648 89.4214 50.6536 89.2244 50.3478C88.961 49.939 89.3106 49.0099 89.3106 49.0099C89.3106 49.0099 87.9153 48.5168 88.1372 47.567C88.3269 46.755 89.6948 46.9691 89.6948 46.9691L89.7997 46.3802C89.7997 46.3802 88.1008 45.9974 88.399 44.8693C88.6551 43.9001 90.0943 44.3961 90.0943 44.3961L90.3468 43.1245C90.3468 43.1245 94.6675 44.5381 96.1484 44.6146Z" fill="#D9D9D9"/>
<path d="M96.1078 44.8104C95.7685 44.8505 94.7429 44.7537 94.7429 44.7537L94.668 45.2552C94.668 45.2552 92.401 44.8819 91.2966 44.4309C91.1679 44.3783 91.0349 44.3226 90.8963 44.3286C90.7577 44.3346 90.6116 44.4223 90.5865 44.5604C90.5615 44.6986 90.7273 44.8059 90.8864 44.8586C92.5604 45.4137 94.1265 45.9687 95.8124 46.2181C95.9305 45.7469 95.977 45.3322 96.1078 44.8104Z" fill="#B6B6B6"/>
<path d="M89.8002 46.3804C89.8002 46.3804 92.7809 47.8124 95.3578 48.3251C95.3065 48.4944 95.3576 48.6047 95.3209 48.7776C92.3371 48.184 89.6953 46.9692 89.6953 46.9692L89.8002 46.3804Z" fill="#B6B6B6"/>
<path d="M89.3164 49.0093C91.1168 49.6985 92.9587 50.1726 94.8555 50.504C94.8854 50.8701 94.7591 51.3781 94.4393 51.5518C93.9721 51.8057 92.2543 51.2183 92.2543 51.2183C92.2543 51.2183 92.404 50.6107 92.1559 50.4095C91.7329 50.0664 90.7838 49.9154 90.2948 49.69C89.795 49.4595 89.7404 49.3876 89.3164 49.0093Z" fill="#B6B6B6"/>
<path d="M97.2898 42.574C96.9134 43.1242 96.718 43.6605 96.5041 44.2937C96.4539 44.4421 96.3997 44.5971 96.2855 44.7032C96.1212 44.8559 95.8766 44.8699 95.6535 44.8695C93.5031 44.8654 90.7944 44.1474 90.2618 43.4C89.9114 42.9083 90.2176 42.2429 90.1663 41.5285C89.9843 38.9959 88.6578 36.6883 88.1011 34.2123C85.9265 24.5389 92.5839 22.0296 96.0978 22.304C104.092 22.9282 105.315 31.2975 103.021 35.1952C101.319 38.0878 99.3485 39.5649 97.2898 42.574Z" fill="#7946C6"/>
<path d="M102.719 13.5769C101.832 13.0987 99.3723 17.1837 100.258 17.9662C101.197 18.7971 103.609 14.057 102.719 13.5769Z" fill="#7946C6"/>
<path d="M93.7978 12.3868C93.0232 12.5536 93.2836 16.9976 94.2764 16.9462C95.2651 16.895 94.67 12.199 93.7978 12.3868Z" fill="#7946C6"/>
<path d="M80.6498 18.6925C79.4798 19.4543 83.0358 21.8225 83.934 21.8063C84.2116 21.8013 84.5074 21.6289 84.5597 21.3529C84.6245 21.0107 84.3138 20.7256 84.0362 20.5194C83.3568 20.0148 81.0961 18.4019 80.6498 18.6925Z" fill="#7946C6"/>
<path d="M78.553 35.2133C79.1665 36.2816 84.5776 34.3465 83.9353 33.289C83.2635 32.1831 77.9395 34.1449 78.553 35.2133Z" fill="#7946C6"/>
<path d="M107.298 35.8031C106.721 36.9995 110.514 39.0408 111.016 38.0948C111.519 37.1487 107.521 35.3417 107.298 35.8031Z" fill="#7946C6"/>
<path d="M106.435 25.3743C106.097 25.4572 105.686 25.649 105.706 26.0001C105.726 26.3503 106.157 26.494 106.503 26.5213C107.97 26.6373 110.86 26.5472 110.714 25.459C110.57 24.386 107.716 25.06 106.435 25.3743Z" fill="#7946C6"/>
<path d="M93.8263 44.3968C93.8068 44.3968 93.787 44.3944 93.7672 44.3894C93.6381 44.3564 93.5599 44.2238 93.5925 44.0932C93.9335 42.7253 94.2262 41.4283 94.5092 40.174C94.7928 38.917 95.0861 37.6173 95.4284 36.2441C95.6742 35.2585 95.9234 34.2588 96.2303 33.2767C95.6816 33.3418 95.1308 33.3508 94.5869 33.3023C94.2522 36.4099 93.3889 39.9506 92.594 43.2106L92.4593 43.7636C92.4275 43.8944 92.2971 43.9743 92.1676 43.9421C92.0384 43.9099 91.9594 43.7777 91.9912 43.6469L92.126 43.0937C92.9179 39.8461 93.7783 36.3171 94.1091 33.2444C94.0219 33.2311 93.935 33.2162 93.8484 33.1998C92.9258 33.0251 92.0566 32.566 91.2648 31.8352C90.4763 31.1073 90.2105 30.1493 90.4963 29.0648C90.658 28.4512 90.9984 27.8164 91.4548 27.2775C91.8713 26.7856 92.3261 26.4458 92.6715 26.3683C93.0402 26.2855 93.3671 26.3391 93.6429 26.5274C94.2733 26.9575 94.4385 27.9546 94.5373 28.5503C94.5459 28.6022 94.5538 28.6502 94.5615 28.6934C94.7728 29.8934 94.773 31.2973 94.6351 32.8168C95.218 32.8684 95.8096 32.8496 96.3972 32.7626C96.8001 31.5674 97.304 30.407 98.0086 29.3389C98.7551 28.2073 99.4678 28.0697 99.9337 28.1534C100.561 28.2661 101.012 28.8412 101.134 29.3511C101.396 30.448 100.725 31.5218 99.2927 32.2973C98.4877 32.7332 97.6318 33.0348 96.7628 33.1958C96.4255 34.2392 96.1586 35.3095 95.8958 36.3635C95.5548 37.7313 95.2621 39.0283 94.9791 40.2826C94.6955 41.5396 94.4022 42.8393 94.0599 44.2125C94.0323 44.3231 93.9341 44.3968 93.8263 44.3968ZM92.9945 26.8186C92.9258 26.8186 92.853 26.8273 92.7758 26.8446C92.3395 26.9425 91.2937 27.9322 90.9621 29.1906C90.7223 30.1005 90.9334 30.869 91.5897 31.4747C92.3142 32.1434 93.1039 32.5625 93.937 32.7202C94.0102 32.7341 94.0837 32.7468 94.1573 32.7583C94.2901 31.286 94.2898 29.9308 94.0869 28.779C94.079 28.7343 94.0708 28.6847 94.0619 28.631C93.9816 28.1466 93.8321 27.2449 93.3734 26.9318C93.2625 26.8562 93.1373 26.8186 92.9945 26.8186ZM99.7092 28.6213C99.2847 28.6213 98.8384 28.9597 98.4095 29.6099C97.7836 30.5586 97.3192 31.592 96.9428 32.6619C97.6712 32.5007 98.387 32.2344 99.0653 31.8671C99.6441 31.5538 100.959 30.6925 100.665 29.4657C100.583 29.1186 100.268 28.709 99.8494 28.6338C99.803 28.6254 99.7562 28.6213 99.7092 28.6213Z" fill="#453075"/>
<path opacity="0.6" d="M99.8277 24.1281C98.6619 23.4557 97.0975 23.7204 96.3058 24.8169C95.514 25.9134 95.4612 27.3962 95.7106 28.7306C96.3528 32.167 99.0562 35.6282 101.42 35.076C103.471 34.597 103.685 32.1115 103.592 30.867C103.413 28.4722 101.971 25.3643 99.8277 24.1281Z" fill="#947EC6"/>
<path opacity="0.6" d="M95.4614 32.2046C94.3887 31.8134 93.3078 33.1327 92.9659 34.2336C92.464 35.8495 92.1982 37.5714 94.8961 39.5569C95.4226 39.9444 97.2484 40.1308 97.5796 39.5636C99.2261 36.7429 97.8919 33.0908 95.4614 32.2046Z" fill="#947EC6"/>
<path d="M76.2606 57.3911C76.4485 57.7486 76.6365 58.1062 76.8258 58.4629C76.8197 58.459 76.8136 58.4551 76.8072 58.4457C78.0103 57.9738 78.1813 58.1622 78.3483 58.5882C78.5508 59.1048 77.5164 59.8389 77.5164 59.8389L77.704 60.108C77.704 60.108 78.4616 59.6148 78.8112 60.3021C79.0411 60.7539 78.2324 61.2948 78.2324 61.2948C78.2324 61.2948 78.5677 61.7596 78.4297 62.017C78.2101 62.4268 78.0478 62.4089 76.7899 63.1241C76.5526 63.259 75.1605 64.0561 74.9054 63.9836C74.5645 63.8867 74.3376 63.199 74.3376 63.199C74.3376 63.199 73.3034 63.6132 72.9932 62.9771C72.7279 62.4332 73.6174 61.8778 73.6174 61.8778L73.4062 61.4995C73.4062 61.4995 72.2475 62.1245 71.899 61.3519C71.5995 60.6881 72.6604 60.2538 72.6604 60.2538L72.2193 59.4241C72.2193 59.4241 75.3694 58.0786 76.2606 57.3911Z" fill="#D9D9D9"/>
<path d="M76.3276 57.519C76.15 57.7085 75.5125 58.1603 75.5125 58.1603L75.7007 58.4754C75.7007 58.4754 74.218 59.3857 73.3714 59.6799C73.2728 59.7141 73.1702 59.7488 73.0928 59.8204C73.0155 59.8921 72.9715 60.0127 73.0208 60.1017C73.0701 60.1906 73.2155 60.1684 73.3318 60.1193C74.5557 59.6021 75.7172 59.138 76.8068 58.4454C76.6575 58.1258 76.4929 57.8729 76.3276 57.519Z" fill="#B6B6B6"/>
<path d="M73.4062 61.4994C73.4062 61.4994 75.7903 60.8246 77.5165 59.8389C77.565 59.958 77.6454 59.994 77.7041 60.108C75.7053 61.2494 73.6175 61.8777 73.6175 61.8777L73.4062 61.4994Z" fill="#B6B6B6"/>
<path d="M74.3398 63.1955C75.6987 62.6904 76.9822 62.0455 78.2316 61.2944C78.4179 61.4827 78.5794 61.8267 78.4748 62.0807C78.3219 62.4518 77.0579 62.9727 77.0579 62.9727C77.0579 62.9727 76.8638 62.5619 76.6275 62.5726C76.2246 62.5907 75.6064 62.9748 75.2197 63.0908C74.8243 63.2093 74.7596 63.1963 74.3398 63.1955Z" fill="#B6B6B6"/>
<path d="M75.9794 55.6962C76.0159 56.1869 76.1506 56.5806 76.3193 57.0372C76.3588 57.1443 76.399 57.257 76.382 57.3721C76.3576 57.5378 76.2226 57.6662 76.0935 57.7759C74.8487 58.8335 72.9515 59.7703 72.2985 59.6182C71.869 59.5182 71.7388 58.9982 71.3793 58.6273C70.1048 57.3124 68.2727 56.6863 66.8078 55.5874C61.0847 51.2941 63.7742 46.6211 65.9319 45.0414C70.8408 41.4476 75.4117 45.4866 75.8855 48.7789C76.2371 51.2222 75.7801 53.0126 75.9794 55.6962Z" fill="#7946C6"/>
<path d="M68.5425 37.6207C67.7097 37.8773 67.8977 41.5908 68.8701 41.5038C69.9025 41.4114 69.3786 37.363 68.5425 37.6207Z" fill="#7946C6"/>
<path d="M58.9961 41.6102C58.517 42.3452 62.0103 45.4707 62.7447 44.6503C63.476 43.8334 59.5357 40.7827 58.9961 41.6102Z" fill="#7946C6"/>
<path d="M57.7724 55.1644C57.6616 56.2691 60.8207 55.1234 61.2484 54.5439C61.3806 54.3648 61.4208 54.0951 61.2799 53.9314C61.1053 53.7285 60.7822 53.7917 60.5227 53.8711C59.8877 54.0654 57.8146 54.7431 57.7724 55.1644Z" fill="#7946C6"/>
<path d="M63.0143 60.1431C63.7378 60.433 65.4252 57.3516 64.693 57.0784C63.9272 56.7926 62.2908 59.8532 63.0143 60.1431Z" fill="#7946C6"/>
<path d="M77.888 49.201C77.7485 50.2157 79.6964 50.2149 80.7327 50.306C80.9912 50.3288 81.3106 50.3014 81.4299 50.0723C81.5665 49.8104 80.6071 49.225 80.3188 49.1597C79.0468 48.872 77.9468 48.7732 77.888 49.201Z" fill="#7946C6"/>
<path d="M76.3648 42.6419C76.1895 42.7988 76.0039 43.0434 76.1244 43.244C76.2447 43.4439 76.5456 43.3908 76.7596 43.2964C77.6686 42.8956 79.36 41.9185 78.9364 41.3239C78.5188 40.7376 77.0296 42.0471 76.3648 42.6419Z" fill="#7946C6"/>
<path d="M73.574 59.0637C73.4843 59.0637 73.3982 59.0128 73.3567 58.9256L73.1792 58.5523C72.1486 56.3844 71.0297 54.0304 69.8193 52.1763C69.7788 52.2013 69.738 52.2257 69.6969 52.2497C69.0743 52.6126 68.3501 52.7886 67.5444 52.7735C66.7397 52.7582 66.1286 52.3566 65.7774 51.6121C65.5739 51.1807 65.4688 50.643 65.4815 50.0981C65.4932 49.5992 65.6037 49.1666 65.7772 48.9408C65.9655 48.6959 66.1973 48.557 66.4663 48.528C67.0501 48.4651 67.6131 48.9423 67.9492 49.2274C67.978 49.2518 68.0046 49.2743 68.0287 49.2944C68.6963 49.8486 69.336 50.6116 69.9497 51.5032C70.2799 51.2611 70.5863 50.9821 70.8639 50.6721C70.5509 49.8172 70.3065 48.9229 70.2222 48.0001C70.1276 46.9646 70.4974 46.5216 70.8243 46.3324C71.2788 46.0692 71.8186 46.1917 72.1278 46.4169C72.8146 46.9172 72.9318 47.8733 72.4492 49.0402C72.1876 49.6729 71.837 50.2572 71.4154 50.7725C71.6985 51.503 72.0322 52.215 72.3609 52.9162C72.7949 53.8421 73.2243 54.7052 73.6397 55.54C74.0563 56.3774 74.4871 57.2432 74.9236 58.1744C74.9806 58.2961 74.9294 58.4416 74.8091 58.4994C74.6888 58.5571 74.5451 58.5052 74.488 58.3835C74.054 57.4575 73.6245 56.5943 73.2091 55.7594C72.7926 54.9222 72.3618 54.0564 71.9254 53.1253C71.6354 52.5067 71.3299 51.855 71.0574 51.1758C70.7984 51.4447 70.5183 51.6897 70.2203 51.9072C71.4512 53.7919 72.5766 56.1594 73.6135 58.3408L73.791 58.7139C73.8487 58.8353 73.7983 58.981 73.6784 59.0395C73.6447 59.0559 73.6091 59.0637 73.574 59.0637ZM66.5718 49.0103C66.5534 49.0103 66.5353 49.0112 66.5174 49.0132C66.3816 49.0278 66.264 49.1021 66.1577 49.2404C65.9476 49.5137 65.8288 50.589 66.2124 51.4019C66.4835 51.9766 66.9347 52.274 67.5535 52.2857C68.2706 52.2992 68.9107 52.1449 69.4563 51.8269C69.4871 51.8089 69.5178 51.7906 69.5483 51.772C68.9611 50.9198 68.3528 50.1944 67.723 49.6716C67.6977 49.6505 67.6698 49.6269 67.6396 49.6013C67.3926 49.3918 66.9429 49.0103 66.5718 49.0103ZM71.392 46.6725C71.2791 46.6725 71.1648 46.6973 71.0636 46.7559C70.7752 46.9229 70.6468 47.3488 70.7022 47.9552C70.774 48.7416 70.9648 49.4998 71.2192 50.2375C71.5333 49.816 71.7985 49.35 72.0045 48.8518C72.1884 48.4073 72.5409 47.3189 71.8462 46.8129C71.7321 46.7298 71.5637 46.6725 71.392 46.6725Z" fill="#453075"/>
<path opacity="0.6" d="M68.9289 44.2153C67.9445 44.4169 67.1625 45.3348 67.2111 46.3332C67.2597 47.3315 67.9138 48.1799 68.6741 48.7972C70.6318 50.3865 73.7924 50.9738 74.9038 49.5025C75.8682 48.2259 74.8445 46.7418 74.2161 46.0974C73.007 44.8574 70.7385 43.8445 68.9289 44.2153Z" fill="#947EC6"/>
<path opacity="0.6" d="M70.1347 50.8467C69.3341 51.1585 69.3184 52.4229 69.629 53.202C70.085 54.3456 70.7263 55.4316 73.2025 55.2032C73.6857 55.1586 74.8271 54.3621 74.7566 53.8843C74.4061 51.5083 71.9487 50.1403 70.1347 50.8467Z" fill="#947EC6"/>
<path d="M135.269 80.4106L137.883 80.4335L137.5 84.3339L134.818 84.3111L135.269 80.4106Z" fill="#924C13"/>
<path d="M133.391 98.8711L136.11 98.8864C136.11 98.8864 136.402 93.0757 136.591 91.1463C136.758 89.4361 137.5 84.3338 137.5 84.3338L134.818 84.311C134.818 84.311 134.157 89.4755 133.901 91.1919C133.571 93.4121 133.391 98.8711 133.391 98.8711Z" fill="#EA9C47"/>
<path d="M133.33 102.302C133.33 102.302 133.69 102.216 134.186 102.399C134.682 102.581 134.697 102.688 134.697 102.688L135.944 102.673C135.944 102.673 135.959 101.167 135.959 100.498C135.959 99.8291 136.109 98.8863 136.109 98.8863L133.39 98.8711L133.33 102.302Z" fill="#924C13"/>
<path d="M136.08 106.109L138.228 106.125C138.228 106.125 137.404 105.258 136.786 104.513C136.08 103.661 135.944 102.673 135.944 102.673L134.697 102.688C134.697 102.688 135.097 102.849 135.373 104.102C135.659 105.395 136.08 106.109 136.08 106.109Z" fill="#FCCA95"/>
<path d="M123.834 117.052C123.834 117.052 124.018 117.075 124.736 117.043C125.412 117.012 126.317 116.912 126.317 116.912C126.317 116.912 126.103 118.487 126.84 119.278C127.576 120.069 128.439 120.739 129.003 120.631C129.568 120.524 129.634 120.479 130.085 119.978C130.536 119.476 137.958 110.641 137.958 110.641C137.958 110.641 138.784 109.546 138.454 108.938C138.123 108.33 137.342 107.843 136.906 107.28C136.47 106.718 136.08 106.109 136.08 106.109L138.228 106.125C138.228 106.125 139.052 107.115 139.596 107.752C140.166 108.421 141.008 109.227 140.497 110.428C139.986 111.629 131.783 120.89 131.783 120.89C131.783 120.89 130.521 122.532 128.958 122.319C127.396 122.106 125.833 120.327 125.653 119.765C125.472 119.202 125.442 117.879 125.442 117.879C125.442 117.879 125.247 117.955 124.631 117.788C124.015 117.621 123.834 117.052 123.834 117.052Z" fill="#EA9C47"/>
<path d="M139.348 80.4336L139.85 80.4447C139.85 80.4447 144.193 80.4336 147.326 80.9126C150.458 81.3916 152.135 82.1598 152.135 82.1598C152.135 82.1598 153.185 83.4901 154.808 84.1744C156.431 84.8586 157.129 84.6762 157.129 84.6762C157.129 84.6762 158.177 86.9343 158.087 88.166C157.997 89.3978 157.907 90.926 158.222 91.5647C158.538 92.2033 159.259 93.4232 159.586 93.914C159.98 94.5071 159.991 95.3739 160.42 95.123C160.848 94.872 161.024 93.304 161.024 93.304L161.321 94.3018C161.321 94.3018 161.22 95.9783 160.499 97.3925C159.777 98.8067 159.27 99.2515 159.27 99.2515C159.27 99.2515 158.729 98.8865 158.482 97.1758C158.234 95.4651 158.504 94.5071 157.557 93.4807C156.611 92.4542 156.228 91.2909 156.138 90.1505C156.048 89.01 155.709 86.2728 155.709 86.2728C155.709 86.2728 154.898 86.2272 153.028 85.3377C151.157 84.4481 151.044 83.4673 150.481 83.2392C149.917 83.0111 142.548 82.0075 141.038 81.8022C139.528 81.5969 139.348 80.4336 139.348 80.4336Z" fill="#924C13"/>
<path d="M61.0879 96.0753L61.2227 97.679C61.2227 97.679 61.3252 97.6624 61.4348 97.7548C61.5011 97.8107 61.6633 98.704 61.6633 98.704L63.6916 98.7192C63.6916 98.7192 63.0305 97.9741 63.0005 97.5483C62.9704 97.1226 63.8569 96.6968 64.2625 96.3014C64.6682 95.906 65.2241 94.9937 65.2241 94.9937C65.2241 94.9937 64.1573 96.4535 62.8502 96.4078C61.5431 96.3622 61.0879 96.0753 61.0879 96.0753Z" fill="#AF6A1D"/>
<path d="M65.2342 101.464L63.6904 98.7193L61.6621 98.7041L62.0265 100.681C62.0265 100.681 62.9242 100.81 63.3298 100.977C63.7355 101.145 64.1862 101.366 64.5318 101.411C64.945 101.464 65.2342 101.464 65.2342 101.464Z" fill="#924C13"/>
<path d="M85.1693 80.1826C85.1693 80.1826 85.4172 80.5704 85.282 80.9125C85.1467 81.2547 85.0784 81.5051 85.0784 81.5051C85.0784 81.5051 85.7102 82.1214 85.5524 82.6917C85.3946 83.2619 84.7773 83.8692 84.7773 83.8692L84.8031 84.0374L86.6736 84.0659C86.6736 84.0659 87.13 83.1935 86.9272 82.2811C86.7243 81.3687 86.4088 81.209 86.4088 81.209C86.4088 81.209 86.7018 80.8669 86.7243 80.616C86.7469 80.3651 86.6567 80.1826 86.6567 80.1826H85.1693Z" fill="#924C13"/>
<path d="M82.0371 98.7495L85.9585 98.7723C85.9585 98.7723 87.5812 99.7988 88.1221 100.962C88.663 102.125 88.5052 102.832 88.5052 102.832L85.4627 102.844C85.4627 102.844 85.5303 101.137 84.381 100.232C82.9396 99.0975 82.0371 98.7495 82.0371 98.7495Z" fill="#924C13"/>
<path d="M82.847 87.7327C82.847 87.7327 82.7793 89.9453 82.7568 90.3559C82.7343 90.7664 82.3737 94.0852 81.9004 95.3511C81.4614 96.5253 80.9863 98.2494 80.9863 98.2494L82.0356 98.7498L85.957 98.7726C85.957 98.7726 84.6499 97.883 84.3795 96.9478C84.109 96.0126 85.0556 93.4351 85.1006 92.0666C85.1457 90.698 84.7175 88.4855 85.1683 87.3222C85.619 86.1589 86.2726 85.2465 86.4078 84.8587C86.543 84.471 86.6726 84.0661 86.6726 84.0661L84.802 84.0376C84.8809 84.8473 84.4978 85.7027 84.0075 86.0688C83.4161 86.5104 83.354 86.5067 83.1287 86.8033C82.9033 87.0998 82.847 87.7327 82.847 87.7327Z" fill="#AF6A1D"/>
<path d="M69.8656 127.056C69.8656 127.056 77.9563 125.209 79.6691 124.73C81.3819 124.251 83.8159 123.703 84.4695 122.266C85.1231 120.829 84.1765 119.598 82.937 118.822C81.6974 118.046 78.5873 116.929 76.8295 116.769C75.0716 116.609 73.0207 116.495 73.0207 116.495C73.0207 116.495 73.7644 115.446 72.7728 114.283C71.7812 113.12 70.3124 113.772 69.0974 113.56C67.8823 113.348 66.8005 111.979 67.2738 111.044C67.7471 110.109 68.0401 109.402 70.9924 109.06C73.9447 108.717 76.9196 109.06 80.1199 107.873C83.3201 106.687 84.5518 105.143 84.9202 104.475C85.4611 103.494 85.4611 102.844 85.4611 102.844L88.5036 102.833C88.5036 102.833 87.7509 105.506 87.0838 106.687C86.1823 108.284 83.7708 110.018 81.0889 110.542C79.3823 110.876 74.4406 111.158 73.9222 111.614C73.4039 112.07 74.3955 112.298 74.7786 113.051C75.1617 113.804 75.2293 114.671 75.2293 114.671C75.2293 114.671 80.4176 114.909 84.3793 116.838C87.3317 118.275 88.7064 121.742 86.7683 123.703C84.8301 125.665 75.8378 127.102 75.8378 127.102L69.8656 127.056Z" fill="#EA9C47"/>
<path d="M69.9109 130.66L73.5844 130.694C73.5844 130.694 72.8858 128.767 72.9985 128.128C73.1112 127.49 74.5761 127.17 74.5761 127.17L69.3926 127.147L69.9109 130.66Z" fill="#AF6A1D"/>
<path d="M70.8136 139.978C70.8136 139.978 71.1024 139.619 71.0164 138.894C70.915 138.039 69.9121 130.66 69.9121 130.66L73.5856 130.694C73.5856 130.694 74.735 134.082 74.2392 136.659C73.7434 139.237 70.8136 139.978 70.8136 139.978Z" fill="#EA9C47"/>
</svg>
