<svg width="320" height="180" viewBox="0 0 320 180" fill="none" xmlns="http://www.w3.org/2000/svg">
<g clip-path="url(#clip0_8172_24814)">
<path d="M210.817 150.947C219.266 148.287 232.978 141.565 235.27 132.248C237.985 120.818 227.128 109.862 228.441 98.1857C231.027 79.2089 252.66 68.8449 254 49.7408C253.682 32.9163 237.48 21.4789 220.144 21.2052C193.316 20.7817 176.198 47.2453 153.289 47.1904C128.065 47.1298 125.477 37.9704 106.251 39.8071C87.924 41.5578 78.8609 55.2965 72.576 69.767C65.2133 86.7193 61.2342 103.888 76.089 118.293C91.1033 132.853 102.477 120.953 122.556 132.86C162.265 156.408 210.817 150.947 210.817 150.947Z" fill="#E9D2B1"/>
<path d="M168.319 144.234C166.214 146.821 165.081 150.188 165.19 153.527C165.299 156.867 166.649 160.152 168.917 162.596C149.556 160.3 129.8 164.373 110.521 161.463C107.786 161.05 104.826 160.352 103.136 158.152C101.914 156.561 101.589 154.443 101.654 152.435C101.732 150.071 102.399 147.555 104.22 146.057C106.004 144.589 108.479 144.404 110.782 144.297C129.541 143.424 148.341 143.469 168.319 144.234Z" fill="#FCDDC4"/>
<path d="M216.32 144.33C214.135 146.605 212.916 149.786 213.017 152.946C213.119 156.105 214.54 159.201 216.847 161.634C199.8 160.35 167.015 161.351 167.547 161.219C165.025 159.158 163.167 156.135 162.999 152.873C162.832 149.611 164.584 146.196 167.558 144.878C169.275 144.117 200.395 143.684 216.32 144.33Z" fill="#FCCA95"/>
<path d="M214.897 145.578L109.733 146.068C109.733 146.068 103.449 147.466 103.449 153.333C103.449 160.007 110.74 160.084 110.74 160.084L215.314 159.851C215.314 159.851 219.677 159.698 219.315 161.879C218.9 164.38 215.35 163.976 215.35 163.976L110.104 163.669C110.104 163.669 99.1992 164.433 99.1992 153.538C99.1992 141.901 110.242 142.299 110.242 142.299L215.036 141.88C215.036 141.88 217.762 141.868 217.762 143.786C217.762 145.734 214.897 145.578 214.897 145.578Z" fill="#EA9C47"/>
<path d="M106.769 151.975H165.577C165.738 151.975 165.87 151.843 165.87 151.68C165.87 151.518 165.738 151.386 165.577 151.386H106.769C106.608 151.386 106.477 151.518 106.477 151.68C106.477 151.843 106.608 151.975 106.769 151.975Z" fill="#FCCA95"/>
<path d="M108.39 155.176H166.392C166.554 155.176 166.685 155.044 166.685 154.882C166.685 154.719 166.554 154.587 166.392 154.587H108.39C108.229 154.587 108.098 154.719 108.098 154.882C108.098 155.044 108.229 155.176 108.39 155.176Z" fill="#FCCA95"/>
<path d="M109.834 158.377H166.53C166.692 158.377 166.823 158.245 166.823 158.083C166.823 157.92 166.692 157.789 166.53 157.789H109.834C109.672 157.789 109.541 157.92 109.541 158.083C109.541 158.245 109.672 158.377 109.834 158.377Z" fill="#FCCA95"/>
<path d="M112.73 148.243H167.22C167.382 148.243 167.513 148.111 167.513 147.949C167.513 147.786 167.382 147.654 167.22 147.654H112.73C112.569 147.654 112.438 147.786 112.438 147.949C112.437 148.111 112.569 148.243 112.73 148.243Z" fill="#FCCA95"/>
<path d="M108.248 119.007C111.131 121.112 112.518 124.874 112.363 128.452C112.208 132.029 110.686 135.427 108.737 138.221C124.97 141.647 141.807 140.814 158.261 138.705C161.733 138.26 165.422 137.658 168.022 135.303C170.034 133.482 171.142 130.699 170.937 127.987C170.732 125.274 169.218 122.691 166.955 121.197C164.326 119.459 161.01 119.245 157.864 119.162C152.804 119.028 147.741 119.094 142.68 119.161C131.807 119.303 120.935 119.445 108.248 119.007Z" fill="#EA9C47"/>
<path d="M214.359 117.348L108.604 117.077C108.604 117.077 105.492 116.613 105.492 118.97C105.492 120.985 109.156 120.597 109.156 120.597C109.156 120.597 142.95 120.597 160.5 120.909C160.475 120.901 166.172 121.308 166.172 128.501C166.172 136.419 159.991 137.101 159.991 137.101L109.613 137.587C109.613 137.587 106.406 137.338 106.171 140.016C105.959 142.434 109.314 142.332 109.314 142.332L215.037 141.88C215.037 141.88 220.757 140.911 220.757 129.021C220.757 118.557 214.359 117.348 214.359 117.348Z" fill="#FCCA95"/>
<path d="M112.363 128.701H112.363L163.125 128.643C163.262 128.643 163.372 128.531 163.372 128.394C163.372 128.256 163.261 128.145 163.124 128.145H163.124L112.363 128.203C112.226 128.203 112.115 128.314 112.115 128.452C112.115 128.589 112.226 128.701 112.363 128.701Z" fill="#AF6A1D"/>
<path d="M112.027 132.192H159.356C159.493 132.192 159.604 132.08 159.604 131.943C159.604 131.805 159.493 131.694 159.356 131.694H112.027C111.89 131.694 111.779 131.805 111.779 131.943C111.779 132.08 111.89 132.192 112.027 132.192Z" fill="#AF6A1D"/>
<path d="M110.435 135.638H151.432C151.569 135.638 151.68 135.527 151.68 135.389C151.68 135.252 151.569 135.14 151.432 135.14H110.435C110.298 135.14 110.188 135.252 110.188 135.389C110.187 135.527 110.298 135.638 110.435 135.638Z" fill="#AF6A1D"/>
<path d="M111.939 125H159.865C160.002 125 160.113 124.888 160.113 124.751C160.113 124.613 160.002 124.502 159.865 124.502H111.939C111.802 124.502 111.691 124.613 111.691 124.751C111.691 124.888 111.802 125 111.939 125Z" fill="#AF6A1D"/>
<path d="M165.83 96.5031C163.726 99.2417 162.593 102.805 162.702 106.34C162.81 109.875 164.16 113.351 166.429 115.938C147.068 113.508 127.311 117.819 108.032 114.739C105.298 114.302 102.338 113.563 100.648 111.235C99.4261 109.551 99.1006 107.309 99.1662 105.183C99.2433 102.681 99.9104 100.019 101.732 98.4326C103.515 96.879 105.991 96.6832 108.294 96.5698C127.052 95.6464 145.853 95.6939 165.83 96.5031Z" fill="#FCCA95"/>
<path d="M213.831 96.6041C211.647 99.0119 210.427 102.379 210.529 105.723C210.63 109.067 212.051 112.344 214.359 114.919C197.312 113.56 164.527 114.619 165.059 114.48C162.537 112.299 160.678 109.099 160.511 105.647C160.344 102.194 162.096 98.5796 165.07 97.1845C166.787 96.379 197.907 95.9201 213.831 96.6041Z" fill="#EA9C47"/>
<path d="M212.409 97.9249L107.245 98.4443C107.245 98.4443 100.96 99.9237 100.96 106.133C100.96 113.197 108.252 113.278 108.252 113.278L212.825 113.032C212.825 113.032 217.189 112.87 216.827 115.179C216.412 117.826 212.861 117.398 212.861 117.398L107.616 117.074C107.616 117.074 96.7109 117.882 96.7109 106.35C96.7109 94.0335 107.753 94.4546 107.753 94.4546L212.547 94.0112C212.547 94.0112 215.274 93.9982 215.274 96.0287C215.274 98.0909 212.409 97.9249 212.409 97.9249Z" fill="#AF6A1D"/>
<path d="M104.281 104.679H163.088C163.25 104.679 163.381 104.547 163.381 104.385C163.381 104.222 163.25 104.09 163.088 104.09H104.281C104.119 104.09 103.988 104.222 103.988 104.385C103.988 104.547 104.119 104.679 104.281 104.679Z" fill="#EA9C47"/>
<path d="M105.902 108.067L163.904 108.067C164.065 108.067 164.197 107.935 164.197 107.773C164.197 107.61 164.065 107.479 163.904 107.479H105.902C105.74 107.479 105.609 107.61 105.609 107.773C105.609 107.935 105.74 108.067 105.902 108.067Z" fill="#EA9C47"/>
<path d="M107.344 111.455H164.04C164.202 111.455 164.333 111.323 164.333 111.161C164.333 110.998 164.202 110.867 164.04 110.867H107.344C107.182 110.867 107.051 110.998 107.051 111.161C107.051 111.323 107.182 111.455 107.344 111.455Z" fill="#EA9C47"/>
<path d="M110.242 100.729H164.732C164.894 100.729 165.025 100.597 165.025 100.434C165.025 100.272 164.894 100.14 164.732 100.14H110.242C110.08 100.14 109.949 100.272 109.949 100.434C109.949 100.597 110.08 100.729 110.242 100.729Z" fill="#EA9C47"/>
<path d="M220.757 129.042C220.757 128.543 220.742 128.064 220.715 127.606C215.353 139.633 182.259 138.452 174.232 137.061C166.025 135.639 158.916 141.839 158.916 141.839L158.311 142.332L215.036 142.086C215.036 142.086 220.757 141.103 220.757 129.042Z" fill="#EA9C47"/>
<path d="M202.176 41.9596C202.055 41.9596 201.936 41.9055 201.856 41.8021C201.469 41.298 201.062 40.7949 200.648 40.307C200.504 40.1366 200.524 39.8808 200.694 39.7355C200.863 39.5903 201.118 39.6109 201.262 39.7811C201.685 40.2789 202.099 40.7921 202.495 41.3065C202.631 41.4836 202.598 41.7382 202.422 41.875C202.349 41.9321 202.262 41.9596 202.176 41.9596ZM199.331 38.6469C199.225 38.6469 199.12 38.6053 199.04 38.5224C198.601 38.0635 198.144 37.6068 197.68 37.1653C197.518 37.0113 197.511 36.7547 197.665 36.5922C197.818 36.4297 198.073 36.423 198.235 36.5767C198.708 37.027 199.174 37.4927 199.622 37.9607C199.776 38.1221 199.771 38.3788 199.611 38.5339C199.532 38.6094 199.432 38.6469 199.331 38.6469ZM196.153 35.6561C196.061 35.6561 195.969 35.6248 195.893 35.5607C195.407 35.149 194.904 34.7428 194.398 34.3534C194.222 34.2173 194.188 33.9628 194.324 33.7852C194.459 33.6075 194.712 33.5736 194.889 33.7101C195.404 34.107 195.917 34.521 196.413 34.9408C196.583 35.0851 196.605 35.3408 196.461 35.5119C196.381 35.6071 196.267 35.6561 196.153 35.6561ZM192.682 33.0134C192.604 33.0134 192.525 32.9907 192.455 32.9433C191.929 32.5835 191.387 32.2315 190.845 31.8969C190.656 31.7797 190.596 31.53 190.713 31.3393C190.83 31.1485 191.078 31.0893 191.268 31.2063C191.82 31.5473 192.372 31.9062 192.909 32.2728C193.093 32.3987 193.141 32.6507 193.016 32.8359C192.938 32.9512 192.811 33.0134 192.682 33.0134ZM188.96 30.7427C188.895 30.7427 188.83 30.7271 188.769 30.6941C188.207 30.3899 187.632 30.0955 187.06 29.8192C186.859 29.7221 186.775 29.48 186.872 29.2783C186.968 29.0766 187.209 28.9917 187.41 29.0886C187.993 29.3703 188.579 29.6704 189.151 29.9805C189.347 30.0867 189.421 30.3325 189.315 30.5296C189.242 30.6656 189.103 30.7427 188.96 30.7427ZM185.025 28.8681C184.974 28.8681 184.922 28.8583 184.871 28.8375C184.283 28.5935 183.681 28.3604 183.083 28.1447C182.873 28.0691 182.764 27.837 182.839 27.6262C182.915 27.4156 183.146 27.3061 183.355 27.3817C183.965 27.6017 184.579 27.8392 185.179 28.0879C185.385 28.1733 185.483 28.4102 185.398 28.6171C185.334 28.7736 185.184 28.8681 185.025 28.8681ZM180.918 27.4144C180.881 27.4144 180.843 27.4091 180.805 27.3979C180.193 27.2172 179.57 27.0493 178.953 26.8986C178.737 26.8458 178.604 26.6266 178.657 26.409C178.709 26.1916 178.927 26.0579 179.144 26.1109C179.773 26.2646 180.408 26.4359 181.032 26.6202C181.246 26.6833 181.368 26.9087 181.305 27.1234C181.254 27.3 181.093 27.4144 180.918 27.4144ZM176.682 26.4069C176.658 26.4069 176.633 26.4047 176.608 26.4002L176.574 26.394C176.355 26.3554 176.208 26.1454 176.246 25.9249C176.285 25.7044 176.496 25.5568 176.713 25.5955L176.754 25.6028C176.973 25.6433 177.118 25.8545 177.078 26.0746C177.042 26.2701 176.873 26.4069 176.682 26.4069Z" fill="#453075"/>
<path d="M128.072 35.542C127.958 35.542 127.845 35.4939 127.765 35.4003C127.62 35.2302 127.64 34.9743 127.809 34.8287C128.086 34.5909 128.371 34.3524 128.656 34.1198C128.829 33.9789 129.083 34.0058 129.223 34.1795C129.364 34.3534 129.337 34.6086 129.164 34.7496C128.884 34.9776 128.605 35.2114 128.334 35.4445C128.258 35.51 128.164 35.542 128.072 35.542ZM130.834 33.3653C130.709 33.3653 130.585 33.3067 130.506 33.1963C130.376 33.0144 130.418 32.7612 130.599 32.6307C131.126 32.2507 131.669 31.878 132.213 31.5229C132.4 31.401 132.649 31.4543 132.771 31.642C132.892 31.8298 132.839 32.0809 132.652 32.2028C132.119 32.551 131.586 32.9166 131.069 33.2893C130.998 33.3406 130.916 33.3653 130.834 33.3653ZM134.499 31.0029C134.359 31.0029 134.223 30.9294 134.149 30.7984C134.038 30.604 134.106 30.3564 134.299 30.2454C134.861 29.9232 135.439 29.6088 136.018 29.311C136.217 29.2092 136.459 29.2878 136.561 29.4871C136.662 29.6864 136.584 29.9306 136.386 30.0327C135.818 30.3248 135.25 30.6333 134.699 30.9495C134.636 30.9857 134.567 31.0029 134.499 31.0029ZM138.387 29.0311C138.232 29.0311 138.084 28.941 138.018 28.7895C137.928 28.5848 138.02 28.3454 138.223 28.2549C138.817 27.9913 139.424 27.7378 140.028 27.5017C140.236 27.42 140.47 27.5238 140.55 27.7323C140.631 27.9409 140.528 28.1759 140.321 28.2571C139.728 28.4889 139.132 28.7376 138.55 28.9964C138.497 29.0199 138.441 29.0311 138.387 29.0311ZM142.453 27.4675C142.283 27.4675 142.125 27.3587 142.07 27.1874C142.001 26.9746 142.117 26.7459 142.329 26.6766C142.946 26.4749 143.575 26.2849 144.2 26.1117C144.415 26.052 144.637 26.179 144.696 26.3948C144.756 26.6106 144.63 26.8338 144.415 26.8933C143.801 27.0631 143.184 27.2496 142.578 27.4475C142.537 27.461 142.495 27.4675 142.453 27.4675ZM146.657 26.329C146.471 26.329 146.304 26.1989 146.263 26.0087C146.217 25.7899 146.355 25.5744 146.573 25.5273C147.209 25.3899 147.855 25.266 148.493 25.1588C148.713 25.1211 148.921 25.271 148.957 25.4918C148.994 25.7126 148.846 25.9215 148.626 25.9584C148 26.0635 147.366 26.1851 146.743 26.3199C146.714 26.326 146.686 26.329 146.657 26.329ZM150.956 25.6332C150.753 25.6332 150.578 25.479 150.556 25.2712C150.532 25.0487 150.692 24.8488 150.914 24.8248C151.559 24.755 152.215 24.6997 152.862 24.6607C153.086 24.6493 153.275 24.8177 153.289 25.041C153.302 25.2645 153.133 25.4565 152.91 25.4699C152.276 25.5082 151.633 25.5623 151 25.6309C150.985 25.6325 150.971 25.6332 150.956 25.6332Z" fill="#453075"/>
<path d="M108.94 79.5644C108.752 79.5644 108.585 79.4327 108.545 79.2414C108.428 78.6758 108.324 78.098 108.235 77.5239C108.2 77.3027 108.351 77.0955 108.571 77.061C108.792 77.0267 108.998 77.178 109.032 77.399C109.119 77.9597 109.221 78.5242 109.335 79.0765C109.38 79.2958 109.24 79.5103 109.022 79.5558C108.994 79.5616 108.967 79.5644 108.94 79.5644ZM108.343 75.4528C108.136 75.4528 107.96 75.2934 107.942 75.0821C107.887 74.4337 107.848 73.7729 107.828 73.1179C107.821 72.8941 107.996 72.7072 108.219 72.7003C108.447 72.6977 108.628 72.8693 108.635 73.0929C108.654 73.7332 108.692 74.3791 108.746 75.0128C108.765 75.2359 108.6 75.4322 108.378 75.4513C108.367 75.4523 108.355 75.4528 108.343 75.4528ZM108.239 71.0791C108.234 71.0791 108.229 71.079 108.224 71.0789C108.001 71.0706 107.828 70.8827 107.836 70.659C107.859 70.0082 107.901 69.3477 107.96 68.6959C107.98 68.473 108.174 68.308 108.398 68.3287C108.62 68.3488 108.783 68.5459 108.763 68.7689C108.706 69.4062 108.665 70.0522 108.642 70.6886C108.634 70.9072 108.455 71.0791 108.239 71.0791ZM108.66 66.7247C108.639 66.7247 108.618 66.7231 108.596 66.7197C108.376 66.6848 108.226 66.4772 108.261 66.2561C108.362 65.6107 108.482 64.96 108.617 64.3221C108.663 64.1032 108.877 63.9633 109.096 64.0101C109.314 64.0567 109.453 64.2719 109.406 64.4909C109.274 65.1148 109.157 65.7512 109.058 66.3826C109.026 66.5822 108.855 66.7247 108.66 66.7247ZM109.594 62.4517C109.558 62.4517 109.521 62.4468 109.484 62.4363C109.27 62.3752 109.145 62.1512 109.206 61.9357C109.383 61.3074 109.58 60.6757 109.79 60.0584C109.862 59.8466 110.092 59.7338 110.303 59.8063C110.513 59.8788 110.626 60.1093 110.553 60.3211C110.348 60.9248 110.155 61.5424 109.982 62.1569C109.932 62.3353 109.77 62.4517 109.594 62.4517ZM111.033 58.3228C110.98 58.3228 110.928 58.3126 110.877 58.291C110.671 58.2043 110.575 57.9667 110.661 57.7604C110.913 57.1567 111.185 56.5537 111.468 55.968C111.566 55.7668 111.807 55.683 112.008 55.7807C112.208 55.8786 112.291 56.1211 112.194 56.3225C111.917 56.895 111.651 57.4844 111.405 58.0743C111.34 58.2294 111.19 58.3228 111.033 58.3228ZM112.964 54.4025C112.896 54.4025 112.827 54.385 112.763 54.3483C112.57 54.2367 112.504 53.9888 112.615 53.7949C112.733 53.5884 112.854 53.3833 112.976 53.1793C113.14 52.6821 113.275 52.3734 113.406 52.0747C113.496 51.8698 113.734 51.7768 113.938 51.867C114.142 51.9572 114.234 52.1963 114.145 52.4012C114.012 52.7042 113.887 52.9903 113.728 53.4757C113.719 53.505 113.706 53.5331 113.69 53.5596C113.562 53.7714 113.437 53.9847 113.314 54.1992C113.24 54.3295 113.104 54.4025 112.964 54.4025Z" fill="#453075"/>
<path d="M207.429 84.9923C207.371 84.9923 207.313 84.98 207.258 84.9538C207.056 84.8588 206.969 84.6174 207.064 84.4147C207.334 83.8367 207.593 83.2437 207.836 82.652C207.92 82.445 208.157 82.3464 208.362 82.4315C208.568 82.5167 208.666 82.7536 208.582 82.9606C208.334 83.5642 208.069 84.1694 207.794 84.7591C207.725 84.9061 207.58 84.9923 207.429 84.9923ZM209.063 80.9366C209.019 80.9366 208.975 80.9296 208.932 80.9146C208.721 80.8418 208.609 80.6112 208.681 80.3995C208.888 79.7944 209.083 79.1767 209.261 78.5636C209.324 78.3486 209.547 78.2247 209.762 78.288C209.975 78.3507 210.098 78.5757 210.036 78.7906C209.854 79.4159 209.655 80.0458 209.444 80.663C209.387 80.831 209.23 80.9366 209.063 80.9366ZM210.259 76.7293C210.229 76.7293 210.199 76.726 210.168 76.7189C209.951 76.6689 209.816 76.4514 209.865 76.2332C210.008 75.6089 210.137 74.9739 210.25 74.3461C210.29 74.1257 210.499 73.9787 210.719 74.0193C210.938 74.059 211.084 74.2698 211.044 74.4901C210.929 75.1304 210.797 75.7779 210.652 76.4145C210.609 76.6022 210.443 76.7293 210.259 76.7293ZM211.009 72.4191C210.993 72.4191 210.976 72.4181 210.96 72.4161C210.739 72.3891 210.581 72.187 210.608 71.9647C210.685 71.3317 210.748 70.6865 210.795 70.0473C210.812 69.8242 211.007 69.6584 211.227 69.6733C211.45 69.69 211.616 69.8844 211.6 70.1077C211.551 70.7594 211.487 71.4171 211.409 72.0626C211.384 72.2682 211.21 72.4191 211.009 72.4191ZM211.307 68.0537C211.305 68.0537 211.302 68.0537 211.3 68.0536C211.077 68.0501 210.9 67.8658 210.903 67.642C210.907 67.4237 210.908 67.2054 210.908 66.987C210.908 66.5651 210.902 66.1373 210.889 65.7156C210.882 65.4919 211.057 65.3048 211.279 65.2979C211.284 65.2978 211.288 65.2977 211.292 65.2977C211.509 65.2977 211.688 65.471 211.695 65.6904C211.708 66.1205 211.715 66.5568 211.715 66.987C211.715 67.2096 211.713 67.4323 211.71 67.6548C211.706 67.8765 211.527 68.0537 211.307 68.0537ZM211.145 63.6812C210.938 63.6812 210.762 63.523 210.743 63.3125C210.686 62.6743 210.612 62.0305 210.525 61.3991C210.494 61.1774 210.648 60.9726 210.869 60.9417C211.091 60.9117 211.293 61.0657 211.324 61.2873C211.413 61.9315 211.488 62.5882 211.547 63.2392C211.567 63.4622 211.403 63.6594 211.182 63.6795C211.169 63.6806 211.157 63.6812 211.145 63.6812Z" fill="#453075"/>
<path d="M140.296 145.859C140.066 147.184 141.582 147.867 142.704 147.847C146.834 148.067 150.497 145.396 153.769 142.856C155.593 141.596 157.807 139.205 156.382 136.929C156.782 137.581 158.296 137.3 158.872 136.798C160.134 135.699 158.953 134.162 158.413 132.837C155.369 125.519 157.3 111.617 166.941 121.982C167.808 122.948 168.718 123.975 169.953 124.365C171.187 124.756 172.821 124.185 173.071 122.909C175.432 123.888 179.791 125.042 181.439 120.766C182.317 118.488 178.566 116.993 178.143 114.832C177.379 110.93 181.963 108.91 182.356 105.197C186.597 101.302 193.564 100.879 199.256 101.659C200.046 100.877 199.001 97.6258 198.018 97.1087C180.564 95.0496 174.091 96.201 159.601 106.629C157.664 107.815 155.639 108.93 153.422 109.416C128.969 109.69 128.446 120.462 153.064 118.503C152.483 123.001 151.58 129.122 150.999 133.621C150.814 135.057 150.605 136.556 149.78 137.744C148.861 139.068 147.332 139.791 145.951 140.616C143.759 141.925 140.882 143.226 140.296 145.859Z" fill="#EA9C47"/>
<path d="M142.111 145.406C142.41 145.823 142.91 145.851 142.91 145.851L149.702 145.742C151.122 144.884 152.477 143.86 153.77 142.856C154.254 142.521 154.765 142.107 155.229 141.636L150.252 141.669C150.252 141.669 141.265 142.136 142.111 145.406Z" fill="#AF6A1D"/>
<path d="M194.208 89.8873C188.117 100.73 205.063 109.238 210.161 98.5339C215.758 86.7793 200.051 79.4888 194.208 89.8873Z" fill="#947EC6"/>
<path d="M204.259 42.6261C193.895 49.7354 205.438 64.8266 216.113 57.9665C227.313 50.7691 214.993 35.2623 204.259 42.6261Z" fill="#947EC6"/>
<path d="M157.011 19.2131C147.118 32.5301 164.885 44.4764 173.422 32.4152C176.657 27.8448 175.796 21.1845 170.532 17.6621C166.158 14.7346 159.443 15.9392 157.011 19.2131Z" fill="#947EC6"/>
<path d="M119.25 33.0907C112.398 33.3139 106.826 40.9352 110.552 47.936C112.425 51.4541 116.648 52.494 119.564 52.2414C132.369 51.1323 133.108 32.6391 119.25 33.0907Z" fill="#947EC6"/>
<path d="M111.301 80.7738C105.959 81.983 102.768 87.3605 103.72 92.3212C104.84 98.1614 109.731 101.957 115.687 100.046C118.584 99.1161 121.521 95.6387 122.16 92.5599C123.538 85.9137 118.334 79.1821 111.301 80.7738Z" fill="#947EC6"/>
<path d="M210.271 41.6006C210.255 43.5034 206.132 43.2381 207.157 47.6503C205.679 49.9636 203.801 52.8387 204.324 55.6528C204.512 56.6621 205.812 56.8581 206.47 56.0928C208.234 54.0418 208.635 50.9673 209.171 48.3682C211.755 47.8151 212.746 42.9745 210.271 41.6006Z" fill="#453075"/>
<path d="M203.795 54.2714C204.08 52.9043 204.601 51.3664 205.297 50.1376C205.456 49.8577 205.308 49.3661 204.898 49.3916C202.939 49.5135 202.05 51.048 202.1 52.4596C202.149 53.8712 203.692 55.133 203.795 54.2714Z" fill="#453075"/>
<path d="M126.369 43.1976C124.282 39.2462 120.471 42.2433 120.471 42.2433C120.471 42.2433 121.967 37.5296 119.218 35.7573C117.317 34.5316 114.261 35.5774 114.519 36.4136C114.676 36.9202 115.582 36.5966 115.965 36.8238C117.323 37.631 115.86 39.0146 115.925 40.0245C116.046 41.8958 117.424 41.7832 118.341 43.7602C119.407 46.0584 116.723 48.1599 116.922 50.0958C117.035 51.1878 118.269 51.0987 118.638 50.1315C119.372 48.21 118.966 46.1228 120.463 44.4316C120.821 44.0273 122.036 43.7884 122.026 44.5015C122.01 45.6966 122.229 48.0134 124.834 46.9084C125.557 46.5808 124.992 47.8844 125.547 47.9378C126.581 48.0374 127.022 44.4326 126.369 43.1976ZM119.047 42.0925C118.957 42.2072 118.777 42.1686 118.848 41.8598C119.554 39.4716 118.891 37.2407 116.804 36.0604C116.652 35.9297 116.747 35.8021 116.937 35.8668C119.28 36.4288 120.29 40.433 119.047 42.0925ZM125.862 46.6377C125.768 46.9113 125.522 46.6697 125.539 46.4278C126.149 43.1149 123.206 42.0612 121.484 43.0118C121.264 43.0734 121.128 42.7793 121.319 42.6534C123.887 41.0797 126.848 43.3948 125.862 46.6377Z" fill="#453075"/>
<path d="M163.9 28.3872C167.233 32.8915 174.484 29.066 170.902 24.1668C166.722 27.2428 164.181 23.8283 168.6 21.4722C165.498 15.45 158.108 22.101 162.169 25.9037C162.306 25.8582 153.776 31.5363 157.942 32.7076C159.606 32.3749 162.236 29.6016 163.9 28.3872Z" fill="#453075"/>
<path d="M114.82 93.4115C114.467 93.4115 114.143 93.1766 114.043 92.8179C113.924 92.3866 114.175 91.9396 114.604 91.8197L118.042 90.8586L115.309 89.4567C114.912 89.2533 114.754 88.765 114.957 88.3662C115.159 87.9672 115.645 87.8091 116.042 88.0126L120.62 90.36C120.916 90.5119 121.089 90.8308 121.056 91.1632C121.023 91.4957 120.79 91.7735 120.469 91.8631L115.037 93.3816C114.964 93.4018 114.892 93.4115 114.82 93.4115Z" fill="#453075"/>
<path d="M109.332 92.8252C109.151 92.8252 108.97 92.7647 108.819 92.6405L105.763 90.1127C105.554 89.9398 105.445 89.673 105.473 89.4024C105.501 89.1318 105.663 88.8934 105.903 88.7678L109.94 86.6553C110.335 86.4485 110.823 86.6028 111.028 86.9999C111.234 87.397 111.081 87.8866 110.685 88.0933L107.73 89.6397L109.845 91.3886C110.189 91.6731 110.238 92.184 109.955 92.5297C109.795 92.7244 109.564 92.8252 109.332 92.8252Z" fill="#453075"/>
<path d="M110.047 97.6213C109.947 97.6213 109.846 97.6026 109.748 97.5632C109.334 97.397 109.133 96.9251 109.298 96.5093C110.939 92.3879 114.126 84.0803 114.158 83.9969C114.318 83.5791 114.785 83.3709 115.201 83.532C115.617 83.6931 115.824 84.1623 115.663 84.58C115.631 84.6636 112.441 92.9807 110.796 97.1116C110.67 97.4285 110.367 97.6213 110.047 97.6213Z" fill="#453075"/>
<path d="M202.561 98.0188L204.831 96.2273C205.122 95.9981 205.544 96.2317 205.505 96.6008C205.387 97.7263 205.217 99.4242 205.251 99.5299C202.995 101.31 199.385 101.022 197.447 98.8963C197.429 98.8057 197.386 96.91 197.35 95.9472C197.34 95.6728 197.61 95.4765 197.866 95.5734C199.506 96.1955 202.561 98.0188 202.561 98.0188Z" fill="#453075"/>
<path d="M208.441 92.7767C208.226 92.6604 203.569 88.1244 203.569 88.1244C203.569 88.1244 202.801 87.461 201.826 88.1002C200.075 89.248 196.579 91.6502 195.005 92.9256C194.771 93.115 194.807 93.4819 195.074 93.6198C196.596 94.4057 200.739 96.3836 201.874 97.0842C202.222 97.299 202.665 97.2728 202.987 97.0196C203.78 96.3944 206.972 94.4723 208.246 93.6081C208.883 93.1758 208.441 92.7767 208.441 92.7767Z" fill="#453075"/>
<path d="M212.429 47.2895C212.409 47.3118 212.39 47.3355 212.373 47.3601C211.542 48.5453 211.284 50.2229 209.687 50.5141C209.396 50.5671 208.984 50.5407 208.893 51.1137C208.303 54.8077 206.483 56.5224 206.481 56.5242C206.172 56.7945 206.053 57.3648 206.392 57.5943C210.811 60.5816 217.168 56.7696 218.397 51.5049C218.401 51.4861 218.403 51.4668 218.408 51.4482C219.444 47.5609 215.548 43.8146 212.429 47.2895ZM208.262 57.2057C207.751 56.9054 208.035 55.8511 208.723 55.9788C210.107 56.2355 209.293 57.8122 208.262 57.2057ZM212.27 56.8811C212.086 57.488 211.094 57.6557 210.671 57.1218C210.348 56.7135 210.442 56.3004 210.905 55.9908C211.506 55.5885 212.504 56.1075 212.27 56.8811ZM213.065 56.0788C212.401 55.2567 213.575 54.6756 213.997 55.1631C214.832 56.1271 213.596 56.737 213.065 56.0788ZM215.003 55.0145C214.289 54.8448 214.085 53.3115 215.309 53.5588C216.347 53.7686 215.774 55.198 215.003 55.0145ZM214.667 51.3648C212.284 51.3538 212.669 48.6315 214.639 48.3911C216.469 48.1678 216.58 51.3736 214.667 51.3648Z" fill="#453075"/>
<path d="M179.871 120.17C180.169 119.94 180.225 119.512 179.997 119.213C178.876 117.747 175.018 112.824 173.381 110.818C172.818 110.199 169.764 111.694 169.764 111.694C169.764 111.694 169.165 111.742 169.635 113.073C169.677 113.192 170.151 116.313 171.426 116.766C172.472 117.138 172.821 118.095 173.295 119.016C173.682 119.768 174.126 120.393 174.697 120.91C176.433 122.478 178.828 120.976 179.871 120.17Z" fill="#CCDCEE"/>
<path d="M179.997 119.213C178.876 117.747 175.099 112.945 173.462 110.94C172.899 110.32 169.764 111.694 169.764 111.694C169.764 111.694 169.165 111.742 169.635 113.073C169.677 113.192 170.151 116.313 171.426 116.766C171.537 116.805 171.638 116.852 171.734 116.904C171.364 116.055 171.123 115.051 171.109 114.124C171.08 112.177 173.072 113.648 173.456 113.964C175.303 115.482 177.47 117.965 179.472 120.462C179.62 120.359 179.754 120.26 179.871 120.17C180.169 119.94 180.225 119.512 179.997 119.213Z" fill="#8AA0BC"/>
<path d="M177.844 120.99C177.067 120.866 176.42 120.309 175.957 119.67C175.051 118.418 174.709 116.594 173.273 115.839C172.406 115.383 171.225 114.998 170.191 115.136C170.473 115.873 170.875 116.57 171.427 116.766C172.473 117.139 172.822 118.095 173.296 119.016C173.683 119.768 174.127 120.394 174.698 120.91C175.903 121.998 177.424 121.608 178.591 120.998C178.338 121.029 178.083 121.028 177.844 120.99Z" fill="#E7F1FC"/>
<path d="M146.698 135.311C146.21 138.241 141.582 138.269 139.604 140.029C139.586 140.045 139.567 140.059 139.546 140.072C137.104 141.642 137.79 145.839 140.225 146.954C140.376 147.023 140.55 147.025 140.704 146.96C144.373 145.404 151.759 141.501 153.768 140.432C154.074 140.268 154.239 139.924 154.175 139.581L153.341 135.11C153.341 135.11 146.754 134.974 146.698 135.311Z" fill="#CCDCEE"/>
<path opacity="0.380392" d="M154.174 139.581L153.341 135.11C153.341 135.11 150.022 135.041 148.075 135.122C148.066 135.14 148.055 135.158 148.039 135.174C149.132 135.431 150.174 135.9 151.065 136.553C151.296 137.598 150.826 138.699 150.105 139.487C149.385 140.276 148.439 140.813 147.517 141.348C144.766 142.946 142.075 144.648 139.426 146.428C139.665 146.641 139.932 146.82 140.224 146.954C140.376 147.023 140.55 147.025 140.703 146.96C144.373 145.404 151.758 141.501 153.767 140.431C154.074 140.268 154.238 139.924 154.174 139.581Z" fill="#8AA0BC"/>
<path d="M145.145 139.779C147.471 139.248 148.102 137.18 148.623 135.104C147.552 135.132 146.717 135.192 146.697 135.311C146.209 138.242 141.581 138.269 139.603 140.029C139.585 140.045 139.566 140.059 139.546 140.073C137.732 141.238 137.645 143.852 138.716 145.577C139.136 141.574 140.893 140.75 145.145 139.779Z" fill="#E7F1FC"/>
<path d="M155.174 58.2963C152.236 57.7729 150.819 58.6204 149.844 60.3861C148.87 62.1517 149.863 64.5365 151.383 65.8573C153.165 67.4066 156.168 67.8091 159.233 66.0274C161.273 64.8417 162.75 66.9778 164.427 68.6417C166.106 70.3081 166.118 72.9755 166.906 75.2112C167.91 78.062 170.207 80.2257 172.423 82.271C174.258 83.9637 176.15 85.6927 178.468 86.6084C180.812 87.5344 183.406 87.7959 185.921 87.6595C189.715 87.4538 193.673 86.6112 196.733 84.3486C201.038 81.1663 202.597 74.7521 200.236 69.9343C197.874 65.1166 191.864 62.448 186.73 63.9375C183.769 64.7961 180.849 66.1215 177.819 65.5582C173.793 64.8098 173.995 62.4252 172.611 60.0991C171.228 57.7729 168.351 55.8609 165.695 55.6171C161.536 55.2354 159.944 59.146 155.174 58.2963Z" fill="#AF8C64"/>
<path d="M188.628 63.5769C187.812 64.5577 188.634 66.4654 190.058 66.876C192.258 67.5099 194.266 66.8698 196.403 68.2482C198.217 69.4181 198.819 72.2773 200.829 71.4355C200.669 70.9225 200.473 70.4201 200.235 69.9346C198.16 65.7012 193.268 63.1284 188.628 63.5769Z" fill="#C2A07A"/>
<path d="M157.074 60.6059C159.05 60.53 161.218 58.5586 162.948 57.5961C164.881 56.527 167.503 56.3048 169.641 57.0846C168.414 56.2814 167.027 55.7394 165.695 55.6171C161.535 55.2354 159.944 59.146 155.174 58.2963C152.737 57.8622 151.348 58.3733 150.389 59.5667C152.509 58.7127 154.567 60.7022 157.074 60.6059Z" fill="#C2A07A"/>
<path d="M179.418 67.5846C182.076 67.632 183.721 66.3156 185.351 64.3633C182.859 65.1629 180.378 66.0342 177.82 65.5585C175.393 65.1074 174.503 64.0617 173.875 62.793C174.323 65.4755 177.483 67.55 179.418 67.5846Z" fill="#94724C"/>
<path d="M201.044 72.2386C200.486 81.6352 191.425 83.861 188.089 83.0432C172.921 79.3248 167.588 66.0549 170.259 64.9156C170.733 64.7138 169.713 64.0379 169.406 63.9217C167.949 63.37 166.729 63.8298 163.728 61.3971C157.023 67.0002 150.445 64.5694 149.691 60.7095C148.991 62.4335 149.954 64.6159 151.382 65.8578C153.165 67.407 156.168 67.8095 159.233 66.0278C161.273 64.8421 162.75 66.9782 164.427 68.6421C166.106 70.3086 166.118 72.9759 166.905 75.2116C167.909 78.0624 170.206 80.2261 172.423 82.2714C174.258 83.9641 176.149 85.6931 178.467 86.6088C180.811 87.5348 183.406 87.7963 185.921 87.6599C189.715 87.4542 193.672 86.6116 196.733 84.349C200.38 81.6529 202.053 76.638 201.044 72.2386Z" fill="#94724C"/>
<path d="M158.992 66.1086C158.859 66.1707 158.733 68.8188 160.165 71.8042C161.055 73.6602 163.547 73.5907 163.547 73.5907C163.547 73.5907 163.582 75.5261 163.947 76.3995C164.69 78.1762 169.036 77.0142 168.537 75.3367C168.049 73.6941 167.851 69.8569 167.891 69.8142C168.904 68.7535 169.051 68.0376 169.064 68.0006C170.954 69.5465 172.098 64.8373 170.283 64.2786C169.058 63.9012 168.839 65.2141 168.736 65.0391C165.594 64.93 163.361 62.3177 163.304 62.4168C163.187 62.4843 161.977 64.7234 158.992 66.1086Z" fill="#EDD2B4"/>
<path d="M163.543 73.591C163.546 73.591 163.548 73.5909 163.548 73.5909C163.548 73.5909 163.569 74.7012 163.737 75.6194C163.755 75.6169 164.26 75.532 164.588 75.3955C167.154 74.3297 167.384 72.0089 167.278 71.0165C167.242 70.6857 167.062 70.6826 167.062 70.6826C167.062 70.6826 166.128 71.8328 165.557 72.3741C164.614 73.269 163.582 73.5366 163.543 73.591Z" fill="#D1B496"/>
<path d="M154.051 113.728C155.196 110.028 155.179 106.081 155.144 102.206C149.772 103.826 133.451 107.085 133.656 112.667C133.836 117.55 143.794 115.888 153.444 115.977C153.558 115.223 153.825 114.457 154.051 113.728Z" fill="#292F73"/>
<path d="M174.175 107.418C173.815 105.883 164.233 105.153 161.275 102.267C159.494 100.53 156.987 101.653 155.815 102.027C155.822 102.336 155.791 102.653 155.752 102.951C155.569 104.359 155.384 105.777 154.948 107.128C154.512 108.48 153.806 109.775 152.731 110.698C151.772 111.522 150.573 112.007 149.377 112.413C144.465 114.079 139.181 114.625 134.033 114.012C137.297 119.469 160.731 111.805 168.764 120.278C170.671 122.289 171.414 122.462 171.462 120.898C172.122 117.582 170.861 114.465 169.503 111.941C169.542 111.859 169.608 111.787 169.685 111.738C169.835 111.641 171.763 111.255 172.913 111.021C173.044 110.994 173.177 110.968 173.309 110.984C173.441 111 173.574 111.067 173.637 111.185C173.811 110.908 174.418 108.452 174.175 107.418Z" fill="#1D273D"/>
<path d="M143.79 134.841C149.538 127.574 153.179 112.225 154.554 101.904C154.997 100.327 155.37 98.5472 156.926 98.0538C162.717 97.3015 165.436 104.245 170.476 106.109C167.517 109.206 162.259 105.181 160.96 102.118C160.693 102.12 160.589 102.813 160.66 103.178C161.664 113.602 152.76 122.801 157.015 133.506C158.343 136.102 157.139 135.485 155.164 135.391C150.484 135.204 147.096 135.383 144.224 135.556C143.815 135.57 143.389 135.354 143.79 134.841Z" fill="#292F73"/>
<path d="M152.9 119.872C154.228 114.041 155.106 106.562 156.49 102.298C156.753 101.488 157.281 100.072 157.827 99.6988C159.248 98.728 160.885 99.2091 162.13 99.5606C160.619 98.4774 158.962 97.7897 156.926 98.0543C155.37 98.5477 154.997 100.328 154.554 101.905C153.179 112.226 149.538 127.574 143.79 134.842C143.389 135.354 143.815 135.57 144.224 135.557C144.962 135.512 145.735 135.468 146.554 135.429C149.82 130.858 151.649 125.371 152.9 119.872Z" fill="#475196"/>
<path d="M149.471 105.196C150.557 104.393 151.232 103.739 151.635 103.166C145.378 104.822 135.509 107.479 133.885 111.435C137.831 111.951 145.389 108.217 149.471 105.196Z" fill="#475196"/>
<path d="M161.568 110.282C161.214 111.788 160.86 113.293 160.451 114.699C164.975 115.49 168.55 117.694 171.48 120.801C172.23 116.817 170.226 113.128 168.644 110.416C168.626 110.407 168.609 110.398 168.591 110.389C166.285 110.905 163.858 110.868 161.568 110.282Z" fill="#292F73"/>
<path d="M171.614 119.771C171.883 116.185 170.088 112.893 168.644 110.416C168.626 110.408 168.609 110.398 168.591 110.39C167.789 110.569 166.973 110.68 166.152 110.726C169.149 112.683 170.848 117.48 171.614 119.771Z" fill="#475196"/>
<path d="M141.713 84.6928C144.678 85.2722 148.159 86.366 151.009 84.9686C154.334 83.0759 156.584 74.5629 161.222 76.753C162.296 74.4457 164.899 76.8881 166.621 76.4817C167.63 76.2493 168.317 75.249 169.315 74.9732C170.324 74.6945 171.414 75.2186 171.703 76.2378C176.096 74.8239 177.398 79.2558 178.765 81.8577C180.172 84.5368 182.574 85.1364 183.842 88.4907C185.801 93.6722 184.201 100.656 179.231 103.183C180.261 104.452 179.443 106.526 178.057 106.966C167.583 110.29 165.68 100.544 159.088 98.2725C158.302 98.0002 156.98 97.7635 156.28 98.4944C155.714 99.0858 155.205 99.4383 154.755 98.2032C152.119 98.7164 151.669 95.491 152.348 93.6024C152.859 92.181 154.566 91.4401 155.665 92.3801C155.903 91.7186 157.528 91.0215 158.174 91.0578C158.02 90.3333 158.609 90.1258 158.609 90.1258C158.609 90.1258 161.214 89.7033 160.723 87.5852C160.616 87.1239 159.789 86.7887 158.471 88.2395C158.058 88.6938 146.551 90.068 146.297 89.9992C144.652 88.406 143.251 86.5363 141.713 84.6928Z" fill="#CCDCEE"/>
<path d="M159.087 98.2724C159.682 98.4771 160.237 98.7432 160.765 99.0542C160.671 98.8534 160.509 98.6359 160.259 98.4009C159.052 97.263 158.155 97.411 156.997 96.8081C156.303 96.4469 155.922 95.9169 155.922 95.9169C155.922 95.9169 155.909 95.1584 155.768 94.6363C155.485 93.8072 155.328 94.3555 155.35 95.088C155.369 95.7642 154.907 96.7354 154.068 96.8656C153.301 96.9845 152.728 96.2835 152.527 95.59C152.446 95.2513 152.462 94.7245 152.109 94.6287C151.879 96.4576 152.556 98.6311 154.755 98.203C155.205 99.4381 155.714 99.0856 156.28 98.4942C156.98 97.7633 158.301 98.0001 159.087 98.2724Z" fill="#8AA0BC"/>
<path d="M178.226 87.6842C177.319 87.0208 176.846 85.778 176.104 84.9314C175.661 84.4256 174.871 82.4434 174.575 83.2187C174.197 84.2087 174.905 85.5743 173.912 86.9127C173.481 87.4928 172.567 87.8374 171.379 88.5272C169.918 89.3755 168.715 91.2806 166.835 91.7248C166.008 91.9203 166.567 92.4502 167.162 92.3413C167.607 92.2598 167.872 92.2323 168.023 92.1812C174.949 89.8334 174.879 89.0646 178.712 88.5371C178.953 88.1348 178.535 87.9099 178.226 87.6842Z" fill="#8AA0BC"/>
<path d="M156.055 92.2945C156.187 92.3256 156.324 92.2861 156.455 92.2507C157.797 91.8868 159.231 91.9299 160.578 92.2732C161.925 92.6165 163.188 93.2524 164.483 94.1666C165.625 95.1846 166.803 96.2245 168.234 96.7594C169.665 97.2942 171.104 97.0972 172.219 96.0488C173.366 94.9699 173.758 93.2958 174.553 91.9341C176.737 88.1961 178.71 89.1993 178.679 88.3264C178.67 88.068 177.49 87.1956 174.528 88.3281C172.133 89.2436 171.267 90.353 168.352 91.9002C167.766 92.2111 167.083 92.3168 166.422 92.3486C165.229 92.4059 163.342 91.2115 160.149 91.0842C159.351 91.0523 158.72 90.9929 158.166 91.0039C158.169 91.022 158.171 91.0391 158.175 91.0579C157.619 91.0267 156.34 91.5387 155.842 92.1036C155.869 92.1948 155.959 92.2717 156.055 92.2945Z" fill="#E7F1FC"/>
<path d="M183.842 88.4905C182.574 85.1362 180.173 84.5365 178.765 81.8575C178.274 80.9223 177.79 79.7513 177.169 78.6997C176.664 83.4336 181.418 86.8979 182.15 91.4542C183.194 97.9595 179.032 106.085 169.571 104.247C168.069 103.955 166.373 102.85 164.764 102.431C168.002 105.7 171.185 109.147 178.058 106.966C179.444 106.526 180.262 104.452 179.231 103.183C184.201 100.655 185.802 93.672 183.842 88.4905Z" fill="#8AA0BC"/>
<path d="M143.493 86.2355C149.405 88.1359 152.901 86.7906 154.666 84.8171C156.935 82.2797 156.673 78.3909 161.709 77.4945C162.061 77.7285 163.364 78.3987 163.229 77.4232C163.51 77.4211 163.785 77.2701 163.939 77.0342C164.491 77.1414 166.437 77.2912 166.405 76.5163C164.688 76.6947 162.252 74.5402 161.222 76.7531C156.584 74.563 154.334 83.076 151.009 84.9686C148.159 86.366 144.678 85.2723 141.713 84.6929C142.129 85.1909 142.534 85.6904 142.937 86.1863C143.093 86.1494 143.29 86.1704 143.493 86.2355Z" fill="#E7F1FC"/>
<path d="M154.095 93.661C154.132 92.9653 154.776 92.5933 155.122 92.0625C154.07 91.6841 152.78 92.3993 152.348 93.6024C152.215 93.9719 152.126 94.3929 152.088 94.8268C152.841 96.0349 154.013 95.1676 154.095 93.661Z" fill="#E7F1FC"/>
<path d="M163.801 78.3748C163.472 78.1844 163.484 78.6113 163.752 78.8065C164.946 79.6753 166.953 80.4878 169.824 79.2008C171.177 78.5947 171.622 77.5745 171.702 76.235C171.413 75.2177 170.324 74.6947 169.316 74.9732C168.615 75.1669 168.067 75.7171 167.454 76.1085C170.408 76.0672 167.167 80.3242 163.801 78.3748Z" fill="#8AA0BC"/>
<path d="M166.334 91.0386C166.703 89.7101 165.799 79.4403 161.139 81.4936C160.116 81.9447 160.304 83.5635 161.51 83.7364C159.741 83.5634 158.564 84.8772 157.936 86.1473L158.039 88.3996C158.277 88.3387 158.429 88.2843 158.47 88.2392C159.789 86.7884 160.616 87.1236 160.723 87.5849C161.214 89.7031 158.609 90.1255 158.609 90.1255C158.609 90.1255 158.42 90.1922 158.284 90.381C159.652 90.3769 161.274 90.1443 162.789 90.3342C164.304 90.5241 165.713 91.1364 166.334 91.0386Z" fill="#E7F1FC"/>
<path d="M162.459 87.7958C163.484 86.4223 163.022 83.7942 161.249 83.6685C161.33 83.6982 161.416 83.7231 161.51 83.7365C159.741 83.5635 158.564 84.8773 157.936 86.1474L158.039 88.3997C158.277 88.3388 158.429 88.2844 158.47 88.2393C159.789 86.7885 160.616 87.1237 160.723 87.585C161.214 89.7032 158.609 90.1256 158.609 90.1256C158.609 90.1256 158.42 90.1922 158.284 90.3811C158.399 90.3807 159.142 90.4854 160.067 89.9917C160.992 89.498 162.1 88.406 162.459 87.7958Z" fill="#8AA0BC"/>
<path d="M154.755 98.2029C152.118 98.7161 151.669 95.4908 152.347 93.6022C152.858 92.1808 154.566 91.4398 155.664 92.3798C155.902 91.7184 157.528 91.0213 158.173 91.0576C158.08 90.6192 158.259 90.371 158.415 90.2426C158.486 89.6726 158.636 87.1389 158.732 85.5758C158.763 85.0586 158.229 84.7003 157.765 84.928C154.821 86.3756 147.539 88.094 146.611 89.1974C146.42 89.4238 146.314 89.6598 146.377 89.7153C146.314 89.7658 140.881 83.1529 140.276 82.3234C139.549 81.3506 138.858 81.1701 138.74 82.5053C138.208 88.1975 137.762 93.9116 137.393 99.6118C137.348 100.194 137.333 100.859 137.749 101.265C140.309 102.36 143.347 102.432 146.113 102.717C146.298 103.373 147.039 103.172 147.496 102.987C147.763 102.821 152.673 101.516 154.819 100.951C155.028 100.232 155.273 99.5327 155.668 98.987C155.341 99.127 155.036 98.9758 154.755 98.2029Z" fill="#947EC6"/>
<path d="M154.755 98.2033C152.833 98.5773 152.074 96.9654 152.066 95.3326C148.971 93.6105 144.948 91.9869 143.541 91.7812C143.345 91.9477 143.484 92.2463 143.573 92.4882C143.796 93.093 144.848 93.3714 145.343 93.6596C145.376 93.8911 145.225 94.1351 145.004 94.1851C144.349 94.1766 143.696 94.0299 143.1 93.7572C142.95 93.6887 142.787 93.6103 142.628 93.6529C142.433 93.7052 142.346 93.929 142.329 94.1314C142.239 95.1793 143.714 95.4121 143.99 95.7766C143.682 95.7947 143.375 95.8129 143.067 95.831C142.824 95.5547 142.259 95.976 142.233 96.483C142.186 97.3819 143.983 97.9831 144.053 98.0664C142.455 99.6682 140.007 100.36 137.812 99.8294C137.673 99.7957 137.518 99.7615 137.381 99.7847C137.349 100.321 137.373 100.899 137.749 101.266C140.292 102.353 143.306 102.431 146.057 102.712C146.108 101.599 146.158 100.486 146.201 99.367C148.126 99.6688 150.139 99.3765 151.916 98.5747C151.89 98.5966 152.589 99.6416 153.729 99.8046C153.728 99.9631 153.727 100.122 153.726 100.28C153.724 100.602 153.724 100.927 153.768 101.229C154.159 101.125 154.517 101.031 154.819 100.951C155.029 100.229 155.278 99.5299 155.677 98.9833C155.346 99.1296 155.039 98.9829 154.755 98.2033Z" fill="#453075"/>
<path d="M143.703 88.2012C142.886 90.9427 139.272 92.6475 137.789 93.9606C137.754 94.4292 137.717 94.8977 137.684 95.3662C139.71 95.2847 141.622 94.4329 143.046 92.4696C143.782 91.4541 145.774 88.3965 143.703 88.2012Z" fill="#453075"/>
<path d="M148.569 89.8252C147.387 89.8439 147.942 92.2132 148.777 92.3772C151.589 93.2078 148.968 90.8692 148.569 89.8252Z" fill="#453075"/>
<path d="M146.033 91.7652C146.116 89.4265 146.742 90.0574 146.704 91.9875C146.491 91.9173 146.278 91.8471 146.033 91.7652Z" fill="#453075"/>
<path d="M153.093 92.5257C152.965 92.3967 151.518 91.4067 151.518 91.4052C150.672 90.8503 149.207 89.6177 148.667 89.7838C147.425 90.1655 149.174 92.0152 149.848 92.4422C148.975 92.5212 145.087 91.1226 144.054 91.2165C143.611 91.2567 143.134 91.7103 143.571 92.2446C144.178 92.9886 146.567 93.3277 147.62 93.7172C147.76 93.769 147.735 93.9022 147.568 93.8792C146.8 93.7739 144.346 93.2968 143.342 93.1623C142.904 93.1037 142.458 93.2829 142.4 93.5229C142.325 93.8314 142.731 94.2403 142.947 94.373C143.81 94.9035 146.342 95.3505 147.07 95.5158C147.133 95.5301 147.123 95.6234 147.059 95.6228C145.739 95.6115 143.175 95.0863 142.743 96.0089C142.344 96.8623 144.444 97.4429 145.313 97.3018C144.495 99.456 150.918 98.2318 151.947 97.7946C152.102 97.7575 152.512 97.5202 152.639 97.444C151.941 96.4546 151.928 94.7723 152.349 93.6023C152.503 93.1714 152.769 92.8037 153.093 92.5257Z" fill="#EDD2B4"/>
<path d="M152.349 93.6023C152.377 93.5231 152.411 93.4469 152.446 93.3721C151.752 94.0852 151.636 95.0039 150.392 95.8753C148.237 97.3855 145.05 97.1278 142.755 95.9875C142.752 95.9948 142.747 96.0014 142.743 96.0089C142.344 96.8623 144.445 97.4429 145.313 97.3019C144.495 99.456 150.918 98.2318 151.947 97.7946C152.102 97.7576 152.19 97.6934 152.228 97.6056C152.372 97.5682 152.512 97.5202 152.639 97.444C151.942 96.4546 151.928 94.7723 152.349 93.6023Z" fill="#D1B496"/>
<path d="M147.059 95.6229C147.046 95.6228 147.032 95.6223 147.018 95.6221C147.57 95.9077 147.827 95.2208 147.16 94.9077C145.661 94.2033 143.802 94.5753 142.657 93.2646C142.522 93.3311 142.425 93.4207 142.4 93.5229C142.325 93.8315 142.731 94.2404 142.947 94.3731C143.526 94.7292 144.857 95.0476 145.891 95.2685C146.158 95.3014 146.407 95.3472 146.626 95.4218C146.807 95.4591 146.96 95.4908 147.07 95.5159C147.133 95.5302 147.123 95.6234 147.059 95.6229Z" fill="#D1B496"/>
<path d="M149.843 92.4387C149.88 92.4463 149.917 92.4551 149.954 92.461C150.074 92.4801 150.227 92.4742 150.279 92.3641C150.309 92.3004 150.292 92.2248 150.268 92.1585C150.133 91.7908 149.818 91.5265 149.541 91.2509C149.264 90.9754 148.999 90.6326 149.013 90.2411C149.018 90.0969 149.059 89.9468 149.013 89.8118C148.877 89.7704 148.758 89.756 148.667 89.784C147.428 90.1647 149.164 92.0055 149.843 92.4387Z" fill="#D1B496"/>
<path d="M143.569 92.2445C144.044 92.8263 145.609 93.1606 146.772 93.4649C147.02 93.5061 147.25 93.562 147.435 93.654C147.499 93.6749 147.561 93.6959 147.618 93.717C147.716 93.7533 147.732 93.8284 147.676 93.863C147.716 93.9117 147.774 93.9462 147.837 93.9499C147.933 93.9556 148.028 93.8942 148.063 93.805C148.128 93.6387 147.99 93.466 147.854 93.3506C147.115 92.7228 146.155 92.4297 145.211 92.2117C144.956 92.1528 144.696 92.0969 144.464 91.9761C144.231 91.8553 144.024 91.6586 143.953 91.4052C143.938 91.3517 143.928 91.2965 143.915 91.2427C143.521 91.3521 143.178 91.7653 143.569 92.2445Z" fill="#D1B496"/>
<path d="M138.879 87.429C138.788 86.5874 138.843 84.8364 138.752 83.9998C138.733 83.8187 138.508 83.8748 138.335 83.9284C137.512 84.1832 137.449 85.6013 137.358 86.2435C137.214 87.2577 136.4 88.0983 136.065 88.719C135.035 90.6315 135.215 93.2064 136.637 93.9925C139.319 95.4758 143.832 90.1062 144.026 88.814C144.098 88.3352 144.041 87.8993 143.57 87.4507C143.571 86.8277 142.687 87.1509 142.637 87.1691C142.637 87.1691 142.33 86.6972 141.739 86.655C140.862 86.5923 139.515 86.9983 138.879 87.429Z" fill="#EDD2B4"/>
<path d="M137.006 88.819C137.695 88.3163 138.384 87.8137 139.073 87.311C139.003 87.35 138.937 87.3893 138.878 87.429C138.788 86.5875 138.842 84.8365 138.752 83.9999C138.742 83.907 138.678 83.8769 138.595 83.8765C138.5 84.6593 138.39 85.4408 138.197 86.2045C137.961 87.1374 137.596 88.049 137.006 88.819Z" fill="#D1B496"/>
<path d="M144.027 88.814C144.055 88.6241 144.063 88.441 144.033 88.2612C143.114 90.4991 138.774 94.6053 135.562 92.4883C135.748 93.1543 136.106 93.6985 136.638 93.9924C139.32 95.4758 143.833 90.1061 144.027 88.814Z" fill="#D1B496"/>
<path d="M142.597 87.1934C142.609 87.1835 142.619 87.1714 142.63 87.16C142.602 87.1201 142.471 86.9458 142.241 86.812C141.659 86.9171 141.106 87.1654 140.607 87.4876C140.04 87.8545 139.539 88.3153 139.062 88.7954C138.988 88.87 138.913 88.9487 138.878 89.0482C138.843 89.1477 138.862 89.2742 138.949 89.3334C139.046 89.3999 139.178 89.3574 139.284 89.3048C139.724 89.0856 140.08 88.7312 140.463 88.4208C141.023 87.9661 141.653 87.5979 142.323 87.3331C142.418 87.2953 142.517 87.2585 142.597 87.1934Z" fill="#D1B496"/>
<path d="M143.944 87.9633C143.869 87.7924 143.75 87.6227 143.57 87.4512C143.373 87.8391 143.026 88.1339 142.688 88.4123C142.113 88.8863 141.537 89.3612 140.917 89.7743C140.444 90.089 139.929 90.386 139.634 90.8728C139.595 90.9385 139.559 91.0097 139.555 91.0865C139.551 91.1632 139.588 91.2465 139.658 91.2767C139.736 91.3102 139.824 91.2713 139.899 91.232C141.341 90.4777 142.563 89.3642 143.72 88.2174C143.8 88.138 143.881 88.0562 143.944 87.9633Z" fill="#D1B496"/>
</g>
<defs>
<clipPath id="clip0_8172_24814">
<rect width="188" height="148" fill="white" transform="translate(66 16)"/>
</clipPath>
</defs>
</svg>
