<svg width="320" height="180" viewBox="0 0 320 180" fill="none" xmlns="http://www.w3.org/2000/svg">
<g clip-path="url(#clip0_8172_24912)">
<path d="M108.221 24.9594C101.125 29.0391 93.7743 33.3526 89.2279 40.172C84.6814 46.9913 83.9086 57.0951 89.7368 62.8505C94.4452 67.5 102.273 68.3817 106.052 73.8174C109.974 79.4573 107.468 87.6995 102.416 92.3474C97.364 96.9952 90.489 98.9622 83.9088 100.89C77.3285 102.818 70.4755 105.032 65.7274 109.992C57.5963 118.486 58.5585 133.133 65.867 142.348C73.1755 151.563 83.9002 159.08 95.6245 159.68C107.349 160.28 134.767 152.484 195.84 144.708C206.739 143.32 223.383 150.84 233.974 147.909C244.067 145.116 252.212 139.542 257.759 125.684C262.546 113.722 264.733 63.5751 209.156 73.7539C201.564 75.1443 190.366 77.9407 184.105 73.4147C178.331 69.2405 177.338 63.1695 176.171 56.1269C175.004 49.0844 174.608 41.7169 171.354 35.3673C166.449 25.7939 157.561 18.9525 146.918 17.5752C136.275 16.1978 122.414 16.799 108.221 24.9594Z" fill="#E9D2B1"/>
<path d="M218.627 140.163C215.679 142.314 214.259 146.159 214.418 149.815C214.576 153.47 216.133 156.943 218.127 159.799C201.52 163.3 184.296 162.448 167.464 160.293C163.912 159.838 160.138 159.223 157.478 156.817C155.42 154.956 154.286 152.112 154.495 149.34C154.705 146.567 156.255 143.928 158.569 142.401C161.259 140.625 164.651 140.406 167.87 140.321C173.046 140.184 178.225 140.252 183.403 140.32C194.526 140.465 205.649 140.61 218.627 140.163Z" fill="#EA9C47"/>
<path d="M110.075 138.467L218.264 138.19C218.264 138.19 221.447 137.716 221.447 140.125C221.447 142.183 217.699 141.788 217.699 141.788C217.699 141.788 183.128 141.787 165.173 142.106C165.199 142.098 159.371 142.514 159.371 149.864C159.371 157.957 165.694 158.653 165.694 158.653L217.231 159.15C217.231 159.15 220.512 158.896 220.753 161.632C220.97 164.104 217.538 163.999 217.538 163.999L109.382 163.538C109.382 163.538 103.529 162.547 103.529 150.397C103.529 139.703 110.075 138.467 110.075 138.467Z" fill="#FCCA95"/>
<path d="M214.418 150.066H214.418L162.488 150.007C162.35 150.007 162.238 149.894 162.238 149.756C162.238 149.617 162.351 149.505 162.489 149.505H162.489L214.419 149.564C214.557 149.564 214.669 149.676 214.669 149.815C214.669 149.954 214.556 150.066 214.418 150.066Z" fill="#AF6A1D"/>
<path d="M214.761 153.634H166.342C166.204 153.634 166.092 153.521 166.092 153.383C166.092 153.244 166.204 153.131 166.342 153.131H214.761C214.899 153.131 215.011 153.244 215.011 153.383C215.011 153.521 214.899 153.634 214.761 153.634Z" fill="#AF6A1D"/>
<path d="M216.39 157.156H174.45C174.311 157.156 174.199 157.043 174.199 156.904C174.199 156.766 174.311 156.653 174.45 156.653H216.39C216.528 156.653 216.64 156.766 216.64 156.904C216.64 157.043 216.528 157.156 216.39 157.156Z" fill="#AF6A1D"/>
<path d="M214.851 146.284H165.823C165.684 146.284 165.572 146.172 165.572 146.033C165.572 145.894 165.684 145.782 165.823 145.782H214.851C214.99 145.782 215.102 145.894 215.102 146.033C215.102 146.172 214.99 146.284 214.851 146.284Z" fill="#AF6A1D"/>
<path d="M160.108 119.176C162.205 121.75 163.335 125.099 163.226 128.422C163.118 131.744 161.772 135.012 159.512 137.443C178.807 135.159 198.496 139.211 217.709 136.316C220.434 135.905 223.384 135.211 225.068 133.022C226.285 131.44 226.61 129.333 226.545 127.335C226.468 124.983 225.803 122.481 223.988 120.99C222.21 119.53 219.743 119.346 217.448 119.239C198.753 118.371 180.017 118.416 160.108 119.176Z" fill="#FCCA95"/>
<path d="M112.272 119.272C114.449 121.535 115.664 124.699 115.563 127.843C115.462 130.986 114.045 134.065 111.746 136.485C128.734 135.209 161.408 136.204 160.877 136.073C163.391 134.023 165.243 131.016 165.41 127.77C165.577 124.525 163.831 121.128 160.867 119.817C159.155 119.06 128.142 118.629 112.272 119.272Z" fill="#EA9C47"/>
<path d="M113.688 120.513L218.493 121.001C218.493 121.001 224.756 122.392 224.756 128.228C224.756 134.867 217.49 134.944 217.49 134.944L113.273 134.712C113.273 134.712 108.924 134.56 109.285 136.73C109.698 139.218 113.237 138.816 113.237 138.816L218.123 138.511C218.123 138.511 228.991 139.271 228.991 128.432C228.991 116.856 217.986 117.252 217.986 117.252L113.55 116.835C113.55 116.835 110.833 116.823 110.833 118.731C110.833 120.669 113.688 120.513 113.688 120.513Z" fill="#AF6A1D"/>
<path d="M221.447 126.881H162.841C162.677 126.881 162.545 126.748 162.545 126.584C162.545 126.42 162.677 126.288 162.841 126.288H221.447C221.611 126.288 221.743 126.42 221.743 126.584C221.743 126.748 221.611 126.881 221.447 126.881Z" fill="#EA9C47"/>
<path d="M219.832 130.066H162.028C161.865 130.066 161.732 129.933 161.732 129.769C161.732 129.605 161.865 129.472 162.028 129.472H219.832C219.995 129.472 220.128 129.605 220.128 129.769C220.128 129.933 219.995 130.066 219.832 130.066Z" fill="#EA9C47"/>
<path d="M218.394 133.25H161.892C161.728 133.25 161.596 133.117 161.596 132.953C161.596 132.789 161.728 132.656 161.892 132.656H218.394C218.558 132.656 218.69 132.789 218.69 132.953C218.69 133.117 218.558 133.25 218.394 133.25Z" fill="#EA9C47"/>
<path d="M215.506 123.168H161.202C161.039 123.168 160.906 123.035 160.906 122.872C160.906 122.708 161.039 122.575 161.202 122.575H215.506C215.67 122.575 215.802 122.708 215.802 122.872C215.802 123.035 215.67 123.168 215.506 123.168Z" fill="#EA9C47"/>
<path d="M218.627 93.4546C215.679 95.6055 214.259 99.451 214.418 103.107C214.576 106.762 216.133 110.235 218.127 113.091C201.52 116.592 184.296 115.74 167.464 113.585C163.912 113.13 160.138 112.515 157.478 110.109C155.42 108.248 154.286 105.404 154.495 102.631C154.705 99.8591 156.255 97.22 158.569 95.6926C161.259 93.917 164.651 93.6983 167.87 93.6132C173.046 93.4764 178.225 93.544 183.403 93.6117C194.526 93.757 205.649 93.9023 218.627 93.4546Z" fill="#EA9C47"/>
<path d="M110.075 91.7586L218.264 91.4822C218.264 91.4822 221.447 91.008 221.447 93.4165C221.447 95.4754 217.699 95.0796 217.699 95.0796C217.699 95.0796 183.128 95.0789 165.173 95.3984C165.199 95.3901 159.371 95.8058 159.371 103.156C159.371 111.249 165.694 111.945 165.694 111.945L217.231 112.442C217.231 112.442 220.512 112.188 220.753 114.924C220.97 117.396 217.538 117.291 217.538 117.291L109.382 116.83C109.382 116.83 103.529 115.839 103.529 103.688C103.529 92.9945 110.075 91.7586 110.075 91.7586Z" fill="#FCCA95"/>
<path d="M214.418 103.358H214.418L162.488 103.299C162.35 103.299 162.238 103.186 162.238 103.048C162.238 102.909 162.351 102.797 162.489 102.797H162.489L214.419 102.856C214.557 102.856 214.669 102.968 214.669 103.107C214.669 103.246 214.556 103.358 214.418 103.358Z" fill="#AF6A1D"/>
<path d="M214.761 106.926H166.342C166.204 106.926 166.092 106.813 166.092 106.675C166.092 106.536 166.204 106.423 166.342 106.423H214.761C214.899 106.423 215.011 106.536 215.011 106.675C215.011 106.813 214.899 106.926 214.761 106.926Z" fill="#AF6A1D"/>
<path d="M216.39 110.448H174.45C174.311 110.448 174.199 110.335 174.199 110.196C174.199 110.058 174.311 109.945 174.45 109.945H216.39C216.528 109.945 216.64 110.058 216.64 110.196C216.64 110.335 216.528 110.448 216.39 110.448Z" fill="#AF6A1D"/>
<path d="M214.851 99.5761H165.823C165.684 99.5761 165.572 99.4636 165.572 99.3249C165.572 99.1862 165.684 99.0737 165.823 99.0737H214.851C214.99 99.0737 215.102 99.1862 215.102 99.3249C215.102 99.4636 214.99 99.5761 214.851 99.5761Z" fill="#AF6A1D"/>
<path d="M128.509 91.709C128.509 91.709 128.134 93.6583 128.368 95.3023C128.602 96.9463 129.305 97.8623 129.001 98.2615C128.696 98.6608 126.87 98.0971 126.284 98.8721C125.699 99.6472 125.043 102.09 126.074 103.358C127.104 104.626 128.977 105.965 128.977 105.965C128.977 105.965 127.947 109.276 128.649 111.484C129.352 113.692 130.874 116.58 132.887 116.956H138.788L136.282 115.265L129.984 91.709" fill="#EA9C47"/>
<path d="M146.561 138.716C146.561 138.716 146.678 139.268 146.983 139.667C147.287 140.066 147.685 140.395 147.685 140.395C147.685 140.395 147.545 140.654 147.685 141.288C147.826 141.922 148.2 142.274 148.2 142.274C148.2 142.274 145.976 143.66 145.789 144.247C145.601 144.834 146.588 147.567 147.592 149.296C150.495 154.299 153.515 155.802 153.515 155.802L150.776 138.657L149.629 138.681L146.561 138.716Z" fill="#EA9C47"/>
<path d="M132.746 116.98C132.746 116.98 134.877 118.389 138.951 118.765C140.998 118.954 153.468 118.459 153.468 118.459L152.859 120.667L155.856 120.808L155.739 116.322L137.757 116.956L132.746 116.98Z" fill="#924C13"/>
<path d="M152.861 120.667C152.861 120.667 152.275 122.851 151.433 123.509C150.59 124.166 147.92 126.468 147.171 128.629C146.422 130.789 146.398 134.758 146.398 134.758L148.553 134.782L155.741 120.69L152.861 120.667Z" fill="#AF6A1D"/>
<path opacity="0.901961" d="M150.572 141.741C149.681 142.992 147.367 144.374 147.367 145.33C147.367 145.867 148.071 146.673 148.345 147.133C149.867 149.685 151.344 152.51 152.867 155.062C153.079 155.417 153.314 155.94 153.693 156.102C154.166 156.305 155.626 155.79 156.274 155.069C157.459 153.749 157.652 151.633 156.724 150.12C155.875 148.735 154.428 147.43 154.189 145.823C154.055 144.928 154.637 144.846 154.786 143.954C154.829 143.7 155.03 143.536 154.435 142.939C153.506 143.292 152.384 143.062 150.572 141.741Z" fill="#292F73"/>
<path d="M172.545 110.956C171.346 112.1 169.694 112.753 167.879 112.688C167.759 113.831 167.711 114.981 167.737 116.129C167.742 116.324 167.755 116.536 167.884 116.681C168.029 116.844 168.269 116.869 168.486 116.883C171.982 117.109 175.479 117.335 178.982 117.408C179.253 117.414 179.538 117.415 179.775 117.283C180.181 117.057 180.299 116.534 180.341 116.07C180.42 115.198 180.362 114.273 179.908 113.525C179.453 112.777 178.355 112.252 176.893 112.48C176.098 112.604 175.353 112.774 174.943 112.774C173.709 112.774 173.23 112.297 172.983 111.909C172.968 111.541 173.149 111.17 172.545 110.956Z" fill="#292F73"/>
<path opacity="0.94902" d="M142.305 75.383C145.234 75.6254 148.245 74.6451 150.473 72.7233C151.064 72.2137 151.612 71.6259 151.922 70.9087C152.232 70.1915 152.273 69.3249 151.882 68.6488C151.292 67.629 149.94 67.3371 148.769 67.445C147.598 67.553 146.452 67.9532 145.278 67.8969C143.932 67.8325 143.243 67.2245 142.008 66.6822C139.626 65.6356 136.326 65.4101 133.548 67.8858C131.302 69.8879 131.906 72.3189 131.906 72.3189C131.906 72.3189 131.169 72.2907 130.763 72.4292C130.097 72.6559 128.941 73.4742 129.051 74.0665C129.111 74.3857 129.449 74.5907 129.772 74.6077C130.095 74.6248 130.407 74.4985 130.706 74.3745C128.544 76.1078 128.056 78.4734 129.307 80.7723C131.178 84.2118 134.503 83.1974 134.503 83.1974" fill="#8B643B"/>
<path d="M152.165 69.5928C147.843 72.5447 136.981 72.3487 136.793 72.5508C135.98 73.4251 134.778 75.3398 133.299 76.2859C133.57 77.9701 132.789 78.5021 132.254 78.5983C132.026 78.8021 131.762 79.1777 131.398 79.3667C130.49 79.8397 129.2 79.0829 128.63 78.2298C128.546 79.4403 129.083 80.6832 129.839 81.6306C130.595 82.578 131.738 83.2133 132.943 83.3167C134.457 83.4465 135.946 82.7571 137.115 81.784C138.284 80.8109 139.191 79.5666 140.127 78.3663C141.063 77.166 142.146 76.1084 143.497 75.4146C146.88 75.5285 152.458 72.9066 152.165 69.5928Z" fill="#5C4325"/>
<path d="M146.397 134.758C146.327 135.933 146.538 138.68 146.538 138.68L150.307 138.774L149.09 134.758" fill="#924C13"/>
<path d="M132.152 73.3602C132.089 73.004 131.231 72.7953 130.757 72.8916C130.282 72.988 129.848 73.2688 129.564 73.6622C129.417 73.8665 129.31 74.1469 129.437 74.3645C129.52 74.5061 129.686 74.5828 129.848 74.5989C130.011 74.6149 130.174 74.5791 130.334 74.5425C130.723 74.4535 131.115 74.3565 131.464 74.1617C131.812 73.9668 132.19 73.5759 132.152 73.3602Z" fill="#5C4325"/>
<path d="M141.338 66.4182C139.758 66.4203 137.707 66.6726 136.424 67.597C135.14 68.5215 134.155 69.8561 133.648 71.3573C133.541 71.6767 133.452 72.0067 133.283 72.298C133.114 72.5893 132.845 72.8441 132.514 72.9025C132.15 72.9666 131.794 72.7887 131.453 72.6477C131.111 72.5067 130.702 72.404 130.389 72.5997C130.817 72.3175 131.339 72.1804 131.872 72.2162C131.64 70.886 132.037 69.5238 133.075 68.3599C134.238 67.0555 135.744 66.3372 137.179 66.064C138.614 65.7909 140.023 65.8068 141.338 66.4182Z" fill="#C2A07A"/>
<path d="M154.563 142.957C154.866 143.262 155.001 143.823 154.748 144.318C154.552 144.701 154.37 144.912 154.288 145.059C154.016 145.548 154.461 147.062 155.142 147.931C155.823 148.801 156.761 149.765 157.144 150.802C157.465 151.671 157.431 152.983 157.059 153.831C156.686 154.679 156.154 155.4 155.304 155.763C155.602 155.529 156.882 153.992 155.954 151.89C155.578 151.036 154.899 150.36 154.246 149.696C153.593 149.032 152.928 148.347 152.546 147.496C151.834 145.913 152.241 144.015 153.112 142.515" fill="#475196"/>
<path d="M154.076 143.121C153.886 143.643 153.384 144.006 152.848 144.144C152.312 144.283 151.744 144.227 151.23 144.096C150.658 144.613 150.263 145.322 150.123 146.081C149.984 146.841 150.102 147.645 150.446 148.453C151.52 151.106 153.124 153.771 154.881 155.946C154.371 156.184 153.955 156.302 153.546 156.016C153.136 155.73 152.708 155.038 152.469 154.599C151.551 152.91 150.633 151.221 149.652 149.437C149.004 148.291 148.354 147.33 147.706 146.185C147.506 145.832 147.316 145.517 147.402 145.12C147.514 144.604 148.253 143.977 148.652 143.632C149.496 142.902 149.801 142.552 150.424 141.738C150.633 141.894 150.842 142.051 151.117 142.304C151.73 142.705 152.444 142.95 154.076 143.121Z" fill="#1D273D"/>
<path d="M172.107 110.863C172.451 111.483 172.27 112.297 171.819 112.843C171.368 113.388 170.697 113.705 170.021 113.911C169.95 114.176 169.965 114.464 170.101 114.87C170.714 115.67 171.79 115.929 172.787 116.064C175.331 116.411 177.938 116.294 180.382 115.648C180.324 116.234 180.374 116.967 179.776 117.283C179.064 117.66 174.934 117.24 172.954 117.158C171.256 117.088 167.932 117.315 167.846 117.027C167.471 115.782 167.905 112.249 167.905 112.249C167.905 112.249 168.574 112.285 168.852 112.268" fill="#1D273D"/>
<path d="M172.503 110.944C172.695 111.007 172.887 111.095 172.959 111.284C173.032 111.473 173.063 111.815 173.143 112.001C173.362 112.511 173.939 112.685 174.489 112.75C175.038 112.814 175.503 112.767 176.037 112.62C176.57 112.473 177.11 112.309 177.663 112.313C178.432 112.318 179.193 112.667 179.701 113.246C180.209 113.826 180.456 114.627 180.362 115.393C180.017 114.418 179.002 113.472 177.935 113.661C177.214 113.79 176.612 114.303 175.912 114.52C175.212 114.736 174.433 114.805 173.612 114.555C172.965 114.354 172.386 113.941 171.985 113.394C171.584 112.847 171.363 112.17 171.365 111.491" fill="#475196"/>
<path opacity="0.980392" d="M150.243 141.871C149.103 140.961 150.053 139.725 150.053 139.725C150.053 139.725 148.54 137.981 148.415 136.356C148.255 134.272 148.677 130.959 149.62 129.096C150.74 126.881 151.991 125.736 153.404 123.698C154.818 121.659 155.825 119.34 155.149 116.952C149.852 117.26 138.048 116.941 138.048 116.941C138.048 116.941 133.684 116.474 131.556 113.59C129.82 111.237 129.408 109.01 130.462 105.322C133.762 106.468 148.065 96.7147 148.065 96.4785C153.783 94.8822 161.394 91.2533 161.759 91.2315C161.836 91.2269 162.606 92.253 165.858 97.7441C167.181 99.9768 169.297 100.048 171.394 103.181C172.634 105.033 172.687 108.243 172.179 109.66C172.436 109.66 172.779 109.814 172.825 110.319C172.874 110.855 172.303 111.634 170.487 112.446C169.646 112.822 167.744 113.23 167.556 112.518C167.463 112.167 167.453 111.95 167.453 111.95C167.453 111.95 165.915 111.726 165.046 110.956C162.245 108.472 162.093 106.011 161.196 103.42C160.835 102.378 160.146 101.155 159.578 100.209C159.01 99.263 157.148 98.3764 156.388 98.5607C154.324 99.0612 155.632 99.8375 151.171 104.906C150.238 105.966 148.059 108.151 148.059 108.151C148.059 108.151 157.772 108.827 160.873 110.956C166.341 114.709 160.415 123.003 160.014 127.407C159.838 129.335 160.694 130.674 160.696 132.61C160.698 134.546 160.398 136.92 159.296 138.395C157.925 140.231 155.86 140.661 155.86 140.661C155.86 140.661 156.873 142.042 154.889 143.198C153.871 143.791 151.187 142.626 150.243 141.871Z" fill="#CCDCEE"/>
<path d="M162.741 92.6203C161.081 93.0449 159.639 93.8654 158.375 95.0252C157.642 95.6976 156.998 96.4804 156.162 97.018C155.059 97.7271 153.59 98.0523 152.967 99.2081C152.346 100.362 152.385 103.46 152.385 103.46C152.385 103.46 149.748 106.688 148.058 108.151C147.939 108.255 143.771 107.675 143.771 107.675C143.771 107.675 148.649 103.72 149.792 100.875C150.275 99.6744 150.499 98.3669 151.126 97.2354C151.874 95.8857 153.129 94.9027 154.38 94.003C155.783 92.9943 157.225 92.0408 158.703 91.1455C159.093 90.9091 159.5 90.6716 159.952 90.6142C160.404 90.5568 161.7 90.9108 161.7 90.9108" fill="#8AA0BC"/>
<path d="M157.227 98.6373C158.675 98.2364 160.076 98.7632 161.23 99.7287C162.384 100.694 163.171 102.025 163.843 103.373C164.514 104.722 164.871 106.58 165.723 107.822C166.576 109.063 167.973 109.7 169.419 110.11C169.617 110.167 169.875 110.298 169.814 110.496C169.779 110.609 169.652 110.66 169.554 110.726C169.132 111.011 169.213 111.72 169.604 112.047C169.996 112.375 170.355 112.361 170.859 112.284C170.143 112.785 168.552 113.284 167.801 113.067C167.109 112.868 167.383 111.997 167.383 111.997C167.383 111.997 166.314 111.829 165.465 111.349C164.095 110.469 163.135 109.293 162.483 107.797C161.623 105.821 161.168 103.557 160.531 102.093C159.831 100.486 158.517 99.0522 157.227 98.6373Z" fill="#8AA0BC"/>
<path d="M130.115 106.734C131.421 107.51 133.071 107.705 134.523 107.262C135.108 108.318 136.034 109.179 137.247 109.71C139.672 110.811 142.711 110.387 144.744 108.664C143.05 107.564 140.856 107.592 139.035 106.719C138.2 106.319 137.466 105.74 136.68 105.25C135.893 104.761 135.016 104.351 134.091 104.353C132.864 104.355 131.723 105.237 130.535 104.934C130.43 105.307 130.325 105.57 130.115 106.734Z" fill="#8AA0BC"/>
<path d="M129.891 109.109C130.505 111.83 133.36 113.42 136.037 114.179C138.713 114.938 141.556 114.716 144.328 114.487C153.109 113.763 156.028 114.555 156.778 115.496C157.771 116.741 157.905 118.505 157.655 120.079C157.405 121.653 156.719 123.125 155.928 124.508C155.138 125.891 154.235 127.209 153.497 128.62C152.288 130.93 151.532 133.476 151.285 136.073C151.173 137.248 151.187 138.89 152.181 139.673C152.907 140.247 153.456 140.395 154.315 140.738C153.467 140.963 152.225 141.224 152.181 141.738C152.04 143.376 154.171 142.966 154.945 143.165C153.878 143.808 152.592 143.522 151.69 143.211C150.341 142.746 149.292 141.67 149.541 140.389C149.606 140.055 149.754 139.7 150.053 139.725C148.083 137.371 148.107 135.736 148.233 132.917C148.569 125.405 156.566 123.616 155.155 117.034C145.836 117.206 137.948 116.928 137.948 116.928C137.948 116.928 135.043 116.957 132.326 114.537C130.459 112.875 129.891 110.496 129.891 109.109Z" fill="#8AA0BC"/>
<path d="M143.38 107.335C147.459 107.87 152.301 108.59 155.935 109.22C158.164 109.606 160.659 109.939 162.049 111.73C162.709 112.582 163.035 113.658 163.123 114.733C163.497 119.302 160.094 123.92 160.206 128.503C160.256 130.559 160.84 132.053 160.762 134.109C160.655 136.952 159.173 139.898 155.971 140.698C156.283 141.472 156.312 142.433 155.274 142.945C155.508 142.777 155.509 142.366 155.423 142.09C155.338 141.814 155.17 141.569 155.088 141.291C154.876 140.566 155.307 139.799 155.858 139.284C156.41 138.77 157.091 138.405 157.612 137.859C158.756 136.658 158.916 134.811 158.666 133.169C158.416 131.527 157.825 129.941 157.705 128.285C157.46 124.897 159.18 121.727 160.185 118.484C160.521 117.398 160.781 116.269 160.718 115.133C160.656 113.998 160.238 112.846 159.396 112.085C158.608 111.374 157.53 111.066 156.473 110.989C155.416 110.912 154.357 111.042 153.299 111.095C148.253 111.348 145.877 110.09 144.889 109.714C143.774 109.29 142.47 108.263 143.38 107.335Z" fill="#E7F1FC"/>
<path d="M163.514 93.8506C163.571 94.3126 163.929 98.7094 166.059 100.386C166.861 101.016 167.821 101.48 168.431 102.298C169.209 103.34 169.263 104.73 169.457 106.017C169.651 107.304 170.147 108.725 171.34 109.236C171.118 109.254 170.918 109.43 170.871 109.649C170.824 109.867 170.869 110.196 171.122 110.322C171.426 110.473 171.777 110.56 171.931 110.863C172.085 111.165 171.837 111.706 171.837 111.706C171.837 111.706 172.48 111.388 172.689 111.086C172.898 110.785 173.077 110.438 172.958 110.091C172.839 109.745 172.548 109.479 172.202 109.596C172.795 107.894 172.469 105.81 171.909 104.183C170.97 101.454 168.083 100.125 166.729 98.8539C166.112 98.2757 164.466 95.3974 163.514 93.8506Z" fill="#E7F1FC"/>
<path d="M137.139 72.7681C137.099 72.8897 136.646 73.846 136.475 74.2022C135.696 75.8275 134.481 76.3231 134.481 76.3231C134.481 76.3231 133.848 75.9186 133.488 75.9798C132.115 76.213 131.606 79.4697 132.898 80.5568C133.418 80.9951 134.259 81.0719 134.767 80.6187C134.713 82.0089 134.509 83.3755 134.11 85.3727C134.621 85.764 135.154 86.1372 135.743 86.3964C138.064 87.4167 138.233 86.7685 138.263 86.5581C138.342 85.9978 138.513 84.8438 138.629 84.2403C139.598 84.7173 140.812 84.522 141.696 83.9006C142.579 83.2792 143.155 82.2874 143.446 81.2452C143.738 80.203 143.767 79.1057 143.734 78.0238C143.68 76.2777 143.462 74.5145 142.818 72.8914C141.074 73.1462 139.285 73.0761 137.139 72.7681Z" fill="#E5D2A8"/>
<path d="M138.353 86.0478C136.562 85.1883 135.364 83.2147 135.424 81.2241C135.737 81.6636 136.051 82.103 136.43 82.5828C137.374 83.7787 138.628 84.2399 138.628 84.2399C138.628 84.2399 138.531 84.9421 138.353 86.0478Z" fill="#BEAB8A"/>
<path d="M148.747 70.6922C144.108 72.1474 141.173 72.289 137.388 71.6379C137.089 71.5864 136.77 71.531 136.491 71.6506C136.212 71.7703 136.021 72.1444 136.201 72.3897C136.285 72.504 136.424 72.5612 136.556 72.6105C138.469 73.3223 140.558 73.4844 142.588 73.2758C144.617 73.0672 146.596 72.4979 148.508 71.7848C148.777 71.6848 149.055 71.5581 149.204 71.3127C149.545 70.7498 148.883 70.6498 148.747 70.6922Z" fill="#C2A07A"/>
<path opacity="0.980392" d="M151.469 84.94C151.759 83.1336 151.966 81.577 152.514 79.601C153.175 77.0277 153.978 71.5382 154.448 71.8837C156.303 73.2482 164.258 77.317 164.258 77.317C164.258 77.317 163.247 86.0203 163.147 88.9369C163.133 89.3419 163.165 90.1388 162.773 90.7067C162.44 91.1883 158.147 93.1413 157.084 93.547C154.801 94.7443 155.001 93.5822 152.486 94.14C152.844 90.8562 153.331 86.1515 153.227 86.0297" fill="#7946C6"/>
<path d="M153.271 79.5962C152.992 82.9876 152.99 91.2316 152.99 91.2316C152.99 91.2316 156.943 93.301 157.656 93.6133C159.144 93.076 160.503 92.1205 161.901 91.3786C162.212 91.2135 162.526 91.0391 162.766 90.7806C163.006 90.5221 163.096 90.2938 163.096 89.8153C162.098 90.3862 160.844 90.2915 159.75 89.9369C157.485 89.2019 155.595 87.3818 154.772 85.1404C154.169 83.4988 154.17 81.5077 153.271 79.5962Z" fill="#453075"/>
<path d="M153.555 85.676C153.203 82.635 152.086 84.5631 152.243 83.775C152.677 81.5988 153.285 79.6217 153.376 77.4031C153.397 76.8812 153.208 77.0838 153.068 77.062C152.509 79.6794 151.746 82.3426 151.188 84.96C152.007 85.4234 153.664 86.6137 153.555 85.676Z" fill="#453075"/>
<path d="M157.726 74.0221C156.989 74.9111 159.66 75.2804 160.816 76.0285C161.43 76.2111 161.947 76.6209 162.5 76.9466C163.053 77.2723 163.842 77.564 164.257 77.3171C162.088 76.1184 157.916 73.793 157.726 74.0221Z" fill="#453075"/>
<path d="M163.854 77.414C161.224 77.8706 158.594 78.3273 155.963 78.7839C156.043 78.7722 156.122 78.7605 156.201 78.7487C155.203 78.9445 154.222 79.2284 153.273 79.5962C153.105 81.5683 153.102 83.2591 153.276 85.2306C152.686 85.0115 152.31 84.8716 152.12 84.2704C152.012 83.928 152.101 83.6878 152.177 83.3369C152.983 79.6083 153.6 76.2771 154.57 72.5879" fill="#947EC6"/>
<path d="M153.262 88.2791C153.281 87.8175 153.237 87.5364 153.243 86.9881C153.239 86.6707 153.235 86.3534 153.226 86.0298C152.955 85.8478 151.468 84.9401 151.468 84.9401L151.733 83.2747C151.733 83.2747 151.842 83.2167 152.37 83.0554C152.581 82.991 153.003 82.6971 153.148 82.5489C153.197 82.046 153.201 80.5842 153.224 80.2612C153.122 80.3297 152.58 80.6216 152.324 80.7104C151.698 80.9273 151.021 81.1835 150.68 81.7531C150.415 82.1956 150.408 82.7408 150.408 83.257C150.409 83.9155 150.413 84.5934 150.662 85.2024C150.86 85.6833 151.199 86.0929 151.415 86.5653C151.632 87.0378 151.703 87.6395 151.378 88.0448" fill="#E5D2A8"/>
<path d="M150.408 83.1758C150.408 84.049 150.395 84.79 150.733 85.4607C150.931 85.8533 151.306 86.3483 151.306 86.3483C151.306 86.3483 151.7 87.4655 151.523 87.8683C152.099 87.8299 152.775 87.9676 153.261 88.2792C153.308 87.8864 153.213 86.6933 153.253 86.0275C152.562 85.5838 152.311 85.4393 151.571 84.9384C151.624 84.2811 151.648 83.8193 151.744 83.2597C151.444 83.5337 150.883 83.4964 150.408 83.1758Z" fill="#BEAB8A"/>
<path d="M153.063 91.1422L153.077 91.1377C153.704 91.0067 154.267 90.5959 154.584 90.0381C154.912 89.3236 155.362 88.6731 155.964 88.0519C156.525 87.5413 157.36 87.1556 158.094 87.4385C158.31 87.5217 158.435 87.8848 158.425 88.1323C158.372 89.4624 157.444 90.5843 157.533 91.9126C157.557 92.2785 157.665 92.6365 157.67 93.0032C157.676 93.3699 157.55 93.7731 157.255 94.0929C155.454 95.8492 153.082 97.0068 150.593 97.3441C150.135 96.7226 149.503 96.2309 148.789 95.9394L148.802 95.8811C149.135 95.6392 149.439 95.3561 149.805 94.9101C150.026 94.511 150.246 94.112 150.537 93.689C150.45 92.2679 151.637 91.0846 151.899 89.6853C151.944 89.4411 151.963 89.1854 152.079 88.9659C152.195 88.7464 152.447 88.572 152.685 88.6435C152.94 88.7207 153.01 89.0327 153.05 89.2972C153.145 89.9206 153.063 91.1422 153.063 91.1422Z" fill="#E5D2A8"/>
<path d="M151.035 92.2513C151.156 92.4638 151.418 92.5849 151.69 92.5107C151.931 92.4438 152.124 92.2606 152.269 92.0559C152.413 91.8512 152.518 91.6215 152.649 91.4078C152.779 91.1945 152.915 91.0183 153.082 90.8174C153.126 90.2723 153.152 89.6959 153.018 89.1626C152.952 88.9007 152.865 88.5934 152.608 88.5123C152.332 88.4253 152.048 88.6649 151.947 88.9364C151.846 89.2079 151.865 89.5077 151.82 89.7939C151.695 90.5766 151.092 91.2261 151.035 92.2513Z" fill="#BEAB8A"/>
<path d="M150.355 96.0902C152.457 96.0492 154.515 94.9888 155.872 93.3055C156.507 91.9429 157.016 90.7077 158.071 89.6387C157.849 90.2652 157.574 91.0566 157.553 91.9943C157.923 92.4302 157.91 93.0995 157.658 93.6134C157.405 94.1272 156.957 94.5147 156.501 94.859C154.762 96.1721 152.717 97.076 150.577 97.478C150.567 97.224 150.557 96.9701 150.355 96.0902Z" fill="#BEAB8A"/>
<path d="M150.947 92.6782C150.608 94.4837 149.554 95.3711 149.554 95.3711C149.554 95.3711 150.519 95.4067 151.042 96.1842C151.997 97.6068 150.819 98.453 150.819 98.453C150.819 98.453 151.426 100.77 150.04 102.545C148.594 104.588 148.112 104.349 145.698 106.512C143.678 108.323 141.558 109.672 138.447 108.876C136.372 108.346 134.346 105.18 134.346 105.18C134.346 105.18 132.115 106.088 130.475 105.338C129.156 104.735 127.97 103.752 127.456 102.392C127.171 101.639 127.341 100.529 128.03 100.115C128.615 99.7628 129.44 99.9529 130.077 99.708C130.807 99.4272 130.897 98.7106 130.819 97.9298C130.742 97.1491 130.192 95.6811 130.031 94.9132C129.566 92.6893 129.879 90.2001 131.655 88.2173C131.315 87.8979 130.989 86.8582 130.873 86.2233C130.744 85.5117 130.805 85.1168 131.076 84.4465C131.347 83.7761 132.012 83.4818 132.728 83.5685C133.193 83.6248 133.588 83.9379 133.902 84.2865C134.494 84.9443 134.977 86.0396 136.576 86.2029C136.977 86.2438 138.54 85.5381 139.763 86.5697C141.074 87.6755 139.593 89.1866 139.593 89.1866C139.593 89.1866 140.021 90.3096 140.227 90.9192C140.738 92.4337 140.644 93.4736 140.644 93.4736C140.644 93.4736 142.405 94.5152 144.211 93.9014C147.906 92.6453 146.995 91.6036 148.811 89.7816C149.721 88.8689 150.501 88.9938 150.501 88.9938C150.501 88.9938 150.444 88.0465 151.128 87.7274C152.54 87.0689 153.262 88.2791 153.262 88.2791C153.262 88.2791 153.198 88.8172 153.077 89.5396C153.077 89.5396 152.95 88.6758 152.668 88.6537C152.073 88.6071 152.345 89.286 151.848 90.4109C151.591 90.9921 151.269 90.957 150.947 92.6782Z" fill="#292F73"/>
<path d="M138.252 89.2656C139.811 92.0876 140.981 95.6289 141.076 98.8536C141.665 97.7166 143.01 96.6548 144.212 96.2187C145.413 95.7827 146.572 95.7254 147.75 96.221C147.74 95.8543 148.084 95.5714 148.43 95.4534C148.776 95.3354 149.555 95.371 149.555 95.371C149.555 95.371 150.738 94.4018 151.035 92.2511C151.121 91.6324 151.469 91.037 151.469 91.037C151.469 91.037 151.057 91.2739 150.17 91.8008C148.177 92.9857 146.806 92.5325 146.806 92.5325C146.806 92.5325 144.245 94.0718 142.505 93.9773C141.286 93.9112 140.791 93.5393 140.65 93.3974C140.723 91.2907 139.594 89.1865 139.594 89.1865C139.594 89.1865 138.814 89.4468 138.252 89.2656Z" fill="#1D273D"/>
<path d="M135.963 107.199C137.712 107.955 140.125 107.706 141.651 106.563C142.752 105.738 143.515 104.519 144.64 103.727C145.581 103.065 146.716 102.743 147.72 102.18C148.723 101.617 149.654 100.668 149.766 99.4605C149.832 98.8742 149.796 98.2765 149.661 97.7023C150.146 97.7452 150.641 97.4273 150.806 96.9668C150.97 96.5064 150.867 95.9263 150.465 95.6504C151.066 95.9333 151.562 96.4195 151.707 97.0692C151.852 97.7189 151.257 98.3779 150.82 98.4529C151.499 99.3668 150.826 101.783 149.991 102.99C149.112 104.262 146.878 105.388 146.015 106.233C145.194 107.036 144.284 107.987 143.384 108.7C142.479 109.416 141.323 109.807 140.17 109.785C139.018 109.764 137.608 109.327 135.963 107.199Z" fill="#1D273D"/>
<path d="M135.794 87.8892C135.459 87.8892 134.782 88.027 134.582 88.4619C134.459 88.7314 134.483 89.0528 134.597 89.3268C134.711 89.6007 134.876 89.8613 135.211 90.1799C136.09 91.0157 136.666 92.1343 136.859 93.3331C137.053 94.5319 136.97 95.7555 136.947 96.9697C136.924 98.184 136.967 99.4263 137.394 100.563C137.603 101.117 137.91 101.648 138.361 102.031C138.812 102.414 139.422 102.634 140.004 102.53C140.74 102.398 141.299 101.791 141.691 101.152C142.082 100.514 142.37 99.8038 142.862 99.2388C143.954 97.9834 145.728 97.3484 147.471 97.3485C147.763 97.3485 148.042 97.1436 148.064 96.8516C148.086 96.5596 147.897 96.2826 147.651 96.1254C147.404 95.9682 146.407 95.5763 144.556 96.104C142.131 96.7954 141.075 98.8539 141.075 98.8539C141.075 98.8539 140.925 94.401 139.681 91.2317C138.469 88.1423 136.342 87.8892 135.794 87.8892Z" fill="#475196"/>
<path d="M134.435 84.9795C134.319 86.0266 135.141 87.0888 136.181 87.2368C136.671 87.3065 137.166 87.1969 137.658 87.1518C138.151 87.1068 138.687 87.1397 139.077 87.4455C139.564 87.8283 139.68 88.4617 139.686 89.0828C140.239 88.6657 140.511 87.9646 140.354 87.2891C140.197 86.6135 139.617 86.0567 138.937 85.9281C138.458 85.8374 137.966 85.9451 137.489 86.049C137.012 86.1528 136.651 86.2427 136.175 86.138C135.698 86.0334 135.109 85.6765 134.435 84.9795Z" fill="#475196"/>
<path d="M147.545 91.5444C148.032 91.5529 148.438 91.321 148.803 90.9983C149.169 90.6756 149.476 90.2892 149.851 89.9767C150.225 89.6642 150.697 89.4231 151.181 89.4718C151.161 88.5706 151.901 87.8686 152.798 87.8043C152.49 87.4951 151.683 87.3301 151.164 87.5754C150.645 87.8207 150.286 88.4286 150.427 88.9867C149.738 88.8405 149.016 89.1804 148.535 89.6961C148.055 90.2118 147.822 90.8476 147.545 91.5444Z" fill="#475196"/>
<path d="M133.962 84.3546C133.091 84.2792 132.273 84.8514 132.014 85.6883C131.755 86.5253 132.146 87.5174 132.906 87.9497C131.797 88.6072 131.207 89.9084 131.022 91.1878C130.746 93.1005 131.064 95.6113 131.564 97.4778C132.313 100.276 132.635 101.941 134.346 105.18C134.274 105.174 132.451 105.94 131.309 105.022C130.612 104.462 129.897 103.703 129.732 102.824C129.475 101.448 130.574 100.18 130.706 98.7867C130.808 97.7032 130.236 96.6836 130.043 95.6126C129.04 90.0551 131.656 88.2174 131.656 88.2174C131.656 88.2174 130.539 87.3391 130.586 86.048C130.615 85.2592 130.928 84.4061 131.506 83.8703C132.254 83.1764 133.533 83.5145 133.962 84.3546Z" fill="#1D273D"/>
<path d="M148.201 107.985L150.543 108.337C150.543 108.337 153.821 104.556 154.687 103.287C155.553 102.019 155.67 100.657 156.865 100.422C158.002 100.198 159.37 102.254 159.37 102.254L159.674 100.61C159.674 100.61 157.895 98.0265 156.185 98.5902C154.476 99.1539 153.704 101.549 152.861 102.747C152.018 103.945 148.201 107.985 148.201 107.985Z" fill="#EA9C47"/>
<path d="M167.072 111.93L165.855 112.635C165.855 112.635 162.717 111.625 161.195 109.276C159.674 106.928 159.955 105.941 159.767 104.203C159.58 102.465 159.369 102.254 159.369 102.254L159.674 100.61C159.674 100.61 160.797 101.925 161.43 104.767C161.973 107.208 163.864 110.464 165.106 111.085C166.288 111.675 167.013 111.972 167.072 111.93Z" fill="#AF6A1D"/>
<path d="M165.855 112.635C165.855 112.635 166.394 112.705 166.534 113.363C166.675 114.02 166.558 117.074 166.558 117.074L168.01 117.113C168.01 117.113 167.749 117.017 167.739 116.129C167.729 115.242 167.828 113.075 167.828 113.075C167.828 113.075 167.541 113.016 167.401 112.664C167.26 112.312 167.453 111.95 167.453 111.95L166.991 111.93L165.855 112.635Z" fill="#EA9C47"/>
<path d="M223.758 56.9955C223.645 56.9955 223.533 56.945 223.459 56.8485C223.097 56.3782 222.717 55.9088 222.33 55.4537C222.195 55.2947 222.214 55.0561 222.372 54.9206C222.531 54.785 222.769 54.8042 222.904 54.9631C223.298 55.4275 223.686 55.9063 224.056 56.3862C224.183 56.5514 224.153 56.7889 223.988 56.9165C223.919 56.9698 223.838 56.9955 223.758 56.9955ZM221.099 53.905C221 53.905 220.901 53.8661 220.827 53.7888C220.417 53.3606 219.989 52.9346 219.556 52.5227C219.404 52.379 219.398 52.1397 219.541 51.988C219.685 51.8365 219.923 51.8302 220.074 51.9736C220.516 52.3937 220.952 52.8281 221.371 53.2648C221.515 53.4154 221.51 53.6548 221.36 53.7995C221.287 53.87 221.193 53.905 221.099 53.905ZM218.128 51.1147C218.042 51.1147 217.956 51.0856 217.885 51.0257C217.431 50.6416 216.961 50.2627 216.489 49.8994C216.323 49.7724 216.292 49.535 216.419 49.3693C216.545 49.2036 216.782 49.1719 216.947 49.2993C217.429 49.6695 217.908 50.0558 218.371 50.4474C218.53 50.582 218.551 50.8206 218.417 50.9802C218.342 51.069 218.235 51.1147 218.128 51.1147ZM214.884 48.6493C214.811 48.6493 214.738 48.6281 214.673 48.5839C214.18 48.2482 213.674 47.9198 213.168 47.6077C212.99 47.4983 212.935 47.2653 213.044 47.0875C213.153 46.9094 213.386 46.8543 213.563 46.9633C214.079 47.2815 214.595 47.6163 215.096 47.9583C215.269 48.0758 215.313 48.3109 215.196 48.4837C215.123 48.5913 215.005 48.6493 214.884 48.6493ZM211.405 46.5309C211.345 46.5309 211.284 46.5164 211.227 46.4856C210.702 46.2017 210.164 45.9271 209.63 45.6693C209.443 45.5787 209.364 45.3528 209.454 45.1646C209.544 44.9765 209.769 44.8973 209.957 44.9877C210.502 45.2505 211.049 45.5304 211.585 45.8198C211.768 45.9189 211.836 46.1482 211.738 46.3321C211.669 46.4589 211.54 46.5309 211.405 46.5309ZM207.728 44.782C207.68 44.782 207.632 44.7728 207.585 44.7534C207.034 44.5258 206.472 44.3083 205.913 44.1071C205.717 44.0365 205.615 43.82 205.685 43.6234C205.756 43.4269 205.971 43.3247 206.167 43.3953C206.737 43.6005 207.311 43.8221 207.872 44.0541C208.064 44.1337 208.156 44.3548 208.077 44.5479C208.017 44.6938 207.876 44.782 207.728 44.782ZM203.89 43.4258C203.855 43.4258 203.819 43.4209 203.783 43.4104C203.212 43.2419 202.63 43.0851 202.053 42.9446C201.851 42.8953 201.727 42.6908 201.776 42.4878C201.825 42.285 202.029 42.1603 202.231 42.2097C202.819 42.3531 203.413 42.5129 203.996 42.6848C204.196 42.7438 204.31 42.954 204.251 43.1543C204.203 43.319 204.053 43.4258 203.89 43.4258ZM199.93 42.4859C199.908 42.4859 199.885 42.4838 199.862 42.4796L199.83 42.4738C199.625 42.4378 199.487 42.2419 199.523 42.0361C199.559 41.8305 199.756 41.6928 199.96 41.7289L199.998 41.7357C200.203 41.7734 200.338 41.9705 200.301 42.1759C200.267 42.3582 200.109 42.4859 199.93 42.4859Z" fill="#453075"/>
<path d="M154.498 51.0085C154.392 51.0085 154.286 50.9636 154.212 50.8763C154.076 50.7176 154.095 50.4788 154.253 50.343C154.511 50.1212 154.778 49.8986 155.045 49.6816C155.206 49.5502 155.444 49.5753 155.575 49.7373C155.706 49.8996 155.681 50.1377 155.519 50.2692C155.258 50.4819 154.997 50.7 154.743 50.9176C154.672 50.9786 154.585 51.0085 154.498 51.0085ZM157.08 48.9778C156.963 48.9778 156.847 48.9231 156.774 48.8201C156.652 48.6504 156.691 48.4142 156.86 48.2924C157.353 47.9379 157.86 47.5902 158.369 47.2589C158.543 47.1452 158.777 47.195 158.89 47.3701C159.004 47.5453 158.954 47.7795 158.78 47.8932C158.281 48.2181 157.783 48.5592 157.3 48.9069C157.233 48.9547 157.157 48.9778 157.08 48.9778ZM160.506 46.7738C160.375 46.7738 160.248 46.7052 160.178 46.583C160.075 46.4017 160.138 46.1706 160.319 46.0671C160.844 45.7665 161.384 45.4732 161.925 45.1954C162.111 45.1004 162.338 45.1737 162.433 45.3597C162.528 45.5456 162.454 45.7734 162.269 45.8686C161.738 46.1412 161.208 46.429 160.692 46.724C160.634 46.7577 160.569 46.7738 160.506 46.7738ZM164.139 44.9342C163.994 44.9342 163.856 44.8502 163.794 44.7089C163.71 44.5179 163.796 44.2945 163.987 44.2101C164.541 43.9642 165.109 43.7277 165.673 43.5074C165.868 43.4312 166.086 43.5281 166.161 43.7226C166.237 43.9172 166.141 44.1364 165.947 44.2121C165.393 44.4284 164.836 44.6604 164.291 44.9019C164.242 44.9238 164.19 44.9342 164.139 44.9342ZM167.94 43.4755C167.781 43.4755 167.633 43.374 167.581 43.2142C167.517 43.0156 167.625 42.8023 167.823 42.7376C168.4 42.5495 168.988 42.3722 169.573 42.2107C169.773 42.155 169.981 42.2735 170.036 42.4747C170.092 42.6761 169.974 42.8843 169.773 42.9398C169.2 43.0982 168.622 43.2722 168.056 43.4569C168.018 43.4695 167.978 43.4755 167.94 43.4755ZM171.869 42.4133C171.695 42.4133 171.539 42.292 171.501 42.1146C171.457 41.9104 171.587 41.7093 171.79 41.6654C172.384 41.5372 172.988 41.4217 173.585 41.3217C173.79 41.2864 173.984 41.4263 174.019 41.6323C174.053 41.8383 173.914 42.0332 173.709 42.0676C173.124 42.1657 172.532 42.2791 171.949 42.4048C171.922 42.4106 171.895 42.4133 171.869 42.4133ZM175.887 41.7642C175.697 41.7642 175.533 41.6204 175.513 41.4265C175.49 41.2189 175.64 41.0324 175.847 41.0101C176.451 40.9449 177.063 40.8934 177.668 40.857C177.877 40.8463 178.054 41.0034 178.067 41.2118C178.079 41.4203 177.921 41.5994 177.713 41.6119C177.12 41.6476 176.519 41.6981 175.928 41.7621C175.914 41.7635 175.9 41.7642 175.887 41.7642Z" fill="#453075"/>
<path d="M228.668 97.1422C228.614 97.1422 228.56 97.1307 228.508 97.1063C228.32 97.0176 228.238 96.7925 228.327 96.6034C228.579 96.0642 228.822 95.5109 229.048 94.9589C229.128 94.7658 229.348 94.6738 229.54 94.7531C229.733 94.8327 229.825 95.0536 229.745 95.2468C229.514 95.8099 229.267 96.3745 229.009 96.9247C228.945 97.0618 228.809 97.1422 228.668 97.1422ZM230.195 93.3586C230.155 93.3586 230.113 93.352 230.073 93.338C229.876 93.2701 229.771 93.0549 229.839 92.8574C230.032 92.2929 230.215 91.7167 230.381 91.1446C230.439 90.9441 230.647 90.8285 230.848 90.8875C231.048 90.946 231.163 91.1559 231.105 91.3565C230.935 91.9398 230.749 92.5275 230.552 93.1032C230.498 93.26 230.352 93.3586 230.195 93.3586ZM231.313 89.4334C231.285 89.4334 231.257 89.4303 231.228 89.4237C231.025 89.377 230.899 89.1741 230.945 88.9706C231.079 88.3882 231.2 87.7958 231.305 87.21C231.342 87.0045 231.538 86.8672 231.743 86.9051C231.948 86.9422 232.084 87.1389 232.047 87.3444C231.939 87.9418 231.816 88.5458 231.68 89.1397C231.64 89.3148 231.485 89.4334 231.313 89.4334ZM232.014 85.4123C231.999 85.4123 231.984 85.4113 231.968 85.4095C231.762 85.3843 231.614 85.1958 231.64 84.9884C231.711 84.3978 231.77 83.7959 231.814 83.1996C231.83 82.9914 232.012 82.8367 232.218 82.8506C232.426 82.8662 232.582 83.0476 232.566 83.2559C232.521 83.8639 232.461 84.4775 232.388 85.0797C232.365 85.2715 232.202 85.4123 232.014 85.4123ZM232.292 81.3397C232.29 81.3397 232.288 81.3397 232.286 81.3396C232.078 81.3363 231.912 81.1643 231.915 80.9555C231.919 80.7519 231.92 80.5482 231.92 80.3445C231.92 79.9509 231.914 79.5518 231.902 79.1584C231.895 78.9497 232.059 78.7751 232.267 78.7686C232.271 78.7686 232.275 78.7685 232.279 78.7685C232.482 78.7685 232.649 78.9302 232.655 79.1349C232.668 79.5361 232.674 79.9431 232.674 80.3445C232.674 80.5522 232.673 80.7599 232.669 80.9675C232.666 81.1743 232.498 81.3397 232.292 81.3397ZM232.141 77.2604C231.948 77.2604 231.784 77.1128 231.766 76.9165C231.712 76.321 231.643 75.7204 231.562 75.1313C231.533 74.9245 231.677 74.7335 231.883 74.7047C232.091 74.6766 232.28 74.8203 232.308 75.0271C232.392 75.628 232.462 76.2407 232.517 76.8481C232.536 77.0561 232.383 77.24 232.176 77.2589C232.164 77.2599 232.152 77.2604 232.141 77.2604Z" fill="#453075"/>
<path d="M220.625 99.074C214.932 109.189 230.77 117.127 235.535 107.141C240.766 96.1744 226.085 89.3729 220.625 99.074Z" fill="#947EC6"/>
<path d="M225.705 57.6173C216.018 64.2499 226.807 78.3289 236.784 71.9289C247.252 65.2142 235.737 50.7474 225.705 57.6173Z" fill="#947EC6"/>
<path d="M181.547 35.7744C172.301 48.1983 188.906 59.3434 196.885 48.0911C199.909 43.8273 199.103 37.6136 194.184 34.3275C190.096 31.5964 183.82 32.7202 181.547 35.7744Z" fill="#947EC6"/>
<path d="M148.668 47.1365C142.264 47.3448 137.056 54.4549 140.539 60.9862C142.289 64.2683 146.236 65.2385 148.961 65.0029C160.929 63.9681 161.62 46.7153 148.668 47.1365Z" fill="#947EC6"/>
<path d="M228.384 96.7124C228.372 98.1557 225.239 97.9545 226.018 101.301C224.895 103.056 223.467 105.237 223.865 107.371C224.007 108.137 224.996 108.286 225.496 107.705C226.836 106.149 227.141 103.817 227.548 101.846C229.512 101.426 230.265 97.7546 228.384 96.7124Z" fill="#453075"/>
<path d="M223.464 106.323C223.68 105.286 224.076 104.12 224.605 103.188C224.726 102.975 224.613 102.602 224.302 102.622C222.813 102.714 222.138 103.878 222.175 104.949C222.213 106.02 223.386 106.977 223.464 106.323Z" fill="#453075"/>
<path d="M195.545 42.9818C193.594 39.2954 190.032 42.0915 190.032 42.0915C190.032 42.0915 191.43 37.6939 188.861 36.0405C187.084 34.897 184.228 35.8727 184.469 36.6528C184.616 37.1254 185.463 36.8235 185.82 37.0354C187.09 37.7885 185.722 39.0794 185.783 40.0215C185.896 41.7673 187.184 41.6623 188.041 43.5067C189.037 45.6507 186.529 47.6113 186.715 49.4174C186.82 50.4362 187.974 50.353 188.319 49.4507C189.005 47.658 188.626 45.7108 190.024 44.1331C190.359 43.7559 191.494 43.533 191.485 44.1983C191.47 45.3132 191.676 47.4746 194.109 46.4437C194.786 46.1381 194.257 47.3543 194.776 47.4041C195.742 47.497 196.154 44.134 195.545 42.9818ZM188.701 41.9508C188.617 42.0578 188.449 42.0218 188.515 41.7337C189.175 39.5057 188.555 37.4244 186.605 36.3233C186.463 36.2013 186.552 36.0823 186.729 36.1427C188.918 36.667 189.863 40.4026 188.701 41.9508ZM195.07 46.1912C194.983 46.4464 194.752 46.221 194.769 45.9953C195.339 42.9046 192.588 41.9217 190.979 42.8084C190.773 42.8659 190.646 42.5916 190.825 42.4741C193.224 41.006 195.992 43.1658 195.07 46.1912Z" fill="#453075"/>
<path d="M233.357 67.354C233.027 67.354 232.724 67.1349 232.631 66.8002C232.52 66.3978 232.754 65.9808 233.156 65.869L236.369 64.9723L233.814 63.6645C233.443 63.4747 233.296 63.0191 233.485 62.6471C233.674 62.2749 234.128 62.1274 234.499 62.3172L238.778 64.5072C239.055 64.6488 239.216 64.9464 239.185 65.2565C239.154 65.5667 238.937 65.8259 238.637 65.9094L233.56 67.3261C233.492 67.345 233.424 67.354 233.357 67.354Z" fill="#453075"/>
<path d="M228.225 66.8071C228.057 66.8071 227.887 66.7507 227.747 66.6348L224.89 64.2766C224.695 64.1152 224.593 63.8664 224.619 63.6138C224.646 63.3614 224.796 63.139 225.021 63.0218L228.794 61.051C229.164 60.858 229.619 61.002 229.811 61.3725C230.004 61.743 229.86 62.1997 229.491 62.3925L226.729 63.8353L228.705 65.4668C229.027 65.7323 229.073 66.2089 228.808 66.5314C228.659 66.7131 228.443 66.8071 228.225 66.8071Z" fill="#453075"/>
<path d="M228.895 71.2816C228.801 71.2816 228.707 71.2642 228.615 71.2274C228.228 71.0723 228.04 70.6321 228.195 70.2442C229.728 66.3992 232.707 58.6488 232.737 58.571C232.887 58.1811 233.323 57.987 233.712 58.1373C234.1 58.2875 234.294 58.7252 234.144 59.115C234.114 59.1929 231.132 66.9522 229.595 70.8061C229.477 71.1017 229.194 71.2816 228.895 71.2816Z" fill="#453075"/>
<path d="M149.576 59.5889L151.698 57.9176C151.969 57.7038 152.364 57.9217 152.327 58.2661C152.217 59.316 152.058 60.9001 152.09 60.9987C149.981 62.6593 146.607 62.3908 144.796 60.4076C144.779 60.3231 144.739 58.5545 144.705 57.6562C144.696 57.4003 144.948 57.2172 145.187 57.3076C146.72 57.8879 149.576 59.5889 149.576 59.5889Z" fill="#453075"/>
<path d="M155.072 54.6983C154.871 54.5899 150.518 50.3581 150.518 50.3581C150.518 50.3581 149.801 49.7391 148.889 50.3355C147.253 51.4063 143.986 53.6473 142.514 54.8373C142.296 55.0139 142.329 55.3562 142.579 55.4848C144.001 56.2181 147.874 58.0633 148.934 58.717C149.26 58.9173 149.674 58.8929 149.974 58.6567C150.716 58.0734 153.699 56.2802 154.889 55.474C155.485 55.0706 155.072 54.6983 155.072 54.6983Z" fill="#453075"/>
<path d="M230.024 101.028C230.009 101.044 229.995 101.062 229.982 101.081C229.35 101.98 229.154 103.253 227.94 103.474C227.719 103.514 227.406 103.494 227.337 103.928C226.889 106.73 225.506 108.031 225.504 108.032C225.27 108.237 225.179 108.67 225.437 108.844C228.794 111.11 233.625 108.219 234.559 104.225C234.563 104.211 234.564 104.196 234.568 104.182C235.355 101.233 232.394 98.3918 230.024 101.028ZM226.857 108.549C226.469 108.322 226.685 107.522 227.208 107.619C228.259 107.813 227.641 109.009 226.857 108.549ZM229.903 108.303C229.763 108.763 229.01 108.891 228.688 108.486C228.443 108.176 228.514 107.863 228.866 107.628C229.323 107.323 230.081 107.716 229.903 108.303ZM230.507 107.695C230.003 107.071 230.895 106.63 231.216 107C231.85 107.731 230.911 108.194 230.507 107.695ZM231.98 106.887C231.438 106.759 231.282 105.596 232.212 105.783C233.002 105.942 232.566 107.026 231.98 106.887ZM231.725 104.119C229.914 104.11 230.206 102.046 231.703 101.863C233.094 101.694 233.179 104.125 231.725 104.119Z" fill="#453075"/>
</g>
<defs>
<clipPath id="clip0_8172_24912">
<rect width="200" height="147" fill="white" transform="translate(60 17)"/>
</clipPath>
</defs>
</svg>
