<svg width="320" height="180" viewBox="0 0 320 180" fill="none" xmlns="http://www.w3.org/2000/svg">
<path d="M201.152 58.2948C192.225 60.7924 182.941 55.2144 176.69 48.2972C170.438 41.38 165.863 32.9174 158.845 26.7994C149.02 18.234 135.176 15.2556 122.346 17.1625C109.516 19.0695 98.9824 21.871 88.8794 30.0987C78.6034 38.4672 68.2661 53.0241 65.7613 66.1302C63.2564 79.2364 71.14 96.1577 83.255 101.435C90.7342 104.693 96.6475 103.34 103.296 109.382C111.678 117 108.045 132.265 117.125 141.912C123.147 148.31 141.503 148.202 150.008 150.2C174.641 155.985 200.398 155.169 225.413 151.422C231.271 150.544 237.294 149.436 242.247 146.151C247.201 142.866 250.849 136.849 249.662 130.977C248.327 124.375 241.471 119.682 241.117 112.953C240.691 104.879 249.439 99.804 253.36 92.7599C258.99 82.6438 253.334 69.032 243.736 62.6723C234.138 56.3127 221.356 52.6426 201.152 58.2948Z" fill="#E9D2B1"/>
<path d="M151.797 143.251C153.844 145.786 154.946 149.084 154.84 152.356C154.735 155.628 153.421 158.846 151.215 161.241C170.048 158.991 189.266 162.982 208.019 160.131C210.679 159.727 213.559 159.042 215.202 156.887C216.391 155.329 216.707 153.254 216.644 151.286C216.569 148.97 215.92 146.505 214.148 145.037C212.413 143.599 210.005 143.417 207.765 143.312C189.518 142.458 171.23 142.502 151.797 143.251Z" fill="#FCDDC4"/>
<path d="M105.103 143.345C107.228 145.573 108.414 148.69 108.315 151.786C108.217 154.881 106.834 157.914 104.59 160.298C121.172 159.04 153.063 160.021 152.546 159.892C154.999 157.872 156.807 154.911 156.97 151.715C157.132 148.519 155.428 145.173 152.535 143.882C150.865 143.136 120.594 142.711 105.103 143.345Z" fill="#FCCA95"/>
<path d="M106.486 144.567L208.784 145.048C208.784 145.048 214.897 146.417 214.897 152.165C214.897 158.704 207.804 158.779 207.804 158.779L106.081 158.552C106.081 158.552 101.837 158.401 102.189 160.539C102.592 162.989 106.046 162.593 106.046 162.593L208.422 162.292C208.422 162.292 219.03 163.041 219.03 152.366C219.03 140.965 208.289 141.355 208.289 141.355L106.352 140.944C106.352 140.944 103.7 140.932 103.7 142.812C103.7 144.721 106.486 144.567 106.486 144.567Z" fill="#EA9C47"/>
<path d="M211.667 150.835H154.463C154.305 150.835 154.178 150.706 154.178 150.547C154.178 150.387 154.305 150.258 154.463 150.258H211.667C211.824 150.258 211.952 150.387 211.952 150.547C211.952 150.706 211.824 150.835 211.667 150.835Z" fill="#FCCA95"/>
<path d="M210.09 153.971H153.67C153.512 153.971 153.385 153.842 153.385 153.683C153.385 153.524 153.512 153.395 153.67 153.395H210.09C210.247 153.395 210.375 153.524 210.375 153.683C210.375 153.842 210.247 153.971 210.09 153.971Z" fill="#FCCA95"/>
<path d="M208.688 157.107H153.537C153.379 157.107 153.252 156.978 153.252 156.819C153.252 156.66 153.379 156.531 153.537 156.531H208.688C208.845 156.531 208.972 156.66 208.972 156.819C208.972 156.978 208.845 157.107 208.688 157.107Z" fill="#FCCA95"/>
<path d="M205.869 147.178H152.865C152.708 147.178 152.58 147.049 152.58 146.89C152.58 146.731 152.708 146.602 152.865 146.602H205.869C206.027 146.602 206.154 146.731 206.154 146.89C206.154 147.049 206.027 147.178 205.869 147.178Z" fill="#FCCA95"/>
<path d="M179.705 149.857C179.722 150.72 176.86 149.369 175.661 154.237C175.12 156.436 174.922 159.008 175.253 161.241C175.248 161.229 175.244 161.217 175.262 161.129C173.914 159.97 172.96 158.348 172.65 156.603C171.705 157.79 171.068 159.508 171.262 160.942C170.188 158.981 169.91 158.056 169.997 156.318C170.085 154.581 170.533 152.536 171.271 150.965C171.495 150.487 171.75 149.995 172.183 149.698C172.647 149.38 173.238 149.339 173.798 149.324C175.586 149.274 179.693 149.285 179.705 149.857Z" fill="#292F73"/>
<path d="M210.23 118.535C207.426 120.597 206.077 124.283 206.228 127.788C206.378 131.293 207.859 134.622 209.754 137.36C193.964 140.717 177.586 139.9 161.581 137.833C158.203 137.397 154.615 136.808 152.086 134.501C150.129 132.717 149.051 129.99 149.25 127.333C149.45 124.675 150.923 122.145 153.124 120.68C155.682 118.978 158.907 118.768 161.967 118.687C166.889 118.556 171.814 118.62 176.737 118.685C187.313 118.825 197.89 118.964 210.23 118.535Z" fill="#EA9C47"/>
<path d="M107.011 116.909L209.883 116.644C209.883 116.644 212.91 116.189 212.91 118.498C212.91 120.472 209.346 120.093 209.346 120.093C209.346 120.093 176.474 120.092 159.402 120.398C159.426 120.39 153.885 120.789 153.885 127.836C153.885 135.594 159.897 136.262 159.897 136.262L208.901 136.738C208.901 136.738 212.021 136.495 212.25 139.118C212.456 141.487 209.193 141.387 209.193 141.387L106.352 140.944C106.352 140.944 100.787 139.995 100.787 128.346C100.787 118.094 107.011 116.909 107.011 116.909Z" fill="#FCCA95"/>
<path d="M206.226 128.032H206.226L156.848 127.976C156.715 127.976 156.607 127.866 156.607 127.731C156.608 127.597 156.715 127.488 156.848 127.488H156.849L206.226 127.544C206.359 127.544 206.467 127.654 206.467 127.788C206.467 127.923 206.359 128.032 206.226 128.032Z" fill="#AF6A1D"/>
<path d="M206.553 131.453H160.514C160.381 131.453 160.273 131.344 160.273 131.209C160.273 131.074 160.381 130.965 160.514 130.965H206.553C206.686 130.965 206.794 131.074 206.794 131.209C206.794 131.344 206.686 131.453 206.553 131.453Z" fill="#AF6A1D"/>
<path d="M208.103 134.829H168.223C168.09 134.829 167.982 134.719 167.982 134.585C167.982 134.45 168.09 134.341 168.223 134.341H208.103C208.236 134.341 208.344 134.45 208.344 134.585C208.344 134.719 208.236 134.829 208.103 134.829Z" fill="#AF6A1D"/>
<path d="M206.64 124.406H160.02C159.887 124.406 159.779 124.297 159.779 124.162C159.779 124.028 159.887 123.918 160.02 123.918H206.64C206.773 123.918 206.881 124.028 206.881 124.162C206.881 124.297 206.773 124.406 206.64 124.406Z" fill="#AF6A1D"/>
<path d="M154.217 96.4867C156.264 99.1699 157.366 102.661 157.26 106.124C157.155 109.587 155.841 112.994 153.635 115.528C172.468 113.147 191.686 117.37 210.439 114.353C213.099 113.925 215.978 113.201 217.622 110.92C218.811 109.27 219.127 107.074 219.064 104.991C218.989 102.54 218.34 99.9309 216.568 98.3771C214.833 96.855 212.425 96.6632 210.184 96.5521C191.938 95.6474 173.65 95.6939 154.217 96.4867Z" fill="#FCCA95"/>
<path d="M107.525 96.5857C109.65 98.9446 110.836 102.244 110.737 105.52C110.638 108.796 109.256 112.007 107.012 114.529C123.594 113.199 155.485 114.236 154.968 114.099C157.421 111.962 159.229 108.828 159.392 105.445C159.554 102.062 157.85 98.5212 154.957 97.1543C153.286 96.3651 123.015 95.9155 107.525 96.5857Z" fill="#EA9C47"/>
<path d="M108.908 97.8798L211.206 98.3887C211.206 98.3887 217.319 99.8381 217.319 105.922C217.319 112.842 210.226 112.922 210.226 112.922L108.503 112.681C108.503 112.681 104.259 112.522 104.611 114.784C105.014 117.378 108.468 116.958 108.468 116.958L210.844 116.641C210.844 116.641 221.452 117.433 221.452 106.135C221.452 94.0672 210.711 94.4798 210.711 94.4798L108.774 94.0454C108.774 94.0454 106.122 94.0327 106.122 96.022C106.122 98.0425 108.908 97.8798 108.908 97.8798Z" fill="#AF6A1D"/>
<path d="M214.089 104.497H156.884C156.727 104.497 156.6 104.368 156.6 104.209C156.6 104.049 156.727 103.92 156.884 103.92H214.089C214.246 103.92 214.373 104.049 214.373 104.209C214.373 104.368 214.246 104.497 214.089 104.497Z" fill="#EA9C47"/>
<path d="M212.512 107.816H156.091C155.934 107.816 155.807 107.687 155.807 107.528C155.807 107.369 155.934 107.24 156.091 107.24H212.512C212.669 107.24 212.797 107.369 212.797 107.528C212.797 107.687 212.669 107.816 212.512 107.816Z" fill="#EA9C47"/>
<path d="M211.11 111.136H155.959C155.801 111.136 155.674 111.007 155.674 110.847C155.674 110.688 155.801 110.559 155.959 110.559H211.11C211.267 110.559 211.394 110.688 211.394 110.847C211.394 111.007 211.267 111.136 211.11 111.136Z" fill="#EA9C47"/>
<path d="M208.291 100.626H155.287C155.129 100.626 155.002 100.497 155.002 100.338C155.002 100.179 155.129 100.05 155.287 100.05H208.291C208.449 100.05 208.576 100.179 208.576 100.338C208.576 100.497 208.449 100.626 208.291 100.626Z" fill="#EA9C47"/>
<path d="M206.503 56.2778C204.728 56.7175 202.822 56.3079 201.202 55.4516C199.582 54.5952 198.349 53.7251 197.103 52.3721C195.759 50.9124 194.376 48.9023 193.701 47.0276C193.026 45.1528 192.992 42.9607 193.994 41.2423C194.604 40.1956 195.853 38.9768 197.053 38.979C198.507 38.9816 199.487 40.5351 200.853 41.0384C202.224 41.5436 203.754 41.3279 205.154 40.9113C206.554 40.4948 208.122 39.7494 209.553 39.4607C212.797 38.8063 215.539 39.6413 218.084 41.779C221.715 44.8298 222.233 48.0022 222.284 51.3489C222.3 52.3604 222.205 53.3767 222.321 54.3814C222.438 55.3862 222.797 56.411 223.555 57.0706C224.519 57.9099 226.392 58.2295 227.031 59.3426C227.513 60.1809 226.926 61.1631 226.331 61.9234C225.737 62.6837 224.314 63.3712 223.418 63.7149C220.396 64.8741 217.496 64.6745 214.457 63.56C211.418 62.4455 208.798 60.2004 206.503 56.2778Z" fill="#B04734"/>
<path d="M207.161 48.8124C206.082 48.6232 204.426 47.5347 204.426 47.5347C204.426 47.5347 195.752 44.1165 194.865 40.1138C193.03 41.9144 192.755 45.056 193.65 47.4797C194.544 49.9035 196.905 52.3984 198.901 54.0146C201.541 56.1521 204.329 57.382 207.663 56.8139C209.111 60.3746 211.482 62.7843 215.975 64.1141C219.626 65.1948 225.132 63.8718 226.427 61.7984C223.654 62.4712 220.707 60.9847 219.025 58.6534C217.279 56.2328 216.584 53.7479 217.65 51.0705C216.215 49.9502 215.027 48.716 214.211 47.0777C212.478 48.0722 210.123 49.3317 207.161 48.8124Z" fill="#632D1B"/>
<path d="M222.281 52.0605C221.754 53.0049 221.342 53.9271 221.201 55.0023C221.059 56.0775 221.248 57.229 221.89 58.0979C222.41 58.8025 223.215 59.2853 224.075 59.4094C224.936 59.5335 226.033 59.4781 226.727 58.9486C226.052 58.2657 225.532 58.158 224.996 57.8728C224.152 57.4231 223.983 57.3687 223.555 56.9355C222.851 56.2232 222.608 55.4655 222.488 54.8503C222.239 53.5788 222.33 53.1861 222.281 52.0605Z" fill="#D87A64"/>
<path d="M199.365 40.1137C200.852 41.2721 202.642 41.5787 204.611 41.0598C206.456 40.5736 207.429 39.8871 209.552 39.4606C212.015 38.9659 214.545 39.2839 216.725 40.5445C218.904 41.8051 220.564 43.9921 221.488 46.3541C220.823 45.1846 219.949 44.0362 218.878 43.2318C218.522 42.9649 218.105 42.7114 217.666 42.7742C217.035 42.8647 216.515 43.5896 215.906 43.3982C215.424 43.2466 215.292 42.6403 215.051 42.1908C214.721 41.5724 214.073 41.1691 213.392 41.0258C212.712 40.8826 212.002 40.9748 211.332 41.162C209.277 41.7368 207.499 43.1832 205.391 43.5048C203.044 43.8629 200.788 42.8964 199.365 40.1137Z" fill="#D87A64"/>
<path d="M121.688 103.084C124.766 102.715 127.718 101.348 130.007 99.2322C131.202 98.1272 132.255 96.7398 132.479 95.1171C132.703 93.4945 131.857 91.6435 130.303 91.1834C128.786 90.7343 127.234 91.6653 125.664 91.8529C122.682 92.2095 119.968 89.8721 116.966 89.7861C114.886 89.7266 112.92 90.7634 111.268 92.0445C110.274 92.8164 109.344 93.6974 108.661 94.7609C107.978 95.8244 107.552 97.0856 107.621 98.3523C107.702 99.8608 108.458 101.232 109.095 102.599C109.732 103.965 110.273 105.499 109.899 106.962C109.661 107.892 109.062 108.831 109.377 109.737C109.635 110.48 110.466 110.898 111.244 110.883C112.022 110.868 112.751 110.507 113.415 110.097C115.173 109.012 116.687 107.525 117.813 105.78C118.431 104.821 119.036 103.402 121.688 103.084Z" fill="#62472A"/>
<path d="M120.163 90.5383C120.163 90.5383 116.737 90.2511 115.119 90.8534C113.827 91.3343 112.675 92.4782 112.608 93.87C112.588 94.2764 112.644 94.7367 112.375 95.0394C112.11 95.3377 111.66 95.3363 111.267 95.3903C110.183 95.5392 109.253 96.2064 108.775 96.8453C107.663 98.3313 107.876 99.746 107.876 99.746C107.876 99.746 105.554 95.8764 111.171 91.8404C116.362 88.1104 120.163 90.5383 120.163 90.5383Z" fill="#7D5C39"/>
<path d="M121.764 91.1559C121.797 92.6704 124.407 93.5909 125.531 93.6543C126.665 93.7183 129.141 93.1271 129.284 91.0654C127.183 90.8871 126.359 92.9219 121.764 91.1559Z" fill="#7D5C39"/>
<path d="M132.309 93.3125C132.309 93.3125 130.795 95.5391 128.149 97.4631C128.09 97.5064 124.824 98.9376 124.824 98.9376C124.824 98.9376 111.697 104.59 111.67 104.66C111.232 105.792 110.009 105.603 110.009 105.603C110.009 105.603 110.205 106.297 109.478 108.21C109.375 108.482 108.694 110.074 110.508 110.77C111.714 111.232 113.913 111.027 116.782 107.35C119.541 103.814 125.852 101.944 125.852 101.944C125.852 101.944 127.294 101.626 129.011 100.333C133.776 96.745 132.309 93.3125 132.309 93.3125Z" fill="#4D351D"/>
<path d="M117.753 98.7375C121.723 100.236 126.274 99.2761 129.628 96.3263C129.803 96.1725 129.972 95.9998 130.06 95.7826C130.147 95.5654 130.128 95.2875 129.955 95.1312C129.672 94.875 129.204 95.0203 128.717 95.2582C125.969 96.6021 124.946 97.7593 121.902 97.9936C121.117 98.054 116.872 97.7878 117.753 98.7375Z" fill="#7D5C39"/>
<path d="M121.242 112.115C121.181 110.533 121.089 110.075 121.089 110.075C121.089 110.075 122.734 110.896 123.803 110.275C124.626 109.797 125.426 108.893 125.831 108.024C126.235 107.156 126.307 106.413 126.352 105.454C126.477 102.782 124.829 98.9357 124.825 98.9376C122.562 99.5489 120.078 99.4529 117.821 98.7378C117.199 100.531 115.549 101.571 113.72 102.211C113.443 101.707 112.564 101.542 112.047 101.785C111.531 102.029 111.346 102.553 111.292 103.126C111.239 103.7 111.42 104.185 111.688 104.693C111.971 105.229 112.359 105.625 112.883 105.921C113.914 106.504 114.673 105.568 114.673 105.568C114.673 105.568 116.567 107.887 116.269 112.052C116.25 112.324 116.308 112.153 116.385 112.413C116.534 112.909 117.034 113.206 117.519 113.37C118.615 113.741 119.85 113.672 121.242 112.115Z" fill="#DDB285"/>
<path d="M195.418 118.667C195.293 118.172 195.165 117.67 194.905 117.233C194.645 116.796 194.228 116.426 193.729 116.35C193.333 116.29 192.756 116.351 192.384 116.501C191.525 116.848 190.893 117.391 190.168 117.971C190.071 117.523 189.975 117.075 189.871 116.602C189.481 116.891 189.032 117.084 188.586 117.272C188.141 117.46 187.805 117.632 187.409 117.912C187.013 118.192 186.556 118.592 186.416 119.06C186.276 119.528 186.37 120.083 186.724 120.415C187.078 120.747 187.7 120.776 188.028 120.421C187.758 120.957 187.97 121.689 188.4 122.033C188.744 122.839 188.304 123.803 187.637 124.365C186.969 124.927 186.118 125.199 185.321 125.546C184.523 125.893 183.716 126.372 183.333 127.16C182.976 127.892 183.05 128.754 183.132 129.566C183.174 129.983 183.238 130.443 183.553 130.715C183.922 131.033 184.564 131.049 185.032 130.924C185.5 130.798 186.418 130.774 186.418 130.774C186.418 130.774 185.759 132.361 187.345 133.846C187.79 134.263 188.449 134.747 189.018 134.531C189.32 134.417 190.403 133.102 190.631 132.872C193.519 129.964 195.404 127.75 197.958 124.539C198.222 124.207 198.498 123.834 198.483 123.409C198.462 122.82 197.914 122.419 197.468 122.04C196.438 121.167 195.737 119.935 195.418 118.667Z" fill="#CCDCEE"/>
<path d="M131.506 130.552C135.391 130.333 139.422 130.85 142.801 132.802C143.705 133.325 144.637 134.084 144.717 135.135C144.776 135.916 144.323 136.666 143.716 137.151C143.109 137.637 142.363 137.904 141.627 138.148C136.293 139.917 130.742 140.907 125.08 141.96C125.695 142.412 125.395 143.495 124.726 143.86C124.057 144.225 123.241 144.095 122.494 143.95C115.891 142.668 111.664 142.458 103.404 137.627C101.869 136.73 100.341 135.788 99.0712 134.538C96.9706 132.469 94.7427 127.797 96.5292 126.08C97.4741 125.172 99.5283 125.265 100.821 125.431C102.114 125.597 104.746 125.153 105.935 125.693C108.768 126.978 111.246 127.409 114.051 128.748C120.133 129.707 125.401 130.895 131.506 130.552Z" fill="#CCDCEE"/>
<path d="M210.74 67.1827C207.309 72.9006 206.137 79.9646 207.533 86.5032C205.692 85.3086 203.929 83.9904 202.26 82.5602C204.098 81.1688 204.998 78.8555 205.582 76.6085C206.538 72.9267 206.884 69.0831 206.599 65.2871C207.559 66.6369 209.31 67.3596 210.74 67.1827Z" fill="#8AA0BC"/>
<path d="M192.457 116.556C192.665 118.174 193.63 119.698 194.637 120.972C195.033 121.473 195.46 121.977 195.635 122.593C195.956 123.722 195.359 124.893 194.729 125.88C192.747 128.986 190.558 131.868 187.654 134.114C188.412 134.737 189.001 134.825 189.477 134.585C189.553 134.546 190.503 133.535 190.982 132.968C193.16 130.387 195.338 127.807 197.515 125.226C197.8 124.889 198.089 124.546 198.276 124.145C198.463 123.743 198.636 123.449 198.483 123.033C198.301 122.54 197.747 122.039 197.356 121.691C196.62 121.036 196.057 120.183 195.741 119.244C195.564 118.719 195.463 118.169 195.266 117.651C195.069 117.133 194.978 116.813 194.497 116.546C194.017 116.279 193.366 116.115 192.457 116.556Z" fill="#8AA0BC"/>
<path d="M190.057 116.728C190.17 117.142 190.115 117.572 190.228 117.987C189.492 118.419 190.594 118.004 190.278 118.803C190.158 119.106 188.405 120.692 188.669 120.877C188.946 121.072 189.073 121.003 189.405 121.062C189.741 121.123 190.358 121.483 190.591 121.863C190.908 122.381 190.971 122.624 190.983 123.233C190.997 123.953 190.624 124.63 190.149 125.165C189.673 125.7 189.092 126.127 188.57 126.615C187.364 127.74 186.455 129.259 186.316 130.912C185.759 130.912 184.253 131.21 183.834 131.052C183.449 130.907 183.184 130.49 183.184 129.954C183.749 130.325 184.702 130.002 185.155 129.498C185.609 128.993 185.841 128.33 186.182 127.742C186.656 126.924 187.34 126.255 188.019 125.601C188.401 125.234 188.789 124.863 189.069 124.411C189.349 123.959 189.514 123.409 189.406 122.887C189.298 122.365 188.698 121.831 188.172 121.788C187.603 121.211 188.009 120.463 188.009 120.463C188.009 120.463 187.581 120.801 187.301 120.716C187.021 120.631 186.906 120.578 186.724 120.416C187.22 120.324 187.701 120.281 187.946 119.272C188.029 118.926 187.792 118.227 187.409 117.912C188.3 117.339 189.137 116.788 190.057 116.728Z" fill="#8AA0BC"/>
<path d="M206.264 70.3087C207.131 69.6401 207.988 68.8784 208.534 67.9233C208.873 68.0513 209.11 68.1056 209.393 68.1775C208.433 69.5644 207.484 70.9456 206.173 71.9971C206.124 71.5354 206.076 71.0738 206.264 70.3087Z" fill="#CCDCEE"/>
<path d="M206.771 66.5635C207.249 67.126 207.855 67.6583 208.548 67.9005C208.009 68.8934 207.213 69.7421 206.262 70.3391C206.313 69.1686 206.497 67.9018 206.771 66.5635Z" fill="#E7F1FC"/>
<path d="M191.44 117.047C191.563 116.979 191.792 116.977 191.9 117.067C192.009 117.158 192.03 117.324 191.988 117.46C191.946 117.596 191.853 117.709 191.763 117.818C191.013 118.724 190.262 119.631 189.512 120.538C189.348 120.735 189.149 120.951 188.894 120.947C188.606 120.943 188.392 120.636 188.387 120.344C188.382 120.052 188.529 119.781 188.687 119.537C189.404 118.432 190.244 117.713 191.44 117.047Z" fill="#E7F1FC"/>
<path d="M187.24 124.655C187.056 125.274 186.58 125.998 186.06 126.372C185.539 126.745 184.945 126.997 184.357 127.246C184.006 127.395 183.561 127.601 183.184 127.554C183.419 126.758 184.094 126.026 184.851 125.704C185.634 125.371 186.667 125.026 187.24 124.655Z" fill="#E7F1FC"/>
<path d="M190.966 123.536C191.016 123.261 191.526 123.291 191.719 123.49C191.912 123.69 191.986 123.931 191.961 124.208C191.88 125.081 191.372 125.857 190.774 126.49C190.176 127.124 189.478 127.655 188.886 128.293C188.293 128.932 187.796 129.718 187.736 130.592C187.706 131.023 187.784 131.456 187.742 131.886C187.699 132.316 187.495 132.773 187.097 132.929C186.637 133.111 186.493 132.763 186.414 132.436C186.214 131.608 186.264 131.149 186.372 130.508C186.6 129.156 187.255 127.881 188.218 126.916C188.754 126.38 189.377 125.941 189.922 125.414C190.467 124.887 190.831 124.27 190.966 123.536Z" fill="#E7F1FC"/>
<path d="M121.087 110.075C121.087 110.075 118.892 109.273 117.237 107.33C117.19 107.274 117.102 107.481 117.093 107.586C116.98 108.903 117.735 110.758 119.824 111.788C120.276 112.011 120.781 111.925 121.222 111.679C121.178 110.746 121.087 110.075 121.087 110.075Z" fill="#B58E63"/>
<path d="M137.459 110.136C138.249 108.232 139.041 106.322 139.575 104.329C140.11 102.337 140.382 100.247 140.112 98.2011C140.046 97.7019 139.815 97.3282 139.914 96.8346C139.983 96.4873 140.279 96.0328 140.421 95.7088C141.416 93.4319 141.394 90.8511 141.354 88.3615C141.51 88.186 141.804 88.2093 141.991 88.3516C142.177 88.4939 142.278 88.7205 142.362 88.9411C142.794 90.0864 142.937 91.342 142.774 92.5569C143.419 92.8406 143.905 93.4686 144.022 94.1707C144.369 93.8171 144.809 93.6494 145.092 94.0576C145.376 94.4658 145.378 94.8687 145.078 95.5051C145.676 96.1404 145.476 97.3502 144.777 97.8691C144.948 98.6694 144.638 99.5552 144.008 100.069C143.748 100.28 143.438 100.435 143.224 100.694C142.859 101.136 142.859 101.768 142.858 102.344C142.854 106.209 142.018 110.071 140.424 113.583" fill="#DDB285"/>
<path d="M137.881 110.538C138.634 110.563 139.354 110.147 139.847 109.571C140.341 108.995 140.637 108.273 140.863 107.545C141.527 105.403 141.65 103.132 141.722 100.887C141.727 100.726 141.747 100.536 141.885 100.454C142.042 100.361 142.234 100.47 142.402 100.541C142.757 100.69 143.103 100.729 143.415 100.506C142.761 101.249 142.85 102.275 142.834 103.27C142.779 106.684 141.991 109.893 140.76 112.814C139.935 112.424 138.986 112.203 138.402 111.495" fill="#B58E63"/>
<path d="M144.621 98.7596C144.1 99.1073 143.613 99.2325 142.99 99.2121C142.698 99.2025 142.415 99.108 142.138 99.0144C141.823 98.9085 141.461 98.7505 141.394 98.4222C141.338 98.1446 141.538 97.8692 141.783 97.733C142.029 97.5968 142.314 97.5622 142.587 97.4991C143.674 97.2479 144.258 96.4429 145.079 95.5049C145.432 95.6362 145.668 96.3506 145.566 96.8222C145.463 97.2938 145.169 97.5902 144.778 97.8689C144.832 98.1492 144.866 98.5955 144.621 98.7596Z" fill="#B58E63"/>
<path d="M144.022 94.1709C143.12 94.9611 142.001 95.5324 140.846 95.7299C140.794 95.1566 141.239 94.2 141.551 93.7183C142.057 92.935 142.775 92.5571 142.775 92.5571C142.775 92.5571 143.139 92.6768 143.415 92.9559C143.853 93.3997 143.99 93.8107 144.022 94.1709Z" fill="#B58E63"/>
<path d="M122.106 115.055C121.908 114.022 121.71 112.989 121.512 111.956C121.498 111.885 121.483 111.809 121.435 111.755C121.323 111.628 121.121 111.685 120.964 111.746C119.603 112.272 118.065 112.314 116.678 111.862C116.502 111.804 116.293 111.744 116.146 111.858C116.015 111.959 116 112.149 115.999 112.316C115.991 113.151 116.038 113.986 116.138 114.815C116.181 115.169 116.245 115.546 116.489 115.803C116.738 116.067 117.119 116.145 117.475 116.208C118.309 116.356 119.158 116.497 119.999 116.389C120.839 116.282 121.682 115.889 122.106 115.055Z" fill="#CCDCEE"/>
<path d="M117.856 112.123C117.511 112.392 117.082 112.958 117.743 114.181C118.137 114.909 118.851 115.66 121.464 115.518C120.838 116.066 119.967 116.28 119.142 116.202C118.318 116.124 117.535 115.774 116.847 115.308C116.531 115.095 116.264 114.652 116.166 115.023C116.148 115.094 116.009 114.043 115.997 113.779C115.976 113.29 115.911 112.733 115.916 112.243C115.918 112.074 116.143 111.814 116.285 111.765C116.666 111.635 117.383 111.81 117.856 112.123Z" fill="#8AA0BC"/>
<path d="M122.847 142.106C119.903 141.795 116.987 141.203 113.686 140.226C110.727 139.35 104.051 137.477 100.135 133.446C98.4484 131.71 97.4985 130.265 96.8613 128.988C96.292 127.848 96.2564 126.411 96.2564 126.411C96.2564 126.411 95.6602 127.126 95.9586 128.771C96.1608 129.885 96.0574 130.255 97.7145 132.941C99.7428 136.228 106.663 139.56 111.282 141.394C115.67 143.137 121.464 143.755 121.464 143.755C121.464 143.755 122.259 143.589 122.847 142.106Z" fill="#8AA0BC"/>
<path d="M121.903 113.99C121.903 113.99 120.721 113.999 120.256 113.714C119.792 113.43 119.446 112.954 119.308 112.398C119.288 112.314 119.246 112.146 119.246 112.146C119.246 112.146 120.17 112.03 120.456 111.917C120.644 111.843 121.006 111.667 121.222 111.679C121.556 111.698 121.509 111.933 121.545 112.11C121.752 113.155 121.903 113.99 121.903 113.99Z" fill="#E7F1FC"/>
<path d="M216.803 97.7015C217.543 99.8546 218.196 100.758 218.069 103.536C218.024 104.518 217.862 105.246 218.403 106.061C218.755 106.591 219.124 107.028 219.63 107.79C219.766 107.996 219.91 108.796 220.097 108.957C220.393 109.213 220.801 108.876 220.939 108.507C221.077 108.138 221.104 107.592 220.997 107.213C221.388 108.523 221.462 108.95 221.94 110.647C222.016 110.917 222.406 111.798 222.632 111.959C222.859 112.121 223.437 112.134 223.606 111.912C223.717 111.767 223.677 110.761 223.677 110.578C223.676 108.562 223.781 107.309 223.201 105.379C222.094 101.688 220.386 98.8253 220.065 95.9468C220.065 95.9468 218.697 96.7074 216.803 97.7015Z" fill="#EDD2B4"/>
<path d="M190.932 62.0322C189.669 59.2682 188.387 56.4342 188.124 53.4005C187.993 51.8936 188.554 50.5757 188.421 49.0498C188.302 47.6811 188.012 47.2769 189.151 44.8861C189.362 44.4435 189.701 43.95 189.47 43.5174C189.331 43.2556 189.017 43.1228 188.724 43.1373C188.43 43.1518 188.156 43.2912 187.916 43.4629C187.352 43.8661 186.93 44.4672 186.738 45.1383C186.67 45.3785 186.629 45.6306 186.509 45.8494C186.39 46.0682 186.165 46.2527 185.919 46.2304C185.763 46.2163 185.404 45.7637 185.266 45.689C184.587 45.3227 183.942 45.7362 183.283 46.1376C182.625 46.5389 182.18 47.2603 182.057 48.0286C181.929 48.8286 182.13 49.649 182.438 50.397C182.77 51.2035 183.237 51.9674 183.889 52.539C184.225 52.8333 184.389 53.0783 184.659 53.4358C184.969 53.8474 185.327 54.9071 185.446 55.4108C186.186 58.5513 186.784 60.8373 187.525 63.9778C188.375 63.3465 189.473 63.188 190.932 62.0322Z" fill="#EDD2B4"/>
<path d="M204.426 47.5346C203.522 49.6606 203.27 52.4984 203.27 55.1402C203.27 55.9372 203.347 57.3704 203.628 58.115C203.909 58.8595 204.38 59.579 205.084 59.9377C205.677 60.2404 206.386 60.3137 207.326 60.0805C207.27 61.2829 207.186 62.6999 206.8 64.8171C206.71 65.308 206.488 65.802 206.624 66.2815C206.729 66.648 207 66.9415 207.291 67.1847C208.818 68.464 211.156 68.6387 212.852 67.6002C212.259 65.1755 212.151 62.7652 212.537 60.2979C212.658 59.523 212.978 57.5769 212.978 57.5769C212.978 57.5769 213.929 56.8625 214.572 55.9169C215.022 56.6104 215.974 56.7755 216.688 56.3686C217.403 55.9617 217.987 55.3005 218.347 54.5549C218.632 53.9654 218.753 53.2481 218.756 52.5919C218.76 51.9356 218.462 51.2413 217.884 50.9434C217.307 50.6454 216.454 50.8162 216.138 51.3912C214.827 50.0644 214.132 47.9089 214.212 47.0776C214.212 47.0776 207.525 49.0624 204.426 47.5346Z" fill="#EDD2B4"/>
<path d="M201.123 45.9719C200.872 45.8208 200.671 45.6875 200.784 45.4153C200.905 45.1258 201.33 45.2259 201.608 45.3659C205.445 47.2981 210.066 47.5216 214.101 46.0613C214.248 46.008 214.758 45.953 214.911 46.1078C215.327 46.5286 214.731 46.9203 214.339 47.0779C211.782 48.1057 209.069 48.2354 206.73 48.0813C204.391 47.9272 202.341 46.706 201.123 45.9719Z" fill="#D87A64"/>
<path d="M207.243 60.1007C208.713 59.867 209.917 59.4401 211.423 58.3313C211.49 58.2819 211.796 59.7592 210.099 61.5684C209.287 62.4344 208.232 62.9291 207.066 63.1144C207.15 62.2983 207.316 61.4173 207.243 60.1007Z" fill="#D1B496"/>
<path d="M217.113 98.6048C217.769 100.001 218.088 101.558 218.034 103.103C218.009 103.805 217.917 104.693 218.092 105.373C218.375 106.467 219.522 107.476 219.952 108.755C220.001 108.901 220.052 109.066 220.186 109.139C220.304 109.203 220.456 109.171 220.564 109.092C220.672 109.012 220.726 108.882 220.802 108.77C221.236 108.134 221.008 107.31 221.025 107.304C220.679 106.063 219.618 104.562 218.749 103.598C217.982 102.747 217.9 101.982 218.259 100.889C218.618 99.7952 219.655 98.9193 220.791 98.8925C220.664 98.4241 220.538 97.9557 220.411 97.4873C219.625 97.7003 218.827 97.8691 218.022 97.9929" fill="#D1B496"/>
<path d="M188.496 62.3679C186.988 59.6424 186.169 56.5308 186.08 53.3907C186.735 52.811 187.181 51.9938 187.316 51.1239C187.476 50.0909 187.211 49.045 187.136 48.0021C187.07 47.0741 187.161 46.1219 187.514 45.263C187.867 44.4041 188.466 43.6535 189.331 43.3405C188.918 42.9226 188.121 43.2088 187.656 43.6117C187.19 44.0146 186.909 44.4515 186.764 45.0537C186.711 45.2742 186.596 45.6546 186.59 45.6686C186.505 45.8785 186.263 46.2189 186.039 46.2078C185.602 46.186 185.583 45.6741 184.943 45.5698C185.544 46.2427 185.834 46.894 186.194 47.7248C186.494 48.4188 186.748 49.349 186.712 50.1058C186.676 50.8626 186.495 51.8035 185.877 51.9684C185.295 52.1235 184.175 52.0419 183.667 51.5273C182.771 50.6208 182.87 50.753 182.186 49.6696C182.444 50.7204 182.946 51.7992 183.692 52.5756C183.995 52.8914 184.215 52.8224 184.468 53.1804C184.834 53.6978 185.16 54.4596 185.311 55.0769C186.019 57.9553 186.655 60.8521 187.216 63.7634C187.398 63.6634 187.58 63.5634 187.762 63.4635" fill="#D1B496"/>
<path d="M205.731 63.5262C204.827 62.6164 203.452 62.3177 202.261 62.7769C201.46 63.0859 200.7 64.0404 200.084 64.6449C199.469 65.2493 198.848 65.6525 198.075 66.0273C197.301 66.402 196.125 66.0269 195.421 65.5313C194.813 65.1038 194.373 63.9987 193.968 63.3718C193.038 61.9284 191.316 61.5859 189.616 61.6807C187.916 61.7754 186.878 62.9571 186.11 64.4952C185.309 66.0974 185.407 69.8234 186.354 71.8103C187.126 73.4284 187.815 74.8287 189.668 76.9662C189.861 77.1882 190.078 77.4086 190.316 77.6264C193.288 77.7908 196.108 77.5797 199.005 76.6602C199.358 76.5483 200.834 76.0227 201.2 76.0716C201.567 76.1206 201.926 76.3974 201.908 76.7709C201.85 77.9498 200.208 78.1254 199.856 78.3434L190.319 77.6292C193.479 80.5226 200.316 82.9373 202.608 81.92C205.286 80.5321 207.018 72.0013 207.018 67.3387C207.018 65.9717 206.688 64.4903 205.731 63.5262Z" fill="#EA9C47"/>
<path d="M203.269 81.5995C204.183 80.5009 204.668 79.4322 205.148 78.0804C205.627 76.7286 205.779 75.4295 205.28 74.0851C204.78 72.7407 203.662 71.3029 202.26 71.0777C201.127 70.8957 199.929 71.6055 198.899 72.1164C197.869 72.6273 196.891 73.2628 195.798 73.6162C194.327 74.0921 193.314 74.5105 191.89 73.9029C190.467 73.2953 189.09 72.2065 188.4 70.8079C187.2 68.3763 186.673 65.4593 187.245 62.8037C185.889 63.699 185.386 65.6457 185.569 67.9158C185.701 69.5491 185.696 70.4361 186.475 72.406C187.271 74.4201 188.105 76.0216 189.895 77.2156C191.242 78.1147 192.821 77.8381 194.415 77.5816C196.009 77.325 197.271 77.3855 198.772 76.786C199.664 76.4297 201.329 75.8714 201.657 76.6144C201.967 77.3179 200.095 78.2432 200.095 78.2432C200.095 78.2432 200.091 78.9789 200.467 79.3792" fill="#AF6A1D"/>
<path d="M212.407 96.2699C210.457 94.2958 209.967 91.8868 209.593 89.3981C208.361 89.078 207.072 87.6152 206.922 85.5683C204.321 82.7653 201.771 79.9604 199.221 77.1555C198.287 76.128 196.736 74.5321 195.47 73.9774C194.08 73.3685 193.049 73.3144 191.693 73.9981C190.372 74.6644 189.19 75.9068 188.791 77.9552L188.708 77.8845C187.95 76.9018 186.682 75.8999 184.716 76.5913C183.442 77.0398 183.113 78.6781 182.784 80.0029C182.455 81.3278 182.321 83.5734 182.448 84.9333C182.728 87.9284 183.41 90.0482 183.87 93.0205C185.14 101.233 186.411 109.445 187.799 117.656C188.502 117.337 189.353 117.028 190.058 116.727C190.156 117.144 190.142 117.213 190.198 117.872C191.412 117.043 191.967 116.618 193.331 116.302C193.331 103.608 195.497 98.5739 195.497 88.8854C196.452 91.0472 197.955 92.9577 199.836 94.359C199.841 94.3875 199.912 94.4405 199.944 94.4383C199.949 94.4419 199.953 94.4457 199.958 94.4493C201.11 94.4172 203.951 94.6058 205.102 94.6528C208.129 94.9071 209.371 95.028 212.407 96.2699Z" fill="#292F73"/>
<path d="M185.757 76.3691C184.242 78.0425 183.335 80.5104 183.602 84.6698C183.79 87.5962 185.226 90.726 185.518 93.6437C185.717 95.6387 185.851 97.3977 184.812 99.1051C184.247 95.27 182.497 86.551 182.4 84.9795C182.247 82.5063 182.405 80.3397 183.429 77.894C183.921 76.7211 184.784 76.4467 185.757 76.3691Z" fill="#475196"/>
<path d="M196.383 74.5103C198.499 75.87 203.255 81.2558 206.501 85.1146C201.81 83.1844 198.231 79.5394 196.383 74.5103Z" fill="#475196"/>
<path d="M193.998 76.311C195.664 77.8264 196.717 79.8946 197.755 81.9034C198.794 83.9122 199.896 85.9637 201.626 87.4042C203.356 88.8448 205.88 89.5438 207.879 88.5198C208.703 88.2855 209.586 88.7935 210.094 89.4922C210.601 90.1909 210.827 91.0509 211.104 91.8712C211.723 93.6999 211.225 94.4604 212.135 96.1598C209.686 95.1339 206.752 94.7761 203.695 94.5819C202.28 94.4921 199.943 94.4385 199.943 94.4385C199.943 94.4385 197.808 93.0633 196.797 91.4395C196.39 90.7856 195.497 88.8856 195.497 88.8856C195.497 88.8856 195.92 85.4353 195.92 84.4401C195.92 80.9579 195.115 78.471 193.998 76.311Z" fill="#1D273D"/>
<path d="M187.735 76.9316C185.872 80.5601 186.693 85.0843 186.927 89.1664C187.162 93.2485 188.477 97.9735 187.656 101.977C187.462 102.92 185.758 105.131 185.758 105.131L187.8 117.655C188.82 117.212 189.276 117.067 190.058 116.727L188.791 77.9552C188.791 77.9552 188.433 77.3399 187.735 76.9316Z" fill="#1D273D"/>
<path d="M193.215 73.5029C191.253 74.5215 190.392 76.7515 190.138 78.9682C189.885 81.185 190.3 83.4154 190.561 85.6312C191.806 96.1857 191.303 104.189 191.303 117.131C190.886 117.443 190.653 117.557 190.198 117.872C189.401 111.627 189.336 106.83 189.123 101.171C188.836 93.5481 188.84 89.9262 188.618 84.0234C188.556 82.3905 188.791 77.9552 188.791 77.9552C188.791 77.9552 189.231 74.094 193.215 73.5029Z" fill="#475196"/>
<path d="M211.476 66.1159C209.202 68.5331 207.775 71.6822 207.08 74.9442C206.384 78.2061 206.389 81.5869 206.714 84.9077C206.81 85.8945 206.942 86.9024 207.391 87.7838C207.84 88.6652 208.695 89.8243 209.672 89.9003C209.744 91.6058 210.118 93.4826 211.829 95.7744C213.165 97.5642 215.301 98.8466 217.509 98.6584C219.111 98.5219 220.505 97.7176 221.773 96.7188C223.135 95.6464 224.482 94.1891 224.401 92.4448C224.352 91.4009 223.777 90.4394 223.031 89.7177C222.284 88.9959 221.305 88.3751 221.305 88.3751C221.305 88.3751 223.547 88.7107 224.912 87.6483C225.465 87.218 226.136 86.8978 226.562 85.8942C226.842 85.2359 226.812 84.4602 226.118 83.6232C225.094 82.3879 223.414 82.1024 222.1 81.1909C221.008 80.4335 219.866 78.3006 219.531 77.0044C218.777 74.0889 219.083 71.8619 218.457 68.9155C218.121 67.332 217.458 65.6621 216.052 64.8873C214.599 64.0858 212.755 64.7553 211.476 66.1159Z" fill="#EA9C47"/>
<path d="M215.326 64.6298C213.213 65.3775 211.608 67.271 210.616 69.3025C209.624 71.3341 209.219 73.6061 208.985 75.8598C208.512 80.4236 208.83 85.3909 209.67 89.9004C208.702 90.0476 207.699 88.8998 207.217 88.0347C206.735 87.1696 206.612 85.9093 206.461 84.928C205.704 80.0107 206.358 74.8795 208.325 70.3181C208.971 68.8185 209.772 67.3581 210.924 66.2101C212.075 65.0622 213.578 64.1393 215.326 64.6298Z" fill="#AF6A1D"/>
<path d="M210.211 70.0609C210.421 69.4618 211.62 67.37 212.166 67.0563C212.34 66.9565 212.543 66.875 212.736 66.9267C213.024 67.0038 213.167 67.3565 213.122 67.6548C213.076 67.9531 212.895 68.209 212.725 68.4574C211.635 70.0572 210.836 71.8597 210.38 73.7477C210.323 73.9857 210.22 74.2744 209.979 74.3026C209.71 74.3341 209.477 74.0513 209.424 73.7826C209.233 72.8257 209.971 70.7462 210.211 70.0609Z" fill="#FCCA95"/>
<path d="M206.628 71.9115C206.405 70.763 206.57 69.08 206.347 67.9315C206.138 66.8563 205.37 65.3023 204.645 64.7893C203.873 64.2439 202.528 64.6299 202.124 64.8401C201.044 65.4013 200.06 65.7395 199.73 65.6658C199.273 65.5634 199.511 65.1493 199.511 65.1493C199.511 65.1493 201.02 63.4338 201.835 62.8978C202.649 62.3617 203.192 62.4348 204.146 62.6208C205.454 62.8759 206.153 63.4329 206.593 64.7051C207.033 65.9772 207.094 67.0678 207.017 68.5252C206.984 69.1539 206.794 71.0266 206.628 71.9115Z" fill="#FCCA95"/>
<path d="M196.565 66.0659C196.021 65.849 195.469 65.495 194.933 64.9522C194.477 64.4908 194.287 63.6402 193.902 63.117C193.187 62.1475 192.077 61.6664 190.893 61.5055C189.709 61.3447 188.474 61.6954 187.588 62.4836C187.792 62.8571 188.044 63.2629 188.461 63.3249C188.793 63.3744 189.096 63.2821 189.42 63.1935C190.148 62.9945 190.993 63.0196 191.554 63.3414C192.628 63.9581 192.739 65.2026 193.614 66.0843C193.973 66.4456 194.417 66.72 194.899 66.8783C195.191 66.9743 195.509 67.0276 195.805 66.9459C196.102 66.8643 196.468 66.633 196.565 66.0659Z" fill="#FCCA95"/>
<path d="M216.06 98.5779C217.75 98.0251 218.847 96.3218 219.294 94.5826C219.741 92.8433 219.511 90.9907 219.024 89.2627C218.536 87.5347 217.799 85.8907 217.209 84.1959C216.104 81.0253 215.517 77.671 215.478 74.3094C215.461 72.8849 215.586 71.3428 216.504 70.263C216.737 69.9884 217.078 69.737 217.425 69.8227C218.08 69.9839 218.005 70.7969 217.874 71.4147C216.976 75.6593 217.303 79.8514 218.845 83.9021C219.492 85.6021 220.382 87.2249 221.304 88.3752C221.377 88.4668 223.506 89.3263 224.192 91.0847C224.7 92.3864 224.423 93.146 224.077 94.0454C222.882 97.1489 219.643 99.2135 216.06 98.5779Z" fill="#FCCA95"/>
<path d="M221.305 88.3752C219.023 85.9038 217.533 80.7418 217.292 77.9973C217.102 75.8309 217.647 72.6631 217.647 72.6631C217.647 72.6631 218.249 72.6796 218.42 73.1172C218.502 73.3274 218.502 73.5597 218.505 73.7856C218.542 76.3829 218.541 77.947 221.095 81.8047C222.523 83.9626 224.114 85.0067 226.648 85.654C226.364 86.5464 225.435 87.6008 224.416 88.0807C223.398 88.5606 222.475 88.6802 221.305 88.3752Z" fill="#AF6A1D"/>
<path d="M102.423 130.467C102.492 130.107 102.897 130.001 103.25 130.084C103.603 130.167 103.936 130.356 104.192 130.615C108.239 134.711 110.766 134.887 116.365 137.385C118.329 138.261 121.692 139.306 121.692 139.306L121.992 140.846C121.992 140.846 114.026 138.878 108.739 136.156C105.955 134.723 102.102 132.159 102.423 130.467Z" fill="#E7F1FC"/>
<path d="M98.2345 126.863C99.7491 127.249 102.237 126.759 104.444 127.558C104.444 127.558 106.635 128.596 107.579 128.863C108.354 129.082 110.093 128.819 110.207 128.34C110.309 127.915 110.3 127.459 109.185 126.93C107.993 126.364 106.548 126.634 105.824 126.386C103.392 125.384 100.544 125.156 98.4364 125.363C97.6403 125.363 96.8613 125.827 96.8613 125.827C96.8613 125.827 97.3352 126.633 98.2345 126.863Z" fill="#E7F1FC"/>
<path d="M137.709 130.932C137.709 130.932 138.432 132.735 141.97 134.228C142.939 134.637 144.714 134.597 144.594 134.586C144.116 133.264 141.952 132.244 140.657 131.779C138.286 130.928 137.709 130.932 137.709 130.932Z" fill="#E7F1FC"/>
<path d="M122.848 139.953C122.848 139.953 112.208 136.871 108.755 134.417C102.287 129.822 100.822 125.431 100.822 125.431C100.822 125.431 103.065 125.379 104.965 126.036C103.979 126.408 103.431 127.6 103.632 128.645C103.833 129.69 104.671 130.539 105.653 130.918C106.636 131.297 107.741 131.253 108.758 130.981C109.775 130.709 110.721 130.222 111.65 129.722C111.65 129.722 111.75 129.641 111.88 129.561C112.405 129.071 112.931 128.581 113.457 128.092C113.75 129.051 114.465 129.838 115.308 130.368C116.15 130.898 117.117 131.194 118.086 131.406C122.132 132.291 126.493 131.767 130.144 129.793C131.439 130.233 133.076 130.566 134.442 130.537C133.97 130.674 133.414 131.297 133.858 131.935C134.53 132.901 135.723 133.367 136.836 133.723C137.949 134.078 138.581 134.406 139.738 134.563C138.124 134.706 137.042 134.68 135.205 134.823C132.894 135.458 132.127 135.531 129.79 136.058C127.452 136.585 122.848 139.953 122.848 139.953Z" fill="#8AA0BC"/>
<path d="M101.5 123.638C100.171 125.815 98.4567 128.723 97.8439 131.515C97.457 133.277 97.2182 133.31 96.8994 139.382C96.7707 141.833 97.4886 144.87 99.2463 146.56C99.463 146.769 99.7642 146.973 100.04 146.856C100.261 146.762 100.427 146.6 100.405 146.358C100.382 146.116 100.302 145.562 100.213 145.336C99.7016 144.044 99.5761 143.171 99.7766 142.242C100.12 142.316 100.429 142.462 100.58 142.783C100.732 143.104 101.11 143.329 101.427 143.177C101.616 143.087 101.636 142.742 101.6 142.535C101.489 141.896 101.34 141.736 101.013 141.311C100.686 140.887 99.6068 140.054 99.3707 139.295C98.8913 137.753 99.7174 134.71 99.7174 134.71C99.7174 134.71 101.314 129.073 104.69 125.514C104.69 125.514 103.262 123.291 101.5 123.638Z" fill="#DDB285"/>
<path d="M99.4707 139.533C100.366 140.381 101.432 141.477 101.577 142.41C101.611 142.626 101.669 142.929 101.526 143.092C101.364 143.278 101.056 143.242 100.856 143.099C100.655 142.956 100.524 142.737 100.361 142.552C100.197 142.368 100.076 142.317 99.7771 142.242C99.8886 141.391 99.837 140.536 99.4707 139.533Z" fill="#B58E63"/>
<path d="M103.835 123.647C99.3399 127.364 96.8713 136.299 98.1926 145.198C96.4723 141.722 96.8063 139.54 97.0961 136.223C97.4498 132.174 97.8677 129.755 100.939 124.566C101.483 124.417 102.62 123.534 103.835 123.647Z" fill="#B58E63"/>
<path d="M123.162 139.495C127.034 136.785 130.247 134.985 136.257 134.545C137.652 134.443 139.075 134.342 140.423 134.718C140.78 134.818 141.18 135.001 141.262 135.366C141.34 135.716 141.064 136.067 140.733 136.196C140.402 136.325 140.033 136.289 139.68 136.257C136.733 135.984 133.607 135.886 130.773 137.18C129.014 137.983 127.35 138.983 125.638 139.884C125.278 140.073 124.91 140.266 124.509 140.326C124.108 140.386 123.66 140.29 123.162 139.495Z" fill="#E7F1FC"/>
<path d="M125.189 139.848C124.197 139.607 123.205 139.366 122.213 139.125C121.791 139.023 121.24 138.973 121.029 139.356C120.899 139.59 120.972 139.889 121.108 140.12C121.244 140.351 121.442 140.541 121.564 140.78C121.81 141.261 121.746 141.933 121.62 142.463C121.494 142.993 121.327 143.413 121.252 143.952C121.176 144.492 121.26 145.094 121.643 145.477C122.142 145.977 122.941 145.94 123.642 145.885C124.343 145.831 124.978 145.75 125.427 146.297C125.877 146.845 125.701 147.79 125.701 148.942C125.701 150.358 125.889 151.349 126.686 152.513C127.483 153.676 128.935 154.428 130.305 154.142C130.538 154.094 130.78 154.006 130.921 153.813C131.099 153.567 131.063 153.23 131.019 152.929C130.615 150.168 130.211 147.408 129.85 144.571C129.712 143.548 129.573 142.524 129.435 141.5C129.406 141.284 129.371 141.055 129.234 140.887C129.07 140.688 128.801 140.62 128.552 140.563C127.441 140.311 126.318 140.121 125.189 139.848Z" fill="#292F73"/>
<path d="M132.541 110.561C131.558 111.815 130.561 113.083 129.296 114.043C128.031 115.004 126.448 115.637 124.879 115.436C123.664 115.28 123.414 114.792 121.983 114.68C121.168 114.617 121.229 115.681 119.035 115.805C118.304 115.846 117.564 115.152 116.883 114.879C115.99 114.521 115.167 114.97 114.208 115.008C112.085 115.09 109.301 113.834 107.217 113.419C103.481 112.675 100.187 114.443 97.8992 117.523C97.1134 118.581 96.5196 119.845 96.5294 121.168C96.5392 122.492 97.2618 123.861 98.4779 124.348C99.6062 124.799 100.932 124.451 102.056 124.914C103.028 125.314 103.666 126.24 104.382 127.017C105.098 127.793 106.11 128.496 107.127 128.233C107.894 128.035 108.43 127.339 108.812 126.636C109.193 125.934 109.495 125.164 110.06 124.603C110.626 124.041 111.572 123.848 112.213 124.318C113.086 124.959 112.748 126.288 112.091 127.154C111.433 128.019 110.509 128.791 110.38 129.875C110.222 131.212 111.351 132.332 112.468 133.063C118.075 136.732 126.211 136.209 131.302 131.838C132.142 131.116 133.116 129.905 132.654 128.892C132.321 128.161 131.839 127.771 131.049 127.683C130.258 127.595 129.156 127.722 128.447 127.357C127.308 126.771 126.884 125.463 127.602 124.393C128.558 122.968 130.168 122.805 131.868 122.881C134.837 123.014 137.83 122.558 140.629 121.547C142.093 121.018 143.563 120.293 144.501 119.037C145.438 117.782 146.087 116.355 144.6 114.393C143.69 113.192 141.961 112.959 140.702 112.143C139.586 111.42 138.941 110.587 137.905 109.753C136.868 108.918 134.601 107.933 132.541 110.561Z" fill="#292F73"/>
<path d="M145.431 116.119C145.431 116.119 143.683 115.521 143.102 115.645C142.32 115.812 140.975 116.78 139.921 115.937C138.603 114.884 138.54 112.276 135.213 113.261C133.932 113.64 132.786 114.517 131.584 115.103C129.704 116.019 125.312 115.471 125.312 115.471C125.312 115.471 127.326 115.342 128.345 114.609C129.211 113.988 130.581 112.964 131.215 112.104C131.85 111.243 132.483 110.362 133.315 109.695C134.146 109.028 135.218 108.59 136.266 108.762C137.548 108.974 140.213 111.915 140.986 112.249C140.986 112.249 143.537 113.356 144.161 113.931C145.385 115.058 145.431 116.119 145.431 116.119Z" fill="#475196"/>
<path d="M123.751 135.274C124.959 134.855 125.327 133.531 125.401 132.241C125.474 130.95 125.01 129.691 124.461 128.524C123.912 127.357 123.265 126.223 122.931 124.976C122.228 122.355 123.261 120.313 124.233 119.407C125.009 118.683 125.868 117.92 126.921 117.828C127.452 117.781 128.061 117.97 128.284 118.46C128.479 118.889 128.319 119.395 128.102 119.813C127.886 120.23 127.282 121.218 126.799 122.685C126.478 123.663 126.982 125.729 126.982 125.729C126.982 125.729 128.09 127.415 129.099 127.56C129.86 127.669 130.701 127.513 131.422 127.589C132.143 127.665 132.688 128.072 133.06 128.702C133.345 129.184 133.341 129.806 133.125 130.323C132.91 130.84 132.503 131.258 131.959 131.67C129.514 133.57 126.977 134.864 123.751 135.274Z" fill="#475196"/>
<path d="M145.399 117.315C145.399 117.315 143.101 116.51 141.651 117.396C140.106 118.34 138.841 120.522 137.051 120.758C135.839 120.917 133.818 119.965 132.596 119.939C131.047 119.906 129.491 120.365 128.202 121.235C127.46 121.735 126.777 122.417 126.56 123.292C126.275 124.44 126.558 125.646 127.447 126.357C126.995 125.328 127.442 124.447 128.304 123.845C129.166 123.244 130.265 123.135 131.31 123.075C133.391 122.955 135.217 122.906 137.282 122.624C139.348 122.341 141.73 121.367 143.414 120.123C145.123 118.86 145.399 117.315 145.399 117.315Z" fill="#1D273D"/>
<path d="M121.731 141.53C123.417 140.97 125.771 140.909 126.891 142.556C129.151 145.879 129.215 150.19 129.633 154.202C130.177 154.268 130.748 154.227 130.966 153.741C131.202 153.213 130.966 152.372 130.885 151.798C129.686 143.276 129.684 141.473 129.187 140.641C129.009 140.344 124.87 139.704 122.929 139.299C122.552 139.22 121.632 138.778 121.168 139.193C120.95 139.389 120.775 139.832 121.232 140.34C121.598 140.747 121.605 140.839 121.731 141.53Z" fill="#1D273D"/>
<path d="M121.709 141.971C121.649 142.409 121.776 143.011 121.967 143.408C122.599 144.717 123.787 143.917 124.798 144.015C125.352 144.068 125.938 144.288 126.316 144.86C127.419 146.525 126.59 149.493 127.288 151.842C127.561 152.76 128.935 154.105 128.935 154.105C128.935 154.105 127.348 153.826 126.341 152.321C125.838 151.57 125.582 150.653 125.572 149.668C125.568 149.217 125.7 147.859 125.695 147.56C125.687 147.12 125.47 146.157 125.079 146.006C123.887 145.544 122.946 146.343 121.814 145.619C121.332 145.312 121.263 144.893 121.239 144.547C121.198 143.94 121.343 142.995 121.709 141.971Z" fill="#475196"/>
<path d="M112.646 124.886C112.646 124.886 112.476 122.946 115.916 123.121C117.099 123.182 117.716 122.062 117.415 121.445C116.733 120.042 114.971 120.158 113.432 120.3C111.893 120.441 110.446 121.229 109.375 122.356C108.935 122.818 108.552 123.338 108.079 123.765C107.605 124.193 107.012 124.531 106.377 124.528C105.773 124.524 105.219 124.218 104.648 124.019C103.114 123.486 100.648 124.645 100.648 124.645C100.648 124.645 102.105 124.763 102.813 125.367C103.522 125.972 103.773 126.604 104.415 127.28C105.058 127.955 106.148 128.524 107.313 128.174C107.964 127.978 108.475 127.233 108.812 126.636C109.15 126.04 110.27 124.3 111.092 124.076C112.132 123.793 112.646 124.886 112.646 124.886Z" fill="#1D273D"/>
<path d="M115.027 114.898C114.856 115.973 113.956 116.717 112.885 116.817C111.815 116.918 110.756 116.596 109.692 116.434C107.231 116.059 103.891 115.888 101.897 117.396C99.9029 118.903 98.5055 120.587 99.8013 124.602C98.9281 124.683 97.8484 124.215 97.3324 123.497C96.8163 122.78 96.4376 122.139 96.4375 121.251C96.4373 118.926 97.9481 116.455 99.8112 115.094C101.674 113.734 103.34 113.25 105.637 113.25C107.666 113.25 110.081 114.297 112.116 114.77C112.859 114.943 114.331 115.104 115.027 114.898Z" fill="#475196"/>
<path d="M121.375 114.894C121.427 115.445 121.197 115.976 120.809 116.368C120.421 116.759 119.911 117.006 119.389 117.172C118.648 117.407 117.839 117.49 117.097 117.259C116.356 117.028 115.696 116.446 115.499 115.686C115.424 115.398 115.598 114.791 115.598 114.791C115.598 114.791 116.199 114.609 116.884 114.879C117.308 115.046 118.247 115.804 119.153 115.751C120.059 115.699 120.544 115.371 121.375 114.894Z" fill="#1D273D"/>
<path d="M156.148 58.6146C156.037 59.1606 155.926 59.7066 155.818 60.253C155.815 60.2434 155.812 60.2338 155.813 60.2182C157.428 60.8023 157.442 61.1547 157.253 61.7542C157.022 62.4809 155.357 62.325 155.357 62.325L155.32 62.7775C155.32 62.7775 156.502 62.9385 156.277 63.9776C156.129 64.6608 154.855 64.5039 154.855 64.5039C154.855 64.5039 154.803 65.2956 154.447 65.443C153.879 65.6777 153.73 65.5129 151.855 65.1359C151.501 65.0648 149.421 64.6536 149.224 64.3478C148.961 63.939 149.311 63.0099 149.311 63.0099C149.311 63.0099 147.915 62.5168 148.137 61.567C148.327 60.755 149.695 60.9691 149.695 60.9691L149.8 60.3802C149.8 60.3802 148.101 59.9974 148.399 58.8693C148.655 57.9001 150.094 58.3961 150.094 58.3961L150.347 57.1245C150.347 57.1245 154.668 58.5381 156.148 58.6146Z" fill="#D9D9D9"/>
<path d="M156.108 58.8104C155.768 58.8505 154.743 58.7537 154.743 58.7537L154.668 59.2552C154.668 59.2552 152.401 58.8819 151.297 58.4309C151.168 58.3783 151.035 58.3226 150.896 58.3286C150.758 58.3346 150.612 58.4223 150.587 58.5604C150.561 58.6986 150.727 58.8059 150.886 58.8586C152.56 59.4137 154.127 59.9687 155.812 60.2181C155.93 59.7469 155.977 59.3322 156.108 58.8104Z" fill="#B6B6B6"/>
<path d="M149.8 60.3804C149.8 60.3804 152.781 61.8124 155.358 62.3251C155.307 62.4944 155.358 62.6047 155.321 62.7776C152.337 62.184 149.695 60.9692 149.695 60.9692L149.8 60.3804Z" fill="#B6B6B6"/>
<path d="M149.316 63.0093C151.117 63.6985 152.959 64.1726 154.856 64.504C154.885 64.8701 154.759 65.3781 154.439 65.5518C153.972 65.8057 152.254 65.2183 152.254 65.2183C152.254 65.2183 152.404 64.6107 152.156 64.4095C151.733 64.0664 150.784 63.9154 150.295 63.69C149.795 63.4595 149.74 63.3876 149.316 63.0093Z" fill="#B6B6B6"/>
<path d="M157.29 56.574C156.913 57.1242 156.718 57.6605 156.504 58.2937C156.454 58.4421 156.4 58.5971 156.286 58.7032C156.121 58.8559 155.877 58.8699 155.653 58.8695C153.503 58.8654 150.794 58.1474 150.262 57.4C149.911 56.9083 150.218 56.2429 150.166 55.5285C149.984 52.9959 148.658 50.6883 148.101 48.2123C145.926 38.5389 152.584 36.0296 156.098 36.304C164.092 36.9282 165.315 45.2975 163.021 49.1952C161.319 52.0878 159.348 53.5649 157.29 56.574Z" fill="#7946C6"/>
<path d="M162.719 27.5769C161.832 27.0987 159.372 31.1837 160.258 31.9662C161.197 32.7971 163.609 28.057 162.719 27.5769Z" fill="#7946C6"/>
<path d="M153.798 26.3868C153.023 26.5536 153.284 30.9976 154.276 30.9462C155.265 30.895 154.67 26.199 153.798 26.3868Z" fill="#7946C6"/>
<path d="M140.65 32.6925C139.48 33.4543 143.036 35.8225 143.934 35.8063C144.212 35.8013 144.507 35.6289 144.56 35.3529C144.625 35.0107 144.314 34.7256 144.036 34.5194C143.357 34.0148 141.096 32.4019 140.65 32.6925Z" fill="#7946C6"/>
<path d="M138.553 49.2133C139.167 50.2816 144.578 48.3465 143.935 47.289C143.264 46.1831 137.94 48.1449 138.553 49.2133Z" fill="#7946C6"/>
<path d="M167.298 49.8031C166.721 50.9995 170.514 53.0408 171.016 52.0948C171.519 51.1487 167.521 49.3417 167.298 49.8031Z" fill="#7946C6"/>
<path d="M166.435 39.3743C166.097 39.4572 165.686 39.649 165.706 40.0001C165.726 40.3503 166.157 40.494 166.503 40.5213C167.97 40.6373 170.86 40.5472 170.714 39.459C170.57 38.386 167.716 39.06 166.435 39.3743Z" fill="#7946C6"/>
<path d="M153.826 58.3968C153.807 58.3968 153.787 58.3944 153.767 58.3894C153.638 58.3564 153.56 58.2238 153.592 58.0932C153.934 56.7253 154.226 55.4283 154.509 54.174C154.793 52.917 155.086 51.6173 155.428 50.2441C155.674 49.2585 155.923 48.2588 156.23 47.2767C155.682 47.3418 155.131 47.3508 154.587 47.3023C154.252 50.4099 153.389 53.9506 152.594 57.2106L152.459 57.7636C152.427 57.8944 152.297 57.9743 152.168 57.9421C152.038 57.9099 151.959 57.7777 151.991 57.6469L152.126 57.0937C152.918 53.8461 153.778 50.3171 154.109 47.2444C154.022 47.2311 153.935 47.2162 153.848 47.1998C152.926 47.0251 152.057 46.566 151.265 45.8352C150.476 45.1073 150.211 44.1493 150.496 43.0648C150.658 42.4512 150.998 41.8164 151.455 41.2775C151.871 40.7856 152.326 40.4458 152.671 40.3683C153.04 40.2855 153.367 40.3391 153.643 40.5274C154.273 40.9575 154.439 41.9546 154.537 42.5503C154.546 42.6022 154.554 42.6502 154.561 42.6934C154.773 43.8934 154.773 45.2973 154.635 46.8168C155.218 46.8684 155.81 46.8496 156.397 46.7626C156.8 45.5674 157.304 44.407 158.009 43.3389C158.755 42.2073 159.468 42.0697 159.934 42.1534C160.561 42.2661 161.012 42.8412 161.134 43.3511C161.396 44.448 160.725 45.5218 159.293 46.2973C158.488 46.7332 157.632 47.0348 156.763 47.1958C156.425 48.2392 156.159 49.3095 155.896 50.3635C155.555 51.7313 155.262 53.0283 154.979 54.2826C154.695 55.5396 154.402 56.8393 154.06 58.2125C154.032 58.3231 153.934 58.3968 153.826 58.3968ZM152.995 40.8186C152.926 40.8186 152.853 40.8273 152.776 40.8446C152.34 40.9425 151.294 41.9322 150.962 43.1906C150.722 44.1005 150.933 44.869 151.59 45.4747C152.314 46.1434 153.104 46.5625 153.937 46.7202C154.01 46.7341 154.084 46.7468 154.157 46.7583C154.29 45.286 154.29 43.9308 154.087 42.779C154.079 42.7343 154.071 42.6847 154.062 42.631C153.982 42.1466 153.832 41.2449 153.373 40.9318C153.263 40.8562 153.137 40.8186 152.995 40.8186ZM159.709 42.6213C159.285 42.6213 158.838 42.9597 158.409 43.6099C157.784 44.5586 157.319 45.592 156.943 46.6619C157.671 46.5007 158.387 46.2344 159.065 45.8671C159.644 45.5538 160.959 44.6925 160.665 43.4657C160.583 43.1186 160.268 42.709 159.849 42.6338C159.803 42.6254 159.756 42.6213 159.709 42.6213Z" fill="#453075"/>
<path opacity="0.6" d="M159.828 38.1281C158.662 37.4557 157.098 37.7204 156.306 38.8169C155.514 39.9134 155.461 41.3962 155.711 42.7306C156.353 46.167 159.056 49.6282 161.42 49.076C163.471 48.597 163.685 46.1115 163.592 44.867C163.413 42.4722 161.971 39.3643 159.828 38.1281Z" fill="#947EC6"/>
<path opacity="0.6" d="M155.461 46.2046C154.389 45.8134 153.308 47.1327 152.966 48.2336C152.464 49.8495 152.198 51.5714 154.896 53.5569C155.423 53.9444 157.248 54.1308 157.58 53.5636C159.226 50.7429 157.892 47.0908 155.461 46.2046Z" fill="#947EC6"/>
<path d="M136.261 71.3911C136.449 71.7486 136.636 72.1062 136.826 72.4629C136.82 72.459 136.814 72.4551 136.807 72.4457C138.01 71.9738 138.181 72.1622 138.348 72.5882C138.551 73.1048 137.516 73.8389 137.516 73.8389L137.704 74.108C137.704 74.108 138.462 73.6148 138.811 74.3021C139.041 74.7539 138.232 75.2948 138.232 75.2948C138.232 75.2948 138.568 75.7596 138.43 76.017C138.21 76.4268 138.048 76.4089 136.79 77.1241C136.553 77.259 135.16 78.0561 134.905 77.9836C134.564 77.8867 134.338 77.199 134.338 77.199C134.338 77.199 133.303 77.6132 132.993 76.9771C132.728 76.4332 133.617 75.8778 133.617 75.8778L133.406 75.4995C133.406 75.4995 132.247 76.1245 131.899 75.3519C131.6 74.6881 132.66 74.2538 132.66 74.2538L132.219 73.4241C132.219 73.4241 135.369 72.0786 136.261 71.3911Z" fill="#D9D9D9"/>
<path d="M136.328 71.519C136.15 71.7085 135.512 72.1603 135.512 72.1603L135.701 72.4754C135.701 72.4754 134.218 73.3857 133.371 73.6799C133.273 73.7141 133.17 73.7488 133.093 73.8204C133.015 73.8921 132.972 74.0127 133.021 74.1017C133.07 74.1906 133.216 74.1684 133.332 74.1193C134.556 73.6021 135.717 73.138 136.807 72.4454C136.657 72.1258 136.493 71.8729 136.328 71.519Z" fill="#B6B6B6"/>
<path d="M133.406 75.4994C133.406 75.4994 135.79 74.8246 137.516 73.8389C137.565 73.958 137.645 73.994 137.704 74.108C135.705 75.2494 133.617 75.8777 133.617 75.8777L133.406 75.4994Z" fill="#B6B6B6"/>
<path d="M134.34 77.1955C135.699 76.6904 136.982 76.0455 138.232 75.2944C138.418 75.4827 138.579 75.8267 138.475 76.0807C138.322 76.4518 137.058 76.9727 137.058 76.9727C137.058 76.9727 136.864 76.5619 136.628 76.5726C136.225 76.5907 135.606 76.9748 135.22 77.0908C134.824 77.2093 134.76 77.1963 134.34 77.1955Z" fill="#B6B6B6"/>
<path d="M135.979 69.6962C136.016 70.1869 136.151 70.5806 136.319 71.0372C136.359 71.1443 136.399 71.257 136.382 71.3721C136.358 71.5378 136.223 71.6662 136.093 71.7759C134.849 72.8335 132.952 73.7703 132.299 73.6182C131.869 73.5182 131.739 72.9982 131.379 72.6273C130.105 71.3124 128.273 70.6863 126.808 69.5874C121.085 65.2941 123.774 60.6211 125.932 59.0414C130.841 55.4476 135.412 59.4866 135.885 62.7789C136.237 65.2222 135.78 67.0126 135.979 69.6962Z" fill="#7946C6"/>
<path d="M128.542 51.6207C127.71 51.8773 127.898 55.5908 128.87 55.5038C129.902 55.4114 129.379 51.363 128.542 51.6207Z" fill="#7946C6"/>
<path d="M118.996 55.6102C118.517 56.3452 122.01 59.4707 122.745 58.6503C123.476 57.8334 119.536 54.7827 118.996 55.6102Z" fill="#7946C6"/>
<path d="M117.772 69.1644C117.662 70.2691 120.821 69.1234 121.248 68.5439C121.381 68.3648 121.421 68.0951 121.28 67.9314C121.105 67.7285 120.782 67.7917 120.523 67.8711C119.888 68.0654 117.815 68.7431 117.772 69.1644Z" fill="#7946C6"/>
<path d="M123.014 74.1431C123.738 74.433 125.425 71.3516 124.693 71.0784C123.927 70.7926 122.291 73.8532 123.014 74.1431Z" fill="#7946C6"/>
<path d="M137.888 63.201C137.748 64.2157 139.696 64.2149 140.733 64.306C140.991 64.3288 141.311 64.3014 141.43 64.0723C141.566 63.8104 140.607 63.225 140.319 63.1597C139.047 62.872 137.947 62.7732 137.888 63.201Z" fill="#7946C6"/>
<path d="M136.365 56.6419C136.189 56.7988 136.004 57.0434 136.124 57.244C136.245 57.4439 136.546 57.3908 136.76 57.2964C137.669 56.8956 139.36 55.9185 138.936 55.3239C138.519 54.7376 137.03 56.0471 136.365 56.6419Z" fill="#7946C6"/>
<path d="M133.574 73.0637C133.484 73.0637 133.398 73.0128 133.357 72.9256L133.179 72.5523C132.149 70.3844 131.03 68.0304 129.819 66.1763C129.779 66.2013 129.738 66.2257 129.697 66.2497C129.074 66.6126 128.35 66.7886 127.544 66.7735C126.74 66.7582 126.129 66.3566 125.777 65.6121C125.574 65.1807 125.469 64.643 125.482 64.0981C125.493 63.5992 125.604 63.1666 125.777 62.9408C125.965 62.6959 126.197 62.557 126.466 62.528C127.05 62.4651 127.613 62.9423 127.949 63.2274C127.978 63.2518 128.005 63.2743 128.029 63.2944C128.696 63.8486 129.336 64.6116 129.95 65.5032C130.28 65.2611 130.586 64.9821 130.864 64.6721C130.551 63.8172 130.307 62.9229 130.222 62.0001C130.128 60.9646 130.497 60.5216 130.824 60.3324C131.279 60.0692 131.819 60.1917 132.128 60.4169C132.815 60.9172 132.932 61.8733 132.449 63.0402C132.188 63.6729 131.837 64.2572 131.415 64.7725C131.698 65.503 132.032 66.215 132.361 66.9162C132.795 67.8421 133.224 68.7052 133.64 69.54C134.056 70.3774 134.487 71.2432 134.924 72.1744C134.981 72.2961 134.929 72.4416 134.809 72.4994C134.689 72.5571 134.545 72.5052 134.488 72.3835C134.054 71.4575 133.624 70.5943 133.209 69.7594C132.793 68.9222 132.362 68.0564 131.925 67.1253C131.635 66.5067 131.33 65.855 131.057 65.1758C130.798 65.4447 130.518 65.6897 130.22 65.9072C131.451 67.7919 132.577 70.1594 133.614 72.3408L133.791 72.7139C133.849 72.8353 133.798 72.981 133.678 73.0395C133.645 73.0559 133.609 73.0637 133.574 73.0637ZM126.572 63.0103C126.553 63.0103 126.535 63.0112 126.517 63.0132C126.382 63.0278 126.264 63.1021 126.158 63.2404C125.948 63.5137 125.829 64.589 126.212 65.4019C126.484 65.9766 126.935 66.274 127.553 66.2857C128.271 66.2992 128.911 66.1449 129.456 65.8269C129.487 65.8089 129.518 65.7906 129.548 65.772C128.961 64.9198 128.353 64.1944 127.723 63.6716C127.698 63.6505 127.67 63.6269 127.64 63.6013C127.393 63.3918 126.943 63.0103 126.572 63.0103ZM131.392 60.6725C131.279 60.6725 131.165 60.6973 131.064 60.7559C130.775 60.9229 130.647 61.3488 130.702 61.9552C130.774 62.7416 130.965 63.4998 131.219 64.2375C131.533 63.816 131.798 63.35 132.005 62.8518C132.188 62.4073 132.541 61.3189 131.846 60.8129C131.732 60.7298 131.564 60.6725 131.392 60.6725Z" fill="#453075"/>
<path opacity="0.6" d="M128.929 58.2153C127.945 58.4169 127.163 59.3348 127.211 60.3332C127.26 61.3315 127.914 62.1799 128.674 62.7972C130.632 64.3865 133.792 64.9738 134.904 63.5025C135.868 62.2259 134.844 60.7418 134.216 60.0974C133.007 58.8574 130.739 57.8445 128.929 58.2153Z" fill="#947EC6"/>
<path opacity="0.6" d="M130.135 64.8467C129.334 65.1585 129.318 66.4229 129.629 67.202C130.085 68.3456 130.726 69.4316 133.202 69.2032C133.686 69.1586 134.827 68.3621 134.757 67.8843C134.406 65.5083 131.949 64.1403 130.135 64.8467Z" fill="#947EC6"/>
<path d="M195.269 94.4106L197.883 94.4335L197.5 98.3339L194.818 98.3111L195.269 94.4106Z" fill="#924C13"/>
<path d="M193.391 112.871L196.11 112.886C196.11 112.886 196.402 107.076 196.591 105.146C196.758 103.436 197.5 98.3338 197.5 98.3338L194.818 98.311C194.818 98.311 194.157 103.476 193.901 105.192C193.571 107.412 193.391 112.871 193.391 112.871Z" fill="#EA9C47"/>
<path d="M193.33 116.302C193.33 116.302 193.69 116.216 194.186 116.399C194.682 116.581 194.697 116.688 194.697 116.688L195.944 116.673C195.944 116.673 195.959 115.167 195.959 114.498C195.959 113.829 196.109 112.886 196.109 112.886L193.39 112.871L193.33 116.302Z" fill="#924C13"/>
<path d="M196.08 120.109L198.228 120.125C198.228 120.125 197.404 119.258 196.786 118.513C196.08 117.661 195.944 116.673 195.944 116.673L194.697 116.688C194.697 116.688 195.097 116.849 195.373 118.102C195.659 119.395 196.08 120.109 196.08 120.109Z" fill="#FCCA95"/>
<path d="M183.834 131.052C183.834 131.052 184.018 131.075 184.736 131.043C185.412 131.012 186.317 130.912 186.317 130.912C186.317 130.912 186.103 132.487 186.84 133.278C187.576 134.069 188.439 134.739 189.003 134.631C189.568 134.524 189.634 134.479 190.085 133.978C190.536 133.476 197.958 124.641 197.958 124.641C197.958 124.641 198.784 123.546 198.454 122.938C198.123 122.33 197.342 121.843 196.906 121.28C196.47 120.718 196.08 120.109 196.08 120.109L198.228 120.125C198.228 120.125 199.052 121.115 199.596 121.752C200.166 122.421 201.008 123.227 200.497 124.428C199.986 125.629 191.783 134.89 191.783 134.89C191.783 134.89 190.521 136.532 188.958 136.319C187.396 136.106 185.833 134.327 185.653 133.765C185.472 133.202 185.442 131.879 185.442 131.879C185.442 131.879 185.247 131.955 184.631 131.788C184.015 131.621 183.834 131.052 183.834 131.052Z" fill="#EA9C47"/>
<path d="M199.348 94.4336L199.85 94.4447C199.85 94.4447 204.193 94.4336 207.326 94.9126C210.458 95.3916 212.135 96.1598 212.135 96.1598C212.135 96.1598 213.185 97.4901 214.808 98.1744C216.431 98.8586 217.129 98.6762 217.129 98.6762C217.129 98.6762 218.177 100.934 218.087 102.166C217.997 103.398 217.907 104.926 218.222 105.565C218.538 106.203 219.259 107.423 219.586 107.914C219.98 108.507 219.991 109.374 220.42 109.123C220.848 108.872 221.024 107.304 221.024 107.304L221.321 108.302C221.321 108.302 221.22 109.978 220.499 111.393C219.777 112.807 219.27 113.251 219.27 113.251C219.27 113.251 218.729 112.887 218.482 111.176C218.234 109.465 218.504 108.507 217.557 107.481C216.611 106.454 216.228 105.291 216.138 104.15C216.048 103.01 215.709 100.273 215.709 100.273C215.709 100.273 214.898 100.227 213.028 99.3377C211.157 98.4481 211.044 97.4673 210.481 97.2392C209.917 97.0111 202.548 96.0075 201.038 95.8022C199.528 95.5969 199.348 94.4336 199.348 94.4336Z" fill="#924C13"/>
<path d="M121.088 110.075L121.223 111.679C121.223 111.679 121.325 111.662 121.435 111.755C121.501 111.811 121.663 112.704 121.663 112.704L123.692 112.719C123.692 112.719 123.031 111.974 123 111.548C122.97 111.123 123.857 110.697 124.263 110.301C124.668 109.906 125.224 108.994 125.224 108.994C125.224 108.994 124.157 110.453 122.85 110.408C121.543 110.362 121.088 110.075 121.088 110.075Z" fill="#AF6A1D"/>
<path d="M125.234 115.464L123.69 112.719L121.662 112.704L122.026 114.681C122.026 114.681 122.924 114.81 123.33 114.977C123.736 115.145 124.186 115.366 124.532 115.411C124.945 115.464 125.234 115.464 125.234 115.464Z" fill="#924C13"/>
<path d="M145.169 94.1826C145.169 94.1826 145.417 94.5704 145.282 94.9125C145.147 95.2547 145.078 95.5051 145.078 95.5051C145.078 95.5051 145.71 96.1214 145.552 96.6917C145.395 97.2619 144.777 97.8692 144.777 97.8692L144.803 98.0374L146.674 98.0659C146.674 98.0659 147.13 97.1935 146.927 96.2811C146.724 95.3687 146.409 95.209 146.409 95.209C146.409 95.209 146.702 94.8669 146.724 94.616C146.747 94.3651 146.657 94.1826 146.657 94.1826H145.169Z" fill="#924C13"/>
<path d="M142.037 112.75L145.959 112.772C145.959 112.772 147.581 113.799 148.122 114.962C148.663 116.125 148.505 116.832 148.505 116.832L145.463 116.844C145.463 116.844 145.53 115.137 144.381 114.232C142.94 113.097 142.037 112.75 142.037 112.75Z" fill="#924C13"/>
<path d="M142.847 101.733C142.847 101.733 142.779 103.945 142.757 104.356C142.734 104.766 142.374 108.085 141.9 109.351C141.461 110.525 140.986 112.249 140.986 112.249L142.036 112.75L145.957 112.773C145.957 112.773 144.65 111.883 144.379 110.948C144.109 110.013 145.056 107.435 145.101 106.067C145.146 104.698 144.718 102.485 145.168 101.322C145.619 100.159 146.273 99.2465 146.408 98.8587C146.543 98.471 146.673 98.0661 146.673 98.0661L144.802 98.0376C144.881 98.8473 144.498 99.7027 144.008 100.069C143.416 100.51 143.354 100.507 143.129 100.803C142.903 101.1 142.847 101.733 142.847 101.733Z" fill="#AF6A1D"/>
<path d="M129.866 141.056C129.866 141.056 137.956 139.209 139.669 138.73C141.382 138.251 143.816 137.703 144.469 136.266C145.123 134.829 144.177 133.598 142.937 132.822C141.697 132.046 138.587 130.929 136.829 130.769C135.072 130.609 133.021 130.495 133.021 130.495C133.021 130.495 133.764 129.446 132.773 128.283C131.781 127.12 130.312 127.772 129.097 127.56C127.882 127.348 126.801 125.979 127.274 125.044C127.747 124.109 128.04 123.402 130.992 123.06C133.945 122.717 136.92 123.06 140.12 121.873C143.32 120.687 144.552 119.143 144.92 118.475C145.461 117.494 145.461 116.844 145.461 116.844L148.504 116.833C148.504 116.833 147.751 119.506 147.084 120.687C146.182 122.284 143.771 124.018 141.089 124.542C139.382 124.876 134.441 125.158 133.922 125.614C133.404 126.07 134.395 126.298 134.779 127.051C135.162 127.804 135.229 128.671 135.229 128.671C135.229 128.671 140.418 128.909 144.379 130.838C147.332 132.275 148.706 135.742 146.768 137.703C144.83 139.665 135.838 141.102 135.838 141.102L129.866 141.056Z" fill="#EA9C47"/>
<path d="M129.911 144.66L133.584 144.694C133.584 144.694 132.886 142.767 132.998 142.128C133.111 141.49 134.576 141.17 134.576 141.17L129.393 141.147L129.911 144.66Z" fill="#AF6A1D"/>
<path d="M130.814 153.978C130.814 153.978 131.102 153.619 131.016 152.894C130.915 152.039 129.912 144.66 129.912 144.66L133.586 144.694C133.586 144.694 134.735 148.082 134.239 150.659C133.743 153.237 130.814 153.978 130.814 153.978Z" fill="#EA9C47"/>
</svg>
