<svg width="273" height="205" viewBox="0 0 273 205" fill="none" xmlns="http://www.w3.org/2000/svg">
<path d="M215.037 157.323C210.886 163.486 201.652 169.453 194.224 169.224C186.796 168.995 182.534 163.039 174.78 163.039C170.713 163.039 159.04 164.623 154.123 159.108C147.543 151.728 148.882 142.142 143.505 137.637C135.657 131.063 124.257 139.972 121.145 142.695C106.864 155.197 86.0167 162.108 78.5814 152.103C71.7516 142.912 82.0999 130.487 83.6693 121.524C85.0701 113.525 81.3246 104.86 74.5381 100.399C66.1879 94.9106 35.8861 91.5109 48.7457 69.6116C55.7392 57.7019 77.8172 49.3412 98.4604 54.5407C110.91 57.6764 122.63 65.3312 135.425 64.2708C152.693 62.8395 164.085 49.4975 176.673 42.219C184.827 37.5039 194.78 37.3997 204.187 37.892C213.593 38.3843 223.154 43.004 227.737 51.2334C232.32 59.4628 229.803 73.6787 220.513 79.843C200.095 93.3905 201.582 102.861 205.482 107.448C228.021 133.949 223.235 145.152 215.037 157.323Z" fill="#F1DFC5"/>
<path d="M173.536 72.208C177.391 81.3853 178.747 91.5977 177.535 101.357C182.752 98.6807 187.968 96.0047 193.185 93.3286C194.385 92.7131 195.63 92.0603 196.425 90.9717C197.666 89.2751 197.522 86.9669 197.269 84.8806C196.501 78.5621 195.224 72.3056 193.453 66.1919C193.296 65.6494 193.06 65.0292 192.519 64.8675C192.14 64.7544 191.739 64.9123 191.376 65.0675C185.855 67.4243 180.334 69.7812 173.536 72.208Z" fill="#E8EAEB"/>
<path d="M194.013 68.1927C194.106 67.9495 193.396 65.1108 192.518 64.8675C191.062 64.4642 187.272 67.0835 176.725 71.0408C176.508 71.5212 176.836 71.8007 177.354 71.9012C177.871 72.0017 180.533 70.8741 181.016 70.6623C185.513 68.6902 189.114 70.441 194.013 68.1927Z" fill="#B6B6B6"/>
<path d="M173.536 72.2083C173.625 72.1652 174.679 71.7401 175.118 71.6367C175.267 71.8312 177.558 74.4578 178.365 76.2259C180.913 81.8146 178.872 88.1766 180.987 91.6585C183.626 96.0009 191.837 94.0204 191.837 94.0204L177.535 101.357C177.535 101.357 177.454 86.3278 177.322 85.7701C174.798 75.1198 173.765 72.7028 173.536 72.2083Z" fill="#B6B6B6"/>
<path d="M71.8805 101.22L157.941 77.2812C157.941 77.2812 180.54 79.5662 181.011 81.1985C181.345 82.361 164.73 97.0817 164.73 97.0817L78.0069 119.226L70.0989 115.345L68.2129 108.665L71.8805 101.22Z" fill="#7946C6"/>
<path d="M98.2707 99.6768C97.9571 99.73 92.2097 101.464 91.9679 101.547C90.5537 105.298 89.2332 107.333 86.1074 109.851C86.4342 109.816 91.7336 108.163 92.0191 108.114C96.6441 104.802 96.428 103.696 98.2707 99.6768Z" fill="#453075"/>
<path d="M70.0996 115.345L91.4695 108.665C91.4695 108.665 80.6533 117.166 75.936 119.754C75.6919 119.603 70.0996 115.345 70.0996 115.345Z" fill="#453075"/>
<path d="M113.295 95.3022L120.192 93.5933C120.192 93.5933 118.739 95.8511 118.739 97.8729C118.739 99.1267 115.487 97.2035 113.777 97.1384C113.532 97.1291 113.295 95.3022 113.295 95.3022Z" fill="#453075"/>
<path d="M149.856 85.7695C149.856 85.7695 149.425 87.8845 148.77 88.4783C148.325 88.8826 147.989 88.715 147.938 89.3146C147.893 89.8531 147.527 90.7276 146.873 90.7276C146.351 90.7276 146.031 90.496 146.031 90.496C146.031 90.496 145.434 91.2998 144.521 90.6991C143.884 90.2796 143.617 88.8668 143.524 88.8802C142.358 89.0487 142.558 87.6254 142.558 87.6254L149.856 85.7695Z" fill="#453075"/>
<path d="M173.359 79.2186C168.14 78.1591 157.942 77.2812 157.942 77.2812L148.383 79.9402C148.383 79.9402 149.856 81.0879 149.856 85.7697C150.037 85.7355 155.59 84.3349 155.766 84.206C155.766 81.9138 156.227 79.377 156.855 79.377C157.113 79.377 155.258 85.4743 157.923 91.5976C161.967 91.0009 170.195 87.5404 172.66 84.4846C172.106 83.3578 172.026 82.3915 172.1 81.6084C172.174 80.8253 172.629 79.7158 173.359 79.2186Z" fill="#947EC6"/>
<path d="M71.8805 101.221L93.9767 95.0742C93.9767 95.0742 93.5673 98.5171 91.9672 101.547C91.8657 101.739 76.1372 106.197 68.2129 108.665C69.2236 106.339 71.8805 101.221 71.8805 101.221Z" fill="#947EC6"/>
<path d="M172.66 84.4846C173.279 84.9453 176.312 83.9058 177.035 83.6367C178.296 83.1675 180.3 81.185 180.413 80.7588C180.489 80.7613 180.971 81.0104 181.011 81.1986C181.186 82.0239 176.049 86.8891 175.787 86.946C174.518 87.2207 173.14 85.4753 172.66 84.4846Z" fill="#453075"/>
<path d="M157.923 91.5974C156.625 91.3883 121.476 100.28 121.476 100.28C121.476 100.28 124.927 101.637 125.688 101.77C126.738 101.954 126.539 106.633 127.168 107.493C127.797 108.353 140.293 103.621 140.293 103.621C140.293 103.621 164.449 97.4703 164.731 97.0815C161.806 96.3322 159.368 93.6213 157.923 91.5974Z" fill="#453075"/>
<path d="M142.589 87.6173L120.191 93.5934C120.191 93.5934 124.986 86.4999 131.893 84.5293C132.213 84.438 135.41 83.5488 135.41 83.5488C135.41 83.5488 137.322 84.3384 138.508 84.1519C139.694 83.9655 140.988 83.7434 141.981 84.3035C141.93 85.2131 142.589 87.6173 142.589 87.6173Z" fill="#947EC6"/>
<path d="M61.9339 150.651C60.3061 151.206 55.9809 152.676 55.9139 153.041C55.5811 154.858 56.9399 165.243 57.6393 167.036C57.8813 167.657 59.8828 167.63 60.5278 167.463C62.0261 167.076 62.8053 166.655 63.4224 165.236C63.8744 164.196 63.5932 162.991 63.2041 161.927C62.815 160.862 62.5231 160.374 62.5537 159.241C62.5844 158.107 62.976 156.999 64.15 156.71C63.2632 155.063 62.8903 152.351 61.9339 150.651Z" fill="#CCDCEE"/>
<path d="M54.9851 125.596C53.4043 125.257 48.9585 124.436 48.7302 124.697C47.5955 125.991 43.6224 135.251 43.3335 137.023C43.2335 137.637 44.8646 138.578 45.4654 138.755C46.8614 139.165 47.692 139.203 48.8671 138.363C49.7278 137.748 50.0744 136.648 50.267 135.609C50.4596 134.569 50.4563 134.038 51.0209 133.145C51.5854 132.252 53.307 131.403 54.3937 131.736C54.4618 129.99 54.9484 127.417 54.9851 125.596Z" fill="#CCDCEE"/>
<path d="M62.963 157.588C62.4981 158.391 62.4646 159.647 62.6785 160.456C62.8669 161.169 64.2599 163.635 63.3397 165.417C63.0179 166.04 62.6335 166.682 61.7901 167.037C61.001 166.039 60.6974 164.45 61.3098 163.336C61.5428 162.911 61.9017 162.511 61.9017 162.027C61.9017 160.487 61.1529 160.161 61.5415 158.904C61.7539 158.216 62.3735 157.678 62.963 157.588Z" fill="#E7F1FC"/>
<path d="M64.1119 156.736C63.7308 156.845 63.4393 157.052 63.15 157.323C62.8764 156.374 62.2759 155.459 61.4418 154.931C60.6078 154.402 59.451 154.327 58.6527 154.909C56.74 156.302 57.1139 164.104 60.1987 167.522C59.3665 167.623 57.8771 167.607 57.6282 167.169C57.0206 166.1 55.423 154.147 55.9135 153.041C56.0862 152.652 56.5248 152.536 56.9236 152.386C58.4055 151.829 59.8873 151.271 61.3691 150.714C62.2405 152.621 63.1119 154.529 64.1119 156.736Z" fill="#8AA0BC"/>
<path d="M53.2854 131.762C52.8873 131.835 52.7679 131.83 52.3683 132.048C52.1322 130.806 51.8526 129.636 51.9889 128.312C52.0402 127.815 51.8702 127.341 51.4379 127.089C50.9393 126.799 50.2829 126.915 49.802 127.234C48.0246 128.411 44.4299 136.858 44.414 137.552C44.4068 137.862 44.823 138.474 45.101 138.612C44.7401 138.495 43.0332 137.619 43.0332 137.24C43.0332 135.836 48.2097 125.025 48.7302 124.697C48.8764 124.605 49.2434 124.62 49.42 124.655C51.0178 124.968 52.1836 125.04 53.7814 125.354C53.2739 127.112 53.1998 129.39 53.2854 131.762Z" fill="#8AA0BC"/>
<path d="M52.1012 132.19C52.1012 132.19 51.0844 131.789 50.5993 132.042C50.1142 132.294 49.6838 132.696 49.4595 133.195C48.4605 135.416 48.464 135.005 47.2521 135.936C46.5622 136.467 45.9017 137.99 45.9023 138.875C47.3592 139.214 48.9734 139.181 49.886 136.986C50.1897 136.256 50.3772 135.182 50.4739 134.452C50.6937 132.794 52.1012 132.19 52.1012 132.19Z" fill="#E7F1FC"/>
<path d="M115.144 90.7981C114.039 100.282 111.189 107.142 106.572 114.717C101.583 122.903 96.3909 130.514 89.2876 137.705C82.1842 144.896 73.8438 150.84 63.6115 157.323C62.0544 152.894 59.5976 150.073 57.4305 146.169C65.2356 144.848 73.8407 139.741 79.6594 134.374C82.8903 131.394 89.3662 122.988 93.9797 116.649C83.9185 125.93 68.0019 131.562 53.2849 131.762C53.0661 127.747 53.1881 127.961 52.9601 123.947C52.8961 122.819 52.2724 119.451 52.2373 119.564C60.1782 122.791 68.3613 121.305 75.5447 118.427C82.728 115.549 91.0989 108.386 96.1637 102.535C101.716 96.1211 104.116 93.1145 108.355 86.6406C110.13 88.6226 112.056 90.0131 115.144 90.7981Z" fill="#292F73"/>
<path d="M97.0734 128.79C91.0408 130.491 86.1371 143.285 62.585 154.85C63.1502 156.091 63.4294 156.796 63.6115 157.323C63.6413 157.269 86.6226 144.044 97.0734 128.79Z" fill="#475196"/>
<path d="M109.589 88.8301C111.385 89.8049 113.22 90.0984 115.25 90.3289C115.158 90.7849 115.05 91.691 114.958 92.2539C113.277 91.9648 111.631 92.9122 111.066 94.5219C109.83 93.1928 109.256 91.276 109.589 88.8301Z" fill="#1D273D"/>
<path d="M98.618 99.6772C92.7276 106.406 85.464 113.48 78.4484 117.119C71.4949 120.726 60.5948 122.746 52.2373 119.564C52.7719 123.22 52.7137 125.794 53.1526 128.795C58.0426 127.742 63.2595 127.248 68.2616 127.249C70.4578 127.25 72.6635 127.353 74.8431 127.084C78.4822 126.634 81.8541 125.02 85.0628 123.245C89.8612 120.591 93.8593 116.705 93.898 116.725C95.4324 114.108 96.8999 111.362 98.4812 108.723C99.7905 110.035 101.272 111.244 103.031 111.828C104.79 112.412 106.876 112.272 108.306 111.093C106.285 110.679 102.563 108.719 101.486 106.959C100.475 105.308 98.618 99.6772 98.618 99.6772Z" fill="#1D273D"/>
<path d="M114.877 92.8179C114.153 93.3054 113.648 93.8603 113.238 94.631C112.828 95.4018 112.547 96.2332 112.268 97.0603C112.79 97.417 113.105 97.981 113.651 98.3327C114.212 96.7649 114.569 95.3144 114.877 92.8179Z" fill="#475196"/>
<path d="M92.0849 119.227C88.8121 123.477 81.0052 135.243 70.7379 140.965C67.2497 142.909 61.8928 145.206 57.2793 146.176C58.3576 147.871 59.5817 149.834 60.6978 151.466C72.6193 145.252 82.3445 136.927 89.986 125.866C91.1295 124.211 92.9772 121.105 92.0849 119.227Z" fill="#1D273D"/>
<path d="M128.909 106.221C129.283 106.12 129.658 106.019 129.927 105.838C131.189 104.176 132.45 102.515 133.711 100.854C133.883 100.627 134.074 100.388 134.347 100.307C134.724 100.195 135.137 100.447 135.323 100.795C135.508 101.142 135.513 101.557 135.473 101.949C135.363 103.014 134.043 105.084 134.043 105.084C134.043 105.084 138.1 104.137 140.186 103.701C139.496 105.035 138.958 106.093 137.997 107.248C137.037 108.402 135.799 109.375 134.351 109.774C132.003 110.423 129.301 109.537 127.168 110.715C127.478 109.184 128.056 107.709 128.909 106.221Z" fill="#F6E8D4"/>
<path d="M134.043 105.085C134.043 105.085 133.882 105.837 134.17 106.125C134.515 106.47 135.305 106.61 135.946 106.084C136.277 105.812 136.849 105.655 137.288 105.912C137.639 106.117 137.598 107.122 137.786 107.493C138.909 106.371 140.293 103.622 140.293 103.622L134.043 105.085Z" fill="#C4B29B"/>
<path d="M128.567 106.244C128.948 106.166 129.57 106.014 129.927 105.838C129.545 106.602 129.693 108.09 130.167 108.801C130.443 109.214 130.892 109.486 131.363 109.64C131.835 109.794 132.126 109.974 132.618 110.025C130.388 110.27 129.487 110.39 126.881 110.39" fill="#C4B29B"/>
<path d="M141.625 81.8203C138.987 82.7177 136.038 83.424 135.195 83.609C134.89 83.6757 133.932 83.5787 134.054 82.6954C134.123 82.1907 135.106 82.1606 135.5 81.8401C137.203 80.4525 137.879 79.9195 139.386 78.8787C140.912 77.8248 142.625 77.3124 144.408 77.8215C146.055 78.2915 147.379 79.5785 147.883 81.5592C148.305 83.2188 148.156 84.9756 147.886 87.2011C147.757 88.2618 147.097 87.9888 147.117 88.1081C147.117 88.5333 147.245 88.5573 146.99 89.603C146.933 89.8399 146.772 90.0679 146.537 90.1334C146.303 90.199 145.906 90.0184 145.838 89.797C145.749 90.0943 145.621 90.4061 145.244 90.3723C144.935 90.3446 144.631 89.9945 144.457 89.7375C144.276 89.4702 143.977 88.2889 143.945 88.1561C143.623 88.3168 143.029 88.1783 142.778 87.921C142.527 87.6638 142.4 87.3133 142.29 86.9711C141.761 85.321 141.704 83.4632 141.625 81.8203Z" fill="#F6E8D4"/>
<path d="M141.625 81.8199C141.625 81.8199 140.84 81.3535 140.464 81.1136C140.088 80.8737 139.63 80.7305 139.192 80.8168C138.807 80.8927 138.479 81.1338 138.165 81.3684C137.049 82.2015 136.576 82.7156 135.461 83.5487C138.513 82.9447 141.625 81.8199 141.625 81.8199Z" fill="#C4B29B"/>
<path d="M107.784 73.9865C112.784 73.612 117.786 72.2259 121.932 69.4058C126.078 66.5858 129.3 62.2393 130.184 57.3037C131.069 52.368 129.384 46.9089 125.48 43.7628C121.575 40.6168 115.495 40.2496 111.55 43.3448C109.856 44.6742 108.624 46.5078 106.997 47.9193C105.37 49.3308 103.047 50.3064 101.07 49.4503C98.7356 48.4388 98.063 45.5425 96.8919 43.2835C95.3603 40.3292 92.5779 38.1239 89.4638 36.9505C86.3498 35.7772 82.9254 35.5812 79.6252 36.0084C75.182 36.5836 70.6914 38.4275 67.9947 42.0054C65.298 45.5832 64.9509 51.1049 68.0146 54.374C70.8998 57.4526 75.6991 57.7363 79.8591 57.0319C81.8089 56.7018 84.2816 57.9532 86.1268 58.6646C88.1957 59.4622 90.0926 61.9635 91.1188 63.9291C92.6238 66.8116 92.978 67.632 95.1645 70.0389C97.3509 72.4458 100.468 74.2461 103.711 74.0018" fill="#282828"/>
<path d="M111.153 54.588C109.193 57.9117 105.122 59.5886 101.265 59.4852C97.4083 59.3817 93.7448 57.7504 90.4618 55.7231C88.1713 54.3086 85.908 52.6481 83.2498 52.2224C80.4914 51.7807 77.7303 52.7344 75.0037 53.3424C72.2772 53.9505 68.9266 54.1708 66.7119 52.4681C67.7948 54.7436 70.0132 56.2079 72.0994 56.8037C74.1857 57.3995 76.197 57.533 78.8075 57.1862C80.9582 56.9004 83.2206 57.4041 85.2005 58.2914C89.6053 60.2653 90.9013 64.9369 93.8487 68.7594C97.5118 73.5101 103.791 76.1052 109.553 74.8536C115.46 73.5705 121.513 70.6003 125.329 66.531C124.78 64.5294 125.207 62.239 126.094 60.363C121.18 60.7615 116.128 58.9886 111.153 54.588Z" fill="#0D0D0D"/>
<path d="M124.274 47.9718C124.274 47.9718 124.177 47.0534 123.373 47.5924C119.56 50.1481 115.106 50.9173 111.961 50.6255C113.084 51.1982 113.97 52.1152 113.7 52.9924C120.891 52.1792 124.274 47.9718 124.274 47.9718Z" fill="#0D0D0D"/>
<path d="M117.136 70.9707C119.097 70.803 120.784 71.8588 122.178 73.2472C125.544 76.5991 127.975 80.7372 129.091 85.3063C125.655 86.2379 122.1 87.2289 118.776 88.1756C118.56 87.6265 117.991 87.4744 117.412 87.5877C116.834 87.7011 116.246 88.0625 115.576 88.7325C117.612 83.1641 117.24 76.7222 116.777 72.0914C116.777 72.0703 117.108 71.0538 117.136 70.9707Z" fill="#EA9C47"/>
<path d="M117.046 75.4067C121.748 79.7663 124.414 86.6076 124.414 86.6076L118.776 88.1759C118.776 88.1759 118.675 87.2828 116.804 87.7983C116.341 87.9258 115.978 88.416 115.576 88.7328C116.054 86.8011 117.612 83.4075 117.046 75.4067Z" fill="#AF6A1D"/>
<path d="M128.961 84.799C128.213 84.6577 127.428 84.1562 126.947 83.5669C126.466 82.9776 126.121 82.2926 125.748 81.6294C124.626 79.6299 123.23 77.7845 121.61 76.1609C121.099 75.6485 120.55 75.1344 120.291 74.4588C120.032 73.7833 120.248 72.5481 120.865 72.127C124.807 74.8718 127.772 79.4278 128.961 84.799Z" fill="#FCCA95"/>
<path d="M112.008 71.3799C113.277 72.4723 115.573 72.5442 117.096 71.8465C118.158 76.7891 117.635 82.1859 116.3 87.0621C116.074 87.8866 115.831 88.83 116.3 89.5444C116.54 89.9095 116.953 90.1847 117.03 90.6147C117.112 91.0791 116.733 91.5277 116.287 91.6802C115.841 91.8328 115.351 91.7595 114.89 91.6622C112.211 91.0972 109.7 89.7562 107.74 87.8437C107.238 87.3534 106.752 86.7908 106.614 86.1025C106.446 85.2662 106.82 84.4281 107.159 83.6456C107.988 81.7353 108.664 79.7589 109.179 77.7412C109.785 75.3652 110.247 72.7798 112.008 71.3799Z" fill="#CCDCEE"/>
<path d="M116.007 72.0829C116.75 77.5104 114.066 82.9453 114.369 88.4153C114.414 89.2302 114.485 90.268 115.388 90.7404C116.111 91.1187 116.834 90.9351 116.834 90.1906C115.811 89.1673 116.029 88.473 116.13 88.0562C116.519 86.4488 116.914 84.5747 117.309 82.2363C118.093 77.5976 117.73 74.9502 117.096 71.8469C117.006 71.4058 116.459 71.8158 116.007 72.0829Z" fill="#E7F1FC"/>
<path d="M111.761 71.3799C112.642 71.6848 113.071 72.2253 114.003 72.2326C114.393 76.001 113.765 78.7687 112.449 82.3214C112.033 83.4449 110.838 85.486 110.704 86.6766C110.569 87.8671 111.701 90.0224 112.513 90.9408C110.386 90.1207 109.092 89.2253 108.261 87.9102" fill="#8AA0BC"/>
<path d="M111.067 69.9581C111.534 67.8373 112.952 62.4349 113.212 61.5757C112.423 60.2526 112.048 59.6181 111.562 57.6623C111.553 57.658 109.562 58.3412 108.894 55.6533C108.615 54.5327 108.777 53.3412 109.237 52.2819C109.533 51.5983 109.956 50.9205 110.623 50.5871C111.321 50.2377 112.227 50.3547 112.813 50.8704C113.4 51.386 113.882 52.2686 113.7 52.9928C118.472 52.4465 122.731 50.1635 124.912 47.1871C124.908 47.1964 124.903 47.2056 124.988 47.1675C126.812 49.7151 127.804 52.788 127.565 55.9119C127.326 59.0358 126.84 61.0045 125.143 63.6381C124.469 64.6843 123.332 66.0927 122.334 66.8366C121.093 67.7614 120.233 67.9507 118.348 66.5876C117.94 68.2866 117.602 69.5554 117.27 71.2053C117.201 71.5491 117.125 71.908 116.902 72.1791C116.632 72.508 115.27 72.6499 114.531 72.5495C112.666 72.2961 111.92 71.7827 111.067 69.9581Z" fill="#F6E8D4"/>
<path d="M118.348 66.5877C118.348 66.5877 115.692 65.0884 114.134 62.8037C113.8 64.0895 113.748 65.9553 114.658 67.0891C115.873 68.6032 117.804 68.8143 117.804 68.8143L118.348 66.5877Z" fill="#C4B29B"/>
<path d="M111.291 69.4734C113.367 71.483 112.847 74.8053 112.318 77.6461C111.789 80.4868 110.557 83.1472 108.949 85.637C109.754 87.5217 110.018 89.5868 110.588 91.555C111.159 93.5232 112.137 95.5112 113.897 96.5624C116.303 98.0004 119.63 97.3782 121.826 99.1197C122.486 99.643 122.995 100.35 123.705 100.803C124.487 101.303 125.439 101.449 126.294 101.811C128.072 102.566 129.375 104.337 129.565 106.259C129.756 108.181 128.826 110.173 127.231 111.262C125.725 112.29 123.803 112.493 121.982 112.406C120.162 112.32 118.351 111.977 116.53 112.041C114.104 112.126 111.728 112.931 109.302 112.841C105.034 112.684 101.207 109.65 99.3336 105.811C97.4602 101.973 97.4049 97.8066 98.1645 93.4796C94.5534 94.1227 91.6327 92.217 89.1477 90.1887C86.6627 88.1604 84.96 85.1971 84.4589 82.0288C84.1447 80.0419 84.3492 77.8392 85.6461 76.3015C86.2704 75.5612 87.2132 74.997 88.1713 75.1376C89.2678 75.2985 90.4334 75.7834 91.1603 76.6198C92.0695 77.6662 92.2761 78.129 93.6357 78.3993C94.7253 78.616 95.6536 78.4291 96.5401 77.7595C97.4266 77.0899 98.5057 76.1143 98.6361 75.0098C98.933 72.3074 100.852 70.6215 103.227 69.299C105.602 67.9765 109.196 67.446 111.291 69.4734Z" fill="#EA9C47"/>
<path d="M111.952 79.2136C111.314 79.1577 110.852 78.3872 110.664 77.7754C110.095 75.9274 110.29 73.2462 111.182 73.0224C112.248 72.7547 112.787 74.0068 112.787 74.0068C112.787 74.0068 112.73 76.2197 111.952 79.2136Z" fill="#FCCA95"/>
<path d="M95.347 78.3666C94.2282 78.6096 92.9423 78.3527 92.061 77.622C91.5418 77.1915 91.441 76.8776 90.9581 76.4068C90.4752 75.9361 89.5491 75.3548 88.6904 75.2373C89.0634 76.5213 90.0086 77.8845 91.1555 78.572C92.3023 79.2595 93.8974 79.3148 95.347 78.3666Z" fill="#FCCA95"/>
<path d="M108.151 80.6747C108.151 78.0809 111.754 78.9228 111.482 80.6613C111.379 81.3188 109.909 84.3315 109.11 85.3843C108.673 83.8739 108.151 81.0517 108.151 80.6747Z" fill="#AF6A1D"/>
<path d="M97.9962 94.5293C98.6858 98.2347 99.8432 101.442 101.734 103.904C103.625 106.365 106.877 107.171 109.977 107.012C111.932 106.912 113.812 106.02 115.767 106.125C117.463 106.216 119.021 107.045 120.511 107.86C122.002 108.674 123.553 109.511 125.248 109.621C126.944 109.73 129.006 108.515 129.59 106.939C129.671 109.226 128.798 110.849 127.286 111.752C125.774 112.655 123.926 112.795 122.168 112.69C120.41 112.584 118.661 112.258 116.901 112.319C115.147 112.38 113.424 112.787 111.675 112.926C106.149 113.364 102.566 110.97 99.9608 107.267C97.3553 103.563 96.6981 98.5856 97.9962 94.5293Z" fill="#AF6A1D"/>
<path d="M84.3379 80.0412C85.1849 81.8992 87.1671 83.2795 89.1592 83.7277C91.1513 84.1758 93.3404 83.641 94.9014 82.3247C96.4625 81.0085 97.3568 79.0628 97.3909 77.0495C98.545 75.8954 98.6179 75.1313 98.6179 75.1313C98.6179 75.1313 97.6937 87.216 98.0301 93.6092C98.0031 93.5596 93.8157 94.5084 88.9236 90.0013C85.3361 86.6962 84.1582 83.9812 84.3379 80.0412Z" fill="#AF6A1D"/>
<path d="M108.036 77.8198C108.835 78.0393 108.336 82.7498 109.502 87.2043C110.272 90.1464 111.159 94.0872 112.843 95.7395C114.308 97.1775 115.569 97.0672 117.596 97.3968C120.772 97.9136 121.463 98.8374 123.002 100.237C125.232 102.264 127.476 100.878 129.091 104.55C128.68 103.609 127.415 103.166 126.391 103.085C125.366 103.004 124.35 103.261 123.336 103.425C122.321 103.588 121.237 103.649 120.309 103.208C119.116 102.64 118.4 101.348 117.219 100.754C115.893 100.088 114.296 100.439 112.838 100.164C111.125 99.8408 108.796 98.6392 107.85 97.1748C106.903 95.7104 106.538 93.2514 106.204 91.5401C105.387 87.3512 106.188 77.3123 108.036 77.8198Z" fill="#FCCA95"/>
<path d="M200.957 138.392C202.471 138.143 203.677 137.043 204.98 136.234C206.284 135.425 208.059 134.916 209.287 135.837C209.88 136.281 210.221 136.978 210.522 137.655C211.617 140.12 212.47 142.693 213.065 145.325C213.342 146.555 213.56 147.862 213.159 149.058C212.717 150.376 211.594 151.343 210.447 152.13C207.045 154.461 202.976 155.805 198.856 155.958C196.645 150.204 197.309 143.425 200.957 138.392Z" fill="#E8EAEB"/>
<path d="M162.455 115.636C169.38 113.437 176.488 111.819 183.682 110.803C182.59 114.161 181.491 117.551 181.136 121.064C180.781 124.578 181.224 128.273 183.041 131.3C183.867 132.676 184.974 134.424 184.002 135.701C183.385 136.512 182.233 136.622 181.22 136.73C175.724 137.321 170.473 139.963 166.724 144.023C160.159 136.319 158.365 124.856 162.455 115.636Z" fill="#E8EAEB"/>
<path d="M209.617 94.6259C206.763 102.155 206.145 110.517 207.861 118.384C208.057 119.282 208.347 120.265 209.132 120.743C209.9 121.212 210.882 121.037 211.762 120.847C217.719 119.563 223.677 118.279 229.634 116.994C226.808 108.69 226.182 99.6467 227.701 91.0952C221.963 92.9764 215.968 94.0716 209.617 94.6259Z" fill="#E8EAEB"/>
<path d="M83.2855 35.8012C83.5311 36.0364 83.4979 36.4172 83.301 36.6945C83.1041 36.9718 82.7878 37.1357 82.4794 37.2791C81.0388 37.9487 79.5056 38.3945 78.0291 38.9809C76.5526 39.5673 75.1015 40.3177 74.0141 41.476C73.1636 42.382 72.5742 43.4952 71.9513 44.5705C71.3284 45.6459 70.6418 46.7197 69.6582 47.4791C68.6746 48.2386 67.0131 48.7173 65.8447 48.2938C65.8349 41.49 72.0208 38.2768 74.4273 37.3222C77.6247 36.0539 80.6168 35.6434 83.2855 35.8012Z" fill="#69686A"/>
<path d="M108.249 46.6981C108.102 49.074 105.992 51.2397 103.708 51.9104C101.424 52.5812 99.0561 51.848 97.648 49.9287C96.584 48.4785 96.2505 46.8471 95.708 45.1323C94.9267 42.6632 93.5982 40.5437 92.2158 38.3174C95.7796 40.379 96.4002 41.6762 97.6142 44.8363C98.9064 48.2003 100.674 49.6218 101.994 49.7185C105.237 49.9563 107.451 47.5509 108.249 46.6981Z" fill="#69686A"/>
<path d="M111.273 43.57C114.201 41.2009 117.428 40.3205 120.857 41.191C124.285 42.0615 127.508 44.8197 128.828 47.9499C126.551 47.7109 125.412 46.4228 124.614 44.2579C122.927 45.6711 120.073 45.8832 117.881 45.686C115.689 45.4889 113.83 44.8089 111.273 43.57Z" fill="#69686A"/>
<path d="M183.362 79.0798C183.894 78.011 185.306 79.3436 185.306 79.3436C185.306 79.3436 185.488 78.674 185.62 78.3534C185.74 78.0603 185.943 77.7383 186.268 77.7983C186.642 77.8673 186.673 78.3174 186.611 78.6818C186.529 79.1578 186.394 80.1373 186.394 80.1373C186.394 80.1373 187.329 80.9035 187.91 81.3178C188.152 81.4902 188.421 81.7146 188.406 82.0115C188.388 82.3533 187.974 82.5562 187.638 82.4916C187.302 82.4269 185.87 81.4497 185.87 81.4497C185.87 81.4497 185.651 82.5211 185.413 83.0111C185.272 83.3018 185.027 83.5986 184.726 83.47C184.445 83.3499 184.465 83.0013 184.524 82.6957C184.658 81.9926 184.887 80.7589 184.887 80.7589C184.887 80.7589 183.076 79.6544 183.362 79.0798Z" fill="#453075"/>
<path d="M179.81 84.5868C179.737 84.348 179.595 84.0451 179.808 83.9155C180.03 83.7804 180.282 84.0295 180.434 84.2405C184.524 89.9161 193.366 85.9506 191.438 78.6353C190.169 73.8257 184.085 72.6606 181.35 75.3961C180.473 76.2723 179.851 77.3869 179.493 78.5729C179.412 78.8396 179.269 79.1698 178.99 79.1609C178.809 79.1552 178.666 78.9859 178.631 78.8081C178.595 78.6302 178.628 77.944 178.696 77.7762C182.228 69.1308 192.218 73.3727 192.589 79.5383C193.213 89.9322 181.263 89.3594 179.81 84.5868Z" fill="#453075"/>
<path d="M209.617 94.6261C209.969 94.4716 211.296 94.4658 211.296 94.4658C211.296 94.4658 208.035 106.432 209.771 112.206C210.285 113.915 211.11 115.634 212.593 116.627C214.16 117.677 216.166 117.734 218.052 117.756C221.501 117.795 225.26 117.154 228.709 117.194C222.908 118.418 216.796 120.322 210.994 121.546C210.351 121.682 209.644 121.809 209.066 121.495C208.502 121.188 208.223 120.545 208.007 119.94C206.573 115.911 206.244 111.541 206.656 107.284C207.068 103.027 207.71 98.5517 209.617 94.6261Z" fill="#B6B6B6"/>
<path d="M218.494 94.881C220.84 95.0402 223.546 94.8159 225.986 93.9456C226.09 97.5876 227.019 103.874 227.019 103.874L227.7 91.0952C227.7 91.0952 224.74 92.0256 224.31 92.1087C221.785 92.5961 215.932 93.8699 215.932 93.8699C215.932 93.8699 216.245 94.7284 218.494 94.881Z" fill="#B6B6B6"/>
<path d="M200.957 138.392C199.852 141.854 199.02 143.809 198.414 147.392C197.916 150.341 198.986 152.599 201.577 153.606C203.554 154.375 205.783 154.285 207.814 153.673C203.609 155.788 200.027 155.963 200.027 155.963C200.027 155.963 200.022 156.198 199.993 156.311C199.911 156.627 199.46 156.713 199.181 156.543C198.902 156.373 198.76 156.05 198.647 155.743C197.388 152.32 196.392 148.794 198.755 142.517C199.045 141.747 200.017 138.82 200.957 138.392Z" fill="#B6B6B6"/>
<path d="M181.8 117.198C178.776 119.77 174.536 119.78 170.842 121.236C169.753 121.665 168.675 122.245 167.976 123.184C167.277 124.123 167.051 125.492 167.698 126.467C168.207 127.234 169.121 127.612 169.996 127.899C171.539 128.406 173.131 128.764 174.743 128.967C175.438 129.054 176.146 129.115 176.801 129.363C177.457 129.61 178.068 130.078 178.3 130.739C178.511 131.337 178.382 132.014 178.087 132.575C177.791 133.136 177.344 133.6 176.889 134.042C175.134 135.747 173.151 137.258 170.893 138.202C168.636 139.146 165.585 139.288 163.216 138.674C163.778 139.976 165.512 144.175 166.583 144.213C167.946 144.261 167.508 143.141 169.905 141.573C174.085 138.84 176.326 137.848 181.204 136.779C182.32 136.535 184.056 136.44 184.381 135.344C184.62 134.543 184.143 133.27 183.752 132.531C181.676 128.603 180.585 125.192 181.185 120.618" fill="#B6B6B6"/>
<path d="M183.104 112.596C176.173 114.151 169.19 115.345 162.156 116.341C162.327 115.935 162.424 115.381 162.839 115.236C163.259 115.088 169.719 113.34 176.42 111.83C176.753 111.755 183.368 110.47 183.69 110.583C184.012 110.697 183.554 111.758 183.104 112.596Z" fill="#B6B6B6"/>
<path d="M207.637 135.345C209.343 137.437 210.853 140.429 211.428 143.066C212.004 145.704 211.911 148.623 211.537 151.297C212.78 150.465 213.753 148.6 213.753 147.082C213.753 143.417 211.897 139.828 210.025 136.678C209.694 136.122 209.02 135.333 207.637 135.345Z" fill="#B6B6B6"/>
<path d="M220.303 113.306C219.633 112.746 218.524 112.831 217.939 113.48C217.354 114.129 217.38 115.232 217.986 115.861C218.592 116.489 219.684 116.559 220.372 116.021C221.06 115.482 221.426 114.244 220.303 113.306Z" fill="#7946C6"/>
<path d="M205.978 141.179C205.451 141.197 204.911 141.218 204.427 141.425C203.943 141.632 203.521 142.071 203.491 142.596C203.462 143.122 203.96 143.659 204.473 143.542C204.76 143.477 205.045 143.236 205.312 143.361C205.492 143.445 205.566 143.675 205.53 143.871C205.494 144.067 205.374 144.235 205.253 144.393C204.758 145.039 204.187 145.643 203.859 146.388C203.531 147.133 203.503 148.083 204.046 148.688C204.707 149.424 205.887 149.35 206.821 149.024C207.235 148.88 207.645 148.692 207.958 148.386C208.272 148.08 208.478 147.637 208.411 147.203C208.343 146.77 207.952 146.383 207.515 146.405C207.25 146.419 207.014 146.567 206.766 146.662C206.518 146.757 206.206 146.788 206.015 146.604C205.855 146.448 205.842 146.187 205.925 145.98C206.008 145.773 206.169 145.609 206.328 145.453C206.745 145.046 207.184 144.652 207.506 144.167C207.828 143.682 208.027 143.082 207.902 142.513C207.777 141.944 207.261 141.444 205.978 141.179Z" fill="#947EC6"/>
<path d="M206.987 150.632C206.71 150.224 206.077 150.139 205.676 150.426C205.275 150.714 205.143 151.301 205.341 151.753C205.539 152.204 206.026 152.499 206.519 152.514C206.829 152.523 207.151 152.425 207.364 152.2C207.577 151.975 207.654 151.615 206.987 150.632Z" fill="#947EC6"/>
<path d="M175.196 131.351C174.66 131.056 173.925 131.188 173.525 131.652C173.126 132.116 173.104 132.863 173.476 133.349C173.848 133.835 174.575 134.009 175.126 133.745C175.678 133.48 176.371 132.436 175.196 131.351Z" fill="#947EC6"/>
<path d="M168.707 119.063C168.121 119.241 167.504 119.438 167.094 119.894C166.685 120.35 166.596 121.152 167.075 121.534C167.553 121.914 168.252 121.684 168.805 121.426C169.358 121.168 170.029 120.9 170.544 121.228C170.863 121.433 171.021 121.828 171.025 122.207C171.029 122.586 170.9 122.954 170.751 123.303C170.309 124.339 169.676 125.29 169.285 126.348C168.895 127.405 168.776 128.648 169.353 129.616C169.804 130.373 170.625 130.855 171.481 131.059C172.763 131.364 174.171 131.084 175.238 130.312C176.305 129.541 177.012 128.291 177.123 126.978C177.157 126.58 177.126 126.144 176.868 125.839C176.503 125.408 175.805 125.412 175.312 125.688C174.818 125.963 174.477 126.441 174.139 126.893C173.8 127.346 173.424 127.807 172.901 128.021C172.378 128.235 171.671 128.105 171.42 127.599C171.173 127.103 171.448 126.517 171.718 126.032C172.17 125.221 172.623 124.41 173.075 123.599C173.528 122.787 173.995 121.913 173.92 120.987C173.834 119.93 173.004 119.019 172.001 118.674C170.999 118.329 169.945 118.687 168.707 119.063Z" fill="#947EC6"/>
<path d="M219.745 98.0471C219.586 97.362 218.686 96.8433 218.154 97.3039C217.862 97.5567 217.803 97.9794 217.766 98.3636C217.374 102.448 217.394 106.572 217.826 110.652C217.895 111.306 218.179 112.146 218.836 112.119C219.498 112.092 219.707 111.221 219.725 110.558C219.819 107.094 219.905 98.7322 219.745 98.0471Z" fill="#7946C6"/>
</svg>
