<svg width="320" height="240" viewBox="0 0 320 240" fill="none" xmlns="http://www.w3.org/2000/svg">
<g clip-path="url(#clip0_5301_34840)">
<path d="M185.518 58.0853C185.516 58.7401 183.381 59.9348 183.294 58.9645C183.247 58.7447 182.761 57.4932 182.702 57.2371C182.649 57.0051 184.637 55.8176 184.929 56.4117C185.015 56.5869 185.518 58.0853 185.518 58.0853Z" fill="#463276"/>
<path d="M176.822 57.3895C176.663 54.7641 177.757 51.0828 180.523 50.3633C179.856 52.8914 179.211 55.655 180.176 58.1211C178.84 58.5279 177.089 59.8824 176.822 57.3895Z" fill="#947EC6"/>
<path d="M180.525 50.3623C184.291 48.8484 189.504 54.5226 185.738 56.0292C184.048 56.9173 181.829 57.4552 180.178 58.1201C178.336 57.3163 178.029 53.4205 179.517 51.3254C179.734 51.019 180.177 50.5022 180.525 50.3623Z" fill="#7946C6"/>
<path d="M186.188 55.802C186.188 55.802 186.282 55.6539 186.359 55.1108C187.018 50.4085 181.363 50.1405 181.363 50.1405C181.424 50.0746 182.121 49.8835 182.824 49.8087C185.202 49.5555 187.233 50.2311 188.109 52.4123C189.023 54.6865 188.282 55.0145 186.188 55.802Z" fill="#453075"/>
<path d="M248.535 91.0935C248.521 90.8363 248.514 90.5786 248.513 90.321C248.462 69.0807 226.554 54.2642 207.894 62.8886C207.818 62.9276 207.742 62.9673 207.665 63.0077C205.243 64.2876 203.172 66.1982 201.621 68.5361C183.751 95.4596 152.612 105.713 133.88 74.0866C133.135 72.828 132.247 71.6678 131.222 70.6498C89.8217 29.5425 44.4874 89.6264 92.8674 116.818C94.0685 117.563 95.305 118.495 96.4535 119.545C99.5912 122.412 101.574 126.443 101.977 130.794C102.304 134.331 101.83 137.936 100.532 141.22C99.2787 144.392 97.115 147.065 94.3913 148.961C73.6021 163.428 82.6384 193.676 108.495 192.663C114.614 192.138 133.475 185.21 145.377 181.01C145.924 180.817 146.461 180.594 146.985 180.341C169.499 169.465 184.39 182.704 203.853 189.791C205.919 190.544 208.108 190.854 210.289 190.699C231.562 189.181 228.797 166.727 216.909 152.337C216.562 151.918 216.195 151.517 215.811 151.136C200.13 135.595 250.413 127.178 248.535 91.0935Z" fill="#F1DFC5"/>
<path d="M169.576 104.072L164.756 94.9546L135.352 110.015L137.287 111.618L169.576 104.072Z" fill="white"/>
<path d="M162.275 105.316C159.299 95.9686 139.02 110.022 137.575 109.838C137.243 109.915 136.848 110.287 136.527 110.117C136.46 109.655 138.935 108.659 138.124 108.644C137.335 109.216 136.238 109.293 135.491 109.792C135.245 110.975 141.368 118.655 141.33 119.437C141.512 131.574 141.637 130.291 149.281 125.148C150.399 125.382 160.466 124.789 161.757 124.763C163.25 124.078 163.41 104.887 162.275 105.316Z" fill="#E8EAEB"/>
<path d="M202.037 63.2234C201.46 63.5288 199.407 62.1971 200.22 61.6652C200.392 61.5201 201.266 60.5027 201.464 60.3307C201.643 60.1749 203.62 61.3796 203.234 61.9173C203.121 62.0759 202.037 63.2234 202.037 63.2234Z" fill="#463276"/>
<path d="M198.576 55.188C200.813 53.8163 204.567 53.0603 206.497 55.1742C203.959 55.7686 201.223 56.4926 199.504 58.5038C198.52 57.5106 196.506 56.5933 198.576 55.188Z" fill="#947EC6"/>
<path d="M206.496 55.1764C209.594 57.8042 207.043 65.0843 203.951 62.4535C202.377 61.372 200.863 59.6573 199.503 58.5059C199.348 56.497 202.633 54.398 205.175 54.7345C205.547 54.7837 206.209 54.9335 206.496 55.1764Z" fill="#7946C6"/>
<path d="M204.362 62.7469C204.362 62.7469 204.537 62.7612 205.051 62.574C209.5 60.9535 207.084 55.8169 207.084 55.8169C207.171 55.8397 207.666 56.368 208.061 56.9555C209.399 58.9446 209.757 61.0614 208.247 62.8604C206.673 64.7362 206.037 64.2335 204.362 62.7469Z" fill="#453075"/>
<path d="M165.505 71.963C164.822 73.5599 163.703 74.9395 162.528 76.1657C160.884 77.8812 156.205 76.3748 155.779 75.6254C155.166 74.5445 154.555 73.5396 153.882 72.516C152.721 71.1312 154.08 70.1057 155.101 69.1194C155.81 68.3957 156.747 67.9292 157.128 66.9475C158.021 64.6654 158.879 62.3125 160.114 60.1738C161.706 56.7658 163.157 58.1883 162.128 61.2541C162.128 61.2541 161.054 64.5778 161.178 66.281C162.985 67.4372 165.873 69.5536 165.505 71.963Z" fill="#FFF3E5"/>
<path d="M145.891 75.0797C141.549 79.3229 130.727 80.4235 126.722 78.4729C125.54 77.8971 125.691 76.1585 126.951 75.7852C131.384 74.4725 151.467 66.4867 151.335 63.0776C151.499 67.3121 149.249 72.122 145.891 75.0797Z" fill="#FCDE98"/>
<path d="M177.213 83.521C177.697 84.0341 178.181 84.5472 178.665 85.0603C177.891 85.8027 175.328 87.7332 174.764 86.9638C174.193 86.1857 176.217 84.3614 177.213 83.521Z" fill="#463175"/>
<path d="M153.064 83.6556C153.31 83.9885 156.198 77.6695 156.205 76.4243C156.205 76.4243 160.901 77.2962 157.146 85.4426L153.064 83.6556Z" fill="#FFF3E5"/>
<path d="M213.496 150.804C214.803 151.175 216.02 151.796 217.26 152.34C215.909 155.706 213.004 158.595 211.373 161.919C209.414 166.613 207.684 164.725 203.925 163.358C202.767 162.737 201.178 162.033 201.178 162.033C202.009 161.216 203.852 154.505 203.91 157.139C203.503 159.587 205.943 163.155 208.527 162.131C211.458 160.525 214.775 153.917 214.847 153.693C215.383 152.01 212.691 152.562 211.597 152.502C211.466 151.562 212.524 150.513 213.496 150.804Z" fill="#8AA0BC"/>
<path d="M172.555 52.8384C171.788 48.2998 179.723 45.5012 178.198 47.8241C177.703 48.5794 176.513 48.9122 175.78 49.5867C173.656 51.5432 172.991 55.1073 172.555 52.8384Z" fill="#7946C6"/>
<path d="M171.043 50.6684C168.596 50.3372 172.393 45.7983 173.494 45.2625C175.278 44.3935 176.7 44.8177 174.489 46.1699C172.635 47.3038 172.143 50.8428 171.043 50.6684Z" fill="#7946C6"/>
<path d="M157.004 55.0102C156.749 54.0841 156.259 48.5005 158.069 51.0862C158.506 52.3228 160.898 60.7101 157.675 57.9933C157.206 57.1231 157.215 56.0106 157.004 55.0102Z" fill="#7946C6"/>
<path d="M181.17 86.7598C173.656 83.1655 171.428 73.0521 175.388 66.025C176.739 63.6621 178.057 62.0124 181.058 60.0291C181.587 59.6792 184.324 58.3725 186.06 57.8654C186.844 57.6366 187.665 57.5287 188.494 57.4575C190.937 57.3719 193.343 57.5286 195.522 58.4138C195.917 58.5417 197.609 59.374 198.211 59.7841C198.211 59.7841 198.306 60.0949 197.098 59.9903C192.946 58.3858 188.661 58.2519 184.493 59.7905C172.786 64.9624 172.282 78.968 181.17 86.7598Z" fill="#947EC6"/>
<path d="M240.922 141.454C240.922 141.454 230.155 153.253 230.546 148.585C230.837 145.104 235.877 139.433 240.922 141.454Z" fill="#E7F1FC"/>
<path d="M158.353 86.3369C157.83 86.3632 157.684 85.8566 157.344 85.6233C157.073 85.3112 156.883 85.519 157.241 84.9254C158.385 83.0279 158.629 80.5036 158.022 78.2697C157.758 77.4125 156.196 77.4091 156.195 76.5574C156.194 76.2412 155.778 75.6265 155.778 75.6265C156.627 75.9396 157.04 75.6701 157.135 74.9509C157.156 74.0736 156.704 72.8672 156.286 72.1645C156.148 71.9259 156.156 71.7014 156.33 71.4731C156.858 70.7905 158.751 68.6669 158.618 67.2986C158.679 66.5338 159.919 66.8448 159.808 67.3589C159.395 68.5727 158.819 69.7285 158.331 70.9142C157.958 71.9058 157.62 73.2276 158.288 74.1541C158.39 74.2618 158.395 74.3747 158.379 74.5231C158.297 75.2122 158.269 76.1627 158.959 76.5432C160.401 77.3392 161.71 76.5546 162.089 76.2402C162.193 76.1535 162.339 76.1592 162.417 76.273C162.417 76.273 161.513 77.2336 161.226 77.7125C160.833 78.367 160.514 79.0305 160.297 79.7629C159.743 81.6417 158.399 86.2109 158.353 86.3369Z" fill="#EECAB4"/>
<path d="M225.667 146.411C226.289 144.657 228.727 145.407 229.214 147.086C228.331 147.787 226.352 147.85 225.667 146.411Z" fill="#E7F1FC"/>
<path d="M100.294 126.219C100.171 124.516 100.383 122.805 100.888 121.175C102.664 115.44 106.382 106.976 111.94 104.694C113.994 103.97 116.007 104.069 117.956 105.08C117.598 105.793 116.313 105.517 115.788 106.273C108.678 108.852 105.349 119.148 108.941 125.619C113.435 132.701 123.589 133.294 131.21 133.136C135.743 132.936 139.093 124.724 143.007 127.235C147.683 130.235 145.222 137.916 141.384 139.729C133.502 143.451 124.053 141.261 115.671 142.703C109.528 145.374 114.517 152.563 119.188 153.619C114.639 157.65 107.008 152.56 107.685 146.008C107.834 144.567 109.325 140.337 108.528 139.7C104.002 136.548 100.682 131.604 100.294 126.219Z" fill="#1D273D"/>
<path d="M148.523 58.4322C149.979 59.2562 151.007 60.6921 151.267 62.3489C152.201 68.3103 144.256 74.783 138.438 75.6751C133.668 76.4065 127.34 74.8138 126.596 76.5213C126.316 77.4025 127.187 77.6648 127.658 78.2031C120.489 76.3378 117.29 86.7567 112.151 87.9686C109.677 88.5519 105.419 89.3374 105.783 84.98C105.896 83.6179 107.603 83.5511 108.051 82.2527C109.223 80.1959 111.282 79.2742 113.333 78.3387C116.434 76.0271 111.617 69.0893 121.5 66.0052C127.407 63.7478 133.438 70.0619 138.724 65.7552C142.165 61.8716 142.163 54.8321 148.523 58.4322Z" fill="#FBD479"/>
<path d="M227.023 147.357C229.655 145.885 229.234 146.969 229.318 149.129C229.533 150.091 230.494 149.116 230.546 148.587C232.044 148.672 233.579 148.292 234.704 147.317C235.09 146.983 235.387 146.562 235.599 146.098C236.991 143.051 239.714 141.409 240.922 141.457L241.492 141.792C241.624 142.172 234.392 153.728 234.392 153.728C234.392 153.728 232.168 158.517 228.113 156.517C222.366 153.683 225.129 151.537 227.023 147.357Z" fill="#CCDCEE"/>
<path d="M226.893 148.329C225.558 150.218 223.549 152.988 225.812 154.885C226.767 155.685 228.305 156.709 229.697 156.88C230.418 156.968 231.142 156.721 231.68 156.231C236.006 152.294 241.49 141.794 241.49 141.794C243.499 142.684 241.385 142.532 232.138 158.277C231.053 160.124 224.334 155.125 222.04 154.281C219.813 153.673 225.818 148.407 226.893 148.329Z" fill="#8AA0BC"/>
<path d="M140.904 125.935C140.911 125.466 141.071 119.517 141.054 119.185C141.154 118.921 141.393 118.741 141.707 118.9C141.81 119.116 142.154 119.078 142.195 119.315C142.229 119.504 142.139 119.711 142.128 119.912C142.07 120.943 141.826 126.172 141.711 126.35C141.397 126.3 141.12 126.177 140.904 125.935Z" fill="#666666"/>
<path d="M143.333 127.51C138.402 135.171 126.559 134.287 118.748 132.597C106.839 130.021 104.129 119.153 110.524 109.962C111.867 108.302 113.657 106.46 115.803 106.2C115.456 109.299 124.67 111.383 127.051 110.644C131.365 108.44 135.465 106.919 137.937 102.199C138.917 100.747 140.296 102.637 142.843 99.0901C147.046 94.5044 146.096 87.0676 153.348 85.6414C154.174 85.2033 155.396 84.524 155.941 84.415L156.854 85.0562C157.277 87.2089 156.843 92.6839 155.107 94.4477C151.961 98.4887 147.133 103.096 142.908 106.147L135.838 109.832C135.516 110.012 135.419 110.288 135.419 110.288L135.573 111.37C138.333 114.461 135.626 113.984 133.269 115.446C129.995 117.518 133.795 124.888 136.684 125.329C137.65 125.559 137.65 124.457 138.333 124.71C139.941 125.305 142.005 126.042 143.333 127.51Z" fill="#292F73"/>
<path d="M155.94 84.4138C154.204 86.9909 150.017 84.1509 146.758 92.3631C145.976 95.0997 145.279 102.062 140.405 101.767C138.686 101.663 138.2 102.389 137.937 102.198C138.39 101.42 139.237 100.101 139.701 99.3299C143.158 94.3942 143.159 85.9893 149.434 83.8122C150.062 83.5943 150.721 83.4817 151.385 83.4593C152.964 83.406 154.585 83.5298 155.94 84.4138Z" fill="#475196"/>
<path d="M138.117 89.6516C138.339 86.7664 136.27 78.884 136.27 78.884C139.545 78.5125 141.822 77.7026 143.604 76.7437C144.381 81.5725 141.448 86.38 138.117 89.6516Z" fill="#BD8D45"/>
<path d="M136.269 78.8821C131.87 78.8775 127.092 77.9375 122.814 77.5273C115.827 90.3563 115.188 80.2797 111.551 87.7214C110.547 92.4468 113.637 95.1588 117.452 95.5665C117.452 95.5665 118.213 102.206 118.485 105.445C118.936 105.739 119.489 106.177 119.662 106.346C120.734 107.396 122.056 108.091 123.31 108.87C124.294 109.481 125.528 109.728 126.698 109.701C126.698 109.701 126.44 103.98 126.437 102.559C126.437 102.549 126.437 102.539 126.437 102.529C136.376 106.843 141.076 88.6809 136.269 78.8821Z" fill="#FFF3E5"/>
<path d="M129.767 109.287C128.799 111.609 124.458 111.136 122.437 110.57C120.451 110.013 118.362 109.382 116.572 108.256C114.132 106.698 116.273 104.34 117.954 105.079C117.954 105.079 126.021 110.22 129.767 109.287Z" fill="#475196"/>
<path d="M226.768 148.322C225.959 148.955 225.202 149.643 224.455 150.35C221.489 151.346 218.359 149.542 215.559 148.661C201.364 143.245 182.734 141.777 170.904 152.929C160.061 158.504 146.109 163.838 133.313 161.442C130.823 160.731 128.446 159.079 126.288 157.579C127.626 151.112 131.876 145.629 137.894 142.922C138.229 142.702 138.479 142.912 138.735 143.167C140.292 147.714 146.306 148.369 150.458 148.687C163.806 148.069 176.321 141.811 189.575 140.557C202.368 139.535 215.527 142.65 226.768 148.322Z" fill="#EA9C47"/>
<path d="M133.133 161.39C141.776 162.495 150.829 161.2 159.021 157.878C164.968 155.903 170.46 152.169 176.936 153.068C183.694 158.638 193.233 158.38 201.532 158.069C202.089 158.058 203.563 157.424 203.161 158.283C202.465 159.768 201.716 163.167 199.661 163.085C194.964 162.399 190.251 161.681 185.494 161.691C168.039 160.404 150.246 166.885 133.133 161.39Z" fill="#AF6A1D"/>
<path d="M170.903 152.931C173.509 150.569 176.698 148.213 180.683 146.714C187.802 144.035 194.754 143.779 202.236 144.902C206.146 145.576 210.024 146.503 213.766 147.835C217.243 148.94 220.703 150.913 224.454 150.352C223.474 151.555 222.22 154.491 221.763 154.482C221.041 154.469 217.904 152.641 217.258 152.34C194.596 141.791 170.804 153.035 170.903 152.931Z" fill="#AF6A1D"/>
<path d="M182.318 118.769C182.31 118.77 158.776 127.319 161.418 123.856C162.709 122.163 158.778 118.602 158.771 118.596C156.858 116.811 153.713 115.668 150.939 116.464C150.917 116.47 144.114 119.046 143.166 119.186C142.808 119.239 142.656 118.745 142.98 118.584C151.104 114.551 170.617 108.296 170.679 108.313C172.236 108.718 182.318 118.769 182.318 118.769Z" fill="#D9D9D9"/>
<path d="M119.188 153.619C114.86 153.082 109.873 146.639 114.345 143.247C116.313 141.607 121.082 141.697 121.082 141.697C130.42 141.833 138.395 140.637 141.583 139.5C141.002 141.476 132.922 141.505 133.883 143.678C125.787 146.403 124.677 146.512 119.188 153.619Z" fill="#292F73"/>
<path d="M159.597 124.297L182.315 118.768C182.315 118.768 183.482 119.697 178.668 121.105C178.668 121.105 149.51 129.584 159.597 124.297Z" fill="#666666"/>
<path d="M162.294 122.32C160.518 120.578 156.036 115.882 155.262 114.711C155.227 114.658 155.3 114.6 155.344 114.647C156.284 115.669 160.681 120.376 162.383 122.233C162.438 122.293 162.352 122.376 162.294 122.32Z" fill="#999999"/>
<path d="M160.857 122.718C159.082 120.977 154.6 116.281 153.826 115.11C153.79 115.057 153.864 114.999 153.907 115.046C154.848 116.068 159.244 120.775 160.947 122.632C161.001 122.691 160.915 122.775 160.857 122.718Z" fill="#999999"/>
<path d="M159.707 123.255C157.932 121.513 153.45 116.817 152.675 115.646C152.64 115.593 152.713 115.535 152.757 115.582C153.698 116.604 158.094 121.311 159.796 123.168C159.851 123.228 159.765 123.311 159.707 123.255Z" fill="#999999"/>
<path d="M154.213 126.099C152.76 124.08 149.14 118.686 148.576 117.4C148.551 117.341 148.633 117.297 148.667 117.351C149.421 118.518 152.954 123.908 154.316 126.029C154.36 126.097 154.261 126.164 154.213 126.099Z" fill="#999999"/>
<path d="M154.51 119.703C153.733 118.929 151.757 116.839 151.416 116.316C151.408 116.304 151.359 116.2 151.432 116.166C151.525 116.123 151.575 116.185 151.584 116.196C151.997 116.65 153.936 118.746 154.682 119.573C154.694 119.585 154.726 119.706 154.685 119.738C154.641 119.772 154.524 119.716 154.51 119.703Z" fill="#999999"/>
<path d="M150.148 122.64C149.581 121.7 148.168 119.192 147.964 118.601C147.959 118.588 147.936 118.474 148.016 118.459C148.116 118.44 148.149 118.513 148.156 118.525C148.447 119.067 149.822 121.571 150.346 122.555C150.354 122.57 150.356 122.695 150.308 122.716C150.258 122.738 150.157 122.656 150.148 122.64Z" fill="#999999"/>
<path d="M148.715 123.359C148.148 122.418 146.736 119.91 146.531 119.32C146.526 119.307 146.504 119.193 146.583 119.178C146.683 119.159 146.717 119.231 146.724 119.244C147.014 119.785 148.389 122.29 148.913 123.273C148.922 123.289 148.923 123.414 148.876 123.435C148.825 123.457 148.725 123.374 148.715 123.359Z" fill="#999999"/>
<path d="M160.716 123.986C159.717 126.833 156.103 130.029 153.323 131.11C151.978 131.633 147.2 132.617 145.881 132.443C145.691 132.418 145.564 132.359 145.564 132.359C145.526 130.971 145.295 130.29 145.295 130.29C146.105 127.341 152.802 126.297 160.462 123.416C160.462 123.416 160.859 123.684 160.716 123.986Z" fill="#EECAB4"/>
<path d="M154.687 54.4808C155.403 55.4897 158.366 58.9853 155.51 58.807C154.115 58.2243 151.324 51.9031 154.687 54.4808Z" fill="#7946C6"/>
<path d="M191.729 88.4345C192.406 88.2562 193.082 88.0778 193.758 87.8994C194.032 88.9335 194.483 92.1039 193.546 92.2298C192.599 92.3571 191.983 89.7094 191.729 88.4345Z" fill="#463175"/>
<path d="M111.971 86.8916C110.584 90.2167 112.701 95.105 117.01 94.9295L117.463 94.9084L117.811 98.7658C117.811 98.7658 116.443 98.8465 114.642 98.4901C108.72 97.1861 104.851 90.9124 105.782 85.001C106.86 87.4742 109.361 88.0107 111.971 86.8916Z" fill="#BD8D45"/>
<path d="M121.299 66.0674C112.712 74.5972 119.3 76.3072 112.436 78.9732C109.321 80.183 108.267 84.267 105.823 84.7283C106.425 81.0808 109.481 76.5421 111.845 74.2819C111.476 69.869 117.491 67.2398 121.299 66.0674Z" fill="#FCDE98"/>
<path d="M142.685 59.0688C143.184 60.5505 141.392 64.0107 140.413 65.1641C137.246 68.8914 131.514 67.5335 128.106 66.0582C128.106 66.0582 134.852 66.7754 138.213 64.0012C139.755 62.7285 141.264 60.8249 142.685 59.0688Z" fill="#BD8D45"/>
<path d="M226.768 148.322C222.661 146.878 218.67 144.855 214.482 143.517C206.128 141.122 197.313 140.021 188.662 140.843C183.795 141.04 159.975 148.212 152.519 148.847C148.542 149.046 144.477 148.506 141.048 146.347C139.876 145.656 138.548 144.705 138.736 143.167C140.232 144.082 141.909 144.678 143.601 145.113C150.961 146.622 158.081 143.572 164.961 141.342C169.938 139.747 175.004 138.383 180.18 137.621C192.612 135.749 205.653 136.225 217.196 141.668C218.258 142.19 225.977 145.602 227.022 147.354C227.219 147.683 227.128 148.158 226.768 148.322Z" fill="#FCCA95"/>
<path d="M198.083 59.7669C198.124 59.7776 198.166 59.7836 198.208 59.7851C199.83 60.9821 201.57 62.3691 202.695 64.1205C207.03 72.443 202.199 85.3998 193.758 87.9691C187.57 89.8527 184.174 88.1569 181.167 86.7608C173.886 80.8926 172.317 70.0743 179.273 63.1214C184.391 57.5282 191.559 58.178 198.083 59.7669Z" fill="#7946C6"/>
<path d="M162.192 96.2679L142.907 106.145C142.907 106.145 143.469 104.858 143.748 104.425C144.825 102.755 145.582 101.985 147.014 100.623C150.641 97.4472 154.482 94.1417 156.45 89.6172C157.034 88.3211 156.176 86.2876 156.853 85.0542C157.168 85.3242 158.054 86.0566 158.351 86.3342C160.336 88.1888 159.773 90.3547 160.217 92.468C160.655 94.5561 162.214 96.1769 162.192 96.2679Z" fill="#1D273D"/>
<path d="M170.11 108.713L153.054 114.39L152.441 113.212C158.275 110.073 158.649 110.316 165.289 107.153C166.443 106.815 174.612 102.621 175.833 102.775C177.052 106.661 172.793 107.701 170.11 108.713Z" fill="#453075"/>
<path d="M195.996 87.0065C200.759 82.2829 204.746 75.2626 203.651 67.9153C203.541 67.177 203.826 67.1396 203.826 67.1396C206.575 74.6214 203.11 83.6629 195.996 87.0065Z" fill="#453075"/>
<path d="M137.93 143.025L133.812 143.443C133.483 141.089 141.499 140.151 143.247 138.28C143.247 138.28 146.196 142.895 137.93 143.025Z" fill="#475196"/>
<path d="M219.433 62.5253C219.327 64.3375 217.867 66.1793 217.43 63.6838C217.301 61.6736 216.08 60.1916 215.489 58.3808C215.212 57.5333 216.259 57.2204 216.878 57.5906C218.786 58.7325 219.433 60.4679 219.433 62.5253Z" fill="#7946C6"/>
<path d="M162.991 129.328C164.33 129.237 171.794 129.801 168.815 131.487C167.093 132.461 155.856 129.936 162.991 129.328Z" fill="#7946C6"/>
<path d="M215.248 62.9614C215.312 65.184 213.317 66.7573 213.393 64.8286C213.62 59.0742 211.075 60.46 212.017 59.4765C213.635 57.7871 215.312 60.7892 215.248 62.9614Z" fill="#7946C6"/>
<path d="M169.576 102.06C169.576 102.06 169.211 102.905 168.715 102.441L165.313 96.007C165.313 96.007 167.084 94.9866 167.397 95.5821C168.331 97.36 169.1 100.11 169.576 102.06Z" fill="#D9D9D9"/>
<path d="M159.141 132.763C159.521 130.912 163.586 134.995 163.107 135.699C161.833 137.572 158.951 134.102 159.141 132.763Z" fill="#7946C6"/>
<path d="M182.163 87.2194C182.174 87.1633 182.185 87.0714 182.306 87.1032C184.972 87.8071 187.939 88.2481 190.689 88.1393C190.882 88.1317 191.257 88.566 191.068 88.6017C186.266 89.5068 182.163 87.2194 182.163 87.2194Z" fill="#4A3578"/>
<path d="M171.513 108.206C171.306 108.308 170.169 108.671 169.98 108.758C173.404 109.677 175.883 113.336 178.807 115.339C178.807 115.339 172.048 108.879 171.513 108.206Z" fill="#666666"/>
<path d="M194.361 105.57C194.462 105.567 194.469 105.419 194.368 105.409C192.649 105.226 188.648 104.987 185.477 103.511C183.037 102.394 180.446 101.168 177.756 101.644C176.43 101.878 178.162 101.254 178.847 101.215C184 100.768 189.47 104.586 192.732 104.103C192.863 104.084 192.857 103.892 192.725 103.881C186.714 103.341 181.294 99.142 175.088 101.634C173.119 102.424 173.315 103.789 174.965 103.427C180.152 98.9447 184.323 105.864 194.361 105.57Z" fill="black"/>
<path d="M160.096 123.769C157.427 125.921 154.821 129.362 150.97 129.856C148.727 129.976 145.295 130.291 145.295 130.291C145.133 129.088 142.662 126.877 142.662 126.877C145.075 124.693 146.68 120.278 149.646 118.985C151.255 120.512 146.713 123.979 146.681 125.022C149.499 124.624 152.67 125.344 155.29 123.569C156.965 122.445 158.561 120.856 160.646 120.631C162.718 121.222 161.13 122.973 160.096 123.769Z" fill="#FFF3E5"/>
<path d="M122.813 77.5274C121.358 80.2977 119.762 83.9451 117.156 85.5455C116.862 84.9617 115.629 84.5866 114.648 84.6135C114.648 84.6135 118.663 81.2322 119.956 79.6478C121.136 78.2003 121.623 77.4581 122.813 77.5274Z" fill="#BD8D45"/>
<path d="M118.002 121.736C116.874 121.739 113.839 117.275 116.353 118.733C119.018 120.278 122.36 118.426 125.269 118.746C129.629 118.341 132.648 114.634 136.716 113.317C137.437 113.818 141.056 119.182 141.056 119.182C138.802 119.324 134.399 120.898 135.393 123.871C133.266 123.871 131.06 122.466 128.844 122.281C125.381 121.217 121.326 123.065 118.002 121.736Z" fill="#1D273D"/>
<path d="M118.075 121.734C118.236 121.726 118.398 121.74 118.557 121.769C121.937 122.379 122.687 122.095 124.045 121.746C128.772 120.754 132.202 122.698 133.721 123.256C133.851 123.304 135.393 123.874 135.393 123.874C136.141 124.097 136.834 124.123 138.336 124.709C138.225 124.85 138.125 125.282 137.685 125.458C137.563 125.507 137.431 125.525 137.3 125.518C136.786 125.494 135.344 125.35 134.656 125.189C133.154 124.86 128.543 124.482 127.536 124.451C127.112 124.438 123.799 124.573 122.832 124.584C118.497 124.385 117.871 123.248 117.759 122.567C117.715 122.518 117.608 121.774 118.002 121.739C118.027 121.737 118.051 121.735 118.075 121.734Z" fill="#475196"/>
<path d="M141.705 118.902C141.454 118.869 141.052 119.188 141.052 119.188C137.759 115.313 135.503 111.632 135.34 111.316C134.782 110.233 135.79 109.908 135.836 109.833C135.86 110.011 135.525 110.15 135.619 110.313C136.457 111.771 137.275 113.241 138.312 114.572C138.876 115.296 139.462 116.002 140.03 116.723C140.362 117.145 140.677 117.581 141.004 118.008C141.234 118.309 141.471 118.604 141.705 118.902Z" fill="#D9D9D9"/>
<path d="M126.438 102.529L126.524 105.522C124.439 105.326 122.387 104.049 121.353 102.058C120.968 101.334 119.677 98.1104 121.116 98.6228C122.756 100.419 124.18 101.582 126.438 102.529Z" fill="#EECAB4"/>
<path d="M175.855 152.961C179.015 152.964 183.374 152.941 186.47 153.191C188.548 153.359 203.009 155.479 203.497 155.637C205.001 156.124 203.553 157.583 203.16 158.285C199.76 158.41 196.458 158.685 193.054 158.213C187.482 157.959 180.048 157.072 175.855 152.961Z" fill="#EA9C47"/>
<path d="M203.912 157.137C208.355 153.328 205.523 158.766 207.422 157.532C210.501 157.422 210.508 154.242 211.605 152.379C212.963 152.209 216.224 152.018 214.839 154.215C213.292 156.671 211.78 160.574 208.775 162.168C208.16 162.494 207.449 162.606 206.772 162.452C204.61 161.959 203.51 159.309 203.912 157.137Z" fill="#CCDCEE"/>
<path d="M211.604 152.38C211.03 154.412 210.18 158.035 207.42 157.534C208.348 155.945 208.556 154.023 209.827 152.628C210.477 152.013 212.331 150.911 212.752 150.82C212.752 150.82 211.457 151.641 211.604 152.38Z" fill="#E7F1FC"/>
<path d="M169.284 119.984C167.509 118.243 163.027 113.547 162.252 112.376C162.217 112.322 162.291 112.265 162.334 112.312C163.275 113.333 167.671 118.041 169.373 119.898C169.428 119.957 169.342 120.041 169.284 119.984Z" fill="#999999"/>
<path d="M165.388 121.293C163.612 119.551 159.13 114.855 158.356 113.684C158.321 113.631 158.394 113.573 158.437 113.62C159.378 114.642 163.775 119.349 165.477 121.206C165.531 121.266 165.445 121.349 165.388 121.293Z" fill="#999999"/>
<path d="M170.699 119.509C168.924 117.768 164.442 113.072 163.667 111.901C163.632 111.847 163.706 111.79 163.749 111.837C164.69 112.858 169.086 117.566 170.788 119.422C170.843 119.482 170.757 119.565 170.699 119.509Z" fill="#999999"/>
<path d="M173.624 118.004C171.682 116.452 166.75 112.234 165.862 111.148C165.822 111.098 165.889 111.033 165.936 111.076C166.975 111.997 171.823 116.235 173.704 117.909C173.764 117.963 173.687 118.055 173.624 118.004Z" fill="#999999"/>
<path d="M171.534 117.936C169.873 116.503 165.657 112.616 164.901 111.622C164.867 111.577 164.925 111.519 164.966 111.558C165.854 112.406 169.998 116.31 171.604 117.852C171.656 117.901 171.588 117.982 171.534 117.936Z" fill="#999999"/>
<path d="M162.858 121.044C161.303 119.496 157.375 115.316 156.692 114.27C156.661 114.222 156.724 114.17 156.762 114.211C157.587 115.121 161.441 119.312 162.934 120.965C162.981 121.018 162.908 121.094 162.858 121.044Z" fill="#999999"/>
<path d="M176.372 117.187C174.43 115.635 169.498 111.417 168.61 110.33C168.57 110.281 168.637 110.216 168.685 110.258C169.724 111.179 174.571 115.417 176.452 117.092C176.512 117.146 176.435 117.237 176.372 117.187Z" fill="#999999"/>
<path d="M175.19 117.697C173.248 116.144 168.317 111.927 167.428 110.84C167.388 110.791 167.455 110.726 167.503 110.768C168.542 111.689 173.39 115.927 175.27 117.602C175.33 117.655 175.253 117.747 175.19 117.697Z" fill="#999999"/>
<path d="M175.9 73.3198C175.877 57.7959 198.781 54.0629 201.848 70.0923C204.643 88.7967 176.405 93.2637 175.9 73.3198Z" fill="#453075"/>
<path d="M162.562 97.8086C162.749 98.8174 164.315 102.478 164.877 104.056C164.934 104.217 165.213 104.165 165.167 104.001C164.727 102.438 163.403 98.6744 162.766 97.7252C162.698 97.6228 162.539 97.6874 162.562 97.8086Z" fill="#B5B5B5"/>
<path d="M161.216 98.4356C161.403 99.4443 162.97 103.105 163.531 104.683C163.589 104.844 163.868 104.792 163.821 104.627C163.381 103.065 162.057 99.3014 161.421 98.3521C161.352 98.2498 161.194 98.3143 161.216 98.4356Z" fill="#B5B5B5"/>
<path d="M160.019 99.2579C160.206 100.267 161.772 103.927 162.334 105.505C162.391 105.666 162.67 105.614 162.624 105.45C162.184 103.887 160.86 100.124 160.223 99.1744C160.155 99.072 159.996 99.1366 160.019 99.2579Z" fill="#B5B5B5"/>
<path d="M153.46 102.121C153.648 103.13 155.214 106.79 155.776 108.369C155.833 108.53 156.112 108.478 156.065 108.313C155.625 106.75 154.301 102.987 153.665 102.038C153.596 101.935 153.438 102 153.46 102.121Z" fill="#B5B5B5"/>
<path d="M152.111 102.738C152.298 103.747 153.864 107.407 154.426 108.985C154.483 109.146 154.762 109.094 154.716 108.93C154.276 107.367 152.952 103.604 152.315 102.654C152.247 102.552 152.088 102.617 152.111 102.738Z" fill="#B5B5B5"/>
<path d="M139.559 109.635C140.039 110.878 142.872 115.176 143.953 117.057C144.064 117.249 144.262 117.13 144.164 116.931C143.236 115.041 140.676 110.553 139.658 109.494C139.548 109.38 139.501 109.486 139.559 109.635Z" fill="#B5B5B5"/>
<path d="M150.915 103.563C151.103 104.572 152.669 108.232 153.231 109.81C153.288 109.971 153.567 109.919 153.52 109.755C153.081 108.192 151.756 104.429 151.12 103.48C151.051 103.377 150.893 103.442 150.915 103.563Z" fill="#B5B5B5"/>
<path d="M158.83 99.8316C159.018 100.84 160.584 104.501 161.146 106.079C161.203 106.24 161.482 106.188 161.435 106.023C160.996 104.461 159.671 100.697 159.035 99.7481C158.966 99.6458 158.808 99.7103 158.83 99.8316Z" fill="#B5B5B5"/>
<path d="M145.314 106.564C145.741 107.677 148.239 111.528 149.195 113.212C149.293 113.384 149.579 113.266 149.493 113.088C148.671 111.395 146.409 107.375 145.514 106.425C145.418 106.323 145.263 106.43 145.314 106.564Z" fill="#B5B5B5"/>
<path d="M144.008 107.556C144.435 108.669 146.934 112.52 147.889 114.204C147.987 114.376 148.274 114.258 148.187 114.08C147.365 112.387 145.103 108.367 144.209 107.417C144.112 107.315 143.957 107.422 144.008 107.556Z" fill="#B5B5B5"/>
<path d="M142.915 108.754C143.343 109.867 145.841 113.718 146.797 115.403C146.894 115.575 147.181 115.456 147.094 115.278C146.273 113.585 144.01 109.565 143.116 108.615C143.019 108.513 142.864 108.62 142.915 108.754Z" fill="#B5B5B5"/>
<path d="M141.772 109.659C142.199 110.772 144.697 114.623 145.653 116.308C145.751 116.48 146.037 116.361 145.951 116.183C145.129 114.491 142.867 110.471 141.972 109.521C141.876 109.418 141.721 109.526 141.772 109.659Z" fill="#B5B5B5"/>
<path d="M159.223 104.477C159.285 104.578 159.439 104.504 159.4 104.392C159.082 103.488 158.072 100.723 157.834 100.29C157.74 100.117 157.553 100.201 157.62 100.386C157.97 101.36 158.79 103.763 159.223 104.477Z" fill="#B8B8B8"/>
<path d="M152.439 113.212L151.799 111.838C154.541 110.598 171.085 101.084 175.087 101.633L174.809 101.757C174.773 101.774 174.738 101.793 174.705 101.815C174.114 102.222 173.32 103.059 174.221 103.017C174.299 103.014 174.364 103.033 174.346 103.128C174.281 103.466 174.782 103.495 175.007 103.389C174.97 106.087 155.563 112.166 152.439 113.212Z" fill="#7946C6"/>
<path d="M149.643 118.985C152.837 119.018 148.652 123.298 148.61 124.883C148.268 125.368 146.128 125.498 146.589 124.748C148.878 121.026 150.516 121.173 149.643 118.985Z" fill="#EECAB4"/>
<path d="M203.669 155.694C200.196 158.414 195.333 156.32 191.466 155.638C190.14 155.318 188.797 155.058 187.484 154.689C186.727 154.522 186.452 153.84 186.351 153.182C190.562 153.301 202.374 154.895 203.669 155.694Z" fill="#FCCA95"/>
<path d="M206.51 155.974C206.396 155.981 206.295 156.018 206.201 156.088C205.573 156.528 204.66 157.093 203.91 157.14C203.824 156.825 203.966 155.804 203.62 155.671L203.629 155.642C204.09 154.327 205.991 154.705 206.51 155.974Z" fill="#E7F1FC"/>
<path d="M188.26 75.4725C186.232 75.3358 186.266 73.8544 186.365 72.3404C185.771 71.3649 184.877 70.445 184.712 69.283C185.261 67.5601 186.995 70.2684 187.502 70.9191C187.713 71.3267 188.023 71.4938 188.489 71.4322C189.023 71.2845 189.442 72.0376 189.934 71.7126C190.893 71.4511 196.97 67.3475 196.477 69.489C194.825 70.8955 192.77 71.7853 190.93 72.9288C189.826 73.5729 189.936 75.4967 188.26 75.4725Z" fill="#7946C6"/>
<path d="M199.718 77.7919C198.861 77.845 197.773 77.2623 198.013 76.4658C198.643 74.3847 202.081 77.6187 199.718 77.7919Z" fill="#937DC5"/>
<path d="M178.307 71.0089C177.687 70.9349 176.7 70.7012 176.884 69.8145C177.38 67.4127 180.963 71.3235 178.307 71.0089Z" fill="#937DC5"/>
<path d="M191.443 62.6974C191.256 61.6328 192.86 59.7904 193.157 61.4782C193.339 62.5119 191.741 64.8129 191.443 62.6974Z" fill="#937DC5"/>
<path d="M189.979 83.4369C190.026 81.7591 191.46 83.2426 191.3 84.2177C191.146 85.8233 189.989 84.4966 189.979 83.4369Z" fill="#927CC4"/>
<path d="M184.693 62.0322C184.997 60.3147 186.885 63.0252 185.857 63.5204C185.143 63.8645 184.573 62.533 184.693 62.0322Z" fill="#927CC4"/>
<path d="M197.292 66.3997C195.804 66.6358 198.257 63.5721 198.49 65.2152C198.566 65.7533 197.952 66.3303 197.292 66.3997Z" fill="#917BC3"/>
<path d="M185.824 84.2833C186.019 85.1072 184.803 86.3411 184.642 85.1342C184.529 84.2963 185.525 82.525 185.824 84.2833Z" fill="#927CC4"/>
<path d="M181.688 80.746C181.951 81.394 179.172 82.7719 179.661 81.5398C179.848 81.0715 181.298 79.7327 181.688 80.746Z" fill="#917BC3"/>
<path d="M196.849 81.5157C196.629 82.5705 195.172 81.5137 195.181 81.0008C195.207 79.452 197.038 80.6764 196.849 81.5157Z" fill="#917CC3"/>
<path d="M179.826 65.495C180.449 65.3527 181.497 66.4106 181.077 66.9742C180.522 67.7198 178.627 65.8196 179.826 65.495Z" fill="#927CC3"/>
<path d="M177.499 76.1905C177.392 76.1834 177.286 76.1653 177.185 76.1314C175.965 75.7234 178.835 74.4322 178.882 75.4278C178.911 76.0153 178.298 76.244 177.499 76.1905Z" fill="#917BC3"/>
<path d="M199.674 71.4398C198.202 71.3564 199.764 70.1787 200.519 70.4896C201.497 70.939 200.462 71.4482 199.674 71.4398Z" fill="#917BC2"/>
<path d="M169.578 102.063C171.463 101.348 173.299 100.058 175.091 101.633C175.091 101.633 174.334 101.62 173.646 101.823C166.471 103.948 158.678 108.864 151.803 111.837C151.803 111.837 151.103 110.445 153.181 109.222C156.177 107.988 169.578 102.063 169.578 102.063Z" fill="#947EC6"/>
<path d="M120.888 151.477C123.146 147.508 127.416 145.394 131.377 143.995C131.377 143.995 136.387 142.597 138.564 143.012C127.886 147.995 128.371 157.32 126.287 157.582C126.287 157.582 123.847 155.683 120.888 151.477Z" fill="#AF6A1D"/>
</g>
<defs>
<clipPath id="clip0_5301_34840">
<rect width="177.038" height="148" fill="white" transform="translate(71.9814 45)"/>
</clipPath>
</defs>
</svg>
