<svg width="320" height="240" viewBox="0 0 320 240" fill="none" xmlns="http://www.w3.org/2000/svg">
<g clip-path="url(#clip0_5301_34689)">
<path d="M142.569 51.4256C172.177 65.9096 177.825 73.1555 210.83 63.0125C240.409 58.3632 268.839 114.544 230.988 142.71C207.433 160.236 194.033 151.16 176.269 161.331C158.506 171.503 163.483 179.201 134.234 182.509C98.7218 186.526 62.7868 160.131 72.7475 144.735C85.6812 124.743 99.7573 118.349 103.07 105.831C107.419 89.3997 83.1398 70.7778 100.534 53.6164C116.174 38.185 132.989 46.938 142.569 51.4256Z" fill="#F1DFC5"/>
<path d="M183.28 77.3365C182.516 75.2605 179.479 74.738 177.454 75.599C175.966 76.2322 174.939 77.7092 173.423 78.2733C167.787 79.8685 165.794 72.4221 162.683 69.2471C161.017 67.6187 158.378 66.3933 156.058 66.458C154.286 66.5075 152.881 67.4082 151.119 67.6028C148.74 67.8657 146.321 67.4032 143.947 67.7137C138.503 68.426 133.425 74.6474 133.605 80.1764C133.665 82.0164 134.788 83.3224 134.637 85.1571C134.485 86.9917 133.393 88.5487 131.589 88.8405C129.76 89.1364 127.971 87.6164 126.157 87.9966C123.347 88.6874 122.962 92.4112 124.249 94.5694C131.725 107.107 151.988 105.728 164.55 103.608C177.491 101.719 187.275 90.2443 183.28 77.3365Z" fill="#282828"/>
<path d="M139.219 88.3741C136.382 94.0691 128.91 91.5537 124.69 88.8304C121.916 91.2992 124.037 95.4601 125.93 97.618C139.425 113 171.233 113.159 181.78 92.3036C178.477 98.8353 171.514 84.9484 166.799 81.4857C163.21 78.8917 161.905 80.3608 160.204 83.9976C156.465 90.3234 144.56 95.5892 139.219 88.3741Z" fill="#0D0D0D"/>
<path d="M174.311 77.8435C175.335 82.1858 168.647 82.609 168.128 76.751C169.735 78.3388 172.162 79.1536 174.311 77.8435Z" fill="#0D0D0D"/>
<path d="M165.53 73.2749C161.508 69.46 156.917 66.041 152.713 71.8127C147.428 68.0135 140.59 70.9342 135.501 73.7638C136.606 71.337 141.137 67.4271 145.275 67.2632C147.31 67.1825 149.098 67.8634 151.118 67.6048C153.073 67.3546 155.189 66.2187 157.159 66.2619C161.136 66.3055 163.913 70.1478 165.53 73.2749Z" fill="#434343"/>
<path d="M144.29 87.5923C149.207 86.7202 152.173 80.4168 153.732 75.8438C151.094 80.2273 146.173 84.9513 140.602 86.4488C141.651 86.2627 143.745 86.5864 144.29 87.5923Z" fill="#434343"/>
<path d="M184.571 81.0596C184.153 74.5388 178.427 73.2813 175.063 77.2725C178.262 76.7515 179.734 80.4864 179.599 83.189C179.6 85.7989 179.891 89.2405 182.85 90.0967C183.371 88.8748 184.795 84.5511 184.571 81.0596Z" fill="#434343"/>
<path d="M100.94 88.4785C100.518 87.2649 99.1893 86.567 97.9154 86.4939C96.6415 86.4208 96.5279 86.7413 95.3165 87.1452C93.6306 87.6399 88.7855 88.3658 88.3153 86.091C87.2024 86.6525 85.6564 85.869 85.4402 84.634C84.371 84.7733 84.462 83.309 85.3422 83.0252C88.3424 82.5312 91.4574 82.4873 94.4206 81.6417C93.7642 81.6777 92.9595 81.5994 92.3974 81.2559C91.8354 80.9125 91.2357 80.2551 91.6948 79.7811C93.1082 78.863 97.3135 79.6711 99.1998 79.5978C100.304 79.6573 101.474 79.7467 102.371 80.3968C104.358 81.8768 103.963 84.827 105.157 86.8007C103.64 87.077 102.16 87.5512 100.94 88.4785Z" fill="#F3C38A"/>
<path d="M201.092 82.6589C201.272 78.2276 213.402 81.5603 212.827 76.857C214.101 77.0215 215.362 75.7976 215.247 74.5087C215.585 74.4427 216.071 74.0537 216.053 73.7124C215.96 72.9329 214.856 73.1843 214.252 73.3375C211.446 73.8295 208.64 74.3215 205.834 74.8135C206.741 74.436 208.56 73.2915 208.195 72.148C207.907 71.6812 207.199 71.9337 206.729 72.2113C205.287 73.0618 203.719 73.6937 202.093 74.0793C195.645 75.2274 197.373 77.3831 197.016 82.5274C198.308 82.5444 199.6 82.5613 201.092 82.6589Z" fill="#F3C38A"/>
<path d="M207.07 79.8783C205.36 79.8935 200.252 79.5581 199.872 81.7135C200.367 81.8117 200.841 82.0158 201.254 82.3083C201.575 79.9331 205.367 80.3508 207.07 79.8783Z" fill="#B58E63"/>
<path d="M102.739 87.2641C101.9 84.1724 98.0653 85.8724 96.083 86.8535C98.1178 86.2886 100.253 86.6036 100.73 88.8565C101.453 88.4121 102.177 87.9677 102.739 87.2641Z" fill="#B58E63"/>
<path d="M101.044 79.8158C99.847 79.4915 97.8623 79.5009 94.2829 79.3116C94.0688 79.2712 90.8035 79.135 91.7134 80.6407C92.4117 81.7216 94.273 81.6778 94.273 81.6778C95.5301 81.0153 99.0666 79.8914 101.044 79.8158Z" fill="#B58E63"/>
<path d="M205.876 74.7993C203.436 75.1924 199.574 74.3548 197.683 75.996C199.287 74.0333 203.738 73.911 206.09 72.1672C206.703 71.6588 207.83 71.4578 208.253 72.2767C208.451 73.4168 206.248 74.7596 205.876 74.7993Z" fill="#B58E63"/>
<path d="M154.5 74.1206C156.595 76.5124 159.264 78.3899 162.214 79.5469C163.154 79.9156 164.574 80.1279 164.848 80.4715C166.602 84.0359 167.245 88.1634 167.531 92.1149C168.271 97.8848 163.444 105.594 157.124 102.715C157.242 103.82 157.565 104.822 157.683 105.928C154.728 106.55 151.362 106.775 148.383 106.87C147.702 102.844 146.495 99.3484 145.487 95.3497C143.107 97.6569 139.668 95.0501 139.12 92.2833C138.812 91.243 138.508 87.6781 140.602 86.4448C143.059 84.9981 144.459 87.0907 144.459 87.0907C149.214 85.2765 152.562 78.9588 154.5 74.1206Z" fill="#F3C38A"/>
<path d="M157.125 102.716C154.679 101.605 152.428 99.9946 150.718 98.2715C150.383 100.416 151.213 102.965 153.132 104.933C154.221 106.446 156.047 106.538 157.691 105.927C157.526 104.95 157.301 103.649 157.125 102.716Z" fill="#B58E63"/>
<path d="M159.005 111.533C157.561 108.513 159.457 104.615 156.763 105.696C154.494 106.512 151.982 106.626 149.65 106.022C149.148 105.892 148.569 105.742 148.149 106.048C146.786 107.052 149.896 110.252 148.643 114.555" fill="#292F73"/>
<path d="M158.315 107.456C157.503 109.639 153.603 107.764 152.703 106.403C154.343 106.254 155.596 105.916 156.751 105.312C156.905 105.231 157.52 105.013 157.689 105.053C158.549 105.322 158.425 106.986 158.315 107.456Z" fill="#475196"/>
<path d="M197.577 107.832C200.288 99.6917 202.385 90.5827 201.202 82.0523C200.437 81.3005 197.755 81.0512 197.017 81.9313C196.116 87.1764 194.991 92.5824 193.15 97.6994C192.406 100.025 191.588 102.468 189.774 104.09C191.947 105.352 194.119 106.614 197.577 107.832Z" fill="#292F73"/>
<path d="M196.759 107.308C193.701 98.8403 198.814 90.152 199.002 81.7364C198.532 81.1458 196.91 81.4411 196.607 82.0964C196.476 82.3973 196.561 82.742 196.617 83.0654C196.809 84.196 196.088 87.4743 195.79 88.5815C191.579 107.302 186.031 102.059 196.759 107.308Z" fill="#1D273D"/>
<path d="M199.429 99.4838C199.942 94.9456 200.203 90.188 200.203 82.7875C200.203 82.4505 200.325 82.0576 200.635 81.9307C201.328 81.7252 201.605 82.6135 201.551 83.171C201.594 86.7948 201.491 90.4204 201.241 94.0357C200.968 97.9776 200.136 102.095 198.298 105.585C198.35 105.12 199.302 100.609 199.429 99.4838Z" fill="#475196"/>
<path d="M156.751 111.416C154.101 111.139 151.721 109.056 151.402 106.336C150.211 106.255 147.085 104.86 147.753 107.265C148.999 110.296 148.728 111.063 148.526 113.343C150.887 111.679 154.255 112.571 156.751 111.416Z" fill="#1D273D"/>
<path d="M117.36 103.029C112.765 98.8675 109.043 93.7325 106.507 88.0561C106.233 87.4414 105.921 86.7668 105.309 86.494C103.585 85.7254 100.017 88.0075 100.404 88.7231C103.307 97.316 108.276 104.6 115.046 110.589C115.436 108.011 116.135 105.481 117.36 103.029Z" fill="#292F73"/>
<path d="M176.215 145.154C184.091 143.387 194.261 145.281 201.194 149.441C203.001 150.525 205.276 150.489 204.817 154.264C202.972 161.742 181.878 164.568 175.041 164.821C173.183 164.877 170.96 165.062 170.074 166.709C169.618 167.557 169.647 168.629 169.089 169.413C168.349 170.452 166.895 170.617 165.626 170.617C143.815 170.826 109.244 157.115 106.508 137.579C106.26 135.811 108.799 134.517 110.568 134.594C116.311 134.841 136.695 139.695 138.412 140.132C158.471 145.244 155.17 149.878 176.215 145.154Z" fill="#C9DEF1"/>
<path d="M176.215 145.154C184.091 143.387 194.261 145.281 201.194 149.441C203.001 150.525 205.276 150.489 204.817 154.264C202.972 161.742 181.878 164.568 175.041 164.821C173.183 164.877 170.96 165.062 170.074 166.709C169.618 167.557 169.647 168.629 169.089 169.413C168.349 170.452 166.895 170.617 165.626 170.617C143.815 170.826 109.244 157.115 106.508 137.579C106.26 135.811 108.799 134.517 110.568 134.594C116.311 134.841 136.695 139.695 138.412 140.132C158.471 145.244 155.17 149.878 176.215 145.154Z" fill="#CCDCEE"/>
<path d="M178.775 146.595C182.876 151.144 188.768 154.008 194.855 154.409C181.883 153.724 168.786 155.513 156.463 159.653C160.991 160.606 171.497 159.189 172.138 165.356C153.626 163.47 137.06 153.973 121.217 144.757C124.843 142.618 129.383 143.323 133.535 143.978C148.436 146.33 163.572 147.175 178.775 146.595Z" fill="#8AA0BC"/>
<path d="M159.134 171.158C139.792 169.146 113.454 159.469 107.176 140.563C120.461 153.765 128.779 162.46 148.104 166.794C152.22 167.831 156.819 168.539 160.511 166.431C160.645 168.108 160.275 169.823 159.134 171.158Z" fill="#8AA0BC"/>
<path d="M115.102 107.154C110.11 101.308 104.472 95.8664 102.661 86.7974C102.002 86.9267 99.9187 87.5006 100.308 89.0975C101.22 93.5426 110.706 108.243 114.921 111.657L116.491 109.284" fill="#1D273D"/>
<path d="M116.432 104.139C116.432 104.139 109.063 95.6195 107.372 92.3333C105.681 89.0471 103.567 86.4607 103.567 86.4607C103.567 86.4607 105.36 85.7265 105.56 86.1868C105.761 86.6472 109.305 93.1853 110.875 95.4978C112.445 97.8103 116.432 102.131 116.432 102.131V104.139Z" fill="#475196"/>
<path d="M201.74 109.416C198.891 109.249 196.489 106.086 194.375 104.153C190.733 100.505 184.571 100.871 181.129 104.674C179.653 106.325 177.092 108.266 175.331 109.602C168.035 115.459 158.374 108.961 150.25 111.768C140.177 116.459 135.585 119.601 130.22 107.278C127.869 100.569 118.776 96.1535 113.881 102.426C112.362 104.982 112.709 109.591 111.361 112.243C110.696 113.552 109.686 113.742 109.138 115.105C106.485 126.328 119.493 134.061 129.667 131.441C132.06 130.713 136.564 130.809 138.971 131.489C141.378 132.169 141.441 134.045 140.46 136.361C139.938 137.595 138.747 138.388 137.942 139.456C132.94 147.808 144.509 153.02 151.119 154.314C159.747 156.298 166.513 155.501 174.389 151.435C177.466 149.846 181.253 147.208 180.676 143.773C179.59 139.369 174.271 138.164 171.151 135.519C164.409 130.387 169.982 128.3 175.477 128.388C179.652 128.698 180.901 129.3 185.075 129.624C193.072 130.539 203.377 128.029 205.729 119.281C206.757 115.192 205.043 109.608 201.74 109.416Z" fill="#EA9C47"/>
<path d="M178.063 192.081C173.114 193.752 167.455 190.105 166.889 184.875C166.421 181.809 167.918 178.375 166.343 175.514C164.864 173.359 163.259 174.689 161.421 175.387C159.725 175.833 157.803 174.42 157.707 172.656C157.637 171.382 158.363 170.222 158.757 169.01C160.617 160.984 152.366 161.545 171.669 163.99C172.823 164.136 173.521 164.723 173.595 165.942C175.093 173.572 176.849 181.166 178.347 188.797C178.578 189.975 178.762 191.348 178.063 192.081Z" fill="#292F73"/>
<path d="M162.951 174.715C163.103 174.471 162.874 174.283 162.527 174.081C160.194 173.081 161.102 171.582 160.361 169.448C159.791 167.843 158.756 169.009 158.756 169.009C158.756 169.009 157.905 170.788 157.701 171.412C157.477 172.101 157.352 173.257 158.334 174.501C159.331 175.811 161.907 175.974 162.951 174.715Z" fill="#475196"/>
<path d="M175.333 192.463C174.57 191.055 173.093 190.449 172.094 189.201C169.21 185.225 172.419 179.154 165.84 174.925C167.892 178.391 166.068 182.764 166.998 186.506C167.777 190.281 171.564 192.937 175.333 192.463Z" fill="#475196"/>
<path d="M178.553 189.358C178.169 187.423 175.188 172.644 173.797 165.646C173.754 165.426 173.505 164.635 173.101 164.416C171.724 163.667 155.086 157.843 158.978 165.151C161.351 164.744 169.41 164.937 171.287 168.366C174.556 175.841 175.495 184.34 177.184 192.305C178.872 192.35 178.765 190.587 178.553 189.358Z" fill="#1D273D"/>
<path d="M194.853 154.407C195.341 154.456 196.818 154.682 197.251 154.914C197.685 155.147 197.999 155.686 197.814 156.144C197.557 156.781 196.68 156.702 195.999 156.662C185.415 156.038 176.426 156.591 166.178 158.972C165.409 159.151 164.329 159.304 164.121 158.537C164.014 158.144 164.348 157.492 164.686 157.269C174.207 154.376 185.84 153.523 194.853 154.407Z" fill="#E7F1FC"/>
<path d="M149.155 159.121C149.812 159.385 152.144 160.277 152.706 160.71C154.073 161.973 152.988 163.081 151.27 162.871C146.326 162.268 114.369 146.539 116.242 142.173C116.415 141.769 117.43 142.176 117.835 142.438C128.681 149.487 140.572 155.665 149.155 159.121Z" fill="#E7F1FC"/>
<path d="M130.991 138.631C123.849 136.957 114.906 138.23 109.364 138.449C107.241 138.533 107.126 135.731 108.986 134.889C109.893 134.481 110.875 134.445 112.204 134.655C119.452 135.8 125.675 136.719 133.202 138.895C132.083 138.759 131.246 138.684 130.991 138.631Z" fill="#E7F1FC"/>
<path d="M204.161 151.106C198.003 150.343 191.915 149.005 186.001 147.115C185.407 146.925 182.564 146.18 184.403 145.118C186.627 143.832 199.001 146.531 204.161 151.106Z" fill="#E7F1FC"/>
<path d="M194.956 108.544C190.88 107.727 186.901 106.636 183.413 109.458C182.273 110.349 181.301 111.506 179.972 112.074C178.644 112.641 176.754 112.297 176.299 110.918C175.492 108.492 180.954 104.52 182.745 103.139C184.511 101.965 186.388 101.549 188.498 101.389C192.681 101.073 202.176 109.991 194.956 108.544Z" fill="#FCCA95"/>
<path d="M135.915 115.221C122.98 114.748 123.285 98.7711 112.534 107.47C112.788 98.2182 121.616 97.6647 126.907 101.779C130.642 105.033 131.834 112.863 135.915 115.221Z" fill="#FCCA95"/>
<path d="M171.152 135.521C173.159 138.308 173.251 139.67 173.261 142.073C172.682 156.087 148.944 153.706 140.166 149.693C151.53 157.863 170.632 158.075 179.462 148.289C180.772 146.836 181.099 144.609 180.371 142.789C178.497 138.758 174.722 138.406 171.152 135.521Z" fill="#AF6A1D"/>
<path d="M139.639 137.581C145.695 133.306 143.214 126.055 136.345 124.597C130.987 123.268 125.22 125.188 119.916 123.501C110.12 119.806 115.966 113.036 112.354 108.586C111.662 114.04 109.006 112.478 108.78 116.732C108.474 122.476 111.27 126.979 115.754 129.329C118.693 131.166 122.929 131.865 126.388 131.865C128.407 131.865 130.341 131.247 132.758 130.972C136.867 130.375 143.794 131.918 139.639 137.581Z" fill="#AF6A1D"/>
<path d="M198.574 108.092C205.717 113.704 204.457 123.708 194.721 125.259C186.484 126.572 177.759 123.994 169.736 126.54C166.786 127.771 165.858 131.78 168.944 133.459C166.498 130.601 169.849 128.9 172.281 128.682C181.099 127.89 184.925 131.349 195.168 128.933C203.618 127.331 207.442 120.865 206.208 114.7C205.878 112.765 204.536 109.486 201.195 109.299C200.323 109.25 199.498 108.463 198.574 108.092Z" fill="#AF6A1D"/>
<path d="M177.451 110.683C175.047 116.914 166.828 115.635 162.719 111.74C170.398 112.871 173.623 111.57 178.371 106.817C177.997 108.933 177.615 110.182 177.451 110.683Z" fill="#AF6A1D"/>
<path d="M142.975 115.052C140.309 118.642 134.749 117.579 133.75 113.196C135.939 116.545 139.772 116.132 142.975 115.052Z" fill="#AF6A1D"/>
<path d="M146.014 135.303C142.033 138.792 143.817 142.637 147.767 144.944C151.139 147.272 159.943 146.889 161.618 150.21C162.438 155.772 148.027 152.986 144.954 152.171C139.624 150.756 133.34 144.504 138.218 139.118C141.59 135.405 145.176 132.39 145.792 126.908C147.286 119.201 156.352 125.511 146.014 135.303Z" fill="#FCCA95"/>
<path d="M213.26 54.559C213.26 54.559 215.266 54.8618 216.596 55.0579C216.879 55.0996 217.183 55.1516 217.386 55.3557C217.645 55.6176 217.649 56.0338 217.634 56.4037C217.264 60.6898 217.566 65.2745 216.515 69.4044C216.17 69.7722 215.596 69.7648 215.096 69.7214C207.714 68.8025 200.358 67.2277 193.095 65.6998C192.604 65.3554 192.695 64.6113 192.832 64.0247C193.652 60.5095 194.142 56.9167 194.296 53.3093C194.266 52.5593 194.675 51.8597 195.474 52.1162C197.5 52.4521 201.295 52.9171 201.295 52.9171C201.295 52.9171 201.546 50.9407 201.986 50.8139C203.043 50.5088 206.102 51.2926 209.825 52.1288C210.053 52.18 213.11 52.735 213.271 52.9065C213.535 53.19 213.26 54.559 213.26 54.559Z" fill="#7946C6"/>
<path d="M213.258 54.5568C213.51 54.607 213.624 54.6188 213.875 54.669C213.67 55.7774 214.063 58.0824 212.702 57.9886C210.148 57.8126 205.875 56.809 202.476 56.3666C201.921 56.2669 201.321 56.142 200.955 55.7104C200.37 55.0979 200.182 52.212 201.591 52.9936C201.096 54.4128 202.837 55.1549 203.997 55.2111C206.651 55.5973 209.15 56.3976 211.804 56.7837C213.051 57.0921 213.252 55.4729 213.258 54.5568Z" fill="#453075"/>
<path d="M212.812 60.4767C213.456 60.5569 215.083 60.6294 215.047 61.2821C215.024 61.6843 212.661 61.1215 211.486 60.8937C207.202 60.1702 190.958 57.3217 197.276 57.8136C202.685 58.778 208.168 59.8983 212.812 60.4767Z" fill="#453075"/>
<path d="M212.398 62.7908C212.864 62.8316 214.544 62.7569 214.603 63.2248C214.652 63.6114 211.991 63.1882 210.904 62.9951C205.704 62.0718 195.898 60.4926 195.715 60.1218C195.303 59.2898 197.545 59.9882 198.456 60.1369C203.346 60.9354 208.254 62.4275 212.398 62.7908Z" fill="#453075"/>
<path d="M209.612 65.4328C209.737 65.4915 209.857 65.5796 209.994 65.5681C211.367 64.5807 200.802 63.4247 199.412 63.0954C198.337 62.9131 196.416 61.6381 196.238 62.7223C196.089 63.6341 206.31 63.8737 209.612 65.4328Z" fill="#453075"/>
<path d="M200.392 52.8036C199.08 53.8476 197.127 52.2574 195.824 53.2661C194.615 54.1948 194.176 64.2044 194.568 65.9996C193.944 65.8709 192.726 65.954 192.681 65.0412C192.48 60.9905 193.945 57.0179 194.225 53.0796C194.271 52.4206 194.544 51.6947 195.341 51.9467C197.051 52.2227 198.71 52.4245 200.392 52.8036Z" fill="#947EC6"/>
<path d="M202.724 50.7534C202.24 51.9887 202.266 53.7216 203.838 54.0343C205.571 54.6527 207.331 55.1925 209.113 55.6514C209.543 55.7508 210.14 55.9469 210.098 56.4894C207.191 56.013 201.966 55.5221 201.425 54.4427C201.047 53.6907 201.338 52.7485 201.377 51.9499C201.479 51.0874 201.67 50.5082 202.724 50.7534Z" fill="#947EC6"/>
<path d="M217.26 55.249C217.26 59.034 216.71 62.0873 216.439 65.5126C216.393 66.0933 216.402 66.769 215.987 67.1739C211.834 71.2185 201.939 66.1159 196.607 66.4364C202.923 67.8059 207.779 68.9017 214.087 69.6165C214.087 69.6165 215.799 69.9138 216.368 69.5257C217.034 69.0723 217.076 66.9415 217.127 66.2995C217.597 60.3498 218.434 55.686 217.26 55.249Z" fill="#453075"/>
<path d="M96.1184 121.595C96.1184 121.595 98.2613 121.035 99.6276 120.694C99.9187 120.621 100.234 120.55 100.52 120.683C100.887 120.852 101.077 121.291 101.228 121.689C102.792 126.383 105.123 131.07 105.97 135.905C105.803 136.437 105.248 136.666 104.747 136.826C97.4507 138.949 89.8673 140.009 82.4464 141.626C81.4316 141.965 80.9322 140.934 80.7925 139.992C78.0335 124.334 72.9945 127.721 83.9581 124.747C83.9581 124.747 83.3155 122.552 83.6814 122.236C84.5617 121.477 87.8537 121.043 91.8073 120.39C92.0496 120.35 95.2371 119.675 95.4679 119.791C95.8492 119.981 96.1184 121.595 96.1184 121.595Z" fill="#7946C6"/>
<path d="M96.1197 121.592C96.384 121.541 96.5777 121.455 96.8419 121.404C97.1213 122.63 98.4094 124.544 97.1996 125.401C94.292 127.461 90.1069 126.972 86.6418 127.907C86.064 128.031 85.4305 128.146 84.8856 127.841C84.1119 127.498 82.5401 124.457 84.2816 124.704C84.4078 126.335 86.3627 126.51 87.587 126.057C90.3111 125.37 93.0724 125.184 95.7965 124.497C97.1913 124.254 96.4761 122.512 96.1197 121.592Z" fill="#453075"/>
<path d="M98.416 127.991C99.071 127.81 100.668 127.215 100.925 127.92C101.083 128.355 98.5596 128.735 97.3273 128.98C91.86 130.064 81.2945 132.658 80.9254 132.232C80.5597 131.81 81.7871 131.696 82.2877 131.588C87.9193 130.375 93.6923 129.296 98.416 127.991Z" fill="#453075"/>
<path d="M99.0549 130.609C99.5215 130.46 101.104 129.687 101.37 130.157C101.59 130.546 98.8417 131.197 97.7098 131.442C92.2971 132.612 82.1631 134.99 81.8207 134.674C81.0527 133.963 83.5208 133.777 84.4629 133.558C89.5217 132.383 94.9086 131.935 99.0549 130.609Z" fill="#453075"/>
<path d="M97.5556 134.55C97.7015 134.561 97.857 134.604 97.9835 134.535C98.8485 132.926 88.2283 136.054 86.7032 136.289C85.5875 136.54 83.1696 135.984 83.484 137.205C83.7484 138.231 93.6835 134.264 97.5556 134.55Z" fill="#453075"/>
<path d="M83.0399 124.996C82.2457 126.642 79.6572 125.765 78.8547 127.371C78.5083 128.099 78.7692 129.017 79.0339 129.828C80.3292 133.797 81.1429 137.809 83.2692 141.457C82.6117 141.578 81.5006 142.091 81.1001 141.442C78.6514 137.476 78.7277 132.117 77.2342 127.834C77.011 127.167 76.8743 126.255 77.7999 126.175C79.568 125.76 81.2532 125.289 83.0399 124.996Z" fill="#947EC6"/>
<path d="M84.363 121.86C84.4978 122.886 84.6844 124.381 85.7553 124.725C87.9478 125.429 90.4195 124.582 92.6969 124.404C93.1799 124.323 93.8319 124.313 94.0193 124.884C91.0193 125.581 86.1129 126.747 84.7645 126.3C83.8649 126.001 83.9233 124.541 83.6031 123.682C83.3465 122.797 83.1846 122.046 84.363 121.86Z" fill="#947EC6"/>
<path d="M100.351 120.627C102.045 124.631 102.883 128.089 104.155 131.824C104.371 132.458 104.59 133.133 104.463 133.769C104.317 134.504 103.742 135.015 103.17 135.426C97.959 139.317 91.2732 138.455 85.5674 140.959C92.2521 139.801 97.3458 138.985 103.73 137.137C103.73 137.137 105.509 136.745 105.883 136.099C106.32 135.345 105.344 132.881 105.105 132.181C102.895 125.692 101.676 120.604 100.351 120.627Z" fill="#453075"/>
<path d="M111.71 62.9208C111.69 63.0425 115.153 63.0829 116.182 63.6155C116.458 63.8483 116.461 64.2179 116.446 64.5465C116.279 68.0853 116.004 71.6205 115.621 75.1473C115.644 76.1892 114.688 76.5237 113.752 76.3749C110.841 76.1636 107.965 75.7018 105.095 75.2407C100.405 74.4873 95.716 73.734 91.0267 72.9807C90.0826 72.9516 89.8284 72.1306 90.1275 71.3152C93.7053 59.3456 87.7663 60.2157 99.1072 61.4498C99.1072 61.4498 99.374 59.6944 99.8405 59.5817C100.963 59.3108 104.209 60.0069 108.159 60.7496C108.402 60.7951 111.646 61.288 111.815 61.4404C112.096 61.6922 111.71 62.9208 111.71 62.9208Z" fill="#7946C6"/>
<path d="M111.71 62.9233C111.977 62.9679 112.36 63.0047 112.626 63.0493C112.419 64.0999 112.575 65.9672 111.214 65.9586C108.293 65.94 103.972 64.9113 100.363 64.518C99.7746 64.4294 99.1371 64.3185 98.7489 63.9352C98.0606 63.297 98.0319 60.7941 99.424 61.5221C98.9128 62.9046 100.987 63.2666 102.042 63.4905C104.624 64.0382 107.473 64.3643 110.261 64.8885C111.46 65.1139 111.741 63.8516 111.71 62.9233Z" fill="#453075"/>
<path d="M111.329 68.1666C112.013 68.2378 113.739 68.3022 113.701 68.8819C113.677 69.2391 111.169 68.7393 109.922 68.5369C104.387 67.639 93.4937 66.2583 93.3172 65.8432C93.1423 65.4319 94.3337 65.7255 94.8438 65.8016C100.583 66.6578 106.402 67.6528 111.329 68.1666Z" fill="#453075"/>
<path d="M110.89 70.2233C111.385 70.2596 113.168 70.1932 113.23 70.6088C108.822 70.8341 93.5972 68.0085 93.1868 67.8532C92.7501 67.1137 95.129 67.7341 96.0954 67.8662C101.284 68.5753 106.493 69.9006 110.89 70.2233Z" fill="#453075"/>
<path d="M107.935 72.5667C108.067 72.6189 108.195 72.6971 108.34 72.6869C109.726 71.7857 98.5783 70.7903 97.1116 70.4907C95.9702 70.3288 93.9314 69.1963 93.7429 70.1593C93.5844 70.9692 104.431 71.182 107.935 72.5667Z" fill="#453075"/>
<path d="M98.1491 61.35C96.7578 62.277 94.6844 60.8649 93.3015 61.7608C92.6902 62.1725 92.5715 62.9038 92.4984 63.5606C92.1403 66.7757 91.3149 69.8748 91.8599 73.1152C91.1978 73.0009 90.0415 73.0768 90.0125 72.457C89.8726 69.4679 91.3087 65.0907 91.605 61.5951C91.6633 60.9059 92.0143 60.3842 92.7889 60.5889C94.6041 60.834 96.3643 61.0132 98.1491 61.35Z" fill="#947EC6"/>
<path d="M100.625 59.5263C100.059 60.8045 100.227 62.1632 101.806 62.4403C103.645 62.9896 105.514 63.469 107.404 63.8766C107.816 63.9651 108.43 64.0358 108.399 64.5555C105.303 64.1272 101.091 63.6579 99.2459 62.8031C98.5462 62.479 99.1501 61.3011 99.1951 60.5891C99.3066 59.7105 99.6069 59.3307 100.625 59.5263Z" fill="#947EC6"/>
<path d="M116.101 63.5957C116.101 66.9574 115.466 69.5999 115.178 72.6422C115.13 73.1579 115.068 73.7047 114.698 74.1177C109.09 77.1189 100.137 73.1774 94.043 73.4661C100.744 74.6824 105.989 75.6523 112.682 76.2872C112.682 76.2872 114.575 76.6746 115.18 76.3298C115.886 75.9271 115.75 73.9743 115.803 73.4041C116.302 68.1197 117.347 63.9839 116.101 63.5957Z" fill="#453075"/>
<path d="M223.574 125.667C223.574 125.667 225.48 125.247 226.695 124.991C226.954 124.937 227.235 124.885 227.479 125.005C227.792 125.159 227.936 125.538 228.049 125.88C229.186 129.915 231 133.979 231.499 138.106C231.326 138.554 230.828 138.735 230.381 138.859C223.692 140.431 216.798 141.396 210.015 142.372C209.474 142.218 209.3 141.51 209.219 140.93C208.733 137.455 207.936 134.017 206.843 130.676C206.575 130.019 206.652 129.241 207.456 129.203C209.319 128.848 212.754 128.034 212.754 128.034C212.754 128.034 212.3 126.148 212.636 125.889C213.446 125.265 216.354 124.982 219.853 124.529C220.068 124.502 222.896 124.01 223.093 124.114C223.418 124.286 223.574 125.667 223.574 125.667Z" fill="#7946C6"/>
<path d="M223.575 125.665C223.809 125.629 223.983 125.56 224.218 125.524C224.408 126.586 225.531 128.47 224.332 128.935C222.023 129.833 218.035 130.088 214.95 130.794C214.437 130.884 213.876 130.966 213.413 130.692C212.734 130.364 211.538 127.739 213.04 128.006C213.079 129.425 214.808 129.586 215.871 129.243C218.294 128.73 220.724 128.644 223.147 128.13C224.36 127.979 223.858 126.476 223.575 125.665Z" fill="#453075"/>
<path d="M225.27 131.169C225.853 131.032 227.283 130.566 227.473 131.174C227.591 131.548 225.359 131.806 224.266 131.982C220.338 132.717 205.27 135.433 210.949 133.811C215.947 132.925 221.063 132.157 225.27 131.169Z" fill="#453075"/>
<path d="M225.702 133.417C226.119 133.302 227.544 132.685 227.754 133.093C227.928 133.429 225.486 133.912 224.481 134.091C219.677 134.946 210.672 136.707 210.388 136.428C209.75 135.803 211.923 135.709 212.76 135.547C217.255 134.679 222 134.438 225.702 133.417Z" fill="#453075"/>
<path d="M224.187 136.729C224.315 136.742 224.449 136.783 224.563 136.728C225.373 135.379 215.94 137.769 214.585 137.926C213.594 138.111 211.502 137.575 211.717 138.622C211.897 139.503 220.806 136.384 224.187 136.729Z" fill="#453075"/>
<path d="M211.936 128.223C211.158 129.604 208.932 128.79 208.148 130.136C207.808 130.747 207.991 131.535 208.183 132.232C209.121 135.645 209.73 138.985 211.412 142.146C210.83 142.232 209.921 142.732 209.601 142.166C207.657 138.73 207.8 134.173 206.704 130.488C206.533 129.897 206.485 129.128 207.283 129.09C208.854 128.784 210.355 128.426 211.936 128.223Z" fill="#947EC6"/>
<path d="M213.253 125.589C213.32 126.469 213.467 127.626 214.331 128.064C216.31 128.465 218.427 128.064 220.433 127.972C220.851 127.918 221.428 127.917 221.569 128.415C218.901 128.93 214.01 129.815 213.384 129.379C212.719 128.916 212.733 127.861 212.496 127.12C212.305 126.335 212.231 125.713 213.253 125.589Z" fill="#947EC6"/>
<path d="M227.335 124.95C228.621 128.403 229.184 131.368 230.113 134.581C230.271 135.126 230.508 135.734 230.287 136.245C228.144 141.179 217.779 139.874 213.346 141.88C219.265 141.068 223.786 140.5 229.476 139.093C229.476 139.093 231.055 138.806 231.415 138.266C231.836 137.635 231.135 135.667 230.961 135.064C229.346 129.483 228.498 124.965 227.335 124.95Z" fill="#453075"/>
<path d="M228.896 54.6335C229.44 52.8372 230.96 50.659 231.704 54.1183C236.181 52.5994 235.233 54.6986 232.625 56.6119C233.988 59.7989 232.352 60.3069 230.456 58.0671C228.82 59.6051 225.461 61.7773 227.697 57.0217C224.827 55.3856 227.716 54.7536 228.896 54.6335Z" fill="#FFD26A"/>
<path d="M220.354 69.0641C219.92 69.8714 222.349 71.1724 223.006 71.7893C223.33 72.1272 223.901 72.0165 223.814 71.4831C223.405 70.3503 220.909 68.6715 220.354 69.0641Z" fill="#FFD26A"/>
<path d="M219.88 71.7835C219.213 72.0962 220.153 74.1776 220.669 74.4079C220.948 74.5117 221.101 74.2297 221.011 73.9838C220.844 73.1509 220.476 71.7166 219.88 71.7835Z" fill="#FFD26A"/>
<path d="M77.2899 142.275C76.3277 141.631 74.3578 143.329 73.1003 144.241C72.9405 144.357 72.7642 144.531 72.8216 144.72C73.5957 145.641 77.849 142.65 77.2899 142.275Z" fill="#FFD26A"/>
<path d="M78.3656 143.747C77.7309 143.14 76.1858 148.062 77.0889 148.277C78.1305 147.822 78.8424 143.806 78.3656 143.747Z" fill="#FFD26A"/>
<path d="M80.2126 145.14C79.8796 145.061 79.6268 145.882 79.5796 146.362C79.485 147.806 79.6472 149.934 80.489 149.01C80.5829 148.836 80.6732 145.248 80.2126 145.14Z" fill="#FFD26A"/>
<path d="M77.3672 117.31C75.1412 121.914 72.8705 121.312 74.1369 116.524C70.1137 116.146 69.2929 115.112 74.3036 113.388C74.0726 109.914 75.2635 109.312 77.1704 112.27C81.6515 109.794 81.6546 111.629 79.3866 114.359C83.3171 117.82 81.3768 118.197 77.3672 117.31Z" fill="#FFD26A"/>
<path d="M105.597 118.078C105.494 117.36 102.65 118.243 102.742 119.256C103.203 119.835 105.882 118.676 105.597 118.078Z" fill="#FFD26A"/>
<path d="M103.462 115.218C102.714 114.406 101.287 117.982 101.165 118.705C101.05 120.376 104.032 115.117 103.462 115.218Z" fill="#FFD26A"/>
<path d="M118.942 54.3743C119.269 52.3267 120.932 50.5449 121.352 53.7143C125.585 52.7268 122.665 55.4682 121.576 56.0512C121.576 56.0512 122.512 58.9044 121.679 59.3638C120.77 59.8648 119.675 58.7245 119.386 57.7216C117.853 59.1316 117.1 59.0263 116.859 58.887C116.099 58.551 117.602 56.6912 117.831 56.1446C117.234 55.7686 116.724 55.487 116.852 55.0082C117.033 54.3257 118.108 54.54 119.032 54.3191C119.041 54.3239 119.05 54.3287 118.942 54.3743Z" fill="#FFD26A"/>
<path d="M113.506 79.7632C112.987 80.1158 113.965 81.7284 114.425 82.3631C115.366 82.7603 113.776 79.2424 113.506 79.7632Z" fill="#FFD26A"/>
<path d="M115.538 78.4435C114.693 78.7648 119.292 81.9462 118.322 80.2676C117.767 79.6709 115.884 78.0943 115.538 78.4435Z" fill="#FFD26A"/>
<path d="M205.227 133.578C204.956 132.736 201.72 133.935 201.853 134.567C201.959 135.074 205.499 134.42 205.227 133.578Z" fill="#FFD26A"/>
<path d="M205.036 135.822C204.847 135.569 203.048 137.575 203.399 137.798C203.649 137.957 205.259 136.12 205.036 135.822Z" fill="#FFD26A"/>
<path d="M235.108 123.716C234.859 123.237 233.385 124.253 232.519 124.773C231.726 125.103 231.611 125.758 232.604 125.632C233.446 125.461 235.334 124.147 235.108 123.716Z" fill="#FFD26A"/>
<path d="M233.004 120.246C232.107 119.725 230.112 123.593 230.628 124.041C231.082 124.435 233.416 120.486 233.004 120.246Z" fill="#FFD26A"/>
<path d="M215.938 112.742C215.93 107.528 213.234 111.986 212.488 113.007C211.085 113.342 207.222 113.206 211.082 115.372C207.858 118.846 210.282 119.022 213.163 117.232C215.994 120.466 216.213 119.221 215.935 115.991C215.911 115.986 221.745 112.295 215.938 112.742Z" fill="#FFD26A"/>
<path d="M174.78 65.1519C175.032 63.5143 174.802 58.2654 177.162 63.8478C177.992 63.3876 178.821 62.9274 179.65 62.4672C182.336 61.3626 178.812 66.4922 178.33 67.1222C179.297 70.1739 180.75 72.1612 176.49 69.6775C174.33 72.5075 173.649 71.9779 174.298 68.6159C173.596 68.1732 172.33 67.9586 171.892 67.2751C171.821 66.9801 172.077 66.6931 172.346 66.5563C173.328 66.0565 174.78 65.1519 174.78 65.1519Z" fill="#FFD26A"/>
</g>
<defs>
<clipPath id="clip0_5301_34689">
<rect width="178" height="148" fill="white" transform="translate(71 45)"/>
</clipPath>
</defs>
</svg>
