<svg width="273" height="205" viewBox="0 0 273 205" fill="none" xmlns="http://www.w3.org/2000/svg">
<path d="M188.899 27.8668C181.932 25.1089 174.649 25.9275 168.431 30.1164C148.492 43.5481 135.798 39.2137 135.777 39.2207C134.46 39.6617 111.446 77.6828 111.446 77.6828C103.61 89.7082 87.6212 91.39 75.4891 97.5578C62.805 104.476 50.5909 117.792 52.2258 133.181C53.2551 142.378 61.3003 150.643 70.5545 151.376C70.582 151.378 70.6096 151.378 70.6371 151.377C79.582 150.84 86.9227 139.337 95.7893 139.337C105.416 139.337 97.3472 159.408 96.9995 160.561C93.2341 170.627 100.811 177.853 110.721 177.424C124.77 176.692 131.587 174.205 136.723 172.666C140.972 171.393 145.509 171.422 149.732 172.78C155.019 174.481 161.302 177.537 167.77 181.038C167.782 181.044 167.794 181.05 167.806 181.055C178.164 185.783 188.467 182.808 196.157 175.967C196.165 175.96 196.174 175.953 196.182 175.947C207.463 167.214 207.139 150.966 200.811 139.294C200.798 139.271 192.606 120.587 214.749 95.6442C224.233 84.9616 227.519 43.1547 188.899 27.8668Z" fill="#F1DFC5"/>
<path d="M110.534 78.6086L114.692 80.1096L117.288 77.6595L114.384 76.0481L111.546 75.5625L110.534 78.6086Z" fill="#FFF3E5"/>
<path d="M143.064 69.189C143.015 69.2221 141.769 71.6409 141.666 72.9975C141.563 74.3541 140.689 77.2016 140.689 77.2016L140.54 84.7342L145.985 85.9924L148.855 77.8638L148.657 71.5067L143.064 69.189Z" fill="#FFF3E5"/>
<path d="M137.752 47.3646C150.172 45.9684 161.912 55.6264 161.912 55.6264C166.654 59.8866 163.037 65.5188 157.189 64.4991C152.774 63.9877 152.308 69.1431 148.871 70.4987C141.066 73.4285 140.442 63.835 146.438 61.3194C147.243 60.5356 151.923 54.3177 142.143 55.8409C128.309 57.3594 137.213 81.1111 119.405 76.5121C114.815 72.7179 115.505 68.2653 113.269 66.9105C109.407 64.3652 107.5 72.981 109.578 72.6005C111.508 72.2471 113.725 72.9402 113.725 72.9402C116.126 78.479 102.342 80.4147 98.8504 78.1667C92.1632 73.8608 99.7615 63.0476 103.734 58.8363C109.249 52.9892 108.577 54.1509 117.724 50.2741C127.053 46.3198 134.125 47.7923 137.752 47.3646Z" fill="#EA9C47"/>
<path d="M119.137 175.409C118.713 172.498 117.322 165.814 121.684 165.858C122.574 167.232 138.275 175.495 138.323 175.375C137.356 177.78 119.137 175.409 119.137 175.409Z" fill="#1D273D"/>
<path d="M121.574 165.968C123.967 164.99 126.839 166.672 128.135 168.36C126.021 170.469 130.175 170.583 131.622 170.615C134.378 170.676 137.255 172.55 137.486 175.376C134.667 175.292 131.54 175.335 128.736 175.101C126.233 174.87 121.916 174.568 121.425 171.497C121.158 169.752 122.299 167.418 121.574 165.968Z" fill="#292F73"/>
<path d="M128.135 168.36C128.057 168.248 127.116 167.233 126.117 166.831C124.999 166.38 122.402 165.709 122.112 165.793C122.861 165.576 124.902 165.217 125.156 165.2C126.845 165.088 127.698 165.615 127.938 165.8C129.188 166.765 128.357 168.138 128.135 168.36Z" fill="#475196"/>
<path d="M208.38 75.3819C226.219 103.245 211.232 136.192 178.086 139.552C176.416 139.066 179.922 161.52 161.633 156.794C161.633 156.794 167.871 129.982 171.68 129.346C199.564 124.682 208.357 75.3486 208.38 75.3819Z" fill="#453075"/>
<path d="M109.549 170.758C106.23 166.396 98.4401 155.872 99.7979 154.73C100.995 153.722 107.797 148.051 108.39 150.582C106.337 152.827 108.499 166.671 109.984 170.861C109.826 170.929 109.679 170.845 109.549 170.758Z" fill="#1D273D"/>
<path d="M108.302 150.602C110.463 152.445 113.016 156.908 109.028 158.03C108.861 158.287 109.353 158.869 109.512 159.131C115.033 168.279 111.146 170.796 109.985 170.861C107.833 166.406 104.711 162.24 103.51 157.325C102.648 153.959 106.283 152.439 108.302 150.602Z" fill="#292F73"/>
<path d="M110.912 170.491C112.11 167.987 112.535 165.576 111.076 162.559C110.423 161.207 109.165 160.213 108.795 158.708C108.714 158.453 108.642 157.975 109.039 158.019C110.325 160.252 113.095 161.404 113.728 164.048C114.355 166.5 113.267 169.443 110.912 170.491Z" fill="#475196"/>
<path d="M109.364 157.922C110.89 156.506 111.367 155.106 110.311 153.233C112.53 154.849 112.806 158.422 109.364 157.922Z" fill="#475196"/>
<path d="M138.723 38.2492C138.723 38.2492 138.246 41.0802 137.63 42.342C136.262 42.5851 117.373 48.7344 107.942 54.2635C99.8057 59.034 101.395 63.4169 95.5229 62.2688C73.5587 57.9747 81.2502 49.0711 81.2502 49.0711C117.19 53.9763 111.858 37.6954 117.359 26.7716C123.85 21.8257 133.195 23.2499 137.084 29.3128C138.537 31.5788 139.228 35.0071 138.723 38.2492Z" fill="#B18762"/>
<path d="M80.3661 50.5919C81.0364 62.3593 93.4088 60.9631 101.906 55.5337C108.204 51.5098 113.695 51.6381 115.734 44.3203C116.468 41.6874 116.235 39.9782 116.702 37.9775C117.336 38.5201 118.722 38.1878 118.898 39.0316C119.761 43.4618 125.794 44.364 123.55 49.2467C123.254 50.1037 122.108 49.6596 120.965 49.5975C118.13 49.4434 115.936 51.6545 113.757 53.2272C104.696 57.8072 107.084 54.1511 98.4977 65.9931C98.4977 65.9931 73.9835 66.7211 80.3661 50.5919Z" fill="#806041"/>
<path d="M208.379 75.3823C208.288 75.2627 205.421 71.4899 203.928 69.7646C203.335 69.7952 177.202 60.2201 176.533 60.0142C171.933 59.2208 159.696 65.622 147.884 74.2834C147.884 74.2834 147.959 81.745 146.814 82.9954C146.486 83.1129 146.3 83.1664 146.007 83.3646C145.806 83.9674 145.556 84.8153 144.889 85.0156L144.447 84.9484C142.395 83.1164 143.512 79.9927 143.189 77.6331C141.559 78.9082 142.623 84.7884 141.509 84.1863C140.782 83.7932 141.177 77.7514 141.24 77.3323C141.156 77.3671 139.456 77.5113 138 78.8882C136.877 79.9505 136.81 82.3905 136.81 82.3905C136.838 84.1607 137.642 86.018 139.251 87.2057C151.555 95.5995 161.692 80.8449 173.92 81.8263C185.495 81.7168 191.923 92.6871 190.388 103.543C188.54 115.314 177.833 120.794 166.956 123.951C165.232 124.855 159.818 124.672 159.227 126.986C158.206 132.687 161.038 156.533 161.038 156.533L161.346 156.682C161.641 156.825 161.967 156.895 162.294 156.877C171.061 156.419 168.722 135.051 170.994 134.064C202.308 134.156 218.698 103.575 208.379 75.3823Z" fill="#7946C6"/>
<path d="M117.256 82.251C119.406 79.5031 120.499 79.0036 130.49 76.9035L130.228 75.5501C130.228 75.5501 123.238 78.6539 115.112 74.6508L114.677 74.2344L114.59 75.276L115.964 75.9313C116.797 76.7797 115.31 80.1307 114.428 79.9432L113.947 79.8308L113.805 80.5647C111.866 90.1192 115.94 125.947 116.378 135.553C115.771 138.863 112.506 141.302 110.96 144.277C112.337 146.532 113.905 150.759 114.328 153.193C114.881 156.384 114.628 158.748 116.643 153.253C117.216 157.446 116.147 162.973 114.846 167.357C115.26 168.523 117.812 168.083 118.285 166.772C122.685 154.58 113.158 87.4893 117.256 82.251Z" fill="#8AA0BC"/>
<path d="M109.795 44.8989C107.234 50.6738 100.4 52.0354 94.7942 50.8468C90.3134 50.1311 83.7934 54.9864 81.251 49.0713C90.9983 38.3742 100.55 53.9159 109.795 44.8989Z" fill="#D2A880"/>
<path d="M96.2231 72.6338C94.2126 82.9641 111.585 83.089 113.942 74.7638C113.684 75.6753 97.256 82.5537 96.2231 72.6338Z" fill="#AF6A1D"/>
<path d="M137.084 29.3125C134.302 28.0332 132.401 29.0749 129.954 26.9316C128.145 25.4532 127.857 23.5409 126.475 24.6399C121.621 28.1217 117.569 26.7902 117.361 26.7726C117.934 25.885 120.912 21.6319 127.197 21.6426C133.221 21.7925 136.648 28.4271 137.084 29.3125Z" fill="#D2A880"/>
<path d="M138.324 175.375C137.77 175.327 136.9 175.598 136.869 174.785C136.141 170.149 131.176 171.344 127.951 170.13C125.896 169.102 130.918 169.041 131.777 168.982C135.798 168.704 139.52 171.249 138.324 175.375Z" fill="#475196"/>
<path d="M121.647 166.129C120.459 166.271 118.643 167.678 116.695 167.958C120.577 167.4 116.921 114.684 115.607 94.4386C114.495 77.3075 117.095 79.2987 130.49 76.9033C130.49 76.9033 133.044 96.3832 135.76 105.704C138.713 115.835 133.774 124.696 128.045 132.748C126.509 134.613 125.638 136.706 125.483 139.094C123.341 143.929 123.879 131.919 123.555 130.522C139.998 107.74 124.147 86.7024 124.541 86.2077C115.714 97.2977 128.793 165.45 127.627 165.606C126.719 165.727 124.394 165.674 121.647 166.129Z" fill="#CCDCEE"/>
<path d="M136.81 82.3902C145.692 97.0872 158.712 82.6954 165.178 79.6117C175.229 74.2516 188.865 80.0775 191.488 91.4672C192.707 96.7617 191.432 100.944 190.148 104.808C190.981 102.3 187.847 80.2273 169.294 84.8892C162.894 86.4974 159.955 91.5234 152.64 95.1224C143.838 99.4523 136.246 91.3923 136.81 82.3902Z" fill="#453075"/>
<path d="M187.598 111.044C182.222 123.372 175.04 124.213 164.56 126.077C163.173 126.323 160.561 126.085 160.549 127.853C160.385 152.969 161.169 156.596 161.169 156.596C158.287 155.57 157.478 151.234 156.93 148.381C156.56 145.931 154.887 120.954 157.627 121.881C168.318 121.459 181.106 120.289 187.598 111.044Z" fill="#947EC6"/>
<path d="M127.626 165.606C120.755 148.649 118.71 106.701 122.112 88.7696C122.894 84.6442 126.361 81.8305 124.682 85.8809C118.005 101.988 125.977 150.889 127.46 155.984C128.328 158.966 131.192 165.251 127.626 165.606Z" fill="#E7F1FC"/>
<path d="M125.868 76.586L129.188 73.2089C135.162 66.2237 129.179 57.8713 142.852 55.5203C148.388 54.563 154.857 59.5581 146.613 61.8941L143.607 63.3205C143.258 56.7202 134.671 59.802 136.284 65.6358C137.757 71.3313 132.752 76.0701 125.868 76.586Z" fill="#AF6A1D"/>
<path d="M125.483 139.094C125.098 134.275 127.78 132.624 129.371 130.158C140.852 112.359 133.692 102.242 130.502 85.5452C129.371 79.6259 130.093 77.9185 130.697 78.4304C130.697 78.4304 131.517 83.7017 131.678 84.4487C137.623 112.178 142.989 114.022 125.483 139.094Z" fill="#E7F1FC"/>
<path d="M161.158 177.809C160.619 176.805 173.285 166.699 165.975 162.648C184.196 161.557 176.356 188.493 161.158 177.809Z" fill="#453075"/>
<path d="M165.974 162.648C165.974 162.648 174.305 165.986 171.518 174.26C169.939 178.946 165.4 178.934 162.987 178.581C161.845 178.414 160.813 177.747 160.167 176.731C160.044 176.538 159.925 176.336 159.808 176.126C162.281 167.582 165.047 163.031 165.214 162.834C165.455 162.727 165.573 162.703 165.974 162.648Z" fill="#7946C6"/>
<path d="M165.215 162.834C165.175 163.089 165.165 163.398 165.241 163.616C165.577 164.795 164.768 165.839 164.176 166.743C163.415 167.816 162.562 168.881 162.288 170.229C161.844 171.907 162.042 173.768 161.004 175.237C160.701 175.695 159.877 176.239 159.808 176.126C158.811 174.499 158.181 173.466 158.408 170.97C158.788 166.778 161.645 164.079 165.215 162.834Z" fill="#947EC6"/>
<path d="M143.33 69.859C145.656 70.9177 148.203 71.3277 150.387 69.3695C151.945 68.1838 152.268 65.9535 154.133 65.0665C157.262 63.3711 162.151 64.0695 164.078 60.0142C164.915 62.5679 161.635 66.9458 158.014 67.2874C155.992 67.4782 153.387 67.2961 152.445 69.5767C150.913 73.9802 145.567 73.1339 143.33 69.859Z" fill="#AF6A1D"/>
<path d="M143.606 63.3201C144.451 62.1125 151.503 58.3354 152.537 60.0703C152.734 60.4014 152.658 61.0694 152.325 61.4569C150.213 63.912 144.648 62.9539 143.991 66.3798C143.611 68.3662 143.068 69.0884 142.758 68.9285C142.758 68.9285 141.36 65.9926 143.606 63.3201Z" fill="#FCCA95"/>
<path d="M138.597 78.0771C138.176 77.5492 138.901 77.0386 139.297 76.6681C139.978 76.0009 140.424 75.0585 140.925 74.2458C141.083 73.9896 141.501 73.1089 141.671 73.0026L141.666 72.9976C141.645 73.6435 141.291 77.0369 141.239 77.332C140.817 77.8766 139.195 78.7194 138.597 78.0771Z" fill="#C4AB9A"/>
<path d="M146.178 72.1523C146.721 72.3585 147.114 72.4156 147.67 72.4534C147.67 72.4534 147.96 74.3076 147.951 75.7726C147.937 77.7847 148.008 79.9389 147.309 81.8481C147.293 78.5987 147.521 75.1963 146.178 72.1523Z" fill="#C4AB9A"/>
<path d="M143.189 77.6331C142.228 79.4799 142.911 81.5873 142.227 83.6917C142.024 84.3143 141.638 84.2286 141.638 84.2286C141.638 84.2286 142.02 83.5434 142.076 82.2383C142.161 80.2636 142.208 77.33 143.189 77.6331Z" fill="#C4AB9A"/>
<path d="M144.889 85.0155C144.777 85.0567 144.559 85.0694 144.447 84.9483L144.588 80.8343C144.6 80.4724 144.625 80.1107 144.662 79.7505C145.235 74.1546 144.908 83.2359 144.889 85.0155Z" fill="#C4AB9A"/>
<path d="M146.007 83.3645C145.978 82.2923 146.297 78.3132 146.382 78.2032C146.495 77.8558 146.569 78.3366 146.557 78.5364C146.507 79.5829 146.681 82.4568 146.814 82.9953C146.814 82.9953 146.482 83.4747 146.007 83.3645Z" fill="#C4AB9A"/>
<path d="M111.097 144.022C114.206 147.629 114.501 151.99 114.532 152.149C114.755 153.265 114.807 157.065 115.4 156.201C114.01 158.832 114.664 160.412 113.948 160.224C113.604 160.056 113.461 159.734 113.339 159.399C114.038 157.67 108.096 148.598 108.03 148.058C108.234 147.689 109.856 146.187 111.097 144.022Z" fill="#CCDCEE"/>
<path d="M108.273 147.745C110.375 149.347 114.717 157.02 113.34 159.399C112.294 152.966 105.597 150.327 108.273 147.745Z" fill="#E7F1FC"/>
<path d="M115.962 75.8518C116.269 75.9749 116.366 76.2023 116.344 76.5181C116.315 76.7607 116.257 77.0863 116.117 77.4615C115.377 76.6535 113.155 76.8058 112.898 76.9033C113.407 76.2121 113.726 75.4033 113.881 74.9746C113.881 74.9746 115.639 75.7225 115.962 75.8518Z" fill="#C4AB9A"/>
<path d="M133.267 38.6743C134.045 40.1568 134.786 42.6175 136.98 42.1496C137.233 42.0759 137.605 41.957 137.63 42.3419C136.743 44.0079 136.279 46.7543 134.739 47.707C131.772 47.3292 126.173 51.9405 126.574 47.0324C126.83 43.9075 130.068 42.1258 130.775 39.3893C131.096 38.4619 132.512 39.2712 133.267 38.6743Z" fill="#806041"/>
<path d="M161.337 56.1364C159.123 57.0099 155.001 53.7492 145.393 48.8305C144.478 48.3622 145.004 47.7016 145.611 47.8017C150.177 48.5547 159.205 52.6688 161.912 55.6263C161.912 55.6263 161.623 56.0235 161.337 56.1364Z" fill="#FCCA95"/>
<path d="M128.417 49.0652C131.39 47.9934 134.562 47.2435 137.753 47.3649C136.106 48.2168 134.074 48.2593 132.56 49.5438C130.771 50.8883 123.252 55.4297 123.075 51.2806C124.05 49.7431 126.776 50.1713 128.417 49.0652Z" fill="#FCCA95"/>
<path d="M119.257 76.1563C110.912 74.6069 115.734 71.5855 113.522 65.7123C110.862 58.6526 116.237 60.888 116.397 66.0708C116.531 70.399 116.846 72.8128 119.257 76.1563Z" fill="#FCCA95"/>
<path d="M114.169 69.9989C113.913 69.9869 112.335 68.8969 111.696 71.3355C111.51 71.6024 107.297 70.7908 105.45 71.4504C104.468 71.935 103.711 71.7156 104.332 70.5073C106.305 66.8051 110.558 63.8219 113.976 67.2935C113.976 67.2935 114.284 68.3444 114.169 69.9989Z" fill="#AF6A1D"/>
<path d="M104.252 71.608C106.486 70.5986 109.81 70.5361 111.696 71.3354C113.11 71.9347 113.725 72.9402 113.725 72.9402C110.08 71.9286 106.018 73.5609 102.78 75.2972C97.6373 78.0543 100.637 73.3336 104.252 71.608Z" fill="#FCCA95"/>
<path d="M106.75 56.3914C107.296 55.862 112.013 54.5008 114.453 52.478C115.295 51.8599 117.65 50.3582 117.821 50.3608C117.75 50.4514 116.072 52.1064 115.617 52.866C115.33 53.344 115.042 53.8213 114.741 54.2902C114.181 55.1624 113.426 55.7758 112.417 56.0673C111.948 56.2026 106.912 56.3934 106.75 56.3914Z" fill="#AF6A1D"/>
<path d="M128.417 49.0653C128.337 49.1478 127.677 50.4241 125.186 50.4145C124.315 50.4238 122.382 49.898 122.236 49.7428C123.391 49.0077 123.155 46.8341 123.155 46.8341C123.488 46.704 127.658 46.9528 127.833 46.8005C127.833 46.8005 128.166 48.4806 128.417 49.0653Z" fill="#FFF3E5"/>
<path d="M122.927 44.9625C123.051 44.973 127.242 44.9658 127.781 44.5669C127.757 45.1154 127.834 46.8004 127.834 46.8004C127.834 46.8004 127.032 47.9785 125.402 48.0735C124.455 48.0694 123.448 47.8286 123.155 46.834C123.155 46.834 123.009 45.584 122.927 44.9625Z" fill="#C4AB9A"/>
<path d="M133.268 38.6741C132.166 39.9243 131.148 39.1643 131.148 39.1643C127.815 48.6165 121.319 46.9449 118.6 38.6033C116.087 39.2442 115.621 35.3249 117.067 34.001C117.523 33.6168 118.304 33.8067 118.789 34.1438C121.069 34.506 124.497 30.3618 125.462 28.355C125.665 27.7077 126.215 27.685 126.364 28.3927C126.969 29.907 130.093 34.7714 131.316 34.1906C133.787 33.0175 134.346 37.3002 133.268 38.6741Z" fill="#FFF3E5"/>
<path d="M124.587 86.1172C128.397 89.6193 139.43 115.095 123.554 130.522L123.115 127.795C131.172 120.296 129.533 98.2601 124.315 86.8426L124.587 86.1172Z" fill="#8AA0BC"/>
<path d="M147.884 74.2831C147.825 73.6378 147.728 73.0987 147.67 72.4535C152.787 72.7763 151.13 67.9166 155.049 67.5378C160.982 66.9643 165.388 63.1615 163.686 57.9913C163.686 57.9913 171.206 55.5415 178.045 55.7806C192.271 56.278 201.944 67.537 203.927 69.7646C202.492 71.2853 200.081 70.2118 198.588 69.339C174.741 55.3997 156.062 68.5859 147.884 74.2831Z" fill="#947EC6"/>
</svg>
