<svg width="186" height="278" viewBox="0 0 186 278" fill="none" xmlns="http://www.w3.org/2000/svg">
<path d="M33.3722 79.3902C31.9275 78.1287 28.9306 75.8236 27.6245 74.4457C20.3881 66.9078 16.4618 54.0254 23.9158 45.1161C33.5678 31.7816 51.2292 39.0999 63.8867 43.3887L99.1295 27.267C105.302 18.6767 121.056 12.4648 128.348 20.0462C130.568 22.354 131.566 25.5637 131.168 28.7356C126.972 62.1725 159.676 43.5812 165.931 69.5654C167.564 82.531 156.703 91.0533 146.153 96.0342C129.596 103.371 115.364 104.717 111.428 101.285C111.428 101.285 125.546 123.036 128.841 120.108C129.049 119.846 132.48 123.755 133.356 125.803C136.556 133.604 127.883 136.393 128.375 140.601C105.078 130.325 33.3722 79.3902 33.3722 79.3902Z" fill="#F1DFC5"/>
<path d="M36.1765 85.6177C35.8586 85.1389 35.5546 84.6478 35.2852 84.1401C34.5456 82.7462 33.6059 81.6381 32.0399 81.0789C32.0078 80.8588 32.1737 79.1822 32.3566 78.8307C32.5785 78.1558 33.1798 78.0493 33.7496 77.9648C36.7315 77.5231 39.7286 77.1779 42.734 76.9784C46.4978 76.7285 81.1743 76.2056 81.6434 76.4612C81.7569 76.5457 82.0248 77.3626 82.0797 77.4923C82.3559 80.6648 82.2858 83.8338 81.8954 86.9925C81.7978 87.7819 81.8469 88.5811 81.6848 89.3603C81.566 89.8114 81.1782 89.9418 80.7989 90.061C78.164 90.8883 75.9476 92.4265 73.8251 94.1227C73.5094 94.4126 73.4499 94.8558 73.1927 95.1811C72.2228 96.7106 72.6853 98.6156 73.6371 99.9594C74.6639 101.409 76.2863 101.746 77.5126 102.751C77.7392 102.937 78.0348 103.072 78.3173 103.038C79.9304 102.845 80.5401 103.906 81.0298 105.14C81.3007 106.978 80.7326 108.793 80.8938 110.631C80.9469 111.237 80.9214 111.854 80.8972 112.465C80.8803 113.143 80.9275 113.822 80.8882 114.5C81.0333 118.262 80.8189 122.018 80.6801 125.775C80.6377 126.923 80.4051 127.107 78.9194 127.358C76.2851 127.498 68.8605 128.012 67.7767 127.986C67.0924 128.123 58.5828 128.48 57.6524 128.778L57.6628 128.772C57.1039 129.01 34.8877 130.523 34.7597 130.531C34.0224 130.585 32.6205 130.683 32.5932 130.397C32.5093 129.519 32.557 127.942 32.4728 126.763C32.4422 126.335 32.3454 117.825 32.2374 114.939C32.0212 109.166 32.0408 103.392 32.0369 97.6212C32.0243 97.5023 32.0441 97.3846 32.0934 97.2752C32.732 97.2454 32.5718 97.7726 32.6316 98.0995C32.7312 98.6431 33.0332 98.7988 33.4717 98.5428C34.0476 98.2067 34.6327 98.2282 35.2557 98.2881C36.1054 98.3698 36.7454 98.0329 37.0582 97.2086C37.2563 96.6868 37.5924 96.2813 37.9935 95.9011C38.5449 95.3783 38.8342 94.7207 38.7496 93.9523C38.6998 93.4997 38.7776 93.096 38.9968 92.7041C39.1621 92.4088 39.1973 92.0905 39.1094 91.7603C38.9785 91.2684 38.8347 90.8001 38.158 91.1458C37.9061 89.9957 37.6244 88.8574 37.1268 87.7811L36.1765 85.6177Z" fill="#947EC6"/>
<path d="M133.356 55.8207C131.835 56.9326 129.122 59.1232 126.769 59.6305C116.603 62.1372 102.729 55.4393 103.652 44.2802C103.609 42.0521 103.917 42.227 103.917 42.227C104.176 41.9999 100.899 39.3448 101.17 39.5037C103.723 41.3451 109.489 44.5699 111.332 44.4679C111.235 44.2963 109.901 43.0823 109.515 42.9003C107.308 41.0034 105.235 38.981 103.652 36.5226C99.6535 30.65 96.093 24.5187 92.4633 18.4193C91.1801 16.5929 91.1081 14.4223 90.5641 12.3631C90.3427 12.1365 88.31 11.337 88.1744 11.256C85.5006 10.1467 82.2825 10.4116 79.4822 11.0227C74.4544 14.764 67.7499 20.4838 70.1053 27.6053C70.6358 29.0951 70.1946 29.1864 68.97 30.3172C68.0488 32.3362 72.9194 29.8644 73.6118 29.3965C74.1591 27.3393 76.8082 26.837 78.1704 25.364C78.7628 24.8749 79.3426 24.5675 80.114 24.8093C81.1866 24.5086 81.5357 21.6763 82.5397 22.6024C83.2877 22.4447 83.7508 22.8846 84.2166 23.3641C86.5632 25.78 89.0893 27.9781 92.0591 29.6152C93.1617 30.4742 92.5016 31.7742 94.4511 30.2417C100.884 27.4634 100.551 37.8146 95.6901 39.5403C95.3886 39.6723 94.922 39.6423 94.9367 40.1649C97.0213 47.1813 98.8282 55.1053 104.542 60.2797C107.13 61.3019 108.402 63.7336 109.954 65.8261C118.029 72.5495 134.222 72.2897 137.035 60.3652C136.317 57.6406 133.356 55.8207 133.356 55.8207Z" fill="#B18A5F"/>
<path d="M93.2458 30.8062C98.5023 26.2355 101.471 33.6288 98.2097 37.8057C97.5717 38.623 97.148 38.9634 96.1641 39.6033C96.1641 39.6033 90.7452 47.353 87.8455 49.9646C80.2025 59.2467 71.546 47.4823 68.7751 40.6693C66.8529 41.218 65.2422 39.8649 64.8651 38.1722C64.8651 38.1722 64.4992 37.456 64.4293 36.8676C64.2882 35.4854 64.285 34.1245 64.4292 32.7427C64.4786 32.2687 64.6474 31.9452 64.6469 31.8732C64.9786 30.882 65.168 30.7993 65.3023 30.5685L65.3015 30.5691C65.3752 30.4973 65.4482 30.4249 65.5198 30.351C65.5198 30.351 65.6663 30.2074 65.7383 30.1339L65.7377 30.1345C65.8135 30.0648 66.2187 29.874 66.2948 29.8047C66.5484 29.1701 69.0223 29.4633 69.2104 30.5875C69.5421 30.9717 69.9391 30.808 70.2999 30.6803C74.6796 28.6544 79.7897 26.308 81.9546 21.7256C84.8089 25.6219 88.4023 28.152 92.9954 30.7954C93.0852 30.8471 93.1597 30.8638 93.2458 30.8062Z" fill="#FFF3E5"/>
<path d="M56.3983 130.207C57.1635 129.703 58.3948 129.672 58.539 129.657C59.3509 129.572 61.3745 129.638 61.5915 129.658C62.3427 129.73 64.5331 129.886 65.0621 129.839C65.677 129.784 66.3366 129.539 66.6285 129.46C66.685 129.472 66.7269 129.446 66.7835 129.457C68.9295 130.138 71.0845 130.771 73.3762 130.661C75.3975 130.7 77.2317 130.056 78.9727 129.11C79.8019 128.659 80.6079 128.158 81.4932 127.829C82.2744 127.538 83.0778 127.488 83.7255 128.147C84.2497 128.681 84.229 129.606 83.7046 130.472C82.6232 132.257 80.9422 133.333 79.0975 134.143C77.1172 135.013 75.01 135.473 72.8399 135.37C69.3367 135.205 65.9729 135.749 62.7026 137.001C60.0054 138.034 58.5643 139.94 58.4075 142.814C58.3743 143.423 58.4208 144.069 57.7893 144.459C57.6711 144.513 57.6685 144.65 57.6685 144.65C57.6685 144.65 51.6701 139.016 54.394 133.135C54.5341 133.024 54.8125 131.251 56.3983 130.207Z" fill="#F2F2F2"/>
<path d="M66.3652 157.467C66.4331 157.262 66.3419 157.363 66.6222 157.431C67.276 157.689 67.4646 158.287 67.6678 158.869C68.0295 159.906 69.1628 161.286 69.1938 162.359C69.247 164.203 70.7972 166.063 71.198 182.947C71.2324 186.926 69.3873 192.002 69.3331 195.98C69.2778 200.035 68.8008 204.057 68.1546 208.059C68.0915 208.45 68.0236 208.848 67.7614 209.172C67.1994 209.568 66.6525 209.638 66.2056 209.381C65.7575 208.995 65.4349 208.754 65.3311 208.11C65.4277 207.575 65.7941 181.538 65.8777 178.336C65.9576 175.269 66.4173 157.516 66.3652 157.467Z" fill="#2D399D"/>
<path d="M30.5393 81.6055C30.7542 81.3295 31.8536 80.9767 31.925 80.9707C31.9634 81.0069 32.0018 81.0431 32.0404 81.0791C34.2436 82.5376 35.4253 84.8025 36.553 87.0394C37.2354 88.3931 38.0567 89.7612 38.1195 91.365C38.0549 91.4511 37.9691 91.5039 37.8631 91.5237C37.287 91.4287 37.086 90.9155 36.7858 90.5309C35.4991 88.8829 34.1469 87.296 32.5443 85.9141C32.8191 86.5846 33.2385 87.1644 33.6786 87.7329C34.1199 88.303 34.5455 88.8845 35.0006 89.4449C35.7023 90.3089 36.548 91.0664 37.0241 92.1016C37.1146 92.282 37.1977 92.4659 37.2721 92.6539C37.3065 92.7503 37.3249 92.8498 37.3312 92.9518C37.2043 93.6751 36.8139 93.4072 36.4972 93.1375C35.8345 92.5732 35.238 91.9365 34.6327 91.3122C33.8982 90.5547 33.0835 89.8978 32.1756 89.3352C33.1821 90.4585 34.2496 91.5234 35.3209 92.5842C35.8123 93.0707 36.2954 93.5644 36.5994 94.1931C36.7705 94.547 36.9687 94.9106 36.7881 95.3291C36.7141 95.4029 36.6257 95.4522 36.5256 95.4815C35.884 95.542 35.5442 95.0664 35.1842 94.6822C34.0399 93.4608 32.6929 92.4977 31.3071 91.5761C32.6079 92.5913 33.7126 93.8091 34.8663 94.9743C35.3523 95.4652 35.8144 96.0008 35.5249 96.7882C35.4627 96.872 35.3786 96.9218 35.2768 96.9433C35.0281 96.9483 34.7862 96.887 34.5401 96.8623C34.2466 96.8242 33.9735 96.7239 33.7106 96.592C33.579 96.5303 33.4498 96.4637 33.3187 96.3997C33.2269 96.3618 33.139 96.3173 33.0508 96.272C31.3668 95.4638 30.0905 94.1177 28.6561 92.9794C28.1311 92.5628 27.6953 91.9912 26.9522 91.9188C26.8528 91.9386 26.9522 92.5738 26.877 92.5076C26.6037 92.1082 26.2302 91.5635 26.1482 91.0279C26.1084 90.7681 26.3213 90.3017 26.3213 90.3017C26.3213 90.3017 25.9311 89.8485 25.9478 89.4666C25.9751 88.8403 26.6174 88.4427 26.6924 88.3716L26.6922 88.372C26.9571 88.0474 26.2666 87.406 26.8133 86.6526C26.9702 86.4362 27.9254 86.0514 27.9984 85.9803C27.9991 85.6911 27.9121 84.51 28.1798 84.129C28.7537 83.312 30.0068 83.5761 30.1814 83.3728V83.3731C30.1814 83.3731 30.0954 82.1754 30.5393 81.6055Z" fill="#FFF3E5"/>
<path d="M27.2079 91.5842C27.6923 91.8876 28.1705 92.2119 28.6047 92.5818C30.0767 93.8358 31.4925 95.1591 33.1822 96.1343C33.2099 96.1503 33.4713 96.4898 33.4908 96.5199C33.9949 98.0695 32.1572 97.2874 32.1572 97.2874C32.0241 97.2662 31.7143 96.992 31.4945 96.8309C31.4945 96.8309 28.0077 94.1545 27.5327 93.5788C26.8586 92.7618 26.6575 92.0098 26.691 91.8454C26.691 91.8454 26.971 91.4357 27.2079 91.5842Z" fill="#E0CBAF"/>
<path d="M61.3535 66.6242C61.8778 65.5972 62.0008 65.4883 62.4637 65.1077C63.4273 64.3156 65.7682 66.0471 67.1936 63.0374C67.4354 62.565 68.7261 62.7439 69.1614 62.7514C69.5567 63.0902 69.0372 63.5231 69.0536 63.9012C68.6969 65.2455 68.9226 66.5657 69.2236 67.881C70.7481 70.6014 73.5025 73.6277 75.8901 70.2133C76.9818 68.4072 78.0327 70.2019 79.4079 70.3978C81.9424 70.8545 84.4652 71.3148 86.864 69.8341C90.1106 66.7078 90.3294 70.7198 94.4655 70.0912C100.717 69.1911 97.4783 63.0238 95.7164 59.4842C95.8439 59.0141 96.2607 58.9089 96.6368 58.8706C101.099 57.4979 104.354 61.1618 106.174 64.8012C109.509 76.5369 113.942 88.7778 125.439 94.926C128.022 96.0813 130.323 99.0226 133.184 98.569C133.816 99.437 136.144 103.473 135.985 104.434C134.531 113.622 126.01 119.818 117.425 122.021C111.357 123.439 104.533 119.245 104.518 112.762C104.732 109.788 102.161 109.464 103.9 108.057C105.712 107.769 106.228 106.885 105.621 105.105C104.868 102.861 102.821 102.087 101.024 103.77C100.011 103.689 96.8699 103.248 98.2064 101.796C101.543 103.939 104.445 96.9499 109.018 99.8151C114.668 103.712 120.4 98.4915 126.185 100.556C126.584 100.709 127.081 100.91 127.383 100.456C127.903 98.5984 124.173 98.0742 123.033 97.4721C119.276 94.7054 113.818 96.6734 111.215 91.9658C102.831 77.8308 88.9835 83.9725 97.3986 85.5298C98.908 85.5931 98.9866 87.4034 97.4904 87.59C84.5788 90.3858 95.1682 103.214 88.4939 99.6293C88.0015 99.3297 87.9997 98.8635 88.2216 98.3905C89.1686 96.5951 87.3065 94.7628 86 93.5803C85.0204 92.5089 85.6586 90.5815 86.0181 89.3199C88.0899 84.1053 82.6298 82.0071 81.7914 77.2938C81.6433 76.4614 80.6959 76.4614 80.2586 76.4614C76.908 76.4614 73.3734 76.6184 70.018 76.5176C66.6734 76.5795 71.1665 68.7705 61.3535 66.6242Z" fill="#EB9C47"/>
<path d="M110.019 65.576C118.462 72.3334 133.284 71.9517 137.035 60.3652C140.317 71.2961 130.124 82.8333 119.147 83.1404C115.857 80.7193 113.501 75.2948 112.079 71.3644C111.944 69.9452 109.35 66.2268 110.019 65.576Z" fill="#815D37"/>
<path d="M110.019 65.5761C112.503 71.6504 114.932 77.8896 119.147 83.1406C123.449 88.5006 128.622 93.0401 133.004 98.3336C134.188 99.7641 132.927 100.051 131.719 99.4015C131.079 98.9915 130.457 98.5529 129.806 98.1617C118.37 91.2819 112.729 86.2 108.513 73.2994C107.088 67.8368 105.966 62.3212 100.837 59.0532C102.031 58.4508 102.972 59.0769 103.917 59.682C106.734 60.7302 108.533 63.096 110.019 65.5761Z" fill="#B06A1D"/>
<path d="M133.356 55.8207C133.356 55.8207 131.851 58.0061 130.484 58.6008C129.75 58.9198 126.903 60.8355 119.062 59.9873C114.279 59.4699 111.012 57.5681 110.192 57.022C108.649 55.9935 106.736 54.7314 104.559 51.5401C103.805 50.436 103.373 48.4208 103.375 47.383C103.376 46.8781 103.653 44.2803 103.653 44.2803C103.653 44.2803 104.057 45.4745 104.215 45.7178C105.293 47.3777 106.589 49.5259 108.167 50.6873C109.331 51.5442 112.613 53.4287 117.177 53.937C117.928 54.0206 121.959 54.1278 122.879 53.982C124.325 53.7526 125.417 53.6248 126.861 53.6284C128.431 53.6323 129.621 53.9765 131.06 54.5952C131.45 54.7629 132.946 55.385 133.356 55.8207Z" fill="#CBAA89"/>
<path d="M90.5642 12.3633C102.046 20.7192 102.217 41.411 120.296 43.7905C119.543 44.7207 119.3 45.6477 118.461 46.0205C112.043 48.8737 103.031 36.5374 99.9566 31.3887C97.0605 25.4997 90.0889 18.3087 90.5642 12.3633Z" fill="#CBAA89"/>
<path d="M112.039 44.8036C114.875 46.1155 117.416 45.8005 120.178 45.1659C120.437 45.1065 120.191 44.851 120.448 44.7867C120.797 44.6993 121.993 44.7103 121.993 44.7103C124.693 47.8912 120.174 50.8505 115.466 50.0162C107.382 48.5839 93.4681 33.8255 102.968 39.5319C105.672 41.6159 108.998 43.3967 112.039 44.8036Z" fill="#815D37"/>
<path d="M121.992 44.7115C121.578 44.7329 120.822 44.9195 120.483 45.1138C119.323 45.7793 118.496 46.0527 117.164 46.0176C116.181 45.9916 115.234 45.8336 114.298 45.5678C114.167 45.5306 113.49 45.3793 113.368 45.3085C114.07 45.4224 115.224 45.4623 115.638 45.4683C116.433 45.4799 117.658 45.3685 118.435 45.1623C119.11 44.9835 119.633 44.6821 120.019 44.1165C120.099 43.9996 120.203 43.8989 120.296 43.7905C120.914 44.0016 121.269 44.1928 121.992 44.7115Z" fill="#B18A60"/>
<path d="M57.4502 144.435C57.4505 144.364 58.4193 143.867 58.2018 142.774C58.0529 142.026 58.2365 141.519 58.4323 140.804C58.7847 139.517 59.6097 138.511 60.6854 137.713C61.6319 137.011 63.7575 136.033 64.8568 135.68C67.5898 134.563 71.6418 135.071 72.5847 135.096C74.7497 135.153 76.8508 134.781 78.8302 133.951C80.6787 133.176 82.159 132.395 83.2776 130.642C83.5634 130.194 83.908 129.439 83.8302 128.913C83.7557 128.41 83.4213 128.023 82.933 127.951C82.4688 127.883 81.7539 127.928 81.3098 128.164C80.5748 128.554 80.0578 128.83 79.3432 129.254C78.115 129.983 76.7903 130.432 75.4077 130.752C74.7329 130.909 74.0592 131.009 73.3666 130.955C73.3394 130.522 73.7035 130.539 73.9586 130.476C75.6765 130.047 77.1126 129.208 78.1068 127.707C78.2898 127.43 78.5392 127.222 78.8237 127.053C79.1778 126.984 79.5355 126.929 79.8851 126.842C80.2783 126.744 80.3443 126.662 80.3649 126.241C80.386 125.809 80.3984 125.375 80.377 124.943C80.3179 123.751 80.5169 122.572 80.5419 121.387C80.5845 119.367 80.5708 117.347 80.5819 115.326C80.5835 115.038 80.5919 114.749 80.5972 114.461C80.9655 114.092 81.4076 114.203 81.8279 114.301C85.436 115.146 88.9049 116.269 91.4855 119.149C91.8251 119.528 92.2553 119.81 92.6374 120.143C93.1152 120.561 93.2858 121.054 93.1359 121.697C92.731 123.435 93.1796 124.139 94.9806 124.504C96.688 124.85 98.4337 124.946 100.158 125.183C100.338 125.208 100.521 125.201 100.684 125.298C100.898 126.132 101.47 126.502 102.296 126.676C107.198 127.709 112.014 129.05 116.702 130.822C117.89 131.271 119.181 131.381 120.327 131.955C123.329 135.468 124.597 139.546 124.231 144.12C124.105 145.686 123.408 147.112 122.855 148.563C122.85 148.666 123.128 148.539 123.102 148.638C122.887 148.751 121.431 149.623 120.105 149.977C114.946 151.355 105.04 151.243 104.529 151.239C104.618 151.181 95.4357 150.428 94.5811 150.911C89.5492 153.759 84.2316 153.952 78.7442 152.592C75.337 151.747 72.1153 150.45 69.0608 148.732C68.8076 148.59 68.5596 148.438 68.2935 148.32C67.2175 147.847 66.4618 148.222 66.1754 149.377C66.1155 149.618 66.1519 149.888 65.953 150.086C65.378 149.803 64.8203 149.479 64.1922 149.319C64.0225 149.275 63.8463 149.249 63.6716 149.237C63.5623 149.229 63.4607 149.286 63.436 149.405C63.4228 149.469 63.42 149.561 63.4559 149.605C63.6128 149.797 63.7889 149.974 63.9519 150.162C64.1825 150.428 64.5101 150.615 64.623 150.977C64.4871 150.967 64.3514 150.956 64.2157 150.946C64.1415 150.875 64.0672 150.805 63.9929 150.735C63.9194 150.663 63.8458 150.591 63.7722 150.52C63.6789 150.351 63.5213 150.303 63.3433 150.294C63.2694 150.223 63.1954 150.152 63.1214 150.082C63.0478 150.01 62.9741 149.939 62.9004 149.867C60.8119 148.125 58.0532 144.96 57.8826 144.87C57.8112 144.796 57.5217 144.509 57.4502 144.435Z" fill="#D9D9D9"/>
<path d="M85.7801 92.2951C85.8152 92.4717 85.8657 92.6467 85.8823 92.825C85.9231 93.2629 86.1181 93.5313 86.5657 93.676C87.2411 93.8945 87.6368 94.3935 87.7113 95.1073C87.7409 95.3909 87.8993 95.5412 88.1156 95.6984C88.9092 96.2748 89.1174 96.9484 88.7746 97.8438C88.6467 98.1779 88.4477 98.4846 88.291 98.8085C88.1667 99.0656 88.2045 99.2266 88.4499 99.3447C89.1298 99.672 90.5646 100.135 90.5646 100.135C90.5646 100.135 100.135 103.383 101.065 103.62C101.721 103.523 102.345 103.686 102.967 103.861C104.244 104.221 104.608 104.768 104.494 106.147C103.289 107.458 101.797 107.603 100.214 107.083C97.3203 106.133 94.4997 104.986 91.7019 103.785C91.2016 103.57 90.6801 103.409 90.184 103.192C89.0553 102.699 88.0054 102.775 86.9936 103.483C86.0598 104.135 85.0414 104.166 83.9746 103.874C82.8827 103.576 82.3844 102.774 82.6385 101.66C82.8199 100.865 83.2045 100.192 83.802 99.6198C84.176 99.2615 84.6524 98.9577 84.819 98.3101C84.023 98.1603 83.4225 98.5197 82.8334 98.8311C81.6797 99.4408 80.6142 100.2 79.491 100.862C78.3943 101.509 77.639 101.509 76.9526 100.898C76.9326 99.2848 78.1381 98.4999 79.2287 97.6891C80.0986 97.0425 81.0964 96.5737 82.043 95.9562C80.097 96.4416 77.5472 97.8287 76.1353 99.1296C75.7266 99.5062 75.3665 100.069 74.6543 99.7207C74.5516 99.5898 74.5244 99.4405 74.5432 99.2796C74.7165 98.6482 75.1912 98.2643 75.6823 97.8867C77.302 96.6415 79.0124 95.5197 80.6299 94.3041C78.4529 94.9213 76.6521 96.287 74.7017 97.3679C74.1139 97.6936 73.5553 97.9132 73.2101 97.0645C73.1626 96.6444 73.4043 96.3563 73.6616 96.0751C74.646 95.1265 75.948 94.6836 77.0752 93.9599C77.8383 93.4701 78.6174 93.0063 79.5418 92.2645C78.0916 92.7218 77.0336 93.4014 75.9048 93.9196C75.4104 94.1466 74.9401 94.4349 74.3997 94.5434C73.9815 94.6273 73.5881 94.6264 73.5924 94.0297C73.7672 93.7838 74.1721 93.5001 74.4826 93.2683C75.7486 92.3225 77.0344 91.4081 78.4641 90.7072C79.4062 90.2453 80.3758 89.8833 81.3957 89.647C82.1034 89.2875 82.6328 89.6402 82.9247 90.2015C83.2645 90.855 83.6822 91.1619 84.4252 91.1664C85.1397 91.1707 85.6433 91.5439 85.7801 92.2951Z" fill="#FFF3E5"/>
<path d="M80.5711 112.51C80.5476 110.748 80.5371 108.987 80.7118 107.227C80.7897 106.443 80.7401 105.646 80.7483 104.855C80.5273 104.343 80.4048 103.825 80.6363 103.282C81.0364 102.849 81.2953 103.284 81.5377 103.471C82.4955 104.21 83.5951 104.678 84.6797 105.176C85.5933 105.596 86.4533 105.554 87.156 104.765C87.7291 104.122 88.3166 104.099 89.0899 104.447C91.2681 105.428 93.5106 106.262 95.6974 107.226C96.1144 107.409 96.6824 107.36 96.7589 107.944C96.3739 110.523 94.5897 112.201 92.4663 113.406C88.823 114.744 85.195 114.432 81.5783 113.296C81.1542 113.163 80.8001 112.908 80.5711 112.51Z" fill="#B06A1D"/>
<path d="M80.5713 112.51C82.1217 113.351 85.4046 114.153 87.1453 114.275C91.0535 114.205 92.7438 113.238 92.7438 113.238C93.0999 113.474 93.4651 114.051 93.831 114.573C95.1976 116.524 96.4091 118.576 97.7621 120.536C98.7454 121.961 99.7361 123.379 101.171 124.411C101.291 124.497 101.949 124.862 101.949 124.862C101.829 125.197 100.966 125.255 100.641 125.314C100.312 125.495 99.9916 125.524 99.6007 125.445C98.6914 125.262 96.6824 125.013 95.4285 124.887C94.7263 124.816 94.0903 124.581 93.4869 124.245C92.6847 123.799 92.372 122.98 92.6621 122.123C92.7312 121.919 92.8484 121.731 92.9284 121.53C93.0783 121.153 92.9981 120.823 92.6934 120.551C92.5587 120.43 92.4404 120.28 92.2855 120.196C91.8282 119.949 91.4761 119.581 91.1405 119.206C89.6789 117.576 87.8455 116.541 85.8199 115.771C84.4318 115.244 83.0127 114.846 81.569 114.516C81.2439 114.441 80.9228 114.449 80.5974 114.461C80.5888 113.811 80.5801 113.161 80.5713 112.51Z" fill="#B6B6B6"/>
<path d="M61.3537 66.624C62.7424 66.5601 63.9978 67.0247 65.1742 67.6786C66.1766 68.2356 66.8932 69.1198 67.4563 70.1035C68.0145 71.0787 68.5055 72.1045 68.6826 73.2164C69.2299 75.5233 69.0659 75.5415 69.4668 76.54C69.3575 76.5945 67.6583 76.5197 66.9796 76.5238C66.2864 76.5018 65.5917 76.5709 64.8999 76.4841C63.9067 76.5286 62.9138 76.5864 61.9201 76.6128C61.2447 76.6308 60.5681 76.6048 59.8921 76.5983C59.8298 75.7357 59.729 74.874 59.7139 74.0108C60.1015 70.2765 60.7351 67.7287 61.3537 66.624Z" fill="#B06A1D"/>
<path d="M85.7797 92.2952C85.3672 91.6189 84.7598 91.3413 83.9769 91.4125C83.8353 91.4254 83.6909 91.4177 83.5484 91.41C83.1229 91.387 83.0716 91.3852 82.9793 90.9401C82.7977 90.0644 82.251 89.6802 81.3955 89.6472C81.4466 87.9161 81.6198 86.1967 81.8354 84.4786C81.9204 83.8016 81.8784 83.1078 81.8816 82.4216C81.8894 80.7964 81.7891 78.9178 81.7925 77.293C83.084 78.342 84.403 79.7216 85.3574 81.0899C86.1076 82.1653 86.5803 83.3857 86.8295 84.6617C86.994 85.5044 86.9725 86.3841 86.8007 87.2411C86.617 88.1572 86.4172 89.0684 86.1194 89.9582C85.867 90.7125 85.7419 91.4944 85.7797 92.2952Z" fill="#FCCA95"/>
<path d="M78.8234 127.054C78.0982 128.886 77.1553 129.744 75.3378 130.492C74.6374 130.781 73.3664 130.955 73.3664 130.955C71.194 131.066 69.138 130.512 67.097 129.869C66.8747 129.799 66.7112 129.68 66.6279 129.46C66.7993 129.442 68.5028 128.399 68.5735 127.987L72.3314 127.579C73.165 127.524 76.759 127.252 76.759 127.252C76.759 127.252 78.2787 127.061 78.8234 127.054Z" fill="#B6B6B6"/>
<path d="M36.4786 82.878C36.4729 82.0615 36.7649 81.4096 37.353 80.8535C38.1881 80.064 39.1663 79.5268 40.2532 79.1869C41.4333 78.8178 42.555 79.1199 43.6376 79.5844C44.0339 79.7545 44.4026 80.0049 44.7539 80.2596C45.4696 80.7786 45.8742 81.4907 45.9092 82.3772C45.9407 83.1724 45.9201 83.9696 45.9438 84.7652C45.9642 85.4514 45.8062 86.1387 44.974 86.1439C44.576 86.1464 43.9716 86.2188 43.5705 86.0857C43.4766 86.0545 43.3663 85.977 43.329 85.8922C43.2604 85.7364 43.3615 85.609 43.5066 85.5588C43.8481 85.4405 44.198 85.3463 44.5419 85.2345C44.985 85.0905 45.1767 84.5977 44.9335 84.2C44.8857 84.1219 44.7579 84.05 44.6661 84.0488C44.3403 84.0446 42.2682 84.2921 42.2682 84.2921C41.667 84.9593 40.8573 84.7191 40.5054 84.3194C40.5054 84.3194 38.6175 84.4334 37.965 84.3095C37.7125 84.2616 37.5678 84.4366 37.5873 84.7027C37.59 84.7388 37.5871 84.7763 37.5959 84.8108C38.0368 86.5313 37.5873 86.425 39.4794 86.4355C39.8418 86.4375 40.5887 86.2295 40.6967 86.5524C40.7889 86.8281 40.5964 87.2298 39.0842 87.1788C38.7881 87.2307 37.6397 87.1126 37.3626 87.0311C36.6999 86.8286 36.4854 83.8588 36.4786 82.878Z" fill="#FDFDFD"/>
<path d="M32.0936 97.2754C32.2699 97.2764 32.999 97.5318 33.3086 97.1189C33.5307 96.8228 33.3633 96.3746 33.2418 96.223C33.2965 96.2365 34.499 96.6416 34.7389 96.7014C35.0669 96.7831 35.3383 96.8181 35.4107 96.8192C35.9678 96.4639 35.5371 95.7754 36.1328 95.4487C36.2061 95.4612 36.692 95.4028 36.7431 95.3488C37.1314 94.7669 36.9497 93.9476 37.2937 93.3523C37.6107 93.0355 37.7772 92.679 37.6873 92.21C37.6375 91.9504 37.535 91.6397 37.8745 91.4599C37.9378 91.4554 37.9877 91.4271 38.0239 91.3751C38.1193 91.3266 38.1129 90.6317 38.2281 90.4106C39.1239 90.9775 39.7609 92.0559 39.2659 92.8386C39.0079 93.2467 38.9951 93.5826 39.0523 94.0415C39.15 94.8248 38.8541 95.5551 38.2449 96.076C37.8215 96.438 37.5029 96.8042 37.3195 97.3533C37.0396 98.1912 36.5532 98.6744 35.6499 98.6621C35.4325 98.6592 35.0222 98.63 34.83 98.5555C34.4053 98.3908 34.0724 98.4747 33.7294 98.7533C33.5703 98.8826 33.3382 98.9534 33.1292 98.9851C32.608 99.0642 32.0218 99.0798 32.0332 98.526C32.0406 98.1646 31.9876 97.4185 32.0936 97.2754Z" fill="#463176"/>
<path d="M80.8393 103.196C80.8089 103.75 80.7786 104.303 80.748 104.856C80.3379 104.623 80.1969 104.196 80.0212 103.809C79.8616 103.457 79.6246 103.322 79.2556 103.37C79.1843 103.38 79.1108 103.372 79.0388 103.378C78.1621 103.447 77.3831 103.261 76.8091 102.535C76.644 102.326 76.4095 102.229 76.1645 102.159C75.9914 102.109 75.8077 102.095 75.6361 102.041C74.8881 101.809 74.2239 101.475 73.9619 100.654C73.8721 100.373 73.691 100.18 73.4212 100.018C72.3872 99.398 72.049 98.7213 72.3199 97.5865C72.4565 97.0142 72.5255 96.4623 72.4881 95.8852C72.4713 95.6258 72.5563 95.3901 72.6742 95.1616C72.7998 94.918 73.3328 94.4515 73.493 94.5316C73.8929 94.7888 73.7038 95.7445 73.7521 96.2033C73.6166 96.486 73.5064 96.716 73.3456 97.0515C73.2527 98.0881 74.0985 98.5797 74.633 99.2519C74.6548 99.3911 74.6767 99.5303 74.6985 99.6695C75.2967 100.361 76.3739 100.133 76.9648 100.84C77.5947 101.903 78.6666 101.904 79.7102 101.983C80.3641 102.033 81.1119 101.989 80.9525 103.015C80.942 103.083 80.887 103.14 80.8393 103.196Z" fill="#463176"/>
<path d="M72.9071 120.359C72.8299 120.889 72.675 121.395 72.2359 121.779C71.4101 122.501 70.2921 122.376 69.6909 121.46C69.2546 120.796 69.0745 120.087 69.4039 119.302C69.7317 118.521 70.7652 117.835 71.8334 118.551C72.4842 118.987 72.8375 119.571 72.9071 120.359Z" fill="white"/>
<path d="M63.5508 99.9829C63.4948 98.5722 64.4956 97.5524 65.8588 97.9159C66.908 98.1956 67.3898 99.274 66.9515 100.323C66.7954 100.697 66.541 100.993 66.2202 101.239C65.1454 102.064 63.6487 101.29 63.5519 100.05C63.5435 99.9435 63.5508 99.8353 63.5508 99.9829Z" fill="white"/>
<path d="M44.1042 106.88C43.1285 106.873 42.3789 106.12 42.4122 105.178C42.4462 104.219 43.3859 103.376 44.3836 103.411C45.269 103.442 46.0889 104.303 46.0817 105.195C46.0735 106.195 45.2604 106.888 44.1042 106.88Z" fill="white"/>
<path d="M38.2366 91.0186C38.2092 91.0936 38.2252 91.2533 38.0233 91.3749C37.9865 91.1639 37.8067 90.5581 37.7264 90.365C37.1867 89.0662 36.8227 88.1483 36.252 86.8627C34.8112 84.047 33.025 82.09 32.3239 81.6226C32.0972 81.4714 31.9151 81.2575 31.9242 80.9704C32.0038 80.9562 32.2445 80.939 32.3241 80.9244C32.9831 80.8767 33.3442 81.219 33.8276 81.6384C34.5541 82.2689 34.9675 83.1081 35.4506 83.9015C35.8048 84.4831 36.1244 85.0856 36.4555 85.681C36.5384 85.83 37.1822 87.2618 37.2461 87.4073C37.404 87.7666 37.5935 88.1129 37.7389 88.4768C38.0848 89.3425 38.3096 90.07 38.2366 91.0186Z" fill="#DFCAAF"/>
<path d="M73.7527 96.2036C73.3987 95.9203 73.1596 95.5341 73.1197 95.1074C73.0819 94.704 73.1823 94.3685 73.5922 94.0298C73.7468 94.3114 73.9395 94.4877 74.2923 94.3317C74.6887 94.1566 75.1024 94.0183 75.4916 93.8293C76.5025 93.3383 77.5045 92.8291 78.5093 92.3257C78.9691 92.0953 79.4391 91.96 79.9436 92.12C79.9871 92.3339 79.8434 92.3981 79.7309 92.4825C78.34 93.5271 76.8751 94.4515 75.3216 95.2413C74.7763 95.5185 74.2744 95.8803 73.7527 96.2036Z" fill="#E0CBAF"/>
<path d="M48.8797 121.424C49.2765 121.424 49.6739 121.414 50.0344 121.627C50.2256 121.74 50.4089 121.865 50.4194 122.106C50.4323 122.399 50.2264 122.582 49.9906 122.665C49.6548 122.784 49.2976 122.89 48.9451 122.906C48.2211 122.94 47.5182 122.77 46.831 122.55C46.6532 122.493 46.4986 122.381 46.5104 122.176C46.5191 122.025 46.6459 121.925 46.7835 121.869C47.4553 121.597 48.1479 121.418 48.8797 121.424Z" fill="white"/>
<path d="M60.4304 123.223C60.1329 123.216 59.6608 123.178 59.1988 123.096C58.9206 123.047 58.6424 122.935 58.4443 122.697C58.3114 122.537 58.3911 122.215 58.5929 122.158C58.6964 122.129 58.8041 122.102 58.9109 122.098C59.4912 122.074 60.0687 122.047 60.6429 121.935C61.1531 121.835 61.6537 121.976 62.1469 122.1C62.2472 122.126 62.3415 122.191 62.4279 122.252C62.6493 122.41 62.6374 122.76 62.4048 122.892C62.1506 123.036 61.8823 123.147 61.5853 123.164C61.259 123.184 60.9329 123.234 60.4304 123.223Z" fill="white"/>
<path d="M72.7101 115.406C72.6993 115.67 72.7458 116.036 72.5674 116.369C72.5168 116.463 72.4525 116.541 72.3276 116.539C72.1938 116.537 72.1269 116.441 72.1072 116.341C71.8913 115.245 71.4364 114.226 71.0876 113.173C71.065 113.105 71.0276 113.041 71.0133 112.971C70.9563 112.695 70.8357 112.404 71.079 112.162C71.2206 112.021 71.5856 112.208 71.8641 112.594C72.3563 113.277 72.6455 114.042 72.7086 114.885C72.7192 115.027 72.7196 115.171 72.7101 115.406Z" fill="white"/>
<path d="M58.1516 99.7376C58.0386 99.6406 57.9494 99.5169 57.9908 99.3625C58.0302 99.2151 58.1558 99.1028 58.2996 99.0988C59.3123 99.0703 60.325 98.9796 61.3382 99.0742C61.4429 99.084 61.5513 99.1287 61.6429 99.1827C61.728 99.2329 61.7998 99.4342 61.7962 99.5154C61.7794 99.8872 61.3064 99.9434 61.0689 100.007C60.6517 100.12 58.6236 100.142 58.1516 99.7376Z" fill="white"/>
<path d="M53.9578 121.629C54.1367 121.641 54.4294 121.637 54.7144 121.682C55.0406 121.733 55.3389 121.86 55.5484 122.141C55.6825 122.321 55.6605 122.583 55.4796 122.718C55.3929 122.782 55.3032 122.87 55.2044 122.887C54.3721 123.031 53.5441 123.069 52.7621 122.668C52.6368 122.604 52.5299 122.497 52.4277 122.396C52.2263 122.199 52.2941 121.876 52.5583 121.782C52.6928 121.734 52.8353 121.696 52.977 121.683C53.2658 121.656 53.5564 121.65 53.9578 121.629Z" fill="white"/>
<path d="M54.3207 108.516C53.8398 108.55 53.1009 108.408 52.6446 108.307C52.5453 108.285 52.4497 108.21 52.3715 108.139C52.2628 108.039 52.1861 107.904 52.2593 107.759C52.3033 107.672 52.39 107.577 52.4785 107.547C52.6468 107.489 52.8299 107.473 53.0076 107.443C53.9517 107.289 54.8673 107.454 55.7761 107.692C55.8107 107.701 55.8432 107.718 55.8769 107.731C56.025 107.787 56.1264 107.9 56.1233 108.049C56.1202 108.201 56.0064 108.313 55.8511 108.334C55.2445 108.417 54.9314 108.471 54.3207 108.516Z" fill="white"/>
<path d="M67.0657 108.094C68.3721 108.037 69.1122 108.808 69.6471 109.821C69.6846 109.892 69.6492 110.033 69.5991 110.111C69.5297 110.218 69.3996 110.172 69.3095 110.124C68.5434 109.718 67.7495 109.381 66.9194 109.127C66.8171 109.096 66.7202 109.041 66.6277 108.986C66.4311 108.869 66.2766 108.701 66.3184 108.465C66.3616 108.221 66.578 108.144 66.8031 108.115C66.9102 108.102 67.0185 108.096 67.0657 108.094Z" fill="white"/>
<path d="M69.8759 94.3043C69.8185 95.0818 69.513 95.8931 68.8253 96.5114C68.6635 96.657 68.4971 96.7986 68.2733 96.8417C68.1278 96.8696 67.9831 96.8716 67.8661 96.7633C67.7366 96.6432 67.7725 96.4983 67.8416 96.3701C68.3213 95.48 68.8041 94.5916 69.2927 93.7064C69.3628 93.5794 69.4821 93.4792 69.6445 93.531C69.8024 93.5813 69.8395 93.7297 69.8675 93.8738C69.8744 93.909 69.875 93.9458 69.8755 93.9818C69.8767 94.0541 69.889 94.1268 69.8759 94.3043Z" fill="white"/>
<path d="M69.8774 90.2101C69.8592 90.4934 69.8158 90.6703 69.6135 90.7311C69.4208 90.7889 69.253 90.6993 69.1411 90.5538C68.9674 90.3281 68.8024 90.0921 68.6641 89.8436C68.403 89.3744 68.1562 88.8968 67.9188 88.4151C67.8242 88.2233 67.7509 88.0075 67.947 87.8225C68.1087 87.6698 68.3812 87.6903 68.6287 87.9034C68.8448 88.0895 69.0606 88.2881 69.227 88.5169C69.613 89.0474 69.8352 89.6467 69.8774 90.2101Z" fill="white"/>
<path d="M62.0623 108.797C61.687 108.826 61.3402 108.704 61.0187 108.521C60.8343 108.417 60.8109 108.116 60.9709 107.961C61.3009 107.641 61.7139 107.49 62.1548 107.528C62.726 107.577 63.2922 107.693 63.8576 107.797C63.9993 107.823 64.1245 107.933 64.1502 108.081C64.1868 108.291 64.0437 108.444 63.8673 108.48C63.2693 108.604 62.6715 108.751 62.0623 108.797Z" fill="white"/>
<path d="M65.6636 122.68C65.5241 122.655 65.4018 122.546 65.378 122.394C65.3455 122.185 65.4767 122.033 65.6533 121.988C66.1389 121.863 66.6291 121.739 67.1252 121.677C67.6218 121.614 68.129 121.557 68.6285 121.666C68.7188 121.686 68.8132 121.776 68.8657 121.858C68.9576 122.002 68.8656 122.133 68.7682 122.237C68.696 122.314 68.6053 122.385 68.5086 122.426C68.1112 122.592 67.4813 122.744 67.0387 122.754C66.8591 122.758 66.016 122.743 65.6636 122.68Z" fill="white"/>
<path d="M65.827 86.2802C65.0643 86.266 64.6619 85.9321 63.9685 85.6266C63.8286 85.565 63.5598 85.3215 63.5696 85.1653C63.5794 85.0089 63.6816 84.9074 63.8068 84.8265C63.9986 84.7025 64.2174 84.6675 64.4323 84.701C65.1558 84.8138 65.8284 85.0623 66.4159 85.5096C66.471 85.5517 66.5078 85.6185 66.5503 85.6759C66.6855 85.8586 66.5519 86.0749 66.3591 86.1794C66.2233 86.253 65.9821 86.2831 65.827 86.2802Z" fill="white"/>
<path d="M41.5336 102.949C41.5303 102.985 41.5237 103.129 41.5024 103.271C41.4773 103.438 41.235 103.545 41.0777 103.475C40.8336 103.365 40.6468 103.189 40.569 102.941C40.3129 102.123 40.2583 101.315 40.7808 100.563C40.842 100.475 40.9349 100.407 41.0472 100.457C41.1065 100.484 41.1802 100.55 41.1886 100.607C41.2983 101.352 41.5287 102.079 41.5336 102.949Z" fill="white"/>
<path d="M51.9602 97.055C52.5769 97.0334 53.0907 97.2032 53.6036 97.3571C53.8044 97.4174 53.9972 97.536 54.1654 97.6646C54.3907 97.837 54.6257 98.029 54.5393 98.3708C54.4846 98.587 54.2094 98.6434 53.7841 98.4682C53.0562 98.1683 52.3399 97.8403 51.6234 97.5139C51.4998 97.4576 51.3497 97.3591 51.4475 97.1897C51.4884 97.1188 51.6135 97.08 51.7075 97.06C51.8103 97.0382 51.9214 97.055 51.9602 97.055Z" fill="white"/>
<path d="M54.2744 87.0214C54.0037 87.0063 53.7326 86.9165 53.4943 86.7395C53.2869 86.5854 53.2687 86.237 53.4547 86.0706C53.9437 85.6329 54.9436 85.6319 55.4682 86.0685C55.6135 86.1895 55.6191 86.4064 55.4805 86.5438C55.2455 86.7767 54.6527 87.0164 54.2744 87.0214Z" fill="white"/>
<path d="M47.5784 96.8407C46.98 96.8565 46.4273 96.5269 45.8511 96.3331C45.7738 96.3071 45.6901 96.1678 45.6904 96.0813C45.6908 95.9935 45.7719 95.8605 45.8518 95.8261C46.2864 95.639 46.734 95.4993 47.2013 95.7288C47.4252 95.8387 47.6593 95.9355 47.8646 96.0739C48.1869 96.291 48.3004 96.5327 48.1957 96.6721C48.0392 96.8805 47.8117 96.8345 47.5784 96.8407Z" fill="white"/>
<path d="M60.8732 85.451C60.8513 85.484 60.807 85.585 60.7336 85.6563C60.2763 86.1001 58.9464 86.361 58.8765 86.3474C58.6155 86.2966 58.4798 85.9708 58.6324 85.7635C59.0993 85.1294 60.0329 84.8476 60.7481 85.134C60.8458 85.1731 60.9167 85.2638 60.8732 85.451Z" fill="white"/>
<path d="M44.1724 122.737C43.7802 122.744 43.4823 122.64 43.2279 122.421C43.0036 122.228 43.0263 121.827 43.2764 121.679C43.7362 121.406 44.2164 121.346 44.7118 121.583C44.9176 121.682 45.0567 121.836 45.0636 122.077C45.0705 122.32 44.9348 122.472 44.734 122.583C44.5415 122.69 44.3382 122.748 44.1724 122.737Z" fill="white"/>
<path d="M49.5317 107.733C48.9488 107.686 48.6585 107.533 48.1994 107.168C47.9944 107.004 47.8812 106.786 47.8376 106.655C47.767 106.442 47.9695 106.183 48.1753 106.229C48.8113 106.372 49.3839 106.653 49.8783 107.078C50.0175 107.197 50.0994 107.371 50.009 107.555C49.9157 107.744 49.7188 107.722 49.5317 107.733Z" fill="white"/>
<path d="M47.8128 86.4313C47.2972 86.5147 46.9312 86.313 46.6442 86.0047C46.4315 85.7763 46.5097 85.4245 46.801 85.295C47.2686 85.0871 48.0092 85.3056 48.3409 85.7493C48.4682 85.9197 48.413 86.2182 48.2196 86.3038C48.0598 86.3745 47.8864 86.4194 47.8128 86.4313Z" fill="white"/>
<path d="M50.8476 86.6488C50.237 86.6593 49.7701 86.6035 49.3708 86.3105C49.2938 86.2541 49.2349 86.1407 49.2167 86.0444C49.1844 85.8729 49.3211 85.7791 49.4545 85.726C49.5856 85.6737 50.7423 85.735 51.1319 85.9599C51.3176 86.0671 51.55 86.15 51.4872 86.4253C51.4355 86.6523 50.8257 86.6488 50.8476 86.6488Z" fill="white"/>
<path d="M41.3712 98.1182C41.222 98.0869 41.1191 97.9635 41.1367 97.8189C41.2151 97.1772 41.9958 96.4489 42.6042 96.6561C42.9238 96.7649 42.9099 97.0501 42.8555 97.1461C42.8482 97.5576 41.4219 98.1182 41.3712 98.1182Z" fill="white"/>
<path d="M34.9428 80.9576C35.2927 80.9239 35.5765 81.0503 35.8371 81.2563C36.1588 81.5107 36.3137 81.8215 36.1626 81.9517C35.9121 82.1676 35.6265 82.1022 35.3582 81.997C35.0903 81.8921 34.8557 81.724 34.6995 81.4772C34.6484 81.3966 34.6235 81.2784 34.636 81.1838C34.6583 81.016 34.8149 80.989 34.9428 80.9576Z" fill="white"/>
<path d="M36.0665 79.0918C36.13 79.11 36.2417 79.1212 36.3312 79.1716C36.6677 79.361 36.8339 79.6779 36.9217 80.0356C36.9572 80.1802 36.8955 80.3215 36.7784 80.4195C36.6603 80.5184 36.5193 80.5455 36.3816 80.4632C36.0993 80.2945 35.8647 80.0749 35.7129 79.7794C35.5748 79.5106 35.7563 79.118 36.0665 79.0918Z" fill="white"/>
<path d="M48.0487 82.2456C47.7343 82.2458 47.5606 81.9452 47.6597 81.7636C47.882 81.3557 48.5502 81.1091 48.9758 81.2779C49.1573 81.3499 49.1902 81.6898 49.0279 81.8338C48.7177 82.1094 48.3283 82.1789 48.0487 82.2456Z" fill="white"/>
<path d="M48.3933 78.7877C48.3949 78.8223 48.4092 78.8626 48.3963 78.8906C48.1585 79.4071 47.7417 79.7141 47.2038 79.8577C47.13 79.8774 47.0121 79.7933 46.9383 79.7299C46.8976 79.6949 46.8729 79.5852 46.8976 79.5395C47.1399 79.0917 47.4767 78.7399 47.9725 78.5703C48.1446 78.5114 48.3943 78.6472 48.3933 78.7877Z" fill="white"/>
<path d="M45.4863 78.1574C45.4114 78.4543 45.1553 78.7336 44.7545 78.8832C44.6138 78.9357 44.3939 78.7194 44.4133 78.5543C44.4609 78.1484 44.7635 77.8035 45.1481 77.7167C45.3074 77.6808 45.5239 77.8737 45.4863 78.1574Z" fill="white"/>
<path d="M38.9277 78.5084C38.9392 78.4378 38.9491 78.3333 38.9741 78.2325C39.0122 78.079 39.1328 77.987 39.2756 77.9863C39.4183 77.9857 39.553 78.0743 39.5753 78.2303C39.5996 78.4003 39.6049 78.5771 39.5875 78.7478C39.5685 78.9345 39.4496 79.1072 39.2664 79.1101C39.0794 79.1131 38.9744 78.9417 38.9475 78.7512C38.9377 78.6821 38.9358 78.6118 38.9277 78.5084Z" fill="white"/>
<path d="M64.9525 38.5688C65.4171 39.2497 67.0023 41.6734 69.2571 40.407C69.2571 40.407 70.1029 42.3502 70.4548 43.3096C71.5529 46.3029 72.8024 47.548 74.3939 49.3633C74.9503 50.0403 75.3011 50.3591 75.9394 50.9188C76.281 51.2184 76.937 51.7086 77.4289 52.0036C78.1329 52.4258 78.1193 53.0716 77.9573 54.1459C78.2985 59.8997 75.6367 52.958 69.626 61.1311C68.516 60.6901 68.5759 59.5469 67.4533 58.0129C66.0296 54.585 66.1881 49.9048 65.4565 46.2824C65.1379 45.0376 65.1083 43.3469 63.5605 42.959C63.6861 41.9719 64.7121 39.4942 64.9525 38.5688Z" fill="#815D37"/>
<path d="M64.4742 42.8657C64.7003 42.9872 64.9401 43.0912 65.0477 43.3404C65.1473 43.571 65.2475 43.8074 65.2986 44.0515C65.4979 45.0026 65.6735 45.9586 65.8656 46.9113C66.2362 48.7496 66.7188 50.5611 67.1667 52.3814C67.6349 54.2844 68.2898 56.1135 69.0812 57.9008C69.198 58.1648 69.306 58.4368 69.378 58.7154C69.5197 59.2636 69.8086 59.7195 69.5854 60.3822C69.5054 60.6195 69.3346 60.8086 69.2528 60.9268C66.8324 59.6666 64.8212 57.3605 63.8344 54.8016C62.8042 52.1302 62.4155 48.549 62.6234 47.0871C63.0124 44.2877 63.5733 43.0337 63.5609 42.9591C63.6235 42.9395 64.2047 42.7208 64.4742 42.8657Z" fill="#B18A5F"/>
<path d="M68.0957 62.7148C68.1913 62.9282 68.142 63.1858 68.1184 63.4093C68.0401 64.153 67.3927 64.5732 66.7677 64.9171C66.266 65.1932 65.7514 65.4398 65.2003 65.6204C64.475 65.8582 62.9985 65.6469 62.4639 65.1075C63.6806 63.9503 65.0955 63.3613 66.7744 62.9388C67.3577 62.792 67.5081 62.7285 68.0957 62.7148Z" fill="#FBCA95"/>
<path d="M103.918 59.682C103.307 59.5204 102.083 58.8274 97.5224 59.0373C97.0111 59.0468 95.7547 59.3509 95.7169 59.484C95.3016 59.6062 95.2825 59.4411 95.0794 59.2226C92.7462 56.7131 89.9883 55.2525 86.4416 55.6995C86.2585 55.7226 86.0839 55.6761 85.9422 55.5431C85.8087 55.3216 85.799 55.0833 85.8392 54.837C86.0102 54.2049 85.9142 53.5596 85.9257 52.9212C85.9382 52.2265 86.0675 51.5783 86.4783 51.0037C87.0657 50.5637 87.7614 49.9919 88.184 49.4073C89.2649 48.1351 90.0083 46.9392 90.7394 45.5675C91.6386 43.8802 92.2594 42.1169 93.0314 40.365C93.0314 40.365 93.3498 40.4581 93.6637 40.5022C94.0896 40.562 94.9756 40.3524 96.1645 39.6035C96.1645 39.6035 96.3468 44.3385 96.7539 45.8309C97.402 48.2071 98.3394 50.4684 99.5117 52.6305C100.697 54.8167 101.892 56.9995 103.47 58.9434C103.65 59.1649 103.77 59.4346 103.918 59.682Z" fill="#815D37"/>
<path d="M69.6667 17.5041C71.6166 14.885 73.206 13.9537 73.862 13.5418C75.8262 12.3084 78.5492 11.227 79.482 11.0225C79.6791 11.0024 80.23 11.1317 79.612 11.4749C78.3032 12.2521 77.0926 13.1483 75.9459 14.1588C74.3056 15.6042 72.9727 17.2901 71.7149 19.0515C70.7042 20.4668 70.1877 22.0887 69.9229 23.7665C69.708 25.1285 69.8393 26.5052 70.4492 27.7914C70.5725 28.0514 70.6872 28.3193 70.7685 28.5945C70.9325 29.1499 70.7862 29.5837 70.3178 29.9058C69.9611 30.1511 69.5802 30.3616 69.2101 30.5876C69.0934 30.504 68.977 30.4201 68.86 30.3369C68.0895 29.7895 67.2515 29.5399 66.2944 29.8047C66.0855 29.1766 66.2554 25.4969 66.8525 23.1984C67.026 22.5305 67.7509 20.0776 69.6667 17.5041Z" fill="#815D37"/>
<path d="M92.9925 30.7963C92.9925 30.7963 91.9166 30.5347 91.3675 30.3719C90.4624 30.1036 89.5008 29.6328 88.7438 29.0784C87.5275 28.3567 87.0802 27.8164 86.1474 26.927C84.7895 25.6324 83.5317 24.0759 82.4375 22.3876C83.0761 22.0177 83.5763 22.4041 84.0632 22.8628C84.6941 23.4572 84.9932 23.8153 85.6225 24.4114C87.6407 26.323 89.7682 28.0948 92.2335 29.4207C92.4932 29.5604 92.7081 29.7419 92.9245 29.9349C93.2337 30.2104 93.1913 30.4921 92.9925 30.7963Z" fill="#CBAA89"/>
<path d="M79.925 24.6489C79.7606 25.0731 79.4048 25.3485 79.0818 25.6238C77.3653 27.0873 75.5183 28.3537 73.4077 29.2008C73.1522 29.0782 73.0537 29.0237 73.0537 28.8331C73.0537 28.6296 73.2697 28.4232 73.4321 28.2988C73.776 28.0354 74.6659 27.5644 75.0243 27.3217C76.3104 26.4507 77.9888 25.0526 78.059 24.9761C78.4978 24.498 79.3496 23.7992 79.7799 24.1899C79.8019 24.21 79.925 24.2988 79.925 24.6489Z" fill="#CAAA89"/>
<path d="M86.4776 51.0039L86.2474 54.4636C86.2398 54.7483 85.6236 55.1339 85.4627 55.2957C82.8686 57.9054 79.3632 57.4207 77.4834 54.2276C77.3843 53.3666 77.5279 52.8646 77.4287 52.0036C78.5077 52.5757 79.4729 52.9596 80.6674 53.2609C82.0499 53.6095 83.3566 53.2942 84.5347 52.5528C85.2307 52.1148 85.9148 51.5861 86.4776 51.0039Z" fill="#E0CBAE"/>
<path d="M66.3651 157.467C66.377 156.393 66.388 155.319 66.4014 154.245C66.4049 153.958 66.4155 153.671 66.4228 153.384C66.4729 153.36 66.5231 153.336 66.5732 153.312C66.8466 154.876 68.1408 155.831 68.867 157.127C70.7685 160.521 72.2867 163.832 72.7648 167.624C73.2492 171.464 72.8805 182.906 72.7718 184.56C72.542 188.056 72.4857 191.572 71.9272 195.04C71.1791 199.686 70.235 204.296 69.3207 208.911C69.257 209.233 69.1982 209.606 68.975 209.862C68.2683 210.19 64.5401 214.105 66.7157 209.49C66.8557 208.713 68.6696 202.047 69.1208 197.616C69.6309 192.605 70.2643 185.834 70.214 181.022C70.1411 174.051 69.4754 167.452 69.3759 166.099C69.1554 163.102 68.4201 160.409 67.6677 158.869C67.4412 158.406 66.8835 157.688 66.3651 157.467Z" fill="#272F77"/>
<path d="M112.668 233.273C112.539 235.913 113.372 233.7 110.426 235.415C103.626 224.842 102.622 163.813 94.8663 166.135C94.1141 166.361 92.4794 165.3 92.4794 165.3C92.4794 165.3 91.2313 159.128 91.122 158.338C90.8866 156.638 93.9748 158.493 97.7702 154.769C100.543 151.748 102.013 150.135 102.683 151.366C102.683 151.366 103.223 156.932 103.503 159.373C104.118 164.733 104.52 170.613 105.418 175.972L105.408 175.952C106.172 182.492 107.084 189.398 108.04 195.959L108.033 195.942C108.311 198.223 108.535 200.653 108.914 202.912L108.906 202.895C109.714 209.836 112.228 232.115 112.668 233.273Z" fill="#1B273F"/>
<path d="M69.0299 210.073C68.9479 210.001 68.8749 209.97 68.7928 209.898C69.0828 208.525 70.3156 202.127 70.6934 200.331C71.0338 198.711 72.2716 187.45 72.285 186.834C72.484 185.065 72.6199 177.288 72.5462 175.612C72.4848 174.217 72.2354 170.259 72.036 168.931C71.6426 166.409 71.2115 164.419 70.5249 161.947C70.2438 160.934 69.8616 159.958 69.4386 159C69.1318 158.305 68.7736 157.631 68.4135 156.961C68.1236 156.422 67.8143 155.905 67.2513 155.567C66.7527 155.267 66.3443 153.996 66.4228 153.384C66.459 153.101 66.482 153.234 66.4697 152.946C66.468 152.735 71.1834 155.7 73.0661 156.387C73.8131 156.659 76.1799 157.41 76.336 157.684C76.336 157.684 74.7871 172.345 74.783 172.411C74.6744 174.16 72.9052 194.541 72.9066 194.6C72.947 196.327 71.5118 209.724 71.4348 209.925C71.3936 210.026 69.8767 210.696 69.0299 210.073Z" fill="#1B273F"/>
<path d="M65.9529 150.086C65.7935 149.59 65.7738 149.094 66.0515 148.638C66.2812 148.26 66.6189 147.989 67.033 147.812C67.3163 147.69 68.7363 148.18 69.1356 148.427C70.2479 149.113 71.4286 149.65 72.6248 150.172C73.8869 150.723 75.1644 151.217 76.4696 151.656C77.8441 152.117 79.2534 152.42 80.672 152.688C82.5953 153.05 84.5394 153.207 86.4953 153.113C87.1762 153.081 87.8611 152.977 88.528 152.832C90.624 152.377 92.6542 151.718 94.5113 150.626C95.3249 150.148 96.1477 149.705 97.0358 149.385C97.3421 149.275 97.6418 149.142 97.9543 149.055C98.2716 148.965 98.5985 148.942 98.8969 149.141C99.2322 149.364 99.3599 149.682 99.3227 150.074C98.9212 151.102 98.3479 152.014 97.4583 152.691C96.9986 153.041 96.4836 153.32 96.0268 153.673C94.3455 154.974 92.3718 155.522 90.3384 155.956C88.9207 156.259 87.4818 156.41 86.0489 156.551C84.9063 156.663 83.7327 156.723 82.5844 156.448C82.3757 156.398 82.1526 156.398 81.9357 156.393C80.4788 156.36 79.0713 156.038 77.6661 155.691C75.941 155.265 74.2551 154.725 72.6325 153.999C70.7801 153.171 68.9517 152.296 67.2001 151.268C66.6905 150.969 66.2679 150.586 65.9529 150.086Z" fill="#F2F2F2"/>
<path d="M101.955 149.201C101.953 148.985 101.521 148.984 101.521 148.336C101.582 147.897 101.701 146.023 105.525 146.028C106.031 146.044 109.16 146.627 111.415 146.598C112.464 146.559 113.503 146.649 114.535 146.829C114.711 146.86 114.893 146.889 115.055 146.958C115.522 147.158 115.82 147.633 115.442 148.187C115.013 148.817 114.466 149.237 113.653 149.217C113.075 149.203 108.668 149.296 106.359 149.201C105.119 149.15 102.02 149.211 101.955 149.201Z" fill="#F2F2F2"/>
<path d="M101.717 149.01C101.796 149.074 101.876 149.138 101.955 149.201C101.876 149.137 101.796 149.074 101.717 149.01Z" fill="#D9D9D9"/>
<path d="M38.1459 92.1807C38.082 91.9002 38.0457 91.7722 37.8743 91.4599C36.8349 90.3084 35.9623 89.0236 34.9046 87.8793C34.1933 87.1099 33.4567 86.3649 32.7394 85.6015C32.6145 85.4685 32.4632 85.373 32.2727 85.3452C32.1467 85.3267 31.9573 85.4911 32.0008 85.6046C32.0649 85.7721 32.1173 85.9526 32.2197 86.0957C33.018 87.2109 33.7759 88.3605 34.6481 89.4159C35.4278 90.3593 36.2377 91.2761 36.9365 92.2828C37.0743 92.3969 37.2434 93.1554 37.0469 93.3369C36.7906 93.0987 36.5273 92.8598 36.2705 92.6143C35.1513 91.5444 34.1061 90.3965 32.8702 89.4496C32.5534 89.207 32.2583 88.9424 31.8373 88.9163C31.7766 88.9125 31.6913 88.9572 31.6551 89.0068C31.6202 89.0547 31.666 89.2449 31.6959 89.285C31.8452 89.4855 31.9357 89.6021 32.1121 89.7788C33.2336 90.9022 34.3599 92.0208 35.4875 93.1381C36.114 93.759 36.5953 94.4592 36.7429 95.3488C37.022 95.2939 37.3106 95.0144 37.3989 94.7769C37.5594 94.3452 37.4203 93.4603 37.4102 93.4346C37.9403 93.2319 38.2674 92.7135 38.1459 92.1807Z" fill="#E1CCB0"/>
<path d="M36.1328 95.4484C36.1328 95.4484 36.3181 95.8343 36.2645 96.1041C36.1748 96.5558 35.9315 96.8611 35.4107 96.819C35.4935 96.1907 35.2442 95.6853 34.8033 95.2661C33.6772 94.1953 32.6863 92.9816 31.4087 92.0703C31.3502 92.0286 30.4864 91.4649 30.7082 91.1562C30.8398 90.9732 31.3667 91.2649 31.6393 91.4479C33.053 92.3974 34.3958 93.4335 35.5559 94.6896C35.8215 94.9773 36.1328 95.4484 36.1328 95.4484Z" fill="#E1CCB0"/>
<path d="M59.4268 218.676C60.6476 218.558 61.5143 217.933 61.6588 217.932C61.8254 217.794 61.4875 218.193 61.6518 218.32C61.9451 218.906 61.5445 219.269 61.2125 219.645C59.9631 221.058 58.3807 222.023 56.6574 222.697C52.9057 224.163 49.0839 225.381 44.9639 225.132C44.5346 225.106 44.0954 225.11 43.7101 224.842C43.7117 224.377 43.4111 222.543 45.0509 220.873C47.7598 218.114 55.7438 219.032 59.4268 218.676Z" fill="#E6F2FE"/>
<path d="M72.2607 228.949L72.2759 228.941C72.0342 229.211 69.5036 229.251 67.8911 229.497C67.3893 229.573 47.923 231.567 46.7599 231.572H46.7591C45.9264 231.539 45.2879 230.361 45.2354 230.261C45.2354 230.261 45.3435 229.843 45.2978 229.596C45.4743 228.971 46.0194 229.098 46.4622 229.045C52.1509 228.366 57.8788 228.031 63.5375 227.087C65.2652 226.799 66.9297 226.311 68.5656 225.7C69.7615 225.253 70.4425 224.463 70.6239 223.161C70.7789 222.048 70.8702 221.416 70.9909 220.303C71.0699 219.573 70.3454 219.36 69.458 219.366C66.7081 219.383 64.6744 218.428 62.3412 216.986C61.6258 216.544 60.9623 216.019 60.9373 215.057C61.0766 214.9 61.2191 214.726 61.4143 214.618C62.1841 215.063 63.8279 216.525 67.0256 217.079C69.6015 217.525 71.1507 217.217 73.2152 216.171C73.3774 216.089 73.5545 216.055 73.7393 216.076C74.0295 216.222 74.1278 216.501 74.1906 216.779C74.25 217.042 74.4504 218.767 74.3411 219.911C74.3014 220.326 74.1498 227.754 72.2607 228.949Z" fill="#85A2C1"/>
<path d="M89.7333 262.427C89.7323 262.283 89.5331 259.687 89.7315 258.952C89.9408 258.178 90.7151 256.605 91.3405 256.062C93.9194 253.824 100.651 251.639 103.366 249.567C103.712 249.303 104.383 248.765 104.555 248.41C104.643 248.228 104.782 247.873 104.782 247.873C105.657 248.429 105.316 249.109 105.08 249.74C104.468 251.385 103.5 252.848 102.274 254.079C99.0179 257.351 96.7747 260.294 92.3654 261.944C91.989 262.085 90.3618 262.257 90.0272 262.474C89.9198 262.517 89.8213 262.504 89.7333 262.427Z" fill="#E6F2FE"/>
<path d="M120.255 252.018L120.247 252.003C120.452 252.652 120.447 253.301 120.25 253.95L120.258 253.936C119.555 255.132 111.974 259.455 111.744 259.588L111.756 259.58C111.652 259.734 100.098 265.567 99.9607 265.666C99.9607 265.666 96.7996 267.33 96.2595 267.414L96.272 267.407C94.7931 267.731 94.1721 267.167 93.9368 267.023L93.4084 266.587C93.2829 266.487 93.571 266.611 93.6143 266.397C94.6696 265.299 96.096 264.784 97.3927 264.088C101.932 261.65 106.508 259.282 110.894 256.571C112.756 255.42 114.445 254.068 115.892 252.423C116.438 251.802 116.576 251.101 116.397 250.298C116.058 248.777 115.647 247.281 115.05 245.836C114.805 245.241 114.498 245.078 113.884 245.375C111.317 246.616 108.569 246.746 105.788 246.597C104.984 246.554 104.204 246.338 103.531 245.875C103.15 245.613 102.699 245.327 103.091 244.743C103.516 244.478 103.989 244.501 104.441 244.587C105.199 244.731 105.929 244.671 106.652 244.43C107.086 244.312 107.512 244.153 107.972 244.169C110.668 244.028 113.12 243.345 114.875 241.102C115.074 240.847 115.227 240.547 115.559 240.425C115.771 240.407 116.052 240.623 116.202 240.717C116.568 240.945 120.082 251.827 120.255 252.018Z" fill="#85A2C1"/>
<path d="M129.188 120.273C117.459 129.317 97.035 124.819 97.7189 108.316C97.7844 106.417 99.9768 107.81 100.97 107.939C102.549 108.617 104.357 108.434 104.614 111.057C105.805 131.742 134.368 117.97 135.92 103.822C135.92 103.822 137.386 108.019 135.545 113.045C134.532 115.809 130.838 118.971 130.291 119.435C130.027 119.659 129.41 120.102 129.188 120.273Z" fill="#B06A1D"/>
<path d="M90.5728 100.135C90.5728 100.135 90.862 99.1871 90.7517 98.6742C90.6079 98.0057 90.4908 97.3316 90.3506 96.6623C89.7574 93.8321 90.6506 91.4763 92.6547 89.4739C93.0691 89.0599 93.8688 88.3838 94.4017 88.159C95.5329 87.6817 96.3285 87.4753 97.5618 87.2899C97.9116 87.2374 98.1765 87.0926 98.3585 86.7939C98.4964 86.5677 98.445 86.2722 98.2293 86.1167C97.8966 85.8768 97.5258 85.7744 97.1105 85.7654C96.1417 85.7444 95.2665 85.392 95.1182 85.2934C94.3382 84.775 94.1381 84.1282 94.8091 83.4125C95.3644 82.8203 96.4857 82.5432 97.2531 82.5054C99.9259 82.3736 102.031 82.9569 104.302 84.4246C105.551 85.2319 106.744 86.1043 107.809 87.1478C108.617 87.9395 109.284 88.8344 109.852 89.8031C110.074 90.1827 110.341 90.5138 110.63 90.8403C111.42 91.7321 112.181 92.6504 112.974 93.5395C113.559 94.1947 114.233 94.6926 115.129 94.9179C116.361 95.2279 117.606 95.4079 118.864 95.5482C120.291 95.7075 121.605 96.2047 122.827 96.9432C122.944 97.0134 123.015 97.1575 123.107 97.2673C122.911 97.4765 122.656 97.4883 122.401 97.458C120.728 97.259 119.048 97.3094 117.408 97.623C115.007 98.0825 112.788 97.525 110.605 96.6602C109.085 96.0584 107.605 95.3531 105.915 95.3665C105.66 95.3686 105.422 95.2519 105.229 95.0718C104.653 93.6365 104.083 92.2138 103.085 90.9758C101.072 88.4776 97.849 88.4726 95.9798 91.0894C94.1845 93.6028 93.7245 96.353 94.744 99.3117C94.9675 99.9605 95.4449 100.434 95.6042 101.101C95.6828 101.431 95.4275 101.742 95.4275 101.742C95.4275 101.742 90.6606 100.171 90.5728 100.135Z" fill="#B06A1D"/>
<path d="M68.7834 63.8314C68.9712 62.1187 69.7091 60.7298 69.9223 60.3405C70.0515 60.0044 70.6569 58.9761 71.0473 58.6391C71.5042 58.2447 71.4362 58.5543 72.182 58.8032C73.2374 59.3656 74.4121 59.2528 75.542 59.3939C77.4348 59.6302 79.3215 59.8896 81.0068 60.8812C81.4636 61.1592 81.8747 61.5027 82.3159 61.8013C82.6651 62.0006 82.9509 61.7767 83.2242 61.6338C85.1199 60.6428 87.1411 60.0078 89.2259 59.5148C88.6606 59.12 88.6594 59.1124 88.1322 59.1964C87.6324 59.276 87.1569 59.4617 86.6633 59.5637C85.7495 59.7525 85.5528 59.5109 85.7821 58.5259C88.613 57.2447 91.2275 57.8769 93.6924 59.4789C95.5009 60.6543 96.8016 62.2704 97.5567 64.3028C97.6373 64.7663 97.7524 65.2381 97.2917 65.59C96.9645 65.322 96.6906 65.0821 96.1615 65.1426C94.4647 65.3367 92.9329 64.8457 91.5738 63.805C91.0271 63.3864 90.4491 63.0105 89.8375 62.685C86.9997 61.1747 84.2281 63.1361 83.2321 65.2638C83.1263 65.4897 83.0434 65.7339 83.2011 65.9853C83.6093 66.0714 83.7356 65.6442 84.0362 65.5551C85.1401 65.1136 86.2457 64.6571 87.2081 65.8296C87.2892 66.481 86.7111 66.6589 86.3613 67.0025C86.0872 67.209 85.7939 67.3847 85.4893 67.5436C83.3654 68.3774 81.2695 68.5127 79.2308 67.2884C79.0142 66.6019 78.8848 65.9444 79.7807 65.6149C80.4088 65.384 81.0452 65.7857 81.6854 65.6333C81.7331 65.0555 80.9039 65.2086 80.9755 64.674C81.1839 64.4652 81.4327 64.4935 81.6976 64.5638C79.4193 62.1815 74.9216 62.7676 73.1432 66.1832C72.9263 66.5998 72.7274 67.0258 72.5039 67.4388C71.7341 68.8614 70.4519 69.1313 69.0685 68.1663C68.5568 66.7426 68.6163 65.3565 68.7834 63.8314Z" fill="#272F77"/>
<path d="M105.13 94.3894C105.865 94.3086 108.538 95.1239 109.91 95.6936C111.145 96.2061 112.627 97.0864 113.947 97.3527C114.634 97.4913 115.312 97.5197 115.996 97.4684C116.751 97.4119 117.503 97.2906 118.255 97.2121C122.403 96.7794 123.646 97.2602 124.092 97.3639C126.328 97.8839 127.727 99.5943 127.802 99.7159C127.98 100.005 127.978 100.533 127.777 100.742C127.518 101.012 127.209 101.205 126.809 101.073C126.328 100.914 125.839 100.769 125.378 100.563C123.107 99.6514 120.79 100.477 120.333 100.575C119.414 100.772 118.498 100.993 117.595 101.253C114.848 102.046 112.224 101.665 109.68 100.471C109.253 100.27 108.824 100.071 108.414 99.8406C107.424 99.284 106.403 99.3197 105.367 99.6609C104.288 100.016 103.367 100.669 102.415 101.26C101.77 101.662 101.132 102.075 100.483 102.469C100.202 102.639 99.8929 102.743 99.5502 102.709C98.5651 102.716 97.8054 102.505 97.8054 102.505C97.7374 101.068 97.6968 99.1891 98.5105 98.1613C99.4944 96.9184 100.785 95.4628 102.246 94.8521C102.815 94.6143 104.381 94.4716 105.13 94.3894Z" fill="#FCCA95"/>
<path d="M100.428 109.239C99.3268 108.886 98.8042 108.716 97.7185 108.316C97.2598 108.148 96.2553 107.744 96.0047 107.64C94.7347 107.115 93.4719 106.573 92.2063 106.038C90.9746 105.516 89.7423 104.996 88.5109 104.474C88.0627 104.284 88.016 104.288 87.6608 104.645C87.4827 104.825 87.3249 105.024 87.1453 105.202C86.6398 105.702 86.0276 105.834 85.3434 105.699C85.3081 105.692 85.2735 105.68 85.2395 105.668C83.6384 105.081 82.0647 104.445 80.8391 103.196C80.823 103.09 80.8017 102.984 80.7914 102.878C80.7358 102.301 80.6666 102.191 80.0648 102.218C79.7776 102.23 79.4897 102.229 79.2022 102.236C78.6519 102.251 78.1415 102.096 77.6335 101.902C77.0968 101.697 76.8252 101.336 76.8536 100.76C76.9252 100.685 76.998 100.684 77.0719 100.757C77.0869 101.067 77.3288 101.111 77.5479 101.14C78.1255 101.217 78.7484 101.038 79.2977 100.667C80.3756 99.9399 81.4966 99.2738 82.6189 98.6147C83.0515 98.3606 83.5279 98.1726 83.9998 97.9956C84.343 97.8669 84.715 97.8967 85.0754 97.9599C85.2853 97.9967 85.4131 98.2912 85.2933 98.4764C85.1963 98.6263 85.0824 98.7691 84.957 98.8964C84.6521 99.206 84.4115 99.3654 84.0189 99.8004C83.4158 100.468 83.0469 101.131 82.8366 101.935C82.633 102.713 83.1597 103.719 83.9737 103.874C84.8186 104.036 86.1118 103.766 86.8594 103.242C87.2519 102.966 87.6662 102.775 88.1192 102.627C88.5552 102.484 88.9525 102.508 89.3908 102.631C90.6513 102.986 91.8317 103.539 93.0361 104.032C95.0782 104.868 99.3204 106.548 99.9171 106.691C100.591 106.998 101.293 107.11 102.033 107.069C103.317 107.1 104.028 106.398 104.389 105.987C104.887 106.778 104.336 107.841 103.974 108.224C103.974 108.224 103.83 108.536 103.331 108.979C102.858 109.398 101.304 109.519 100.428 109.239Z" fill="#E0CBAE"/>
<path d="M86.2305 66.844C86.6938 66.4823 86.8646 66.2713 87.1516 66.033C87.6405 65.3125 87.9527 64.4114 88.9002 64.1241C89.6002 64.2991 89.9278 64.8842 90.3116 65.4048C90.8476 66.1318 91.2959 66.9354 92.0179 67.5049C93.5473 68.7114 95.4386 68.3438 96.5 66.6666C96.7299 66.3033 96.7947 65.8419 97.1645 65.5636C97.4514 65.1471 97.3603 64.6848 97.3271 64.2296C97.2654 63.5134 96.6935 62.8375 97.1566 62.0801C98.1569 63.5705 98.6271 65.2089 98.441 66.9962C98.3219 68.1396 97.6971 69.0266 96.7483 69.6515C96.1734 70.0301 95.5111 70.2194 94.8212 70.3488C92.9071 70.7076 91.2663 70.04 89.6947 69.0785C89.4164 68.9083 89.1561 68.7122 88.84 68.6135C88.3997 68.6417 88.1982 68.23 87.8513 68.0848C87.3064 67.6772 86.5615 67.5279 86.2305 66.844Z" fill="#B06A1D"/>
<path d="M97.1566 62.08C97.3073 62.7834 97.5082 63.9654 97.3527 64.6985C97.1208 64.5032 97.0153 63.7482 96.886 63.4927C95.4363 60.6254 93.136 58.5979 89.9793 58.2127C88.8757 58.0781 87.7344 57.9302 86.6693 58.4856C86.4005 58.6258 86.1057 58.6023 85.8163 58.6086C85.4202 58.2465 85.5495 57.755 85.4912 57.3091C85.5679 56.6931 85.2717 55.9515 86.0722 55.5764C87.8153 55.0697 89.4835 55.34 91.1239 56.0272C93.0292 56.8254 94.5766 58.0734 95.8568 59.6713C96.4471 60.3901 96.9641 61.1819 97.1566 62.08Z" fill="#1B273F"/>
<path d="M75.8796 70.6861C75.415 71.4616 74.5695 71.8082 73.7318 72.0252C73.0425 72.2037 72.3818 71.9609 71.8205 71.5122C71.2774 71.078 70.9192 70.4971 70.5645 69.9147C70.7326 69.6867 70.9898 69.6289 71.2363 69.6489C72.5631 69.7563 73.2695 68.9647 73.8283 67.9287C74.1677 67.2994 74.4455 66.6362 74.8407 66.0382C75.1123 65.6272 75.3298 65.1463 75.896 65.0381C76.5602 65.3473 77.2155 65.6689 77.5737 66.3629C77.3119 66.6937 77.2877 67.0427 77.5011 67.4086C77.5967 68.1262 76.2769 70.023 75.8796 70.6861Z" fill="#B06A1D"/>
<path d="M75.9567 65.1583C75.3391 65.544 75.0694 66.1945 74.7255 66.7838C74.3972 67.3463 74.1004 67.927 73.7887 68.4991C73.1851 69.6071 72.2531 70.0543 70.9652 70.0224C70.0308 69.9992 69.271 69.0002 69.0684 68.1663C69.5779 68.385 69.9857 68.6319 70.5211 68.6948C71.1587 68.7696 71.7903 68.2727 72.0838 67.6814C72.3894 67.0657 72.6635 66.4305 73.0179 65.8437C73.8271 64.504 74.9278 63.4634 76.4752 63.0612C77.2238 62.8666 78.0169 62.86 78.8179 62.9013C79.6255 62.943 80.2862 63.2339 80.9638 63.5781C81.1962 63.6961 81.3893 63.8549 81.5414 64.0612C81.6491 64.2073 81.7784 64.3885 81.7034 64.555C81.6037 64.8754 81.0711 64.6918 80.9986 64.6949C80.8699 64.8357 80.694 64.9234 80.5201 64.8923C78.976 64.6164 77.4654 64.8612 75.9567 65.1583Z" fill="#2D399D"/>
<path d="M103.975 108.224C104.242 107.591 104.45 106.916 104.411 106.201C104.396 105.914 104.318 105.604 104.246 105.319C104.08 104.658 103.672 104.279 102.963 104.097C102.297 103.926 101.788 103.822 101.064 103.62C101.064 103.62 101.109 103.4 101.221 103.273C101.977 102.418 102.821 102.237 103.85 102.67C104.825 103.08 105.369 103.873 105.802 104.768C106.111 105.405 106.14 106.092 106.095 106.785C106.071 107.161 105.935 107.501 105.692 107.774C105.37 108.134 104.9 108.705 104.35 108.488C104.189 108.425 104.076 108.386 103.975 108.224Z" fill="#FCCA94"/>
<path d="M125.94 132.909C126.758 133.78 127.37 134.766 127.787 135.894C128.191 136.985 128.782 138.768 128.537 141.154C128.508 141.436 128.182 142.856 128.032 143.305C127.67 144.382 126.235 146.351 126.165 146.268C126.163 146.266 126.175 146.258 126.173 146.26C124.329 148.125 123.226 148.518 123.102 148.638C123.102 148.638 122.724 148.78 122.647 148.704C122.466 148.581 122.472 148.503 122.575 148.319C123.02 147.528 123.273 146.663 123.558 145.809C123.844 144.95 124.039 144.079 123.985 143.165C123.967 142.878 123.975 142.588 123.984 142.3C124.057 139.942 123.371 137.761 122.41 135.647C121.902 134.53 121.294 133.47 120.464 132.551C120.336 132.409 120.287 132.242 120.281 132.057C120.369 131.988 120.47 131.954 120.581 131.952C120.911 131.984 121.243 131.986 121.575 131.988C123.037 132.265 124.545 132.326 125.94 132.909Z" fill="#B6B6B6"/>
<path d="M121.24 132.562C120.434 132.376 118.654 131.731 117.865 131.489C115.863 130.873 114.733 130.488 112.774 129.745C112.172 129.517 110.031 128.754 109.406 128.586C107.526 128.083 106.304 127.894 104.42 127.41C103.55 127.187 102.663 127.028 101.784 126.841C101.678 126.818 101.567 126.815 101.464 126.783C100.685 126.537 100.505 126.212 100.641 125.314C100.764 125.034 100.983 124.888 101.283 124.853C102.285 124.772 103.208 125.155 104.156 125.363C105.636 125.688 107.124 125.961 108.621 126.192C109.725 126.362 110.82 126.588 111.92 126.777C112.915 126.948 113.915 127.093 114.909 127.268C117.236 127.677 119.485 128.341 121.621 129.356C123.356 130.181 124.745 131.431 125.941 132.91C125.066 132.978 121.307 132.562 121.24 132.562Z" fill="#F2F2F2"/>
<path d="M74.6338 99.2523C74.2381 99.1705 73.7552 99.0146 73.5075 98.7394C73.1045 98.2916 72.9919 97.6757 73.3466 97.0517C73.8379 97.5562 73.8717 97.5689 74.3229 97.3026C75.6257 96.5339 76.9242 95.7581 78.2278 94.9909C79.1644 94.4398 80.9751 93.6613 81.2955 93.8407C81.6381 94.0325 80.9907 94.3862 80.7784 94.5416C79.9078 95.1788 78.717 95.756 77.8394 96.3838C76.9908 96.9907 76.523 97.3231 75.6256 98.0858C75.275 98.3837 74.9697 98.7313 74.6338 99.2523Z" fill="#E0CBAF"/>
<path d="M77.0726 100.757C76.9998 100.758 76.927 100.759 76.8543 100.76C76.3361 100.85 76.0437 100.853 75.5161 100.632C75.2085 100.503 74.7887 100.032 74.6992 99.6695C75.0986 99.7139 75.3953 99.534 75.6557 99.2528C76.9156 97.8923 78.5042 97.0445 80.1981 96.3551C80.7684 96.123 81.3014 95.7997 81.905 95.6482C82.0783 95.6047 82.5122 95.443 82.6084 95.5937C82.7672 95.8424 82.1196 96.2647 81.8311 96.4316C81.0158 96.9035 80.1903 97.3616 79.4028 97.8766C78.3231 98.5827 77.405 99.4404 77.0726 100.757Z" fill="#E0CBAF"/>
<path d="M42.2817 83.4478C42.2544 82.8896 41.5995 82.6636 41.2705 82.6581C40.4506 82.6445 40.3412 83.5432 40.3412 83.5432C39.5433 83.5491 38.5075 83.6281 37.7097 83.6146C37.468 83.6105 37.3581 83.4302 37.3624 83.1612C37.3695 82.7166 37.4777 82.2755 37.6967 81.9141C38.4299 80.7044 39.4596 79.8753 40.9494 79.9005C42.5451 79.9275 43.7639 80.7442 44.766 81.9217C44.9332 82.1183 45.0076 82.3605 45.0296 82.6218C45.0748 83.1587 44.949 83.3309 44.4103 83.4058C43.908 83.4757 42.2817 83.4478 42.2817 83.4478Z" fill="#947EC6"/>
<path d="M86.075 59.6105C85.9096 59.8103 86.5029 60.0109 84.836 60.7906C84.3378 61.0237 82.7895 62.1137 82.1099 62.0675C81.7658 61.7704 81.4216 61.4734 81.0775 61.1763C80.333 60.4838 78.4212 59.7535 77.5388 59.2837C77.0694 59.0338 77.0689 57.2779 77.4863 56.6556C77.503 55.8591 77.4675 55.0241 77.4841 54.2275C77.4841 54.2275 78.6519 56.5001 82.0119 56.4878C84.499 56.4788 86.2481 54.4636 86.2481 54.4636C86.255 54.6757 86.0682 59.3983 86.075 59.6105Z" fill="#FFF3E5"/>
<path d="M77.486 56.6554C77.5154 57.3683 77.5448 58.0811 77.5741 58.794C77.5145 58.8376 77.4391 58.9023 77.3855 58.8833C75.6199 58.2579 73.8478 58.4734 72.0738 58.8321C71.5377 59.0064 70.8608 59.1837 70.3643 59.5513C70.6276 58.9814 71.1924 58.4742 71.7037 58.108C72.4052 57.6055 73.0893 57.1078 73.9054 56.771C75.1053 56.2758 76.2795 56.2882 77.486 56.6554Z" fill="#1C273F"/>
<path d="M110.827 234.562C110.492 235.105 109.697 235.829 109.267 236.295C109.052 236.528 108.831 236.764 108.49 236.817C108.149 236.88 107.873 236.787 107.686 236.482C107.338 235.029 107.549 233.538 107.362 232.063C106.601 226.074 105.942 220.076 104.799 214.137C102.667 203.051 100.17 192.048 97.4792 181.085C96.8068 178.346 93.9038 169.154 92.9168 167.352C92.8546 167.268 92.4795 165.3 92.4795 165.3C92.4795 165.3 93.0332 162.699 95.1397 162.559C95.4882 162.535 96.9238 162.772 97.2549 162.95C98.8856 163.824 100.216 165.016 101.151 166.614C101.329 166.919 101.426 167.283 101.502 167.632C101.786 168.931 102.05 170.232 102.19 171.561C102.34 172.988 103.681 184.044 103.856 185.037C103.993 185.815 104.832 191.834 104.952 193.155C105.073 194.482 106.003 200.925 106.052 201.598C106.152 202.965 110.79 234.06 110.827 234.562Z" fill="#272F77"/>
<path d="M93.3762 266.555C93.3008 266.486 91.5605 265.049 91.0462 264.538C90.199 263.696 89.7162 262.475 89.7328 262.427C89.7496 262.378 90.9307 262.072 91.1761 261.971C91.5435 261.82 95.5472 259.519 97.2881 258.074C98.2577 257.269 102.377 253.668 103.26 252.464C103.864 251.64 104.985 250.308 105.224 249.049C105.305 248.759 105.029 248.057 104.782 247.873C104.708 247.972 103.156 248.196 102.555 247.198C101.656 245.705 102.906 244.786 102.947 244.765C102.991 244.779 103.035 244.794 103.079 244.809C103.018 245.253 103.332 245.462 103.64 245.654C104.298 246.065 105.037 246.293 105.798 246.328C106.958 246.381 108.132 246.434 109.282 246.313C110.975 246.136 112.648 245.791 114.163 244.937C114.319 244.85 114.49 244.79 114.67 244.709C114.938 244.986 115.124 245.276 115.271 245.614C115.951 247.179 116.368 248.822 116.736 250.478C116.892 251.178 116.767 251.81 116.284 252.402C115.153 253.789 113.809 254.941 112.34 255.932C110.841 256.943 109.268 257.848 107.721 258.788C106.233 259.691 104.686 260.487 103.15 261.305C100.079 262.94 97.034 264.623 93.9808 266.29C93.8584 266.357 93.5169 266.56 93.3762 266.555Z" fill="#C9DEF1"/>
<path d="M93.6631 167.079C94.4283 167.206 94.7319 168.393 94.8838 168.822C95.3339 170.095 98.4854 183.796 98.8855 185.477C99.4849 187.997 100.045 190.525 100.634 193.047C101.035 194.764 104.516 211.186 104.785 212.56C104.957 213.442 105.138 214.322 105.301 215.206C105.502 216.301 105.689 217.398 105.881 218.495C106.084 219.661 107.832 233.987 107.837 234.53C107.843 235.181 107.837 235.832 107.837 236.483C107.345 236.847 107.528 236.903 107.037 236.777C106.817 236.654 106.144 236.626 106.071 236.414C106.001 236.097 93.1523 167.689 92.916 167.352C92.916 167.352 93.3843 167.033 93.6631 167.079Z" fill="#2D399D"/>
<path d="M106.766 244.626C106.108 244.961 103.616 244.843 103.079 244.809C103.079 244.808 100.503 243.981 99.6212 243.203C99.1475 242.786 98.5462 241.17 98.8195 240.099C99.7863 236.31 105.19 236.24 105.504 236.253C105.611 236.257 105.817 236.465 105.907 236.522C106.404 237.26 105.705 237.413 105.222 237.704C104.633 238.059 104.046 238.385 103.636 238.975C102.575 240.5 102.815 242.021 104.325 243.11C104.825 243.471 105.37 243.751 105.93 244.008C106.249 244.155 106.638 244.217 106.766 244.626Z" fill="#FCCA95"/>
<path d="M60.9372 215.057C60.9372 215.057 61.2315 215.59 61.7508 216.143C62.7313 217.189 64.6296 218.34 66.8889 218.703C68.2749 219.017 70.2683 218.857 70.6958 218.787C70.9315 218.748 71.1358 218.831 71.1827 219.097C71.2754 219.623 71.7082 222.661 70.7346 224.756C70.644 225.196 69.551 226.338 69.1847 226.483C67.8038 227.028 66.1893 227.407 64.7183 227.668C63.2237 227.934 51.5642 229.301 50.5201 229.403C49.4417 229.508 48.3667 229.647 47.2888 229.758C46.8206 229.807 46.3491 229.825 45.8788 229.853C45.3524 229.85 45.2353 230.261 45.2353 230.261C45.2353 230.261 44.5166 228.853 44.1681 227.59C43.8675 226.501 43.8128 225.548 43.7109 224.842C44.3631 224.841 45.0161 224.817 45.667 224.843C47.6333 224.923 49.5562 224.642 51.4369 224.11C53.0338 223.658 54.6403 223.207 56.1807 222.599C58.0727 221.853 59.8192 220.829 61.1922 219.271C61.4438 218.986 61.6415 218.71 61.5893 218.314C61.4957 217.342 60.7559 217.322 60.612 216.47C60.4571 215.553 60.9372 215.057 60.9372 215.057Z" fill="#C9DEF1"/>
<path d="M105.726 236.409C105.922 236.385 106.436 236.359 106.928 236.377C107.438 236.396 108.272 236.706 108.49 236.817C108.088 237.385 107.574 237.826 106.996 238.215C106.67 238.435 106.298 238.6 106.04 238.922C105.822 239.194 105.873 239.462 106.159 239.645C106.517 239.873 106.849 239.787 107.189 239.627C107.982 240.516 108.247 240.578 109.121 239.757C110.082 238.855 111.096 238.055 112.313 237.533C112.777 237.334 112.944 236.848 113.316 236.565C113.424 236.707 113.509 236.875 113.642 236.988C114.329 237.577 114.295 238.349 114.068 239.075C113.607 240.551 112.82 241.814 111.358 242.533C110.552 242.93 109.746 243.329 108.948 243.741C108.634 243.903 108.259 243.99 108.088 244.355C107.647 244.445 107.207 244.535 106.766 244.626C105.911 244.254 102.701 243.403 102.656 240.939C102.606 238.174 105.23 237.425 105.499 237.248C105.808 237.046 105.898 236.756 105.726 236.409Z" fill="#EB9C47"/>
<path d="M97.3116 65.3111C97.1549 66.6178 96.2204 67.728 95.0901 68.2606C93.8323 68.8534 92.6975 68.4863 91.7051 67.6009C91.1632 67.1175 90.7784 66.5014 90.3621 65.9145C89.924 65.2971 89.492 64.6753 88.8704 64.2184C87.1509 63.4787 85.7629 63.9916 84.5974 65.3408C84.488 65.426 84.3723 65.5044 84.2589 65.5847C84.1909 65.6428 84.1257 65.7049 84.0642 65.7707C83.8786 65.9878 83.7007 66.2122 83.5041 66.419C83.4068 66.5212 83.2811 66.6095 83.1179 66.5612C82.9243 66.5039 82.8174 66.3575 82.7821 66.1754C82.7188 65.8489 82.7613 65.5365 82.9169 65.2309C83.3794 64.3228 83.9683 63.5506 84.8078 62.9212C85.7836 62.1896 86.8355 61.8601 88.027 61.8589C88.9345 61.8579 89.7 62.2803 90.4474 62.7068C91.0083 63.0269 91.503 63.4601 92.042 63.8208C93.0197 64.475 94.0778 64.9079 95.2795 64.9008C95.7501 64.898 96.2209 64.8902 96.6912 64.8731C97.098 64.8582 97.3074 65.239 97.3116 65.3111Z" fill="#2D399D"/>
<path d="M87.9856 67.933C87.1316 67.7183 86.4778 68.2502 85.7563 68.5296C85.5559 68.6898 85.3233 68.7752 85.0777 68.8308C84.9227 68.8676 84.7688 68.913 84.611 68.9361C84.6676 68.8828 84.8275 68.8771 84.9186 68.8594C85.3625 68.7736 85.7348 68.5576 85.9574 68.1826C86.2255 67.7307 86.3073 67.2881 85.5443 67.2594C85.3384 67.3253 85.1308 67.3865 84.9268 67.4579C82.9816 68.1382 81.0899 67.9626 79.2396 67.1097C78.7836 66.5461 78.17 66.3512 77.4698 66.3591C77.4025 66.372 77.3322 66.3762 77.2686 66.3991C76.9039 66.5305 76.7763 66.7095 76.917 66.9927C76.9911 67.1419 77.2906 67.3033 77.2906 67.3033C77.3348 68.5184 76.657 68.6449 76.6242 69.5532C76.6016 70.1771 79.215 71.4203 83.9678 71.1629C85.8416 70.7917 87.513 70.0255 88.8408 68.6132C88.5666 68.436 88.2113 68.116 87.9856 67.933Z" fill="#F9C892"/>
<path d="M79.2394 67.1096C78.7684 66.9654 78.0566 66.6185 77.4703 66.3594C76.8963 65.985 76.3449 65.7036 75.957 65.158C76.46 64.6775 77.1185 64.5394 77.7575 64.4995C79.7933 64.2694 80.6132 64.5689 80.9989 64.6947C81.2897 64.7664 82.0029 65.1101 82.1765 65.3514C82.2634 65.4722 82.3017 65.6065 82.2549 65.755C82.2038 65.917 81.9896 66.0531 81.8431 66.0599C81.4479 66.0784 81.1325 66.0166 80.7493 65.8678C80.4382 65.747 80.1169 65.7487 79.796 65.8472C79.3774 65.9757 79.2733 66.1386 79.3768 66.6441C79.4183 66.8467 79.4037 66.9885 79.2394 67.1096Z" fill="#1C2740"/>
<path d="M89.6728 59.1483C89.138 58.9309 88.6424 58.8317 87.9973 58.9135C87.2004 59.0145 86.2984 59.1778 85.2065 59.7962C84.3627 60.2739 83.3277 60.9609 82.3628 60.8663C81.4676 60.7785 79.9399 60.0433 79.4849 59.781C78.8644 59.4235 78.212 59.121 77.5737 58.7945C76.5492 58.2659 75.4592 58.0419 74.3154 58.1792C73.5375 58.2725 72.7182 58.2685 72.0732 58.8325C72.0986 59.2829 72.3681 59.4886 72.7891 59.4636C73.8796 59.3988 76.698 59.775 77.3194 59.8921C78.3706 60.0901 81.045 62.213 82.4605 62.2652C83.8972 62.3182 86.106 60.7541 87.3925 60.2851C88.0069 60.0612 88.621 59.8466 89.2939 59.895C89.397 59.9024 89.5118 59.8672 89.6079 59.8231C89.7405 59.7623 89.845 59.664 89.8681 59.504C89.8926 59.3342 89.7964 59.1985 89.6728 59.1483Z" fill="#2E399C"/>
<path d="M84.0645 65.7708C84.0698 65.7046 84.2086 65.4114 84.2823 65.3391C84.8071 64.5681 85.5389 64.047 86.4067 63.7608C87.2864 63.4706 88.1788 63.3797 88.8706 64.2186C88.7165 64.4874 88.5252 64.6984 88.245 64.9912C87.8778 65.3749 87.6066 65.6943 87.1518 66.0328C86.6368 65.411 85.938 65.2507 85.1939 65.4325C84.8126 65.5256 84.4406 65.6568 84.0645 65.7708Z" fill="#1C2740"/>
<path d="M84.7705 69.1932C84.3297 69.1644 83.9897 69.2378 84.0238 68.9226C84.0632 68.5593 84.6827 68.7221 84.985 68.6149C85.3118 68.499 85.5551 68.3879 85.7577 68.1841C86.1219 67.8175 85.9627 67.3875 85.5436 67.2594C85.9558 67.0539 86.0925 66.9654 86.2304 66.8438C86.8153 67.2068 87.4001 67.5699 87.9849 67.933C87.4795 68.3474 86.0583 69.2053 84.7705 69.1932Z" fill="#E89C48"/>
<path d="M84.2827 65.3389C84.2151 65.4165 84.1475 65.4941 84.0801 65.5719C84.1477 65.4943 84.2152 65.4166 84.2827 65.3389Z" fill="#272F77"/>
<path d="M63.3435 150.294C63.1204 150.064 63.0969 149.599 63.314 149.257C63.5208 148.931 63.8773 148.978 64.1951 149.057C64.9002 149.233 66.0327 149.875 66.6062 150.331C67.8634 151.121 69.6458 152.251 71.5217 153.17C75.7497 155.24 80.2421 156.337 84.9577 156.292C87.7934 156.265 90.6317 155.873 93.2727 154.825C95.6768 153.871 97.8176 151.175 99.1108 150.057C99.7316 149.347 101.125 148.915 102.357 148.88C105.326 148.796 108.287 149.161 111.255 149.102C111.871 149.159 112.491 149.103 113.107 149.15C113.418 149.173 113.849 149.131 113.898 149.537C113.943 149.91 113.543 150.04 113.255 150.177C112.822 150.382 112.345 150.428 111.879 150.495C109.439 150.847 106.985 151.06 104.529 151.239C104.529 151.239 103.576 151.246 103.243 151.339C102.768 151.398 102.485 151.437 101.717 151.884C100.375 152.664 99.538 153.453 98.4477 154.512C96.7059 156.203 93.3354 159.427 82.6049 159.488C78.1855 159.513 69.6718 155.265 67.918 154.117C65.8866 152.786 63.6178 150.577 63.3435 150.294Z" fill="#B6B6B6"/>
<path d="M115.85 240.215C114.542 242.04 112.822 243.47 110.814 243.995C109.533 244.329 107.711 244.547 107.602 244.166C107.441 243.605 108.521 243.658 108.883 243.48C109.694 243.081 110.499 242.672 111.301 242.255C112.461 241.652 113.129 240.64 113.645 239.51C114.114 238.48 113.909 237.542 113.123 236.729C112.462 235.872 111.617 235.833 110.713 236.238C109.537 236.764 108.623 237.606 107.943 238.694C107.716 239.056 107.572 239.471 107.245 239.769C106.719 240.144 106.185 240.117 105.841 239.587C105.481 239.034 106.596 237.569 107.018 237.285C111.104 234.348 110.48 234.108 112.428 233.108C112.922 232.931 116.949 231.948 117.177 235.513C117.199 235.857 117.677 237.666 115.85 240.215Z" fill="#B06A1D"/>
<path d="M113.122 236.486C113.139 236.968 113.124 237.399 112.697 237.621C112.376 237.787 112.048 237.943 111.725 238.107C111.01 238.471 110.36 238.923 109.798 239.498C109.444 239.86 109.072 240.202 108.63 240.463C107.915 240.886 107.426 240.681 107.202 239.843C107.184 239.774 107.192 239.699 107.188 239.627C107.703 238.177 108.669 237.105 109.969 236.305C110.406 236.036 110.874 235.842 111.37 235.761C112.169 235.63 112.689 235.703 113.122 236.486Z" fill="#FBCA94"/>
<path d="M69.1528 210.175C69.1224 210.778 68.564 210.736 68.1838 210.86C67.5123 211.08 66.7881 211.162 66.1822 211.67C66.0916 211.702 66.2919 211.883 66.2156 211.759C66.1963 211.728 66.2138 211.709 66.2604 211.687C66.76 211.443 67.2777 211.427 67.8095 211.558C68.2692 211.915 68.7996 212.008 69.3443 211.875C70.5224 211.587 71.6407 211.782 72.7098 212.273C73.2868 212.537 73.9073 212.478 74.4926 212.64C74.7695 213.217 74.384 213.596 74.0696 213.98C72.9156 215.389 71.4086 216.183 69.6073 216.367C68.6689 216.463 69.9397 217.192 69.0207 217.378C68.4143 217.526 65.4709 217.113 64.8847 216.806C63.6216 215.834 63.3787 214.668 62.5036 213.33C61.8053 212.262 61.0009 211.071 61.873 209.857C62.7588 208.624 62.5095 207.923 63.9646 208.019C64.2121 208.036 65.1368 207.795 65.3857 207.838C65.7774 207.909 69.1084 210.001 69.1528 210.175Z" fill="#EB9C47"/>
<path d="M71.5709 209.054C72.8737 208.482 74.0215 208.152 76.0258 208.555C77.3377 208.818 77.9695 210.028 78.0756 210.633C78.3987 212.478 77.7736 215.04 74.0489 216.507C72.6879 217.043 71.1717 217.251 69.7687 217.37C68.9091 217.444 68.3813 217.481 67.5533 217.206C67.2992 217.121 67.0568 216.733 67.1252 216.561C67.4326 215.787 68.4318 216.19 69.2733 216.126C71.2041 215.98 72.8204 215.176 74.0259 213.631C74.2485 213.346 74.4677 213.052 74.4501 212.66C73.8507 210.772 73.0626 210.347 71.0422 210.688C69.8952 210.881 68.8649 211.443 67.7214 211.622C67.1328 211.851 66.3754 212.169 65.9281 211.76C65.6946 211.547 66.0601 211.312 66.2452 211.231C66.6717 211.043 67.1126 210.882 67.558 210.743C67.9346 210.626 68.3258 210.555 68.7105 210.464C68.9172 210.415 68.9864 210.254 69.0292 210.073C69.6851 209.816 71.2069 209.214 71.5709 209.054Z" fill="#B06A1E"/>
<path d="M66.4399 208.709C66.3709 208.952 65.78 208.965 65.4951 208.89C64.3656 208.594 63.7451 208.603 62.762 209.045C62.1502 209.319 61.732 210.288 61.811 210.985C61.8731 211.532 62.0137 212.059 62.3035 212.515C62.8046 213.305 63.2913 214.107 63.9883 214.759C64.5943 215.325 65.7646 215.699 65.7418 216.528C65.7181 217.385 64.5106 216.651 63.967 216.392C63.0611 215.96 62.225 215.393 61.3957 214.826C60.9618 214.529 59.4277 213.275 58.9826 212.004C58.6597 211.082 58.7117 209.559 60.2869 208.322C62.2792 206.757 64.8574 207.465 65.4997 207.881C65.8665 208.096 66.5611 208.281 66.4399 208.709Z" fill="#FCCA95"/>
<path d="M67.7217 211.623C68.2506 210.951 70.8621 210.239 72.4113 210.301C72.9502 210.3 73.4697 210.491 73.8964 210.862C74.4562 211.348 74.9763 212.036 74.4505 212.66C74.0959 213.081 73.5212 212.951 73.023 212.718C72.6032 212.522 72.1547 212.388 71.7217 212.22C71.0645 211.964 70.3881 211.942 69.7176 212.113C69.219 212.241 68.7228 212.233 68.2244 212.2C67.8928 212.178 67.5107 211.89 67.7217 211.623Z" fill="#FBC994"/>
<path d="M37.7932 126.521C38.8902 126.521 39.4246 124.951 40.0996 124.027C40.7747 123.102 42.4904 120.804 42.406 119.038C42.3217 117.272 41.3653 114.161 38.1589 114.077C34.9524 113.993 34.1648 117.188 34.1367 118.786C34.1086 120.383 34.6993 121.616 35.2055 122.737C35.5487 123.497 36.8332 126.521 37.7932 126.521Z" fill="white"/>
<path d="M40.4337 119.105C40.4655 119.775 40.2227 120.302 39.64 120.655C39.4243 120.786 39.2147 120.932 38.9862 121.035C38.0484 121.461 36.9492 121.077 36.5122 120.157C36.1793 119.456 36.0545 118.708 36.2912 117.957C36.5582 117.111 37.1279 116.556 38.0339 116.381C38.576 116.276 39.0259 116.426 39.4227 116.795C40.0965 117.422 40.3685 118.218 40.4337 119.105Z" fill="#947EC6"/>
</svg>
