<svg width="186" height="278" viewBox="0 0 186 278" fill="none" xmlns="http://www.w3.org/2000/svg">
<path d="M165.176 80.2059C151.671 82.7939 137.969 52.3745 130.047 63.2702C118.125 79.6683 37.9084 89.1474 27.6367 89.8606C20.4966 91.0822 14.2067 94.8302 10.0762 100.693C2.64578 111.367 2.7968 125.191 11.3384 134.961C12.99 136.849 14.2296 139.064 14.8987 141.479C19.9232 159.613 1.2572 182.215 30.9828 186.828C32.9424 187.132 45.5396 189.928 58.8891 164.956C72.6412 139.232 95.7275 166.845 112.886 158.87C117.865 156.556 121.242 151.782 121.886 146.345C127.119 102.212 172.576 126.624 165.176 80.2059Z" fill="#F1DFC5"/>
<path d="M35.4365 85.207L36.7396 89.5571L66.5239 95.9163L61.5516 120.808L85.5752 118.627L90.1111 89.2267L42.3142 82.7612L35.4365 85.207Z" fill="white"/>
<path d="M72.4257 27.6227C72.6796 26.4701 73.4412 24.5234 73.4412 24.5234C76.3107 19.879 82.9507 16.8595 88.3959 17.6129C101.33 9.87035 112.019 14.7429 120.757 25.9255C127.943 34.482 139.159 28.5099 147.964 32.5626C149.139 33.257 151.809 36.294 153.593 38.8244L154.749 40.1702C155.071 40.728 155.226 41.539 155.306 41.8829C156.418 48.3347 163.582 50.317 168.029 53.9592C173.351 58.8503 170.835 68.3148 177.307 71.9555C177.502 72.0694 177.974 72.1507 177.974 72.1507C177.974 72.1507 177.182 73.5902 176.468 74.3216C175.845 74.9608 175.471 75.1951 175.471 75.1951C175.471 75.1951 169.495 76.1287 166.175 77.2484C152.897 79.52 146.506 67.3395 136.253 62.567C121.561 55.7282 106.541 45.4831 106.833 43.5129C108.277 41.5484 110.717 37.104 111.018 34.9193C123.003 37 127.144 54.9952 146.586 48.5248C150.971 45.8397 145.462 45.2208 142.985 45.1974C131.365 42.3562 124.249 29.0743 111.617 28.5606C104.121 29.0407 95.944 31.2206 90.0925 25.0414C87.7239 23.506 83.9349 31.3189 80.9494 32.2521C74.4428 35.6853 71.5191 37.4892 71.415 34.2375C71.415 34.2375 71.6657 29.9982 72.4257 27.6227Z" fill="#F3D57F"/>
<path d="M118.005 74.8875C118.893 75.5661 117.234 80.8815 116.883 82.2842C116.495 82.6747 116.187 82.328 115.873 82.1579C110.709 79.5565 112.43 86.4286 115.792 89.1757C120.354 92.9033 130.522 93.9153 126.838 101.974C122.793 105.98 127.739 106.827 128.352 107.307C128.556 107.467 127.701 107.706 126.642 107.848C120.202 108.165 114.944 100.581 108.54 104.296C106.186 105.391 103.714 109.274 101.081 107.179C99.2048 105.686 98.6226 101.223 95.6592 101.304C95.6592 101.304 96.751 98.2068 97.1419 97.2859C98.8357 93.2952 102.042 90.9127 103.073 86.6539C104.461 83.0296 100.478 79.4859 97.009 81.1094C90.4537 84.1769 90.7586 93.2196 93.1421 99.0732C96.001 102.031 96.203 107.921 92.2895 110.146C89.4728 111.051 83.0793 110.117 85.3856 105.985C86.8214 104.328 86.8596 102.757 85.7694 101.03C83.4547 95.4651 88.0165 96.0597 88.0405 93.3918C88.0871 92.1772 87.7758 90.4464 88.8956 89.6388C89.2364 89.3938 89.168 89.1495 88.8887 88.9081C87.1367 87.8531 83.5191 88.1318 81.5876 87.2589C78.1639 86.6285 77.5511 85.5046 76.4817 81.6504C76.0469 80.0834 76.0238 66.9659 73.7999 69.8212C73.1939 74.7307 70.3359 78.4824 67.0213 82.1944C64.8107 84.0964 61.0434 81.3058 58.1695 81.8987C57.7037 81.6641 57.1915 80.8548 56.8675 80.0976C56.8675 80.0976 55.1541 73.4343 55.1991 73.2305C55.2742 72.891 55.4644 72.5514 55.4644 72.5514C56.2366 71.0517 59.8434 72.2399 59.8773 74.6043C60.2075 76.4491 60.7272 76.3057 61.9088 75.2832C64.3353 73.1789 66.3902 70.6868 67.8353 68.0194C72.2078 64.5624 74.3631 55.5917 80.2866 56.7286C84.4827 57.5339 84.6575 63.0659 87.9095 62.9954C88.3637 63.1667 88.6325 64.0318 89.2697 63.7627C90.8424 60.8464 87.6367 56.1292 91.3327 53.9122C91.4086 53.8253 91.5052 53.7891 91.6198 53.8018C92.0844 55.4186 93.5519 55.8023 94.8443 56.4015C95.2175 58.6781 98.9339 55.9277 100.506 56.2921C103.479 56.5918 102.515 61.067 101.814 62.8986C100.637 65.9774 99.8822 65.3476 98.3194 65.9351C99.4985 65.4918 99.5211 65.2709 101.506 65.3056C101.506 65.3056 102.024 65.6499 102.344 65.7834C102.726 65.9424 103.141 66.0058 103.552 65.9558C103.885 65.9152 104.624 65.7116 104.624 65.7116C108.328 66.2522 112.724 66.3234 114.363 69.403C115.284 70.9881 116.137 74.2339 118.005 74.8875Z" fill="#C9DEF1"/>
<path d="M172.127 65.9976C170.498 58.7579 170.305 58.2363 169.69 56.8091C167.076 50.7388 158.199 50.7443 155.905 44.3845C155.319 42.7552 153.942 39.3912 153.979 39.2744L154.365 39.7238C154.43 39.792 156.831 42.3403 157.215 42.6437C161.372 45.9305 167.253 45.2245 171.933 47.613C177.913 50.2351 182.189 56.4985 181.133 63.2295C181.129 63.2616 181.125 63.2939 181.121 63.3261C180.85 65.521 177.974 72.1505 177.974 72.1505C176.086 72.7667 172.765 68.8316 172.127 65.9976Z" fill="#FDEFC2"/>
<path d="M36.6708 185.879C36.3973 181.953 39.0812 166.238 40.5016 162.235C41.0479 160.696 43.4297 160.823 42.9337 164.949C39.7084 191.781 52.8856 220.96 55.2647 239.227C52.8995 235.56 43.6995 216.179 42.3657 212.317C38.6772 204.265 37.3096 195.052 36.6708 185.879Z" fill="#2D399D"/>
<path d="M115.162 19.9214C99.9647 11.7923 88.4716 18.7063 88.4716 18.7063C82.8542 17.1039 80.2567 18.2746 73.0996 25.4428L73.4418 24.5234C75.0639 19.3315 82.032 10.381 89.0209 13.2109C89.3635 13.365 89.6499 13.3011 89.9922 13.0436C96.5494 8.11091 109.529 14.1862 115.162 19.9214Z" fill="#FDEFC2"/>
<path d="M46.218 255.687C46.999 255.067 52.2011 250.93 53.6769 249.637L55.2834 247.938C62.8031 243.07 46.2599 273.184 44.8446 260.424C44.8446 260.424 44.5716 257.208 46.0245 255.85C46.086 255.792 46.152 255.74 46.218 255.687Z" fill="#FCCA95"/>
<path d="M148.284 32.8438C137.027 28.4822 125.791 36.094 117.738 22.4048C126.952 31.3363 139.185 23.744 148.648 33.0288C148.648 33.0288 148.287 32.8451 148.284 32.8438Z" fill="#FDEFC2"/>
<path d="M66.922 69.559C67.2384 71.4964 63.743 73.4239 62.4581 75.133C58.2616 79.2944 60.443 70.9284 55.4648 72.5513C55.4648 72.5513 56.1863 69.6506 58.4327 68.6657C61.2998 67.4087 64.0419 69.9306 66.922 69.559Z" fill="#85A2C1"/>
<path d="M82.3302 57.6578C80.577 59.1967 76.8635 59.5169 75.0491 61.1844C74.9252 61.2982 67.541 70.728 67.8357 68.0191C68.9118 65.8993 70.2484 62.5016 71.4157 60.3592C72.3396 58.6636 73.9309 57.3932 75.8341 56.8962C78.2352 56.269 80.8691 56.2751 82.3302 57.6578Z" fill="#E6F2FE"/>
<path d="M30.651 89.479C32.7752 89.187 35.0487 89.1094 35.0487 89.1094C36.192 89.3228 34.9841 90.1272 33.117 90.2762C35.0575 90.7692 53.931 93.7824 51.25 95.2802C49.8293 95.1686 33.1356 92.622 29.9443 90.6912C29.1599 90.2166 29.5543 89.8689 30.651 89.479Z" fill="#BFBFBF"/>
<path d="M55.2043 73.2158C59.196 72.3383 59.6105 83.3963 56.8676 80.0976C55.6053 78.1796 54.7006 75.7012 55.2043 73.2158Z" fill="#E6F2FE"/>
<path d="M173.592 76.7469C165.793 81.7289 154.499 82.7314 146.067 78.1057C139.189 74.9433 135.33 68.1904 130.108 63.291C123.908 57.4732 116.896 60.5328 109.924 62.9045C108.817 63.2814 107.651 63.4645 106.481 63.4335C105.035 63.3953 101.814 62.8986 101.814 62.8986C101.814 62.8986 104.005 55.571 101.287 54.7196C97.1356 53.1375 100.924 44.3011 103.365 42.056C104.313 41.4641 107.338 43.4456 107.82 43.9757C116.8 51.7131 128.733 48.0229 137.751 57.2369C145.506 65.3238 149.753 76.2952 162.77 77.1802C166.602 77.4407 174.694 74.3147 175.471 75.1952C175.471 75.1952 174.459 76.1466 173.592 76.7469Z" fill="#D1B257"/>
<path d="M131.048 219.182C128.832 217.738 126.207 216.612 124.233 214.874C98.6225 192.316 90.5494 156.056 88.8464 123.408C88.828 122.093 88.7807 123.298 87.4844 123.429C78.5463 124.277 60.4376 122.513 59.9883 123.647L59.2578 124.628C59.2578 124.628 60.0278 125.15 60.5569 125.161C67.5768 125.311 74.2929 125.8 81.2225 125.776C85.6097 127.112 86.031 133.674 86.3234 137.606C88.1967 166.372 91.6317 185.38 112.035 210.313C117.858 216.759 130.878 223.511 130.878 223.511C130.878 223.511 130.983 219.677 131.048 219.182Z" fill="#1B273F"/>
<path d="M126.43 101.909C126.976 101.304 127.149 100.598 127.23 100.02C127.635 97.0989 125.542 94.6653 122.744 93.5467C118.627 91.9013 115.271 89.3801 113.682 86.9694C109.998 81.3788 113.287 76.6763 120.525 86.9694C124.183 89.6697 129.215 91.0192 131.427 95.3024C133.941 99.3779 133.295 104.913 128.941 107.262C128.886 107.196 128.05 107.523 126.95 107.337C124.924 106.994 122.84 105.898 126.43 101.909Z" fill="#E6F2FE"/>
<path d="M88.3306 123.633C78.7729 124.994 69.0179 122.906 59.5081 123.827C55.8281 123.723 49.9901 126.985 47.0291 124.008C46.6625 123.639 48.0472 123.751 48.3499 123.788C54.7354 123.782 60.9879 121.74 67.4322 122.321C78.773 122.984 94.4919 124.317 99.9258 112.06C99.9592 110.937 100.178 109.937 99.1334 109.433C97.5139 108.814 95.2964 106.741 97.4555 105.107C99.2075 103.782 99.642 107.313 103.222 107.422C104.211 107.452 106.554 105.827 107.368 106.35C107.368 106.35 102.868 112.476 100.711 115.608C97.9475 119.859 93.2853 122.755 88.3306 123.633Z" fill="#CAAD83"/>
<path d="M107.367 106.35C106.093 106.585 104.526 107.464 103.222 107.422C105.5 106.064 108.872 103.114 111.556 102.996C114.416 102.654 116.92 104.125 119.343 105.434C121.726 106.746 124.412 107.634 127.162 107.584C128.233 107.568 128.809 106.997 128.941 107.262C126.024 109.332 121.311 110.417 117.844 108.542C115.577 107.492 113.604 105.871 111.14 105.257C109.737 104.808 108.58 105.824 107.367 106.35Z" fill="#85A2C1"/>
<path d="M104.624 65.7113C106.473 65.1184 108.377 64.3979 110.388 64.4812C112.964 64.5414 114.739 65.6873 116.033 67.4703C116.82 68.5546 117.344 69.8046 117.617 71.1146C117.906 72.4963 118.104 74.094 118.19 75.1887C116.101 75.122 114.944 71.7727 113.821 70.3204C110.93 66.5831 104.968 65.7369 104.624 65.7113Z" fill="#E6F2FE"/>
<path d="M118.063 80.1167C118.05 79.1576 118.245 76.6479 118.244 76.2798C117.903 77.019 117.491 78.2856 117.264 79.0308C116.931 80.127 116.493 81.1791 116.498 82.3233C117.332 83.3657 118.625 84.4459 120.525 86.9694C120.326 86.5003 119.162 85.4937 118.512 83.2501C118.217 82.2323 118.078 81.1759 118.063 80.1167Z" fill="#87A4C2"/>
<path d="M59.2572 124.627C65.0643 125.132 70.796 124.806 76.6132 125.373C77.2413 125.434 77.8735 125.447 78.5034 125.408C88.8729 124.773 85.7897 139.78 87.104 146.714C89.5184 176.122 102.716 208.901 130.341 222.513C129.649 224.684 129.821 225.616 128.741 225.482C127.66 225.347 123.888 223.742 123.888 223.742C110.856 218.688 104.131 204.58 95.7424 194.088C94.7848 193.173 93.5452 190.323 91.9847 191.301C91.9023 191.387 91.7499 191.21 91.6732 191.092C90.9589 190.294 87.1334 181.436 86.9608 181.097C86.505 180.203 90.5684 185.519 90.2037 182.254C86.1021 166.527 81.9874 150.629 75.9216 135.538C75.512 134.765 74.9352 133.767 73.5618 134.253C73.5618 134.253 73.3282 130.379 73.3239 128.837C73.907 126.245 69.8683 127.723 68.3846 127.441C67.3869 127.505 65.6912 126.846 65.2951 128.121C65.8431 129.909 69.3902 129.671 67.1785 132.718C60.2884 142.299 55.7383 151.375 52.3056 159.939C42.308 184.883 46.3635 208.167 61.0456 238.271C61.9073 240.068 58.0111 241.651 55.9118 240.413L55.2648 239.227C55.2648 239.227 53.3872 232.062 52.0829 228.627C44.9517 209.847 36.8878 192.524 41.5646 171.821C41.4255 170.087 43.1861 164.642 42.6783 162.349C42.6723 162.322 42.6654 162.295 42.6577 162.269C42.5311 161.841 42.1809 161.584 41.7949 161.523C41.3152 161.447 40.8444 161.709 40.6192 162.138L40.382 162.59L41.5904 158.915C42.7722 157.422 44.6277 156.818 45.5534 154.961C49.167 149.216 51.5462 142.845 54.8217 136.923C57.2069 131.291 54.382 129.907 59.2572 124.627Z" fill="#272F77"/>
<path d="M96.7449 105.897C96.4814 107.398 98.1949 108.388 99.5275 109.279C100.393 109.859 100.781 110.937 100.471 111.929C96.2206 125.483 75.3157 122.774 63.8865 122.582C58.4423 122.69 51.3817 124.455 47.5703 124.237C46.7566 124.19 46.4057 123.005 45.8965 122.349C46.2403 118.401 51.7376 120.654 54.2162 119.183C59.0951 115.974 50.5877 114.302 49.1476 112.123C48.0492 111.227 48.1079 109.136 49.784 109.917C51.7878 111.266 54.0131 112.335 56.4748 112.288C59.1551 112.467 61.0514 115.672 59.9324 118.06C59.6821 119.068 60.0934 119.579 61.1398 119.578C70.4077 117.327 79.9835 117.534 89.1488 114.626C92.8475 113.552 95.2144 108.92 96.7449 105.897Z" fill="#E0C8A9"/>
<path d="M28.5579 89.8925C28.6196 89.899 28.6806 89.8951 28.7409 89.8809C29.0308 89.9236 29.3706 89.7721 29.5876 90.0975L29.5864 90.0977C29.1424 91.781 29.2718 92.0668 30.8431 92.6642C33.0419 93.5001 35.3693 93.7199 37.6732 94.0569C46.039 95.2802 54.3687 96.6969 62.5511 98.8579C63.7018 99.1618 64.7283 99.0414 65.7756 98.5245C66.2603 98.2852 66.8498 97.8531 67.3066 98.627C67.3195 98.9628 66.9106 98.9771 66.7828 99.2579C66.4705 99.9436 66.7852 100.368 67.5607 100.268C71.2362 100.234 81.1069 99.3953 82.6551 99.025C83.0429 99.0341 83.327 98.9151 83.3954 99.376C83.3535 99.6496 83.2892 99.465 83.0113 99.5998C81.1863 100.062 69.6133 101.681 66.209 101.795C65.7725 101.949 62.7418 101.121 60.917 100.997C54.3579 99.7109 47.7795 98.5206 41.2552 97.0598C36.9042 96.0855 32.514 95.3178 28.1034 94.6644C27.7555 94.6129 27.4093 94.6228 27.0607 94.6277C26.7874 94.5453 26.3753 94.5509 26.7007 94.0793C26.8324 93.9694 26.963 93.858 27.0962 93.7499C27.3107 93.5759 27.3795 93.363 27.2476 93.1142C26.8674 92.3975 27.176 91.7689 27.5419 91.184C27.8305 90.7224 28.2156 90.3208 28.5579 89.8925Z" fill="#4B4B4B"/>
<path d="M41.479 116.768L40.4506 116.515C39.9154 114.753 38.6578 114.038 36.8857 113.701C33.6158 113.08 30.6218 111.724 27.9034 109.781C26.8903 109.221 24.3833 105.951 26.5017 105.638C29.4615 106.534 32.4936 107.16 35.4635 108.022C38.6678 108.952 41.8515 109.947 45.0347 110.945C45.4949 111.089 46.8325 111.39 46.9121 111.913C47.2068 113.846 48.5836 114.925 49.4635 116.165C50.3746 117.449 49.8889 117.725 48.4922 117.61C46.1049 117.722 43.8479 116.769 41.479 116.768Z" fill="#453075"/>
<path d="M29.7908 101.903C30.3438 100.606 30.6019 98.7687 31.9707 98.1387C35.8529 99.8274 40.9616 99.7595 43.7757 103.254C46.0994 109.117 37.0972 107.372 33.857 106.95C30.4712 107.126 28.7485 105.26 29.7908 101.903Z" fill="#D4C8EC"/>
<path d="M56.8917 127.885C59.3495 132.729 52.7377 139.948 51.3521 144.431C49.4326 148.566 47.4339 152.704 44.8651 156.486C44.324 157.45 42.6129 159.289 41.5908 158.916C45.6079 149.824 52.255 136.679 56.8917 127.885Z" fill="#2D399D"/>
<path d="M29.7905 101.902C29.7905 101.902 29.6551 102.37 29.6208 102.52C29.3854 103.554 29.7176 104.317 30.0937 105.303C29.1556 105.817 28.2327 105.607 27.2552 105.487C22.6858 102 21.3073 110.991 21.7584 114.033C21.8389 115.805 23.6187 116.31 25.1423 116.46C26.7723 116.64 28.3687 116.948 29.8766 117.625C30.1163 117.733 30.4177 117.91 30.6171 117.582C31.3187 115.843 23.8493 114.175 24.9505 111.935C25.3495 111.786 25.7117 111.971 26.0576 112.1C28.4366 112.992 31.0033 113.854 33.4365 114.563C33.7415 114.652 34.1415 115.283 34.2849 115.524C34.7843 116.337 34.6531 117.113 34.126 117.852C33.5505 118.753 32.5517 118.179 31.7524 117.863C30.6402 119.41 29.7666 118.95 28.1987 118.477C26.1348 117.586 21.4574 118.251 20.498 116.134C20.1573 115.417 20.1126 114.568 20.2162 113.794C20.4349 112.729 20.3598 111.655 20.376 110.584C20.429 108.398 20.2352 105.47 22.6626 104.494C25.0124 103.596 27.3477 102.492 29.7905 101.902Z" fill="#CAAD83"/>
<path d="M27.0268 105.321C27.8798 105.328 30.094 105.303 30.094 105.303C30.3879 106.053 30.3139 106.07 31.4815 106.388C35.8928 107.589 40.7013 108.387 45.261 109.592C46.1956 109.833 47.1667 110.018 47.9713 110.618C48.3009 114.669 51.5597 114.44 54.0364 116.498C56.3296 118.773 51.4643 119.872 49.866 119.538L40.7605 116.592C41.531 116.002 43.4236 116.704 44.2873 116.825C48.385 117.397 49.3734 117.239 49.6085 117.146C49.6557 117.127 49.6876 117.08 49.6863 117.03C49.6825 116.877 49.5603 116.827 49.4638 116.759C47.8114 115.713 46.3226 112.169 46.093 111.604C46.0733 111.555 46.0331 111.519 45.9828 111.503C45.3187 111.301 40.6732 109.885 38.6442 109.263C35.5348 108.293 32.3725 107.507 29.2244 106.675C28.443 106.348 26.8972 106.412 26.4375 105.731C26.5311 105.407 26.7076 105.298 27.0268 105.321Z" fill="#251546"/>
<path d="M26.0303 96.5451C26.2724 95.809 26.8629 96.0951 27.3145 96.1633C39.1201 98.0865 50.731 101.098 62.5324 103.015C63.1508 103.13 63.2133 103.307 63.4231 102.723C64.1651 101.638 25.742 97.4367 26.2319 94.7998C26.2826 94.5271 27.0218 93.4441 27.2475 93.1143C27.844 92.2428 63.0212 101.058 64.0773 101.127C64.8771 101.114 65.4555 101.71 66.209 101.795C66.2877 103.359 66.3455 103.393 67.9326 103.207C67.9326 103.207 83.8396 101.839 83.7922 101.99C85.7019 105.056 68.8019 104.825 65.4735 105.113C65.4735 105.113 26.7597 97.5421 26.0303 96.5451Z" fill="#7B7B7B"/>
<path d="M34.1363 114.809C31.0691 113.898 27.9448 113.179 24.9734 111.977C23.2807 111.011 24.2365 107.135 25.7681 106.288C26.4239 108.686 28.0345 109.62 30.034 110.826C32.169 112.168 34.6083 113.046 37.0787 113.511C38.2614 113.734 38.9548 113.845 39.7379 114.486C40.455 115.073 40.5511 115.578 40.4514 116.516C38.3448 115.953 36.251 115.339 34.1363 114.809Z" fill="#6C569E"/>
<path d="M41.8278 116.937C44.2053 117.653 46.8648 118.427 49.222 119.149C49.8649 119.345 50.4979 119.355 51.1654 119.251C52.3594 119.064 53.493 119.036 54.2266 118.138C55.2588 116.672 51.6216 115.389 50.6333 114.92C49.1407 114.205 47.4114 112.51 47.9233 110.725C48.0332 110.422 48.142 110.112 48.5049 110.191C48.7005 111.684 49.9831 112.847 51.2783 113.507C52.8805 114.292 54.9446 114.743 55.7137 116.532C56.6573 118.296 54.6959 119.631 53.1136 119.83C51.6666 120.121 45.8855 119.454 46.0366 122.53C44.8223 121.225 43.592 119.832 42.6192 118.334C42.3747 117.982 41.7389 117.372 41.8278 116.937Z" fill="#CAAD83"/>
<path d="M64.108 102.409C63.8739 102.58 63.6712 102.728 63.9325 103.065C64.0658 103.237 63.9381 103.405 63.7249 103.406C63.4471 103.408 63.1658 103.414 62.892 103.376C59.733 102.934 56.61 102.307 53.4939 101.629C50.8878 101.061 48.2774 100.506 45.6435 100.068C43.7978 99.7605 41.9753 99.3302 40.1471 98.9299C37.8461 98.4261 35.5463 97.9135 33.2153 97.5468C31.7107 97.31 30.2272 96.9424 28.7303 96.6534C28.0508 96.5222 27.3629 96.4318 26.6767 96.339C26.4397 96.3069 26.1821 96.2809 26.0298 96.5451C25.5575 95.2802 26.8774 93.6636 26.8774 93.6636C26.8639 93.9159 26.7365 94.6541 26.8817 94.7981C27.3475 95.2596 27.6214 95.3281 28.219 95.4383C33.6236 96.4343 38.9528 97.8072 44.3735 98.7138C49.1428 99.5115 53.9188 100.261 58.6216 101.4C60.0809 101.754 61.5707 101.888 63.0532 102.079C63.4248 102.127 63.8318 102.06 64.108 102.409Z" fill="#C0C0C0"/>
<path d="M106.082 43.4634C104.874 43.2969 103.616 42.0437 103.616 42.0437C101.076 45.2471 99.5731 50.7203 100.887 54.6883C101.116 54.732 97.4769 55.3937 96.4173 55.7798C92.7021 55.7853 98.0575 52.9941 98.5992 51.571C102.839 42.9994 92.043 53.8187 86.6905 52.8594C77.4615 52.3442 78.1688 39.052 80.5025 32.6194C82.9841 30.0835 85.957 27.9403 88.0025 24.9629C88.4524 24.3027 88.8381 25.3178 89.0011 25.7045C91.3927 30.6655 96.6298 34.2457 102.071 34.9307C103.927 34.8341 103.323 31.4547 105.944 30.9594C113.289 28.6346 112.968 44.525 106.082 43.4634Z" fill="#E0C8A9"/>
<path d="M111.204 34.953C110.358 29.7382 104.606 29.6561 103.363 34.8214C103.257 35.265 101.98 35.1949 100.977 34.9768C96.2555 33.9497 93.5774 31.7359 91.5076 29.8407C90.8133 29.1771 88.3739 26.193 88.125 24.8212C88.125 24.8212 88.3965 24.5309 88.9006 24.4228C89.2519 24.3475 89.6186 24.4253 89.9162 24.6259C92.8954 26.6341 95.7514 29.4135 99.6212 29.0864C106.266 29.2165 113.093 26.9439 119.361 30.262C128.953 34.4995 135.613 44.3582 146.558 45.1259C147.221 45.1724 147.839 45.5067 148.221 46.0489C150.051 48.6498 142.535 50.2049 140.392 50.1091C137.175 50.2628 134.032 49.5047 131.063 48.3118C123.076 45.7989 119.432 36.7001 111.204 34.953Z" fill="#FDEFC2"/>
<path d="M81.042 32.0811C77.8024 39.5929 78.2827 55.9389 90.4087 51.9685C90.5689 51.8947 90.8682 52.0226 90.998 52.0386C91.7849 52.1358 92.3656 54.0893 91.3741 54.2644C88.9761 54.1695 86.415 54.8623 86.5653 57.4477C86.5786 57.7926 86.5403 58.0351 86.4284 58.1804C86.4284 58.1804 86.0449 58.3404 85.409 58.1555C75.4716 55.2663 70.7793 43.6186 71.4389 33.8429C74.7949 34.4749 77.3888 33.9023 81.042 32.0811Z" fill="#D1B257"/>
<path d="M89.1646 88.8281C90.2373 89.3596 89.104 89.8311 88.5258 90.0825C87.9096 90.3152 68.8862 91.3755 67.6593 91.3691C67.405 91.3678 42.2263 84.9159 40.1375 84.5275C38.3816 84.2009 37.6756 84.5687 37.0929 86.213C36.3925 88.1893 36.2155 88.5337 37.2526 88.7826C37.5983 88.8655 67.0485 95.1676 67.4324 95.192C68.6437 95.2692 84.9573 93.7628 87.0775 93.6474C87.5053 93.6926 87.8127 93.8913 87.8323 94.3478C87.7296 95.6019 85.5189 95.3194 84.576 95.3029C84.576 95.3029 74.7214 96.388 69.7898 97.052C67.6477 97.2135 65.5544 96.8934 63.502 96.3335C54.4359 94.3899 45.4443 92.12 36.3326 90.3848C35.8414 90.2501 35.0493 89.8841 35.0493 89.8841L34.8906 89.4398C35.2977 88.3814 35.0028 87.3624 35.4208 86.2908C35.714 85.5391 36.042 84.8267 36.5597 84.2089C37.4036 83.2017 38.3229 82.7761 39.7539 83.1571C42.8372 83.9781 46.0187 84.3487 49.1789 84.7965C55.9399 86.073 62.6266 87.7769 69.32 89.377C70.6497 89.7488 72.0217 89.3938 73.3607 89.3104C75.8929 89.1527 78.4179 88.9013 80.96 88.9589C83.6206 89.0877 86.5751 89.0656 89.1646 88.8281Z" fill="#453075"/>
<path d="M102.995 82.8315C101.957 80.9546 99.6729 80.0235 97.6376 80.5965C91.3369 82.1238 89.0708 93.7225 93.1425 99.0728C89.9634 89.6306 105.353 80.4901 98.5014 93.5496C98.1831 94.1564 97.9012 94.7814 97.6565 95.4211C96.9127 97.3652 95.7672 100.564 95.6597 101.304C95.7271 101.273 97.6401 97.8846 98.3847 96.2838C99.1486 94.6415 99.9232 93.6523 100.936 92.1496C102.496 89.4547 104.816 86.0907 102.995 82.8315Z" fill="#85A2C1"/>
<path d="M89.1646 88.8281C89.1646 89.0988 68.0922 89.881 68.0922 89.881C63.7323 89.2288 39.9049 83.4422 39.2192 83.2766C36.8035 82.9424 34.407 86.9723 35.5347 88.8384C35.5347 88.8384 35.8088 89.1096 35.751 89.1968C35.6616 89.3315 35.4905 89.2794 35.3799 89.4459C35.2536 89.6359 35.0267 89.7225 34.9429 89.5574C33.9095 87.5221 34.5405 85.8511 35.616 84.0404C36.0644 83.2855 36.8293 82.9271 37.3169 82.7C38.6193 82.0934 39.4069 82.9924 40.7745 83.1823C47.5344 84.519 54.4403 84.7197 61.2301 85.8762C66.25 86.4176 71.2076 87.7087 76.2914 87.364C78.2844 87.1922 80.3086 86.6457 82.2693 86.6905L89.1646 88.8281Z" fill="#947EC6"/>
<path d="M92.7816 109.846C92.01 110.433 90.8958 111.262 89.2004 111.897C88.0896 112.314 83.6465 113.553 81.8438 112.7L82.7087 110.694C82.9166 109.873 83.034 109.741 82.897 109.519C82.568 108.77 82.8643 105.719 83.7474 105.087C84.553 104.51 82.168 103.286 83.2045 103.217C83.5686 103.192 83.796 102.907 83.7573 102.664C83.6628 102.071 83.0273 102.111 82.5744 102.033C82.0619 101.412 82.6967 99.7071 83.0523 99.5816C83.7523 99.259 83.0422 99.0459 82.6549 99.025C82.1026 98.1242 82.8511 97.3225 83.0789 96.4935C83.0248 96.1884 82.5818 95.899 82.69 95.5128L87.1912 94.8744C87.291 94.8603 87.3864 94.8212 87.4632 94.7563C88.1124 94.2072 87.6398 93.7235 87.0771 93.6473C86.7572 92.5673 87.2108 90.8368 88.1244 90.1443L88.5255 90.0825C88.4373 91.2901 88.1894 92.4743 88.3243 93.6959C88.3989 96.0094 85.9396 95.0213 85.8056 96.8123C85.7218 97.3919 85.5731 97.9618 85.4673 98.5386C85.1656 99.6192 85.7265 99.954 86.0298 100.879C86.21 101.551 86.4605 102.176 86.886 102.745C87.2289 103.203 87.1505 103.741 86.8709 104.216C86.3841 105.051 85.6322 105.72 85.3215 106.659C84.6206 108.506 86.6074 110.146 88.3735 110.105C89.3918 110.106 90.3708 109.922 91.3565 109.73C91.6271 109.678 92.577 109.557 92.7816 109.846Z" fill="#85A2C1"/>
<path d="M91.1965 54.1413C91.1965 54.1413 91.2169 53.3094 91.2424 52.9686C91.2992 52.2081 91.0089 51.98 90.4082 51.9681C93.4313 51.2425 95.9309 49.4783 98.488 47.8033C98.7409 47.6842 99.1787 47.2586 99.3854 47.6176C100.789 50.7725 97.4599 53.3734 95.4288 55.3021C95.3504 55.3732 95.2473 55.4597 95.1561 55.4264C93.8551 55.047 91.1965 54.1413 91.1965 54.1413Z" fill="#CAAD83"/>
<path d="M90.6054 53.4579C91.0187 53.5695 91.3551 53.7111 91.4591 53.8544C91.6241 54.2261 91.7945 54.3647 90.9428 54.8685C89.5907 55.6846 89.8012 55.3643 89.7833 56.8743C89.7751 57.5647 89.9688 59.3129 90.1319 60.9248C90.2215 61.8094 90.0546 63.7943 89.4566 64.1949C89.1442 64.3405 88.8539 64.2579 88.5985 64.0237C88.2668 63.7194 87.9686 63.3886 87.7236 63.011C86.9492 62.5013 86.6922 61.8232 87.0469 60.9462C87.2574 60.8168 87.2853 60.6268 87.2126 60.4138C87.0366 59.8986 86.8329 59.3916 86.6831 58.8691C86.5897 58.5434 86.3823 58.1793 86.3082 57.7195C86.1126 56.5055 86.4835 55.4737 87.2884 54.5622C87.9798 53.779 88.8571 53.4469 89.8759 53.425C90.1187 53.4198 90.3622 53.4461 90.6054 53.4579Z" fill="#E6F2FE"/>
<path d="M96.8727 55.536C98.2739 55.3713 99.5226 54.6155 100.914 54.4767C101.51 54.4173 102.113 54.5418 102.612 54.8702C104.592 56.1706 104.905 59.6793 103.268 61.0705C102.461 61.7556 101.814 62.8985 101.814 62.8985C100.846 62.2866 102.114 60.3822 102.306 58.8937C102.429 57.9406 102.17 56.6683 101.004 56.5689C98.7433 56.1687 95.7191 58.8461 94.1399 56.3326C93.9543 56.0372 96.1726 55.7872 96.8727 55.536Z" fill="#E6F2FE"/>
<path d="M97.2953 105.636C95.9388 104.671 95.6929 102.931 95.6592 101.304C95.7624 101.186 97.9435 100.752 98.978 101.421C100.53 102.29 101.77 103.55 102.043 105.313C102.158 106.275 101.964 107.232 101.964 107.232C101.252 107.155 97.9821 106.124 97.2953 105.636Z" fill="#E6F2FE"/>
<path d="M68.9437 83.7961C67.9447 83.579 65.582 82.9247 65.582 82.9247C65.7376 82.7415 68.8544 80.0502 69.7514 78.6938C70.6586 77.4611 71.4979 75.8171 72.372 74.5775C72.4502 74.279 71.2508 79.597 68.9437 83.7961Z" fill="#86A3C1"/>
<path d="M96.8731 55.5358C96.4042 55.8181 95.8999 56.0133 95.3855 56.1836C94.6896 56.4141 93.924 56.3668 93.2747 56.0271C92.82 55.7892 92.4073 55.457 91.9956 55.1202C91.8209 54.9774 91.2041 54.704 91.2041 54.704C91.6629 54.3263 91.5784 54.0721 91.4593 53.8545C92.5695 54.2181 95.3896 55.5358 96.8731 55.5358Z" fill="#87A3C1"/>
<path d="M87.0468 60.9466C87.0693 61.7008 87.3416 62.3739 87.7233 63.0114C87.6728 63.283 86.7017 63.0936 86.4039 62.9982C84.0747 62.005 83.1012 59.8348 83.8083 59.251C84.4568 60.143 85.2628 60.53 85.8485 60.7593C86.1372 60.8723 86.6217 60.9904 87.0468 60.9466Z" fill="#87A4C2"/>
<path d="M101.506 65.3053C101.085 65.8282 100.763 66.2087 100.183 66.3906C99.6049 66.5477 97.1459 66.5977 98.0923 65.6924C98.8414 64.9759 100.18 65.0312 101.064 64.4746C101.069 64.5427 101.285 65.1617 101.506 65.3053Z" fill="#87A4C2"/>
<path d="M60.7199 238.105C56.3379 230.971 54.02 222.708 50.8006 215.058C47.9696 206.849 45.5258 198.391 45.4624 189.636C44.9593 178.409 48.9089 167.27 53.0299 156.916C56.3748 147.691 62.2784 139.592 67.4024 131.493C67.5682 131.231 67.6152 130.909 67.5209 130.613C67.061 129.174 64.5443 129.458 64.9167 128.122C65.0924 127.492 65.6771 127.054 66.3331 127.037C66.8246 127.024 71.6944 126.771 73.2115 127.501C73.5538 127.666 73.8023 127.989 73.8495 128.365C73.9823 129.422 72.0293 128.241 71.5789 129.111C62.8523 148.159 51.3959 167.136 49.9906 188.372C49.7176 201.577 53.6417 214.683 58.1782 226.728C59.185 229.427 60.2937 232.041 61.5319 234.634C63.383 238.511 62.9733 237.516 60.7199 238.105Z" fill="#1B273F"/>
<path d="M73.5127 133.393C73.5127 133.393 73.931 133.16 74.5584 133.485C74.813 133.617 75.0278 133.815 75.1906 134.051C78.8926 139.404 79.8325 146.363 82.0929 152.416C85.0699 162.483 87.9443 172.763 90.4649 182.916C90.6065 183.487 90.3765 183.803 90.0096 184.049C87.1922 185.94 82.2864 168.161 82.2864 168.161C78.7816 156.952 74.0509 145.513 73.5127 133.393Z" fill="#2D399D"/>
<path d="M46.9159 264.818C46.6414 264.428 45.6748 263.032 45.6748 263.032C50.3594 261.575 53.7034 255.821 55.1452 251.28C55.3824 250.533 55.492 249.75 55.4434 248.969C55.3477 247.431 54.7414 246.696 54.3684 246.035C54.2114 245.758 53.6497 244.881 53.6308 244.575C53.5854 243.841 54.5445 243.483 56.3853 241.526C57.2931 240.342 56.4031 239.908 56.6691 239.798C57.3882 239.5 59.0281 240.453 59.1921 240.154C59.6322 239.35 60.3163 238.344 60.7197 238.105C61.4175 237.693 62.0742 238.857 62.2272 240.548C62.9697 243.62 56.0788 247.916 60.7028 246.831C63.0076 246.728 66.984 248.913 64.3686 251.445C59.6068 256.434 54.3135 264.608 46.9159 264.818Z" fill="#EB9C47"/>
<path d="M82.1442 96.2561C78.5459 96.5376 74.9675 97.022 71.3641 97.2692C67.7022 97.658 60.0369 95.8618 60.0369 95.8618C60.0369 95.8618 53.6403 94.2278 52.9969 94.0785C48.5784 93.0531 44.1985 91.8594 39.7143 91.1176C38.1191 90.8537 36.5031 90.7066 35.0488 89.884L34.9748 89.6769C34.9748 89.6769 32.2536 89.9829 31.4353 90.1582C31.3899 90.168 31.389 90.2325 31.4341 90.2439C37.6252 91.7957 44.9438 92.9 51.0802 94.6719C53.1326 95.4612 40.3134 93.1305 35.3332 91.8952C33.5975 91.6134 31.8879 91.1535 30.1905 90.6939C29.9137 90.6177 29.658 90.4955 29.5792 90.1976C29.537 89.7959 30.5141 89.7442 30.6239 89.4751C30.6239 89.4751 30.0141 89.5109 29.5008 89.5644C29.1573 89.6002 28.7992 89.6634 28.5576 89.8926C28.7858 90.0956 29.3637 90.1291 29.2242 90.4018C27.7757 93.234 36.2513 94.099 38.1029 94.4286C40.9581 94.7625 43.7622 95.3801 46.6104 95.76C52.1374 96.6835 57.6218 97.8659 63.0457 99.2742C64.7104 99.7818 66.0251 98.4301 67.2999 98.7107C67.6622 98.924 81.1908 97.5838 82.7824 97.2356C82.9975 97.1885 83.478 96.8954 83.451 96.5108C83.0444 96.2777 82.5975 96.1814 82.1442 96.2561Z" fill="#888888"/>
<path d="M46.7197 264.541C50.2785 265.7 66.9872 251.48 64.5693 248.565C62.3362 245.994 58.4456 248.139 58.6735 246.633C59.5852 244.821 61.456 243.712 61.924 241.509C62.2466 239.991 61.3276 239.217 60.6181 238.183C61.8415 236.716 64.2987 235.443 65.7231 237.083C67.0464 239.68 65.291 242.473 66.7503 245.26C67.4347 246.567 68.2079 247.83 68.641 249.21C69.5527 252.115 63.8189 254.705 61.9404 256.851C59.4932 259.648 56.0948 261.944 53.3567 264.539C50.7138 266.733 49.1492 268.207 46.7197 264.541Z" fill="#B06A1D"/>
<path d="M91.6738 191.092C93.9917 189.124 99.0948 198.698 101.372 201.548C101.644 201.888 101.902 202.238 102.144 202.6C106.813 209.584 114.619 217.073 119.755 221.732C107.066 215.292 98.0591 203.357 91.6738 191.092Z" fill="#2D399D"/>
<path d="M139.957 246.896C138.799 249.364 139.098 254.191 135.174 253.211C135.032 247.988 150.788 220.28 136.758 226.046C132.979 229.261 136.355 220.708 130.337 222.582C129.574 219.756 131.739 216.775 134.719 218.598C135.969 219.362 136.723 220.966 138.277 221.294C140.119 221.766 142.019 222.549 143.909 223.206C145.114 223.624 147.638 223.888 146.821 225.621C144.831 232.612 142.388 240.201 139.957 246.896Z" fill="#B06A1D"/>
<path d="M132.8 232.158C131.458 230.509 131.754 232.003 132.064 233.081C132.239 233.691 132.247 234.336 132.089 234.951C131.831 235.95 129.176 243.071 128.88 245.645C128.494 247.915 128.838 250.569 130.968 251.684C131.14 251.796 132.216 252.311 132.216 252.311L133.165 251.419C135.968 248.278 135.757 233.978 132.8 232.158Z" fill="#FCCA95"/>
<path d="M137.809 224.927C136.663 225.046 136.884 226.71 135.245 226.383C134.543 226.243 134.932 224.007 134.479 222.897C133.605 220.755 130.316 220.602 130.226 222.015C130.194 222.523 129.937 223.22 129.527 223.997C128.424 227.483 129.24 230.206 129.24 230.206C129.24 230.206 130.404 230.755 131.153 231.312C131.215 231.359 131.277 231.408 131.339 231.457C131.34 231.458 131.341 231.459 131.343 231.46C131.343 231.461 131.344 231.461 131.344 231.461C133.027 232.788 134.94 234.612 134.932 240.536C135.168 244.685 134.543 248.82 132.215 252.311C133.19 252.843 135.175 253.211 135.175 253.211C135.175 253.211 135.699 252.182 135.798 251.228C136.59 245.807 149.939 223.665 137.809 224.927Z" fill="#EB9C47"/>
<path d="M129.526 223.997C129.828 226.352 128.436 227.206 129.501 229.936C129.56 230.087 129.396 230.249 129.24 230.206C126.697 229.509 126.745 225.116 129.526 223.997Z" fill="#FBCA95"/>
<path d="M83.2515 109.459C83.4704 109.475 83.6569 109.543 83.6976 109.787C83.6979 109.789 83.6983 109.791 83.6986 109.793C83.7416 110.062 83.5746 110.322 83.3165 110.413C83.3165 110.413 65.3233 114.714 64.898 114.653C64.898 114.653 52.6685 111.487 51.4586 111.103C51.4586 111.103 49.0075 109.07 47.9236 110.725C44.5942 109.638 35.5054 107.393 32.978 106.774L32.4123 106.636C32.7739 106.66 38.453 107.164 38.9718 107.181C51.4586 108.215 43.9691 101.23 36.5122 99.8859C34.9879 99.5551 31.9803 98.2385 31.9072 98.1685C31.9072 98.1685 63.6553 104.47 65.2082 104.803C65.3083 104.825 65.423 104.858 65.514 104.83C66.5556 104.656 83.3707 103.133 83.5684 103.192C84 103.321 84.4001 103.521 84.7732 103.767C85.1214 103.997 85.1486 104.324 84.8576 104.633C84.5591 104.949 84.181 105.087 83.7472 105.086C83.231 105.085 71.0784 106.136 68.5211 106.371C66.2855 106.577 65.0364 108.297 65.268 110.573C65.3914 111.786 66.2067 112.208 66.8222 112.354C67.1532 112.432 67.4974 112.432 67.8314 112.368C70.0156 111.951 83.1273 109.45 83.2515 109.459Z" fill="#8878A9"/>
<path d="M81.8442 112.7C81.9809 112.71 85.1073 112.64 86.4094 112.471C87.1931 112.37 87.9515 112.206 88.7279 112.046C88.9239 112.006 89.2008 111.897 89.2008 111.897C89.2435 111.959 89.1676 113.87 89.1489 114.626C87.8467 115.132 86.4904 115.633 85.1378 115.942C82.0561 116.648 78.9477 117.057 75.8089 117.472C75.1892 117.553 70.1377 118.175 70.1377 118.175C70.2108 117.662 70.7323 117.617 71.0612 117.511C74.0611 116.72 80.9875 114.991 81.358 114.906C82.1715 114.717 82.0905 114.335 81.5892 113.783L81.8442 112.7Z" fill="#1B273F"/>
<path d="M51.459 111.104C51.459 111.104 53.4729 112.556 54.6399 112.552C55.6384 112.552 56.5999 112.725 57.547 112.988C58.0618 113.131 58.524 113.422 58.8707 113.828C59.6506 114.739 60.0406 115.853 60.0737 115.923L60.0821 115.942C60.3707 116.815 60.732 117.652 61.3731 118.331C62.0195 119.016 62.5435 119.226 63.1129 118.534C63.0671 117.149 63.4686 114.97 64.8984 114.653C64.7944 114.494 51.9003 111.179 51.459 111.104Z" fill="#251546"/>
<path d="M81.8896 113.833C82.041 113.917 82.2001 113.99 82.342 114.088C82.6032 114.267 82.6095 114.573 82.3614 114.777C82.1431 114.957 70.9183 117.915 70.1373 118.175C69.2273 118.263 68.3173 118.35 67.4073 118.438C67.0717 118.448 66.417 118.466 66.417 118.466C66.6387 117.94 79.1506 114.316 80.151 114.023C80.7152 113.858 81.2865 113.679 81.8896 113.833Z" fill="#261646"/>
<path d="M67.4073 118.438C67.4073 118.438 66.6114 118.61 66.2152 118.691C64.3449 118.97 62.555 119.89 60.6571 119.868C58.3752 119.473 60.2986 117.293 60.0818 115.942C60.618 116.459 61.5663 118.466 61.5663 118.466C61.824 118.61 67.4073 118.438 67.4073 118.438Z" fill="#C9AD84"/>
<path d="M25.8063 106.422C24.5446 107.969 23.8772 110.125 24.9734 111.977C26.4374 114.45 31.0183 115.266 31.045 117.536C31.0437 118.049 30.6661 118.316 30.2139 118.085C29.2794 117.608 28.2949 117.283 27.2749 117.066C25.1187 116.584 21.5435 116.869 21.4342 113.874C21.3049 110.918 21.7649 105.808 24.8281 104.431C25.697 104.086 26.9047 103.99 27.1045 105.021C27.1276 105.14 27.1001 105.287 26.9903 105.339C26.5516 105.549 25.8063 106.422 25.8063 106.422Z" fill="#E0C8A9"/>
<path d="M60.2134 105.387C60.3451 105.424 62.7 106.571 62.432 108.954C61.9576 111.082 59.2895 111.135 58.1778 110.984C56.0797 110.699 38.6104 107.306 38.4502 107.143C39.2446 107.139 40.5606 107.175 41.355 107.168C42.4218 107.159 43.0973 107.003 43.6803 106.181C43.9767 105.763 44.0723 104.864 43.9402 104.382C43.9278 104.336 43.9128 104.288 43.8957 104.238C43.5555 103.234 42.7942 102.428 41.823 101.998C40.455 101.392 38.28 100.412 38.0928 100.252C39.534 100.732 47.6518 102.534 48.1943 102.627C49.5388 102.859 58.3119 104.847 60.2134 105.387Z" fill="#BDACE0"/>
<path d="M80.8252 32.4172C80.8781 32.3439 80.9311 32.2705 80.9839 32.1973C80.9309 32.2706 80.878 32.3439 80.8252 32.4172Z" fill="#F3D57F"/>
<path d="M53.7068 94.5328C51.5027 94.0741 49.3251 93.5144 47.1522 92.926C45.684 92.5284 44.1931 92.2179 42.6923 91.9536C40.5469 91.5757 38.39 91.2522 36.2748 90.7181C35.7676 90.5901 35.2613 90.4476 35.0488 89.8839C35.4801 89.8182 35.8658 90.0232 36.2749 90.0889C38.3955 90.4296 48.674 92.6722 50.3926 93.08C52.044 93.4719 65.242 96.446 66.7045 96.7166C66.8731 96.7478 67.0442 96.7662 67.217 96.7762C67.7351 96.806 68.2678 96.7596 68.79 96.7535C69.5516 96.7444 82.2731 95.5276 82.6902 95.5128C82.9363 95.8047 83.351 96.0731 83.4513 96.5107C82.062 96.4929 70.0649 97.6055 69.5091 97.602C68.8158 97.5975 68.1338 97.5419 67.4449 97.4066C65.3079 96.9869 63.1322 96.7608 61.0249 96.1851C60.863 96.1408 54.0972 94.6141 53.7068 94.5328Z" fill="#4B4B4C"/>
<path d="M53.6311 244.575C53.5111 244.319 53.4484 244.055 53.4327 243.787C53.276 241.105 57.7711 238.075 57.1721 240.905C57.0021 241.708 54.2827 245.54 53.6915 244.694C53.669 244.662 53.6488 244.623 53.6311 244.575Z" fill="#FBCA95"/>
<path d="M78.0739 85.4425C75.0619 85.5192 71.7584 84.9786 68.813 84.4652C68.0664 84.0111 68.7705 82.7795 69.0823 82.2886C71.8588 77.8906 72.2911 74.8745 73.685 69.1718C73.7778 68.8393 74.0071 68.2674 74.3992 68.636C76.1964 70.3833 76.0032 75.6943 76.2259 78.1206C76.5143 80.5722 76.869 83.2286 78.0739 85.4425Z" fill="#E6F2FE"/>
<path d="M78.0738 85.4422L82.2692 86.6902C90.3796 90.3624 43.4105 84.4186 40.2976 83.3609C39.1053 82.9849 37.3718 82.7377 37.616 82.5906C38.2552 82.2057 60.5119 81.6519 60.5119 81.6519L64.0837 82.3575L78.0738 85.4422Z" fill="#BDACE0"/>
</svg>
