<svg width="186" height="278" viewBox="0 0 186 278" fill="none" xmlns="http://www.w3.org/2000/svg">
<path d="M146.785 70.5895C147.221 91.418 170.663 96.1024 168.602 102.493L168.402 103.097C166.626 108.989 148.807 131.363 161.704 138.588C181.757 149.824 183.677 174.535 175.883 189.207C170.135 197.38 155.916 206.796 145.961 208.522C126.926 212.806 115.606 209.177 96.9399 201.523C78.9375 191.469 62.0017 179.111 65.6094 159.503C70.6387 132.169 30.8469 181.317 16.7184 121.339C7.41426 81.8411 66.7939 132.422 45.675 79.713C40.2226 66.1047 49.7102 57.3734 63.0367 56.0268C69.9366 55.3018 76.9797 57.905 83.6521 60.1687C98.3794 66.7926 110.912 55.8358 125.126 55.0631C136.181 53.876 146.553 59.51 146.785 70.5895Z" fill="#F1DFC5"/>
<path d="M65.041 122.507C66.23 121.458 68.7539 119.639 70.0669 118.572C70.072 118.568 70.0767 118.563 70.0815 118.559C76.163 112.715 86.7694 104.449 88.2958 96.0143C88.5652 94.1859 87.1749 92.7944 86.0688 91.4652C86.0033 91.3865 85.997 91.2747 86.0519 91.1883L86.2437 90.8871C86.3154 90.7745 86.4655 90.7442 86.5766 90.8184C89.5538 92.8084 93.3182 93.9923 96.7179 94.8949C96.8842 94.9391 96.9499 95.1384 96.8414 95.2715C90.6779 102.831 72.665 119.322 70.6415 121.358C69.1111 122.741 67.1801 125.255 64.9546 124.556C64.6527 124.461 64.3473 124.128 64.2947 123.817C64.2489 123.546 64.4808 123.001 65.041 122.507Z" fill="#0E0E0E"/>
<path d="M65.4623 247.221C65.3716 247.009 65.4336 246.02 65.6476 245.82C66.0857 245.409 84.1699 231.343 84.843 229.802C84.7838 227.683 83.592 225.636 82.6582 223.749C82.2007 222.823 80.9569 223.082 80.1111 223.233C79.9045 223.306 79.6649 223.336 79.4465 223.316C78.0106 223.265 76.8864 224.022 75.4505 223.957L75.1317 223.701L75.1663 223.594C77.3122 222.325 79.682 221.426 81.8149 220.095C82.2259 219.909 82.6643 219.447 83.1317 219.681C84.6622 221.776 85.8137 224.095 86.9925 226.399C87.607 227.6 88.2034 228.811 88.8081 230.017C89.3475 230.99 89.3738 231.831 88.3736 232.454C82.0534 236.931 75.819 241.505 69.765 246.335C67.795 247.724 67.9995 248.54 65.4623 247.221Z" fill="#1B273F"/>
<path d="M86.7674 217.948C86.5287 218.23 77.2438 223.371 76.203 222.875C74.5732 220.501 73.5027 217.854 72.4468 215.204C60.6799 186.595 73.8546 156.077 92.0871 133.418C93.4408 131.637 94.4136 129.656 94.9038 127.45C95.0504 126.79 94.6845 126.087 95.125 125.472C96.1509 124.182 97.4369 123.105 98.5536 121.886C102.672 122.362 124.201 123.102 124.702 127.145C124.112 128.799 127.529 131.526 127.902 132.037C129.208 133.829 123.155 209.691 136.575 239.318C139.084 244.946 141.428 250.655 144.531 255.996C144.758 256.422 145.084 256.818 144.942 257.355C142.122 257.369 139.303 257.367 136.484 257.395C136.429 257.446 131.666 257.651 131.666 257.651L131.151 255.441C129.828 250.858 128.471 246.285 127.275 241.666C123.585 227.209 121.988 212.335 118.694 197.787C118.241 195.424 117.569 193.111 116.182 191.08C115.831 189.016 115.293 184.206 115.269 183.871C115.349 183.407 115.645 183.675 115.85 183.714C116.906 183.918 117.349 183.649 117.392 182.567C117.647 176.943 116.975 171.325 116.516 165.728C115.444 156.716 115.451 147.27 111.878 138.773C111.929 136.95 111.446 135.124 111.988 133.329C112.094 132.972 112.004 132.754 111.744 132.551C109.012 131.251 106.149 130.135 103.301 129.08C102.923 128.949 102.394 128.786 102.202 129.277C101.936 130.171 103.454 130.113 103.546 130.867C102.058 131.825 101.273 133.356 100.424 134.8C92.0202 148.434 81.0456 160.464 75.6911 175.797C69.8865 190.195 72.342 209.609 86.7674 217.948Z" fill="#C9DEF1"/>
<path d="M96.2617 60.7484C98.7989 58.7242 102.269 59.2375 105.3 59.2141C106.38 59.55 105.679 60.61 107.9 61.4411C110.74 63.6162 111.818 67.4874 115.273 69.0771C117.22 70.0549 121.609 72.2083 121.821 68.5969C126.013 67.9024 128.808 66.643 129.395 61.9677C131.721 60.0902 134.814 59.8651 137.689 60.7688C140.014 61.5124 141.728 63.4228 144.235 63.701C144.748 68.0719 153.51 67.6624 156.938 68.9512C157.813 69.102 160.659 68.6695 159.376 70.2431C154.231 75.9416 142.692 78.6305 148.896 88.6367C148.18 94.3244 141.093 90.5651 137.493 90.0784C131.448 82.5492 128.419 84.6116 125.948 89.4641C123.347 94.5715 121.418 102.792 119.43 107.068C117.656 110.801 119.165 115.184 116.145 118.045C112.747 118.27 106.221 117.528 103.084 116.263C102.109 115.03 101.053 113.859 100.347 112.426C96.7198 103.894 106.319 96.2946 106.504 87.7168C106.733 86.6112 106.246 78.3295 104.615 79.7312C104.391 79.1299 104.391 79.1299 104.59 78.4674C94.5449 92.2572 88.4216 77.4741 77.9252 81.9201C77.1451 80.8548 76.3857 79.6598 76.1367 78.3633C77.5808 78.0907 78.2444 79.0711 79.4979 77.326C81.0175 75.02 82.5835 71.8828 81.4515 69.1582C81.3284 68.8713 81.0296 68.5875 81.3501 68.2458C85.3157 67.308 87.959 71.2044 91.8439 70.5392C95.4083 69.5616 93.5726 63.3892 96.2617 60.7484Z" fill="#EB9C47"/>
<path d="M109.843 11.3874C112.825 10.0465 115.02 7.52194 117.926 6.04014C122.58 3.50886 128.539 2.57251 133.601 4.16843L133.6 4.16829C134.089 7.80693 139.001 6.90669 139.38 13.2053C140.705 21.0229 148.291 15.1951 150.885 18.0639C152.18 21.5798 150.432 25.0152 149.128 28.2304C148.129 30.6024 147.643 33.0576 148.278 35.5941C149.496 40.4633 143.772 44.7292 140.385 44.7552C139.051 44.7655 137.902 44.1943 137.15 43.0112C137.062 42.2402 137.559 41.6702 137.863 41.0434C139.36 38.2132 139.149 33.2712 135.288 32.6782C134.927 32.6013 134.528 32.6573 134.238 32.3535C134.968 30.0735 107.738 28.4736 95.1363 22.3873C95.1363 22.3873 93.9772 20.6047 93.8301 19.6766C95.2805 17.823 97.2213 17.0928 99.6733 17.2469C103.871 17.5106 108.076 17.9322 112.28 17.3527C114.542 17.0309 121.757 15.404 120.936 12.4268C119.779 10.2973 115.861 11.9779 113.828 12.0712C112.686 12.2075 111.576 12.0893 110.465 11.8823C110.188 11.8306 109.834 11.8193 109.843 11.3874Z" fill="#67472E"/>
<path d="M10.9469 132.24C10.8911 132.194 9.5138 129.191 8.88097 127.736C8.6517 127.086 27.5932 114.18 28.8893 113.88C30.7897 113.44 31.7547 115.027 32.4592 116.862C33.1913 118.769 39.7915 143.819 40.6942 147.657C40.5511 148.251 27.9232 158.603 21.8165 163.128C21.6626 163.242 21.5054 163.338 21.3143 163.369C21.0223 163.154 19.4444 157.109 19.3099 156.534C18.9497 154.959 11.9848 134.271 10.9469 132.24Z" fill="#947EC6"/>
<path d="M134.317 32.4162C138.818 31.7479 139.993 37.5532 138.343 40.7431C138.002 41.4931 137.611 42.2199 137.243 42.9573C137.18 43.7182 136.607 44.1274 136.087 44.5433C133.343 46.9316 130.357 45.6155 130.239 47.5953C129.898 49.3143 130.007 51.2651 129.355 52.8536L129.311 55.0246C129.02 56.4249 127.689 56.0781 126.587 56.321C121.413 56.4618 122.044 51.4233 120.003 52.7565C119.443 53.1221 118.895 53.543 118.177 53.5663C113.744 55.4466 107.383 54.8542 105.639 49.686C103.84 43.911 106.192 35.1597 108.474 29.6763C109.087 29.2602 109.725 29.5492 110.322 29.6712C115.39 30.706 124.052 29.3088 129.199 29.4937C131.335 29.5107 133.808 32.5796 134.317 32.4162Z" fill="#D3B196"/>
<path d="M144.941 257.355C142.633 253.437 140.592 249.376 138.834 245.185C134.974 236.774 131.343 228.199 129.391 219.122C124.134 194.6 125.166 169.354 126.397 144.454C126.529 141.714 126.743 138.997 126.828 136.265C126.843 135.881 126.757 135.545 126.541 135.205C125.937 134.254 125.419 133.251 125.001 132.206C124.52 130.714 123.126 128.437 124.638 127.007C125.81 125.898 127.965 126.228 129.599 126.206C130.482 126.404 129.93 129.243 129.914 129.899C129.169 144.671 128.972 159.453 129.37 174.238C129.682 187.837 130.525 201.465 133.613 214.757C135.015 221.841 143.09 244.666 145.741 248.803C147.725 252.655 153.414 257.63 144.941 257.355Z" fill="#85A2C1"/>
<path d="M161.228 94.1201C161.749 94.203 162.271 94.286 162.792 94.3689C163.666 95.0208 171.325 96.2581 173.31 96.8349C174.63 97.2186 177.54 102.266 177.306 102.938C177.135 103.491 177.01 104.064 176.638 104.535C175.707 105.401 169.329 125.597 168.781 127.075C168.071 128.989 167.159 129.589 165.131 129.638C163.799 129.67 144.908 126.345 141.271 125.881C140.87 125.34 148.337 122.236 149.294 121.5C154.802 117.347 160.98 94.4214 161.228 94.1201Z" fill="#947EC6"/>
<path d="M86.7683 217.948C86.3329 217.962 85.9578 217.796 85.6152 217.549C83.5243 216.19 81.7328 214.468 80.009 212.679C70.2698 202.469 71.0191 184.845 76.5995 172.738C79.7083 166.208 82.7245 159.554 87.0215 153.695C92.13 146.731 97.2756 139.805 101.623 132.332C102.853 130.446 103.838 130.607 105.742 131.503C107.108 131.927 108.384 132.614 109.809 132.875C110.159 132.939 110.589 133.028 110.484 133.575C103.893 138.522 98.5973 144.997 93.703 151.577C82.2263 166.76 71.9243 182.815 78.1861 202.49C79.6328 207.204 82.0385 211.812 86.1925 214.703C87.4903 215.565 88.78 216.953 86.7683 217.948Z" fill="#85A2C1"/>
<path d="M95.1264 125.473C95.8428 128.28 93.6146 131.928 91.9476 134.16C88.9031 138.056 86.1733 142.181 83.4478 146.301C67.8847 168.411 62.1364 198.917 77.2833 222.718C77.2833 222.718 73.4472 224.996 73.0459 223.375C72.767 222.248 69.4496 213.785 68.1989 211.169C56.3315 180.875 74.2049 147.352 95.1264 125.473Z" fill="#E6F2FE"/>
<path d="M129.355 52.8535C129.355 52.8535 129.735 48.2453 130.125 46.6388C130.264 46.0882 130.268 46.0894 130.786 46.0931C133.289 46.1325 135.695 44.8409 137.244 42.9572C139.519 45.2333 141.859 44.6335 144.339 42.9992C146.885 41.0894 148.75 38.9077 147.935 35.5374C146.262 29.7491 153.306 22.5625 150.642 17.8532C150.577 17.7383 150.978 18.0274 151.065 18.1264C152.314 19.9561 152.58 22.2969 152.809 24.4503C153.257 28.2056 152.166 31.9318 152.599 35.6796C152.799 37.0112 153.123 38.3288 153.286 39.6646C153.962 50.1213 137.735 56.9639 129.355 52.8535Z" fill="#4C321C"/>
<path d="M116.184 191.08C118.886 193.547 118.862 197.9 119.741 201.26C121.791 211.237 123.441 221.269 125.229 231.29C126.282 236.718 127.639 242.078 129.166 247.391L131.877 257.32C126.511 258.53 123.788 258.429 123.424 255.351C123.31 254.383 123.28 252.833 123.252 251.319C123.006 246.124 122.34 240.935 121.813 235.733C120.191 220.806 117.591 205.977 116.184 191.08Z" fill="#E6F2FE"/>
<path d="M21.3125 163.368C21.5123 162.89 21.9416 162.627 22.3258 162.335C23.8209 161.196 38.9331 149.114 40.5756 147.799C41.2989 147.61 41.8632 148.105 42.509 148.251C43.2724 148.422 43.9655 148.89 44.7913 148.784C45.3007 148.177 44.7821 147.925 44.379 147.687C43.9248 147.42 43.3797 147.421 42.8734 147.298C41.2338 146.587 41.0256 146.182 41.2725 144.198C41.3991 143.817 41.4326 143.388 41.7242 143.086C42.1595 142.635 42.967 142.188 43.3924 142.922C43.7162 145.107 44.0768 146.06 46.2838 146.533C47.0288 146.693 47.7406 146.908 48.3628 147.353C48.5717 147.502 48.8172 147.688 48.6803 147.991C48.5776 148.218 48.3161 148.225 48.0895 148.242C47.9767 148.251 47.8643 148.225 47.7524 148.225C47.44 148.225 46.9977 147.927 46.8539 148.352C46.701 148.803 47.1019 149.109 47.4735 149.307C48.3358 149.768 49.2583 150.098 50.1527 150.49C50.5962 150.684 51.0896 150.792 51.4125 151.199C51.5952 151.721 51.4233 152.157 51.0735 152.542C50.6426 153.015 37.2394 164.502 36.3653 165.496C35.8961 166.029 35.3112 166.127 34.6209 165.909C33.2415 165.595 23.7832 164.071 22.0791 163.791C21.7702 163.74 21.5063 163.62 21.3125 163.368Z" fill="#453075"/>
<path d="M77.9258 81.92C82.2332 78.3389 88.1465 82.7828 92.6549 83.8791C96.8932 85.0137 100.955 82.9984 103.295 79.4232C104.35 78.2153 104.722 77.5934 104.667 79.7041C104.814 79.8592 104.897 80.0306 104.897 80.2119C104.897 87.946 98.6631 95.2528 98.4011 95.309C96.7108 95.6719 86.4346 91.3079 86.0897 91.1436C82.8966 88.8091 80.236 85.0631 77.9258 81.92Z" fill="#B06A1D"/>
<path d="M65.4831 121.286C65.2369 120.037 63.3225 118.055 62.4201 117.211C61.8232 116.266 60.207 117.916 59.6675 118.065C56.9629 118.955 54.2568 119.872 51.4004 120.134C50.3808 119.935 45.4341 120.616 44.1622 121.472C43.1156 123.37 42.0385 125.251 41.1184 127.214C40.7494 128 41.5121 133.056 41.5129 133.056C41.615 133.212 47.3967 136.291 47.5734 136.285C47.6549 136.203 47.7363 136.122 47.8175 136.04C47.7431 135.906 53.194 134.712 53.0343 135.614C54.5516 135.662 55.3967 134.874 56.2177 133.679C56.8489 132.847 57.5604 132.071 58.0072 131.111C58.188 129.973 58.7359 128.941 59.1454 127.88C60.093 125.292 61.7371 123.761 64.2249 122.507C64.7565 122.239 65.5273 121.919 65.4831 121.286Z" fill="#DDBE9F"/>
<path d="M70.4524 230.152C70.7947 229.793 73.2223 228.466 73.8671 227.83C74.2315 227.151 74.5117 224.193 75.4521 223.957C77.5085 223.282 79.2821 223.012 81.4159 222.838C82.1276 222.78 82.6322 223.156 82.9699 223.767C83.8084 225.286 84.4729 226.87 84.9725 228.536C85.3777 229.888 84.7739 230.8 83.8442 231.592C79.691 235.128 75.4685 238.581 71.203 241.984C69.1808 243.597 67.0986 245.174 65.4639 247.221C64.1185 246.875 61.3329 243.743 61.161 242.962C60.9104 242.397 70.65 231.366 70.4524 230.152Z" fill="#272F77"/>
<path d="M121.372 261.424C122.32 261.357 124.808 261.418 126.606 261.03C127.594 260.817 125.045 259.914 124.659 259.051C124.36 258.586 124.255 258.141 124.995 257.978C127.181 258.997 132.199 260.643 132.332 260.811C132.466 260.98 134.96 269.953 132.303 270.315C123.25 271.505 107.425 272.833 102.771 270.004C102.771 270.004 102.597 268.006 102.729 267.239C102.898 266.255 118.792 261.988 118.901 261.991C119.574 262.015 121.142 262.1 121.372 261.424Z" fill="#272F77"/>
<path d="M45.1087 149.145C43.534 149.142 42.0232 148.368 40.5762 147.8C39.3804 144.418 33.9248 124.891 32.6508 118.464C32.032 115.964 30.9183 113.793 28.0142 114.836C22.1944 116.925 15.7537 125.294 11.1127 127.858C9.9759 128.486 9.39784 128.054 8.94033 127.774C8.91987 127.762 8.89966 127.749 8.8797 127.736C8.66333 127.431 8.42148 126.975 8.49926 126.473C8.5504 126.143 8.74053 125.845 9.04782 125.551C9.1926 125.413 29.4886 107.834 30.3794 106.999C31.2752 106.159 31.5973 106.48 31.5973 106.48C32.4597 107.718 32.9869 109.711 32.96 111.262C32.9699 112.383 33.2379 113.434 33.8217 114.4C34.6568 117.206 35.2083 120.082 35.9632 122.91C37.6861 129.365 41.0185 135.55 41.3124 142.223C41.4076 144.385 41.9181 145.833 41.9181 145.833C42.101 146.297 42.363 146.781 43.0645 147.134C44.1908 147.764 44.1578 147.9 44.732 148.245C45.0496 148.436 45.022 148.654 45.1087 149.145Z" fill="#C4B7E2"/>
<path d="M98.4002 95.309C100.268 92.9807 101.403 90.1394 102.737 87.5035C103.975 85.0704 104.289 82.4105 104.615 79.7311C104.71 78.9481 104.512 78.7979 104.838 78.5669C105.945 78.6428 106.604 83.9853 106.833 85.0765C107.356 91.6992 103.374 97.4768 101.01 103.382C99.2638 107.794 98.7596 109.578 101.51 113.821C101.975 114.453 102.421 115.107 103.012 115.639C103.494 116.155 102.426 116.311 102.115 116.089C98.723 114.826 95.5143 114.095 94.0367 110.587C93.0218 108.997 91.785 106.052 92.3344 104.165C93.4238 100.702 96.3143 98.1802 98.4002 95.309Z" fill="#FCCA95"/>
<path d="M102.77 270.004C110.064 271.843 117.927 271.094 124.75 270.315C132.693 269.408 133.082 269.464 132.122 260.952C129.372 259.855 123.049 258.997 122.466 255.556C122.76 255.375 123.104 255.422 123.422 255.352C124.612 259.824 132.85 256.213 136.483 257.395C137.495 260.608 137.285 263.909 137.278 267.226C137.767 271.079 136.809 272.411 132.817 272.504C126.647 272.873 120.458 273.086 114.328 273.93C109.974 274.153 103.149 276.789 102.77 270.004Z" fill="#1B273F"/>
<path d="M134.738 121.867C135.307 122.159 137.081 122.834 137.081 122.834C140.862 122.681 144.043 120.978 147.081 118.765C153.326 114.333 157.727 105.263 156.683 97.6472C156.556 95.0751 155.696 92.581 154.991 90.1274C154.559 89.0335 154.598 87.9133 154.677 86.7992C154.752 85.2732 155.859 84.0502 156.247 82.6128C156.547 83.6301 160.917 90.7125 159.546 90.7834C158.436 91.2964 158.338 92.1644 158.572 93.2331C159.32 96.6479 159.667 100.112 159.722 103.604C159.602 105.664 161.453 104.556 161.008 105.64C159.438 112.198 154.923 117.83 149.469 121.675C148.318 121.016 147.28 121.366 146.225 121.966C143.619 123.59 140.039 124.025 138.356 126.819C137.638 127.361 136.812 127.513 136.069 126.865C135.53 126.618 135.372 126.116 135.205 125.614C135.092 124.744 134.142 122.611 134.738 121.867Z" fill="#2F2F2F"/>
<path d="M62.875 117.732C62.9266 117.523 63.1718 116.918 63.5968 116.688C70.1355 111.549 83.9772 94.8759 84.239 93.8677C84.8558 92.9597 86.0896 91.1436 86.0896 91.1436C94.6546 96.7481 79.5177 110.056 74.4286 114.715C71.9252 117.008 69.5099 119.364 66.6731 121.351C66.078 121.767 65.0422 122.507 65.0422 122.507C65.2503 120.008 62.875 117.732 62.875 117.732Z" fill="#2F2F2F"/>
<path d="M134.318 32.4165C130.633 38.1718 132.321 31.0472 129.429 31.2327C118.205 31.4356 103.109 31.4034 95.1378 22.3883C95.0666 21.9102 98.5337 23.1194 101.677 24.3079C105.317 25.6843 117.6 28.6772 130.58 27.4216C132.77 27.2097 134.904 26.5956 136.867 25.6041C137.714 25.1767 138.551 24.7303 139.403 24.3076C140.417 23.9215 141.517 24.9333 140.783 25.9188C138.875 28.3167 135.918 29.7443 134.318 32.4165Z" fill="#4C321C"/>
<path d="M109.844 11.3873C112.54 12.419 115.254 11.9112 117.924 11.0651C118.407 10.9121 119.623 10.6747 120.544 11.284C122.111 12.3207 121.902 14.7352 119.969 15.6183C118.776 16.1634 116.183 17.3393 113.325 17.9154C109.828 18.6203 101.156 17.6553 100.441 17.5561C97.9446 17.2098 95.82 18.3318 93.9061 19.9858L93.6524 19.1961C92.3628 15.1053 97.556 12.5244 101.158 12.3162C104.049 11.8189 107.076 12.5785 109.844 11.3873Z" fill="#936E4E"/>
<path d="M111.877 138.773C116.336 145.7 119.926 174.199 117.74 182.32C117.261 184.098 116.331 184.429 115.268 183.871C113.145 168.975 112.508 153.868 111.877 138.773Z" fill="#E6F2FE"/>
<path d="M48.4987 140.582C47.0786 140.973 49.1046 139.481 50.7785 138.566C51.5779 137.964 52.0768 137.136 52.513 136.262C51.009 135.776 49.7448 136.443 48.6837 137.309C46.9133 138.753 44.8146 139.166 42.4876 139.755C43.2342 139.028 42.9431 138.398 42.7842 137.806C42.0673 135.137 39.9311 129.686 39.9167 124.676C39.9082 121.739 41.9504 117.8 41.9185 117.732C41.644 116.553 39.8119 111.014 39.5525 109.762C39.5336 109.671 39.4719 109.594 39.387 109.555C38.1593 108.982 32.3901 106.909 31.5977 106.48L32.6879 111.291C32.7882 111.315 33.6601 114.402 33.5686 114.419C33.7185 115.074 41.2588 143.186 41.5268 144.235C41.5944 143.231 42.001 143.043 42.2498 142.942C42.5277 142.83 42.7236 142.806 43.3256 142.889C43.19 143.432 42.8798 144.323 43.1324 144.801C43.6543 145.79 44.474 146.401 45.5464 146.681C45.9093 146.776 46.284 146.826 46.6533 146.897C47.4346 147.046 48.989 147.523 48.5523 147.94C48.1579 148.317 46.3672 147.912 46.3672 147.912C46.4003 148.106 46.433 148.252 46.4494 148.4C46.5176 149.017 46.8234 149.415 47.4279 149.642C48.3432 149.986 50.9413 151.195 51.4134 151.199C51.5096 150.806 48.7324 140.89 48.4987 140.582Z" fill="#947EC6"/>
<path d="M94.037 110.587L95.4999 111.543C96.7263 112.344 98.0211 113.037 99.3686 113.614C112.595 119.272 116.297 117.555 117.704 117.28C118.315 117.161 118.97 117.071 119.612 117.189C120.119 117.426 119.97 117.866 119.94 118.267C119.906 118.715 119.822 119.169 120.167 119.548C121.005 119.768 121.98 119.426 122.691 120.159C123.258 120.28 123.807 120.146 124.357 120.039C124.729 119.997 125.095 119.982 125.422 120.212C125.622 120.959 124.947 121.021 124.552 121.27C124.144 121.528 123.682 121.688 123.191 121.735C122.088 121.932 120.988 122.162 119.855 122.077C117.078 121.017 114.125 120.81 111.223 120.414C107.991 119.973 104.84 119.282 101.828 118.04C99.0433 116.891 96.1991 115.87 93.5531 114.411C92.9947 114.103 92.2361 113.939 92.1797 113.088C92.7988 112.254 93.4179 111.421 94.037 110.587Z" fill="#1B273F"/>
<path d="M154.087 79.7817C153.044 80.5225 149.815 82.5673 149.373 83.0312C148.81 83.6228 148.594 84.3016 148.83 85.0948C149.103 86.0128 149.246 86.4042 149.187 87.3399C149.173 87.5647 148.954 88.3333 148.766 88.4959C147.705 87.2359 146.783 85.7959 146.777 84.171C146.772 82.6123 146.989 81.8834 147.263 81.0976C147.654 79.978 148.289 79.0143 149.079 78.1642C150.769 76.3435 152.74 74.866 154.876 73.5912C155.771 73.0569 156.732 72.6268 157.503 71.8802C158.309 71.0995 159.104 70.3237 159.627 69.3162C159.807 68.9441 159.999 68.5979 160.5 68.9109C160.72 70.4131 160.254 71.7833 159.731 73.1591C158.876 75.4066 157.275 77.0666 155.538 78.6338C155.264 78.8811 154.295 79.6337 154.087 79.7817Z" fill="#B06A1D"/>
<path d="M124.357 55.7574C124.878 55.7734 126.061 56.034 126.583 56.0499C126.676 56.4411 126.449 56.7751 126.384 57.1381C126.102 58.7212 125.827 60.265 126.444 61.8785C127.01 63.3605 126.498 64.6732 125.125 65.4439C122.368 66.9907 120.05 67.2492 117.376 65.2083C117.077 64.9798 116.788 64.7389 116.392 64.7006C115.534 64.1939 115.442 63.2159 115.016 62.4438C114.941 62.3067 115.149 62.2166 115.284 62.1597C115.809 62.2514 116.323 62.1354 116.84 62.0786C117.353 62.668 118.975 62.9746 119.565 62.5936C120.117 62.2369 120.121 61.4708 119.56 61.1056C119.175 60.8557 118.715 60.804 118.287 60.6707C117.905 60.5522 117.445 60.5494 117.286 60.0631C117.295 59.4692 117.303 58.8753 117.312 58.2814C117.605 57.9797 117.991 57.9876 118.366 57.9754C120.009 57.9221 121.507 57.162 123.079 56.7781C123.459 56.6854 123.767 56.6183 124.039 56.3531C124.307 56.0927 123.917 55.5581 124.357 55.7574Z" fill="#2F2F2F"/>
<path d="M52.5127 136.262C49.3203 137.911 42.3527 140.103 42.109 140.014C42.017 139.356 43.0213 139.418 42.6869 138.614C42.2263 137.211 38.8331 124.419 38.3642 123.437C37.9914 123.41 37.3684 123.451 36.7589 123.129C35.746 122.545 35.2395 120.967 36.0651 120.038C37.1584 120.229 36.7218 120.829 38.0896 120.219C40.1616 119.625 42.3693 119.077 44.529 119.107C45.3146 119.137 48.5473 119.681 48.4491 120.69C47.0523 121.046 45.5284 121.035 44.218 121.65C43.8397 122.077 43.2733 122.122 42.7651 122.307C41.7282 122.767 39.4454 122.69 39.9767 124.376C40.238 125.264 40.5627 126.139 40.6426 127.073C40.5606 128.31 40.8407 129.447 41.5545 130.475C41.8562 130.91 42.0334 131.406 42.1562 131.919C42.5297 133.785 43.1685 135.582 43.6341 137.425C44.0547 139.258 46.3955 136.207 47.4189 136.108C48.662 135.435 49.3075 135.362 49.706 133.82C49.9896 133.028 50.0207 131.146 50.4151 130.765L53.129 129.873C53.9683 131.546 53.2166 134.624 52.5127 136.262Z" fill="#453075"/>
<path d="M151.064 18.1268C150.446 17.4504 147.73 17.3555 146.807 17.609C146.281 17.7268 143.197 18.4132 142.482 18.3851C140.959 18.3253 139.619 17.3677 139.056 15.9564C138.184 13.7658 138.89 9.76396 136.319 7.83141C135.642 7.32194 134.543 6.40748 133.83 5.84262C133.349 5.46106 133.135 4.82387 133.32 4.23911C133.337 4.18505 133.356 4.13756 133.376 4.09961C137.741 5.01361 142.032 9.0104 142.975 13.3938C146.175 13.1644 149.624 15.3497 151.064 18.1268Z" fill="#936E4E"/>
<path d="M115.283 62.1596C115.257 62.2644 115.86 63.6422 116.146 64.2492C116.207 64.3801 116.308 64.4929 116.39 64.614C116.861 64.8413 117.058 65.308 117.325 65.7049C118.22 67.0386 119.362 67.9835 121.027 68.1635C121.365 68.2001 121.703 68.2669 121.855 68.6384C122.434 69.6532 121.823 70.5285 120.695 70.8C118.709 71.212 117.09 70.314 116.041 69.8064C114.508 69.0646 113.11 68.1176 111.991 66.8226C111.381 66.116 110.847 65.3433 110.291 64.5911C109.868 64.0192 109.077 61.6623 106.925 61.2489C105.524 61.1982 105.282 60.0149 105.3 59.2139C105.3 59.2139 109.21 59.4756 111.459 60.3675C111.459 60.3675 113.515 61.0876 114.362 61.7943C114.644 62.0294 114.954 62.0954 115.283 62.1596Z" fill="#FCCA95"/>
<path d="M84.2382 93.8677C84.5092 94.9064 84.7413 96.1614 83.9719 97.2215C82.9374 98.6467 76.3765 106.698 73.2856 109.744C70.6492 112.341 62.8742 117.732 62.8742 117.732C62.2429 117.194 61.9137 116.679 61.0056 117.236L60.709 117.419C60.785 116 61.8423 115.417 62.7804 114.774C67.0738 111.834 71.3678 108.932 74.667 104.912C77.8564 101.225 81.3116 97.7634 84.2382 93.8677Z" fill="#595959"/>
<path d="M160.5 68.9111C160.135 68.8864 159.915 69.1731 159.628 69.3165C157.926 69.4867 156.267 69.1791 154.622 68.8178C152.432 68.337 150.251 67.8155 148.071 67.2945C146.707 66.8999 143.492 66.0854 144.195 64.1434C144.253 64.0157 144.225 63.8493 144.236 63.7007C146.504 64.26 148.787 63.4588 151.066 63.7328C154.706 63.8927 159.452 64.8511 160.5 68.9111Z" fill="#FCCA95"/>
<path d="M92.1807 113.088C92.5828 113.609 93.1649 113.879 93.7246 114.175C95.8815 115.316 98.1437 116.222 100.409 117.12C101.156 117.416 107.576 119.227 112.327 120.356C113.542 120.645 114.771 120.872 116.009 121.044C117.43 121.241 119.317 121.543 119.8 121.832C118.955 122.467 117.943 122.476 116.99 122.401C114.706 122.221 112.388 122.316 110.15 121.693C104.72 120.186 99.1773 119.188 93.652 118.113C92.3987 117.869 91.1345 117.674 89.9048 117.327C89.5436 117.225 89.0372 117.245 89 116.669C90.0602 115.475 91.1204 114.282 92.1807 113.088Z" fill="#272F77"/>
<path d="M165.428 129.173C166.746 129.137 167.667 128.575 168.15 127.367C168.595 126.254 175.846 105.218 176.051 104.774C176.172 104.51 176.436 104.515 176.627 104.534C176.632 104.534 176.636 104.538 176.635 104.543C176.563 105.319 168.337 129.947 168.113 130.616C168.049 130.806 167.862 130.928 167.661 130.911C167.661 130.911 142.016 125.939 141.527 125.914C141.896 125.4 163.871 129.215 165.428 129.173Z" fill="#C4B7E2"/>
<path d="M121.856 68.6388C119.23 68.3137 117.434 67.0817 116.391 64.6144C116.445 64.4582 116.434 64.1829 116.717 64.3612C118.372 65.6902 120.319 66.6718 122.679 66.1296C123.59 65.9201 124.486 65.6287 125.259 65.0398C126.71 63.8126 126.441 62.7953 126.086 61.6802C125.776 60.7072 125.684 59.6769 125.827 58.666C125.926 57.96 126.037 57.2556 126.165 56.5544C126.199 56.3674 126.438 56.2173 126.583 56.0502C127.499 55.736 129.346 56.1511 129.316 54.7559C130.237 55.0054 129.322 57.7628 129.181 58.5229C128.64 61.4304 129.659 62.1913 129.577 62.4409C129.378 63.0445 129.22 63.6625 129.067 64.2799C128.332 67.5764 124.831 68.5507 121.856 68.6388Z" fill="#0E0E0E"/>
<path d="M123.218 121.514C123.934 121.101 124.99 121.035 125.458 120.313C125.852 119.991 127.187 119.307 127.659 119.422C130.004 120.464 130.404 121.724 133.681 120.751C134.066 120.627 134.545 121.155 134.575 121.631C134.606 122.131 134.702 122.321 134.92 123.009C135.586 125.107 130.747 123.66 128.63 123.808C127.968 123.89 127.258 124.132 127.326 124.917C127.395 125.725 128.168 125.829 128.812 125.747C131.012 125.553 133.249 125.526 135.439 125.68C135.647 126.073 135.854 126.466 136.062 126.859C132.746 127.787 129.153 128.393 125.749 127.637C123.724 127.34 122.601 122.862 123.218 121.514Z" fill="#AE8C69"/>
<path d="M123.218 121.514C123.084 123.191 123.614 124.385 123.939 126.008C122.516 125.525 119.869 125.02 118.4 124.676C107.268 122.077 98.9492 122.214 98.5547 121.886L100.078 120.318C100.571 119.817 101.195 119.936 101.776 120.015C104.563 120.321 107.325 120.921 110.064 121.395C112.123 121.875 114.231 121.836 116.323 122.054C118.637 122.127 120.92 121.657 123.218 121.514Z" fill="#85A2C1"/>
<path d="M70.4508 230.152C70.5039 230.29 71.8599 231.907 69.677 233.693C67.8849 235.16 66.3196 236.91 65.1946 238.963C64.2499 240.389 64.244 241.626 62.3216 241.896C61.6472 241.991 61.2115 243.147 61.31 243.306C59.8533 240.955 60.7852 237.671 62.5131 235.799C64.8138 233.508 67.7458 231.927 70.4508 230.152Z" fill="#2D399D"/>
<path d="M81.3509 68.2456C82.0067 68.9404 82.4199 70.3572 82.0669 71.8487C81.7641 73.4052 81.2618 74.8703 80.5432 76.2707C80.2786 76.7785 79.9415 77.2197 79.6112 77.5812C78.9566 78.2977 77.9866 78.6416 77.0246 78.5004C76.5881 78.4363 76.1974 78.3773 76.1375 78.3631C75.1862 74.4985 76.9972 69.0435 81.3509 68.2456Z" fill="#FCCA95"/>
<path d="M118.176 53.5662C120.661 52.2073 122.201 51.4249 123.659 50.4445C125.229 49.3888 127.989 46.0321 127.681 48.0778C127.274 49.6334 126.934 51.2059 126.144 52.6399C125.565 53.6897 125.07 54.7852 124.356 55.7573C124.124 56.0167 123.815 55.9785 123.516 55.9669C122.051 55.9096 119.642 55.6797 118.176 55.7937L118.183 53.5676L118.176 53.5662Z" fill="#A08165"/>
<path d="M96.2619 60.7485C96.4072 60.872 95.8135 62.0856 95.5772 62.5555C95.0839 63.536 94.8376 64.5798 94.6375 65.6579C94.4665 66.5792 94.5161 67.5242 94.2416 68.4317C94.1091 68.8702 93.9439 69.2868 93.702 69.6625C93.2039 70.4358 92.2073 71.1648 91.277 71.2123C87.7814 71.2123 86.3843 69.6226 85.7517 69.0234L85.4922 68.7775C86.0146 68.9833 88.7598 69.2815 90.1371 68.0226C90.8563 67.3571 91.0762 66.7534 91.5489 65.8876C91.9793 65.099 92.4908 64.3619 93.0168 63.6324C93.8855 62.4275 94.9618 61.4659 96.2619 60.7485Z" fill="#B06A1D"/>
<path d="M112.203 121.737C109.41 121.681 90.2402 119.089 88.5519 118.968C87.0902 118.675 88.2136 117.107 88.9996 116.669C92.246 117.831 108.706 120.584 112.203 121.737Z" fill="#2D3A9D"/>
<path d="M123.029 255.402C123.333 256.594 123.69 257.669 124.667 258.269C124.519 258.55 124.795 259.166 125.265 259.355C125.696 259.566 127.678 260.311 127.043 261.302C126.71 261.823 125.547 261.875 124.933 261.823C123.751 261.637 122.573 261.435 121.372 261.423C121.395 260.501 120.424 260.156 119.902 259.559C118.069 257.7 120.905 255.626 123.029 255.402Z" fill="#2D399D"/>
<path d="M177.305 102.938C177.298 102.713 174.315 97.8676 172.549 97.3445C171.733 96.8012 164.198 95.4061 163.493 95.1502C163.125 95.0169 162.808 94.8223 162.791 94.3687C162.942 94.3665 171.439 95.4708 172.919 95.7142C173.614 95.8286 174.18 96.0478 174.573 96.7099C175.262 97.8701 177.619 101.545 177.512 102.431C177.489 102.623 177.45 102.799 177.305 102.938Z" fill="#C4B7E2"/>
<path d="M51.3998 120.134C50.8849 120.252 50.3706 120.368 49.8564 120.485C46.0536 118.969 42.2189 118.681 38.3214 120.142C37.746 120.358 37.1395 120.701 36.4918 120.3C36.3128 120.272 36.157 120.207 36.0645 120.039C36.11 119.486 36.4946 119.183 36.9376 118.982C46.9501 114.457 50.8782 119.595 51.3998 120.134Z" fill="#C4B7E1"/>
<path d="M110.484 133.575C108.417 132.526 105.688 132.048 103.5 130.875C102.127 130.517 100.786 128.638 102.6 128.657C102.892 128.66 103.182 128.717 103.456 128.815C106.242 129.817 108.99 130.978 111.703 132.155C112.297 132.429 112.802 133.291 110.484 133.575Z" fill="#E6F2FE"/>
<path d="M75.2352 223.683C75.2602 223.742 75.4454 223.893 75.452 223.957C75.4392 224.031 74.4071 224.827 75.8618 225.12C76.1965 225.155 76.5375 225.13 76.8757 225.134C77.101 225.137 77.3297 225.121 77.5508 225.154C78.1749 225.246 78.5158 225.818 78.2908 226.401C77.9632 227.25 77.2253 227.511 76.4172 227.603C75.9349 227.658 75.441 227.623 74.9528 227.609C74.57 227.598 74.2029 227.63 73.8669 227.83C73.8312 227.62 73.7009 227.502 73.4962 227.466C73.1182 227.399 72.7881 227.234 72.4689 227.024C71.2216 226.201 71.1246 224.278 72.2571 223.564C72.3497 223.505 72.8931 223.239 73.0451 223.375C73.7043 223.962 74.4968 223.91 75.2352 223.683Z" fill="#2D399D"/>
<path d="M141.271 125.881C140.299 126.193 139.327 126.506 138.355 126.819C138.672 125.927 138.796 125.178 139.756 124.799C141.188 124.072 148.056 119.733 149.468 121.675C147.291 123.53 141.455 125.65 141.271 125.881Z" fill="#595959"/>
<path d="M118.177 54.7407C118.182 54.9265 118.176 55.7369 118.176 55.7369C118.763 55.5514 120.671 55.3459 121.265 55.3488C122.49 55.3548 123.146 55.4659 124.357 55.7574C124.488 55.7909 124.518 55.9062 124.495 56.049C124.462 56.2514 124.428 56.4373 124.076 56.5982C120.671 58.1572 118.837 58.3798 117.312 58.2813C117.233 58.1964 116.85 57.9178 116.689 57.5909C116.262 56.7211 116.476 55.6532 117.247 55.0624C117.461 54.8978 117.926 54.7654 118.177 54.7407Z" fill="#595959"/>
<path d="M52.7734 135.578C52.8715 135.231 52.8959 134.954 52.983 134.666C53.2428 133.808 53.2179 130.605 53.1287 129.873C53.9057 129.347 54.3326 128.938 55.1982 128.556C55.4952 128.425 56.0168 128.238 56.3629 128.874C56.7482 129.664 56.8411 130.445 56.3718 131.264C56.0538 131.819 55.738 132.365 55.3266 132.857C54.5588 133.773 53.7973 134.695 53.0332 135.614L52.9101 135.606L52.7734 135.578Z" fill="#AE8C69"/>
<path d="M48.4997 140.582C47.2633 141.583 46.1468 142.085 44.8554 142.634C44.5755 142.849 44.2917 142.872 44.0031 142.651C43.1292 142.715 42.4778 142.352 42.033 141.614C41.9813 141.528 41.9677 141.393 41.9924 141.295C42.0212 141.18 42.136 141.15 42.2579 141.186C43.5718 141.575 44.7569 141.193 45.9282 140.617C47.2094 139.987 48.5141 139.404 49.8083 138.8C50.1162 138.656 50.4223 138.506 50.7794 138.566C50.3352 139.277 48.678 140.438 48.4997 140.582Z" fill="#C3B6E1"/>
<path d="M117.286 60.0631C118.182 60.6396 120.637 60.3583 120.302 61.9909C120.191 62.5328 120.03 62.9019 119.341 63.0264C118.488 63.1806 117.617 63.0339 116.802 62.6539C116.338 62.4287 116.803 62.3168 116.84 62.0787L117.076 61.9933C117.076 61.9933 117.286 60.0631 117.287 60.0625L117.286 60.0631Z" fill="#100F0F"/>
<path d="M35.5106 110.976L34.8477 107.781L35.7457 108.122L36.207 111.182L35.5106 110.976Z" fill="#4F3A7F"/>
<path d="M35.1261 110.83C35.3582 110.898 37.1193 111.396 37.771 111.564C38.8451 111.84 39.2797 112.104 39.4092 113.17C39.4092 113.17 39.4849 113.684 39.3092 113.624C37.9975 113.182 36.3701 112.899 35.0077 112.656C34.3578 112.54 34.0084 112.05 33.7811 111.493C33.6962 111.286 33.5644 110.884 33.5941 110.648C33.5941 110.648 33.9945 110.52 35.1261 110.83Z" fill="#C3B6E1"/>
<path d="M65.048 121.963L64.3866 122.179C63.8665 122.348 63.3715 122.584 62.9127 122.881C62.0323 123.451 60.6355 124.449 60.0372 125.388C59.5328 126.179 58.1043 129.857 57.9264 130.627C57.8623 130.905 57.9528 131.023 58.0066 131.111C58.3766 130.461 58.8776 129.059 58.8776 129.059C58.9158 129.01 59.037 128.716 59.0945 128.63C60.1404 126.762 61.605 125.327 63.526 124.356C63.8082 124.213 64.1501 123.998 64.4812 123.947C64.6149 123.927 64.7239 123.83 64.769 123.703C64.7968 123.624 64.8269 123.534 64.8522 123.445C65.0011 122.92 65.0852 122.507 65.048 121.963Z" fill="#AE8C6A"/>
<path d="M128.601 120.07C128.25 120.015 127.942 119.877 127.706 119.604C127.706 119.604 127.687 119.545 127.637 119.521C126.8 119.117 120.67 120.047 120.025 119.877C119.631 119.674 119.551 119.316 119.579 118.924C119.618 118.404 119.68 117.886 119.733 117.368C119.394 115.777 123.781 94.1346 124.534 91.7683C124.749 91.0938 124.967 90.4757 125.39 89.8336C125.39 89.8336 125.682 88.1543 125.967 88.23C126.34 87.893 126.962 87.9512 127.419 88.0392C130.303 88.595 137.096 89.5118 137.485 89.8536C138.357 90.2133 148.532 91.7332 149.026 92.0875C148.99 92.8721 149.694 99.7442 149.651 100.388C149.356 104.817 147.562 108.482 144.437 111.677C141.159 115.027 137.576 117.869 133.322 119.858C131.778 120.58 130.199 120.545 128.601 120.07Z" fill="#947EC6"/>
<path d="M125.389 89.8335C125.143 90.7345 120.059 115.302 119.732 117.368C117.588 117.874 115.27 117.912 113.029 117.677C113.747 116.806 114.557 115.953 115.118 114.973C116.032 113.376 116.985 111.8 117.751 110.126C118.485 108.525 119.218 106.924 119.818 105.262C121.105 101.698 122.064 98.0435 122.964 94.3697C123.323 92.9064 123.853 91.5096 124.777 90.2877C124.943 90.0682 125.107 89.8816 125.389 89.8335Z" fill="#B06A1D"/>
<path d="M137.485 89.8536C136.723 89.9227 126.454 88.2125 125.967 88.23C126.355 87.2513 127.14 86.4734 127.689 85.584C128.422 84.3978 129.709 84.1362 131.043 84.6393C131.883 84.9561 132.643 85.434 133.36 85.9917C134.598 86.9554 135.874 87.8692 136.95 89.0234C137.179 89.2695 137.443 89.489 137.485 89.8536Z" fill="#B06A1D"/>
<path d="M162.05 101.315C162.047 100.642 161.881 99.9991 161.901 99.3271C161.991 97.7827 161.471 96.3162 161.443 94.7861C162.365 96.197 163.154 97.6897 163.879 99.2083C164.069 99.6361 164.398 99.8728 164.818 99.9316C168.118 100.652 171.44 101.222 174.768 101.837C175.227 101.946 176.553 102.171 176.107 102.868C175.081 103.529 172.266 103.017 171.004 102.882C167.965 102.415 165.095 101.731 162.05 101.315Z" fill="#453075"/>
<path d="M45.1087 149.145C45.1087 149.145 44.0484 149.145 43.0645 147.134C43.4974 147.253 45.4067 147.773 45.4067 147.773C45.4067 147.773 45.1676 148.864 45.1087 149.145Z" fill="#9480C5"/>
<path d="M45.5849 150.351C45.3867 149.921 44.7989 150.751 44.4969 150.984C42.1637 153.108 39.6549 155.026 37.2519 157.069C35.8507 158.317 34.7321 159.026 33.3965 160.355C33.0394 160.711 31.0312 162.544 31.4655 162.683C31.7932 162.788 34.3804 160.501 34.3804 160.501C37.05 158.671 38.3549 157.034 40.8514 154.988C42.1121 153.74 46.2614 151.818 45.5849 150.351Z" fill="#947EC6"/>
<path d="M148.995 92.3055C148.991 92.2306 149.001 92.1577 149.027 92.0874C151.563 97.0717 151.591 101.148 151.175 105.798C149.935 111.045 145.258 116.078 140.34 118.199C139.125 118.699 136.712 119.339 135.44 119.707C134.476 119.986 134.745 121.568 134.745 121.568C129.084 121.179 129.756 122.112 127.707 119.604C127.802 119.72 133.323 119.858 133.323 119.858C135.951 118.611 141.77 114.403 143.004 113.088C146.19 109.881 148.974 105.304 149.492 100.95C149.61 100.357 149.373 99.6675 148.772 99.4924C148.555 99.4294 134.922 96.3098 134.421 96.1551C134.026 96.0328 133.804 95.7524 133.805 95.2677C136.407 95.407 146.57 97.2561 149.201 97.8794C149 97.2086 145.37 92.8484 144.985 92.3924C145.935 91.9371 148.504 93.4632 148.995 92.3055Z" fill="#453075"/>
<path d="M44.1489 131.721C44.1901 131.6 44.0914 131.513 44.02 131.451C43.9203 131.363 43.8001 131.439 43.7162 131.509C43.5156 131.678 43.3312 131.866 43.1306 132.035C42.907 132.223 42.7294 132.17 42.6254 131.891C42.481 131.504 42.358 131.114 42.3808 130.69C42.3969 130.392 42.3947 130.091 42.3847 129.792C42.3724 129.422 42.276 129.289 41.9148 129.358C41.5276 129.431 41.3735 129.309 41.2488 128.97C41.0873 128.532 41.0383 128.131 41.2286 127.673C41.632 126.702 42.121 125.779 42.6385 124.867C43.2282 123.826 44.3285 122.577 44.7355 121.447C44.7355 121.447 42.9994 121.853 42.8141 122.054C42.8232 122.146 42.8323 122.239 42.8414 122.332C42.7659 122.396 42.6936 122.465 42.6269 122.54C41.9273 124.045 40.6727 125.279 40.4396 127.011C40.2119 128.132 40.4069 129.186 41.0272 130.138C41.4003 130.71 41.6406 131.335 41.9217 131.946C42.2763 132.893 42.8249 133.711 43.5932 134.37C43.882 134.618 44.1458 135.017 44.6317 134.724C44.2003 133.767 43.7669 132.839 44.1489 131.721Z" fill="#AE8C6B"/>
<path d="M41.9223 131.947C42.3494 132.213 42.5283 132.678 42.7891 133.068C43.1629 133.627 44.1397 134.286 44.6322 134.724C44.7596 134.838 46.3941 135.487 46.9756 135.688C46.9756 135.688 47.4521 136.112 47.5723 136.285C47.2822 136.661 44.6199 138.202 44.1838 138.418C43.7888 138.613 43.6466 138.538 43.5305 138.123C43.1379 136.719 42.7478 135.313 42.3671 133.906C42.1922 133.259 41.8776 132.643 41.9223 131.947Z" fill="#947EC5"/>
<path d="M50.2528 132.248C50.2528 132.248 50.0609 134.225 49.4608 135.092C49.051 135.683 47.5895 136.279 47.5736 136.285C47.5732 136.285 47.5733 136.285 47.573 136.285C47.4427 136.183 46.9146 135.76 46.8134 135.363C46.5172 134.2 47.0148 132.626 48.0177 131.966C48.5238 131.633 49.5544 131.148 50.4159 130.765L50.2528 132.248Z" fill="#AD8B6A"/>
<path d="M36.4922 120.3C46.3785 115.905 49.738 120.24 49.8568 120.485C49.3876 120.554 48.9183 120.622 48.449 120.691C44.4503 117.134 37.6935 121.643 36.4922 120.3Z" fill="#957EC5"/>
<path d="M32.8079 110.973C33.0442 110.809 33.5937 110.647 33.5937 110.647C33.2289 111.422 33.3804 112.246 33.8872 112.865C34.5575 113.683 35.3899 114.139 36.4826 114.23C37.414 114.308 38.3378 114.463 39.2778 114.422C39.3505 114.419 39.4264 114.437 39.4976 114.457C39.6541 114.501 39.7634 114.617 39.7965 114.762C39.8427 114.965 39.7335 115.143 39.5617 115.227C39.3999 115.306 39.2851 115.273 39.1045 115.271C38.5469 115.265 37.8946 115.266 37.3235 115.242C37.1386 115.39 38.0893 118.493 38.0893 118.493L37.4216 118.769C37.4216 118.769 36.261 115.235 36.0471 115.069C35.8928 114.949 33.937 114.515 33.5686 114.419C33.0301 114.278 32.7096 112.171 32.6113 111.414C32.5889 111.242 32.6644 111.072 32.8079 110.973Z" fill="#473277"/>
<path d="M135.438 125.68C135.178 125.979 134.822 125.913 134.492 125.916C133.141 125.93 131.789 125.932 130.438 125.941C130.026 125.944 129.618 125.936 129.211 126.058C128.734 126.201 128.262 126.112 127.775 125.993C127.149 125.839 126.954 125.397 126.826 124.874C126.77 124.646 126.857 124.434 127.014 124.254C127.424 123.783 127.914 123.457 128.56 123.447C129.198 123.436 129.837 123.423 130.474 123.453C131.531 123.503 132.573 123.46 133.581 123.11C134.022 122.956 134.47 123.003 134.919 123.008C135.092 123.899 135.265 124.79 135.438 125.68Z" fill="#DDBE9F"/>
<path d="M48.8099 145.341C47.575 146.381 44.4143 144.134 43.271 143.547C43.0755 143.447 43.3314 142.909 43.3245 142.889L44.0351 143.014C44.3486 143.001 44.5391 143.013 44.9452 143.144C44.9452 143.144 48.0676 143.343 48.7282 144.356C48.9665 144.722 49.1443 145.06 48.8099 145.341Z" fill="#C3B6E1"/>
<path d="M44.9463 143.144L44.0361 143.014L44.002 142.651C44.2862 142.645 44.5703 142.639 44.8544 142.634C44.8544 142.634 44.9324 142.923 44.9463 143.144Z" fill="#534385"/>
<path d="M133.149 95.7095C133.226 96.0871 129.065 112.586 127.859 118.315C127.63 120.144 125.883 120.424 124.325 120.294C122.691 120.159 130.087 99.6024 127.112 95.3021C126.983 94.3477 126.848 90.2701 128.527 91.5002C130.071 92.7471 131.816 94.2276 133.149 95.7095Z" fill="#E0E0E0"/>
<path d="M128.141 91.2305C128.092 91.3268 124.277 109.236 123.311 115.495C123.055 117.157 122.406 118.207 122.219 119.88C122.218 119.943 120.645 120.028 120.645 120.028C120.645 120.028 120.194 120.074 120.023 119.877C120.163 119.831 120.317 119.799 120.357 119.626C120.742 117.951 126.045 89.76 126.325 89.6514C127.496 90.2191 128.141 91.2305 128.141 91.2305Z" fill="#453075"/>
<path d="M122.295 120.409C122.224 120.411 122.168 120.353 122.172 120.283C122.181 120.145 122.2 119.92 122.239 119.707C122.444 118.601 122.618 117.49 122.817 116.382C124.049 109.293 125.54 102.239 127.277 95.2622C130.083 97.9744 127.021 105.758 126.568 109.338C125.681 112.968 125.13 116.653 124.325 120.294C124.325 120.294 122.897 120.393 122.295 120.409Z" fill="white"/>
<path d="M41.4281 125.16C41.0618 125.754 40.7667 126.393 40.4403 127.011C40.1394 125.951 39.7015 124.435 39.4048 123.357C39.3959 123.325 39.4119 123.292 39.4426 123.279C39.8006 123.127 42.237 122.074 43.175 121.875C43.175 121.875 41.9538 124.306 41.4281 125.16Z" fill="#937DC4"/>
<path d="M133.724 90.7324C135.57 90.3286 141.59 92.3589 137.618 93.6689C135.06 94.227 126.91 91.6862 133.724 90.7324Z" fill="#463176"/>
<path d="M126.326 89.651C126.676 89.1328 127.305 89.8279 127.623 90.0882C129.096 91.5365 130.702 92.8312 132.318 94.1153C132.726 94.5447 133.66 95.0502 133.15 95.7092C131.948 95.1102 131.048 94.0414 130.051 93.1627C129.432 92.6635 126.78 90.287 126.326 89.651Z" fill="#C2B6E0"/>
<path d="M118.901 261.991C118.057 261.959 113.318 261.208 111.849 261.016C108.346 260.613 103.506 263.4 102.729 267.239C102.729 267.239 103.663 269.189 106.152 268.007C106.865 267.668 108.19 266.731 108.897 266.378C110.825 265.358 112.201 265.069 114.273 264.381C114.677 264.247 115.121 264.142 115.551 264.009C116.827 263.638 118.396 263.358 118.662 263.008C118.928 262.658 118.901 261.991 118.901 261.991Z" fill="#2D399D"/>
<path d="M161.008 105.64C161.008 105.64 160.901 105.902 160.571 106.028C158.48 106.541 160.555 99.4077 158.189 92.9186C157.692 91.5559 158.585 90.3481 159.747 89.959C162.031 95.2174 163.068 100.146 161.008 105.64Z" fill="#595959"/>
<path d="M148.115 90.6802C148.874 89.6258 148.768 89.1693 148.766 88.496C148.762 87.1953 148.714 86.1122 148.516 84.8137C148.317 83.6811 148.988 82.8779 149.799 82.231C151.119 81.179 152.569 80.6659 153.979 79.7468C154.198 79.6043 154.453 79.4563 154.747 79.2773C154.747 79.2773 155.898 81.496 156.248 82.6125C156.451 83.2537 156.119 83.777 155.848 84.3003C153.346 89.0092 157.28 93.8485 157.148 98.7668C157.525 109.448 150.028 120.258 139.378 122.668C138.31 122.914 137.204 122.86 136.123 123.033C135.672 123.105 135.217 123.012 134.873 122.648C133.733 121.11 134.636 119.426 136.165 119.071C141.558 117.601 146.402 114.233 149.247 109.534C152.906 103.641 151.003 96.3856 148.115 90.6802Z" fill="#0E0E0E"/>
</svg>
