<svg width="152" height="628" viewBox="0 0 152 628" fill="none" xmlns="http://www.w3.org/2000/svg">
<g filter="url(#filter0_d_7538_3107)">
<g clip-path="url(#clip0_7538_3107)">
<rect width="140" height="56" transform="translate(4 4)" fill="#FCF9FF"/>
<path d="M33.36 38H28.56V36.832L29.936 36.32V28.272L28.56 27.744V26.576H33.36V27.744L31.984 28.272V36.32L33.36 36.832V38ZM39.8579 29.168C40.8285 29.168 41.5859 29.4187 42.1299 29.92C42.6845 30.4213 42.9619 31.232 42.9619 32.352V38H40.9459V32.752C40.9459 32.1013 40.8179 31.616 40.5619 31.296C40.3059 30.9653 39.9005 30.8 39.3459 30.8C38.5352 30.8 37.9805 31.056 37.6819 31.568C37.3832 32.0693 37.2339 32.8 37.2339 33.76V38H35.2179V29.328H36.7699L37.0579 30.464H37.1699C37.3619 30.1653 37.5965 29.92 37.8739 29.728C38.1512 29.536 38.4605 29.3973 38.8019 29.312C39.1432 29.216 39.4952 29.168 39.8579 29.168ZM48.3475 38.16C47.3448 38.16 46.5288 37.7867 45.8995 37.04C45.2808 36.2827 44.9715 35.1627 44.9715 33.68C44.9715 32.1973 45.2862 31.0773 45.9155 30.32C46.5448 29.552 47.3715 29.168 48.3955 29.168C48.8222 29.168 49.1955 29.2267 49.5155 29.344C49.8462 29.4507 50.1288 29.6 50.3635 29.792C50.5982 29.984 50.7955 30.1973 50.9555 30.432H51.0515C51.0195 30.2827 50.9875 30.0533 50.9555 29.744C50.9235 29.4347 50.9075 29.1467 50.9075 28.88V25.84H52.9235V38H51.3555L50.9875 36.864H50.9075C50.7475 37.0987 50.5502 37.3173 50.3155 37.52C50.0808 37.712 49.8035 37.8667 49.4835 37.984C49.1635 38.1013 48.7848 38.16 48.3475 38.16ZM48.9555 36.528C49.7022 36.528 50.2302 36.3147 50.5395 35.888C50.8488 35.4613 51.0035 34.816 51.0035 33.952V33.696C51.0035 32.7573 50.8542 32.0427 50.5555 31.552C50.2675 31.0613 49.7235 30.816 48.9235 30.816C48.3155 30.816 47.8462 31.072 47.5155 31.584C47.1848 32.0853 47.0195 32.7947 47.0195 33.712C47.0195 34.6293 47.1848 35.328 47.5155 35.808C47.8462 36.288 48.3262 36.528 48.9555 36.528ZM57.5151 29.328V38H55.4991V29.328H57.5151ZM56.5071 25.984C56.8058 25.984 57.0671 26.064 57.2911 26.224C57.5151 26.3733 57.6271 26.6453 57.6271 27.04C57.6271 27.424 57.5151 27.7013 57.2911 27.872C57.0671 28.032 56.8058 28.112 56.5071 28.112C56.1978 28.112 55.9311 28.032 55.7071 27.872C55.4938 27.7013 55.3871 27.424 55.3871 27.04C55.3871 26.6453 55.4938 26.3733 55.7071 26.224C55.9311 26.064 56.1978 25.984 56.5071 25.984ZM63.0049 29.168C63.5489 29.168 64.0395 29.2747 64.4769 29.488C64.9142 29.7013 65.2822 30.0213 65.5809 30.448H65.6609L65.8529 29.328H67.5329V38.064C67.5329 38.8853 67.3782 39.5733 67.0689 40.128C66.7595 40.6933 66.2955 41.12 65.6769 41.408C65.0582 41.696 64.2849 41.84 63.3569 41.84C62.7382 41.84 62.1675 41.7973 61.6449 41.712C61.1222 41.6373 60.6262 41.504 60.1569 41.312V39.648C60.4875 39.7867 60.8289 39.904 61.1809 40C61.5435 40.1067 61.9169 40.1867 62.3009 40.24C62.6849 40.2933 63.0795 40.32 63.4849 40.32C64.1462 40.32 64.6475 40.1333 64.9889 39.76C65.3409 39.3867 65.5169 38.8533 65.5169 38.16V37.936C65.5169 37.776 65.5222 37.5893 65.5329 37.376C65.5542 37.1627 65.5702 36.992 65.5809 36.864H65.5169C65.2182 37.312 64.8555 37.6427 64.4289 37.856C64.0022 38.0587 63.5115 38.16 62.9569 38.16C61.9009 38.16 61.0742 37.7653 60.4769 36.976C59.8795 36.1867 59.5809 35.088 59.5809 33.68C59.5809 32.7307 59.7142 31.92 59.9809 31.248C60.2582 30.576 60.6529 30.064 61.1649 29.712C61.6769 29.3493 62.2902 29.168 63.0049 29.168ZM63.5329 30.816C63.1275 30.816 62.7809 30.928 62.4929 31.152C62.2155 31.3653 62.0022 31.6853 61.8529 32.112C61.7142 32.5387 61.6449 33.072 61.6449 33.712C61.6449 34.6507 61.8049 35.36 62.1249 35.84C62.4449 36.32 62.9249 36.56 63.5649 36.56C63.9275 36.56 64.2369 36.5173 64.4929 36.432C64.7489 36.336 64.9569 36.1867 65.1169 35.984C65.2875 35.7707 65.4155 35.504 65.5009 35.184C65.5862 34.8533 65.6289 34.4587 65.6289 34V33.696C65.6289 33.0027 65.5542 32.448 65.4049 32.032C65.2555 31.6053 65.0262 31.296 64.7169 31.104C64.4182 30.912 64.0235 30.816 63.5329 30.816ZM77.8525 33.648C77.8525 34.3733 77.7565 35.0133 77.5645 35.568C77.3725 36.1227 77.0952 36.5973 76.7325 36.992C76.3805 37.376 75.9432 37.6693 75.4205 37.872C74.9085 38.064 74.3378 38.16 73.7085 38.16C73.1112 38.16 72.5618 38.064 72.0605 37.872C71.5592 37.6693 71.1218 37.376 70.7485 36.992C70.3858 36.5973 70.1032 36.1227 69.9005 35.568C69.6978 35.0133 69.5965 34.3733 69.5965 33.648C69.5965 32.688 69.7618 31.8773 70.0925 31.216C70.4232 30.544 70.8978 30.0373 71.5165 29.696C72.1458 29.344 72.8872 29.168 73.7405 29.168C74.5512 29.168 75.2605 29.344 75.8685 29.696C76.4872 30.0373 76.9725 30.544 77.3245 31.216C77.6765 31.8773 77.8525 32.688 77.8525 33.648ZM71.6605 33.648C71.6605 34.256 71.7298 34.7787 71.8685 35.216C72.0178 35.6427 72.2418 35.968 72.5405 36.192C72.8498 36.416 73.2445 36.528 73.7245 36.528C74.2152 36.528 74.6098 36.416 74.9085 36.192C75.2178 35.968 75.4418 35.6427 75.5805 35.216C75.7192 34.7787 75.7885 34.256 75.7885 33.648C75.7885 33.0293 75.7138 32.512 75.5645 32.096C75.4258 31.6693 75.2018 31.3493 74.8925 31.136C74.5938 30.912 74.2045 30.8 73.7245 30.8C72.9992 30.8 72.4712 31.0453 72.1405 31.536C71.8205 32.0267 71.6605 32.7307 71.6605 33.648ZM91.2769 32.272C91.2769 33.2 91.2075 34.0267 91.0689 34.752C90.9302 35.4773 90.7009 36.096 90.3809 36.608C90.0715 37.1093 89.6662 37.4933 89.1649 37.76C88.6742 38.0267 88.0715 38.16 87.3569 38.16C86.4609 38.16 85.7249 37.9253 85.1489 37.456C84.5729 36.9867 84.1462 36.3147 83.8689 35.44C83.5915 34.5547 83.4529 33.4987 83.4529 32.272C83.4529 31.0453 83.5809 29.9947 83.8369 29.12C84.0929 28.2453 84.5035 27.5733 85.0689 27.104C85.6449 26.6347 86.4075 26.4 87.3569 26.4C88.2529 26.4 88.9889 26.6347 89.5649 27.104C90.1409 27.5627 90.5675 28.2347 90.8449 29.12C91.1329 29.9947 91.2769 31.0453 91.2769 32.272ZM85.4849 32.288C85.4849 33.216 85.5435 33.9947 85.6609 34.624C85.7782 35.2427 85.9702 35.712 86.2369 36.032C86.5142 36.3413 86.8875 36.496 87.3569 36.496C87.8262 36.496 88.1942 36.3413 88.4609 36.032C88.7382 35.7227 88.9355 35.2533 89.0529 34.624C89.1809 33.9947 89.2449 33.216 89.2449 32.288C89.2449 31.3493 89.1809 30.5707 89.0529 29.952C88.9355 29.3227 88.7382 28.8533 88.4609 28.544C88.1942 28.224 87.8262 28.064 87.3569 28.064C86.8875 28.064 86.5142 28.224 86.2369 28.544C85.9702 28.8533 85.7782 29.3173 85.6609 29.936C85.5435 30.5547 85.4849 31.3387 85.4849 32.288Z" fill="#211A12"/>
<rect width="140" height="56" transform="translate(4 60)" fill="#F1EAFC"/>
<path d="M33.36 94H28.56V92.832L29.936 92.32V84.272L28.56 83.744V82.576H33.36V83.744L31.984 84.272V92.32L33.36 92.832V94ZM39.8579 85.168C40.8285 85.168 41.5859 85.4187 42.1299 85.92C42.6845 86.4213 42.9619 87.232 42.9619 88.352V94H40.9459V88.752C40.9459 88.1013 40.8179 87.616 40.5619 87.296C40.3059 86.9653 39.9005 86.8 39.3459 86.8C38.5352 86.8 37.9805 87.056 37.6819 87.568C37.3832 88.0693 37.2339 88.8 37.2339 89.76V94H35.2179V85.328H36.7699L37.0579 86.464H37.1699C37.3619 86.1653 37.5965 85.92 37.8739 85.728C38.1512 85.536 38.4605 85.3973 38.8019 85.312C39.1432 85.216 39.4952 85.168 39.8579 85.168ZM48.3475 94.16C47.3448 94.16 46.5288 93.7867 45.8995 93.04C45.2808 92.2827 44.9715 91.1627 44.9715 89.68C44.9715 88.1973 45.2862 87.0773 45.9155 86.32C46.5448 85.552 47.3715 85.168 48.3955 85.168C48.8222 85.168 49.1955 85.2267 49.5155 85.344C49.8462 85.4507 50.1288 85.6 50.3635 85.792C50.5982 85.984 50.7955 86.1973 50.9555 86.432H51.0515C51.0195 86.2827 50.9875 86.0533 50.9555 85.744C50.9235 85.4347 50.9075 85.1467 50.9075 84.88V81.84H52.9235V94H51.3555L50.9875 92.864H50.9075C50.7475 93.0987 50.5502 93.3173 50.3155 93.52C50.0808 93.712 49.8035 93.8667 49.4835 93.984C49.1635 94.1013 48.7848 94.16 48.3475 94.16ZM48.9555 92.528C49.7022 92.528 50.2302 92.3147 50.5395 91.888C50.8488 91.4613 51.0035 90.816 51.0035 89.952V89.696C51.0035 88.7573 50.8542 88.0427 50.5555 87.552C50.2675 87.0613 49.7235 86.816 48.9235 86.816C48.3155 86.816 47.8462 87.072 47.5155 87.584C47.1848 88.0853 47.0195 88.7947 47.0195 89.712C47.0195 90.6293 47.1848 91.328 47.5155 91.808C47.8462 92.288 48.3262 92.528 48.9555 92.528ZM57.5151 85.328V94H55.4991V85.328H57.5151ZM56.5071 81.984C56.8058 81.984 57.0671 82.064 57.2911 82.224C57.5151 82.3733 57.6271 82.6453 57.6271 83.04C57.6271 83.424 57.5151 83.7013 57.2911 83.872C57.0671 84.032 56.8058 84.112 56.5071 84.112C56.1978 84.112 55.9311 84.032 55.7071 83.872C55.4938 83.7013 55.3871 83.424 55.3871 83.04C55.3871 82.6453 55.4938 82.3733 55.7071 82.224C55.9311 82.064 56.1978 81.984 56.5071 81.984ZM63.0049 85.168C63.5489 85.168 64.0395 85.2747 64.4769 85.488C64.9142 85.7013 65.2822 86.0213 65.5809 86.448H65.6609L65.8529 85.328H67.5329V94.064C67.5329 94.8853 67.3782 95.5733 67.0689 96.128C66.7595 96.6933 66.2955 97.12 65.6769 97.408C65.0582 97.696 64.2849 97.84 63.3569 97.84C62.7382 97.84 62.1675 97.7973 61.6449 97.712C61.1222 97.6373 60.6262 97.504 60.1569 97.312V95.648C60.4875 95.7867 60.8289 95.904 61.1809 96C61.5435 96.1067 61.9169 96.1867 62.3009 96.24C62.6849 96.2933 63.0795 96.32 63.4849 96.32C64.1462 96.32 64.6475 96.1333 64.9889 95.76C65.3409 95.3867 65.5169 94.8533 65.5169 94.16V93.936C65.5169 93.776 65.5222 93.5893 65.5329 93.376C65.5542 93.1627 65.5702 92.992 65.5809 92.864H65.5169C65.2182 93.312 64.8555 93.6427 64.4289 93.856C64.0022 94.0587 63.5115 94.16 62.9569 94.16C61.9009 94.16 61.0742 93.7653 60.4769 92.976C59.8795 92.1867 59.5809 91.088 59.5809 89.68C59.5809 88.7307 59.7142 87.92 59.9809 87.248C60.2582 86.576 60.6529 86.064 61.1649 85.712C61.6769 85.3493 62.2902 85.168 63.0049 85.168ZM63.5329 86.816C63.1275 86.816 62.7809 86.928 62.4929 87.152C62.2155 87.3653 62.0022 87.6853 61.8529 88.112C61.7142 88.5387 61.6449 89.072 61.6449 89.712C61.6449 90.6507 61.8049 91.36 62.1249 91.84C62.4449 92.32 62.9249 92.56 63.5649 92.56C63.9275 92.56 64.2369 92.5173 64.4929 92.432C64.7489 92.336 64.9569 92.1867 65.1169 91.984C65.2875 91.7707 65.4155 91.504 65.5009 91.184C65.5862 90.8533 65.6289 90.4587 65.6289 90V89.696C65.6289 89.0027 65.5542 88.448 65.4049 88.032C65.2555 87.6053 65.0262 87.296 64.7169 87.104C64.4182 86.912 64.0235 86.816 63.5329 86.816ZM77.8525 89.648C77.8525 90.3733 77.7565 91.0133 77.5645 91.568C77.3725 92.1227 77.0952 92.5973 76.7325 92.992C76.3805 93.376 75.9432 93.6693 75.4205 93.872C74.9085 94.064 74.3378 94.16 73.7085 94.16C73.1112 94.16 72.5618 94.064 72.0605 93.872C71.5592 93.6693 71.1218 93.376 70.7485 92.992C70.3858 92.5973 70.1032 92.1227 69.9005 91.568C69.6978 91.0133 69.5965 90.3733 69.5965 89.648C69.5965 88.688 69.7618 87.8773 70.0925 87.216C70.4232 86.544 70.8978 86.0373 71.5165 85.696C72.1458 85.344 72.8872 85.168 73.7405 85.168C74.5512 85.168 75.2605 85.344 75.8685 85.696C76.4872 86.0373 76.9725 86.544 77.3245 87.216C77.6765 87.8773 77.8525 88.688 77.8525 89.648ZM71.6605 89.648C71.6605 90.256 71.7298 90.7787 71.8685 91.216C72.0178 91.6427 72.2418 91.968 72.5405 92.192C72.8498 92.416 73.2445 92.528 73.7245 92.528C74.2152 92.528 74.6098 92.416 74.9085 92.192C75.2178 91.968 75.4418 91.6427 75.5805 91.216C75.7192 90.7787 75.7885 90.256 75.7885 89.648C75.7885 89.0293 75.7138 88.512 75.5645 88.096C75.4258 87.6693 75.2018 87.3493 74.8925 87.136C74.5938 86.912 74.2045 86.8 73.7245 86.8C72.9992 86.8 72.4712 87.0453 72.1405 87.536C71.8205 88.0267 71.6605 88.7307 71.6605 89.648ZM89.0529 94H87.0369V86.88C87.0369 86.6453 87.0369 86.4053 87.0369 86.16C87.0475 85.9147 87.0582 85.6693 87.0689 85.424C87.0795 85.168 87.0902 84.9333 87.1009 84.72C86.9942 84.8267 86.8609 84.9547 86.7009 85.104C86.5409 85.2427 86.3755 85.3867 86.2049 85.536L84.9249 86.56L83.9169 85.312L87.3729 82.576H89.0529V94ZM100.433 88.272C100.433 89.2 100.364 90.0267 100.225 90.752C100.086 91.4773 99.8571 92.096 99.5371 92.608C99.2278 93.1093 98.8225 93.4933 98.3211 93.76C97.8305 94.0267 97.2278 94.16 96.5131 94.16C95.6171 94.16 94.8811 93.9253 94.3051 93.456C93.7291 92.9867 93.3025 92.3147 93.0251 91.44C92.7478 90.5547 92.6091 89.4987 92.6091 88.272C92.6091 87.0453 92.7371 85.9947 92.9931 85.12C93.2491 84.2453 93.6598 83.5733 94.2251 83.104C94.8011 82.6347 95.5638 82.4 96.5131 82.4C97.4091 82.4 98.1451 82.6347 98.7211 83.104C99.2971 83.5627 99.7238 84.2347 100.001 85.12C100.289 85.9947 100.433 87.0453 100.433 88.272ZM94.6411 88.288C94.6411 89.216 94.6998 89.9947 94.8171 90.624C94.9345 91.2427 95.1265 91.712 95.3931 92.032C95.6705 92.3413 96.0438 92.496 96.5131 92.496C96.9825 92.496 97.3505 92.3413 97.6171 92.032C97.8945 91.7227 98.0918 91.2533 98.2091 90.624C98.3371 89.9947 98.4011 89.216 98.4011 88.288C98.4011 87.3493 98.3371 86.5707 98.2091 85.952C98.0918 85.3227 97.8945 84.8533 97.6171 84.544C97.3505 84.224 96.9825 84.064 96.5131 84.064C96.0438 84.064 95.6705 84.224 95.3931 84.544C95.1265 84.8533 94.9345 85.3173 94.8171 85.936C94.6998 86.5547 94.6411 87.3387 94.6411 88.288ZM109.589 88.272C109.589 89.2 109.52 90.0267 109.381 90.752C109.243 91.4773 109.013 92.096 108.693 92.608C108.384 93.1093 107.979 93.4933 107.477 93.76C106.987 94.0267 106.384 94.16 105.669 94.16C104.773 94.16 104.037 93.9253 103.461 93.456C102.885 92.9867 102.459 92.3147 102.181 91.44C101.904 90.5547 101.765 89.4987 101.765 88.272C101.765 87.0453 101.893 85.9947 102.149 85.12C102.405 84.2453 102.816 83.5733 103.381 83.104C103.957 82.6347 104.72 82.4 105.669 82.4C106.565 82.4 107.301 82.6347 107.877 83.104C108.453 83.5627 108.88 84.2347 109.157 85.12C109.445 85.9947 109.589 87.0453 109.589 88.272ZM103.797 88.288C103.797 89.216 103.856 89.9947 103.973 90.624C104.091 91.2427 104.283 91.712 104.549 92.032C104.827 92.3413 105.2 92.496 105.669 92.496C106.139 92.496 106.507 92.3413 106.773 92.032C107.051 91.7227 107.248 91.2533 107.365 90.624C107.493 89.9947 107.557 89.216 107.557 88.288C107.557 87.3493 107.493 86.5707 107.365 85.952C107.248 85.3227 107.051 84.8533 106.773 84.544C106.507 84.224 106.139 84.064 105.669 84.064C105.2 84.064 104.827 84.224 104.549 84.544C104.283 84.8533 104.091 85.3173 103.973 85.936C103.856 86.5547 103.797 87.3387 103.797 88.288Z" fill="#211A12"/>
<rect width="140" height="56" transform="translate(4 116)" fill="#E0CFF9"/>
<path d="M33.36 150H28.56V148.832L29.936 148.32V140.272L28.56 139.744V138.576H33.36V139.744L31.984 140.272V148.32L33.36 148.832V150ZM39.8579 141.168C40.8285 141.168 41.5859 141.419 42.1299 141.92C42.6845 142.421 42.9619 143.232 42.9619 144.352V150H40.9459V144.752C40.9459 144.101 40.8179 143.616 40.5619 143.296C40.3059 142.965 39.9005 142.8 39.3459 142.8C38.5352 142.8 37.9805 143.056 37.6819 143.568C37.3832 144.069 37.2339 144.8 37.2339 145.76V150H35.2179V141.328H36.7699L37.0579 142.464H37.1699C37.3619 142.165 37.5965 141.92 37.8739 141.728C38.1512 141.536 38.4605 141.397 38.8019 141.312C39.1432 141.216 39.4952 141.168 39.8579 141.168ZM48.3475 150.16C47.3448 150.16 46.5288 149.787 45.8995 149.04C45.2808 148.283 44.9715 147.163 44.9715 145.68C44.9715 144.197 45.2862 143.077 45.9155 142.32C46.5448 141.552 47.3715 141.168 48.3955 141.168C48.8222 141.168 49.1955 141.227 49.5155 141.344C49.8462 141.451 50.1288 141.6 50.3635 141.792C50.5982 141.984 50.7955 142.197 50.9555 142.432H51.0515C51.0195 142.283 50.9875 142.053 50.9555 141.744C50.9235 141.435 50.9075 141.147 50.9075 140.88V137.84H52.9235V150H51.3555L50.9875 148.864H50.9075C50.7475 149.099 50.5502 149.317 50.3155 149.52C50.0808 149.712 49.8035 149.867 49.4835 149.984C49.1635 150.101 48.7848 150.16 48.3475 150.16ZM48.9555 148.528C49.7022 148.528 50.2302 148.315 50.5395 147.888C50.8488 147.461 51.0035 146.816 51.0035 145.952V145.696C51.0035 144.757 50.8542 144.043 50.5555 143.552C50.2675 143.061 49.7235 142.816 48.9235 142.816C48.3155 142.816 47.8462 143.072 47.5155 143.584C47.1848 144.085 47.0195 144.795 47.0195 145.712C47.0195 146.629 47.1848 147.328 47.5155 147.808C47.8462 148.288 48.3262 148.528 48.9555 148.528ZM57.5151 141.328V150H55.4991V141.328H57.5151ZM56.5071 137.984C56.8058 137.984 57.0671 138.064 57.2911 138.224C57.5151 138.373 57.6271 138.645 57.6271 139.04C57.6271 139.424 57.5151 139.701 57.2911 139.872C57.0671 140.032 56.8058 140.112 56.5071 140.112C56.1978 140.112 55.9311 140.032 55.7071 139.872C55.4938 139.701 55.3871 139.424 55.3871 139.04C55.3871 138.645 55.4938 138.373 55.7071 138.224C55.9311 138.064 56.1978 137.984 56.5071 137.984ZM63.0049 141.168C63.5489 141.168 64.0395 141.275 64.4769 141.488C64.9142 141.701 65.2822 142.021 65.5809 142.448H65.6609L65.8529 141.328H67.5329V150.064C67.5329 150.885 67.3782 151.573 67.0689 152.128C66.7595 152.693 66.2955 153.12 65.6769 153.408C65.0582 153.696 64.2849 153.84 63.3569 153.84C62.7382 153.84 62.1675 153.797 61.6449 153.712C61.1222 153.637 60.6262 153.504 60.1569 153.312V151.648C60.4875 151.787 60.8289 151.904 61.1809 152C61.5435 152.107 61.9169 152.187 62.3009 152.24C62.6849 152.293 63.0795 152.32 63.4849 152.32C64.1462 152.32 64.6475 152.133 64.9889 151.76C65.3409 151.387 65.5169 150.853 65.5169 150.16V149.936C65.5169 149.776 65.5222 149.589 65.5329 149.376C65.5542 149.163 65.5702 148.992 65.5809 148.864H65.5169C65.2182 149.312 64.8555 149.643 64.4289 149.856C64.0022 150.059 63.5115 150.16 62.9569 150.16C61.9009 150.16 61.0742 149.765 60.4769 148.976C59.8795 148.187 59.5809 147.088 59.5809 145.68C59.5809 144.731 59.7142 143.92 59.9809 143.248C60.2582 142.576 60.6529 142.064 61.1649 141.712C61.6769 141.349 62.2902 141.168 63.0049 141.168ZM63.5329 142.816C63.1275 142.816 62.7809 142.928 62.4929 143.152C62.2155 143.365 62.0022 143.685 61.8529 144.112C61.7142 144.539 61.6449 145.072 61.6449 145.712C61.6449 146.651 61.8049 147.36 62.1249 147.84C62.4449 148.32 62.9249 148.56 63.5649 148.56C63.9275 148.56 64.2369 148.517 64.4929 148.432C64.7489 148.336 64.9569 148.187 65.1169 147.984C65.2875 147.771 65.4155 147.504 65.5009 147.184C65.5862 146.853 65.6289 146.459 65.6289 146V145.696C65.6289 145.003 65.5542 144.448 65.4049 144.032C65.2555 143.605 65.0262 143.296 64.7169 143.104C64.4182 142.912 64.0235 142.816 63.5329 142.816ZM77.8525 145.648C77.8525 146.373 77.7565 147.013 77.5645 147.568C77.3725 148.123 77.0952 148.597 76.7325 148.992C76.3805 149.376 75.9432 149.669 75.4205 149.872C74.9085 150.064 74.3378 150.16 73.7085 150.16C73.1112 150.16 72.5618 150.064 72.0605 149.872C71.5592 149.669 71.1218 149.376 70.7485 148.992C70.3858 148.597 70.1032 148.123 69.9005 147.568C69.6978 147.013 69.5965 146.373 69.5965 145.648C69.5965 144.688 69.7618 143.877 70.0925 143.216C70.4232 142.544 70.8978 142.037 71.5165 141.696C72.1458 141.344 72.8872 141.168 73.7405 141.168C74.5512 141.168 75.2605 141.344 75.8685 141.696C76.4872 142.037 76.9725 142.544 77.3245 143.216C77.6765 143.877 77.8525 144.688 77.8525 145.648ZM71.6605 145.648C71.6605 146.256 71.7298 146.779 71.8685 147.216C72.0178 147.643 72.2418 147.968 72.5405 148.192C72.8498 148.416 73.2445 148.528 73.7245 148.528C74.2152 148.528 74.6098 148.416 74.9085 148.192C75.2178 147.968 75.4418 147.643 75.5805 147.216C75.7192 146.779 75.7885 146.256 75.7885 145.648C75.7885 145.029 75.7138 144.512 75.5645 144.096C75.4258 143.669 75.2018 143.349 74.8925 143.136C74.5938 142.912 74.2045 142.8 73.7245 142.8C72.9992 142.8 72.4712 143.045 72.1405 143.536C71.8205 144.027 71.6605 144.731 71.6605 145.648ZM91.3089 150H83.4849V148.512L86.3969 145.568C86.9729 144.981 87.4422 144.48 87.8049 144.064C88.1782 143.637 88.4502 143.243 88.6209 142.88C88.8022 142.517 88.8929 142.123 88.8929 141.696C88.8929 141.173 88.7435 140.784 88.4449 140.528C88.1462 140.261 87.7515 140.128 87.2609 140.128C86.7809 140.128 86.3329 140.229 85.9169 140.432C85.5009 140.624 85.0689 140.901 84.6209 141.264L83.5169 139.936C83.8369 139.659 84.1782 139.408 84.5409 139.184C84.9035 138.949 85.3142 138.763 85.7729 138.624C86.2315 138.485 86.7649 138.416 87.3729 138.416C88.1089 138.416 88.7382 138.549 89.2609 138.816C89.7942 139.072 90.2049 139.429 90.4929 139.888C90.7809 140.347 90.9249 140.88 90.9249 141.488C90.9249 141.957 90.8555 142.395 90.7169 142.8C90.5782 143.195 90.3755 143.584 90.1089 143.968C89.8422 144.352 89.5169 144.741 89.1329 145.136C88.7489 145.531 88.3169 145.957 87.8369 146.416L86.0289 148.16V148.256H91.3089V150ZM100.433 144.272C100.433 145.2 100.364 146.027 100.225 146.752C100.086 147.477 99.8571 148.096 99.5371 148.608C99.2278 149.109 98.8225 149.493 98.3211 149.76C97.8305 150.027 97.2278 150.16 96.5131 150.16C95.6171 150.16 94.8811 149.925 94.3051 149.456C93.7291 148.987 93.3025 148.315 93.0251 147.44C92.7478 146.555 92.6091 145.499 92.6091 144.272C92.6091 143.045 92.7371 141.995 92.9931 141.12C93.2491 140.245 93.6598 139.573 94.2251 139.104C94.8011 138.635 95.5638 138.4 96.5131 138.4C97.4091 138.4 98.1451 138.635 98.7211 139.104C99.2971 139.563 99.7238 140.235 100.001 141.12C100.289 141.995 100.433 143.045 100.433 144.272ZM94.6411 144.288C94.6411 145.216 94.6998 145.995 94.8171 146.624C94.9345 147.243 95.1265 147.712 95.3931 148.032C95.6705 148.341 96.0438 148.496 96.5131 148.496C96.9825 148.496 97.3505 148.341 97.6171 148.032C97.8945 147.723 98.0918 147.253 98.2091 146.624C98.3371 145.995 98.4011 145.216 98.4011 144.288C98.4011 143.349 98.3371 142.571 98.2091 141.952C98.0918 141.323 97.8945 140.853 97.6171 140.544C97.3505 140.224 96.9825 140.064 96.5131 140.064C96.0438 140.064 95.6705 140.224 95.3931 140.544C95.1265 140.853 94.9345 141.317 94.8171 141.936C94.6998 142.555 94.6411 143.339 94.6411 144.288ZM109.589 144.272C109.589 145.2 109.52 146.027 109.381 146.752C109.243 147.477 109.013 148.096 108.693 148.608C108.384 149.109 107.979 149.493 107.477 149.76C106.987 150.027 106.384 150.16 105.669 150.16C104.773 150.16 104.037 149.925 103.461 149.456C102.885 148.987 102.459 148.315 102.181 147.44C101.904 146.555 101.765 145.499 101.765 144.272C101.765 143.045 101.893 141.995 102.149 141.12C102.405 140.245 102.816 139.573 103.381 139.104C103.957 138.635 104.72 138.4 105.669 138.4C106.565 138.4 107.301 138.635 107.877 139.104C108.453 139.563 108.88 140.235 109.157 141.12C109.445 141.995 109.589 143.045 109.589 144.272ZM103.797 144.288C103.797 145.216 103.856 145.995 103.973 146.624C104.091 147.243 104.283 147.712 104.549 148.032C104.827 148.341 105.2 148.496 105.669 148.496C106.139 148.496 106.507 148.341 106.773 148.032C107.051 147.723 107.248 147.253 107.365 146.624C107.493 145.995 107.557 145.216 107.557 144.288C107.557 143.349 107.493 142.571 107.365 141.952C107.248 141.323 107.051 140.853 106.773 140.544C106.507 140.224 106.139 140.064 105.669 140.064C105.2 140.064 104.827 140.224 104.549 140.544C104.283 140.853 104.091 141.317 103.973 141.936C103.856 142.555 103.797 143.339 103.797 144.288Z" fill="#211A12"/>
<rect width="140" height="56" transform="translate(4 172)" fill="#BFA2EB"/>
<path d="M33.36 206H28.56V204.832L29.936 204.32V196.272L28.56 195.744V194.576H33.36V195.744L31.984 196.272V204.32L33.36 204.832V206ZM39.8579 197.168C40.8285 197.168 41.5859 197.419 42.1299 197.92C42.6845 198.421 42.9619 199.232 42.9619 200.352V206H40.9459V200.752C40.9459 200.101 40.8179 199.616 40.5619 199.296C40.3059 198.965 39.9005 198.8 39.3459 198.8C38.5352 198.8 37.9805 199.056 37.6819 199.568C37.3832 200.069 37.2339 200.8 37.2339 201.76V206H35.2179V197.328H36.7699L37.0579 198.464H37.1699C37.3619 198.165 37.5965 197.92 37.8739 197.728C38.1512 197.536 38.4605 197.397 38.8019 197.312C39.1432 197.216 39.4952 197.168 39.8579 197.168ZM48.3475 206.16C47.3448 206.16 46.5288 205.787 45.8995 205.04C45.2808 204.283 44.9715 203.163 44.9715 201.68C44.9715 200.197 45.2862 199.077 45.9155 198.32C46.5448 197.552 47.3715 197.168 48.3955 197.168C48.8222 197.168 49.1955 197.227 49.5155 197.344C49.8462 197.451 50.1288 197.6 50.3635 197.792C50.5982 197.984 50.7955 198.197 50.9555 198.432H51.0515C51.0195 198.283 50.9875 198.053 50.9555 197.744C50.9235 197.435 50.9075 197.147 50.9075 196.88V193.84H52.9235V206H51.3555L50.9875 204.864H50.9075C50.7475 205.099 50.5502 205.317 50.3155 205.52C50.0808 205.712 49.8035 205.867 49.4835 205.984C49.1635 206.101 48.7848 206.16 48.3475 206.16ZM48.9555 204.528C49.7022 204.528 50.2302 204.315 50.5395 203.888C50.8488 203.461 51.0035 202.816 51.0035 201.952V201.696C51.0035 200.757 50.8542 200.043 50.5555 199.552C50.2675 199.061 49.7235 198.816 48.9235 198.816C48.3155 198.816 47.8462 199.072 47.5155 199.584C47.1848 200.085 47.0195 200.795 47.0195 201.712C47.0195 202.629 47.1848 203.328 47.5155 203.808C47.8462 204.288 48.3262 204.528 48.9555 204.528ZM57.5151 197.328V206H55.4991V197.328H57.5151ZM56.5071 193.984C56.8058 193.984 57.0671 194.064 57.2911 194.224C57.5151 194.373 57.6271 194.645 57.6271 195.04C57.6271 195.424 57.5151 195.701 57.2911 195.872C57.0671 196.032 56.8058 196.112 56.5071 196.112C56.1978 196.112 55.9311 196.032 55.7071 195.872C55.4938 195.701 55.3871 195.424 55.3871 195.04C55.3871 194.645 55.4938 194.373 55.7071 194.224C55.9311 194.064 56.1978 193.984 56.5071 193.984ZM63.0049 197.168C63.5489 197.168 64.0395 197.275 64.4769 197.488C64.9142 197.701 65.2822 198.021 65.5809 198.448H65.6609L65.8529 197.328H67.5329V206.064C67.5329 206.885 67.3782 207.573 67.0689 208.128C66.7595 208.693 66.2955 209.12 65.6769 209.408C65.0582 209.696 64.2849 209.84 63.3569 209.84C62.7382 209.84 62.1675 209.797 61.6449 209.712C61.1222 209.637 60.6262 209.504 60.1569 209.312V207.648C60.4875 207.787 60.8289 207.904 61.1809 208C61.5435 208.107 61.9169 208.187 62.3009 208.24C62.6849 208.293 63.0795 208.32 63.4849 208.32C64.1462 208.32 64.6475 208.133 64.9889 207.76C65.3409 207.387 65.5169 206.853 65.5169 206.16V205.936C65.5169 205.776 65.5222 205.589 65.5329 205.376C65.5542 205.163 65.5702 204.992 65.5809 204.864H65.5169C65.2182 205.312 64.8555 205.643 64.4289 205.856C64.0022 206.059 63.5115 206.16 62.9569 206.16C61.9009 206.16 61.0742 205.765 60.4769 204.976C59.8795 204.187 59.5809 203.088 59.5809 201.68C59.5809 200.731 59.7142 199.92 59.9809 199.248C60.2582 198.576 60.6529 198.064 61.1649 197.712C61.6769 197.349 62.2902 197.168 63.0049 197.168ZM63.5329 198.816C63.1275 198.816 62.7809 198.928 62.4929 199.152C62.2155 199.365 62.0022 199.685 61.8529 200.112C61.7142 200.539 61.6449 201.072 61.6449 201.712C61.6449 202.651 61.8049 203.36 62.1249 203.84C62.4449 204.32 62.9249 204.56 63.5649 204.56C63.9275 204.56 64.2369 204.517 64.4929 204.432C64.7489 204.336 64.9569 204.187 65.1169 203.984C65.2875 203.771 65.4155 203.504 65.5009 203.184C65.5862 202.853 65.6289 202.459 65.6289 202V201.696C65.6289 201.003 65.5542 200.448 65.4049 200.032C65.2555 199.605 65.0262 199.296 64.7169 199.104C64.4182 198.912 64.0235 198.816 63.5329 198.816ZM77.8525 201.648C77.8525 202.373 77.7565 203.013 77.5645 203.568C77.3725 204.123 77.0952 204.597 76.7325 204.992C76.3805 205.376 75.9432 205.669 75.4205 205.872C74.9085 206.064 74.3378 206.16 73.7085 206.16C73.1112 206.16 72.5618 206.064 72.0605 205.872C71.5592 205.669 71.1218 205.376 70.7485 204.992C70.3858 204.597 70.1032 204.123 69.9005 203.568C69.6978 203.013 69.5965 202.373 69.5965 201.648C69.5965 200.688 69.7618 199.877 70.0925 199.216C70.4232 198.544 70.8978 198.037 71.5165 197.696C72.1458 197.344 72.8872 197.168 73.7405 197.168C74.5512 197.168 75.2605 197.344 75.8685 197.696C76.4872 198.037 76.9725 198.544 77.3245 199.216C77.6765 199.877 77.8525 200.688 77.8525 201.648ZM71.6605 201.648C71.6605 202.256 71.7298 202.779 71.8685 203.216C72.0178 203.643 72.2418 203.968 72.5405 204.192C72.8498 204.416 73.2445 204.528 73.7245 204.528C74.2152 204.528 74.6098 204.416 74.9085 204.192C75.2178 203.968 75.4418 203.643 75.5805 203.216C75.7192 202.779 75.7885 202.256 75.7885 201.648C75.7885 201.029 75.7138 200.512 75.5645 200.096C75.4258 199.669 75.2018 199.349 74.8925 199.136C74.5938 198.912 74.2045 198.8 73.7245 198.8C72.9992 198.8 72.4712 199.045 72.1405 199.536C71.8205 200.027 71.6605 200.731 71.6605 201.648ZM90.8609 197.184C90.8609 197.696 90.7542 198.144 90.5409 198.528C90.3382 198.912 90.0555 199.227 89.6929 199.472C89.3302 199.707 88.9089 199.877 88.4289 199.984V200.032C89.3462 200.139 90.0395 200.421 90.5089 200.88C90.9782 201.339 91.2129 201.947 91.2129 202.704C91.2129 203.365 91.0529 203.957 90.7329 204.48C90.4129 205.003 89.9169 205.413 89.2449 205.712C88.5835 206.011 87.7302 206.16 86.6849 206.16C86.0662 206.16 85.4902 206.107 84.9569 206C84.4235 205.904 83.9222 205.749 83.4529 205.536V203.76C83.9329 204.005 84.4449 204.192 84.9889 204.32C85.5329 204.448 86.0449 204.512 86.5249 204.512C87.4529 204.512 88.1089 204.347 88.4929 204.016C88.8769 203.675 89.0689 203.205 89.0689 202.608C89.0689 202.224 88.9729 201.909 88.7809 201.664C88.5889 201.419 88.2742 201.237 87.8369 201.12C87.4102 200.992 86.8502 200.928 86.1569 200.928H85.1969V199.312H86.1729C86.8449 199.312 87.3729 199.237 87.7569 199.088C88.1515 198.939 88.4289 198.731 88.5889 198.464C88.7595 198.197 88.8449 197.888 88.8449 197.536C88.8449 197.077 88.6955 196.72 88.3969 196.464C88.0982 196.208 87.6502 196.08 87.0529 196.08C86.6689 196.08 86.3222 196.123 86.0129 196.208C85.7035 196.293 85.4209 196.405 85.1649 196.544C84.9089 196.672 84.6689 196.811 84.4449 196.96L83.4849 195.568C83.7729 195.355 84.0982 195.163 84.4609 194.992C84.8235 194.811 85.2289 194.672 85.6769 194.576C86.1249 194.469 86.6155 194.416 87.1489 194.416C88.3329 194.416 89.2449 194.667 89.8849 195.168C90.5355 195.659 90.8609 196.331 90.8609 197.184ZM100.433 200.272C100.433 201.2 100.364 202.027 100.225 202.752C100.086 203.477 99.8571 204.096 99.5371 204.608C99.2278 205.109 98.8225 205.493 98.3211 205.76C97.8305 206.027 97.2278 206.16 96.5131 206.16C95.6171 206.16 94.8811 205.925 94.3051 205.456C93.7291 204.987 93.3025 204.315 93.0251 203.44C92.7478 202.555 92.6091 201.499 92.6091 200.272C92.6091 199.045 92.7371 197.995 92.9931 197.12C93.2491 196.245 93.6598 195.573 94.2251 195.104C94.8011 194.635 95.5638 194.4 96.5131 194.4C97.4091 194.4 98.1451 194.635 98.7211 195.104C99.2971 195.563 99.7238 196.235 100.001 197.12C100.289 197.995 100.433 199.045 100.433 200.272ZM94.6411 200.288C94.6411 201.216 94.6998 201.995 94.8171 202.624C94.9345 203.243 95.1265 203.712 95.3931 204.032C95.6705 204.341 96.0438 204.496 96.5131 204.496C96.9825 204.496 97.3505 204.341 97.6171 204.032C97.8945 203.723 98.0918 203.253 98.2091 202.624C98.3371 201.995 98.4011 201.216 98.4011 200.288C98.4011 199.349 98.3371 198.571 98.2091 197.952C98.0918 197.323 97.8945 196.853 97.6171 196.544C97.3505 196.224 96.9825 196.064 96.5131 196.064C96.0438 196.064 95.6705 196.224 95.3931 196.544C95.1265 196.853 94.9345 197.317 94.8171 197.936C94.6998 198.555 94.6411 199.339 94.6411 200.288ZM109.589 200.272C109.589 201.2 109.52 202.027 109.381 202.752C109.243 203.477 109.013 204.096 108.693 204.608C108.384 205.109 107.979 205.493 107.477 205.76C106.987 206.027 106.384 206.16 105.669 206.16C104.773 206.16 104.037 205.925 103.461 205.456C102.885 204.987 102.459 204.315 102.181 203.44C101.904 202.555 101.765 201.499 101.765 200.272C101.765 199.045 101.893 197.995 102.149 197.12C102.405 196.245 102.816 195.573 103.381 195.104C103.957 194.635 104.72 194.4 105.669 194.4C106.565 194.4 107.301 194.635 107.877 195.104C108.453 195.563 108.88 196.235 109.157 197.12C109.445 197.995 109.589 199.045 109.589 200.272ZM103.797 200.288C103.797 201.216 103.856 201.995 103.973 202.624C104.091 203.243 104.283 203.712 104.549 204.032C104.827 204.341 105.2 204.496 105.669 204.496C106.139 204.496 106.507 204.341 106.773 204.032C107.051 203.723 107.248 203.253 107.365 202.624C107.493 201.995 107.557 201.216 107.557 200.288C107.557 199.349 107.493 198.571 107.365 197.952C107.248 197.323 107.051 196.853 106.773 196.544C106.507 196.224 106.139 196.064 105.669 196.064C105.2 196.064 104.827 196.224 104.549 196.544C104.283 196.853 104.091 197.317 103.973 197.936C103.856 198.555 103.797 199.339 103.797 200.288Z" fill="#211A12"/>
<rect width="140" height="56" transform="translate(4 228)" fill="#946BD2"/>
<path d="M33.36 262H28.56V260.832L29.936 260.32V252.272L28.56 251.744V250.576H33.36V251.744L31.984 252.272V260.32L33.36 260.832V262ZM39.8579 253.168C40.8285 253.168 41.5859 253.419 42.1299 253.92C42.6845 254.421 42.9619 255.232 42.9619 256.352V262H40.9459V256.752C40.9459 256.101 40.8179 255.616 40.5619 255.296C40.3059 254.965 39.9005 254.8 39.3459 254.8C38.5352 254.8 37.9805 255.056 37.6819 255.568C37.3832 256.069 37.2339 256.8 37.2339 257.76V262H35.2179V253.328H36.7699L37.0579 254.464H37.1699C37.3619 254.165 37.5965 253.92 37.8739 253.728C38.1512 253.536 38.4605 253.397 38.8019 253.312C39.1432 253.216 39.4952 253.168 39.8579 253.168ZM48.3475 262.16C47.3448 262.16 46.5288 261.787 45.8995 261.04C45.2808 260.283 44.9715 259.163 44.9715 257.68C44.9715 256.197 45.2862 255.077 45.9155 254.32C46.5448 253.552 47.3715 253.168 48.3955 253.168C48.8222 253.168 49.1955 253.227 49.5155 253.344C49.8462 253.451 50.1288 253.6 50.3635 253.792C50.5982 253.984 50.7955 254.197 50.9555 254.432H51.0515C51.0195 254.283 50.9875 254.053 50.9555 253.744C50.9235 253.435 50.9075 253.147 50.9075 252.88V249.84H52.9235V262H51.3555L50.9875 260.864H50.9075C50.7475 261.099 50.5502 261.317 50.3155 261.52C50.0808 261.712 49.8035 261.867 49.4835 261.984C49.1635 262.101 48.7848 262.16 48.3475 262.16ZM48.9555 260.528C49.7022 260.528 50.2302 260.315 50.5395 259.888C50.8488 259.461 51.0035 258.816 51.0035 257.952V257.696C51.0035 256.757 50.8542 256.043 50.5555 255.552C50.2675 255.061 49.7235 254.816 48.9235 254.816C48.3155 254.816 47.8462 255.072 47.5155 255.584C47.1848 256.085 47.0195 256.795 47.0195 257.712C47.0195 258.629 47.1848 259.328 47.5155 259.808C47.8462 260.288 48.3262 260.528 48.9555 260.528ZM57.5151 253.328V262H55.4991V253.328H57.5151ZM56.5071 249.984C56.8058 249.984 57.0671 250.064 57.2911 250.224C57.5151 250.373 57.6271 250.645 57.6271 251.04C57.6271 251.424 57.5151 251.701 57.2911 251.872C57.0671 252.032 56.8058 252.112 56.5071 252.112C56.1978 252.112 55.9311 252.032 55.7071 251.872C55.4938 251.701 55.3871 251.424 55.3871 251.04C55.3871 250.645 55.4938 250.373 55.7071 250.224C55.9311 250.064 56.1978 249.984 56.5071 249.984ZM63.0049 253.168C63.5489 253.168 64.0395 253.275 64.4769 253.488C64.9142 253.701 65.2822 254.021 65.5809 254.448H65.6609L65.8529 253.328H67.5329V262.064C67.5329 262.885 67.3782 263.573 67.0689 264.128C66.7595 264.693 66.2955 265.12 65.6769 265.408C65.0582 265.696 64.2849 265.84 63.3569 265.84C62.7382 265.84 62.1675 265.797 61.6449 265.712C61.1222 265.637 60.6262 265.504 60.1569 265.312V263.648C60.4875 263.787 60.8289 263.904 61.1809 264C61.5435 264.107 61.9169 264.187 62.3009 264.24C62.6849 264.293 63.0795 264.32 63.4849 264.32C64.1462 264.32 64.6475 264.133 64.9889 263.76C65.3409 263.387 65.5169 262.853 65.5169 262.16V261.936C65.5169 261.776 65.5222 261.589 65.5329 261.376C65.5542 261.163 65.5702 260.992 65.5809 260.864H65.5169C65.2182 261.312 64.8555 261.643 64.4289 261.856C64.0022 262.059 63.5115 262.16 62.9569 262.16C61.9009 262.16 61.0742 261.765 60.4769 260.976C59.8795 260.187 59.5809 259.088 59.5809 257.68C59.5809 256.731 59.7142 255.92 59.9809 255.248C60.2582 254.576 60.6529 254.064 61.1649 253.712C61.6769 253.349 62.2902 253.168 63.0049 253.168ZM63.5329 254.816C63.1275 254.816 62.7809 254.928 62.4929 255.152C62.2155 255.365 62.0022 255.685 61.8529 256.112C61.7142 256.539 61.6449 257.072 61.6449 257.712C61.6449 258.651 61.8049 259.36 62.1249 259.84C62.4449 260.32 62.9249 260.56 63.5649 260.56C63.9275 260.56 64.2369 260.517 64.4929 260.432C64.7489 260.336 64.9569 260.187 65.1169 259.984C65.2875 259.771 65.4155 259.504 65.5009 259.184C65.5862 258.853 65.6289 258.459 65.6289 258V257.696C65.6289 257.003 65.5542 256.448 65.4049 256.032C65.2555 255.605 65.0262 255.296 64.7169 255.104C64.4182 254.912 64.0235 254.816 63.5329 254.816ZM77.8525 257.648C77.8525 258.373 77.7565 259.013 77.5645 259.568C77.3725 260.123 77.0952 260.597 76.7325 260.992C76.3805 261.376 75.9432 261.669 75.4205 261.872C74.9085 262.064 74.3378 262.16 73.7085 262.16C73.1112 262.16 72.5618 262.064 72.0605 261.872C71.5592 261.669 71.1218 261.376 70.7485 260.992C70.3858 260.597 70.1032 260.123 69.9005 259.568C69.6978 259.013 69.5965 258.373 69.5965 257.648C69.5965 256.688 69.7618 255.877 70.0925 255.216C70.4232 254.544 70.8978 254.037 71.5165 253.696C72.1458 253.344 72.8872 253.168 73.7405 253.168C74.5512 253.168 75.2605 253.344 75.8685 253.696C76.4872 254.037 76.9725 254.544 77.3245 255.216C77.6765 255.877 77.8525 256.688 77.8525 257.648ZM71.6605 257.648C71.6605 258.256 71.7298 258.779 71.8685 259.216C72.0178 259.643 72.2418 259.968 72.5405 260.192C72.8498 260.416 73.2445 260.528 73.7245 260.528C74.2152 260.528 74.6098 260.416 74.9085 260.192C75.2178 259.968 75.4418 259.643 75.5805 259.216C75.7192 258.779 75.7885 258.256 75.7885 257.648C75.7885 257.029 75.7138 256.512 75.5645 256.096C75.4258 255.669 75.2018 255.349 74.8925 255.136C74.5938 254.912 74.2045 254.8 73.7245 254.8C72.9992 254.8 72.4712 255.045 72.1405 255.536C71.8205 256.027 71.6605 256.731 71.6605 257.648ZM91.6609 259.552H90.1729V262H88.1889V259.552H83.1009V258.048L88.2369 250.544H90.1729V257.904H91.6609V259.552ZM88.1889 255.344C88.1889 255.12 88.1889 254.891 88.1889 254.656C88.1995 254.411 88.2102 254.171 88.2209 253.936C88.2315 253.701 88.2422 253.488 88.2529 253.296C88.2635 253.104 88.2742 252.955 88.2849 252.848H88.2209C88.1249 253.051 88.0182 253.264 87.9009 253.488C87.7942 253.701 87.6715 253.904 87.5329 254.096L84.9409 257.904H88.1889V255.344ZM100.433 256.272C100.433 257.2 100.364 258.027 100.225 258.752C100.086 259.477 99.8571 260.096 99.5371 260.608C99.2278 261.109 98.8225 261.493 98.3211 261.76C97.8305 262.027 97.2278 262.16 96.5131 262.16C95.6171 262.16 94.8811 261.925 94.3051 261.456C93.7291 260.987 93.3025 260.315 93.0251 259.44C92.7478 258.555 92.6091 257.499 92.6091 256.272C92.6091 255.045 92.7371 253.995 92.9931 253.12C93.2491 252.245 93.6598 251.573 94.2251 251.104C94.8011 250.635 95.5638 250.4 96.5131 250.4C97.4091 250.4 98.1451 250.635 98.7211 251.104C99.2971 251.563 99.7238 252.235 100.001 253.12C100.289 253.995 100.433 255.045 100.433 256.272ZM94.6411 256.288C94.6411 257.216 94.6998 257.995 94.8171 258.624C94.9345 259.243 95.1265 259.712 95.3931 260.032C95.6705 260.341 96.0438 260.496 96.5131 260.496C96.9825 260.496 97.3505 260.341 97.6171 260.032C97.8945 259.723 98.0918 259.253 98.2091 258.624C98.3371 257.995 98.4011 257.216 98.4011 256.288C98.4011 255.349 98.3371 254.571 98.2091 253.952C98.0918 253.323 97.8945 252.853 97.6171 252.544C97.3505 252.224 96.9825 252.064 96.5131 252.064C96.0438 252.064 95.6705 252.224 95.3931 252.544C95.1265 252.853 94.9345 253.317 94.8171 253.936C94.6998 254.555 94.6411 255.339 94.6411 256.288ZM109.589 256.272C109.589 257.2 109.52 258.027 109.381 258.752C109.243 259.477 109.013 260.096 108.693 260.608C108.384 261.109 107.979 261.493 107.477 261.76C106.987 262.027 106.384 262.16 105.669 262.16C104.773 262.16 104.037 261.925 103.461 261.456C102.885 260.987 102.459 260.315 102.181 259.44C101.904 258.555 101.765 257.499 101.765 256.272C101.765 255.045 101.893 253.995 102.149 253.12C102.405 252.245 102.816 251.573 103.381 251.104C103.957 250.635 104.72 250.4 105.669 250.4C106.565 250.4 107.301 250.635 107.877 251.104C108.453 251.563 108.88 252.235 109.157 253.12C109.445 253.995 109.589 255.045 109.589 256.272ZM103.797 256.288C103.797 257.216 103.856 257.995 103.973 258.624C104.091 259.243 104.283 259.712 104.549 260.032C104.827 260.341 105.2 260.496 105.669 260.496C106.139 260.496 106.507 260.341 106.773 260.032C107.051 259.723 107.248 259.253 107.365 258.624C107.493 257.995 107.557 257.216 107.557 256.288C107.557 255.349 107.493 254.571 107.365 253.952C107.248 253.323 107.051 252.853 106.773 252.544C106.507 252.224 106.139 252.064 105.669 252.064C105.2 252.064 104.827 252.224 104.549 252.544C104.283 252.853 104.091 253.317 103.973 253.936C103.856 254.555 103.797 255.339 103.797 256.288Z" fill="#FEFCF7"/>
<rect width="140" height="56" transform="translate(4 284)" fill="#420A98"/>
<path d="M33.36 318H28.56V316.832L29.936 316.32V308.272L28.56 307.744V306.576H33.36V307.744L31.984 308.272V316.32L33.36 316.832V318ZM39.8579 309.168C40.8285 309.168 41.5859 309.419 42.1299 309.92C42.6845 310.421 42.9619 311.232 42.9619 312.352V318H40.9459V312.752C40.9459 312.101 40.8179 311.616 40.5619 311.296C40.3059 310.965 39.9005 310.8 39.3459 310.8C38.5352 310.8 37.9805 311.056 37.6819 311.568C37.3832 312.069 37.2339 312.8 37.2339 313.76V318H35.2179V309.328H36.7699L37.0579 310.464H37.1699C37.3619 310.165 37.5965 309.92 37.8739 309.728C38.1512 309.536 38.4605 309.397 38.8019 309.312C39.1432 309.216 39.4952 309.168 39.8579 309.168ZM48.3475 318.16C47.3448 318.16 46.5288 317.787 45.8995 317.04C45.2808 316.283 44.9715 315.163 44.9715 313.68C44.9715 312.197 45.2862 311.077 45.9155 310.32C46.5448 309.552 47.3715 309.168 48.3955 309.168C48.8222 309.168 49.1955 309.227 49.5155 309.344C49.8462 309.451 50.1288 309.6 50.3635 309.792C50.5982 309.984 50.7955 310.197 50.9555 310.432H51.0515C51.0195 310.283 50.9875 310.053 50.9555 309.744C50.9235 309.435 50.9075 309.147 50.9075 308.88V305.84H52.9235V318H51.3555L50.9875 316.864H50.9075C50.7475 317.099 50.5502 317.317 50.3155 317.52C50.0808 317.712 49.8035 317.867 49.4835 317.984C49.1635 318.101 48.7848 318.16 48.3475 318.16ZM48.9555 316.528C49.7022 316.528 50.2302 316.315 50.5395 315.888C50.8488 315.461 51.0035 314.816 51.0035 313.952V313.696C51.0035 312.757 50.8542 312.043 50.5555 311.552C50.2675 311.061 49.7235 310.816 48.9235 310.816C48.3155 310.816 47.8462 311.072 47.5155 311.584C47.1848 312.085 47.0195 312.795 47.0195 313.712C47.0195 314.629 47.1848 315.328 47.5155 315.808C47.8462 316.288 48.3262 316.528 48.9555 316.528ZM57.5151 309.328V318H55.4991V309.328H57.5151ZM56.5071 305.984C56.8058 305.984 57.0671 306.064 57.2911 306.224C57.5151 306.373 57.6271 306.645 57.6271 307.04C57.6271 307.424 57.5151 307.701 57.2911 307.872C57.0671 308.032 56.8058 308.112 56.5071 308.112C56.1978 308.112 55.9311 308.032 55.7071 307.872C55.4938 307.701 55.3871 307.424 55.3871 307.04C55.3871 306.645 55.4938 306.373 55.7071 306.224C55.9311 306.064 56.1978 305.984 56.5071 305.984ZM63.0049 309.168C63.5489 309.168 64.0395 309.275 64.4769 309.488C64.9142 309.701 65.2822 310.021 65.5809 310.448H65.6609L65.8529 309.328H67.5329V318.064C67.5329 318.885 67.3782 319.573 67.0689 320.128C66.7595 320.693 66.2955 321.12 65.6769 321.408C65.0582 321.696 64.2849 321.84 63.3569 321.84C62.7382 321.84 62.1675 321.797 61.6449 321.712C61.1222 321.637 60.6262 321.504 60.1569 321.312V319.648C60.4875 319.787 60.8289 319.904 61.1809 320C61.5435 320.107 61.9169 320.187 62.3009 320.24C62.6849 320.293 63.0795 320.32 63.4849 320.32C64.1462 320.32 64.6475 320.133 64.9889 319.76C65.3409 319.387 65.5169 318.853 65.5169 318.16V317.936C65.5169 317.776 65.5222 317.589 65.5329 317.376C65.5542 317.163 65.5702 316.992 65.5809 316.864H65.5169C65.2182 317.312 64.8555 317.643 64.4289 317.856C64.0022 318.059 63.5115 318.16 62.9569 318.16C61.9009 318.16 61.0742 317.765 60.4769 316.976C59.8795 316.187 59.5809 315.088 59.5809 313.68C59.5809 312.731 59.7142 311.92 59.9809 311.248C60.2582 310.576 60.6529 310.064 61.1649 309.712C61.6769 309.349 62.2902 309.168 63.0049 309.168ZM63.5329 310.816C63.1275 310.816 62.7809 310.928 62.4929 311.152C62.2155 311.365 62.0022 311.685 61.8529 312.112C61.7142 312.539 61.6449 313.072 61.6449 313.712C61.6449 314.651 61.8049 315.36 62.1249 315.84C62.4449 316.32 62.9249 316.56 63.5649 316.56C63.9275 316.56 64.2369 316.517 64.4929 316.432C64.7489 316.336 64.9569 316.187 65.1169 315.984C65.2875 315.771 65.4155 315.504 65.5009 315.184C65.5862 314.853 65.6289 314.459 65.6289 314V313.696C65.6289 313.003 65.5542 312.448 65.4049 312.032C65.2555 311.605 65.0262 311.296 64.7169 311.104C64.4182 310.912 64.0235 310.816 63.5329 310.816ZM77.8525 313.648C77.8525 314.373 77.7565 315.013 77.5645 315.568C77.3725 316.123 77.0952 316.597 76.7325 316.992C76.3805 317.376 75.9432 317.669 75.4205 317.872C74.9085 318.064 74.3378 318.16 73.7085 318.16C73.1112 318.16 72.5618 318.064 72.0605 317.872C71.5592 317.669 71.1218 317.376 70.7485 316.992C70.3858 316.597 70.1032 316.123 69.9005 315.568C69.6978 315.013 69.5965 314.373 69.5965 313.648C69.5965 312.688 69.7618 311.877 70.0925 311.216C70.4232 310.544 70.8978 310.037 71.5165 309.696C72.1458 309.344 72.8872 309.168 73.7405 309.168C74.5512 309.168 75.2605 309.344 75.8685 309.696C76.4872 310.037 76.9725 310.544 77.3245 311.216C77.6765 311.877 77.8525 312.688 77.8525 313.648ZM71.6605 313.648C71.6605 314.256 71.7298 314.779 71.8685 315.216C72.0178 315.643 72.2418 315.968 72.5405 316.192C72.8498 316.416 73.2445 316.528 73.7245 316.528C74.2152 316.528 74.6098 316.416 74.9085 316.192C75.2178 315.968 75.4418 315.643 75.5805 315.216C75.7192 314.779 75.7885 314.256 75.7885 313.648C75.7885 313.029 75.7138 312.512 75.5645 312.096C75.4258 311.669 75.2018 311.349 74.8925 311.136C74.5938 310.912 74.2045 310.8 73.7245 310.8C72.9992 310.8 72.4712 311.045 72.1405 311.536C71.8205 312.027 71.6605 312.731 71.6605 313.648ZM87.4529 310.816C88.1782 310.816 88.8182 310.949 89.3729 311.216C89.9275 311.483 90.3595 311.872 90.6689 312.384C90.9889 312.885 91.1489 313.504 91.1489 314.24C91.1489 315.051 90.9782 315.749 90.6369 316.336C90.2955 316.923 89.7942 317.376 89.1329 317.696C88.4715 318.005 87.6609 318.16 86.7009 318.16C86.1035 318.16 85.5435 318.107 85.0209 318C84.4982 317.893 84.0449 317.739 83.6609 317.536V315.744C84.0555 315.957 84.5302 316.133 85.0849 316.272C85.6395 316.411 86.1622 316.48 86.6529 316.48C87.1649 316.48 87.6022 316.411 87.9649 316.272C88.3275 316.123 88.6049 315.899 88.7969 315.6C88.9889 315.291 89.0849 314.901 89.0849 314.432C89.0849 313.792 88.8822 313.307 88.4769 312.976C88.0715 312.645 87.4422 312.48 86.5889 312.48C86.2902 312.48 85.9649 312.507 85.6129 312.56C85.2715 312.613 84.9889 312.667 84.7649 312.72L83.9009 312.24L84.3329 306.576H90.3489V308.336H86.1089L85.8689 310.976C86.0502 310.944 86.2635 310.912 86.5089 310.88C86.7649 310.837 87.0795 310.816 87.4529 310.816ZM100.433 312.272C100.433 313.2 100.364 314.027 100.225 314.752C100.086 315.477 99.8571 316.096 99.5371 316.608C99.2278 317.109 98.8225 317.493 98.3211 317.76C97.8305 318.027 97.2278 318.16 96.5131 318.16C95.6171 318.16 94.8811 317.925 94.3051 317.456C93.7291 316.987 93.3025 316.315 93.0251 315.44C92.7478 314.555 92.6091 313.499 92.6091 312.272C92.6091 311.045 92.7371 309.995 92.9931 309.12C93.2491 308.245 93.6598 307.573 94.2251 307.104C94.8011 306.635 95.5638 306.4 96.5131 306.4C97.4091 306.4 98.1451 306.635 98.7211 307.104C99.2971 307.563 99.7238 308.235 100.001 309.12C100.289 309.995 100.433 311.045 100.433 312.272ZM94.6411 312.288C94.6411 313.216 94.6998 313.995 94.8171 314.624C94.9345 315.243 95.1265 315.712 95.3931 316.032C95.6705 316.341 96.0438 316.496 96.5131 316.496C96.9825 316.496 97.3505 316.341 97.6171 316.032C97.8945 315.723 98.0918 315.253 98.2091 314.624C98.3371 313.995 98.4011 313.216 98.4011 312.288C98.4011 311.349 98.3371 310.571 98.2091 309.952C98.0918 309.323 97.8945 308.853 97.6171 308.544C97.3505 308.224 96.9825 308.064 96.5131 308.064C96.0438 308.064 95.6705 308.224 95.3931 308.544C95.1265 308.853 94.9345 309.317 94.8171 309.936C94.6998 310.555 94.6411 311.339 94.6411 312.288ZM109.589 312.272C109.589 313.2 109.52 314.027 109.381 314.752C109.243 315.477 109.013 316.096 108.693 316.608C108.384 317.109 107.979 317.493 107.477 317.76C106.987 318.027 106.384 318.16 105.669 318.16C104.773 318.16 104.037 317.925 103.461 317.456C102.885 316.987 102.459 316.315 102.181 315.44C101.904 314.555 101.765 313.499 101.765 312.272C101.765 311.045 101.893 309.995 102.149 309.12C102.405 308.245 102.816 307.573 103.381 307.104C103.957 306.635 104.72 306.4 105.669 306.4C106.565 306.4 107.301 306.635 107.877 307.104C108.453 307.563 108.88 308.235 109.157 309.12C109.445 309.995 109.589 311.045 109.589 312.272ZM103.797 312.288C103.797 313.216 103.856 313.995 103.973 314.624C104.091 315.243 104.283 315.712 104.549 316.032C104.827 316.341 105.2 316.496 105.669 316.496C106.139 316.496 106.507 316.341 106.773 316.032C107.051 315.723 107.248 315.253 107.365 314.624C107.493 313.995 107.557 313.216 107.557 312.288C107.557 311.349 107.493 310.571 107.365 309.952C107.248 309.323 107.051 308.853 106.773 308.544C106.507 308.224 106.139 308.064 105.669 308.064C105.2 308.064 104.827 308.224 104.549 308.544C104.283 308.853 104.091 309.317 103.973 309.936C103.856 310.555 103.797 311.339 103.797 312.288Z" fill="#FEFCF7"/>
<rect width="140" height="56" transform="translate(4 340)" fill="#390687"/>
<path d="M33.36 374H28.56V372.832L29.936 372.32V364.272L28.56 363.744V362.576H33.36V363.744L31.984 364.272V372.32L33.36 372.832V374ZM39.8579 365.168C40.8285 365.168 41.5859 365.419 42.1299 365.92C42.6845 366.421 42.9619 367.232 42.9619 368.352V374H40.9459V368.752C40.9459 368.101 40.8179 367.616 40.5619 367.296C40.3059 366.965 39.9005 366.8 39.3459 366.8C38.5352 366.8 37.9805 367.056 37.6819 367.568C37.3832 368.069 37.2339 368.8 37.2339 369.76V374H35.2179V365.328H36.7699L37.0579 366.464H37.1699C37.3619 366.165 37.5965 365.92 37.8739 365.728C38.1512 365.536 38.4605 365.397 38.8019 365.312C39.1432 365.216 39.4952 365.168 39.8579 365.168ZM48.3475 374.16C47.3448 374.16 46.5288 373.787 45.8995 373.04C45.2808 372.283 44.9715 371.163 44.9715 369.68C44.9715 368.197 45.2862 367.077 45.9155 366.32C46.5448 365.552 47.3715 365.168 48.3955 365.168C48.8222 365.168 49.1955 365.227 49.5155 365.344C49.8462 365.451 50.1288 365.6 50.3635 365.792C50.5982 365.984 50.7955 366.197 50.9555 366.432H51.0515C51.0195 366.283 50.9875 366.053 50.9555 365.744C50.9235 365.435 50.9075 365.147 50.9075 364.88V361.84H52.9235V374H51.3555L50.9875 372.864H50.9075C50.7475 373.099 50.5502 373.317 50.3155 373.52C50.0808 373.712 49.8035 373.867 49.4835 373.984C49.1635 374.101 48.7848 374.16 48.3475 374.16ZM48.9555 372.528C49.7022 372.528 50.2302 372.315 50.5395 371.888C50.8488 371.461 51.0035 370.816 51.0035 369.952V369.696C51.0035 368.757 50.8542 368.043 50.5555 367.552C50.2675 367.061 49.7235 366.816 48.9235 366.816C48.3155 366.816 47.8462 367.072 47.5155 367.584C47.1848 368.085 47.0195 368.795 47.0195 369.712C47.0195 370.629 47.1848 371.328 47.5155 371.808C47.8462 372.288 48.3262 372.528 48.9555 372.528ZM57.5151 365.328V374H55.4991V365.328H57.5151ZM56.5071 361.984C56.8058 361.984 57.0671 362.064 57.2911 362.224C57.5151 362.373 57.6271 362.645 57.6271 363.04C57.6271 363.424 57.5151 363.701 57.2911 363.872C57.0671 364.032 56.8058 364.112 56.5071 364.112C56.1978 364.112 55.9311 364.032 55.7071 363.872C55.4938 363.701 55.3871 363.424 55.3871 363.04C55.3871 362.645 55.4938 362.373 55.7071 362.224C55.9311 362.064 56.1978 361.984 56.5071 361.984ZM63.0049 365.168C63.5489 365.168 64.0395 365.275 64.4769 365.488C64.9142 365.701 65.2822 366.021 65.5809 366.448H65.6609L65.8529 365.328H67.5329V374.064C67.5329 374.885 67.3782 375.573 67.0689 376.128C66.7595 376.693 66.2955 377.12 65.6769 377.408C65.0582 377.696 64.2849 377.84 63.3569 377.84C62.7382 377.84 62.1675 377.797 61.6449 377.712C61.1222 377.637 60.6262 377.504 60.1569 377.312V375.648C60.4875 375.787 60.8289 375.904 61.1809 376C61.5435 376.107 61.9169 376.187 62.3009 376.24C62.6849 376.293 63.0795 376.32 63.4849 376.32C64.1462 376.32 64.6475 376.133 64.9889 375.76C65.3409 375.387 65.5169 374.853 65.5169 374.16V373.936C65.5169 373.776 65.5222 373.589 65.5329 373.376C65.5542 373.163 65.5702 372.992 65.5809 372.864H65.5169C65.2182 373.312 64.8555 373.643 64.4289 373.856C64.0022 374.059 63.5115 374.16 62.9569 374.16C61.9009 374.16 61.0742 373.765 60.4769 372.976C59.8795 372.187 59.5809 371.088 59.5809 369.68C59.5809 368.731 59.7142 367.92 59.9809 367.248C60.2582 366.576 60.6529 366.064 61.1649 365.712C61.6769 365.349 62.2902 365.168 63.0049 365.168ZM63.5329 366.816C63.1275 366.816 62.7809 366.928 62.4929 367.152C62.2155 367.365 62.0022 367.685 61.8529 368.112C61.7142 368.539 61.6449 369.072 61.6449 369.712C61.6449 370.651 61.8049 371.36 62.1249 371.84C62.4449 372.32 62.9249 372.56 63.5649 372.56C63.9275 372.56 64.2369 372.517 64.4929 372.432C64.7489 372.336 64.9569 372.187 65.1169 371.984C65.2875 371.771 65.4155 371.504 65.5009 371.184C65.5862 370.853 65.6289 370.459 65.6289 370V369.696C65.6289 369.003 65.5542 368.448 65.4049 368.032C65.2555 367.605 65.0262 367.296 64.7169 367.104C64.4182 366.912 64.0235 366.816 63.5329 366.816ZM77.8525 369.648C77.8525 370.373 77.7565 371.013 77.5645 371.568C77.3725 372.123 77.0952 372.597 76.7325 372.992C76.3805 373.376 75.9432 373.669 75.4205 373.872C74.9085 374.064 74.3378 374.16 73.7085 374.16C73.1112 374.16 72.5618 374.064 72.0605 373.872C71.5592 373.669 71.1218 373.376 70.7485 372.992C70.3858 372.597 70.1032 372.123 69.9005 371.568C69.6978 371.013 69.5965 370.373 69.5965 369.648C69.5965 368.688 69.7618 367.877 70.0925 367.216C70.4232 366.544 70.8978 366.037 71.5165 365.696C72.1458 365.344 72.8872 365.168 73.7405 365.168C74.5512 365.168 75.2605 365.344 75.8685 365.696C76.4872 366.037 76.9725 366.544 77.3245 367.216C77.6765 367.877 77.8525 368.688 77.8525 369.648ZM71.6605 369.648C71.6605 370.256 71.7298 370.779 71.8685 371.216C72.0178 371.643 72.2418 371.968 72.5405 372.192C72.8498 372.416 73.2445 372.528 73.7245 372.528C74.2152 372.528 74.6098 372.416 74.9085 372.192C75.2178 371.968 75.4418 371.643 75.5805 371.216C75.7192 370.779 75.7885 370.256 75.7885 369.648C75.7885 369.029 75.7138 368.512 75.5645 368.096C75.4258 367.669 75.2018 367.349 74.8925 367.136C74.5938 366.912 74.2045 366.8 73.7245 366.8C72.9992 366.8 72.4712 367.045 72.1405 367.536C71.8205 368.027 71.6605 368.731 71.6605 369.648ZM83.4849 369.136C83.4849 368.475 83.5275 367.824 83.6129 367.184C83.7089 366.544 83.8742 365.941 84.1089 365.376C84.3435 364.8 84.6689 364.293 85.0849 363.856C85.5115 363.408 86.0449 363.061 86.6849 362.816C87.3249 362.56 88.1035 362.432 89.0209 362.432C89.2449 362.432 89.5009 362.443 89.7889 362.464C90.0769 362.485 90.3169 362.517 90.5089 362.56V364.224C90.3062 364.16 90.0822 364.117 89.8369 364.096C89.6022 364.064 89.3675 364.048 89.1329 364.048C88.4075 364.048 87.8049 364.149 87.3249 364.352C86.8555 364.544 86.4822 364.821 86.2049 365.184C85.9382 365.547 85.7409 365.968 85.6129 366.448C85.4955 366.917 85.4209 367.44 85.3889 368.016H85.4849C85.6449 367.76 85.8369 367.531 86.0609 367.328C86.2955 367.125 86.5782 366.965 86.9089 366.848C87.2395 366.731 87.6235 366.672 88.0609 366.672C88.7222 366.672 89.2982 366.816 89.7889 367.104C90.2795 367.381 90.6582 367.787 90.9249 368.32C91.2022 368.843 91.3409 369.483 91.3409 370.24C91.3409 371.051 91.1862 371.749 90.8769 372.336C90.5675 372.923 90.1302 373.376 89.5649 373.696C88.9995 374.005 88.3275 374.16 87.5489 374.16C86.9729 374.16 86.4395 374.059 85.9489 373.856C85.4582 373.653 85.0262 373.349 84.6529 372.944C84.2795 372.528 83.9915 372.005 83.7889 371.376C83.5862 370.736 83.4849 369.989 83.4849 369.136ZM87.5009 372.512C88.0555 372.512 88.5035 372.331 88.8449 371.968C89.1862 371.595 89.3569 371.024 89.3569 370.256C89.3569 369.637 89.2075 369.152 88.9089 368.8C88.6102 368.437 88.1622 368.256 87.5649 368.256C87.1489 368.256 86.7862 368.347 86.4769 368.528C86.1782 368.699 85.9435 368.923 85.7729 369.2C85.6022 369.467 85.5169 369.744 85.5169 370.032C85.5169 370.331 85.5542 370.624 85.6289 370.912C85.7142 371.2 85.8422 371.467 86.0129 371.712C86.1835 371.957 86.3915 372.155 86.6369 372.304C86.8929 372.443 87.1809 372.512 87.5009 372.512ZM100.433 368.272C100.433 369.2 100.364 370.027 100.225 370.752C100.086 371.477 99.8571 372.096 99.5371 372.608C99.2278 373.109 98.8225 373.493 98.3211 373.76C97.8305 374.027 97.2278 374.16 96.5131 374.16C95.6171 374.16 94.8811 373.925 94.3051 373.456C93.7291 372.987 93.3025 372.315 93.0251 371.44C92.7478 370.555 92.6091 369.499 92.6091 368.272C92.6091 367.045 92.7371 365.995 92.9931 365.12C93.2491 364.245 93.6598 363.573 94.2251 363.104C94.8011 362.635 95.5638 362.4 96.5131 362.4C97.4091 362.4 98.1451 362.635 98.7211 363.104C99.2971 363.563 99.7238 364.235 100.001 365.12C100.289 365.995 100.433 367.045 100.433 368.272ZM94.6411 368.288C94.6411 369.216 94.6998 369.995 94.8171 370.624C94.9345 371.243 95.1265 371.712 95.3931 372.032C95.6705 372.341 96.0438 372.496 96.5131 372.496C96.9825 372.496 97.3505 372.341 97.6171 372.032C97.8945 371.723 98.0918 371.253 98.2091 370.624C98.3371 369.995 98.4011 369.216 98.4011 368.288C98.4011 367.349 98.3371 366.571 98.2091 365.952C98.0918 365.323 97.8945 364.853 97.6171 364.544C97.3505 364.224 96.9825 364.064 96.5131 364.064C96.0438 364.064 95.6705 364.224 95.3931 364.544C95.1265 364.853 94.9345 365.317 94.8171 365.936C94.6998 366.555 94.6411 367.339 94.6411 368.288ZM109.589 368.272C109.589 369.2 109.52 370.027 109.381 370.752C109.243 371.477 109.013 372.096 108.693 372.608C108.384 373.109 107.979 373.493 107.477 373.76C106.987 374.027 106.384 374.16 105.669 374.16C104.773 374.16 104.037 373.925 103.461 373.456C102.885 372.987 102.459 372.315 102.181 371.44C101.904 370.555 101.765 369.499 101.765 368.272C101.765 367.045 101.893 365.995 102.149 365.12C102.405 364.245 102.816 363.573 103.381 363.104C103.957 362.635 104.72 362.4 105.669 362.4C106.565 362.4 107.301 362.635 107.877 363.104C108.453 363.563 108.88 364.235 109.157 365.12C109.445 365.995 109.589 367.045 109.589 368.272ZM103.797 368.288C103.797 369.216 103.856 369.995 103.973 370.624C104.091 371.243 104.283 371.712 104.549 372.032C104.827 372.341 105.2 372.496 105.669 372.496C106.139 372.496 106.507 372.341 106.773 372.032C107.051 371.723 107.248 371.253 107.365 370.624C107.493 369.995 107.557 369.216 107.557 368.288C107.557 367.349 107.493 366.571 107.365 365.952C107.248 365.323 107.051 364.853 106.773 364.544C106.507 364.224 106.139 364.064 105.669 364.064C105.2 364.064 104.827 364.224 104.549 364.544C104.283 364.853 104.091 365.317 103.973 365.936C103.856 366.555 103.797 367.339 103.797 368.288Z" fill="#FEFCF7"/>
<rect width="140" height="56" transform="translate(4 396)" fill="#300475"/>
<path d="M33.36 430H28.56V428.832L29.936 428.32V420.272L28.56 419.744V418.576H33.36V419.744L31.984 420.272V428.32L33.36 428.832V430ZM39.8579 421.168C40.8285 421.168 41.5859 421.419 42.1299 421.92C42.6845 422.421 42.9619 423.232 42.9619 424.352V430H40.9459V424.752C40.9459 424.101 40.8179 423.616 40.5619 423.296C40.3059 422.965 39.9005 422.8 39.3459 422.8C38.5352 422.8 37.9805 423.056 37.6819 423.568C37.3832 424.069 37.2339 424.8 37.2339 425.76V430H35.2179V421.328H36.7699L37.0579 422.464H37.1699C37.3619 422.165 37.5965 421.92 37.8739 421.728C38.1512 421.536 38.4605 421.397 38.8019 421.312C39.1432 421.216 39.4952 421.168 39.8579 421.168ZM48.3475 430.16C47.3448 430.16 46.5288 429.787 45.8995 429.04C45.2808 428.283 44.9715 427.163 44.9715 425.68C44.9715 424.197 45.2862 423.077 45.9155 422.32C46.5448 421.552 47.3715 421.168 48.3955 421.168C48.8222 421.168 49.1955 421.227 49.5155 421.344C49.8462 421.451 50.1288 421.6 50.3635 421.792C50.5982 421.984 50.7955 422.197 50.9555 422.432H51.0515C51.0195 422.283 50.9875 422.053 50.9555 421.744C50.9235 421.435 50.9075 421.147 50.9075 420.88V417.84H52.9235V430H51.3555L50.9875 428.864H50.9075C50.7475 429.099 50.5502 429.317 50.3155 429.52C50.0808 429.712 49.8035 429.867 49.4835 429.984C49.1635 430.101 48.7848 430.16 48.3475 430.16ZM48.9555 428.528C49.7022 428.528 50.2302 428.315 50.5395 427.888C50.8488 427.461 51.0035 426.816 51.0035 425.952V425.696C51.0035 424.757 50.8542 424.043 50.5555 423.552C50.2675 423.061 49.7235 422.816 48.9235 422.816C48.3155 422.816 47.8462 423.072 47.5155 423.584C47.1848 424.085 47.0195 424.795 47.0195 425.712C47.0195 426.629 47.1848 427.328 47.5155 427.808C47.8462 428.288 48.3262 428.528 48.9555 428.528ZM57.5151 421.328V430H55.4991V421.328H57.5151ZM56.5071 417.984C56.8058 417.984 57.0671 418.064 57.2911 418.224C57.5151 418.373 57.6271 418.645 57.6271 419.04C57.6271 419.424 57.5151 419.701 57.2911 419.872C57.0671 420.032 56.8058 420.112 56.5071 420.112C56.1978 420.112 55.9311 420.032 55.7071 419.872C55.4938 419.701 55.3871 419.424 55.3871 419.04C55.3871 418.645 55.4938 418.373 55.7071 418.224C55.9311 418.064 56.1978 417.984 56.5071 417.984ZM63.0049 421.168C63.5489 421.168 64.0395 421.275 64.4769 421.488C64.9142 421.701 65.2822 422.021 65.5809 422.448H65.6609L65.8529 421.328H67.5329V430.064C67.5329 430.885 67.3782 431.573 67.0689 432.128C66.7595 432.693 66.2955 433.12 65.6769 433.408C65.0582 433.696 64.2849 433.84 63.3569 433.84C62.7382 433.84 62.1675 433.797 61.6449 433.712C61.1222 433.637 60.6262 433.504 60.1569 433.312V431.648C60.4875 431.787 60.8289 431.904 61.1809 432C61.5435 432.107 61.9169 432.187 62.3009 432.24C62.6849 432.293 63.0795 432.32 63.4849 432.32C64.1462 432.32 64.6475 432.133 64.9889 431.76C65.3409 431.387 65.5169 430.853 65.5169 430.16V429.936C65.5169 429.776 65.5222 429.589 65.5329 429.376C65.5542 429.163 65.5702 428.992 65.5809 428.864H65.5169C65.2182 429.312 64.8555 429.643 64.4289 429.856C64.0022 430.059 63.5115 430.16 62.9569 430.16C61.9009 430.16 61.0742 429.765 60.4769 428.976C59.8795 428.187 59.5809 427.088 59.5809 425.68C59.5809 424.731 59.7142 423.92 59.9809 423.248C60.2582 422.576 60.6529 422.064 61.1649 421.712C61.6769 421.349 62.2902 421.168 63.0049 421.168ZM63.5329 422.816C63.1275 422.816 62.7809 422.928 62.4929 423.152C62.2155 423.365 62.0022 423.685 61.8529 424.112C61.7142 424.539 61.6449 425.072 61.6449 425.712C61.6449 426.651 61.8049 427.36 62.1249 427.84C62.4449 428.32 62.9249 428.56 63.5649 428.56C63.9275 428.56 64.2369 428.517 64.4929 428.432C64.7489 428.336 64.9569 428.187 65.1169 427.984C65.2875 427.771 65.4155 427.504 65.5009 427.184C65.5862 426.853 65.6289 426.459 65.6289 426V425.696C65.6289 425.003 65.5542 424.448 65.4049 424.032C65.2555 423.605 65.0262 423.296 64.7169 423.104C64.4182 422.912 64.0235 422.816 63.5329 422.816ZM77.8525 425.648C77.8525 426.373 77.7565 427.013 77.5645 427.568C77.3725 428.123 77.0952 428.597 76.7325 428.992C76.3805 429.376 75.9432 429.669 75.4205 429.872C74.9085 430.064 74.3378 430.16 73.7085 430.16C73.1112 430.16 72.5618 430.064 72.0605 429.872C71.5592 429.669 71.1218 429.376 70.7485 428.992C70.3858 428.597 70.1032 428.123 69.9005 427.568C69.6978 427.013 69.5965 426.373 69.5965 425.648C69.5965 424.688 69.7618 423.877 70.0925 423.216C70.4232 422.544 70.8978 422.037 71.5165 421.696C72.1458 421.344 72.8872 421.168 73.7405 421.168C74.5512 421.168 75.2605 421.344 75.8685 421.696C76.4872 422.037 76.9725 422.544 77.3245 423.216C77.6765 423.877 77.8525 424.688 77.8525 425.648ZM71.6605 425.648C71.6605 426.256 71.7298 426.779 71.8685 427.216C72.0178 427.643 72.2418 427.968 72.5405 428.192C72.8498 428.416 73.2445 428.528 73.7245 428.528C74.2152 428.528 74.6098 428.416 74.9085 428.192C75.2178 427.968 75.4418 427.643 75.5805 427.216C75.7192 426.779 75.7885 426.256 75.7885 425.648C75.7885 425.029 75.7138 424.512 75.5645 424.096C75.4258 423.669 75.2018 423.349 74.8925 423.136C74.5938 422.912 74.2045 422.8 73.7245 422.8C72.9992 422.8 72.4712 423.045 72.1405 423.536C71.8205 424.027 71.6605 424.731 71.6605 425.648ZM84.7169 430L89.1649 420.32H83.3249V418.576H91.3249V419.936L86.8769 430H84.7169ZM100.433 424.272C100.433 425.2 100.364 426.027 100.225 426.752C100.086 427.477 99.8571 428.096 99.5371 428.608C99.2278 429.109 98.8225 429.493 98.3211 429.76C97.8305 430.027 97.2278 430.16 96.5131 430.16C95.6171 430.16 94.8811 429.925 94.3051 429.456C93.7291 428.987 93.3025 428.315 93.0251 427.44C92.7478 426.555 92.6091 425.499 92.6091 424.272C92.6091 423.045 92.7371 421.995 92.9931 421.12C93.2491 420.245 93.6598 419.573 94.2251 419.104C94.8011 418.635 95.5638 418.4 96.5131 418.4C97.4091 418.4 98.1451 418.635 98.7211 419.104C99.2971 419.563 99.7238 420.235 100.001 421.12C100.289 421.995 100.433 423.045 100.433 424.272ZM94.6411 424.288C94.6411 425.216 94.6998 425.995 94.8171 426.624C94.9345 427.243 95.1265 427.712 95.3931 428.032C95.6705 428.341 96.0438 428.496 96.5131 428.496C96.9825 428.496 97.3505 428.341 97.6171 428.032C97.8945 427.723 98.0918 427.253 98.2091 426.624C98.3371 425.995 98.4011 425.216 98.4011 424.288C98.4011 423.349 98.3371 422.571 98.2091 421.952C98.0918 421.323 97.8945 420.853 97.6171 420.544C97.3505 420.224 96.9825 420.064 96.5131 420.064C96.0438 420.064 95.6705 420.224 95.3931 420.544C95.1265 420.853 94.9345 421.317 94.8171 421.936C94.6998 422.555 94.6411 423.339 94.6411 424.288ZM109.589 424.272C109.589 425.2 109.52 426.027 109.381 426.752C109.243 427.477 109.013 428.096 108.693 428.608C108.384 429.109 107.979 429.493 107.477 429.76C106.987 430.027 106.384 430.16 105.669 430.16C104.773 430.16 104.037 429.925 103.461 429.456C102.885 428.987 102.459 428.315 102.181 427.44C101.904 426.555 101.765 425.499 101.765 424.272C101.765 423.045 101.893 421.995 102.149 421.12C102.405 420.245 102.816 419.573 103.381 419.104C103.957 418.635 104.72 418.4 105.669 418.4C106.565 418.4 107.301 418.635 107.877 419.104C108.453 419.563 108.88 420.235 109.157 421.12C109.445 421.995 109.589 423.045 109.589 424.272ZM103.797 424.288C103.797 425.216 103.856 425.995 103.973 426.624C104.091 427.243 104.283 427.712 104.549 428.032C104.827 428.341 105.2 428.496 105.669 428.496C106.139 428.496 106.507 428.341 106.773 428.032C107.051 427.723 107.248 427.253 107.365 426.624C107.493 425.995 107.557 425.216 107.557 424.288C107.557 423.349 107.493 422.571 107.365 421.952C107.248 421.323 107.051 420.853 106.773 420.544C106.507 420.224 106.139 420.064 105.669 420.064C105.2 420.064 104.827 420.224 104.549 420.544C104.283 420.853 104.091 421.317 103.973 421.936C103.856 422.555 103.797 423.339 103.797 424.288Z" fill="#FEFCF7"/>
<rect width="140" height="56" transform="translate(4 452)" fill="#270061"/>
<path d="M33.36 486H28.56V484.832L29.936 484.32V476.272L28.56 475.744V474.576H33.36V475.744L31.984 476.272V484.32L33.36 484.832V486ZM39.8579 477.168C40.8285 477.168 41.5859 477.419 42.1299 477.92C42.6845 478.421 42.9619 479.232 42.9619 480.352V486H40.9459V480.752C40.9459 480.101 40.8179 479.616 40.5619 479.296C40.3059 478.965 39.9005 478.8 39.3459 478.8C38.5352 478.8 37.9805 479.056 37.6819 479.568C37.3832 480.069 37.2339 480.8 37.2339 481.76V486H35.2179V477.328H36.7699L37.0579 478.464H37.1699C37.3619 478.165 37.5965 477.92 37.8739 477.728C38.1512 477.536 38.4605 477.397 38.8019 477.312C39.1432 477.216 39.4952 477.168 39.8579 477.168ZM48.3475 486.16C47.3448 486.16 46.5288 485.787 45.8995 485.04C45.2808 484.283 44.9715 483.163 44.9715 481.68C44.9715 480.197 45.2862 479.077 45.9155 478.32C46.5448 477.552 47.3715 477.168 48.3955 477.168C48.8222 477.168 49.1955 477.227 49.5155 477.344C49.8462 477.451 50.1288 477.6 50.3635 477.792C50.5982 477.984 50.7955 478.197 50.9555 478.432H51.0515C51.0195 478.283 50.9875 478.053 50.9555 477.744C50.9235 477.435 50.9075 477.147 50.9075 476.88V473.84H52.9235V486H51.3555L50.9875 484.864H50.9075C50.7475 485.099 50.5502 485.317 50.3155 485.52C50.0808 485.712 49.8035 485.867 49.4835 485.984C49.1635 486.101 48.7848 486.16 48.3475 486.16ZM48.9555 484.528C49.7022 484.528 50.2302 484.315 50.5395 483.888C50.8488 483.461 51.0035 482.816 51.0035 481.952V481.696C51.0035 480.757 50.8542 480.043 50.5555 479.552C50.2675 479.061 49.7235 478.816 48.9235 478.816C48.3155 478.816 47.8462 479.072 47.5155 479.584C47.1848 480.085 47.0195 480.795 47.0195 481.712C47.0195 482.629 47.1848 483.328 47.5155 483.808C47.8462 484.288 48.3262 484.528 48.9555 484.528ZM57.5151 477.328V486H55.4991V477.328H57.5151ZM56.5071 473.984C56.8058 473.984 57.0671 474.064 57.2911 474.224C57.5151 474.373 57.6271 474.645 57.6271 475.04C57.6271 475.424 57.5151 475.701 57.2911 475.872C57.0671 476.032 56.8058 476.112 56.5071 476.112C56.1978 476.112 55.9311 476.032 55.7071 475.872C55.4938 475.701 55.3871 475.424 55.3871 475.04C55.3871 474.645 55.4938 474.373 55.7071 474.224C55.9311 474.064 56.1978 473.984 56.5071 473.984ZM63.0049 477.168C63.5489 477.168 64.0395 477.275 64.4769 477.488C64.9142 477.701 65.2822 478.021 65.5809 478.448H65.6609L65.8529 477.328H67.5329V486.064C67.5329 486.885 67.3782 487.573 67.0689 488.128C66.7595 488.693 66.2955 489.12 65.6769 489.408C65.0582 489.696 64.2849 489.84 63.3569 489.84C62.7382 489.84 62.1675 489.797 61.6449 489.712C61.1222 489.637 60.6262 489.504 60.1569 489.312V487.648C60.4875 487.787 60.8289 487.904 61.1809 488C61.5435 488.107 61.9169 488.187 62.3009 488.24C62.6849 488.293 63.0795 488.32 63.4849 488.32C64.1462 488.32 64.6475 488.133 64.9889 487.76C65.3409 487.387 65.5169 486.853 65.5169 486.16V485.936C65.5169 485.776 65.5222 485.589 65.5329 485.376C65.5542 485.163 65.5702 484.992 65.5809 484.864H65.5169C65.2182 485.312 64.8555 485.643 64.4289 485.856C64.0022 486.059 63.5115 486.16 62.9569 486.16C61.9009 486.16 61.0742 485.765 60.4769 484.976C59.8795 484.187 59.5809 483.088 59.5809 481.68C59.5809 480.731 59.7142 479.92 59.9809 479.248C60.2582 478.576 60.6529 478.064 61.1649 477.712C61.6769 477.349 62.2902 477.168 63.0049 477.168ZM63.5329 478.816C63.1275 478.816 62.7809 478.928 62.4929 479.152C62.2155 479.365 62.0022 479.685 61.8529 480.112C61.7142 480.539 61.6449 481.072 61.6449 481.712C61.6449 482.651 61.8049 483.36 62.1249 483.84C62.4449 484.32 62.9249 484.56 63.5649 484.56C63.9275 484.56 64.2369 484.517 64.4929 484.432C64.7489 484.336 64.9569 484.187 65.1169 483.984C65.2875 483.771 65.4155 483.504 65.5009 483.184C65.5862 482.853 65.6289 482.459 65.6289 482V481.696C65.6289 481.003 65.5542 480.448 65.4049 480.032C65.2555 479.605 65.0262 479.296 64.7169 479.104C64.4182 478.912 64.0235 478.816 63.5329 478.816ZM77.8525 481.648C77.8525 482.373 77.7565 483.013 77.5645 483.568C77.3725 484.123 77.0952 484.597 76.7325 484.992C76.3805 485.376 75.9432 485.669 75.4205 485.872C74.9085 486.064 74.3378 486.16 73.7085 486.16C73.1112 486.16 72.5618 486.064 72.0605 485.872C71.5592 485.669 71.1218 485.376 70.7485 484.992C70.3858 484.597 70.1032 484.123 69.9005 483.568C69.6978 483.013 69.5965 482.373 69.5965 481.648C69.5965 480.688 69.7618 479.877 70.0925 479.216C70.4232 478.544 70.8978 478.037 71.5165 477.696C72.1458 477.344 72.8872 477.168 73.7405 477.168C74.5512 477.168 75.2605 477.344 75.8685 477.696C76.4872 478.037 76.9725 478.544 77.3245 479.216C77.6765 479.877 77.8525 480.688 77.8525 481.648ZM71.6605 481.648C71.6605 482.256 71.7298 482.779 71.8685 483.216C72.0178 483.643 72.2418 483.968 72.5405 484.192C72.8498 484.416 73.2445 484.528 73.7245 484.528C74.2152 484.528 74.6098 484.416 74.9085 484.192C75.2178 483.968 75.4418 483.643 75.5805 483.216C75.7192 482.779 75.7885 482.256 75.7885 481.648C75.7885 481.029 75.7138 480.512 75.5645 480.096C75.4258 479.669 75.2018 479.349 74.8925 479.136C74.5938 478.912 74.2045 478.8 73.7245 478.8C72.9992 478.8 72.4712 479.045 72.1405 479.536C71.8205 480.027 71.6605 480.731 71.6605 481.648ZM87.3729 474.432C88.0342 474.432 88.6315 474.533 89.1649 474.736C89.6982 474.939 90.1249 475.243 90.4449 475.648C90.7649 476.053 90.9249 476.56 90.9249 477.168C90.9249 477.627 90.8289 478.032 90.6369 478.384C90.4555 478.725 90.2049 479.024 89.8849 479.28C89.5755 479.536 89.2235 479.765 88.8289 479.968C89.2662 480.181 89.6715 480.432 90.0449 480.72C90.4182 480.997 90.7169 481.328 90.9409 481.712C91.1755 482.085 91.2929 482.528 91.2929 483.04C91.2929 483.669 91.1275 484.219 90.7969 484.688C90.4769 485.157 90.0235 485.52 89.4369 485.776C88.8502 486.032 88.1675 486.16 87.3889 486.16C86.5462 486.16 85.8315 486.037 85.2449 485.792C84.6582 485.547 84.2102 485.195 83.9009 484.736C83.5915 484.277 83.4369 483.733 83.4369 483.104C83.4369 482.581 83.5382 482.128 83.7409 481.744C83.9542 481.36 84.2315 481.029 84.5729 480.752C84.9142 480.464 85.2875 480.224 85.6929 480.032C85.3409 479.819 85.0209 479.579 84.7329 479.312C84.4449 479.035 84.2155 478.725 84.0449 478.384C83.8849 478.032 83.8049 477.621 83.8049 477.152C83.8049 476.555 83.9649 476.053 84.2849 475.648C84.6155 475.243 85.0475 474.939 85.5809 474.736C86.1249 474.533 86.7222 474.432 87.3729 474.432ZM85.3569 483.008C85.3569 483.477 85.5222 483.867 85.8529 484.176C86.1835 484.475 86.6849 484.624 87.3569 484.624C87.8049 484.624 88.1729 484.56 88.4609 484.432C88.7595 484.293 88.9835 484.101 89.1329 483.856C89.2929 483.611 89.3729 483.328 89.3729 483.008C89.3729 482.688 89.2822 482.405 89.1009 482.16C88.9195 481.915 88.6849 481.696 88.3969 481.504C88.1089 481.312 87.7889 481.136 87.4369 480.976L87.2129 480.864C86.8289 481.035 86.4982 481.227 86.2209 481.44C85.9435 481.643 85.7302 481.872 85.5809 482.128C85.4315 482.384 85.3569 482.677 85.3569 483.008ZM87.3569 475.952C86.8875 475.952 86.4982 476.069 86.1889 476.304C85.8902 476.539 85.7409 476.869 85.7409 477.296C85.7409 477.605 85.8155 477.872 85.9649 478.096C86.1142 478.32 86.3115 478.512 86.5569 478.672C86.8129 478.832 87.0902 478.987 87.3889 479.136C87.6875 478.997 87.9542 478.848 88.1889 478.688C88.4342 478.528 88.6262 478.336 88.7649 478.112C88.9142 477.888 88.9889 477.616 88.9889 477.296C88.9889 476.869 88.8342 476.539 88.5249 476.304C88.2262 476.069 87.8369 475.952 87.3569 475.952ZM100.433 480.272C100.433 481.2 100.364 482.027 100.225 482.752C100.086 483.477 99.8571 484.096 99.5371 484.608C99.2278 485.109 98.8225 485.493 98.3211 485.76C97.8305 486.027 97.2278 486.16 96.5131 486.16C95.6171 486.16 94.8811 485.925 94.3051 485.456C93.7291 484.987 93.3025 484.315 93.0251 483.44C92.7478 482.555 92.6091 481.499 92.6091 480.272C92.6091 479.045 92.7371 477.995 92.9931 477.12C93.2491 476.245 93.6598 475.573 94.2251 475.104C94.8011 474.635 95.5638 474.4 96.5131 474.4C97.4091 474.4 98.1451 474.635 98.7211 475.104C99.2971 475.563 99.7238 476.235 100.001 477.12C100.289 477.995 100.433 479.045 100.433 480.272ZM94.6411 480.288C94.6411 481.216 94.6998 481.995 94.8171 482.624C94.9345 483.243 95.1265 483.712 95.3931 484.032C95.6705 484.341 96.0438 484.496 96.5131 484.496C96.9825 484.496 97.3505 484.341 97.6171 484.032C97.8945 483.723 98.0918 483.253 98.2091 482.624C98.3371 481.995 98.4011 481.216 98.4011 480.288C98.4011 479.349 98.3371 478.571 98.2091 477.952C98.0918 477.323 97.8945 476.853 97.6171 476.544C97.3505 476.224 96.9825 476.064 96.5131 476.064C96.0438 476.064 95.6705 476.224 95.3931 476.544C95.1265 476.853 94.9345 477.317 94.8171 477.936C94.6998 478.555 94.6411 479.339 94.6411 480.288ZM109.589 480.272C109.589 481.2 109.52 482.027 109.381 482.752C109.243 483.477 109.013 484.096 108.693 484.608C108.384 485.109 107.979 485.493 107.477 485.76C106.987 486.027 106.384 486.16 105.669 486.16C104.773 486.16 104.037 485.925 103.461 485.456C102.885 484.987 102.459 484.315 102.181 483.44C101.904 482.555 101.765 481.499 101.765 480.272C101.765 479.045 101.893 477.995 102.149 477.12C102.405 476.245 102.816 475.573 103.381 475.104C103.957 474.635 104.72 474.4 105.669 474.4C106.565 474.4 107.301 474.635 107.877 475.104C108.453 475.563 108.88 476.235 109.157 477.12C109.445 477.995 109.589 479.045 109.589 480.272ZM103.797 480.288C103.797 481.216 103.856 481.995 103.973 482.624C104.091 483.243 104.283 483.712 104.549 484.032C104.827 484.341 105.2 484.496 105.669 484.496C106.139 484.496 106.507 484.341 106.773 484.032C107.051 483.723 107.248 483.253 107.365 482.624C107.493 481.995 107.557 481.216 107.557 480.288C107.557 479.349 107.493 478.571 107.365 477.952C107.248 477.323 107.051 476.853 106.773 476.544C106.507 476.224 106.139 476.064 105.669 476.064C105.2 476.064 104.827 476.224 104.549 476.544C104.283 476.853 104.091 477.317 103.973 477.936C103.856 478.555 103.797 479.339 103.797 480.288Z" fill="#FEFCF7"/>
<rect width="140" height="56" transform="translate(4 508)" fill="#1C0045"/>
<path d="M33.36 542H28.56V540.832L29.936 540.32V532.272L28.56 531.744V530.576H33.36V531.744L31.984 532.272V540.32L33.36 540.832V542ZM39.8579 533.168C40.8285 533.168 41.5859 533.419 42.1299 533.92C42.6845 534.421 42.9619 535.232 42.9619 536.352V542H40.9459V536.752C40.9459 536.101 40.8179 535.616 40.5619 535.296C40.3059 534.965 39.9005 534.8 39.3459 534.8C38.5352 534.8 37.9805 535.056 37.6819 535.568C37.3832 536.069 37.2339 536.8 37.2339 537.76V542H35.2179V533.328H36.7699L37.0579 534.464H37.1699C37.3619 534.165 37.5965 533.92 37.8739 533.728C38.1512 533.536 38.4605 533.397 38.8019 533.312C39.1432 533.216 39.4952 533.168 39.8579 533.168ZM48.3475 542.16C47.3448 542.16 46.5288 541.787 45.8995 541.04C45.2808 540.283 44.9715 539.163 44.9715 537.68C44.9715 536.197 45.2862 535.077 45.9155 534.32C46.5448 533.552 47.3715 533.168 48.3955 533.168C48.8222 533.168 49.1955 533.227 49.5155 533.344C49.8462 533.451 50.1288 533.6 50.3635 533.792C50.5982 533.984 50.7955 534.197 50.9555 534.432H51.0515C51.0195 534.283 50.9875 534.053 50.9555 533.744C50.9235 533.435 50.9075 533.147 50.9075 532.88V529.84H52.9235V542H51.3555L50.9875 540.864H50.9075C50.7475 541.099 50.5502 541.317 50.3155 541.52C50.0808 541.712 49.8035 541.867 49.4835 541.984C49.1635 542.101 48.7848 542.16 48.3475 542.16ZM48.9555 540.528C49.7022 540.528 50.2302 540.315 50.5395 539.888C50.8488 539.461 51.0035 538.816 51.0035 537.952V537.696C51.0035 536.757 50.8542 536.043 50.5555 535.552C50.2675 535.061 49.7235 534.816 48.9235 534.816C48.3155 534.816 47.8462 535.072 47.5155 535.584C47.1848 536.085 47.0195 536.795 47.0195 537.712C47.0195 538.629 47.1848 539.328 47.5155 539.808C47.8462 540.288 48.3262 540.528 48.9555 540.528ZM57.5151 533.328V542H55.4991V533.328H57.5151ZM56.5071 529.984C56.8058 529.984 57.0671 530.064 57.2911 530.224C57.5151 530.373 57.6271 530.645 57.6271 531.04C57.6271 531.424 57.5151 531.701 57.2911 531.872C57.0671 532.032 56.8058 532.112 56.5071 532.112C56.1978 532.112 55.9311 532.032 55.7071 531.872C55.4938 531.701 55.3871 531.424 55.3871 531.04C55.3871 530.645 55.4938 530.373 55.7071 530.224C55.9311 530.064 56.1978 529.984 56.5071 529.984ZM63.0049 533.168C63.5489 533.168 64.0395 533.275 64.4769 533.488C64.9142 533.701 65.2822 534.021 65.5809 534.448H65.6609L65.8529 533.328H67.5329V542.064C67.5329 542.885 67.3782 543.573 67.0689 544.128C66.7595 544.693 66.2955 545.12 65.6769 545.408C65.0582 545.696 64.2849 545.84 63.3569 545.84C62.7382 545.84 62.1675 545.797 61.6449 545.712C61.1222 545.637 60.6262 545.504 60.1569 545.312V543.648C60.4875 543.787 60.8289 543.904 61.1809 544C61.5435 544.107 61.9169 544.187 62.3009 544.24C62.6849 544.293 63.0795 544.32 63.4849 544.32C64.1462 544.32 64.6475 544.133 64.9889 543.76C65.3409 543.387 65.5169 542.853 65.5169 542.16V541.936C65.5169 541.776 65.5222 541.589 65.5329 541.376C65.5542 541.163 65.5702 540.992 65.5809 540.864H65.5169C65.2182 541.312 64.8555 541.643 64.4289 541.856C64.0022 542.059 63.5115 542.16 62.9569 542.16C61.9009 542.16 61.0742 541.765 60.4769 540.976C59.8795 540.187 59.5809 539.088 59.5809 537.68C59.5809 536.731 59.7142 535.92 59.9809 535.248C60.2582 534.576 60.6529 534.064 61.1649 533.712C61.6769 533.349 62.2902 533.168 63.0049 533.168ZM63.5329 534.816C63.1275 534.816 62.7809 534.928 62.4929 535.152C62.2155 535.365 62.0022 535.685 61.8529 536.112C61.7142 536.539 61.6449 537.072 61.6449 537.712C61.6449 538.651 61.8049 539.36 62.1249 539.84C62.4449 540.32 62.9249 540.56 63.5649 540.56C63.9275 540.56 64.2369 540.517 64.4929 540.432C64.7489 540.336 64.9569 540.187 65.1169 539.984C65.2875 539.771 65.4155 539.504 65.5009 539.184C65.5862 538.853 65.6289 538.459 65.6289 538V537.696C65.6289 537.003 65.5542 536.448 65.4049 536.032C65.2555 535.605 65.0262 535.296 64.7169 535.104C64.4182 534.912 64.0235 534.816 63.5329 534.816ZM77.8525 537.648C77.8525 538.373 77.7565 539.013 77.5645 539.568C77.3725 540.123 77.0952 540.597 76.7325 540.992C76.3805 541.376 75.9432 541.669 75.4205 541.872C74.9085 542.064 74.3378 542.16 73.7085 542.16C73.1112 542.16 72.5618 542.064 72.0605 541.872C71.5592 541.669 71.1218 541.376 70.7485 540.992C70.3858 540.597 70.1032 540.123 69.9005 539.568C69.6978 539.013 69.5965 538.373 69.5965 537.648C69.5965 536.688 69.7618 535.877 70.0925 535.216C70.4232 534.544 70.8978 534.037 71.5165 533.696C72.1458 533.344 72.8872 533.168 73.7405 533.168C74.5512 533.168 75.2605 533.344 75.8685 533.696C76.4872 534.037 76.9725 534.544 77.3245 535.216C77.6765 535.877 77.8525 536.688 77.8525 537.648ZM71.6605 537.648C71.6605 538.256 71.7298 538.779 71.8685 539.216C72.0178 539.643 72.2418 539.968 72.5405 540.192C72.8498 540.416 73.2445 540.528 73.7245 540.528C74.2152 540.528 74.6098 540.416 74.9085 540.192C75.2178 539.968 75.4418 539.643 75.5805 539.216C75.7192 538.779 75.7885 538.256 75.7885 537.648C75.7885 537.029 75.7138 536.512 75.5645 536.096C75.4258 535.669 75.2018 535.349 74.8925 535.136C74.5938 534.912 74.2045 534.8 73.7245 534.8C72.9992 534.8 72.4712 535.045 72.1405 535.536C71.8205 536.027 71.6605 536.731 71.6605 537.648ZM91.2769 535.456C91.2769 536.107 91.2289 536.757 91.1329 537.408C91.0369 538.048 90.8715 538.656 90.6369 539.232C90.4022 539.797 90.0769 540.304 89.6609 540.752C89.2449 541.189 88.7115 541.536 88.0609 541.792C87.4209 542.037 86.6422 542.16 85.7249 542.16C85.5115 542.16 85.2555 542.149 84.9569 542.128C84.6689 542.107 84.4289 542.075 84.2369 542.032V540.368C84.4395 540.421 84.6582 540.464 84.8929 540.496C85.1382 540.528 85.3782 540.544 85.6129 540.544C86.3382 540.544 86.9355 540.448 87.4049 540.256C87.8849 540.053 88.2582 539.776 88.5249 539.424C88.8022 539.061 89.0049 538.64 89.1329 538.16C89.2609 537.669 89.3355 537.147 89.3569 536.592H89.2609C89.1009 536.837 88.9089 537.061 88.6849 537.264C88.4715 537.467 88.1995 537.627 87.8689 537.744C87.5489 537.861 87.1435 537.92 86.6529 537.92C86.0022 537.92 85.4315 537.781 84.9409 537.504C84.4609 537.227 84.0875 536.827 83.8209 536.304C83.5542 535.771 83.4209 535.125 83.4209 534.368C83.4209 533.547 83.5755 532.843 83.8849 532.256C84.1942 531.669 84.6315 531.221 85.1969 530.912C85.7729 530.592 86.4449 530.432 87.2129 530.432C87.7889 530.432 88.3222 530.539 88.8129 530.752C89.3035 530.955 89.7302 531.264 90.0929 531.68C90.4662 532.085 90.7542 532.603 90.9569 533.232C91.1702 533.861 91.2769 534.603 91.2769 535.456ZM87.2449 532.096C86.7009 532.096 86.2582 532.277 85.9169 532.64C85.5755 533.003 85.4049 533.568 85.4049 534.336C85.4049 534.965 85.5489 535.461 85.8369 535.824C86.1355 536.176 86.5889 536.352 87.1969 536.352C87.6129 536.352 87.9702 536.261 88.2689 536.08C88.5782 535.899 88.8182 535.675 88.9889 535.408C89.1595 535.141 89.2449 534.859 89.2449 534.56C89.2449 534.272 89.2022 533.984 89.1169 533.696C89.0315 533.397 88.9035 533.125 88.7329 532.88C88.5729 532.635 88.3649 532.443 88.1089 532.304C87.8635 532.165 87.5755 532.096 87.2449 532.096ZM100.433 536.272C100.433 537.2 100.364 538.027 100.225 538.752C100.086 539.477 99.8571 540.096 99.5371 540.608C99.2278 541.109 98.8225 541.493 98.3211 541.76C97.8305 542.027 97.2278 542.16 96.5131 542.16C95.6171 542.16 94.8811 541.925 94.3051 541.456C93.7291 540.987 93.3025 540.315 93.0251 539.44C92.7478 538.555 92.6091 537.499 92.6091 536.272C92.6091 535.045 92.7371 533.995 92.9931 533.12C93.2491 532.245 93.6598 531.573 94.2251 531.104C94.8011 530.635 95.5638 530.4 96.5131 530.4C97.4091 530.4 98.1451 530.635 98.7211 531.104C99.2971 531.563 99.7238 532.235 100.001 533.12C100.289 533.995 100.433 535.045 100.433 536.272ZM94.6411 536.288C94.6411 537.216 94.6998 537.995 94.8171 538.624C94.9345 539.243 95.1265 539.712 95.3931 540.032C95.6705 540.341 96.0438 540.496 96.5131 540.496C96.9825 540.496 97.3505 540.341 97.6171 540.032C97.8945 539.723 98.0918 539.253 98.2091 538.624C98.3371 537.995 98.4011 537.216 98.4011 536.288C98.4011 535.349 98.3371 534.571 98.2091 533.952C98.0918 533.323 97.8945 532.853 97.6171 532.544C97.3505 532.224 96.9825 532.064 96.5131 532.064C96.0438 532.064 95.6705 532.224 95.3931 532.544C95.1265 532.853 94.9345 533.317 94.8171 533.936C94.6998 534.555 94.6411 535.339 94.6411 536.288ZM109.589 536.272C109.589 537.2 109.52 538.027 109.381 538.752C109.243 539.477 109.013 540.096 108.693 540.608C108.384 541.109 107.979 541.493 107.477 541.76C106.987 542.027 106.384 542.16 105.669 542.16C104.773 542.16 104.037 541.925 103.461 541.456C102.885 540.987 102.459 540.315 102.181 539.44C101.904 538.555 101.765 537.499 101.765 536.272C101.765 535.045 101.893 533.995 102.149 533.12C102.405 532.245 102.816 531.573 103.381 531.104C103.957 530.635 104.72 530.4 105.669 530.4C106.565 530.4 107.301 530.635 107.877 531.104C108.453 531.563 108.88 532.235 109.157 533.12C109.445 533.995 109.589 535.045 109.589 536.272ZM103.797 536.288C103.797 537.216 103.856 537.995 103.973 538.624C104.091 539.243 104.283 539.712 104.549 540.032C104.827 540.341 105.2 540.496 105.669 540.496C106.139 540.496 106.507 540.341 106.773 540.032C107.051 539.723 107.248 539.253 107.365 538.624C107.493 537.995 107.557 537.216 107.557 536.288C107.557 535.349 107.493 534.571 107.365 533.952C107.248 533.323 107.051 532.853 106.773 532.544C106.507 532.224 106.139 532.064 105.669 532.064C105.2 532.064 104.827 532.224 104.549 532.544C104.283 532.853 104.091 533.317 103.973 533.936C103.856 534.555 103.797 535.339 103.797 536.288Z" fill="#FEFCF7"/>
<rect width="140" height="56" transform="translate(4 564)" fill="#110029"/>
<path d="M33.36 598H28.56V596.832L29.936 596.32V588.272L28.56 587.744V586.576H33.36V587.744L31.984 588.272V596.32L33.36 596.832V598ZM39.8579 589.168C40.8285 589.168 41.5859 589.419 42.1299 589.92C42.6845 590.421 42.9619 591.232 42.9619 592.352V598H40.9459V592.752C40.9459 592.101 40.8179 591.616 40.5619 591.296C40.3059 590.965 39.9005 590.8 39.3459 590.8C38.5352 590.8 37.9805 591.056 37.6819 591.568C37.3832 592.069 37.2339 592.8 37.2339 593.76V598H35.2179V589.328H36.7699L37.0579 590.464H37.1699C37.3619 590.165 37.5965 589.92 37.8739 589.728C38.1512 589.536 38.4605 589.397 38.8019 589.312C39.1432 589.216 39.4952 589.168 39.8579 589.168ZM48.3475 598.16C47.3448 598.16 46.5288 597.787 45.8995 597.04C45.2808 596.283 44.9715 595.163 44.9715 593.68C44.9715 592.197 45.2862 591.077 45.9155 590.32C46.5448 589.552 47.3715 589.168 48.3955 589.168C48.8222 589.168 49.1955 589.227 49.5155 589.344C49.8462 589.451 50.1288 589.6 50.3635 589.792C50.5982 589.984 50.7955 590.197 50.9555 590.432H51.0515C51.0195 590.283 50.9875 590.053 50.9555 589.744C50.9235 589.435 50.9075 589.147 50.9075 588.88V585.84H52.9235V598H51.3555L50.9875 596.864H50.9075C50.7475 597.099 50.5502 597.317 50.3155 597.52C50.0808 597.712 49.8035 597.867 49.4835 597.984C49.1635 598.101 48.7848 598.16 48.3475 598.16ZM48.9555 596.528C49.7022 596.528 50.2302 596.315 50.5395 595.888C50.8488 595.461 51.0035 594.816 51.0035 593.952V593.696C51.0035 592.757 50.8542 592.043 50.5555 591.552C50.2675 591.061 49.7235 590.816 48.9235 590.816C48.3155 590.816 47.8462 591.072 47.5155 591.584C47.1848 592.085 47.0195 592.795 47.0195 593.712C47.0195 594.629 47.1848 595.328 47.5155 595.808C47.8462 596.288 48.3262 596.528 48.9555 596.528ZM57.5151 589.328V598H55.4991V589.328H57.5151ZM56.5071 585.984C56.8058 585.984 57.0671 586.064 57.2911 586.224C57.5151 586.373 57.6271 586.645 57.6271 587.04C57.6271 587.424 57.5151 587.701 57.2911 587.872C57.0671 588.032 56.8058 588.112 56.5071 588.112C56.1978 588.112 55.9311 588.032 55.7071 587.872C55.4938 587.701 55.3871 587.424 55.3871 587.04C55.3871 586.645 55.4938 586.373 55.7071 586.224C55.9311 586.064 56.1978 585.984 56.5071 585.984ZM63.0049 589.168C63.5489 589.168 64.0395 589.275 64.4769 589.488C64.9142 589.701 65.2822 590.021 65.5809 590.448H65.6609L65.8529 589.328H67.5329V598.064C67.5329 598.885 67.3782 599.573 67.0689 600.128C66.7595 600.693 66.2955 601.12 65.6769 601.408C65.0582 601.696 64.2849 601.84 63.3569 601.84C62.7382 601.84 62.1675 601.797 61.6449 601.712C61.1222 601.637 60.6262 601.504 60.1569 601.312V599.648C60.4875 599.787 60.8289 599.904 61.1809 600C61.5435 600.107 61.9169 600.187 62.3009 600.24C62.6849 600.293 63.0795 600.32 63.4849 600.32C64.1462 600.32 64.6475 600.133 64.9889 599.76C65.3409 599.387 65.5169 598.853 65.5169 598.16V597.936C65.5169 597.776 65.5222 597.589 65.5329 597.376C65.5542 597.163 65.5702 596.992 65.5809 596.864H65.5169C65.2182 597.312 64.8555 597.643 64.4289 597.856C64.0022 598.059 63.5115 598.16 62.9569 598.16C61.9009 598.16 61.0742 597.765 60.4769 596.976C59.8795 596.187 59.5809 595.088 59.5809 593.68C59.5809 592.731 59.7142 591.92 59.9809 591.248C60.2582 590.576 60.6529 590.064 61.1649 589.712C61.6769 589.349 62.2902 589.168 63.0049 589.168ZM63.5329 590.816C63.1275 590.816 62.7809 590.928 62.4929 591.152C62.2155 591.365 62.0022 591.685 61.8529 592.112C61.7142 592.539 61.6449 593.072 61.6449 593.712C61.6449 594.651 61.8049 595.36 62.1249 595.84C62.4449 596.32 62.9249 596.56 63.5649 596.56C63.9275 596.56 64.2369 596.517 64.4929 596.432C64.7489 596.336 64.9569 596.187 65.1169 595.984C65.2875 595.771 65.4155 595.504 65.5009 595.184C65.5862 594.853 65.6289 594.459 65.6289 594V593.696C65.6289 593.003 65.5542 592.448 65.4049 592.032C65.2555 591.605 65.0262 591.296 64.7169 591.104C64.4182 590.912 64.0235 590.816 63.5329 590.816ZM77.8525 593.648C77.8525 594.373 77.7565 595.013 77.5645 595.568C77.3725 596.123 77.0952 596.597 76.7325 596.992C76.3805 597.376 75.9432 597.669 75.4205 597.872C74.9085 598.064 74.3378 598.16 73.7085 598.16C73.1112 598.16 72.5618 598.064 72.0605 597.872C71.5592 597.669 71.1218 597.376 70.7485 596.992C70.3858 596.597 70.1032 596.123 69.9005 595.568C69.6978 595.013 69.5965 594.373 69.5965 593.648C69.5965 592.688 69.7618 591.877 70.0925 591.216C70.4232 590.544 70.8978 590.037 71.5165 589.696C72.1458 589.344 72.8872 589.168 73.7405 589.168C74.5512 589.168 75.2605 589.344 75.8685 589.696C76.4872 590.037 76.9725 590.544 77.3245 591.216C77.6765 591.877 77.8525 592.688 77.8525 593.648ZM71.6605 593.648C71.6605 594.256 71.7298 594.779 71.8685 595.216C72.0178 595.643 72.2418 595.968 72.5405 596.192C72.8498 596.416 73.2445 596.528 73.7245 596.528C74.2152 596.528 74.6098 596.416 74.9085 596.192C75.2178 595.968 75.4418 595.643 75.5805 595.216C75.7192 594.779 75.7885 594.256 75.7885 593.648C75.7885 593.029 75.7138 592.512 75.5645 592.096C75.4258 591.669 75.2018 591.349 74.8925 591.136C74.5938 590.912 74.2045 590.8 73.7245 590.8C72.9992 590.8 72.4712 591.045 72.1405 591.536C71.8205 592.027 71.6605 592.731 71.6605 593.648ZM89.0529 598H87.0369V590.88C87.0369 590.645 87.0369 590.405 87.0369 590.16C87.0475 589.915 87.0582 589.669 87.0689 589.424C87.0795 589.168 87.0902 588.933 87.1009 588.72C86.9942 588.827 86.8609 588.955 86.7009 589.104C86.5409 589.243 86.3755 589.387 86.2049 589.536L84.9249 590.56L83.9169 589.312L87.3729 586.576H89.0529V598ZM100.433 592.272C100.433 593.2 100.364 594.027 100.225 594.752C100.086 595.477 99.8571 596.096 99.5371 596.608C99.2278 597.109 98.8225 597.493 98.3211 597.76C97.8305 598.027 97.2278 598.16 96.5131 598.16C95.6171 598.16 94.8811 597.925 94.3051 597.456C93.7291 596.987 93.3025 596.315 93.0251 595.44C92.7478 594.555 92.6091 593.499 92.6091 592.272C92.6091 591.045 92.7371 589.995 92.9931 589.12C93.2491 588.245 93.6598 587.573 94.2251 587.104C94.8011 586.635 95.5638 586.4 96.5131 586.4C97.4091 586.4 98.1451 586.635 98.7211 587.104C99.2971 587.563 99.7238 588.235 100.001 589.12C100.289 589.995 100.433 591.045 100.433 592.272ZM94.6411 592.288C94.6411 593.216 94.6998 593.995 94.8171 594.624C94.9345 595.243 95.1265 595.712 95.3931 596.032C95.6705 596.341 96.0438 596.496 96.5131 596.496C96.9825 596.496 97.3505 596.341 97.6171 596.032C97.8945 595.723 98.0918 595.253 98.2091 594.624C98.3371 593.995 98.4011 593.216 98.4011 592.288C98.4011 591.349 98.3371 590.571 98.2091 589.952C98.0918 589.323 97.8945 588.853 97.6171 588.544C97.3505 588.224 96.9825 588.064 96.5131 588.064C96.0438 588.064 95.6705 588.224 95.3931 588.544C95.1265 588.853 94.9345 589.317 94.8171 589.936C94.6998 590.555 94.6411 591.339 94.6411 592.288ZM109.589 592.272C109.589 593.2 109.52 594.027 109.381 594.752C109.243 595.477 109.013 596.096 108.693 596.608C108.384 597.109 107.979 597.493 107.477 597.76C106.987 598.027 106.384 598.16 105.669 598.16C104.773 598.16 104.037 597.925 103.461 597.456C102.885 596.987 102.459 596.315 102.181 595.44C101.904 594.555 101.765 593.499 101.765 592.272C101.765 591.045 101.893 589.995 102.149 589.12C102.405 588.245 102.816 587.573 103.381 587.104C103.957 586.635 104.72 586.4 105.669 586.4C106.565 586.4 107.301 586.635 107.877 587.104C108.453 587.563 108.88 588.235 109.157 589.12C109.445 589.995 109.589 591.045 109.589 592.272ZM103.797 592.288C103.797 593.216 103.856 593.995 103.973 594.624C104.091 595.243 104.283 595.712 104.549 596.032C104.827 596.341 105.2 596.496 105.669 596.496C106.139 596.496 106.507 596.341 106.773 596.032C107.051 595.723 107.248 595.253 107.365 594.624C107.493 593.995 107.557 593.216 107.557 592.288C107.557 591.349 107.493 590.571 107.365 589.952C107.248 589.323 107.051 588.853 106.773 588.544C106.507 588.224 106.139 588.064 105.669 588.064C105.2 588.064 104.827 588.224 104.549 588.544C104.283 588.853 104.091 589.317 103.973 589.936C103.856 590.555 103.797 591.339 103.797 592.288ZM118.746 592.272C118.746 593.2 118.676 594.027 118.538 594.752C118.399 595.477 118.17 596.096 117.85 596.608C117.54 597.109 117.135 597.493 116.634 597.76C116.143 598.027 115.54 598.16 114.826 598.16C113.93 598.16 113.194 597.925 112.618 597.456C112.042 596.987 111.615 596.315 111.338 595.44C111.06 594.555 110.922 593.499 110.922 592.272C110.922 591.045 111.05 589.995 111.306 589.12C111.562 588.245 111.972 587.573 112.538 587.104C113.114 586.635 113.876 586.4 114.826 586.4C115.722 586.4 116.458 586.635 117.034 587.104C117.61 587.563 118.036 588.235 118.314 589.12C118.602 589.995 118.746 591.045 118.746 592.272ZM112.954 592.288C112.954 593.216 113.012 593.995 113.13 594.624C113.247 595.243 113.439 595.712 113.706 596.032C113.983 596.341 114.356 596.496 114.826 596.496C115.295 596.496 115.663 596.341 115.93 596.032C116.207 595.723 116.404 595.253 116.522 594.624C116.65 593.995 116.714 593.216 116.714 592.288C116.714 591.349 116.65 590.571 116.522 589.952C116.404 589.323 116.207 588.853 115.93 588.544C115.663 588.224 115.295 588.064 114.826 588.064C114.356 588.064 113.983 588.224 113.706 588.544C113.439 588.853 113.247 589.317 113.13 589.936C113.012 590.555 112.954 591.339 112.954 592.288Z" fill="#FEFCF7"/>
</g>
</g>
<defs>
<filter id="filter0_d_7538_3107" x="0" y="0" width="152" height="628" filterUnits="userSpaceOnUse" color-interpolation-filters="sRGB">
<feFlood flood-opacity="0" result="BackgroundImageFix"/>
<feColorMatrix in="SourceAlpha" type="matrix" values="0 0 0 0 0 0 0 0 0 0 0 0 0 0 0 0 0 0 127 0" result="hardAlpha"/>
<feMorphology radius="1" operator="dilate" in="SourceAlpha" result="effect1_dropShadow_7538_3107"/>
<feOffset dx="2" dy="2"/>
<feGaussianBlur stdDeviation="2.5"/>
<feComposite in2="hardAlpha" operator="out"/>
<feColorMatrix type="matrix" values="0 0 0 0 0.51686 0 0 0 0 0.424083 0 0 0 0 0.29265 0 0 0 1 0"/>
<feBlend mode="normal" in2="BackgroundImageFix" result="effect1_dropShadow_7538_3107"/>
<feBlend mode="normal" in="SourceGraphic" in2="effect1_dropShadow_7538_3107" result="shape"/>
</filter>
<clipPath id="clip0_7538_3107">
<rect x="4" y="4" width="140" height="616" rx="8" fill="white"/>
</clipPath>
</defs>
</svg>
