<svg width="597" height="142" viewBox="0 0 597 142" fill="none" xmlns="http://www.w3.org/2000/svg">
<path d="M434.032 44.2319C417.155 44.2319 402.916 57.9445 402.916 75.3488C402.916 92.2258 416.628 106.466 434.032 106.466C451.437 106.466 465.149 92.7532 465.149 75.3488C465.149 57.9445 450.909 44.2319 434.032 44.2319ZM434.032 98.0271C421.375 98.0271 411.354 88.0064 411.354 75.3488C411.354 62.6911 421.375 52.6704 434.032 52.6704C446.69 52.6704 456.711 62.6911 456.711 75.3488C456.711 87.4792 446.163 98.0271 434.032 98.0271Z" fill="#3E3E3D"/>
<path d="M512.088 75.8768V25.7732H503.649V75.8768C503.649 92.7537 517.362 106.466 534.239 106.466V98.0277C522.109 98.0277 512.088 88.007 512.088 75.8768Z" fill="#3E3E3D"/>
<path d="M565.883 43.7046C549.006 43.7046 534.766 57.4171 534.766 74.8214C534.766 91.6983 548.479 105.938 565.883 105.938C583.287 105.938 597 92.2259 597 74.8214C597 57.4172 583.287 43.7046 565.883 43.7046ZM565.883 97.4998C553.225 97.4998 543.205 87.4793 543.205 74.8214C543.205 62.1638 553.225 52.1431 565.883 52.1431C578.541 52.1431 588.561 62.1638 588.561 74.8214C588.561 87.4793 578.541 97.4998 565.883 97.4998Z" fill="#3E3E3D"/>
<path d="M310.619 53.1981C304.818 47.3967 296.907 43.1775 287.941 43.1775C270.537 43.1775 256.824 56.8898 256.824 74.2943C256.824 91.6986 271.064 105.411 287.941 105.411C296.907 105.411 304.818 101.719 310.619 95.3905V105.938H319.058V43.7047H310.619V53.1981ZM287.941 97.5C275.283 97.5 265.263 87.4795 265.263 74.8216C265.263 62.164 275.283 52.1432 287.941 52.1432C300.071 52.1432 310.092 62.164 310.619 74.8216C310.619 87.4795 300.599 97.5 287.941 97.5Z" fill="#3E3E3D"/>
<path d="M362.832 43.7046C353.867 43.7046 345.956 47.3964 340.154 53.7252V43.7046H331.716V115.432H340.154V95.9176C345.956 102.247 353.867 105.938 362.832 105.938C380.237 105.938 393.95 91.6983 393.95 74.8214C393.95 57.9445 379.709 43.7046 362.832 43.7046ZM362.832 97.4998C350.702 97.4998 340.154 87.4793 340.154 74.8214C340.154 62.1638 350.175 52.1431 362.832 52.1431C375.49 52.1431 385.511 62.1638 385.511 74.8214C385.511 87.4793 375.49 97.4998 362.832 97.4998Z" fill="#3E3E3D"/>
<path d="M481.499 75.8768V25.7732H473.06V75.8768C473.06 92.7537 486.773 106.466 503.649 106.466V98.0277C491.519 98.0277 481.499 88.007 481.499 75.8768Z" fill="#3E3E3D"/>
<path d="M70.4472 0.155029C31.5403 0.155029 0 31.6952 0 70.6021C0 109.509 31.5403 141.049 70.4472 141.049C109.354 141.049 140.894 109.509 140.894 70.6021C140.894 31.6952 109.354 0.155029 70.4472 0.155029ZM70.4472 122.288C41.902 122.288 18.7614 99.1473 18.7614 70.6021C18.7614 42.0569 41.902 18.9165 70.4472 18.9165C98.9924 18.9165 122.133 42.0569 122.133 70.6021C122.133 99.1473 98.9924 122.288 70.4472 122.288Z" fill="#3E3E3D"/>
<path d="M201.433 61.1087H140.254V0.155029H121.268V61.1087H60.0889V80.0951H121.268L121.268 141.049H140.254L140.254 80.0951H201.433V61.1087Z" fill="url(#paint0_linear_440_1655)"/>
<defs>
<linearGradient id="paint0_linear_440_1655" x1="85.4615" y1="135.297" x2="181" y2="22" gradientUnits="userSpaceOnUse">
<stop stop-color="#131047"/>
<stop offset="0.093444" stop-color="#191551"/>
<stop offset="0.490176" stop-color="#322C78"/>
<stop offset="0.806171" stop-color="#413A91"/>
<stop offset="1" stop-color="#47409A"/>
</linearGradient>
</defs>
</svg>
