<svg xmlns="http://www.w3.org/2000/svg" xmlns:xlink="http://www.w3.org/1999/xlink" id="Ebene_1" x="0px" y="0px" viewBox="0 0 150 26.8" xml:space="preserve"><g>	<g>		<g>			<g>				<linearGradient id="SVGID_1_" gradientUnits="userSpaceOnUse" x1="0" y1="13.385" x2="23.1486" y2="13.385">					<stop offset="3.195558e-07" style="stop-color:#F2463D"></stop>					<stop offset="0.1908" style="stop-color:#E33C46"></stop>					<stop offset="0.5619" style="stop-color:#BA245E"></stop>					<stop offset="1" style="stop-color:#82027E"></stop>				</linearGradient>				<path fill="url(#SVGID_1_)" d="M23.1,13.4c0,5.4-4.4,9.8-9.7,9.8c-5.4,0-9.8-4.4-9.8-9.8S8,3.6,13.4,3.6     C18.8,3.6,23.1,7.9,23.1,13.4C23.1,13.3,23.1,13.3,23.1,13.4 M23.1,4.2C20.7,1.6,17.3,0,13.4,0C6,0,0,6,0,13.4s6,13.4,13.4,13.4     c3.8,0,7.3-1.6,9.7-4.2"></path>									<linearGradient id="SVGID_00000031183367874574376880000003113080586445045636_" gradientUnits="userSpaceOnUse" x1="17.3612" y1="20.9829" x2="32.5571" y2="5.7871">					<stop offset="9.486813e-08" style="stop-color:#DE3A3C"></stop>					<stop offset="1" style="stop-color:#5E3E92"></stop>				</linearGradient>				<rect x="23.1" fill="url(#SVGID_00000031183367874574376880000003113080586445045636_)" width="3.6" height="26.8"></rect>				<path fill="#530755" d="M26.8,13.4c0-3.5-1.4-6.8-3.6-9.2l0,18.3C25.4,20.2,26.8,16.9,26.8,13.4"></path>			</g>		</g>		<defs>			<filter id="Adobe_OpacityMaskFilter" filterUnits="userSpaceOnUse" x="0" y="0" width="26.8" height="26.8">												</filter>		</defs>					<mask maskUnits="userSpaceOnUse" x="0" y="0" width="26.8" height="26.8" id="SVGID_00000087411018247148722570000015935936458663111830_">			<g filter="url(#Adobe_OpacityMaskFilter)">				<image width="31" height="31" xlink:href="3EEFC58F.jpg" transform="matrix(1 0 0 1 -2 -2.2)">				</image>			</g>		</mask>		<g opacity="0.15" mask="url(#SVGID_00000087411018247148722570000015935936458663111830_)">			<g>				<path d="M23.1,13.4c0,5.4-4.4,9.8-9.7,9.8c-5.4,0-9.8-4.4-9.8-9.8S8,3.6,13.4,3.6C18.8,3.6,23.1,7.9,23.1,13.4     C23.1,13.3,23.1,13.3,23.1,13.4 M23.1,4.2C20.7,1.6,17.3,0,13.4,0C6,0,0,6,0,13.4s6,13.4,13.4,13.4c3.8,0,7.3-1.6,9.7-4.2"></path>				<rect x="23.1" width="3.6" height="26.8"></rect>				<path d="M26.8,13.4c0-3.5-1.4-6.8-3.6-9.2l0,18.3C25.4,20.2,26.8,16.9,26.8,13.4"></path>			</g>		</g>	</g>			<linearGradient id="SVGID_00000038408298004531222200000012200108067623070128_" gradientUnits="userSpaceOnUse" x1="-1379.0043" y1="527.331" x2="-1352.2343" y2="527.331" gradientTransform="matrix(-1 0 0 -1 -1340.6602 540.716)">		<stop offset="9.486813e-08" style="stop-color:#DE3A3C"></stop>		<stop offset="1" style="stop-color:#5E3E92"></stop>	</linearGradient>	<rect x="11.6" y="11.6" fill="url(#SVGID_00000038408298004531222200000012200108067623070128_)" width="26.8" height="3.6"></rect></g><path fill="#FFFFFF" d="M88.2,14.3c0,3.3-2.6,5.9-5.9,5.9c-3.3,0-5.9-2.7-5.9-5.9c0-3.3,2.7-5.9,5.9-5.9C85.5,8.4,88.2,11,88.2,14.3 z M86.6,14.3c0-2.4-1.9-4.3-4.3-4.3c-2.4,0-4.3,1.9-4.3,4.3c0,2.4,1.9,4.3,4.3,4.3C84.6,18.6,86.6,16.6,86.6,14.3z"></path><g>	<path fill="#FFFFFF" d="M97.1,4.9v9.5c0,2.3,1.9,4.2,4.2,4.2v1.6c-3.2,0-5.8-2.6-5.8-5.8V4.9H97.1z"></path></g><path fill="#FFFFFF" d="M113.2,14.2c0,3.3-2.6,5.9-5.9,5.9c-3.3,0-5.9-2.7-5.9-5.9c0-3.3,2.7-5.9,5.9-5.9 C110.6,8.3,113.2,10.9,113.2,14.2z M111.6,14.2c0-2.4-1.9-4.3-4.3-4.3c-2.4,0-4.3,1.9-4.3,4.3c0,2.4,1.9,4.3,4.3,4.3 C109.7,18.5,111.6,16.6,111.6,14.2z"></path><g>	<g>		<path fill="#FFFFFF" d="M58.9,14.2c0,2.4-1.9,4.3-4.3,4.3c-2.4,0-4.3-1.9-4.3-4.3s1.9-4.3,4.3-4.3C56.9,9.9,58.8,11.8,58.9,14.2   C58.9,14.2,58.9,14.2,58.9,14.2 M58.9,10.1c-1.1-1.1-2.6-1.9-4.3-1.9c-3.3,0-5.9,2.6-5.9,5.9s2.7,5.9,5.9,5.9   c1.7,0,3.2-0.7,4.3-1.9"></path>		<rect x="58.9" y="8.3" fill="#FFFFFF" width="1.6" height="11.8"></rect>	</g></g><g>	<g>		<path fill="#FFFFFF" d="M64.5,14.2C64.5,14.2,64.5,14.2,64.5,14.2c0-2.4,1.9-4.3,4.3-4.3c2.4,0,4.3,1.9,4.3,4.3s-1.9,4.3-4.3,4.3   C66.5,18.5,64.5,16.6,64.5,14.2 M64.5,18.2c1.1,1.2,2.6,1.9,4.3,1.9c3.3,0,5.9-2.7,5.9-5.9s-2.7-5.9-5.9-5.9   c-1.7,0-3.2,0.7-4.3,1.9"></path>		<rect x="62.9" y="8.3" fill="#FFFFFF" width="1.6" height="13.6"></rect>	</g></g><g>	<path fill="#FFFFFF" d="M91.3,4.9v9.5c0,2.3,1.9,4.2,4.2,4.2v1.6c-3.2,0-5.8-2.6-5.8-5.8V4.9H91.3z"></path></g></svg>