<?xml version="1.0" encoding="utf-8"?>
<!-- Generator: Adobe Illustrator 27.8.0, SVG Export Plug-In . SVG Version: 6.00 Build 0)  -->
<svg version="1.1" id="Layer_1" xmlns="http://www.w3.org/2000/svg" xmlns:xlink="http://www.w3.org/1999/xlink" x="0px" y="0px"
	 viewBox="0 0 1080 1080" style="enable-background:new 0 0 1080 1080;" xml:space="preserve">
<style type="text/css">
	.st0{fill:#1D1D1D;}
	.st1{fill:url(#SVGID_1_);}
</style>
<g>
	<path class="st0" d="M461,170c-101.5,0-183.9,82.4-183.9,183.9S359.4,537.9,461,537.9s183.9-82.4,183.9-183.9S562.5,170,461,170z
		 M461,488.9c-74.5,0-134.9-60.4-134.9-134.9S386.5,219,461,219s134.9,60.4,134.9,134.9S535.5,488.9,461,488.9z"/>
	
		<linearGradient id="SVGID_1_" gradientUnits="userSpaceOnUse" x1="493.3634" y1="-538.3592" x2="734.9619" y2="-854.7649" gradientTransform="matrix(1 0 0 1 0 1056)">
		<stop  offset="0" style="stop-color:#420A98"/>
		<stop  offset="0.5521" style="stop-color:#7F13BE"/>
	</linearGradient>
	<path class="st1" d="M802.9,329.1H643.2V170h-49.6v159.1H433.9v49.6h159.7v159.1h49.6V378.7h159.7L802.9,329.1L802.9,329.1z"/>
	<path class="st0" d="M558.6,724.1c-44.1,0-81.2,35.8-81.2,81.2c0,44.1,35.8,81.2,81.2,81.2s81.2-35.8,81.2-81.2
		C639.8,759.9,602.7,724.1,558.6,724.1z M558.6,864.5c-33.1,0-59.2-26.1-59.2-59.2s26.1-59.2,59.2-59.2s59.2,26.1,59.2,59.2
		C617.8,837,590.2,864.5,558.6,864.5z"/>
	<path class="st0" d="M762.3,806.7V675.9h-22v130.8c0,44.1,35.8,79.8,79.8,79.8v-22C788.5,864.5,762.3,838.4,762.3,806.7z"/>
	<path class="st0" d="M902.8,722.7c-44.1,0-81.2,35.8-81.2,81.2c0,44.1,35.8,81.2,81.2,81.2s81.2-35.8,81.2-81.2
		C984,758.5,948.2,722.7,902.8,722.7z M902.8,863.2c-33.1,0-59.2-26.1-59.2-59.2s26.1-59.2,59.2-59.2S962,771,962,804
		C962,837,935.8,863.2,902.8,863.2z"/>
	<path class="st0" d="M236.4,747.5c-15.1-15.1-35.8-26.1-59.2-26.1c-45.5,0-81.2,35.8-81.2,81.2c0,45.5,37.2,81.2,81.2,81.2
		c23.4,0,44.1-9.6,59.2-26.1v27.5h22V722.7h-22V747.5z M177.2,863.2c-33.1,0-59.2-26.1-59.2-59.2s26.1-59.2,59.2-59.2
		c31.7,0,57.8,26.1,59.2,59.2C236.4,837,210.3,863.2,177.2,863.2z"/>
	<path class="st0" d="M372.8,722.7c-23.4,0-44.1,9.6-59.2,26.1v-26.1h-22V910h22v-51c15.1,16.5,35.8,26.1,59.2,26.1
		c45.5,0,81.2-37.2,81.2-81.2C454,759.9,416.7,722.7,372.8,722.7z M372.8,863.2c-31.7,0-59.2-26.1-59.2-59.2s26.1-59.2,59.2-59.2
		S432,771,432,804C432,837,405.7,863.2,372.8,863.2z"/>
	<path class="st0" d="M682.5,806.7V675.9h-22v130.8c0,44.1,35.8,79.8,79.8,79.8v-22C708.6,864.5,682.5,838.4,682.5,806.7z"/>
</g>
</svg>
