<?xml version="1.0" encoding="UTF-8" standalone="no"?>
<!DOCTYPE svg PUBLIC "-//W3C//DTD SVG 1.1//EN" "http://www.w3.org/Graphics/SVG/1.1/DTD/svg11.dtd">
<svg width="1080" height="1080" viewBox="0 0 1080 1080" fill="none" xmlns="http://www.w3.org/2000/svg">
    <rect width="1080" height="1080" fill="#F7EEE1"/>
    <path d="M485.108 315C360.568 315 259.608 415.96 259.608 540.5C259.608 665.041 360.568 766 485.108 766C609.648 766 710.608 665.041 710.608 540.5C710.608 415.96 609.648 315 485.108 315ZM485.108 705.944C393.735 705.944 319.663 631.873 319.663 540.5C319.663 449.128 393.735 375.055 485.108 375.055C576.481 375.055 650.552 449.128 650.552 540.5C650.552 631.873 576.481 705.944 485.108 705.944Z" fill="#1D1D1D"/>
    <path d="M904.392 510.111H708.559V315H647.784V510.111H451.951V570.887H647.784L647.784 765.999H708.559L708.559 570.887H904.392V510.111Z" fill="url(#paint0_linear_601_1787)"/>
    <defs>
        <linearGradient id="paint0_linear_601_1787" x1="533.168" y1="747.585" x2="829.382" y2="359.656" gradientUnits="userSpaceOnUse">
            <stop stop-color="#430488"/>
            <stop offset="0.541667" stop-color="#7F13BE"/>
        </linearGradient>
    </defs>
</svg>
