<?xml version="1.0" encoding="UTF-8" standalone="no"?>
<!DOCTYPE svg PUBLIC "-//W3C//DTD SVG 1.1//EN" "http://www.w3.org/Graphics/SVG/1.1/DTD/svg11.dtd">
<svg width="172" height="132" viewBox="0 0 172 132" fill="none" xmlns="http://www.w3.org/2000/svg">
    <path d="M70.748 0C51.2698 0 35.4795 15.7903 35.4795 35.2686C35.4795 54.7469 51.2698 70.5371 70.748 70.5371C90.2263 70.5371 106.017 54.7469 106.017 35.2686C106.017 15.7903 90.2263 0 70.748 0ZM70.748 61.1443C56.4572 61.1443 44.8722 49.5594 44.8722 35.2686C44.8722 20.9778 56.4572 9.39271 70.748 9.39271C85.0389 9.39271 96.6238 20.9778 96.6238 35.2686C96.6238 49.5594 85.0389 61.1443 70.748 61.1443Z" fill="#3E3E3D"/>
    <path d="M136.325 30.5157H105.696V0H96.191V30.5157H65.5625V40.0211H96.191L96.1911 70.5369H105.696L105.696 40.0211H136.325V30.5157Z" fill="url(#paint0_linear_797_5686)"/>
    <path d="M89.6515 96.3545C81.2023 96.3545 74.0732 103.22 74.0732 111.933C74.0732 120.382 80.9382 127.511 89.6515 127.511C98.3648 127.511 105.23 120.646 105.23 111.933C105.23 103.22 98.1007 96.3545 89.6515 96.3545ZM89.6515 123.286C83.3145 123.286 78.2978 118.27 78.2978 111.933C78.2978 105.596 83.3145 100.579 89.6515 100.579C95.9884 100.579 101.005 105.596 101.005 111.933C101.005 118.006 95.7244 123.286 89.6515 123.286Z" fill="#3E3E3D"/>
    <path d="M128.731 112.198V87.1143H124.507V112.198C124.507 120.647 131.372 127.512 139.821 127.512V123.288C133.748 123.288 128.731 118.271 128.731 112.198Z" fill="#3E3E3D"/>
    <path d="M155.663 96.0908C147.214 96.0908 140.085 102.956 140.085 111.669C140.085 120.118 146.95 127.247 155.663 127.247C164.377 127.247 171.242 120.382 171.242 111.669C171.242 102.956 164.377 96.0908 155.663 96.0908ZM155.663 123.023C149.326 123.023 144.31 118.006 144.31 111.669C144.31 105.332 149.326 100.315 155.663 100.315C162 100.315 167.017 105.332 167.017 111.669C167.017 118.006 162 123.023 155.663 123.023Z" fill="#3E3E3D"/>
    <path d="M27.8685 100.846C24.9641 97.9414 21.0035 95.8291 16.5148 95.8291C7.80158 95.8291 0.936523 102.694 0.936523 111.407C0.936523 120.121 8.06554 126.986 16.5148 126.986C21.0035 126.986 24.9641 125.137 27.8685 121.969V127.25H32.0931V96.0932H27.8685V100.846ZM16.5148 123.025C10.1779 123.025 5.16116 118.008 5.16116 111.671C5.16116 105.334 10.1779 100.318 16.5148 100.318C22.5878 100.318 27.6044 105.334 27.8685 111.671C27.8685 118.008 22.8517 123.025 16.5148 123.025Z" fill="#3E3E3D"/>
    <path d="M54.0088 96.0908C49.5202 96.0908 45.5597 97.939 42.6552 101.107V96.0908H38.4307V132H42.6552V122.231C45.5597 125.399 49.5202 127.247 54.0088 127.247C62.7222 127.247 69.5872 120.118 69.5872 111.669C69.5872 103.22 62.4581 96.0908 54.0088 96.0908ZM54.0088 123.023C47.936 123.023 42.6552 118.006 42.6552 111.669C42.6552 105.332 47.6719 100.315 54.0088 100.315C60.3459 100.315 65.3625 105.332 65.3625 111.669C65.3625 118.006 60.3459 123.023 54.0088 123.023Z" fill="#3E3E3D"/>
    <path d="M113.417 112.198V87.1143H109.192V112.198C109.192 120.647 116.057 127.512 124.507 127.512V123.288C118.434 123.288 113.417 118.271 113.417 112.198Z" fill="#3E3E3D"/>
    <defs>
        <linearGradient id="paint0_linear_797_5686" x1="78.265" y1="67.657" x2="124.593" y2="6.98425" gradientUnits="userSpaceOnUse">
            <stop stop-color="#3F1889"/>
            <stop offset="0.226882" stop-color="#471D8B"/>
            <stop offset="0.596734" stop-color="#602C90"/>
            <stop offset="1" stop-color="#824299"/>
        </linearGradient>
    </defs>
</svg>
